<?xml version="1.0" encoding="UTF-8" standalone="no"?>
<!DOCTYPE svg PUBLIC "-//W3C//DTD SVG 1.1//EN"
 "http://www.w3.org/Graphics/SVG/1.1/DTD/svg11.dtd">
<!-- Generated by graphviz version 2.40.1 (20161225.0304)
 -->
<!-- Title: %3 Pages: 1 -->
<svg width="432pt" height="1307pt"
 viewBox="0.00 0.00 432.00 1307.00" xmlns="http://www.w3.org/2000/svg" xmlns:xlink="http://www.w3.org/1999/xlink">
<g id="graph0" class="graph" transform="scale(1 1) rotate(0) translate(4 1303)">
<title>%3</title>
<polygon fill="#ffffff" stroke="transparent" points="-4,4 -4,-1303 428,-1303 428,4 -4,4"/>
<!-- (below main) -->
<g id="node1" class="node">
<title>(below main)</title>
<polygon fill="#ff0000" stroke="#ff0000" points="290.5,-1093 219.5,-1093 219.5,-1030 290.5,-1030 290.5,-1093"/>
<text text-anchor="middle" x="255" y="-1081" font-family="Arial" font-size="10.00" fill="#ffffff">libc&#45;2.27.so</text>
<text text-anchor="middle" x="255" y="-1070" font-family="Arial" font-size="10.00" fill="#ffffff">(below main)</text>
<text text-anchor="middle" x="255" y="-1059" font-family="Arial" font-size="10.00" fill="#ffffff">100.00%</text>
<text text-anchor="middle" x="255" y="-1048" font-family="Arial" font-size="10.00" fill="#ffffff">(0.00%)</text>
<text text-anchor="middle" x="255" y="-1037" font-family="Arial" font-size="10.00" fill="#ffffff">1×</text>
</g>
<!-- main -->
<g id="node2" class="node">
<title>main</title>
<polygon fill="#ff0000" stroke="#ff0000" points="282.5,-990 227.5,-990 227.5,-927 282.5,-927 282.5,-990"/>
<text text-anchor="middle" x="255" y="-978" font-family="Arial" font-size="10.00" fill="#ffffff">csteen</text>
<text text-anchor="middle" x="255" y="-967" font-family="Arial" font-size="10.00" fill="#ffffff">main</text>
<text text-anchor="middle" x="255" y="-956" font-family="Arial" font-size="10.00" fill="#ffffff">100.00%</text>
<text text-anchor="middle" x="255" y="-945" font-family="Arial" font-size="10.00" fill="#ffffff">(0.00%)</text>
<text text-anchor="middle" x="255" y="-934" font-family="Arial" font-size="10.00" fill="#ffffff">1×</text>
</g>
<!-- (below main)&#45;&gt;main -->
<g id="edge1" class="edge">
<title>(below main)&#45;&gt;main</title>
<path fill="none" stroke="#ff0000" stroke-width="4" d="M255,-1029.7562C255,-1020.5536 255,-1010.3591 255,-1000.6267"/>
<polygon fill="#ff0000" stroke="#ff0000" stroke-width="4" points="258.5001,-1000.3163 255,-990.3163 251.5001,-1000.3164 258.5001,-1000.3163"/>
<text text-anchor="middle" x="274.5" y="-1013" font-family="Arial" font-size="10.00" fill="#ff0000">100.00%</text>
<text text-anchor="middle" x="274.5" y="-1002" font-family="Arial" font-size="10.00" fill="#ff0000">1×</text>
</g>
<!-- Resolution_step -->
<g id="node16" class="node">
<title>Resolution_step</title>
<polygon fill="#ff0000" stroke="#ff0000" points="298,-887 212,-887 212,-824 298,-824 298,-887"/>
<text text-anchor="middle" x="255" y="-875" font-family="Arial" font-size="10.00" fill="#ffffff">csteen</text>
<text text-anchor="middle" x="255" y="-864" font-family="Arial" font-size="10.00" fill="#ffffff">Resolution_step</text>
<text text-anchor="middle" x="255" y="-853" font-family="Arial" font-size="10.00" fill="#ffffff">99.98%</text>
<text text-anchor="middle" x="255" y="-842" font-family="Arial" font-size="10.00" fill="#ffffff">(0.00%)</text>
<text text-anchor="middle" x="255" y="-831" font-family="Arial" font-size="10.00" fill="#ffffff">2485×</text>
</g>
<!-- main&#45;&gt;Resolution_step -->
<g id="edge18" class="edge">
<title>main&#45;&gt;Resolution_step</title>
<path fill="none" stroke="#ff0000" stroke-width="4" d="M255,-926.7562C255,-917.5536 255,-907.3591 255,-897.6267"/>
<polygon fill="#ff0000" stroke="#ff0000" stroke-width="4" points="258.5001,-897.3163 255,-887.3163 251.5001,-897.3164 258.5001,-897.3163"/>
<text text-anchor="middle" x="272" y="-910" font-family="Arial" font-size="10.00" fill="#ff0000">99.98%</text>
<text text-anchor="middle" x="272" y="-899" font-family="Arial" font-size="10.00" fill="#ff0000">2485×</text>
</g>
<!-- 0x0000000000000f60 -->
<g id="node3" class="node">
<title>0x0000000000000f60</title>
<polygon fill="#ff0000" stroke="#ff0000" points="309.5,-1299 200.5,-1299 200.5,-1236 309.5,-1236 309.5,-1299"/>
<text text-anchor="middle" x="255" y="-1287" font-family="Arial" font-size="10.00" fill="#ffffff">ld&#45;2.27.so</text>
<text text-anchor="middle" x="255" y="-1276" font-family="Arial" font-size="10.00" fill="#ffffff">0x0000000000000f60</text>
<text text-anchor="middle" x="255" y="-1265" font-family="Arial" font-size="10.00" fill="#ffffff">100.00%</text>
<text text-anchor="middle" x="255" y="-1254" font-family="Arial" font-size="10.00" fill="#ffffff">(0.00%)</text>
<text text-anchor="middle" x="255" y="-1243" font-family="Arial" font-size="10.00" fill="#ffffff">0×</text>
</g>
<!-- _start -->
<g id="node4" class="node">
<title>_start</title>
<polygon fill="#ff0000" stroke="#ff0000" points="282.5,-1196 227.5,-1196 227.5,-1133 282.5,-1133 282.5,-1196"/>
<text text-anchor="middle" x="255" y="-1184" font-family="Arial" font-size="10.00" fill="#ffffff">csteen</text>
<text text-anchor="middle" x="255" y="-1173" font-family="Arial" font-size="10.00" fill="#ffffff">_start</text>
<text text-anchor="middle" x="255" y="-1162" font-family="Arial" font-size="10.00" fill="#ffffff">100.00%</text>
<text text-anchor="middle" x="255" y="-1151" font-family="Arial" font-size="10.00" fill="#ffffff">(0.00%)</text>
<text text-anchor="middle" x="255" y="-1140" font-family="Arial" font-size="10.00" fill="#ffffff">1×</text>
</g>
<!-- 0x0000000000000f60&#45;&gt;_start -->
<g id="edge2" class="edge">
<title>0x0000000000000f60&#45;&gt;_start</title>
<path fill="none" stroke="#ff0000" stroke-width="4" d="M255,-1235.7562C255,-1226.5536 255,-1216.3591 255,-1206.6267"/>
<polygon fill="#ff0000" stroke="#ff0000" stroke-width="4" points="258.5001,-1206.3163 255,-1196.3163 251.5001,-1206.3164 258.5001,-1206.3163"/>
<text text-anchor="middle" x="274.5" y="-1219" font-family="Arial" font-size="10.00" fill="#ff0000">100.00%</text>
<text text-anchor="middle" x="274.5" y="-1208" font-family="Arial" font-size="10.00" fill="#ff0000">1×</text>
</g>
<!-- _start&#45;&gt;(below main) -->
<g id="edge17" class="edge">
<title>_start&#45;&gt;(below main)</title>
<path fill="none" stroke="#ff0000" stroke-width="4" d="M255,-1132.7562C255,-1123.5536 255,-1113.3591 255,-1103.6267"/>
<polygon fill="#ff0000" stroke="#ff0000" stroke-width="4" points="258.5001,-1103.3163 255,-1093.3163 251.5001,-1103.3164 258.5001,-1103.3163"/>
<text text-anchor="middle" x="274.5" y="-1116" font-family="Arial" font-size="10.00" fill="#ff0000">100.00%</text>
<text text-anchor="middle" x="274.5" y="-1105" font-family="Arial" font-size="10.00" fill="#ff0000">1×</text>
</g>
<!-- AdemAlgebra__makeMonoAdmissible2 -->
<g id="node5" class="node">
<title>AdemAlgebra__makeMonoAdmissible2</title>
<polygon fill="#0c7e8f" stroke="#0c7e8f" points="317.5,-372 130.5,-372 130.5,-309 317.5,-309 317.5,-372"/>
<text text-anchor="middle" x="224" y="-360" font-family="Arial" font-size="10.00" fill="#ffffff">csteen</text>
<text text-anchor="middle" x="224" y="-349" font-family="Arial" font-size="10.00" fill="#ffffff">AdemAlgebra__makeMonoAdmissible2</text>
<text text-anchor="middle" x="224" y="-338" font-family="Arial" font-size="10.00" fill="#ffffff">21.81%</text>
<text text-anchor="middle" x="224" y="-327" font-family="Arial" font-size="10.00" fill="#ffffff">(0.48%)</text>
<text text-anchor="middle" x="224" y="-316" font-family="Arial" font-size="10.00" fill="#ffffff">2910538×</text>
</g>
<!-- AdemAlgebra__makeMonoAdmissible2&#39;2 -->
<g id="node6" class="node">
<title>AdemAlgebra__makeMonoAdmissible2&#39;2</title>
<polygon fill="#0c798e" stroke="#0c798e" points="194,-269 0,-269 0,-206 194,-206 194,-269"/>
<text text-anchor="middle" x="97" y="-257" font-family="Arial" font-size="10.00" fill="#ffffff">csteen</text>
<text text-anchor="middle" x="97" y="-246" font-family="Arial" font-size="10.00" fill="#ffffff">AdemAlgebra__makeMonoAdmissible2&#39;2</text>
<text text-anchor="middle" x="97" y="-235" font-family="Arial" font-size="10.00" fill="#ffffff">20.95%</text>
<text text-anchor="middle" x="97" y="-224" font-family="Arial" font-size="10.00" fill="#ffffff">(6.02%)</text>
<text text-anchor="middle" x="97" y="-213" font-family="Arial" font-size="10.00" fill="#ffffff">32670781×</text>
</g>
<!-- AdemAlgebra__makeMonoAdmissible2&#45;&gt;AdemAlgebra__makeMonoAdmissible2&#39;2 -->
<g id="edge3" class="edge">
<title>AdemAlgebra__makeMonoAdmissible2&#45;&gt;AdemAlgebra__makeMonoAdmissible2&#39;2</title>
<path fill="none" stroke="#0c798e" stroke-width=".84" d="M184.8595,-308.7562C170.6156,-297.204 154.4443,-284.0887 139.8924,-272.2868"/>
<polygon fill="#0c798e" stroke="#0c798e" stroke-width=".84" points="140.8167,-270.9635 136.2298,-269.3163 138.7884,-273.4644 140.8167,-270.9635"/>
<text text-anchor="middle" x="193.5" y="-292" font-family="Arial" font-size="10.00" fill="#0c798e">20.95%</text>
<text text-anchor="middle" x="193.5" y="-281" font-family="Arial" font-size="10.00" fill="#0c798e">2813222×</text>
</g>
<!-- AdemAlgebra_basisElement_toIndex -->
<g id="node7" class="node">
<title>AdemAlgebra_basisElement_toIndex</title>
<polygon fill="#0c718c" stroke="#0c718c" points="367.5,-166 190.5,-166 190.5,-103 367.5,-103 367.5,-166"/>
<text text-anchor="middle" x="279" y="-154" font-family="Arial" font-size="10.00" fill="#ffffff">csteen</text>
<text text-anchor="middle" x="279" y="-143" font-family="Arial" font-size="10.00" fill="#ffffff">AdemAlgebra_basisElement_toIndex</text>
<text text-anchor="middle" x="279" y="-132" font-family="Arial" font-size="10.00" fill="#ffffff">19.59%</text>
<text text-anchor="middle" x="279" y="-121" font-family="Arial" font-size="10.00" fill="#ffffff">(10.32%)</text>
<text text-anchor="middle" x="279" y="-110" font-family="Arial" font-size="10.00" fill="#ffffff">13869947×</text>
</g>
<!-- AdemAlgebra__makeMonoAdmissible2&#45;&gt;AdemAlgebra_basisElement_toIndex -->
<g id="edge4" class="edge">
<title>AdemAlgebra__makeMonoAdmissible2&#45;&gt;AdemAlgebra_basisElement_toIndex</title>
<path fill="none" stroke="#0d0e73" stroke-width=".5" d="M246.0084,-308.7323C253.243,-296.7843 260.5612,-282.7538 265,-269 275.4892,-236.4992 278.5782,-197.5056 279.2902,-169.8923"/>
<polygon fill="#0d0e73" stroke="#0d0e73" stroke-width=".5" points="280.5182,-169.7701 279.3722,-166.2434 278.0688,-169.715 280.5182,-169.7701"/>
<text text-anchor="middle" x="297" y="-240.5" font-family="Arial" font-size="10.00" fill="#0d0e73">0.29%</text>
<text text-anchor="middle" x="297" y="-229.5" font-family="Arial" font-size="10.00" fill="#0d0e73">177243×</text>
</g>
<!-- AdemAlgebra__makeMonoAdmissible2&#39;2&#45;&gt;AdemAlgebra__makeMonoAdmissible2&#39;2 -->
<g id="edge5" class="edge">
<title>AdemAlgebra__makeMonoAdmissible2&#39;2&#45;&gt;AdemAlgebra__makeMonoAdmissible2&#39;2</title>
<path fill="none" stroke="#0c798e" stroke-width=".84" d="M194.2657,-243.8257C199.7382,-242.2941 203,-240.1855 203,-237.5 203,-235.6537 201.4583,-234.0801 198.7164,-232.7792"/>
<polygon fill="#0c798e" stroke="#0c798e" stroke-width=".84" points="199.1391,-231.2202 194.2657,-231.1743 198.0468,-234.2493 199.1391,-231.2202"/>
<text text-anchor="middle" x="227.5" y="-235" font-family="Arial" font-size="10.00" fill="#0c798e">29857559×</text>
</g>
<!-- AdemAlgebra__makeMonoAdmissible2&#39;2&#45;&gt;AdemAlgebra_basisElement_toIndex -->
<g id="edge6" class="edge">
<title>AdemAlgebra__makeMonoAdmissible2&#39;2&#45;&gt;AdemAlgebra_basisElement_toIndex</title>
<path fill="none" stroke="#0d4e84" stroke-width=".55" d="M153.0911,-205.7562C174.2082,-193.8053 198.2814,-180.1814 219.6831,-168.0695"/>
<polygon fill="#0d4e84" stroke="#0d4e84" stroke-width=".55" points="220.5119,-169.0885 223.0941,-166.139 219.2362,-166.8344 220.5119,-169.0885"/>
<text text-anchor="middle" x="226.5" y="-189" font-family="Arial" font-size="10.00" fill="#0d4e84">13.71%</text>
<text text-anchor="middle" x="226.5" y="-178" font-family="Arial" font-size="10.00" fill="#0d4e84">7871628×</text>
</g>
<!-- AdemAlgebra_basisElement_toKey -->
<g id="node8" class="node">
<title>AdemAlgebra_basisElement_toKey</title>
<polygon fill="#0d1575" stroke="#0d1575" points="285,-63 115,-63 115,0 285,0 285,-63"/>
<text text-anchor="middle" x="200" y="-51" font-family="Arial" font-size="10.00" fill="#ffffff">csteen</text>
<text text-anchor="middle" x="200" y="-40" font-family="Arial" font-size="10.00" fill="#ffffff">AdemAlgebra_basisElement_toKey</text>
<text text-anchor="middle" x="200" y="-29" font-family="Arial" font-size="10.00" fill="#ffffff">1.95%</text>
<text text-anchor="middle" x="200" y="-18" font-family="Arial" font-size="10.00" fill="#ffffff">(1.75%)</text>
<text text-anchor="middle" x="200" y="-7" font-family="Arial" font-size="10.00" fill="#ffffff">13876856×</text>
</g>
<!-- AdemAlgebra_basisElement_toIndex&#45;&gt;AdemAlgebra_basisElement_toKey -->
<g id="edge7" class="edge">
<title>AdemAlgebra_basisElement_toIndex&#45;&gt;AdemAlgebra_basisElement_toKey</title>
<path fill="none" stroke="#0d1575" stroke-width=".5" d="M254.6528,-102.7562C245.7924,-91.204 235.7331,-78.0887 226.6811,-66.2868"/>
<polygon fill="#0d1575" stroke="#0d1575" stroke-width=".5" points="227.505,-65.348 224.4028,-63.3163 225.5609,-66.8391 227.505,-65.348"/>
<text text-anchor="middle" x="271.5" y="-86" font-family="Arial" font-size="10.00" fill="#0d1575">1.95%</text>
<text text-anchor="middle" x="271.5" y="-75" font-family="Arial" font-size="10.00" fill="#0d1575">13869947×</text>
</g>
<!-- __strcmp_sse2_unaligned -->
<g id="node9" class="node">
<title>__strcmp_sse2_unaligned</title>
<polygon fill="#0d2d7c" stroke="#0d2d7c" points="424,-63 294,-63 294,0 424,0 424,-63"/>
<text text-anchor="middle" x="359" y="-51" font-family="Arial" font-size="10.00" fill="#ffffff">libc&#45;2.27.so</text>
<text text-anchor="middle" x="359" y="-40" font-family="Arial" font-size="10.00" fill="#ffffff">__strcmp_sse2_unaligned</text>
<text text-anchor="middle" x="359" y="-29" font-family="Arial" font-size="10.00" fill="#ffffff">7.32%</text>
<text text-anchor="middle" x="359" y="-18" font-family="Arial" font-size="10.00" fill="#ffffff">(7.32%)</text>
<text text-anchor="middle" x="359" y="-7" font-family="Arial" font-size="10.00" fill="#ffffff">199620663×</text>
</g>
<!-- AdemAlgebra_basisElement_toIndex&#45;&gt;__strcmp_sse2_unaligned -->
<g id="edge8" class="edge">
<title>AdemAlgebra_basisElement_toIndex&#45;&gt;__strcmp_sse2_unaligned</title>
<path fill="none" stroke="#0d2d7c" stroke-width=".5" d="M303.6554,-102.7562C312.6279,-91.204 322.8146,-78.0887 331.9811,-66.2868"/>
<polygon fill="#0d2d7c" stroke="#0d2d7c" stroke-width=".5" points="333.1088,-66.832 334.2883,-63.3163 331.1738,-65.3291 333.1088,-66.832"/>
<text text-anchor="middle" x="353" y="-86" font-family="Arial" font-size="10.00" fill="#0d2d7c">7.32%</text>
<text text-anchor="middle" x="353" y="-75" font-family="Arial" font-size="10.00" fill="#0d2d7c">199526070×</text>
</g>
<!-- AdemAlgebra_getDimension -->
<g id="node10" class="node">
<title>AdemAlgebra_getDimension</title>
<polygon fill="#0d1475" stroke="#0d1475" points="225,-475 85,-475 85,-412 225,-412 225,-475"/>
<text text-anchor="middle" x="155" y="-463" font-family="Arial" font-size="10.00" fill="#ffffff">csteen</text>
<text text-anchor="middle" x="155" y="-452" font-family="Arial" font-size="10.00" fill="#ffffff">AdemAlgebra_getDimension</text>
<text text-anchor="middle" x="155" y="-441" font-family="Arial" font-size="10.00" fill="#ffffff">1.66%</text>
<text text-anchor="middle" x="155" y="-430" font-family="Arial" font-size="10.00" fill="#ffffff">(1.66%)</text>
<text text-anchor="middle" x="155" y="-419" font-family="Arial" font-size="10.00" fill="#ffffff">186827554×</text>
</g>
<!-- AdemAlgebra_multiply -->
<g id="node11" class="node">
<title>AdemAlgebra_multiply</title>
<polygon fill="#0c9787" stroke="#0c9787" points="348,-475 234,-475 234,-412 348,-412 348,-475"/>
<text text-anchor="middle" x="291" y="-463" font-family="Arial" font-size="10.00" fill="#ffffff">csteen</text>
<text text-anchor="middle" x="291" y="-452" font-family="Arial" font-size="10.00" fill="#ffffff">AdemAlgebra_multiply</text>
<text text-anchor="middle" x="291" y="-441" font-family="Arial" font-size="10.00" fill="#ffffff">27.91%</text>
<text text-anchor="middle" x="291" y="-430" font-family="Arial" font-size="10.00" fill="#ffffff">(0.41%)</text>
<text text-anchor="middle" x="291" y="-419" font-family="Arial" font-size="10.00" fill="#ffffff">2910538×</text>
</g>
<!-- AdemAlgebra_multiply&#45;&gt;AdemAlgebra__makeMonoAdmissible2 -->
<g id="edge9" class="edge">
<title>AdemAlgebra_multiply&#45;&gt;AdemAlgebra__makeMonoAdmissible2</title>
<path fill="none" stroke="#0c7e8f" stroke-width=".87" d="M270.3511,-411.7562C263.0913,-400.5956 254.8825,-387.9761 247.4119,-376.4914"/>
<polygon fill="#0c7e8f" stroke="#0c7e8f" stroke-width=".87" points="248.6378,-375.3592 244.6961,-372.3163 245.88,-377.1531 248.6378,-375.3592"/>
<text text-anchor="middle" x="285.5" y="-395" font-family="Arial" font-size="10.00" fill="#0c7e8f">21.81%</text>
<text text-anchor="middle" x="285.5" y="-384" font-family="Arial" font-size="10.00" fill="#0c7e8f">2910538×</text>
</g>
<!-- AdemAlgebra_multiply&#45;&gt;AdemAlgebra_basisElement_toIndex -->
<g id="edge10" class="edge">
<title>AdemAlgebra_multiply&#45;&gt;AdemAlgebra_basisElement_toIndex</title>
<path fill="none" stroke="#0d257a" stroke-width=".5" d="M308.2027,-411.695C313.8038,-399.6281 319.2781,-385.5292 322,-372 327.0024,-347.1361 319.7648,-212.3994 318,-206 314.5297,-193.4159 308.4904,-180.6095 302.1862,-169.3776"/>
<polygon fill="#0d257a" stroke="#0d257a" stroke-width=".5" points="303.2018,-168.6856 300.403,-166.2529 301.0739,-169.8999 303.2018,-168.6856"/>
<text text-anchor="middle" x="344.5" y="-292" font-family="Arial" font-size="10.00" fill="#0d257a">5.60%</text>
<text text-anchor="middle" x="344.5" y="-281" font-family="Arial" font-size="10.00" fill="#0d257a">5821076×</text>
</g>
<!-- FreeModuleHomomorphism_getMatrix -->
<g id="node12" class="node">
<title>FreeModuleHomomorphism_getMatrix</title>
<polygon fill="#0ba260" stroke="#0ba260" points="280,-681 98,-681 98,-618 280,-618 280,-681"/>
<text text-anchor="middle" x="189" y="-669" font-family="Arial" font-size="10.00" fill="#ffffff">csteen</text>
<text text-anchor="middle" x="189" y="-658" font-family="Arial" font-size="10.00" fill="#ffffff">FreeModuleHomomorphism_getMatrix</text>
<text text-anchor="middle" x="189" y="-647" font-family="Arial" font-size="10.00" fill="#ffffff">36.03%</text>
<text text-anchor="middle" x="189" y="-636" font-family="Arial" font-size="10.00" fill="#ffffff">(0.45%)</text>
<text text-anchor="middle" x="189" y="-625" font-family="Arial" font-size="10.00" fill="#ffffff">2485×</text>
</g>
<!-- FreeModule_actOnBasis -->
<g id="node13" class="node">
<title>FreeModule_actOnBasis</title>
<polygon fill="#0ba166" stroke="#0ba166" points="251,-578 127,-578 127,-515 251,-515 251,-578"/>
<text text-anchor="middle" x="189" y="-566" font-family="Arial" font-size="10.00" fill="#ffffff">csteen</text>
<text text-anchor="middle" x="189" y="-555" font-family="Arial" font-size="10.00" fill="#ffffff">FreeModule_actOnBasis</text>
<text text-anchor="middle" x="189" y="-544" font-family="Arial" font-size="10.00" fill="#ffffff">34.90%</text>
<text text-anchor="middle" x="189" y="-533" font-family="Arial" font-size="10.00" fill="#ffffff">(4.94%)</text>
<text text-anchor="middle" x="189" y="-522" font-family="Arial" font-size="10.00" fill="#ffffff">2910538×</text>
</g>
<!-- FreeModuleHomomorphism_getMatrix&#45;&gt;FreeModule_actOnBasis -->
<g id="edge11" class="edge">
<title>FreeModuleHomomorphism_getMatrix&#45;&gt;FreeModule_actOnBasis</title>
<path fill="none" stroke="#0ba166" stroke-width="1.4" d="M189,-617.7562C189,-607.183 189,-595.3004 189,-584.3138"/>
<polygon fill="#0ba166" stroke="#0ba166" stroke-width="1.4" points="191.0651,-584.2163 189,-578.3163 186.9351,-584.2164 191.0651,-584.2163"/>
<text text-anchor="middle" x="210.5" y="-601" font-family="Arial" font-size="10.00" fill="#0ba166">34.90%</text>
<text text-anchor="middle" x="210.5" y="-590" font-family="Arial" font-size="10.00" fill="#0ba166">2910538×</text>
</g>
<!-- FreeModule_actOnBasis&#45;&gt;AdemAlgebra_getDimension -->
<g id="edge12" class="edge">
<title>FreeModule_actOnBasis&#45;&gt;AdemAlgebra_getDimension</title>
<path fill="none" stroke="#0d1475" stroke-width=".5" d="M178.5214,-514.7562C174.7728,-503.3998 170.5254,-490.5328 166.6815,-478.888"/>
<polygon fill="#0d1475" stroke="#0d1475" stroke-width=".5" points="167.7629,-478.2559 165.5025,-475.3163 165.4364,-479.024 167.7629,-478.2559"/>
<text text-anchor="middle" x="203" y="-498" font-family="Arial" font-size="10.00" fill="#0d1475">1.65%</text>
<text text-anchor="middle" x="203" y="-487" font-family="Arial" font-size="10.00" fill="#0d1475">185870200×</text>
</g>
<!-- FreeModule_actOnBasis&#45;&gt;AdemAlgebra_multiply -->
<g id="edge13" class="edge">
<title>FreeModule_actOnBasis&#45;&gt;AdemAlgebra_multiply</title>
<path fill="none" stroke="#0c9787" stroke-width="1.12" d="M222.9802,-514.8488C226.0527,-511.8808 229.0978,-508.899 232,-506 240.4375,-497.572 249.3572,-488.3148 257.6357,-479.5675"/>
<polygon fill="#0c9787" stroke="#0c9787" stroke-width="1.12" points="259.3551,-480.4482 261.6432,-475.3202 256.6566,-477.9021 259.3551,-480.4482"/>
<text text-anchor="middle" x="273.5" y="-498" font-family="Arial" font-size="10.00" fill="#0c9787">27.91%</text>
<text text-anchor="middle" x="273.5" y="-487" font-family="Arial" font-size="10.00" fill="#0c9787">2910538×</text>
</g>
<!-- Resolution_generateOldKernelAndComputeNewKernel -->
<g id="node14" class="node">
<title>Resolution_generateOldKernelAndComputeNewKernel</title>
<polygon fill="#ff0000" stroke="#ff0000" points="380.5,-784 129.5,-784 129.5,-721 380.5,-721 380.5,-784"/>
<text text-anchor="middle" x="255" y="-772" font-family="Arial" font-size="10.00" fill="#ffffff">csteen</text>
<text text-anchor="middle" x="255" y="-761" font-family="Arial" font-size="10.00" fill="#ffffff">Resolution_generateOldKernelAndComputeNewKernel</text>
<text text-anchor="middle" x="255" y="-750" font-family="Arial" font-size="10.00" fill="#ffffff">99.98%</text>
<text text-anchor="middle" x="255" y="-739" font-family="Arial" font-size="10.00" fill="#ffffff">(0.02%)</text>
<text text-anchor="middle" x="255" y="-728" font-family="Arial" font-size="10.00" fill="#ffffff">2485×</text>
</g>
<!-- Resolution_generateOldKernelAndComputeNewKernel&#45;&gt;FreeModuleHomomorphism_getMatrix -->
<g id="edge14" class="edge">
<title>Resolution_generateOldKernelAndComputeNewKernel&#45;&gt;FreeModuleHomomorphism_getMatrix</title>
<path fill="none" stroke="#0ba260" stroke-width="1.44" d="M234.6593,-720.7562C227.6961,-709.8893 219.8465,-697.6393 212.6449,-686.4004"/>
<polygon fill="#0ba260" stroke="#0ba260" stroke-width="1.44" points="214.3925,-685.2352 209.3872,-681.3163 210.8562,-687.5012 214.3925,-685.2352"/>
<text text-anchor="middle" x="245" y="-704" font-family="Arial" font-size="10.00" fill="#0ba260">36.03%</text>
<text text-anchor="middle" x="245" y="-693" font-family="Arial" font-size="10.00" fill="#0ba260">2485×</text>
</g>
<!-- rowReduce -->
<g id="node15" class="node">
<title>rowReduce</title>
<polygon fill="#72c908" stroke="#72c908" points="354.5,-681 289.5,-681 289.5,-618 354.5,-618 354.5,-681"/>
<text text-anchor="middle" x="322" y="-669" font-family="Arial" font-size="10.00" fill="#ffffff">csteen</text>
<text text-anchor="middle" x="322" y="-658" font-family="Arial" font-size="10.00" fill="#ffffff">rowReduce</text>
<text text-anchor="middle" x="322" y="-647" font-family="Arial" font-size="10.00" fill="#ffffff">63.73%</text>
<text text-anchor="middle" x="322" y="-636" font-family="Arial" font-size="10.00" fill="#ffffff">(45.83%)</text>
<text text-anchor="middle" x="322" y="-625" font-family="Arial" font-size="10.00" fill="#ffffff">4970×</text>
</g>
<!-- Resolution_generateOldKernelAndComputeNewKernel&#45;&gt;rowReduce -->
<g id="edge15" class="edge">
<title>Resolution_generateOldKernelAndComputeNewKernel&#45;&gt;rowReduce</title>
<path fill="none" stroke="#72c908" stroke-width="2.55" d="M275.6489,-720.7562C282.3355,-710.4767 289.8273,-698.9595 296.8058,-688.2314"/>
<polygon fill="#72c908" stroke="#72c908" stroke-width="2.55" points="299.2888,-689.5492 301.3039,-681.3163 294.5946,-686.4956 299.2888,-689.5492"/>
<text text-anchor="middle" x="312" y="-704" font-family="Arial" font-size="10.00" fill="#72c908">63.73%</text>
<text text-anchor="middle" x="312" y="-693" font-family="Arial" font-size="10.00" fill="#72c908">4970×</text>
</g>
<!-- Vector2_add -->
<g id="node17" class="node">
<title>Vector2_add</title>
<polygon fill="#0c668a" stroke="#0c668a" points="357.5,-578 286.5,-578 286.5,-515 357.5,-515 357.5,-578"/>
<text text-anchor="middle" x="322" y="-566" font-family="Arial" font-size="10.00" fill="#ffffff">csteen</text>
<text text-anchor="middle" x="322" y="-555" font-family="Arial" font-size="10.00" fill="#ffffff">Vector2_add</text>
<text text-anchor="middle" x="322" y="-544" font-family="Arial" font-size="10.00" fill="#ffffff">17.89%</text>
<text text-anchor="middle" x="322" y="-533" font-family="Arial" font-size="10.00" fill="#ffffff">(17.89%)</text>
<text text-anchor="middle" x="322" y="-522" font-family="Arial" font-size="10.00" fill="#ffffff">31182914×</text>
</g>
<!-- rowReduce&#45;&gt;Vector2_add -->
<g id="edge19" class="edge">
<title>rowReduce&#45;&gt;Vector2_add</title>
<path fill="none" stroke="#0c668a" stroke-width=".72" d="M322,-617.7562C322,-606.6935 322,-594.1974 322,-582.7939"/>
<polygon fill="#0c668a" stroke="#0c668a" stroke-width=".72" points="323.4701,-582.5163 322,-578.3163 320.5301,-582.5164 323.4701,-582.5163"/>
<text text-anchor="middle" x="346.5" y="-601" font-family="Arial" font-size="10.00" fill="#0c668a">17.89%</text>
<text text-anchor="middle" x="346.5" y="-590" font-family="Arial" font-size="10.00" fill="#0c668a">31182914×</text>
</g>
<!-- Resolution_step&#45;&gt;Resolution_generateOldKernelAndComputeNewKernel -->
<g id="edge16" class="edge">
<title>Resolution_step&#45;&gt;Resolution_generateOldKernelAndComputeNewKernel</title>
<path fill="none" stroke="#ff0000" stroke-width="4" d="M255,-823.7562C255,-814.5536 255,-804.3591 255,-794.6267"/>
<polygon fill="#ff0000" stroke="#ff0000" stroke-width="4" points="258.5001,-794.3163 255,-784.3163 251.5001,-794.3164 258.5001,-794.3163"/>
<text text-anchor="middle" x="272" y="-807" font-family="Arial" font-size="10.00" fill="#ff0000">99.98%</text>
<text text-anchor="middle" x="272" y="-796" font-family="Arial" font-size="10.00" fill="#ff0000">2485×</text>
</g>
</g>
</svg>
