<?xml version="1.0" encoding="UTF-8" standalone="no"?>
<!DOCTYPE svg PUBLIC "-//W3C//DTD SVG 1.1//EN"
 "http://www.w3.org/Graphics/SVG/1.1/DTD/svg11.dtd">
<!-- Generated by graphviz version 2.40.1 (20161225.0304)
 -->
<!-- Title: %3 Pages: 1 -->
<svg width="599pt" height="1307pt"
 viewBox="0.00 0.00 599.00 1307.00" xmlns="http://www.w3.org/2000/svg" xmlns:xlink="http://www.w3.org/1999/xlink">
<g id="graph0" class="graph" transform="scale(1 1) rotate(0) translate(4 1303)">
<title>%3</title>
<polygon fill="#ffffff" stroke="transparent" points="-4,4 -4,-1303 595,-1303 595,4 -4,4"/>
<!-- (below main) -->
<g id="node1" class="node">
<title>(below main)</title>
<polygon fill="#ff0000" stroke="#ff0000" points="237.5,-1093 166.5,-1093 166.5,-1030 237.5,-1030 237.5,-1093"/>
<text text-anchor="middle" x="202" y="-1081" font-family="Arial" font-size="10.00" fill="#ffffff">libc&#45;2.27.so</text>
<text text-anchor="middle" x="202" y="-1070" font-family="Arial" font-size="10.00" fill="#ffffff">(below main)</text>
<text text-anchor="middle" x="202" y="-1059" font-family="Arial" font-size="10.00" fill="#ffffff">100.00%</text>
<text text-anchor="middle" x="202" y="-1048" font-family="Arial" font-size="10.00" fill="#ffffff">(0.00%)</text>
<text text-anchor="middle" x="202" y="-1037" font-family="Arial" font-size="10.00" fill="#ffffff">1×</text>
</g>
<!-- main -->
<g id="node2" class="node">
<title>main</title>
<polygon fill="#ff0000" stroke="#ff0000" points="229.5,-990 174.5,-990 174.5,-927 229.5,-927 229.5,-990"/>
<text text-anchor="middle" x="202" y="-978" font-family="Arial" font-size="10.00" fill="#ffffff">csteen</text>
<text text-anchor="middle" x="202" y="-967" font-family="Arial" font-size="10.00" fill="#ffffff">main</text>
<text text-anchor="middle" x="202" y="-956" font-family="Arial" font-size="10.00" fill="#ffffff">100.00%</text>
<text text-anchor="middle" x="202" y="-945" font-family="Arial" font-size="10.00" fill="#ffffff">(0.00%)</text>
<text text-anchor="middle" x="202" y="-934" font-family="Arial" font-size="10.00" fill="#ffffff">1×</text>
</g>
<!-- (below main)&#45;&gt;main -->
<g id="edge1" class="edge">
<title>(below main)&#45;&gt;main</title>
<path fill="none" stroke="#ff0000" stroke-width="4" d="M202,-1029.7562C202,-1020.5536 202,-1010.3591 202,-1000.6267"/>
<polygon fill="#ff0000" stroke="#ff0000" stroke-width="4" points="205.5001,-1000.3163 202,-990.3163 198.5001,-1000.3164 205.5001,-1000.3163"/>
<text text-anchor="middle" x="221.5" y="-1013" font-family="Arial" font-size="10.00" fill="#ff0000">100.00%</text>
<text text-anchor="middle" x="221.5" y="-1002" font-family="Arial" font-size="10.00" fill="#ff0000">1×</text>
</g>
<!-- Resolution_step -->
<g id="node18" class="node">
<title>Resolution_step</title>
<polygon fill="#ff0200" stroke="#ff0200" points="245,-887 159,-887 159,-824 245,-824 245,-887"/>
<text text-anchor="middle" x="202" y="-875" font-family="Arial" font-size="10.00" fill="#ffffff">csteen</text>
<text text-anchor="middle" x="202" y="-864" font-family="Arial" font-size="10.00" fill="#ffffff">Resolution_step</text>
<text text-anchor="middle" x="202" y="-853" font-family="Arial" font-size="10.00" fill="#ffffff">99.79%</text>
<text text-anchor="middle" x="202" y="-842" font-family="Arial" font-size="10.00" fill="#ffffff">(0.01%)</text>
<text text-anchor="middle" x="202" y="-831" font-family="Arial" font-size="10.00" fill="#ffffff">5050×</text>
</g>
<!-- main&#45;&gt;Resolution_step -->
<g id="edge23" class="edge">
<title>main&#45;&gt;Resolution_step</title>
<path fill="none" stroke="#ff0200" stroke-width="3.99" d="M202,-926.7562C202,-917.5536 202,-907.3591 202,-897.6267"/>
<polygon fill="#ff0200" stroke="#ff0200" stroke-width="3.99" points="205.5001,-897.3163 202,-887.3163 198.5001,-897.3164 205.5001,-897.3163"/>
<text text-anchor="middle" x="219" y="-910" font-family="Arial" font-size="10.00" fill="#ff0200">99.79%</text>
<text text-anchor="middle" x="219" y="-899" font-family="Arial" font-size="10.00" fill="#ff0200">5050×</text>
</g>
<!-- 0x0000000000001090 -->
<g id="node3" class="node">
<title>0x0000000000001090</title>
<polygon fill="#ff0000" stroke="#ff0000" points="257.5,-1299 146.5,-1299 146.5,-1236 257.5,-1236 257.5,-1299"/>
<text text-anchor="middle" x="202" y="-1287" font-family="Arial" font-size="10.00" fill="#ffffff">ld&#45;2.27.so</text>
<text text-anchor="middle" x="202" y="-1276" font-family="Arial" font-size="10.00" fill="#ffffff">0x0000000000001090</text>
<text text-anchor="middle" x="202" y="-1265" font-family="Arial" font-size="10.00" fill="#ffffff">100.00%</text>
<text text-anchor="middle" x="202" y="-1254" font-family="Arial" font-size="10.00" fill="#ffffff">(0.00%)</text>
<text text-anchor="middle" x="202" y="-1243" font-family="Arial" font-size="10.00" fill="#ffffff">0×</text>
</g>
<!-- _start -->
<g id="node4" class="node">
<title>_start</title>
<polygon fill="#ff0000" stroke="#ff0000" points="229.5,-1196 174.5,-1196 174.5,-1133 229.5,-1133 229.5,-1196"/>
<text text-anchor="middle" x="202" y="-1184" font-family="Arial" font-size="10.00" fill="#ffffff">csteen</text>
<text text-anchor="middle" x="202" y="-1173" font-family="Arial" font-size="10.00" fill="#ffffff">_start</text>
<text text-anchor="middle" x="202" y="-1162" font-family="Arial" font-size="10.00" fill="#ffffff">100.00%</text>
<text text-anchor="middle" x="202" y="-1151" font-family="Arial" font-size="10.00" fill="#ffffff">(0.00%)</text>
<text text-anchor="middle" x="202" y="-1140" font-family="Arial" font-size="10.00" fill="#ffffff">1×</text>
</g>
<!-- 0x0000000000001090&#45;&gt;_start -->
<g id="edge2" class="edge">
<title>0x0000000000001090&#45;&gt;_start</title>
<path fill="none" stroke="#ff0000" stroke-width="4" d="M202,-1235.7562C202,-1226.5536 202,-1216.3591 202,-1206.6267"/>
<polygon fill="#ff0000" stroke="#ff0000" stroke-width="4" points="205.5001,-1206.3163 202,-1196.3163 198.5001,-1206.3164 205.5001,-1206.3163"/>
<text text-anchor="middle" x="221.5" y="-1219" font-family="Arial" font-size="10.00" fill="#ff0000">100.00%</text>
<text text-anchor="middle" x="221.5" y="-1208" font-family="Arial" font-size="10.00" fill="#ff0000">1×</text>
</g>
<!-- _start&#45;&gt;(below main) -->
<g id="edge22" class="edge">
<title>_start&#45;&gt;(below main)</title>
<path fill="none" stroke="#ff0000" stroke-width="4" d="M202,-1132.7562C202,-1123.5536 202,-1113.3591 202,-1103.6267"/>
<polygon fill="#ff0000" stroke="#ff0000" stroke-width="4" points="205.5001,-1103.3163 202,-1093.3163 198.5001,-1103.3164 205.5001,-1103.3163"/>
<text text-anchor="middle" x="221.5" y="-1116" font-family="Arial" font-size="10.00" fill="#ff0000">100.00%</text>
<text text-anchor="middle" x="221.5" y="-1105" font-family="Arial" font-size="10.00" fill="#ff0000">1×</text>
</g>
<!-- AdemAlgebra__makeMonoAdmissibleGeneric -->
<g id="node5" class="node">
<title>AdemAlgebra__makeMonoAdmissibleGeneric</title>
<polygon fill="#0d2d7c" stroke="#0d2d7c" points="439.5,-372 224.5,-372 224.5,-309 439.5,-309 439.5,-372"/>
<text text-anchor="middle" x="332" y="-360" font-family="Arial" font-size="10.00" fill="#ffffff">csteen</text>
<text text-anchor="middle" x="332" y="-349" font-family="Arial" font-size="10.00" fill="#ffffff">AdemAlgebra__makeMonoAdmissibleGeneric</text>
<text text-anchor="middle" x="332" y="-338" font-family="Arial" font-size="10.00" fill="#ffffff">7.17%</text>
<text text-anchor="middle" x="332" y="-327" font-family="Arial" font-size="10.00" fill="#ffffff">(0.80%)</text>
<text text-anchor="middle" x="332" y="-316" font-family="Arial" font-size="10.00" fill="#ffffff">90499×</text>
</g>
<!-- AdemAlgebra__makeMonoAdmissibleGeneric&#39;2 -->
<g id="node6" class="node">
<title>AdemAlgebra__makeMonoAdmissibleGeneric&#39;2</title>
<polygon fill="#0d2379" stroke="#0d2379" points="483,-269 261,-269 261,-206 483,-206 483,-269"/>
<text text-anchor="middle" x="372" y="-257" font-family="Arial" font-size="10.00" fill="#ffffff">csteen</text>
<text text-anchor="middle" x="372" y="-246" font-family="Arial" font-size="10.00" fill="#ffffff">AdemAlgebra__makeMonoAdmissibleGeneric&#39;2</text>
<text text-anchor="middle" x="372" y="-235" font-family="Arial" font-size="10.00" fill="#ffffff">5.07%</text>
<text text-anchor="middle" x="372" y="-224" font-family="Arial" font-size="10.00" fill="#ffffff">(1.12%)</text>
<text text-anchor="middle" x="372" y="-213" font-family="Arial" font-size="10.00" fill="#ffffff">210651×</text>
</g>
<!-- AdemAlgebra__makeMonoAdmissibleGeneric&#45;&gt;AdemAlgebra__makeMonoAdmissibleGeneric&#39;2 -->
<g id="edge3" class="edge">
<title>AdemAlgebra__makeMonoAdmissibleGeneric&#45;&gt;AdemAlgebra__makeMonoAdmissibleGeneric&#39;2</title>
<path fill="none" stroke="#0d2379" stroke-width=".5" d="M344.3277,-308.7562C348.776,-297.3019 353.821,-284.3109 358.3739,-272.5871"/>
<polygon fill="#0d2379" stroke="#0d2379" stroke-width=".5" points="359.519,-273.0224 359.6441,-269.3163 357.2351,-272.1355 359.519,-273.0224"/>
<text text-anchor="middle" x="371.5" y="-292" font-family="Arial" font-size="10.00" fill="#0d2379">5.07%</text>
<text text-anchor="middle" x="371.5" y="-281" font-family="Arial" font-size="10.00" fill="#0d2379">82236×</text>
</g>
<!-- AdemAlgebra_basisElement_toIndex -->
<g id="node7" class="node">
<title>AdemAlgebra_basisElement_toIndex</title>
<polygon fill="#0d247a" stroke="#0d247a" points="307.5,-166 130.5,-166 130.5,-103 307.5,-103 307.5,-166"/>
<text text-anchor="middle" x="219" y="-154" font-family="Arial" font-size="10.00" fill="#ffffff">csteen</text>
<text text-anchor="middle" x="219" y="-143" font-family="Arial" font-size="10.00" fill="#ffffff">AdemAlgebra_basisElement_toIndex</text>
<text text-anchor="middle" x="219" y="-132" font-family="Arial" font-size="10.00" fill="#ffffff">5.45%</text>
<text text-anchor="middle" x="219" y="-121" font-family="Arial" font-size="10.00" fill="#ffffff">(2.77%)</text>
<text text-anchor="middle" x="219" y="-110" font-family="Arial" font-size="10.00" fill="#ffffff">432717×</text>
</g>
<!-- AdemAlgebra__makeMonoAdmissibleGeneric&#45;&gt;AdemAlgebra_basisElement_toIndex -->
<g id="edge4" class="edge">
<title>AdemAlgebra__makeMonoAdmissibleGeneric&#45;&gt;AdemAlgebra_basisElement_toIndex</title>
<path fill="none" stroke="#0d0d73" stroke-width=".5" d="M263.2148,-308.9708C247.702,-298.5118 233.1371,-285.2744 224,-269 207.0308,-238.7755 208.0485,-198.4179 211.9056,-169.8188"/>
<polygon fill="#0d0d73" stroke="#0d0d73" stroke-width=".5" points="213.1628,-169.677 212.4409,-166.0398 210.7371,-169.3334 213.1628,-169.677"/>
<text text-anchor="middle" x="240.5" y="-240.5" font-family="Arial" font-size="10.00" fill="#0d0d73">0.14%</text>
<text text-anchor="middle" x="240.5" y="-229.5" font-family="Arial" font-size="10.00" fill="#0d0d73">10929×</text>
</g>
<!-- BinomialOdd -->
<g id="node8" class="node">
<title>BinomialOdd</title>
<polygon fill="#0d1976" stroke="#0d1976" points="537,-166 465,-166 465,-103 537,-103 537,-166"/>
<text text-anchor="middle" x="501" y="-154" font-family="Arial" font-size="10.00" fill="#ffffff">csteen</text>
<text text-anchor="middle" x="501" y="-143" font-family="Arial" font-size="10.00" fill="#ffffff">BinomialOdd</text>
<text text-anchor="middle" x="501" y="-132" font-family="Arial" font-size="10.00" fill="#ffffff">2.79%</text>
<text text-anchor="middle" x="501" y="-121" font-family="Arial" font-size="10.00" fill="#ffffff">(0.25%)</text>
<text text-anchor="middle" x="501" y="-110" font-family="Arial" font-size="10.00" fill="#ffffff">408366×</text>
</g>
<!-- AdemAlgebra__makeMonoAdmissibleGeneric&#45;&gt;BinomialOdd -->
<g id="edge5" class="edge">
<title>AdemAlgebra__makeMonoAdmissibleGeneric&#45;&gt;BinomialOdd</title>
<path fill="none" stroke="#0d1174" stroke-width=".5" d="M439.6171,-316.5574C485.131,-304.0487 530.718,-287.4966 544,-269 565.4533,-239.124 546.991,-198.0694 528.0309,-169.2006"/>
<polygon fill="#0d1174" stroke="#0d1174" stroke-width=".5" points="528.92,-168.3259 525.9583,-166.0945 526.8821,-169.6859 528.92,-168.3259"/>
<text text-anchor="middle" x="572" y="-240.5" font-family="Arial" font-size="10.00" fill="#0d1174">1.07%</text>
<text text-anchor="middle" x="572" y="-229.5" font-family="Arial" font-size="10.00" fill="#0d1174">139705×</text>
</g>
<!-- AdemAlgebra__makeMonoAdmissibleGeneric&#39;2&#45;&gt;AdemAlgebra__makeMonoAdmissibleGeneric&#39;2 -->
<g id="edge6" class="edge">
<title>AdemAlgebra__makeMonoAdmissibleGeneric&#39;2&#45;&gt;AdemAlgebra__makeMonoAdmissibleGeneric&#39;2</title>
<path fill="none" stroke="#0d2379" stroke-width=".5" d="M483.1034,-243.5699C488.6992,-242.0624 492,-240.0391 492,-237.5 492,-235.5957 490.1433,-233.9815 486.8542,-232.6574"/>
<polygon fill="#0d2379" stroke="#0d2379" stroke-width=".5" points="486.8108,-231.3544 483.1034,-231.4301 486.0488,-233.6829 486.8108,-231.3544"/>
<text text-anchor="middle" x="511" y="-235" font-family="Arial" font-size="10.00" fill="#0d2379">128415×</text>
</g>
<!-- AdemAlgebra__makeMonoAdmissibleGeneric&#39;2&#45;&gt;AdemAlgebra_basisElement_toIndex -->
<g id="edge7" class="edge">
<title>AdemAlgebra__makeMonoAdmissibleGeneric&#39;2&#45;&gt;AdemAlgebra_basisElement_toIndex</title>
<path fill="none" stroke="#0d1575" stroke-width=".5" d="M324.8465,-205.7562C307.1673,-193.8545 287.0234,-180.2935 269.0875,-168.2191"/>
<polygon fill="#0d1575" stroke="#0d1575" stroke-width=".5" points="269.5853,-167.0774 265.9978,-166.139 268.2171,-169.1098 269.5853,-167.0774"/>
<text text-anchor="middle" x="329" y="-189" font-family="Arial" font-size="10.00" fill="#0d1575">1.96%</text>
<text text-anchor="middle" x="329" y="-178" font-family="Arial" font-size="10.00" fill="#0d1575">130606×</text>
</g>
<!-- AdemAlgebra__makeMonoAdmissibleGeneric&#39;2&#45;&gt;BinomialOdd -->
<g id="edge8" class="edge">
<title>AdemAlgebra__makeMonoAdmissibleGeneric&#39;2&#45;&gt;BinomialOdd</title>
<path fill="none" stroke="#0d1475" stroke-width=".5" d="M411.7569,-205.7562C427.5807,-193.1216 445.7465,-178.6172 461.5408,-166.0062"/>
<polygon fill="#0d1475" stroke="#0d1475" stroke-width=".5" points="462.6958,-166.6516 464.6666,-163.5104 461.1671,-164.737 462.6958,-166.6516"/>
<text text-anchor="middle" x="467" y="-189" font-family="Arial" font-size="10.00" fill="#0d1475">1.72%</text>
<text text-anchor="middle" x="467" y="-178" font-family="Arial" font-size="10.00" fill="#0d1475">268661×</text>
</g>
<!-- AdemAlgebra_basisElement_toKey -->
<g id="node9" class="node">
<title>AdemAlgebra_basisElement_toKey</title>
<polygon fill="#0d1575" stroke="#0d1575" points="304,-63 134,-63 134,0 304,0 304,-63"/>
<text text-anchor="middle" x="219" y="-51" font-family="Arial" font-size="10.00" fill="#ffffff">csteen</text>
<text text-anchor="middle" x="219" y="-40" font-family="Arial" font-size="10.00" fill="#ffffff">AdemAlgebra_basisElement_toKey</text>
<text text-anchor="middle" x="219" y="-29" font-family="Arial" font-size="10.00" fill="#ffffff">1.89%</text>
<text text-anchor="middle" x="219" y="-18" font-family="Arial" font-size="10.00" fill="#ffffff">(1.69%)</text>
<text text-anchor="middle" x="219" y="-7" font-family="Arial" font-size="10.00" fill="#ffffff">433585×</text>
</g>
<!-- AdemAlgebra_basisElement_toIndex&#45;&gt;AdemAlgebra_basisElement_toKey -->
<g id="edge9" class="edge">
<title>AdemAlgebra_basisElement_toIndex&#45;&gt;AdemAlgebra_basisElement_toKey</title>
<path fill="none" stroke="#0d1575" stroke-width=".5" d="M219,-102.7562C219,-91.3998 219,-78.5328 219,-66.888"/>
<polygon fill="#0d1575" stroke="#0d1575" stroke-width=".5" points="220.2251,-66.8163 219,-63.3163 217.7751,-66.8164 220.2251,-66.8163"/>
<text text-anchor="middle" x="238" y="-86" font-family="Arial" font-size="10.00" fill="#0d1575">1.89%</text>
<text text-anchor="middle" x="238" y="-75" font-family="Arial" font-size="10.00" fill="#0d1575">432717×</text>
</g>
<!-- MultinomialOdd.constprop.1 -->
<g id="node12" class="node">
<title>MultinomialOdd.constprop.1</title>
<polygon fill="#0d1776" stroke="#0d1776" points="570,-63 432,-63 432,0 570,0 570,-63"/>
<text text-anchor="middle" x="501" y="-51" font-family="Arial" font-size="10.00" fill="#ffffff">csteen</text>
<text text-anchor="middle" x="501" y="-40" font-family="Arial" font-size="10.00" fill="#ffffff">MultinomialOdd.constprop.1</text>
<text text-anchor="middle" x="501" y="-29" font-family="Arial" font-size="10.00" fill="#ffffff">2.54%</text>
<text text-anchor="middle" x="501" y="-18" font-family="Arial" font-size="10.00" fill="#ffffff">(2.21%)</text>
<text text-anchor="middle" x="501" y="-7" font-family="Arial" font-size="10.00" fill="#ffffff">317086×</text>
</g>
<!-- BinomialOdd&#45;&gt;MultinomialOdd.constprop.1 -->
<g id="edge12" class="edge">
<title>BinomialOdd&#45;&gt;MultinomialOdd.constprop.1</title>
<path fill="none" stroke="#0d1776" stroke-width=".5" d="M501,-102.7562C501,-91.3998 501,-78.5328 501,-66.888"/>
<polygon fill="#0d1776" stroke="#0d1776" stroke-width=".5" points="502.2251,-66.8163 501,-63.3163 499.7751,-66.8164 502.2251,-66.8163"/>
<text text-anchor="middle" x="520" y="-86" font-family="Arial" font-size="10.00" fill="#0d1776">2.54%</text>
<text text-anchor="middle" x="520" y="-75" font-family="Arial" font-size="10.00" fill="#0d1776">317086×</text>
</g>
<!-- AdemAlgebra_getDimension -->
<g id="node10" class="node">
<title>AdemAlgebra_getDimension</title>
<polygon fill="#0d1c77" stroke="#0d1c77" points="140,-475 0,-475 0,-412 140,-412 140,-475"/>
<text text-anchor="middle" x="70" y="-463" font-family="Arial" font-size="10.00" fill="#ffffff">csteen</text>
<text text-anchor="middle" x="70" y="-452" font-family="Arial" font-size="10.00" fill="#ffffff">AdemAlgebra_getDimension</text>
<text text-anchor="middle" x="70" y="-441" font-family="Arial" font-size="10.00" fill="#ffffff">3.58%</text>
<text text-anchor="middle" x="70" y="-430" font-family="Arial" font-size="10.00" fill="#ffffff">(3.58%)</text>
<text text-anchor="middle" x="70" y="-419" font-family="Arial" font-size="10.00" fill="#ffffff">14396735×</text>
</g>
<!-- AdemAlgebra_multiply -->
<g id="node11" class="node">
<title>AdemAlgebra_multiply</title>
<polygon fill="#0d4181" stroke="#0d4181" points="263,-475 149,-475 149,-412 263,-412 263,-475"/>
<text text-anchor="middle" x="206" y="-463" font-family="Arial" font-size="10.00" fill="#ffffff">csteen</text>
<text text-anchor="middle" x="206" y="-452" font-family="Arial" font-size="10.00" fill="#ffffff">AdemAlgebra_multiply</text>
<text text-anchor="middle" x="206" y="-441" font-family="Arial" font-size="10.00" fill="#ffffff">11.23%</text>
<text text-anchor="middle" x="206" y="-430" font-family="Arial" font-size="10.00" fill="#ffffff">(0.60%)</text>
<text text-anchor="middle" x="206" y="-419" font-family="Arial" font-size="10.00" fill="#ffffff">136982×</text>
</g>
<!-- AdemAlgebra_multiply&#45;&gt;AdemAlgebra__makeMonoAdmissibleGeneric -->
<g id="edge10" class="edge">
<title>AdemAlgebra_multiply&#45;&gt;AdemAlgebra__makeMonoAdmissibleGeneric</title>
<path fill="none" stroke="#0d2d7c" stroke-width=".5" d="M244.8323,-411.7562C259.2035,-400.0082 275.5524,-386.6437 290.178,-374.6878"/>
<polygon fill="#0d2d7c" stroke="#0d2d7c" stroke-width=".5" points="291.1445,-375.48 293.0791,-372.3163 289.5939,-373.5831 291.1445,-375.48"/>
<text text-anchor="middle" x="297.5" y="-395" font-family="Arial" font-size="10.00" fill="#0d2d7c">7.17%</text>
<text text-anchor="middle" x="297.5" y="-384" font-family="Arial" font-size="10.00" fill="#0d2d7c">90499×</text>
</g>
<!-- AdemAlgebra_multiply&#45;&gt;AdemAlgebra_basisElement_toIndex -->
<g id="edge11" class="edge">
<title>AdemAlgebra_multiply&#45;&gt;AdemAlgebra_basisElement_toIndex</title>
<path fill="none" stroke="#0d1b77" stroke-width=".5" d="M201.7458,-411.9398C198.0609,-382.9139 193.0144,-338.6481 191,-300 188.0816,-244.009 196.0716,-229.7834 208,-175 208.3682,-173.3092 208.7627,-171.5835 209.1755,-169.844"/>
<polygon fill="#0d1b77" stroke="#0d1b77" stroke-width=".5" points="210.4101,-169.9511 210.046,-166.2608 208.0293,-169.3727 210.4101,-169.9511"/>
<text text-anchor="middle" x="210" y="-292" font-family="Arial" font-size="10.00" fill="#0d1b77">3.35%</text>
<text text-anchor="middle" x="210" y="-281" font-family="Arial" font-size="10.00" fill="#0d1b77">291182×</text>
</g>
<!-- FreeModuleHomomorphism_getMatrix -->
<g id="node13" class="node">
<title>FreeModuleHomomorphism_getMatrix</title>
<polygon fill="#0c8390" stroke="#0c8390" points="293,-681 111,-681 111,-618 293,-618 293,-681"/>
<text text-anchor="middle" x="202" y="-669" font-family="Arial" font-size="10.00" fill="#ffffff">csteen</text>
<text text-anchor="middle" x="202" y="-658" font-family="Arial" font-size="10.00" fill="#ffffff">FreeModuleHomomorphism_getMatrix</text>
<text text-anchor="middle" x="202" y="-647" font-family="Arial" font-size="10.00" fill="#ffffff">22.51%</text>
<text text-anchor="middle" x="202" y="-636" font-family="Arial" font-size="10.00" fill="#ffffff">(0.78%)</text>
<text text-anchor="middle" x="202" y="-625" font-family="Arial" font-size="10.00" fill="#ffffff">5050×</text>
</g>
<!-- FreeModule_actOnBasis -->
<g id="node14" class="node">
<title>FreeModule_actOnBasis</title>
<polygon fill="#0c768d" stroke="#0c768d" points="268,-578 144,-578 144,-515 268,-515 268,-578"/>
<text text-anchor="middle" x="206" y="-566" font-family="Arial" font-size="10.00" fill="#ffffff">csteen</text>
<text text-anchor="middle" x="206" y="-555" font-family="Arial" font-size="10.00" fill="#ffffff">FreeModule_actOnBasis</text>
<text text-anchor="middle" x="206" y="-544" font-family="Arial" font-size="10.00" fill="#ffffff">20.47%</text>
<text text-anchor="middle" x="206" y="-533" font-family="Arial" font-size="10.00" fill="#ffffff">(5.77%)</text>
<text text-anchor="middle" x="206" y="-522" font-family="Arial" font-size="10.00" fill="#ffffff">136982×</text>
</g>
<!-- FreeModuleHomomorphism_getMatrix&#45;&gt;FreeModule_actOnBasis -->
<g id="edge13" class="edge">
<title>FreeModuleHomomorphism_getMatrix&#45;&gt;FreeModule_actOnBasis</title>
<path fill="none" stroke="#0c768d" stroke-width=".82" d="M203.2328,-617.7562C203.6586,-606.7914 204.1391,-594.4184 204.5788,-583.0969"/>
<polygon fill="#0c768d" stroke="#0c768d" stroke-width=".82" points="206.1635,-582.8741 204.7644,-578.3163 203.0159,-582.7518 206.1635,-582.8741"/>
<text text-anchor="middle" x="224" y="-601" font-family="Arial" font-size="10.00" fill="#0c768d">20.47%</text>
<text text-anchor="middle" x="224" y="-590" font-family="Arial" font-size="10.00" fill="#0c768d">136982×</text>
</g>
<!-- FreeModule_getDimension -->
<g id="node15" class="node">
<title>FreeModule_getDimension</title>
<polygon fill="#0d1274" stroke="#0d1274" points="135,-578 3,-578 3,-515 135,-515 135,-578"/>
<text text-anchor="middle" x="69" y="-566" font-family="Arial" font-size="10.00" fill="#ffffff">csteen</text>
<text text-anchor="middle" x="69" y="-555" font-family="Arial" font-size="10.00" fill="#ffffff">FreeModule_getDimension</text>
<text text-anchor="middle" x="69" y="-544" font-family="Arial" font-size="10.00" fill="#ffffff">1.24%</text>
<text text-anchor="middle" x="69" y="-533" font-family="Arial" font-size="10.00" fill="#ffffff">(0.81%)</text>
<text text-anchor="middle" x="69" y="-522" font-family="Arial" font-size="10.00" fill="#ffffff">25445×</text>
</g>
<!-- FreeModuleHomomorphism_getMatrix&#45;&gt;FreeModule_getDimension -->
<g id="edge14" class="edge">
<title>FreeModuleHomomorphism_getMatrix&#45;&gt;FreeModule_getDimension</title>
<path fill="none" stroke="#0d0f73" stroke-width=".5" d="M161.0104,-617.7562C145.8407,-606.0082 128.5836,-592.6437 113.1454,-580.6878"/>
<polygon fill="#0d0f73" stroke="#0d0f73" stroke-width=".5" points="113.6005,-579.4909 110.0832,-578.3163 112.1004,-581.4279 113.6005,-579.4909"/>
<text text-anchor="middle" x="164.5" y="-601" font-family="Arial" font-size="10.00" fill="#0d0f73">0.49%</text>
<text text-anchor="middle" x="164.5" y="-590" font-family="Arial" font-size="10.00" fill="#0d0f73">10000×</text>
</g>
<!-- FreeModule_actOnBasis&#45;&gt;AdemAlgebra_getDimension -->
<g id="edge15" class="edge">
<title>FreeModule_actOnBasis&#45;&gt;AdemAlgebra_getDimension</title>
<path fill="none" stroke="#0d1976" stroke-width=".5" d="M164.0858,-514.7562C148.574,-503.0082 130.9276,-489.6437 115.1412,-477.6878"/>
<polygon fill="#0d1976" stroke="#0d1976" stroke-width=".5" points="115.5397,-476.4529 112.0099,-475.3163 114.0605,-478.406 115.5397,-476.4529"/>
<text text-anchor="middle" x="175.5" y="-498" font-family="Arial" font-size="10.00" fill="#0d1976">2.90%</text>
<text text-anchor="middle" x="175.5" y="-487" font-family="Arial" font-size="10.00" fill="#0d1976">11670361×</text>
</g>
<!-- FreeModule_actOnBasis&#45;&gt;AdemAlgebra_multiply -->
<g id="edge16" class="edge">
<title>FreeModule_actOnBasis&#45;&gt;AdemAlgebra_multiply</title>
<path fill="none" stroke="#0d4181" stroke-width=".5" d="M206,-514.7562C206,-503.3998 206,-490.5328 206,-478.888"/>
<polygon fill="#0d4181" stroke="#0d4181" stroke-width=".5" points="207.2251,-478.8163 206,-475.3163 204.7751,-478.8164 207.2251,-478.8163"/>
<text text-anchor="middle" x="225" y="-498" font-family="Arial" font-size="10.00" fill="#0d4181">11.23%</text>
<text text-anchor="middle" x="225" y="-487" font-family="Arial" font-size="10.00" fill="#0d4181">136982×</text>
</g>
<!-- FreeModule_getDimension&#45;&gt;AdemAlgebra_getDimension -->
<g id="edge17" class="edge">
<title>FreeModule_getDimension&#45;&gt;AdemAlgebra_getDimension</title>
<path fill="none" stroke="#0d0e73" stroke-width=".5" d="M69.3082,-514.7562C69.4184,-503.3998 69.5434,-490.5328 69.6564,-478.888"/>
<polygon fill="#0d0e73" stroke="#0d0e73" stroke-width=".5" points="70.882,-478.8281 69.6911,-475.3163 68.4321,-478.8042 70.882,-478.8281"/>
<text text-anchor="middle" x="91.5" y="-498" font-family="Arial" font-size="10.00" fill="#0d0e73">0.42%</text>
<text text-anchor="middle" x="91.5" y="-487" font-family="Arial" font-size="10.00" fill="#0d0e73">1710457×</text>
</g>
<!-- Resolution_generateOldKernelAndComputeNewKernel -->
<g id="node16" class="node">
<title>Resolution_generateOldKernelAndComputeNewKernel</title>
<polygon fill="#ff0200" stroke="#ff0200" points="327.5,-784 76.5,-784 76.5,-721 327.5,-721 327.5,-784"/>
<text text-anchor="middle" x="202" y="-772" font-family="Arial" font-size="10.00" fill="#ffffff">csteen</text>
<text text-anchor="middle" x="202" y="-761" font-family="Arial" font-size="10.00" fill="#ffffff">Resolution_generateOldKernelAndComputeNewKernel</text>
<text text-anchor="middle" x="202" y="-750" font-family="Arial" font-size="10.00" fill="#ffffff">99.76%</text>
<text text-anchor="middle" x="202" y="-739" font-family="Arial" font-size="10.00" fill="#ffffff">(0.16%)</text>
<text text-anchor="middle" x="202" y="-728" font-family="Arial" font-size="10.00" fill="#ffffff">5050×</text>
</g>
<!-- Resolution_generateOldKernelAndComputeNewKernel&#45;&gt;FreeModuleHomomorphism_getMatrix -->
<g id="edge18" class="edge">
<title>Resolution_generateOldKernelAndComputeNewKernel&#45;&gt;FreeModuleHomomorphism_getMatrix</title>
<path fill="none" stroke="#0c8390" stroke-width=".9" d="M202,-720.7562C202,-709.7914 202,-697.4184 202,-686.0969"/>
<polygon fill="#0c8390" stroke="#0c8390" stroke-width=".9" points="203.6451,-686.0163 202,-681.3163 200.3551,-686.0164 203.6451,-686.0163"/>
<text text-anchor="middle" x="219" y="-704" font-family="Arial" font-size="10.00" fill="#0c8390">22.51%</text>
<text text-anchor="middle" x="219" y="-693" font-family="Arial" font-size="10.00" fill="#0c8390">5050×</text>
</g>
<!-- Resolution_generateOldKernelAndComputeNewKernel&#45;&gt;FreeModule_getDimension -->
<g id="edge19" class="edge">
<title>Resolution_generateOldKernelAndComputeNewKernel&#45;&gt;FreeModule_getDimension</title>
<path fill="none" stroke="#0d0f73" stroke-width=".5" d="M115.3751,-720.8116C98.6082,-710.6719 83.1254,-697.6189 73,-681 54.8375,-651.1898 56.5149,-610.3556 61.0593,-581.5231"/>
<polygon fill="#0d0f73" stroke="#0d0f73" stroke-width=".5" points="62.2682,-581.7202 61.6265,-578.068 59.8506,-581.3232 62.2682,-581.7202"/>
<text text-anchor="middle" x="89.5" y="-652.5" font-family="Arial" font-size="10.00" fill="#0d0f73">0.49%</text>
<text text-anchor="middle" x="89.5" y="-641.5" font-family="Arial" font-size="10.00" fill="#0d0f73">10000×</text>
</g>
<!-- rowReduce -->
<g id="node17" class="node">
<title>rowReduce</title>
<polygon fill="#d6d906" stroke="#d6d906" points="367.5,-681 302.5,-681 302.5,-618 367.5,-618 367.5,-681"/>
<text text-anchor="middle" x="335" y="-669" font-family="Arial" font-size="10.00" fill="#ffffff">csteen</text>
<text text-anchor="middle" x="335" y="-658" font-family="Arial" font-size="10.00" fill="#ffffff">rowReduce</text>
<text text-anchor="middle" x="335" y="-647" font-family="Arial" font-size="10.00" fill="#ffffff">74.64%</text>
<text text-anchor="middle" x="335" y="-636" font-family="Arial" font-size="10.00" fill="#ffffff">(18.39%)</text>
<text text-anchor="middle" x="335" y="-625" font-family="Arial" font-size="10.00" fill="#ffffff">10100×</text>
</g>
<!-- Resolution_generateOldKernelAndComputeNewKernel&#45;&gt;rowReduce -->
<g id="edge20" class="edge">
<title>Resolution_generateOldKernelAndComputeNewKernel&#45;&gt;rowReduce</title>
<path fill="none" stroke="#d6d906" stroke-width="2.99" d="M244.8873,-720.8888C259.585,-709.9002 276.2084,-697.302 295.4237,-682.1958"/>
<polygon fill="#d6d906" stroke="#d6d906" stroke-width="2.99" points="297.4429,-684.4368 302.3296,-676.7465 293.7138,-679.7109 297.4429,-684.4368"/>
<text text-anchor="middle" x="302" y="-704" font-family="Arial" font-size="10.00" fill="#d6d906">74.64%</text>
<text text-anchor="middle" x="302" y="-693" font-family="Arial" font-size="10.00" fill="#d6d906">10100×</text>
</g>
<!-- VectorGeneric_add -->
<g id="node19" class="node">
<title>VectorGeneric_add</title>
<polygon fill="#0ab027" stroke="#0ab027" points="494.5,-578 395.5,-578 395.5,-515 494.5,-515 494.5,-578"/>
<text text-anchor="middle" x="445" y="-566" font-family="Arial" font-size="10.00" fill="#ffffff">csteen</text>
<text text-anchor="middle" x="445" y="-555" font-family="Arial" font-size="10.00" fill="#ffffff">VectorGeneric_add</text>
<text text-anchor="middle" x="445" y="-544" font-family="Arial" font-size="10.00" fill="#ffffff">45.59%</text>
<text text-anchor="middle" x="445" y="-533" font-family="Arial" font-size="10.00" fill="#ffffff">(45.59%)</text>
<text text-anchor="middle" x="445" y="-522" font-family="Arial" font-size="10.00" fill="#ffffff">221591×</text>
</g>
<!-- rowReduce&#45;&gt;VectorGeneric_add -->
<g id="edge24" class="edge">
<title>rowReduce&#45;&gt;VectorGeneric_add</title>
<path fill="none" stroke="#0ab027" stroke-width="1.82" d="M367.7058,-618.8755C379.6752,-607.6678 393.3403,-594.8723 405.8182,-583.1884"/>
<polygon fill="#0ab027" stroke="#0ab027" stroke-width="1.82" points="407.7478,-584.6421 411.0847,-578.257 404.4943,-581.1676 407.7478,-584.6421"/>
<text text-anchor="middle" x="418" y="-601" font-family="Arial" font-size="10.00" fill="#0ab027">45.59%</text>
<text text-anchor="middle" x="418" y="-590" font-family="Arial" font-size="10.00" fill="#0ab027">221591×</text>
</g>
<!-- VectorGeneric_scale -->
<g id="node20" class="node">
<title>VectorGeneric_scale</title>
<polygon fill="#0d3e80" stroke="#0d3e80" points="386.5,-578 279.5,-578 279.5,-515 386.5,-515 386.5,-578"/>
<text text-anchor="middle" x="333" y="-566" font-family="Arial" font-size="10.00" fill="#ffffff">csteen</text>
<text text-anchor="middle" x="333" y="-555" font-family="Arial" font-size="10.00" fill="#ffffff">VectorGeneric_scale</text>
<text text-anchor="middle" x="333" y="-544" font-family="Arial" font-size="10.00" fill="#ffffff">10.63%</text>
<text text-anchor="middle" x="333" y="-533" font-family="Arial" font-size="10.00" fill="#ffffff">(10.63%)</text>
<text text-anchor="middle" x="333" y="-522" font-family="Arial" font-size="10.00" fill="#ffffff">86557×</text>
</g>
<!-- rowReduce&#45;&gt;VectorGeneric_scale -->
<g id="edge25" class="edge">
<title>rowReduce&#45;&gt;VectorGeneric_scale</title>
<path fill="none" stroke="#0d3e80" stroke-width=".5" d="M334.3836,-617.7562C334.1631,-606.3998 333.9133,-593.5328 333.6871,-581.888"/>
<polygon fill="#0d3e80" stroke="#0d3e80" stroke-width=".5" points="334.9106,-581.7919 333.6178,-578.3163 332.4611,-581.8395 334.9106,-581.7919"/>
<text text-anchor="middle" x="351" y="-601" font-family="Arial" font-size="10.00" fill="#0d3e80">10.63%</text>
<text text-anchor="middle" x="351" y="-590" font-family="Arial" font-size="10.00" fill="#0d3e80">86557×</text>
</g>
<!-- Resolution_step&#45;&gt;Resolution_generateOldKernelAndComputeNewKernel -->
<g id="edge21" class="edge">
<title>Resolution_step&#45;&gt;Resolution_generateOldKernelAndComputeNewKernel</title>
<path fill="none" stroke="#ff0200" stroke-width="3.99" d="M202,-823.7562C202,-814.5536 202,-804.3591 202,-794.6267"/>
<polygon fill="#ff0200" stroke="#ff0200" stroke-width="3.99" points="205.5001,-794.3163 202,-784.3163 198.5001,-794.3164 205.5001,-794.3163"/>
<text text-anchor="middle" x="219" y="-807" font-family="Arial" font-size="10.00" fill="#ff0200">99.76%</text>
<text text-anchor="middle" x="219" y="-796" font-family="Arial" font-size="10.00" fill="#ff0200">5050×</text>
</g>
</g>
</svg>
