<?xml version="1.0" encoding="UTF-8" standalone="no"?>
<!DOCTYPE svg PUBLIC "-//W3C//DTD SVG 1.1//EN"
 "http://www.w3.org/Graphics/SVG/1.1/DTD/svg11.dtd">
<!-- Generated by graphviz version 2.40.1 (20161225.0304)
 -->
<!-- Title: %3 Pages: 1 -->
<svg width="473pt" height="1101pt"
 viewBox="0.00 0.00 473.00 1101.00" xmlns="http://www.w3.org/2000/svg" xmlns:xlink="http://www.w3.org/1999/xlink">
<g id="graph0" class="graph" transform="scale(1 1) rotate(0) translate(4 1097)">
<title>%3</title>
<polygon fill="#ffffff" stroke="transparent" points="-4,4 -4,-1097 469,-1097 469,4 -4,4"/>
<!-- (below main) -->
<g id="node1" class="node">
<title>(below main)</title>
<polygon fill="#ff0000" stroke="#ff0000" points="325.5,-887 254.5,-887 254.5,-824 325.5,-824 325.5,-887"/>
<text text-anchor="middle" x="290" y="-875" font-family="Arial" font-size="10.00" fill="#ffffff">libc&#45;2.27.so</text>
<text text-anchor="middle" x="290" y="-864" font-family="Arial" font-size="10.00" fill="#ffffff">(below main)</text>
<text text-anchor="middle" x="290" y="-853" font-family="Arial" font-size="10.00" fill="#ffffff">100.00%</text>
<text text-anchor="middle" x="290" y="-842" font-family="Arial" font-size="10.00" fill="#ffffff">(0.00%)</text>
<text text-anchor="middle" x="290" y="-831" font-family="Arial" font-size="10.00" fill="#ffffff">1×</text>
</g>
<!-- main -->
<g id="node2" class="node">
<title>main</title>
<polygon fill="#ff0000" stroke="#ff0000" points="317.5,-784 262.5,-784 262.5,-721 317.5,-721 317.5,-784"/>
<text text-anchor="middle" x="290" y="-772" font-family="Arial" font-size="10.00" fill="#ffffff">csteen</text>
<text text-anchor="middle" x="290" y="-761" font-family="Arial" font-size="10.00" fill="#ffffff">main</text>
<text text-anchor="middle" x="290" y="-750" font-family="Arial" font-size="10.00" fill="#ffffff">100.00%</text>
<text text-anchor="middle" x="290" y="-739" font-family="Arial" font-size="10.00" fill="#ffffff">(0.00%)</text>
<text text-anchor="middle" x="290" y="-728" font-family="Arial" font-size="10.00" fill="#ffffff">1×</text>
</g>
<!-- (below main)&#45;&gt;main -->
<g id="edge1" class="edge">
<title>(below main)&#45;&gt;main</title>
<path fill="none" stroke="#ff0000" stroke-width="4" d="M290,-823.7562C290,-814.5536 290,-804.3591 290,-794.6267"/>
<polygon fill="#ff0000" stroke="#ff0000" stroke-width="4" points="293.5001,-794.3163 290,-784.3163 286.5001,-794.3164 293.5001,-794.3163"/>
<text text-anchor="middle" x="309.5" y="-807" font-family="Arial" font-size="10.00" fill="#ff0000">100.00%</text>
<text text-anchor="middle" x="309.5" y="-796" font-family="Arial" font-size="10.00" fill="#ff0000">1×</text>
</g>
<!-- Resolution_step -->
<g id="node16" class="node">
<title>Resolution_step</title>
<polygon fill="#ff0000" stroke="#ff0000" points="333,-681 247,-681 247,-618 333,-618 333,-681"/>
<text text-anchor="middle" x="290" y="-669" font-family="Arial" font-size="10.00" fill="#ffffff">csteen</text>
<text text-anchor="middle" x="290" y="-658" font-family="Arial" font-size="10.00" fill="#ffffff">Resolution_step</text>
<text text-anchor="middle" x="290" y="-647" font-family="Arial" font-size="10.00" fill="#ffffff">99.99%</text>
<text text-anchor="middle" x="290" y="-636" font-family="Arial" font-size="10.00" fill="#ffffff">(0.00%)</text>
<text text-anchor="middle" x="290" y="-625" font-family="Arial" font-size="10.00" fill="#ffffff">2485×</text>
</g>
<!-- main&#45;&gt;Resolution_step -->
<g id="edge16" class="edge">
<title>main&#45;&gt;Resolution_step</title>
<path fill="none" stroke="#ff0000" stroke-width="4" d="M290,-720.7562C290,-711.5536 290,-701.3591 290,-691.6267"/>
<polygon fill="#ff0000" stroke="#ff0000" stroke-width="4" points="293.5001,-691.3163 290,-681.3163 286.5001,-691.3164 293.5001,-691.3163"/>
<text text-anchor="middle" x="307" y="-704" font-family="Arial" font-size="10.00" fill="#ff0000">99.99%</text>
<text text-anchor="middle" x="307" y="-693" font-family="Arial" font-size="10.00" fill="#ff0000">2485×</text>
</g>
<!-- 0x0000000000000f60 -->
<g id="node3" class="node">
<title>0x0000000000000f60</title>
<polygon fill="#ff0000" stroke="#ff0000" points="344.5,-1093 235.5,-1093 235.5,-1030 344.5,-1030 344.5,-1093"/>
<text text-anchor="middle" x="290" y="-1081" font-family="Arial" font-size="10.00" fill="#ffffff">ld&#45;2.27.so</text>
<text text-anchor="middle" x="290" y="-1070" font-family="Arial" font-size="10.00" fill="#ffffff">0x0000000000000f60</text>
<text text-anchor="middle" x="290" y="-1059" font-family="Arial" font-size="10.00" fill="#ffffff">100.00%</text>
<text text-anchor="middle" x="290" y="-1048" font-family="Arial" font-size="10.00" fill="#ffffff">(0.00%)</text>
<text text-anchor="middle" x="290" y="-1037" font-family="Arial" font-size="10.00" fill="#ffffff">0×</text>
</g>
<!-- _start -->
<g id="node4" class="node">
<title>_start</title>
<polygon fill="#ff0000" stroke="#ff0000" points="317.5,-990 262.5,-990 262.5,-927 317.5,-927 317.5,-990"/>
<text text-anchor="middle" x="290" y="-978" font-family="Arial" font-size="10.00" fill="#ffffff">csteen</text>
<text text-anchor="middle" x="290" y="-967" font-family="Arial" font-size="10.00" fill="#ffffff">_start</text>
<text text-anchor="middle" x="290" y="-956" font-family="Arial" font-size="10.00" fill="#ffffff">100.00%</text>
<text text-anchor="middle" x="290" y="-945" font-family="Arial" font-size="10.00" fill="#ffffff">(0.00%)</text>
<text text-anchor="middle" x="290" y="-934" font-family="Arial" font-size="10.00" fill="#ffffff">1×</text>
</g>
<!-- 0x0000000000000f60&#45;&gt;_start -->
<g id="edge2" class="edge">
<title>0x0000000000000f60&#45;&gt;_start</title>
<path fill="none" stroke="#ff0000" stroke-width="4" d="M290,-1029.7562C290,-1020.5536 290,-1010.3591 290,-1000.6267"/>
<polygon fill="#ff0000" stroke="#ff0000" stroke-width="4" points="293.5001,-1000.3163 290,-990.3163 286.5001,-1000.3164 293.5001,-1000.3163"/>
<text text-anchor="middle" x="309.5" y="-1013" font-family="Arial" font-size="10.00" fill="#ff0000">100.00%</text>
<text text-anchor="middle" x="309.5" y="-1002" font-family="Arial" font-size="10.00" fill="#ff0000">1×</text>
</g>
<!-- _start&#45;&gt;(below main) -->
<g id="edge15" class="edge">
<title>_start&#45;&gt;(below main)</title>
<path fill="none" stroke="#ff0000" stroke-width="4" d="M290,-926.7562C290,-917.5536 290,-907.3591 290,-897.6267"/>
<polygon fill="#ff0000" stroke="#ff0000" stroke-width="4" points="293.5001,-897.3163 290,-887.3163 286.5001,-897.3164 293.5001,-897.3163"/>
<text text-anchor="middle" x="309.5" y="-910" font-family="Arial" font-size="10.00" fill="#ff0000">100.00%</text>
<text text-anchor="middle" x="309.5" y="-899" font-family="Arial" font-size="10.00" fill="#ff0000">1×</text>
</g>
<!-- FreeModuleHomomorphism_getMatrix -->
<g id="node5" class="node">
<title>FreeModuleHomomorphism_getMatrix</title>
<polygon fill="#0c9b79" stroke="#0c9b79" points="315,-475 133,-475 133,-412 315,-412 315,-475"/>
<text text-anchor="middle" x="224" y="-463" font-family="Arial" font-size="10.00" fill="#ffffff">csteen</text>
<text text-anchor="middle" x="224" y="-452" font-family="Arial" font-size="10.00" fill="#ffffff">FreeModuleHomomorphism_getMatrix</text>
<text text-anchor="middle" x="224" y="-441" font-family="Arial" font-size="10.00" fill="#ffffff">30.91%</text>
<text text-anchor="middle" x="224" y="-430" font-family="Arial" font-size="10.00" fill="#ffffff">(0.44%)</text>
<text text-anchor="middle" x="224" y="-419" font-family="Arial" font-size="10.00" fill="#ffffff">2485×</text>
</g>
<!-- FreeModule_actOnBasis -->
<g id="node6" class="node">
<title>FreeModule_actOnBasis</title>
<polygon fill="#0c9a7f" stroke="#0c9a7f" points="286,-372 162,-372 162,-309 286,-309 286,-372"/>
<text text-anchor="middle" x="224" y="-360" font-family="Arial" font-size="10.00" fill="#ffffff">csteen</text>
<text text-anchor="middle" x="224" y="-349" font-family="Arial" font-size="10.00" fill="#ffffff">FreeModule_actOnBasis</text>
<text text-anchor="middle" x="224" y="-338" font-family="Arial" font-size="10.00" fill="#ffffff">29.79%</text>
<text text-anchor="middle" x="224" y="-327" font-family="Arial" font-size="10.00" fill="#ffffff">(5.25%)</text>
<text text-anchor="middle" x="224" y="-316" font-family="Arial" font-size="10.00" fill="#ffffff">3144885×</text>
</g>
<!-- FreeModuleHomomorphism_getMatrix&#45;&gt;FreeModule_actOnBasis -->
<g id="edge3" class="edge">
<title>FreeModuleHomomorphism_getMatrix&#45;&gt;FreeModule_actOnBasis</title>
<path fill="none" stroke="#0c9a7f" stroke-width="1.19" d="M224,-411.7562C224,-401.0851 224,-389.0802 224,-378.0089"/>
<polygon fill="#0c9a7f" stroke="#0c9a7f" stroke-width="1.19" points="225.9251,-377.8163 224,-372.3163 222.0751,-377.8164 225.9251,-377.8163"/>
<text text-anchor="middle" x="245.5" y="-395" font-family="Arial" font-size="10.00" fill="#0c9a7f">29.79%</text>
<text text-anchor="middle" x="245.5" y="-384" font-family="Arial" font-size="10.00" fill="#0c9a7f">3144885×</text>
</g>
<!-- MilnorAlgebra_getDimension -->
<g id="node7" class="node">
<title>MilnorAlgebra_getDimension</title>
<polygon fill="#0d1876" stroke="#0d1876" points="260,-269 120,-269 120,-206 260,-206 260,-269"/>
<text text-anchor="middle" x="190" y="-257" font-family="Arial" font-size="10.00" fill="#ffffff">csteen</text>
<text text-anchor="middle" x="190" y="-246" font-family="Arial" font-size="10.00" fill="#ffffff">MilnorAlgebra_getDimension</text>
<text text-anchor="middle" x="190" y="-235" font-family="Arial" font-size="10.00" fill="#ffffff">2.78%</text>
<text text-anchor="middle" x="190" y="-224" font-family="Arial" font-size="10.00" fill="#ffffff">(2.78%)</text>
<text text-anchor="middle" x="190" y="-213" font-family="Arial" font-size="10.00" fill="#ffffff">202098952×</text>
</g>
<!-- FreeModule_actOnBasis&#45;&gt;MilnorAlgebra_getDimension -->
<g id="edge4" class="edge">
<title>FreeModule_actOnBasis&#45;&gt;MilnorAlgebra_getDimension</title>
<path fill="none" stroke="#0d1876" stroke-width=".5" d="M213.5214,-308.7562C209.7728,-297.3998 205.5254,-284.5328 201.6815,-272.888"/>
<polygon fill="#0d1876" stroke="#0d1876" stroke-width=".5" points="202.7629,-272.2559 200.5025,-269.3163 200.4364,-273.024 202.7629,-272.2559"/>
<text text-anchor="middle" x="238" y="-292" font-family="Arial" font-size="10.00" fill="#0d1876">2.76%</text>
<text text-anchor="middle" x="238" y="-281" font-family="Arial" font-size="10.00" fill="#0d1876">201141598×</text>
</g>
<!-- MilnorAlgebra_multiply -->
<g id="node8" class="node">
<title>MilnorAlgebra_multiply</title>
<polygon fill="#0c7c8f" stroke="#0c7c8f" points="384.5,-269 269.5,-269 269.5,-206 384.5,-206 384.5,-269"/>
<text text-anchor="middle" x="327" y="-257" font-family="Arial" font-size="10.00" fill="#ffffff">csteen</text>
<text text-anchor="middle" x="327" y="-246" font-family="Arial" font-size="10.00" fill="#ffffff">MilnorAlgebra_multiply</text>
<text text-anchor="middle" x="327" y="-235" font-family="Arial" font-size="10.00" fill="#ffffff">21.36%</text>
<text text-anchor="middle" x="327" y="-224" font-family="Arial" font-size="10.00" fill="#ffffff">(0.33%)</text>
<text text-anchor="middle" x="327" y="-213" font-family="Arial" font-size="10.00" fill="#ffffff">3144885×</text>
</g>
<!-- FreeModule_actOnBasis&#45;&gt;MilnorAlgebra_multiply -->
<g id="edge5" class="edge">
<title>FreeModule_actOnBasis&#45;&gt;MilnorAlgebra_multiply</title>
<path fill="none" stroke="#0c7c8f" stroke-width=".85" d="M257.9543,-308.8227C261.0322,-305.8602 264.0856,-302.8868 267,-300 275.6961,-291.3864 284.9262,-281.9336 293.4722,-273.0456"/>
<polygon fill="#0c7c8f" stroke="#0c7c8f" stroke-width=".85" points="295.0667,-273.7093 297.0894,-269.2752 292.743,-271.4801 295.0667,-273.7093"/>
<text text-anchor="middle" x="309.5" y="-292" font-family="Arial" font-size="10.00" fill="#0c7c8f">21.36%</text>
<text text-anchor="middle" x="309.5" y="-281" font-family="Arial" font-size="10.00" fill="#0c7c8f">3144885×</text>
</g>
<!-- MilnorAlgebra__multiplyEven -->
<g id="node9" class="node">
<title>MilnorAlgebra__multiplyEven</title>
<polygon fill="#0c5d88" stroke="#0c5d88" points="327.5,-166 184.5,-166 184.5,-103 327.5,-103 327.5,-166"/>
<text text-anchor="middle" x="256" y="-154" font-family="Arial" font-size="10.00" fill="#ffffff">csteen</text>
<text text-anchor="middle" x="256" y="-143" font-family="Arial" font-size="10.00" fill="#ffffff">MilnorAlgebra__multiplyEven</text>
<text text-anchor="middle" x="256" y="-132" font-family="Arial" font-size="10.00" fill="#ffffff">16.33%</text>
<text text-anchor="middle" x="256" y="-121" font-family="Arial" font-size="10.00" fill="#ffffff">(6.85%)</text>
<text text-anchor="middle" x="256" y="-110" font-family="Arial" font-size="10.00" fill="#ffffff">3144885×</text>
</g>
<!-- MilnorAlgebra_multiply&#45;&gt;MilnorAlgebra__multiplyEven -->
<g id="edge9" class="edge">
<title>MilnorAlgebra_multiply&#45;&gt;MilnorAlgebra__multiplyEven</title>
<path fill="none" stroke="#0c5d88" stroke-width=".65" d="M305.1183,-205.7562C297.2902,-194.3998 288.4207,-181.5328 280.3937,-169.888"/>
<polygon fill="#0c5d88" stroke="#0c5d88" stroke-width=".65" points="281.3546,-168.8151 277.9316,-166.3163 279.0492,-170.4043 281.3546,-168.8151"/>
<text text-anchor="middle" x="319.5" y="-189" font-family="Arial" font-size="10.00" fill="#0c5d88">16.33%</text>
<text text-anchor="middle" x="319.5" y="-178" font-family="Arial" font-size="10.00" fill="#0c5d88">3144885×</text>
</g>
<!-- Vector_addArray -->
<g id="node13" class="node">
<title>Vector_addArray</title>
<polygon fill="#0d2079" stroke="#0d2079" points="443.5,-166 354.5,-166 354.5,-103 443.5,-103 443.5,-166"/>
<text text-anchor="middle" x="399" y="-154" font-family="Arial" font-size="10.00" fill="#ffffff">csteen</text>
<text text-anchor="middle" x="399" y="-143" font-family="Arial" font-size="10.00" fill="#ffffff">Vector_addArray</text>
<text text-anchor="middle" x="399" y="-132" font-family="Arial" font-size="10.00" fill="#ffffff">4.53%</text>
<text text-anchor="middle" x="399" y="-121" font-family="Arial" font-size="10.00" fill="#ffffff">(0.01%)</text>
<text text-anchor="middle" x="399" y="-110" font-family="Arial" font-size="10.00" fill="#ffffff">3144885×</text>
</g>
<!-- MilnorAlgebra_multiply&#45;&gt;Vector_addArray -->
<g id="edge10" class="edge">
<title>MilnorAlgebra_multiply&#45;&gt;Vector_addArray</title>
<path fill="none" stroke="#0d2079" stroke-width=".5" d="M349.1899,-205.7562C357.2651,-194.204 366.4331,-181.0887 374.683,-169.2868"/>
<polygon fill="#0d2079" stroke="#0d2079" stroke-width=".5" points="375.7582,-169.8868 376.7595,-166.3163 373.7501,-168.4831 375.7582,-169.8868"/>
<text text-anchor="middle" x="390.5" y="-189" font-family="Arial" font-size="10.00" fill="#0d2079">4.53%</text>
<text text-anchor="middle" x="390.5" y="-178" font-family="Arial" font-size="10.00" fill="#0d2079">3144885×</text>
</g>
<!-- MilnorAlgebra_basisElement_toIndex -->
<g id="node10" class="node">
<title>MilnorAlgebra_basisElement_toIndex</title>
<polygon fill="#0d1c77" stroke="#0d1c77" points="178,-63 0,-63 0,0 178,0 178,-63"/>
<text text-anchor="middle" x="89" y="-51" font-family="Arial" font-size="10.00" fill="#ffffff">csteen</text>
<text text-anchor="middle" x="89" y="-40" font-family="Arial" font-size="10.00" fill="#ffffff">MilnorAlgebra_basisElement_toIndex</text>
<text text-anchor="middle" x="89" y="-29" font-family="Arial" font-size="10.00" fill="#ffffff">3.47%</text>
<text text-anchor="middle" x="89" y="-18" font-family="Arial" font-size="10.00" fill="#ffffff">(2.02%)</text>
<text text-anchor="middle" x="89" y="-7" font-family="Arial" font-size="10.00" fill="#ffffff">5860021×</text>
</g>
<!-- MilnorAlgebra__multiplyEven&#45;&gt;MilnorAlgebra_basisElement_toIndex -->
<g id="edge6" class="edge">
<title>MilnorAlgebra__multiplyEven&#45;&gt;MilnorAlgebra_basisElement_toIndex</title>
<path fill="none" stroke="#0d1c77" stroke-width=".5" d="M204.4658,-102.9024C199.5748,-99.8958 194.6925,-96.8916 190,-94 174.6942,-84.5682 158.0988,-74.3114 142.8675,-64.8856"/>
<polygon fill="#0d1c77" stroke="#0d1c77" stroke-width=".5" points="143.4611,-63.8123 139.8402,-63.012 142.1717,-65.8956 143.4611,-63.8123"/>
<text text-anchor="middle" x="211.5" y="-86" font-family="Arial" font-size="10.00" fill="#0d1c77">3.47%</text>
<text text-anchor="middle" x="211.5" y="-75" font-family="Arial" font-size="10.00" fill="#0d1c77">5860021×</text>
</g>
<!-- Multinomial -->
<g id="node11" class="node">
<title>Multinomial</title>
<polygon fill="#0d1676" stroke="#0d1676" points="253,-63 187,-63 187,0 253,0 253,-63"/>
<text text-anchor="middle" x="220" y="-51" font-family="Arial" font-size="10.00" fill="#ffffff">csteen</text>
<text text-anchor="middle" x="220" y="-40" font-family="Arial" font-size="10.00" fill="#ffffff">Multinomial</text>
<text text-anchor="middle" x="220" y="-29" font-family="Arial" font-size="10.00" fill="#ffffff">2.24%</text>
<text text-anchor="middle" x="220" y="-18" font-family="Arial" font-size="10.00" fill="#ffffff">(2.24%)</text>
<text text-anchor="middle" x="220" y="-7" font-family="Arial" font-size="10.00" fill="#ffffff">60861502×</text>
</g>
<!-- MilnorAlgebra__multiplyEven&#45;&gt;Multinomial -->
<g id="edge7" class="edge">
<title>MilnorAlgebra__multiplyEven&#45;&gt;Multinomial</title>
<path fill="none" stroke="#0d1676" stroke-width=".5" d="M244.9051,-102.7562C240.9359,-91.3998 236.4387,-78.5328 232.3686,-66.888"/>
<polygon fill="#0d1676" stroke="#0d1676" stroke-width=".5" points="233.4315,-66.2161 231.1203,-63.3163 231.1187,-67.0245 233.4315,-66.2161"/>
<text text-anchor="middle" x="266.5" y="-86" font-family="Arial" font-size="10.00" fill="#0d1676">2.24%</text>
<text text-anchor="middle" x="266.5" y="-75" font-family="Arial" font-size="10.00" fill="#0d1676">60861502×</text>
</g>
<!-- milnor_matrix_step -->
<g id="node12" class="node">
<title>milnor_matrix_step</title>
<polygon fill="#0d1b77" stroke="#0d1b77" points="361.5,-63 262.5,-63 262.5,0 361.5,0 361.5,-63"/>
<text text-anchor="middle" x="312" y="-51" font-family="Arial" font-size="10.00" fill="#ffffff">csteen</text>
<text text-anchor="middle" x="312" y="-40" font-family="Arial" font-size="10.00" fill="#ffffff">milnor_matrix_step</text>
<text text-anchor="middle" x="312" y="-29" font-family="Arial" font-size="10.00" fill="#ffffff">3.41%</text>
<text text-anchor="middle" x="312" y="-18" font-family="Arial" font-size="10.00" fill="#ffffff">(3.41%)</text>
<text text-anchor="middle" x="312" y="-7" font-family="Arial" font-size="10.00" fill="#ffffff">32653875×</text>
</g>
<!-- MilnorAlgebra__multiplyEven&#45;&gt;milnor_matrix_step -->
<g id="edge8" class="edge">
<title>MilnorAlgebra__multiplyEven&#45;&gt;milnor_matrix_step</title>
<path fill="none" stroke="#0d1b77" stroke-width=".5" d="M287.2515,-102.7783C289.3521,-99.9215 291.3033,-96.9793 293,-94 297.7986,-85.5741 301.5113,-75.8048 304.3281,-66.5294"/>
<polygon fill="#0d1b77" stroke="#0d1b77" stroke-width=".5" points="305.5132,-66.8413 305.3257,-63.1378 303.1627,-66.1499 305.5132,-66.8413"/>
<text text-anchor="middle" x="327.5" y="-86" font-family="Arial" font-size="10.00" fill="#0d1b77">3.41%</text>
<text text-anchor="middle" x="327.5" y="-75" font-family="Arial" font-size="10.00" fill="#0d1b77">32653875×</text>
</g>
<!-- Vector2_addArray -->
<g id="node18" class="node">
<title>Vector2_addArray</title>
<polygon fill="#0d2079" stroke="#0d2079" points="465,-63 371,-63 371,0 465,0 465,-63"/>
<text text-anchor="middle" x="418" y="-51" font-family="Arial" font-size="10.00" fill="#ffffff">csteen</text>
<text text-anchor="middle" x="418" y="-40" font-family="Arial" font-size="10.00" fill="#ffffff">Vector2_addArray</text>
<text text-anchor="middle" x="418" y="-29" font-family="Arial" font-size="10.00" fill="#ffffff">4.52%</text>
<text text-anchor="middle" x="418" y="-18" font-family="Arial" font-size="10.00" fill="#ffffff">(4.52%)</text>
<text text-anchor="middle" x="418" y="-7" font-family="Arial" font-size="10.00" fill="#ffffff">3144885×</text>
</g>
<!-- Vector_addArray&#45;&gt;Vector2_addArray -->
<g id="edge14" class="edge">
<title>Vector_addArray&#45;&gt;Vector2_addArray</title>
<path fill="none" stroke="#0d2079" stroke-width=".5" d="M404.8557,-102.7562C406.9505,-91.3998 409.324,-78.5328 411.4721,-66.888"/>
<polygon fill="#0d2079" stroke="#0d2079" stroke-width=".5" points="412.7006,-66.9805 412.131,-63.3163 410.2913,-66.536 412.7006,-66.9805"/>
<text text-anchor="middle" x="431.5" y="-86" font-family="Arial" font-size="10.00" fill="#0d2079">4.52%</text>
<text text-anchor="middle" x="431.5" y="-75" font-family="Arial" font-size="10.00" fill="#0d2079">3144885×</text>
</g>
<!-- Resolution_generateOldKernelAndComputeNewKernel -->
<g id="node14" class="node">
<title>Resolution_generateOldKernelAndComputeNewKernel</title>
<polygon fill="#ff0000" stroke="#ff0000" points="415.5,-578 164.5,-578 164.5,-515 415.5,-515 415.5,-578"/>
<text text-anchor="middle" x="290" y="-566" font-family="Arial" font-size="10.00" fill="#ffffff">csteen</text>
<text text-anchor="middle" x="290" y="-555" font-family="Arial" font-size="10.00" fill="#ffffff">Resolution_generateOldKernelAndComputeNewKernel</text>
<text text-anchor="middle" x="290" y="-544" font-family="Arial" font-size="10.00" fill="#ffffff">99.99%</text>
<text text-anchor="middle" x="290" y="-533" font-family="Arial" font-size="10.00" fill="#ffffff">(0.02%)</text>
<text text-anchor="middle" x="290" y="-522" font-family="Arial" font-size="10.00" fill="#ffffff">2485×</text>
</g>
<!-- Resolution_generateOldKernelAndComputeNewKernel&#45;&gt;FreeModuleHomomorphism_getMatrix -->
<g id="edge11" class="edge">
<title>Resolution_generateOldKernelAndComputeNewKernel&#45;&gt;FreeModuleHomomorphism_getMatrix</title>
<path fill="none" stroke="#0c9b79" stroke-width="1.24" d="M269.6593,-514.7562C262.6333,-503.7914 254.705,-491.4184 247.4504,-480.0969"/>
<polygon fill="#0c9b79" stroke="#0c9b79" stroke-width="1.24" points="249.0588,-478.9739 244.3872,-475.3163 245.7582,-481.0889 249.0588,-478.9739"/>
<text text-anchor="middle" x="280" y="-498" font-family="Arial" font-size="10.00" fill="#0c9b79">30.91%</text>
<text text-anchor="middle" x="280" y="-487" font-family="Arial" font-size="10.00" fill="#0c9b79">2485×</text>
</g>
<!-- rowReduce -->
<g id="node15" class="node">
<title>rowReduce</title>
<polygon fill="#9fd107" stroke="#9fd107" points="389.5,-475 324.5,-475 324.5,-412 389.5,-412 389.5,-475"/>
<text text-anchor="middle" x="357" y="-463" font-family="Arial" font-size="10.00" fill="#ffffff">csteen</text>
<text text-anchor="middle" x="357" y="-452" font-family="Arial" font-size="10.00" fill="#ffffff">rowReduce</text>
<text text-anchor="middle" x="357" y="-441" font-family="Arial" font-size="10.00" fill="#ffffff">68.87%</text>
<text text-anchor="middle" x="357" y="-430" font-family="Arial" font-size="10.00" fill="#ffffff">(45.12%)</text>
<text text-anchor="middle" x="357" y="-419" font-family="Arial" font-size="10.00" fill="#ffffff">4970×</text>
</g>
<!-- Resolution_generateOldKernelAndComputeNewKernel&#45;&gt;rowReduce -->
<g id="edge12" class="edge">
<title>Resolution_generateOldKernelAndComputeNewKernel&#45;&gt;rowReduce</title>
<path fill="none" stroke="#9fd107" stroke-width="2.75" d="M310.6489,-514.7562C317.2719,-504.5746 324.6847,-493.1788 331.6063,-482.5381"/>
<polygon fill="#9fd107" stroke="#9fd107" stroke-width="2.75" points="334.2133,-483.8579 336.3039,-475.3163 329.343,-480.6898 334.2133,-483.8579"/>
<text text-anchor="middle" x="347" y="-498" font-family="Arial" font-size="10.00" fill="#9fd107">68.87%</text>
<text text-anchor="middle" x="347" y="-487" font-family="Arial" font-size="10.00" fill="#9fd107">4970×</text>
</g>
<!-- Vector2_add -->
<g id="node17" class="node">
<title>Vector2_add</title>
<polygon fill="#0c8b92" stroke="#0c8b92" points="392.5,-372 321.5,-372 321.5,-309 392.5,-309 392.5,-372"/>
<text text-anchor="middle" x="357" y="-360" font-family="Arial" font-size="10.00" fill="#ffffff">csteen</text>
<text text-anchor="middle" x="357" y="-349" font-family="Arial" font-size="10.00" fill="#ffffff">Vector2_add</text>
<text text-anchor="middle" x="357" y="-338" font-family="Arial" font-size="10.00" fill="#ffffff">23.73%</text>
<text text-anchor="middle" x="357" y="-327" font-family="Arial" font-size="10.00" fill="#ffffff">(23.73%)</text>
<text text-anchor="middle" x="357" y="-316" font-family="Arial" font-size="10.00" fill="#ffffff">43175042×</text>
</g>
<!-- rowReduce&#45;&gt;Vector2_add -->
<g id="edge17" class="edge">
<title>rowReduce&#45;&gt;Vector2_add</title>
<path fill="none" stroke="#0c8b92" stroke-width=".95" d="M357,-411.7562C357,-400.8893 357,-388.6393 357,-377.4004"/>
<polygon fill="#0c8b92" stroke="#0c8b92" stroke-width=".95" points="358.7151,-377.2163 357,-372.3163 355.2851,-377.2164 358.7151,-377.2163"/>
<text text-anchor="middle" x="381.5" y="-395" font-family="Arial" font-size="10.00" fill="#0c8b92">23.73%</text>
<text text-anchor="middle" x="381.5" y="-384" font-family="Arial" font-size="10.00" fill="#0c8b92">43175042×</text>
</g>
<!-- Resolution_step&#45;&gt;Resolution_generateOldKernelAndComputeNewKernel -->
<g id="edge13" class="edge">
<title>Resolution_step&#45;&gt;Resolution_generateOldKernelAndComputeNewKernel</title>
<path fill="none" stroke="#ff0000" stroke-width="4" d="M290,-617.7562C290,-608.5536 290,-598.3591 290,-588.6267"/>
<polygon fill="#ff0000" stroke="#ff0000" stroke-width="4" points="293.5001,-588.3163 290,-578.3163 286.5001,-588.3164 293.5001,-588.3163"/>
<text text-anchor="middle" x="307" y="-601" font-family="Arial" font-size="10.00" fill="#ff0000">99.99%</text>
<text text-anchor="middle" x="307" y="-590" font-family="Arial" font-size="10.00" fill="#ff0000">2485×</text>
</g>
</g>
</svg>
