<?xml version="1.0" encoding="UTF-8" standalone="no"?>
<!DOCTYPE svg PUBLIC "-//W3C//DTD SVG 1.1//EN"
 "http://www.w3.org/Graphics/SVG/1.1/DTD/svg11.dtd">
<!-- Generated by graphviz version 2.40.1 (20161225.0304)
 -->
<!-- Title: %3 Pages: 1 -->
<svg width="931pt" height="1451pt"
 viewBox="0.00 0.00 930.50 1451.00" xmlns="http://www.w3.org/2000/svg" xmlns:xlink="http://www.w3.org/1999/xlink">
<g id="graph0" class="graph" transform="scale(1 1) rotate(0) translate(4 1447)">
<title>%3</title>
<polygon fill="#ffffff" stroke="transparent" points="-4,4 -4,-1447 926.5,-1447 926.5,4 -4,4"/>
<!-- (below main) -->
<g id="node1" class="node">
<title>(below main)</title>
<polygon fill="#ff0000" stroke="#ff0000" points="602.5,-1237 531.5,-1237 531.5,-1174 602.5,-1174 602.5,-1237"/>
<text text-anchor="middle" x="567" y="-1225" font-family="Arial" font-size="10.00" fill="#ffffff">libc&#45;2.27.so</text>
<text text-anchor="middle" x="567" y="-1214" font-family="Arial" font-size="10.00" fill="#ffffff">(below main)</text>
<text text-anchor="middle" x="567" y="-1203" font-family="Arial" font-size="10.00" fill="#ffffff">99.96%</text>
<text text-anchor="middle" x="567" y="-1192" font-family="Arial" font-size="10.00" fill="#ffffff">(0.00%)</text>
<text text-anchor="middle" x="567" y="-1181" font-family="Arial" font-size="10.00" fill="#ffffff">1×</text>
</g>
<!-- main -->
<g id="node2" class="node">
<title>main</title>
<polygon fill="#ff0000" stroke="#ff0000" points="592,-1134 542,-1134 542,-1071 592,-1071 592,-1134"/>
<text text-anchor="middle" x="567" y="-1122" font-family="Arial" font-size="10.00" fill="#ffffff">csteen</text>
<text text-anchor="middle" x="567" y="-1111" font-family="Arial" font-size="10.00" fill="#ffffff">main</text>
<text text-anchor="middle" x="567" y="-1100" font-family="Arial" font-size="10.00" fill="#ffffff">99.96%</text>
<text text-anchor="middle" x="567" y="-1089" font-family="Arial" font-size="10.00" fill="#ffffff">(0.01%)</text>
<text text-anchor="middle" x="567" y="-1078" font-family="Arial" font-size="10.00" fill="#ffffff">1×</text>
</g>
<!-- (below main)&#45;&gt;main -->
<g id="edge1" class="edge">
<title>(below main)&#45;&gt;main</title>
<path fill="none" stroke="#ff0000" stroke-width="4" d="M567,-1173.7562C567,-1164.5536 567,-1154.3591 567,-1144.6267"/>
<polygon fill="#ff0000" stroke="#ff0000" stroke-width="4" points="570.5001,-1144.3163 567,-1134.3163 563.5001,-1144.3164 570.5001,-1144.3163"/>
<text text-anchor="middle" x="584" y="-1157" font-family="Arial" font-size="10.00" fill="#ff0000">99.96%</text>
<text text-anchor="middle" x="584" y="-1146" font-family="Arial" font-size="10.00" fill="#ff0000">1×</text>
</g>
<!-- Resolution_step -->
<g id="node23" class="node">
<title>Resolution_step</title>
<polygon fill="#fe0a00" stroke="#fe0a00" points="610,-1031 524,-1031 524,-968 610,-968 610,-1031"/>
<text text-anchor="middle" x="567" y="-1019" font-family="Arial" font-size="10.00" fill="#ffffff">csteen</text>
<text text-anchor="middle" x="567" y="-1008" font-family="Arial" font-size="10.00" fill="#ffffff">Resolution_step</text>
<text text-anchor="middle" x="567" y="-997" font-family="Arial" font-size="10.00" fill="#ffffff">99.07%</text>
<text text-anchor="middle" x="567" y="-986" font-family="Arial" font-size="10.00" fill="#ffffff">(0.03%)</text>
<text text-anchor="middle" x="567" y="-975" font-family="Arial" font-size="10.00" fill="#ffffff">2485×</text>
</g>
<!-- main&#45;&gt;Resolution_step -->
<g id="edge34" class="edge">
<title>main&#45;&gt;Resolution_step</title>
<path fill="none" stroke="#fe0a00" stroke-width="3.96" d="M567,-1070.7562C567,-1061.5536 567,-1051.3591 567,-1041.6267"/>
<polygon fill="#fe0a00" stroke="#fe0a00" stroke-width="3.96" points="570.5001,-1041.3163 567,-1031.3163 563.5001,-1041.3164 570.5001,-1041.3163"/>
<text text-anchor="middle" x="584" y="-1054" font-family="Arial" font-size="10.00" fill="#fe0a00">99.07%</text>
<text text-anchor="middle" x="584" y="-1043" font-family="Arial" font-size="10.00" fill="#fe0a00">2485×</text>
</g>
<!-- 0x0000000000000f60 -->
<g id="node3" class="node">
<title>0x0000000000000f60</title>
<polygon fill="#ff0000" stroke="#ff0000" points="621.5,-1443 512.5,-1443 512.5,-1380 621.5,-1380 621.5,-1443"/>
<text text-anchor="middle" x="567" y="-1431" font-family="Arial" font-size="10.00" fill="#ffffff">ld&#45;2.27.so</text>
<text text-anchor="middle" x="567" y="-1420" font-family="Arial" font-size="10.00" fill="#ffffff">0x0000000000000f60</text>
<text text-anchor="middle" x="567" y="-1409" font-family="Arial" font-size="10.00" fill="#ffffff">100.00%</text>
<text text-anchor="middle" x="567" y="-1398" font-family="Arial" font-size="10.00" fill="#ffffff">(0.00%)</text>
<text text-anchor="middle" x="567" y="-1387" font-family="Arial" font-size="10.00" fill="#ffffff">0×</text>
</g>
<!-- _start -->
<g id="node4" class="node">
<title>_start</title>
<polygon fill="#ff0000" stroke="#ff0000" points="592,-1340 542,-1340 542,-1277 592,-1277 592,-1340"/>
<text text-anchor="middle" x="567" y="-1328" font-family="Arial" font-size="10.00" fill="#ffffff">csteen</text>
<text text-anchor="middle" x="567" y="-1317" font-family="Arial" font-size="10.00" fill="#ffffff">_start</text>
<text text-anchor="middle" x="567" y="-1306" font-family="Arial" font-size="10.00" fill="#ffffff">99.96%</text>
<text text-anchor="middle" x="567" y="-1295" font-family="Arial" font-size="10.00" fill="#ffffff">(0.00%)</text>
<text text-anchor="middle" x="567" y="-1284" font-family="Arial" font-size="10.00" fill="#ffffff">1×</text>
</g>
<!-- 0x0000000000000f60&#45;&gt;_start -->
<g id="edge2" class="edge">
<title>0x0000000000000f60&#45;&gt;_start</title>
<path fill="none" stroke="#ff0000" stroke-width="4" d="M567,-1379.7562C567,-1370.5536 567,-1360.3591 567,-1350.6267"/>
<polygon fill="#ff0000" stroke="#ff0000" stroke-width="4" points="570.5001,-1350.3163 567,-1340.3163 563.5001,-1350.3164 570.5001,-1350.3163"/>
<text text-anchor="middle" x="584" y="-1363" font-family="Arial" font-size="10.00" fill="#ff0000">99.96%</text>
<text text-anchor="middle" x="584" y="-1352" font-family="Arial" font-size="10.00" fill="#ff0000">1×</text>
</g>
<!-- _start&#45;&gt;(below main) -->
<g id="edge33" class="edge">
<title>_start&#45;&gt;(below main)</title>
<path fill="none" stroke="#ff0000" stroke-width="4" d="M567,-1276.7562C567,-1267.5536 567,-1257.3591 567,-1247.6267"/>
<polygon fill="#ff0000" stroke="#ff0000" stroke-width="4" points="570.5001,-1247.3163 567,-1237.3163 563.5001,-1247.3164 570.5001,-1247.3163"/>
<text text-anchor="middle" x="584" y="-1260" font-family="Arial" font-size="10.00" fill="#ff0000">99.96%</text>
<text text-anchor="middle" x="584" y="-1249" font-family="Arial" font-size="10.00" fill="#ff0000">1×</text>
</g>
<!-- FreeModuleHomomorphism_AllocateSpaceForNewGenerators -->
<g id="node5" class="node">
<title>FreeModuleHomomorphism_AllocateSpaceForNewGenerators</title>
<polygon fill="#0d1274" stroke="#0d1274" points="709.5,-825 424.5,-825 424.5,-762 709.5,-762 709.5,-825"/>
<text text-anchor="middle" x="567" y="-813" font-family="Arial" font-size="10.00" fill="#ffffff">csteen</text>
<text text-anchor="middle" x="567" y="-802" font-family="Arial" font-size="10.00" fill="#ffffff">FreeModuleHomomorphism_AllocateSpaceForNewGenerators</text>
<text text-anchor="middle" x="567" y="-791" font-family="Arial" font-size="10.00" fill="#ffffff">1.20%</text>
<text text-anchor="middle" x="567" y="-780" font-family="Arial" font-size="10.00" fill="#ffffff">(0.07%)</text>
<text text-anchor="middle" x="567" y="-769" font-family="Arial" font-size="10.00" fill="#ffffff">2485×</text>
</g>
<!-- FreeModule_getDimension -->
<g id="node6" class="node">
<title>FreeModule_getDimension</title>
<polygon fill="#0d2179" stroke="#0d2179" points="494,-681 362,-681 362,-618 494,-618 494,-681"/>
<text text-anchor="middle" x="428" y="-669" font-family="Arial" font-size="10.00" fill="#ffffff">csteen</text>
<text text-anchor="middle" x="428" y="-658" font-family="Arial" font-size="10.00" fill="#ffffff">FreeModule_getDimension</text>
<text text-anchor="middle" x="428" y="-647" font-family="Arial" font-size="10.00" fill="#ffffff">4.65%</text>
<text text-anchor="middle" x="428" y="-636" font-family="Arial" font-size="10.00" fill="#ffffff">(2.64%)</text>
<text text-anchor="middle" x="428" y="-625" font-family="Arial" font-size="10.00" fill="#ffffff">12432×</text>
</g>
<!-- FreeModuleHomomorphism_AllocateSpaceForNewGenerators&#45;&gt;FreeModule_getDimension -->
<g id="edge3" class="edge">
<title>FreeModuleHomomorphism_AllocateSpaceForNewGenerators&#45;&gt;FreeModule_getDimension</title>
<path fill="none" stroke="#0d1074" stroke-width=".5" d="M504.5362,-761.7718C500.8231,-759.0051 497.2726,-756.0784 494,-753 473.2866,-733.516 456.2348,-706.2236 444.6552,-684.5566"/>
<polygon fill="#0d1074" stroke="#0d1074" stroke-width=".5" points="445.7061,-683.9233 442.9867,-681.4022 443.5404,-685.0689 445.7061,-683.9233"/>
<text text-anchor="middle" x="508" y="-724.5" font-family="Arial" font-size="10.00" fill="#0d1074">0.91%</text>
<text text-anchor="middle" x="508" y="-713.5" font-family="Arial" font-size="10.00" fill="#0d1074">2415×</text>
</g>
<!-- MilnorAlgebra_getDimension -->
<g id="node9" class="node">
<title>MilnorAlgebra_getDimension</title>
<polygon fill="#0d337e" stroke="#0d337e" points="459,-578 319,-578 319,-515 459,-515 459,-578"/>
<text text-anchor="middle" x="389" y="-566" font-family="Arial" font-size="10.00" fill="#ffffff">csteen</text>
<text text-anchor="middle" x="389" y="-555" font-family="Arial" font-size="10.00" fill="#ffffff">MilnorAlgebra_getDimension</text>
<text text-anchor="middle" x="389" y="-544" font-family="Arial" font-size="10.00" fill="#ffffff">8.52%</text>
<text text-anchor="middle" x="389" y="-533" font-family="Arial" font-size="10.00" fill="#ffffff">(8.52%)</text>
<text text-anchor="middle" x="389" y="-522" font-family="Arial" font-size="10.00" fill="#ffffff">2490680×</text>
</g>
<!-- FreeModule_getDimension&#45;&gt;MilnorAlgebra_getDimension -->
<g id="edge10" class="edge">
<title>FreeModule_getDimension&#45;&gt;MilnorAlgebra_getDimension</title>
<path fill="none" stroke="#0d1575" stroke-width=".5" d="M415.9805,-617.7562C411.6805,-606.3998 406.8085,-593.5328 402.3993,-581.888"/>
<polygon fill="#0d1575" stroke="#0d1575" stroke-width=".5" points="403.432,-581.1558 401.047,-578.3163 401.1408,-582.0234 403.432,-581.1558"/>
<text text-anchor="middle" x="431" y="-601" font-family="Arial" font-size="10.00" fill="#0d1575">2.01%</text>
<text text-anchor="middle" x="431" y="-590" font-family="Arial" font-size="10.00" fill="#0d1575">586114×</text>
</g>
<!-- FreeModuleHomomorphism_getMatrix -->
<g id="node7" class="node">
<title>FreeModuleHomomorphism_getMatrix</title>
<polygon fill="#0ba74e" stroke="#0ba74e" points="369,-825 187,-825 187,-762 369,-762 369,-825"/>
<text text-anchor="middle" x="278" y="-813" font-family="Arial" font-size="10.00" fill="#ffffff">csteen</text>
<text text-anchor="middle" x="278" y="-802" font-family="Arial" font-size="10.00" fill="#ffffff">FreeModuleHomomorphism_getMatrix</text>
<text text-anchor="middle" x="278" y="-791" font-family="Arial" font-size="10.00" fill="#ffffff">39.15%</text>
<text text-anchor="middle" x="278" y="-780" font-family="Arial" font-size="10.00" fill="#ffffff">(1.54%)</text>
<text text-anchor="middle" x="278" y="-769" font-family="Arial" font-size="10.00" fill="#ffffff">2485×</text>
</g>
<!-- FreeModuleHomomorphism_getMatrix&#45;&gt;FreeModule_getDimension -->
<g id="edge5" class="edge">
<title>FreeModuleHomomorphism_getMatrix&#45;&gt;FreeModule_getDimension</title>
<path fill="none" stroke="#0d1475" stroke-width=".5" d="M314.7182,-761.8412C317.3162,-758.9704 319.7811,-756.0077 322,-753 340.4111,-728.0438 330.5719,-712.4191 352,-690 354.1532,-687.7472 356.4597,-685.5927 358.8801,-683.5356"/>
<polygon fill="#0d1475" stroke="#0d1475" stroke-width=".5" points="359.8413,-684.3316 361.7714,-681.1652 358.288,-682.4369 359.8413,-684.3316"/>
<text text-anchor="middle" x="366" y="-724.5" font-family="Arial" font-size="10.00" fill="#0d1475">1.83%</text>
<text text-anchor="middle" x="366" y="-713.5" font-family="Arial" font-size="10.00" fill="#0d1475">4900×</text>
</g>
<!-- FreeModule_actOnBasis -->
<g id="node8" class="node">
<title>FreeModule_actOnBasis</title>
<polygon fill="#0ba167" stroke="#0ba167" points="297,-681 173,-681 173,-618 297,-618 297,-681"/>
<text text-anchor="middle" x="235" y="-669" font-family="Arial" font-size="10.00" fill="#ffffff">csteen</text>
<text text-anchor="middle" x="235" y="-658" font-family="Arial" font-size="10.00" fill="#ffffff">FreeModule_actOnBasis</text>
<text text-anchor="middle" x="235" y="-647" font-family="Arial" font-size="10.00" fill="#ffffff">34.70%</text>
<text text-anchor="middle" x="235" y="-636" font-family="Arial" font-size="10.00" fill="#ffffff">(10.13%)</text>
<text text-anchor="middle" x="235" y="-625" font-family="Arial" font-size="10.00" fill="#ffffff">26349×</text>
</g>
<!-- FreeModuleHomomorphism_getMatrix&#45;&gt;FreeModule_actOnBasis -->
<g id="edge4" class="edge">
<title>FreeModuleHomomorphism_getMatrix&#45;&gt;FreeModule_actOnBasis</title>
<path fill="none" stroke="#0ba167" stroke-width="1.39" d="M268.5635,-761.8986C261.9541,-739.7651 253.0961,-710.1007 246.1396,-686.8047"/>
<polygon fill="#0ba167" stroke="#0ba167" stroke-width="1.39" points="248.0814,-686.0902 244.4145,-681.0277 244.1241,-687.2719 248.0814,-686.0902"/>
<text text-anchor="middle" x="283" y="-724.5" font-family="Arial" font-size="10.00" fill="#0ba167">34.70%</text>
<text text-anchor="middle" x="283" y="-713.5" font-family="Arial" font-size="10.00" fill="#0ba167">26349×</text>
</g>
<!-- FreeModuleHomomorphism_getMatrix&#45;&gt;MilnorAlgebra_getDimension -->
<g id="edge6" class="edge">
<title>FreeModuleHomomorphism_getMatrix&#45;&gt;MilnorAlgebra_getDimension</title>
<path fill="none" stroke="#0d0e73" stroke-width=".5" d="M298.3804,-761.8039C299.7566,-758.8963 300.9933,-755.9381 302,-753 321.6025,-695.7914 292.6942,-672.4527 319,-618 325.6179,-604.301 335.9002,-591.6069 346.5652,-580.8335"/>
<polygon fill="#0d0e73" stroke="#0d0e73" stroke-width=".5" points="347.6615,-581.4715 349.2828,-578.1365 345.9356,-579.7324 347.6615,-581.4715"/>
<text text-anchor="middle" x="338" y="-652.5" font-family="Arial" font-size="10.00" fill="#0d0e73">0.40%</text>
<text text-anchor="middle" x="338" y="-641.5" font-family="Arial" font-size="10.00" fill="#0d0e73">116795×</text>
</g>
<!-- FreeModule_actOnBasis&#45;&gt;MilnorAlgebra_getDimension -->
<g id="edge8" class="edge">
<title>FreeModule_actOnBasis&#45;&gt;MilnorAlgebra_getDimension</title>
<path fill="none" stroke="#0d247a" stroke-width=".5" d="M247.3922,-617.9959C253.0975,-604.8643 259.7494,-591.6004 265,-587 279.2126,-574.5476 297.333,-565.9101 315.3041,-559.9235"/>
<polygon fill="#0d247a" stroke="#0d247a" stroke-width=".5" points="315.9425,-561.0045 318.8952,-558.7612 315.188,-558.6736 315.9425,-561.0045"/>
<text text-anchor="middle" x="286.5" y="-601" font-family="Arial" font-size="10.00" fill="#0d247a">5.32%</text>
<text text-anchor="middle" x="286.5" y="-590" font-family="Arial" font-size="10.00" fill="#0d247a">1553853×</text>
</g>
<!-- MilnorAlgebra_multiply -->
<g id="node11" class="node">
<title>MilnorAlgebra_multiply</title>
<polygon fill="#0c698b" stroke="#0c698b" points="271.5,-578 156.5,-578 156.5,-515 271.5,-515 271.5,-578"/>
<text text-anchor="middle" x="214" y="-566" font-family="Arial" font-size="10.00" fill="#ffffff">csteen</text>
<text text-anchor="middle" x="214" y="-555" font-family="Arial" font-size="10.00" fill="#ffffff">MilnorAlgebra_multiply</text>
<text text-anchor="middle" x="214" y="-544" font-family="Arial" font-size="10.00" fill="#ffffff">18.39%</text>
<text text-anchor="middle" x="214" y="-533" font-family="Arial" font-size="10.00" fill="#ffffff">(0.70%)</text>
<text text-anchor="middle" x="214" y="-522" font-family="Arial" font-size="10.00" fill="#ffffff">26349×</text>
</g>
<!-- FreeModule_actOnBasis&#45;&gt;MilnorAlgebra_multiply -->
<g id="edge9" class="edge">
<title>FreeModule_actOnBasis&#45;&gt;MilnorAlgebra_multiply</title>
<path fill="none" stroke="#0c698b" stroke-width=".74" d="M219.5414,-617.601C218.5469,-614.7374 217.6754,-611.8448 217,-609 215.031,-600.7063 213.9872,-591.6249 213.4864,-583.0178"/>
<polygon fill="#0c698b" stroke="#0c698b" stroke-width=".74" points="214.9694,-582.5165 213.2617,-578.2929 211.9628,-582.6596 214.9694,-582.5165"/>
<text text-anchor="middle" x="234" y="-601" font-family="Arial" font-size="10.00" fill="#0c698b">18.39%</text>
<text text-anchor="middle" x="234" y="-590" font-family="Arial" font-size="10.00" fill="#0c698b">26349×</text>
</g>
<!-- FreeModule_ConstructBlockOffsetTable -->
<g id="node10" class="node">
<title>FreeModule_ConstructBlockOffsetTable</title>
<polygon fill="#0d1876" stroke="#0d1876" points="717,-753 527,-753 527,-690 717,-690 717,-753"/>
<text text-anchor="middle" x="622" y="-741" font-family="Arial" font-size="10.00" fill="#ffffff">csteen</text>
<text text-anchor="middle" x="622" y="-730" font-family="Arial" font-size="10.00" fill="#ffffff">FreeModule_ConstructBlockOffsetTable</text>
<text text-anchor="middle" x="622" y="-719" font-family="Arial" font-size="10.00" fill="#ffffff">2.75%</text>
<text text-anchor="middle" x="622" y="-708" font-family="Arial" font-size="10.00" fill="#ffffff">(1.72%)</text>
<text text-anchor="middle" x="622" y="-697" font-family="Arial" font-size="10.00" fill="#ffffff">2485×</text>
</g>
<!-- FreeModule_ConstructBlockOffsetTable&#45;&gt;MilnorAlgebra_getDimension -->
<g id="edge7" class="edge">
<title>FreeModule_ConstructBlockOffsetTable&#45;&gt;MilnorAlgebra_getDimension</title>
<path fill="none" stroke="#0d1074" stroke-width=".5" d="M586.1722,-689.9253C561.8253,-668.8884 528.6036,-640.9894 498,-618 478.2884,-603.1927 472.5925,-600.5555 452,-587 448.5212,-584.71 444.9266,-582.359 441.2997,-579.9981"/>
<polygon fill="#0d1074" stroke="#0d1074" stroke-width=".5" points="441.8495,-578.8944 438.2474,-578.0138 440.5141,-580.9485 441.8495,-578.8944"/>
<text text-anchor="middle" x="595" y="-652.5" font-family="Arial" font-size="10.00" fill="#0d1074">0.80%</text>
<text text-anchor="middle" x="595" y="-641.5" font-family="Arial" font-size="10.00" fill="#0d1074">233590×</text>
</g>
<!-- __memset_avx2_unaligned_erms -->
<g id="node15" class="node">
<title>__memset_avx2_unaligned_erms</title>
<polygon fill="#0d1174" stroke="#0d1174" points="361,-63 199,-63 199,0 361,0 361,-63"/>
<text text-anchor="middle" x="280" y="-51" font-family="Arial" font-size="10.00" fill="#ffffff">libc&#45;2.27.so</text>
<text text-anchor="middle" x="280" y="-40" font-family="Arial" font-size="10.00" fill="#ffffff">__memset_avx2_unaligned_erms</text>
<text text-anchor="middle" x="280" y="-29" font-family="Arial" font-size="10.00" fill="#ffffff">1.15%</text>
<text text-anchor="middle" x="280" y="-18" font-family="Arial" font-size="10.00" fill="#ffffff">(1.15%)</text>
<text text-anchor="middle" x="280" y="-7" font-family="Arial" font-size="10.00" fill="#ffffff">260144×</text>
</g>
<!-- MilnorAlgebra_multiply&#45;&gt;__memset_avx2_unaligned_erms -->
<g id="edge23" class="edge">
<title>MilnorAlgebra_multiply&#45;&gt;__memset_avx2_unaligned_erms</title>
<path fill="none" stroke="#0d0d73" stroke-width=".5" d="M156.3704,-530.8857C92.9868,-511.9694 0,-478.2897 0,-443.5 0,-443.5 0,-443.5 0,-134.5 0,-95.6848 26.6455,-90.0661 61,-72 84.1433,-59.8295 143.9631,-49.2141 195.2442,-41.9079"/>
<polygon fill="#0d0d73" stroke="#0d0d73" stroke-width=".5" points="195.6272,-43.0909 198.921,-41.3875 195.2839,-40.6651 195.6272,-43.0909"/>
<text text-anchor="middle" x="16.5" y="-292" font-family="Arial" font-size="10.00" fill="#0d0d73">0.10%</text>
<text text-anchor="middle" x="16.5" y="-281" font-family="Arial" font-size="10.00" fill="#0d0d73">26349×</text>
</g>
<!-- MilnorAlgebra__multiplyFull -->
<g id="node16" class="node">
<title>MilnorAlgebra__multiplyFull</title>
<polygon fill="#0c5987" stroke="#0c5987" points="282,-475 146,-475 146,-412 282,-412 282,-475"/>
<text text-anchor="middle" x="214" y="-463" font-family="Arial" font-size="10.00" fill="#ffffff">csteen</text>
<text text-anchor="middle" x="214" y="-452" font-family="Arial" font-size="10.00" fill="#ffffff">MilnorAlgebra__multiplyFull</text>
<text text-anchor="middle" x="214" y="-441" font-family="Arial" font-size="10.00" fill="#ffffff">15.55%</text>
<text text-anchor="middle" x="214" y="-430" font-family="Arial" font-size="10.00" fill="#ffffff">(1.10%)</text>
<text text-anchor="middle" x="214" y="-419" font-family="Arial" font-size="10.00" fill="#ffffff">26349×</text>
</g>
<!-- MilnorAlgebra_multiply&#45;&gt;MilnorAlgebra__multiplyFull -->
<g id="edge21" class="edge">
<title>MilnorAlgebra_multiply&#45;&gt;MilnorAlgebra__multiplyFull</title>
<path fill="none" stroke="#0c5987" stroke-width=".62" d="M214,-514.7562C214,-503.5956 214,-490.9761 214,-479.4914"/>
<polygon fill="#0c5987" stroke="#0c5987" stroke-width=".62" points="215.3651,-479.2163 214,-475.3163 212.6351,-479.2164 215.3651,-479.2163"/>
<text text-anchor="middle" x="231" y="-498" font-family="Arial" font-size="10.00" fill="#0c5987">15.55%</text>
<text text-anchor="middle" x="231" y="-487" font-family="Arial" font-size="10.00" fill="#0c5987">26349×</text>
</g>
<!-- Vector_addArray -->
<g id="node19" class="node">
<title>Vector_addArray</title>
<polygon fill="#0d1575" stroke="#0d1575" points="457.5,-475 368.5,-475 368.5,-412 457.5,-412 457.5,-475"/>
<text text-anchor="middle" x="413" y="-463" font-family="Arial" font-size="10.00" fill="#ffffff">csteen</text>
<text text-anchor="middle" x="413" y="-452" font-family="Arial" font-size="10.00" fill="#ffffff">Vector_addArray</text>
<text text-anchor="middle" x="413" y="-441" font-family="Arial" font-size="10.00" fill="#ffffff">2.03%</text>
<text text-anchor="middle" x="413" y="-430" font-family="Arial" font-size="10.00" fill="#ffffff">(0.02%)</text>
<text text-anchor="middle" x="413" y="-419" font-family="Arial" font-size="10.00" fill="#ffffff">26349×</text>
</g>
<!-- MilnorAlgebra_multiply&#45;&gt;Vector_addArray -->
<g id="edge22" class="edge">
<title>MilnorAlgebra_multiply&#45;&gt;Vector_addArray</title>
<path fill="none" stroke="#0d1575" stroke-width=".5" d="M271.559,-516.7081C301.121,-501.4072 336.7286,-482.9771 364.821,-468.4369"/>
<polygon fill="#0d1575" stroke="#0d1575" stroke-width=".5" points="365.6635,-469.3802 368.2088,-466.6834 364.5373,-467.2044 365.6635,-469.3802"/>
<text text-anchor="middle" x="348.5" y="-498" font-family="Arial" font-size="10.00" fill="#0d1575">2.03%</text>
<text text-anchor="middle" x="348.5" y="-487" font-family="Arial" font-size="10.00" fill="#0d1575">26349×</text>
</g>
<!-- MilnorAlgebra__multiplyEven -->
<g id="node12" class="node">
<title>MilnorAlgebra__multiplyEven</title>
<polygon fill="#0d257a" stroke="#0d257a" points="361.5,-372 218.5,-372 218.5,-309 361.5,-309 361.5,-372"/>
<text text-anchor="middle" x="290" y="-360" font-family="Arial" font-size="10.00" fill="#ffffff">csteen</text>
<text text-anchor="middle" x="290" y="-349" font-family="Arial" font-size="10.00" fill="#ffffff">MilnorAlgebra__multiplyEven</text>
<text text-anchor="middle" x="290" y="-338" font-family="Arial" font-size="10.00" fill="#ffffff">5.58%</text>
<text text-anchor="middle" x="290" y="-327" font-family="Arial" font-size="10.00" fill="#ffffff">(1.32%)</text>
<text text-anchor="middle" x="290" y="-316" font-family="Arial" font-size="10.00" fill="#ffffff">14146×</text>
</g>
<!-- MilnorAlgebra_basisElement_toIndex -->
<g id="node13" class="node">
<title>MilnorAlgebra_basisElement_toIndex</title>
<polygon fill="#0d307d" stroke="#0d307d" points="239,-269 61,-269 61,-206 239,-206 239,-269"/>
<text text-anchor="middle" x="150" y="-257" font-family="Arial" font-size="10.00" fill="#ffffff">csteen</text>
<text text-anchor="middle" x="150" y="-246" font-family="Arial" font-size="10.00" fill="#ffffff">MilnorAlgebra_basisElement_toIndex</text>
<text text-anchor="middle" x="150" y="-235" font-family="Arial" font-size="10.00" fill="#ffffff">7.89%</text>
<text text-anchor="middle" x="150" y="-224" font-family="Arial" font-size="10.00" fill="#ffffff">(4.35%)</text>
<text text-anchor="middle" x="150" y="-213" font-family="Arial" font-size="10.00" fill="#ffffff">76877×</text>
</g>
<!-- MilnorAlgebra__multiplyEven&#45;&gt;MilnorAlgebra_basisElement_toIndex -->
<g id="edge11" class="edge">
<title>MilnorAlgebra__multiplyEven&#45;&gt;MilnorAlgebra_basisElement_toIndex</title>
<path fill="none" stroke="#0d1375" stroke-width=".5" d="M246.853,-308.7562C230.885,-297.0082 212.7195,-283.6437 196.4689,-271.6878"/>
<polygon fill="#0d1375" stroke="#0d1375" stroke-width=".5" points="196.7907,-270.4038 193.2455,-269.3163 195.3388,-272.3772 196.7907,-270.4038"/>
<text text-anchor="middle" x="249.5" y="-292" font-family="Arial" font-size="10.00" fill="#0d1375">1.57%</text>
<text text-anchor="middle" x="249.5" y="-281" font-family="Arial" font-size="10.00" fill="#0d1375">15014×</text>
</g>
<!-- Multinomial -->
<g id="node14" class="node">
<title>Multinomial</title>
<polygon fill="#0d1675" stroke="#0d1675" points="318,-269 252,-269 252,-206 318,-206 318,-269"/>
<text text-anchor="middle" x="285" y="-257" font-family="Arial" font-size="10.00" fill="#ffffff">csteen</text>
<text text-anchor="middle" x="285" y="-246" font-family="Arial" font-size="10.00" fill="#ffffff">Multinomial</text>
<text text-anchor="middle" x="285" y="-235" font-family="Arial" font-size="10.00" fill="#ffffff">2.13%</text>
<text text-anchor="middle" x="285" y="-224" font-family="Arial" font-size="10.00" fill="#ffffff">(0.03%)</text>
<text text-anchor="middle" x="285" y="-213" font-family="Arial" font-size="10.00" fill="#ffffff">30022×</text>
</g>
<!-- MilnorAlgebra__multiplyEven&#45;&gt;Multinomial -->
<g id="edge12" class="edge">
<title>MilnorAlgebra__multiplyEven&#45;&gt;Multinomial</title>
<path fill="none" stroke="#0d1675" stroke-width=".5" d="M288.459,-308.7562C287.9078,-297.3998 287.2831,-284.5328 286.7179,-272.888"/>
<polygon fill="#0d1675" stroke="#0d1675" stroke-width=".5" points="287.9378,-272.7528 286.5445,-269.3163 285.4907,-272.8716 287.9378,-272.7528"/>
<text text-anchor="middle" x="304.5" y="-292" font-family="Arial" font-size="10.00" fill="#0d1675">2.13%</text>
<text text-anchor="middle" x="304.5" y="-281" font-family="Arial" font-size="10.00" fill="#0d1675">30022×</text>
</g>
<!-- MilnorAlgebra__multiplyEven&#45;&gt;__memset_avx2_unaligned_erms -->
<g id="edge13" class="edge">
<title>MilnorAlgebra__multiplyEven&#45;&gt;__memset_avx2_unaligned_erms</title>
<path fill="none" stroke="#0d0d73" stroke-width=".5" d="M318.7245,-308.9654C320.407,-306.0667 321.8711,-303.0638 323,-300 338.1383,-258.9175 333.4284,-146.1481 326,-103 323.5196,-88.5925 322.3506,-84.6371 315,-72 313.8961,-70.1022 312.6979,-68.2098 311.4322,-66.3379"/>
<polygon fill="#0d0d73" stroke="#0d0d73" stroke-width=".5" points="312.3997,-65.5837 309.3914,-63.4154 310.3909,-66.9864 312.3997,-65.5837"/>
<text text-anchor="middle" x="349.5" y="-189" font-family="Arial" font-size="10.00" fill="#0d0d73">0.14%</text>
<text text-anchor="middle" x="349.5" y="-178" font-family="Arial" font-size="10.00" fill="#0d0d73">30830×</text>
</g>
<!-- MilnorAlgebra_basisElement_toKey -->
<g id="node18" class="node">
<title>MilnorAlgebra_basisElement_toKey</title>
<polygon fill="#0d1876" stroke="#0d1876" points="228.5,-166 57.5,-166 57.5,-103 228.5,-103 228.5,-166"/>
<text text-anchor="middle" x="143" y="-154" font-family="Arial" font-size="10.00" fill="#ffffff">csteen</text>
<text text-anchor="middle" x="143" y="-143" font-family="Arial" font-size="10.00" fill="#ffffff">MilnorAlgebra_basisElement_toKey</text>
<text text-anchor="middle" x="143" y="-132" font-family="Arial" font-size="10.00" fill="#ffffff">2.62%</text>
<text text-anchor="middle" x="143" y="-121" font-family="Arial" font-size="10.00" fill="#ffffff">(2.30%)</text>
<text text-anchor="middle" x="143" y="-110" font-family="Arial" font-size="10.00" fill="#ffffff">77206×</text>
</g>
<!-- MilnorAlgebra_basisElement_toIndex&#45;&gt;MilnorAlgebra_basisElement_toKey -->
<g id="edge20" class="edge">
<title>MilnorAlgebra_basisElement_toIndex&#45;&gt;MilnorAlgebra_basisElement_toKey</title>
<path fill="none" stroke="#0d1876" stroke-width=".5" d="M147.8427,-205.7562C147.0709,-194.3998 146.1964,-181.5328 145.405,-169.888"/>
<polygon fill="#0d1876" stroke="#0d1876" stroke-width=".5" points="146.6219,-169.7252 145.1623,-166.3163 144.1775,-169.8914 146.6219,-169.7252"/>
<text text-anchor="middle" x="164.5" y="-189" font-family="Arial" font-size="10.00" fill="#0d1876">2.61%</text>
<text text-anchor="middle" x="164.5" y="-178" font-family="Arial" font-size="10.00" fill="#0d1876">76877×</text>
</g>
<!-- MultinomialOdd -->
<g id="node20" class="node">
<title>MultinomialOdd</title>
<polygon fill="#0d1675" stroke="#0d1675" points="322,-166 238,-166 238,-103 322,-103 322,-166"/>
<text text-anchor="middle" x="280" y="-154" font-family="Arial" font-size="10.00" fill="#ffffff">csteen</text>
<text text-anchor="middle" x="280" y="-143" font-family="Arial" font-size="10.00" fill="#ffffff">MultinomialOdd</text>
<text text-anchor="middle" x="280" y="-132" font-family="Arial" font-size="10.00" fill="#ffffff">2.10%</text>
<text text-anchor="middle" x="280" y="-121" font-family="Arial" font-size="10.00" fill="#ffffff">(1.84%)</text>
<text text-anchor="middle" x="280" y="-110" font-family="Arial" font-size="10.00" fill="#ffffff">30022×</text>
</g>
<!-- Multinomial&#45;&gt;MultinomialOdd -->
<g id="edge24" class="edge">
<title>Multinomial&#45;&gt;MultinomialOdd</title>
<path fill="none" stroke="#0d1675" stroke-width=".5" d="M283.459,-205.7562C282.9078,-194.3998 282.2831,-181.5328 281.7179,-169.888"/>
<polygon fill="#0d1675" stroke="#0d1675" stroke-width=".5" points="282.9378,-169.7528 281.5445,-166.3163 280.4907,-169.8716 282.9378,-169.7528"/>
<text text-anchor="middle" x="299.5" y="-189" font-family="Arial" font-size="10.00" fill="#0d1675">2.10%</text>
<text text-anchor="middle" x="299.5" y="-178" font-family="Arial" font-size="10.00" fill="#0d1675">30022×</text>
</g>
<!-- MilnorAlgebra__multiplyFull&#45;&gt;MilnorAlgebra__multiplyEven -->
<g id="edge14" class="edge">
<title>MilnorAlgebra__multiplyFull&#45;&gt;MilnorAlgebra__multiplyEven</title>
<path fill="none" stroke="#0d257a" stroke-width=".5" d="M237.4226,-411.7562C245.9465,-400.204 255.6239,-387.0887 264.3321,-375.2868"/>
<polygon fill="#0d257a" stroke="#0d257a" stroke-width=".5" points="265.4315,-375.86 266.5239,-372.3163 263.4601,-374.4053 265.4315,-375.86"/>
<text text-anchor="middle" x="275.5" y="-395" font-family="Arial" font-size="10.00" fill="#0d257a">5.58%</text>
<text text-anchor="middle" x="275.5" y="-384" font-family="Arial" font-size="10.00" fill="#0d257a">14146×</text>
</g>
<!-- MilnorAlgebra__multiplyFull&#45;&gt;MilnorAlgebra_basisElement_toIndex -->
<g id="edge16" class="edge">
<title>MilnorAlgebra__multiplyFull&#45;&gt;MilnorAlgebra_basisElement_toIndex</title>
<path fill="none" stroke="#0d1475" stroke-width=".5" d="M197.6096,-411.6876C191.7879,-399.5011 185.556,-385.3243 181,-372 179.3758,-367.25 166.5921,-311.0748 157.9565,-272.8425"/>
<polygon fill="#0d1475" stroke="#0d1475" stroke-width=".5" points="159.1001,-272.3452 157.1342,-269.2009 156.7102,-272.8848 159.1001,-272.3452"/>
<text text-anchor="middle" x="197.5" y="-343.5" font-family="Arial" font-size="10.00" fill="#0d1475">1.63%</text>
<text text-anchor="middle" x="197.5" y="-332.5" font-family="Arial" font-size="10.00" fill="#0d1475">15014×</text>
</g>
<!-- MilnorAlgebra__multiplyFull&#45;&gt;__memset_avx2_unaligned_erms -->
<g id="edge17" class="edge">
<title>MilnorAlgebra__multiplyFull&#45;&gt;__memset_avx2_unaligned_erms</title>
<path fill="none" stroke="#0d0d73" stroke-width=".5" d="M282.1822,-428.6943C326.8484,-414.5263 377,-388.0345 377,-340.5 377,-340.5 377,-340.5 377,-134.5 377,-106.4081 357.6411,-82.8593 336.2201,-65.401"/>
<polygon fill="#0d0d73" stroke="#0d0d73" stroke-width=".5" points="336.8229,-64.3146 333.324,-63.0865 335.2933,-66.2285 336.8229,-64.3146"/>
<text text-anchor="middle" x="393.5" y="-240.5" font-family="Arial" font-size="10.00" fill="#0d0d73">0.11%</text>
<text text-anchor="middle" x="393.5" y="-229.5" font-family="Arial" font-size="10.00" fill="#0d0d73">26349×</text>
</g>
<!-- MilnorAlgebra__multiplyQpart -->
<g id="node17" class="node">
<title>MilnorAlgebra__multiplyQpart</title>
<polygon fill="#0d2c7c" stroke="#0d2c7c" points="158,-372 14,-372 14,-309 158,-309 158,-372"/>
<text text-anchor="middle" x="86" y="-360" font-family="Arial" font-size="10.00" fill="#ffffff">csteen</text>
<text text-anchor="middle" x="86" y="-349" font-family="Arial" font-size="10.00" fill="#ffffff">MilnorAlgebra__multiplyQpart</text>
<text text-anchor="middle" x="86" y="-338" font-family="Arial" font-size="10.00" fill="#ffffff">7.09%</text>
<text text-anchor="middle" x="86" y="-327" font-family="Arial" font-size="10.00" fill="#ffffff">(1.94%)</text>
<text text-anchor="middle" x="86" y="-316" font-family="Arial" font-size="10.00" fill="#ffffff">26349×</text>
</g>
<!-- MilnorAlgebra__multiplyFull&#45;&gt;MilnorAlgebra__multiplyQpart -->
<g id="edge15" class="edge">
<title>MilnorAlgebra__multiplyFull&#45;&gt;MilnorAlgebra__multiplyQpart</title>
<path fill="none" stroke="#0d2c7c" stroke-width=".5" d="M148.0189,-411.8571C143.8224,-409.0552 139.7735,-406.0985 136,-403 126.1837,-394.9397 117.0029,-384.6673 109.2552,-374.7901"/>
<polygon fill="#0d2c7c" stroke="#0d2c7c" stroke-width=".5" points="110.2198,-374.0348 107.1087,-372.0168 108.2823,-375.5344 110.2198,-374.0348"/>
<text text-anchor="middle" x="152.5" y="-395" font-family="Arial" font-size="10.00" fill="#0d2c7c">7.09%</text>
<text text-anchor="middle" x="152.5" y="-384" font-family="Arial" font-size="10.00" fill="#0d2c7c">26349×</text>
</g>
<!-- MilnorAlgebra__multiplyQpart&#45;&gt;MilnorAlgebra_basisElement_toIndex -->
<g id="edge18" class="edge">
<title>MilnorAlgebra__multiplyQpart&#45;&gt;MilnorAlgebra_basisElement_toIndex</title>
<path fill="none" stroke="#0d2179" stroke-width=".5" d="M105.7243,-308.7562C112.8415,-297.3019 120.9136,-284.3109 128.1983,-272.5871"/>
<polygon fill="#0d2179" stroke="#0d2179" stroke-width=".5" points="129.4239,-272.9357 130.2306,-269.3163 127.3429,-271.6427 129.4239,-272.9357"/>
<text text-anchor="middle" x="140.5" y="-292" font-family="Arial" font-size="10.00" fill="#0d2179">4.69%</text>
<text text-anchor="middle" x="140.5" y="-281" font-family="Arial" font-size="10.00" fill="#0d2179">46849×</text>
</g>
<!-- MilnorAlgebra__multiplyQpart&#45;&gt;__memset_avx2_unaligned_erms -->
<g id="edge19" class="edge">
<title>MilnorAlgebra__multiplyQpart&#45;&gt;__memset_avx2_unaligned_erms</title>
<path fill="none" stroke="#0d0d73" stroke-width=".5" d="M68.6885,-308.9647C44.366,-259.9157 7.8216,-164.5967 53,-103 70.3361,-79.3638 138.1852,-59.9644 195.2297,-47.366"/>
<polygon fill="#0d0d73" stroke="#0d0d73" stroke-width=".5" points="195.8142,-48.492 198.9708,-46.546 195.2897,-46.0988 195.8142,-48.492"/>
<text text-anchor="middle" x="49.5" y="-189" font-family="Arial" font-size="10.00" fill="#0d0d73">0.18%</text>
<text text-anchor="middle" x="49.5" y="-178" font-family="Arial" font-size="10.00" fill="#0d0d73">44247×</text>
</g>
<!-- VectorGeneric_addArray -->
<g id="node25" class="node">
<title>VectorGeneric_addArray</title>
<polygon fill="#0d1575" stroke="#0d1575" points="513,-372 391,-372 391,-309 513,-309 513,-372"/>
<text text-anchor="middle" x="452" y="-360" font-family="Arial" font-size="10.00" fill="#ffffff">csteen</text>
<text text-anchor="middle" x="452" y="-349" font-family="Arial" font-size="10.00" fill="#ffffff">VectorGeneric_addArray</text>
<text text-anchor="middle" x="452" y="-338" font-family="Arial" font-size="10.00" fill="#ffffff">2.02%</text>
<text text-anchor="middle" x="452" y="-327" font-family="Arial" font-size="10.00" fill="#ffffff">(2.02%)</text>
<text text-anchor="middle" x="452" y="-316" font-family="Arial" font-size="10.00" fill="#ffffff">26349×</text>
</g>
<!-- Vector_addArray&#45;&gt;VectorGeneric_addArray -->
<g id="edge32" class="edge">
<title>Vector_addArray&#45;&gt;VectorGeneric_addArray</title>
<path fill="none" stroke="#0d1575" stroke-width=".5" d="M425.0195,-411.7562C429.3195,-400.3998 434.1915,-387.5328 438.6007,-375.888"/>
<polygon fill="#0d1575" stroke="#0d1575" stroke-width=".5" points="439.8592,-376.0234 439.953,-372.3163 437.568,-375.1558 439.8592,-376.0234"/>
<text text-anchor="middle" x="452.5" y="-395" font-family="Arial" font-size="10.00" fill="#0d1575">2.02%</text>
<text text-anchor="middle" x="452.5" y="-384" font-family="Arial" font-size="10.00" fill="#0d1575">26349×</text>
</g>
<!-- MultinomialOdd&#45;&gt;__memset_avx2_unaligned_erms -->
<g id="edge25" class="edge">
<title>MultinomialOdd&#45;&gt;__memset_avx2_unaligned_erms</title>
<path fill="none" stroke="#0d0e73" stroke-width=".5" d="M280,-102.7562C280,-91.3998 280,-78.5328 280,-66.888"/>
<polygon fill="#0d0e73" stroke="#0d0e73" stroke-width=".5" points="281.2251,-66.8163 280,-63.3163 278.7751,-66.8164 281.2251,-66.8163"/>
<text text-anchor="middle" x="296.5" y="-86" font-family="Arial" font-size="10.00" fill="#0d0e73">0.25%</text>
<text text-anchor="middle" x="296.5" y="-75" font-family="Arial" font-size="10.00" fill="#0d0e73">54580×</text>
</g>
<!-- Resolution_generateOldKernelAndComputeNewKernel -->
<g id="node21" class="node">
<title>Resolution_generateOldKernelAndComputeNewKernel</title>
<polygon fill="#fd0a00" stroke="#fd0a00" points="692.5,-928 441.5,-928 441.5,-865 692.5,-865 692.5,-928"/>
<text text-anchor="middle" x="567" y="-916" font-family="Arial" font-size="10.00" fill="#ffffff">csteen</text>
<text text-anchor="middle" x="567" y="-905" font-family="Arial" font-size="10.00" fill="#ffffff">Resolution_generateOldKernelAndComputeNewKernel</text>
<text text-anchor="middle" x="567" y="-894" font-family="Arial" font-size="10.00" fill="#ffffff">99.01%</text>
<text text-anchor="middle" x="567" y="-883" font-family="Arial" font-size="10.00" fill="#ffffff">(0.43%)</text>
<text text-anchor="middle" x="567" y="-872" font-family="Arial" font-size="10.00" fill="#ffffff">2485×</text>
</g>
<!-- Resolution_generateOldKernelAndComputeNewKernel&#45;&gt;FreeModuleHomomorphism_AllocateSpaceForNewGenerators -->
<g id="edge26" class="edge">
<title>Resolution_generateOldKernelAndComputeNewKernel&#45;&gt;FreeModuleHomomorphism_AllocateSpaceForNewGenerators</title>
<path fill="none" stroke="#0d1274" stroke-width=".5" d="M567,-864.7562C567,-853.3998 567,-840.5328 567,-828.888"/>
<polygon fill="#0d1274" stroke="#0d1274" stroke-width=".5" points="568.2251,-828.8163 567,-825.3163 565.7751,-828.8164 568.2251,-828.8163"/>
<text text-anchor="middle" x="581" y="-848" font-family="Arial" font-size="10.00" fill="#0d1274">1.20%</text>
<text text-anchor="middle" x="581" y="-837" font-family="Arial" font-size="10.00" fill="#0d1274">2485×</text>
</g>
<!-- Resolution_generateOldKernelAndComputeNewKernel&#45;&gt;FreeModule_getDimension -->
<g id="edge29" class="edge">
<title>Resolution_generateOldKernelAndComputeNewKernel&#45;&gt;FreeModule_getDimension</title>
<path fill="none" stroke="#0d1475" stroke-width=".5" d="M441.2953,-866.7502C421.8248,-856.6474 404.1692,-843.1177 392,-825 363.4085,-782.4325 386.5739,-721.9051 406.6908,-684.2049"/>
<polygon fill="#0d1475" stroke="#0d1475" stroke-width=".5" points="407.793,-684.742 408.379,-681.0803 405.6375,-683.5773 407.793,-684.742"/>
<text text-anchor="middle" x="406" y="-796.5" font-family="Arial" font-size="10.00" fill="#0d1475">1.83%</text>
<text text-anchor="middle" x="406" y="-785.5" font-family="Arial" font-size="10.00" fill="#0d1475">4900×</text>
</g>
<!-- Resolution_generateOldKernelAndComputeNewKernel&#45;&gt;FreeModuleHomomorphism_getMatrix -->
<g id="edge27" class="edge">
<title>Resolution_generateOldKernelAndComputeNewKernel&#45;&gt;FreeModuleHomomorphism_getMatrix</title>
<path fill="none" stroke="#0ba74e" stroke-width="1.57" d="M441.4459,-879.5994C401.7499,-872.9422 363.6311,-864.785 346,-856 332.9321,-849.4887 320.5576,-839.7024 310.0364,-829.7946"/>
<polygon fill="#0ba74e" stroke="#0ba74e" stroke-width="1.57" points="311.3971,-828.0429 305.3369,-825.2452 308.3297,-831.2114 311.3971,-828.0429"/>
<text text-anchor="middle" x="363" y="-848" font-family="Arial" font-size="10.00" fill="#0ba74e">39.15%</text>
<text text-anchor="middle" x="363" y="-837" font-family="Arial" font-size="10.00" fill="#0ba74e">2485×</text>
</g>
<!-- Resolution_generateOldKernelAndComputeNewKernel&#45;&gt;FreeModule_ConstructBlockOffsetTable -->
<g id="edge28" class="edge">
<title>Resolution_generateOldKernelAndComputeNewKernel&#45;&gt;FreeModule_ConstructBlockOffsetTable</title>
<path fill="none" stroke="#0d1876" stroke-width=".5" d="M669.9798,-864.9987C687.473,-855.0037 703.3884,-841.9617 714,-825 728.8506,-801.2627 729.2991,-785.4508 714,-762 712.5578,-759.7893 710.9648,-757.6985 709.244,-755.7211"/>
<polygon fill="#0d1876" stroke="#0d1876" stroke-width=".5" points="710.0941,-754.8359 706.8203,-753.0943 708.2935,-756.4974 710.0941,-754.8359"/>
<text text-anchor="middle" x="721" y="-848" font-family="Arial" font-size="10.00" fill="#0d1876">2.75%</text>
<text text-anchor="middle" x="721" y="-837" font-family="Arial" font-size="10.00" fill="#0d1876">2485×</text>
</g>
<!-- rowReduce -->
<g id="node22" class="node">
<title>rowReduce</title>
<polygon fill="#13b809" stroke="#13b809" points="803.5,-825 738.5,-825 738.5,-762 803.5,-762 803.5,-825"/>
<text text-anchor="middle" x="771" y="-813" font-family="Arial" font-size="10.00" fill="#ffffff">csteen</text>
<text text-anchor="middle" x="771" y="-802" font-family="Arial" font-size="10.00" fill="#ffffff">rowReduce</text>
<text text-anchor="middle" x="771" y="-791" font-family="Arial" font-size="10.00" fill="#ffffff">51.43%</text>
<text text-anchor="middle" x="771" y="-780" font-family="Arial" font-size="10.00" fill="#ffffff">(16.02%)</text>
<text text-anchor="middle" x="771" y="-769" font-family="Arial" font-size="10.00" fill="#ffffff">4970×</text>
</g>
<!-- Resolution_generateOldKernelAndComputeNewKernel&#45;&gt;rowReduce -->
<g id="edge30" class="edge">
<title>Resolution_generateOldKernelAndComputeNewKernel&#45;&gt;rowReduce</title>
<path fill="none" stroke="#13b809" stroke-width="2.06" d="M692.6219,-879.3322C719.9864,-873.3569 743.82,-865.6611 754,-856 760.6291,-849.7088 764.7625,-841.1128 767.3166,-832.3096"/>
<polygon fill="#13b809" stroke="#13b809" stroke-width="2.06" points="769.7817,-832.8377 769.044,-825.2452 764.8859,-831.6406 769.7817,-832.8377"/>
<text text-anchor="middle" x="784" y="-848" font-family="Arial" font-size="10.00" fill="#13b809">51.43%</text>
<text text-anchor="middle" x="784" y="-837" font-family="Arial" font-size="10.00" fill="#13b809">4970×</text>
</g>
<!-- VectorGeneric_add -->
<g id="node24" class="node">
<title>VectorGeneric_add</title>
<polygon fill="#0c9492" stroke="#0c9492" points="806.5,-681 707.5,-681 707.5,-618 806.5,-618 806.5,-681"/>
<text text-anchor="middle" x="757" y="-669" font-family="Arial" font-size="10.00" fill="#ffffff">csteen</text>
<text text-anchor="middle" x="757" y="-658" font-family="Arial" font-size="10.00" fill="#ffffff">VectorGeneric_add</text>
<text text-anchor="middle" x="757" y="-647" font-family="Arial" font-size="10.00" fill="#ffffff">25.39%</text>
<text text-anchor="middle" x="757" y="-636" font-family="Arial" font-size="10.00" fill="#ffffff">(25.39%)</text>
<text text-anchor="middle" x="757" y="-625" font-family="Arial" font-size="10.00" fill="#ffffff">38732×</text>
</g>
<!-- rowReduce&#45;&gt;VectorGeneric_add -->
<g id="edge35" class="edge">
<title>rowReduce&#45;&gt;VectorGeneric_add</title>
<path fill="none" stroke="#0c9492" stroke-width="1.02" d="M767.9276,-761.8986C765.7575,-739.5775 762.8428,-709.5974 760.5694,-686.2138"/>
<polygon fill="#0c9492" stroke="#0c9492" stroke-width="1.02" points="762.2909,-685.8349 760.0652,-681.0277 758.8073,-686.1736 762.2909,-685.8349"/>
<text text-anchor="middle" x="784" y="-724.5" font-family="Arial" font-size="10.00" fill="#0c9492">25.39%</text>
<text text-anchor="middle" x="784" y="-713.5" font-family="Arial" font-size="10.00" fill="#0c9492">38732×</text>
</g>
<!-- VectorGeneric_scale -->
<g id="node26" class="node">
<title>VectorGeneric_scale</title>
<polygon fill="#0d3a80" stroke="#0d3a80" points="922.5,-681 815.5,-681 815.5,-618 922.5,-618 922.5,-681"/>
<text text-anchor="middle" x="869" y="-669" font-family="Arial" font-size="10.00" fill="#ffffff">csteen</text>
<text text-anchor="middle" x="869" y="-658" font-family="Arial" font-size="10.00" fill="#ffffff">VectorGeneric_scale</text>
<text text-anchor="middle" x="869" y="-647" font-family="Arial" font-size="10.00" fill="#ffffff">9.95%</text>
<text text-anchor="middle" x="869" y="-636" font-family="Arial" font-size="10.00" fill="#ffffff">(9.95%)</text>
<text text-anchor="middle" x="869" y="-625" font-family="Arial" font-size="10.00" fill="#ffffff">20934×</text>
</g>
<!-- rowReduce&#45;&gt;VectorGeneric_scale -->
<g id="edge36" class="edge">
<title>rowReduce&#45;&gt;VectorGeneric_scale</title>
<path fill="none" stroke="#0d3a80" stroke-width=".5" d="M796.4636,-761.8961C798.7132,-758.9181 800.9226,-755.9211 803,-753 818.8271,-730.7448 835.3465,-704.8364 847.8994,-684.5086"/>
<polygon fill="#0d3a80" stroke="#0d3a80" stroke-width=".5" points="849.0861,-684.9178 849.8793,-681.2954 847.0003,-683.6325 849.0861,-684.9178"/>
<text text-anchor="middle" x="860.5" y="-724.5" font-family="Arial" font-size="10.00" fill="#0d3a80">9.95%</text>
<text text-anchor="middle" x="860.5" y="-713.5" font-family="Arial" font-size="10.00" fill="#0d3a80">20934×</text>
</g>
<!-- Resolution_step&#45;&gt;Resolution_generateOldKernelAndComputeNewKernel -->
<g id="edge31" class="edge">
<title>Resolution_step&#45;&gt;Resolution_generateOldKernelAndComputeNewKernel</title>
<path fill="none" stroke="#fd0a00" stroke-width="3.96" d="M567,-967.7562C567,-958.5536 567,-948.3591 567,-938.6267"/>
<polygon fill="#fd0a00" stroke="#fd0a00" stroke-width="3.96" points="570.5001,-938.3163 567,-928.3163 563.5001,-938.3164 570.5001,-938.3163"/>
<text text-anchor="middle" x="584" y="-951" font-family="Arial" font-size="10.00" fill="#fd0a00">99.01%</text>
<text text-anchor="middle" x="584" y="-940" font-family="Arial" font-size="10.00" fill="#fd0a00">2485×</text>
</g>
</g>
</svg>
