<?xml version="1.0" encoding="UTF-8" standalone="no"?>
<!DOCTYPE svg PUBLIC "-//W3C//DTD SVG 1.1//EN"
 "http://www.w3.org/Graphics/SVG/1.1/DTD/svg11.dtd">
<!-- Generated by graphviz version 2.40.1 (20161225.0304)
 -->
<!-- Title: %3 Pages: 1 -->
<svg width="411pt" height="1204pt"
 viewBox="0.00 0.00 411.00 1204.00" xmlns="http://www.w3.org/2000/svg" xmlns:xlink="http://www.w3.org/1999/xlink">
<g id="graph0" class="graph" transform="scale(1 1) rotate(0) translate(4 1200)">
<title>%3</title>
<polygon fill="#ffffff" stroke="transparent" points="-4,4 -4,-1200 407,-1200 407,4 -4,4"/>
<!-- (below main) -->
<g id="node1" class="node">
<title>(below main)</title>
<polygon fill="#ff0000" stroke="#ff0000" points="205.5,-990 134.5,-990 134.5,-927 205.5,-927 205.5,-990"/>
<text text-anchor="middle" x="170" y="-978" font-family="Arial" font-size="10.00" fill="#ffffff">libc&#45;2.27.so</text>
<text text-anchor="middle" x="170" y="-967" font-family="Arial" font-size="10.00" fill="#ffffff">(below main)</text>
<text text-anchor="middle" x="170" y="-956" font-family="Arial" font-size="10.00" fill="#ffffff">100.00%</text>
<text text-anchor="middle" x="170" y="-945" font-family="Arial" font-size="10.00" fill="#ffffff">(0.00%)</text>
<text text-anchor="middle" x="170" y="-934" font-family="Arial" font-size="10.00" fill="#ffffff">1×</text>
</g>
<!-- main -->
<g id="node2" class="node">
<title>main</title>
<polygon fill="#ff0000" stroke="#ff0000" points="197.5,-887 142.5,-887 142.5,-824 197.5,-824 197.5,-887"/>
<text text-anchor="middle" x="170" y="-875" font-family="Arial" font-size="10.00" fill="#ffffff">csteen</text>
<text text-anchor="middle" x="170" y="-864" font-family="Arial" font-size="10.00" fill="#ffffff">main</text>
<text text-anchor="middle" x="170" y="-853" font-family="Arial" font-size="10.00" fill="#ffffff">100.00%</text>
<text text-anchor="middle" x="170" y="-842" font-family="Arial" font-size="10.00" fill="#ffffff">(0.00%)</text>
<text text-anchor="middle" x="170" y="-831" font-family="Arial" font-size="10.00" fill="#ffffff">1×</text>
</g>
<!-- (below main)&#45;&gt;main -->
<g id="edge1" class="edge">
<title>(below main)&#45;&gt;main</title>
<path fill="none" stroke="#ff0000" stroke-width="4" d="M170,-926.7562C170,-917.5536 170,-907.3591 170,-897.6267"/>
<polygon fill="#ff0000" stroke="#ff0000" stroke-width="4" points="173.5001,-897.3163 170,-887.3163 166.5001,-897.3164 173.5001,-897.3163"/>
<text text-anchor="middle" x="189.5" y="-910" font-family="Arial" font-size="10.00" fill="#ff0000">100.00%</text>
<text text-anchor="middle" x="189.5" y="-899" font-family="Arial" font-size="10.00" fill="#ff0000">1×</text>
</g>
<!-- Resolution_step -->
<g id="node15" class="node">
<title>Resolution_step</title>
<polygon fill="#ff0000" stroke="#ff0000" points="213,-784 127,-784 127,-721 213,-721 213,-784"/>
<text text-anchor="middle" x="170" y="-772" font-family="Arial" font-size="10.00" fill="#ffffff">csteen</text>
<text text-anchor="middle" x="170" y="-761" font-family="Arial" font-size="10.00" fill="#ffffff">Resolution_step</text>
<text text-anchor="middle" x="170" y="-750" font-family="Arial" font-size="10.00" fill="#ffffff">99.99%</text>
<text text-anchor="middle" x="170" y="-739" font-family="Arial" font-size="10.00" fill="#ffffff">(0.00%)</text>
<text text-anchor="middle" x="170" y="-728" font-family="Arial" font-size="10.00" fill="#ffffff">11325×</text>
</g>
<!-- main&#45;&gt;Resolution_step -->
<g id="edge16" class="edge">
<title>main&#45;&gt;Resolution_step</title>
<path fill="none" stroke="#ff0000" stroke-width="4" d="M170,-823.7562C170,-814.5536 170,-804.3591 170,-794.6267"/>
<polygon fill="#ff0000" stroke="#ff0000" stroke-width="4" points="173.5001,-794.3163 170,-784.3163 166.5001,-794.3164 173.5001,-794.3163"/>
<text text-anchor="middle" x="187" y="-807" font-family="Arial" font-size="10.00" fill="#ff0000">99.99%</text>
<text text-anchor="middle" x="187" y="-796" font-family="Arial" font-size="10.00" fill="#ff0000">11325×</text>
</g>
<!-- 0x0000000000000f60 -->
<g id="node3" class="node">
<title>0x0000000000000f60</title>
<polygon fill="#ff0000" stroke="#ff0000" points="224.5,-1196 115.5,-1196 115.5,-1133 224.5,-1133 224.5,-1196"/>
<text text-anchor="middle" x="170" y="-1184" font-family="Arial" font-size="10.00" fill="#ffffff">ld&#45;2.27.so</text>
<text text-anchor="middle" x="170" y="-1173" font-family="Arial" font-size="10.00" fill="#ffffff">0x0000000000000f60</text>
<text text-anchor="middle" x="170" y="-1162" font-family="Arial" font-size="10.00" fill="#ffffff">100.00%</text>
<text text-anchor="middle" x="170" y="-1151" font-family="Arial" font-size="10.00" fill="#ffffff">(0.00%)</text>
<text text-anchor="middle" x="170" y="-1140" font-family="Arial" font-size="10.00" fill="#ffffff">0×</text>
</g>
<!-- _start -->
<g id="node4" class="node">
<title>_start</title>
<polygon fill="#ff0000" stroke="#ff0000" points="197.5,-1093 142.5,-1093 142.5,-1030 197.5,-1030 197.5,-1093"/>
<text text-anchor="middle" x="170" y="-1081" font-family="Arial" font-size="10.00" fill="#ffffff">csteen</text>
<text text-anchor="middle" x="170" y="-1070" font-family="Arial" font-size="10.00" fill="#ffffff">_start</text>
<text text-anchor="middle" x="170" y="-1059" font-family="Arial" font-size="10.00" fill="#ffffff">100.00%</text>
<text text-anchor="middle" x="170" y="-1048" font-family="Arial" font-size="10.00" fill="#ffffff">(0.00%)</text>
<text text-anchor="middle" x="170" y="-1037" font-family="Arial" font-size="10.00" fill="#ffffff">1×</text>
</g>
<!-- 0x0000000000000f60&#45;&gt;_start -->
<g id="edge2" class="edge">
<title>0x0000000000000f60&#45;&gt;_start</title>
<path fill="none" stroke="#ff0000" stroke-width="4" d="M170,-1132.7562C170,-1123.5536 170,-1113.3591 170,-1103.6267"/>
<polygon fill="#ff0000" stroke="#ff0000" stroke-width="4" points="173.5001,-1103.3163 170,-1093.3163 166.5001,-1103.3164 173.5001,-1103.3163"/>
<text text-anchor="middle" x="189.5" y="-1116" font-family="Arial" font-size="10.00" fill="#ff0000">100.00%</text>
<text text-anchor="middle" x="189.5" y="-1105" font-family="Arial" font-size="10.00" fill="#ff0000">1×</text>
</g>
<!-- _start&#45;&gt;(below main) -->
<g id="edge15" class="edge">
<title>_start&#45;&gt;(below main)</title>
<path fill="none" stroke="#ff0000" stroke-width="4" d="M170,-1029.7562C170,-1020.5536 170,-1010.3591 170,-1000.6267"/>
<polygon fill="#ff0000" stroke="#ff0000" stroke-width="4" points="173.5001,-1000.3163 170,-990.3163 166.5001,-1000.3164 173.5001,-1000.3163"/>
<text text-anchor="middle" x="189.5" y="-1013" font-family="Arial" font-size="10.00" fill="#ff0000">100.00%</text>
<text text-anchor="middle" x="189.5" y="-1002" font-family="Arial" font-size="10.00" fill="#ff0000">1×</text>
</g>
<!-- FreeModuleHomomorphism_getMatrix -->
<g id="node5" class="node">
<title>FreeModuleHomomorphism_getMatrix</title>
<polygon fill="#0d317d" stroke="#0d317d" points="195,-578 13,-578 13,-515 195,-515 195,-578"/>
<text text-anchor="middle" x="104" y="-566" font-family="Arial" font-size="10.00" fill="#ffffff">csteen</text>
<text text-anchor="middle" x="104" y="-555" font-family="Arial" font-size="10.00" fill="#ffffff">FreeModuleHomomorphism_getMatrix</text>
<text text-anchor="middle" x="104" y="-544" font-family="Arial" font-size="10.00" fill="#ffffff">8.04%</text>
<text text-anchor="middle" x="104" y="-533" font-family="Arial" font-size="10.00" fill="#ffffff">(0.16%)</text>
<text text-anchor="middle" x="104" y="-522" font-family="Arial" font-size="10.00" fill="#ffffff">11325×</text>
</g>
<!-- FreeModule_actOnBasis -->
<g id="node6" class="node">
<title>FreeModule_actOnBasis</title>
<polygon fill="#0d2f7d" stroke="#0d2f7d" points="166,-475 42,-475 42,-412 166,-412 166,-475"/>
<text text-anchor="middle" x="104" y="-463" font-family="Arial" font-size="10.00" fill="#ffffff">csteen</text>
<text text-anchor="middle" x="104" y="-452" font-family="Arial" font-size="10.00" fill="#ffffff">FreeModule_actOnBasis</text>
<text text-anchor="middle" x="104" y="-441" font-family="Arial" font-size="10.00" fill="#ffffff">7.61%</text>
<text text-anchor="middle" x="104" y="-430" font-family="Arial" font-size="10.00" fill="#ffffff">(2.57%)</text>
<text text-anchor="middle" x="104" y="-419" font-family="Arial" font-size="10.00" fill="#ffffff">1603465×</text>
</g>
<!-- FreeModuleHomomorphism_getMatrix&#45;&gt;FreeModule_actOnBasis -->
<g id="edge3" class="edge">
<title>FreeModuleHomomorphism_getMatrix&#45;&gt;FreeModule_actOnBasis</title>
<path fill="none" stroke="#0d2f7d" stroke-width=".5" d="M104,-514.7562C104,-503.3998 104,-490.5328 104,-478.888"/>
<polygon fill="#0d2f7d" stroke="#0d2f7d" stroke-width=".5" points="105.2251,-478.8163 104,-475.3163 102.7751,-478.8164 105.2251,-478.8163"/>
<text text-anchor="middle" x="125.5" y="-498" font-family="Arial" font-size="10.00" fill="#0d2f7d">7.61%</text>
<text text-anchor="middle" x="125.5" y="-487" font-family="Arial" font-size="10.00" fill="#0d2f7d">1603465×</text>
</g>
<!-- MilnorAlgebra_getDimension -->
<g id="node7" class="node">
<title>MilnorAlgebra_getDimension</title>
<polygon fill="#0d1375" stroke="#0d1375" points="140,-372 0,-372 0,-309 140,-309 140,-372"/>
<text text-anchor="middle" x="70" y="-360" font-family="Arial" font-size="10.00" fill="#ffffff">csteen</text>
<text text-anchor="middle" x="70" y="-349" font-family="Arial" font-size="10.00" fill="#ffffff">MilnorAlgebra_getDimension</text>
<text text-anchor="middle" x="70" y="-338" font-family="Arial" font-size="10.00" fill="#ffffff">1.44%</text>
<text text-anchor="middle" x="70" y="-327" font-family="Arial" font-size="10.00" fill="#ffffff">(1.44%)</text>
<text text-anchor="middle" x="70" y="-316" font-family="Arial" font-size="10.00" fill="#ffffff">219921569×</text>
</g>
<!-- FreeModule_actOnBasis&#45;&gt;MilnorAlgebra_getDimension -->
<g id="edge4" class="edge">
<title>FreeModule_actOnBasis&#45;&gt;MilnorAlgebra_getDimension</title>
<path fill="none" stroke="#0d1275" stroke-width=".5" d="M93.5214,-411.7562C89.7728,-400.3998 85.5254,-387.5328 81.6815,-375.888"/>
<polygon fill="#0d1275" stroke="#0d1275" stroke-width=".5" points="82.7629,-375.2559 80.5025,-372.3163 80.4364,-376.024 82.7629,-375.2559"/>
<text text-anchor="middle" x="118" y="-395" font-family="Arial" font-size="10.00" fill="#0d1275">1.38%</text>
<text text-anchor="middle" x="118" y="-384" font-family="Arial" font-size="10.00" fill="#0d1275">210708342×</text>
</g>
<!-- MilnorAlgebra_multiply -->
<g id="node8" class="node">
<title>MilnorAlgebra_multiply</title>
<polygon fill="#0d1c77" stroke="#0d1c77" points="264.5,-372 149.5,-372 149.5,-309 264.5,-309 264.5,-372"/>
<text text-anchor="middle" x="207" y="-360" font-family="Arial" font-size="10.00" fill="#ffffff">csteen</text>
<text text-anchor="middle" x="207" y="-349" font-family="Arial" font-size="10.00" fill="#ffffff">MilnorAlgebra_multiply</text>
<text text-anchor="middle" x="207" y="-338" font-family="Arial" font-size="10.00" fill="#ffffff">3.56%</text>
<text text-anchor="middle" x="207" y="-327" font-family="Arial" font-size="10.00" fill="#ffffff">(0.08%)</text>
<text text-anchor="middle" x="207" y="-316" font-family="Arial" font-size="10.00" fill="#ffffff">1603465×</text>
</g>
<!-- FreeModule_actOnBasis&#45;&gt;MilnorAlgebra_multiply -->
<g id="edge5" class="edge">
<title>FreeModule_actOnBasis&#45;&gt;MilnorAlgebra_multiply</title>
<path fill="none" stroke="#0d1c77" stroke-width=".5" d="M137.9543,-411.8227C141.0322,-408.8602 144.0856,-405.8868 147,-403 156.0067,-394.0787 165.5862,-384.2574 174.3852,-375.0956"/>
<polygon fill="#0d1c77" stroke="#0d1c77" stroke-width=".5" points="175.5513,-375.6494 177.0894,-372.2752 173.7828,-373.9538 175.5513,-375.6494"/>
<text text-anchor="middle" x="189.5" y="-395" font-family="Arial" font-size="10.00" fill="#0d1c77">3.56%</text>
<text text-anchor="middle" x="189.5" y="-384" font-family="Arial" font-size="10.00" fill="#0d1c77">1603465×</text>
</g>
<!-- MilnorAlgebra__multiplyFull -->
<g id="node11" class="node">
<title>MilnorAlgebra__multiplyFull</title>
<polygon fill="#0d1976" stroke="#0d1976" points="275,-269 139,-269 139,-206 275,-206 275,-269"/>
<text text-anchor="middle" x="207" y="-257" font-family="Arial" font-size="10.00" fill="#ffffff">csteen</text>
<text text-anchor="middle" x="207" y="-246" font-family="Arial" font-size="10.00" fill="#ffffff">MilnorAlgebra__multiplyFull</text>
<text text-anchor="middle" x="207" y="-235" font-family="Arial" font-size="10.00" fill="#ffffff">2.87%</text>
<text text-anchor="middle" x="207" y="-224" font-family="Arial" font-size="10.00" fill="#ffffff">(0.22%)</text>
<text text-anchor="middle" x="207" y="-213" font-family="Arial" font-size="10.00" fill="#ffffff">1603465×</text>
</g>
<!-- MilnorAlgebra_multiply&#45;&gt;MilnorAlgebra__multiplyFull -->
<g id="edge11" class="edge">
<title>MilnorAlgebra_multiply&#45;&gt;MilnorAlgebra__multiplyFull</title>
<path fill="none" stroke="#0d1976" stroke-width=".5" d="M207,-308.7562C207,-297.3998 207,-284.5328 207,-272.888"/>
<polygon fill="#0d1976" stroke="#0d1976" stroke-width=".5" points="208.2251,-272.8163 207,-269.3163 205.7751,-272.8164 208.2251,-272.8163"/>
<text text-anchor="middle" x="228.5" y="-292" font-family="Arial" font-size="10.00" fill="#0d1976">2.87%</text>
<text text-anchor="middle" x="228.5" y="-281" font-family="Arial" font-size="10.00" fill="#0d1976">1603465×</text>
</g>
<!-- MilnorAlgebra__multiplyEven -->
<g id="node9" class="node">
<title>MilnorAlgebra__multiplyEven</title>
<polygon fill="#0d1274" stroke="#0d1274" points="188.5,-166 45.5,-166 45.5,-103 188.5,-103 188.5,-166"/>
<text text-anchor="middle" x="117" y="-154" font-family="Arial" font-size="10.00" fill="#ffffff">csteen</text>
<text text-anchor="middle" x="117" y="-143" font-family="Arial" font-size="10.00" fill="#ffffff">MilnorAlgebra__multiplyEven</text>
<text text-anchor="middle" x="117" y="-132" font-family="Arial" font-size="10.00" fill="#ffffff">1.31%</text>
<text text-anchor="middle" x="117" y="-121" font-family="Arial" font-size="10.00" fill="#ffffff">(0.29%)</text>
<text text-anchor="middle" x="117" y="-110" font-family="Arial" font-size="10.00" fill="#ffffff">1232457×</text>
</g>
<!-- MilnorAlgebra_basisElement_toIndex -->
<g id="node10" class="node">
<title>MilnorAlgebra_basisElement_toIndex</title>
<polygon fill="#0d1274" stroke="#0d1274" points="296,-63 118,-63 118,0 296,0 296,-63"/>
<text text-anchor="middle" x="207" y="-51" font-family="Arial" font-size="10.00" fill="#ffffff">csteen</text>
<text text-anchor="middle" x="207" y="-40" font-family="Arial" font-size="10.00" fill="#ffffff">MilnorAlgebra_basisElement_toIndex</text>
<text text-anchor="middle" x="207" y="-29" font-family="Arial" font-size="10.00" fill="#ffffff">1.27%</text>
<text text-anchor="middle" x="207" y="-18" font-family="Arial" font-size="10.00" fill="#ffffff">(0.71%)</text>
<text text-anchor="middle" x="207" y="-7" font-family="Arial" font-size="10.00" fill="#ffffff">5907453×</text>
</g>
<!-- MilnorAlgebra__multiplyEven&#45;&gt;MilnorAlgebra_basisElement_toIndex -->
<g id="edge6" class="edge">
<title>MilnorAlgebra__multiplyEven&#45;&gt;MilnorAlgebra_basisElement_toIndex</title>
<path fill="none" stroke="#0d0e73" stroke-width=".5" d="M134.4834,-102.8991C140.9097,-92.5438 148.6699,-81.3147 157,-72 158.9268,-69.8454 160.9749,-67.7126 163.1002,-65.6192"/>
<polygon fill="#0d0e73" stroke="#0d0e73" stroke-width=".5" points="163.9593,-66.4926 165.6277,-63.1809 162.2582,-64.7293 163.9593,-66.4926"/>
<text text-anchor="middle" x="178.5" y="-86" font-family="Arial" font-size="10.00" fill="#0d0e73">0.30%</text>
<text text-anchor="middle" x="178.5" y="-75" font-family="Arial" font-size="10.00" fill="#0d0e73">1413267×</text>
</g>
<!-- MilnorAlgebra__multiplyFull&#45;&gt;MilnorAlgebra__multiplyEven -->
<g id="edge7" class="edge">
<title>MilnorAlgebra__multiplyFull&#45;&gt;MilnorAlgebra__multiplyEven</title>
<path fill="none" stroke="#0d1274" stroke-width=".5" d="M165.6277,-205.8191C162.5964,-202.9532 159.6808,-199.9977 157,-197 149.581,-188.7041 142.6141,-178.8897 136.6389,-169.5264"/>
<polygon fill="#0d1274" stroke="#0d1274" stroke-width=".5" points="137.3843,-168.4108 134.4834,-166.1009 135.3107,-169.7157 137.3843,-168.4108"/>
<text text-anchor="middle" x="178.5" y="-189" font-family="Arial" font-size="10.00" fill="#0d1274">1.31%</text>
<text text-anchor="middle" x="178.5" y="-178" font-family="Arial" font-size="10.00" fill="#0d1274">1232457×</text>
</g>
<!-- MilnorAlgebra__multiplyFull&#45;&gt;MilnorAlgebra_basisElement_toIndex -->
<g id="edge9" class="edge">
<title>MilnorAlgebra__multiplyFull&#45;&gt;MilnorAlgebra_basisElement_toIndex</title>
<path fill="none" stroke="#0d0e73" stroke-width=".5" d="M207,-205.764C207,-168.2625 207,-106.0398 207,-66.9783"/>
<polygon fill="#0d0e73" stroke="#0d0e73" stroke-width=".5" points="208.2251,-66.7721 207,-63.2721 205.7751,-66.7721 208.2251,-66.7721"/>
<text text-anchor="middle" x="228.5" y="-137.5" font-family="Arial" font-size="10.00" fill="#0d0e73">0.32%</text>
<text text-anchor="middle" x="228.5" y="-126.5" font-family="Arial" font-size="10.00" fill="#0d0e73">1413260×</text>
</g>
<!-- MilnorAlgebra__multiplyQpart -->
<g id="node12" class="node">
<title>MilnorAlgebra__multiplyQpart</title>
<polygon fill="#0d1174" stroke="#0d1174" points="403,-166 259,-166 259,-103 403,-103 403,-166"/>
<text text-anchor="middle" x="331" y="-154" font-family="Arial" font-size="10.00" fill="#ffffff">csteen</text>
<text text-anchor="middle" x="331" y="-143" font-family="Arial" font-size="10.00" fill="#ffffff">MilnorAlgebra__multiplyQpart</text>
<text text-anchor="middle" x="331" y="-132" font-family="Arial" font-size="10.00" fill="#ffffff">1.00%</text>
<text text-anchor="middle" x="331" y="-121" font-family="Arial" font-size="10.00" fill="#ffffff">(0.30%)</text>
<text text-anchor="middle" x="331" y="-110" font-family="Arial" font-size="10.00" fill="#ffffff">1603465×</text>
</g>
<!-- MilnorAlgebra__multiplyFull&#45;&gt;MilnorAlgebra__multiplyQpart -->
<g id="edge8" class="edge">
<title>MilnorAlgebra__multiplyFull&#45;&gt;MilnorAlgebra__multiplyQpart</title>
<path fill="none" stroke="#0d1174" stroke-width=".5" d="M245.2159,-205.7562C259.359,-194.0082 275.4484,-180.6437 289.8418,-168.6878"/>
<polygon fill="#0d1174" stroke="#0d1174" stroke-width=".5" points="290.7872,-169.4951 292.6968,-166.3163 289.2217,-167.6104 290.7872,-169.4951"/>
<text text-anchor="middle" x="302.5" y="-189" font-family="Arial" font-size="10.00" fill="#0d1174">1.00%</text>
<text text-anchor="middle" x="302.5" y="-178" font-family="Arial" font-size="10.00" fill="#0d1174">1603465×</text>
</g>
<!-- MilnorAlgebra__multiplyQpart&#45;&gt;MilnorAlgebra_basisElement_toIndex -->
<g id="edge10" class="edge">
<title>MilnorAlgebra__multiplyQpart&#45;&gt;MilnorAlgebra_basisElement_toIndex</title>
<path fill="none" stroke="#0d0f74" stroke-width=".5" d="M292.7841,-102.7562C278.641,-91.0082 262.5516,-77.6437 248.1582,-65.6878"/>
<polygon fill="#0d0f74" stroke="#0d0f74" stroke-width=".5" points="248.7783,-64.6104 245.3032,-63.3163 247.2128,-66.4951 248.7783,-64.6104"/>
<text text-anchor="middle" x="302.5" y="-86" font-family="Arial" font-size="10.00" fill="#0d0f74">0.64%</text>
<text text-anchor="middle" x="302.5" y="-75" font-family="Arial" font-size="10.00" fill="#0d0f74">3080926×</text>
</g>
<!-- Resolution_generateOldKernelAndComputeNewKernel -->
<g id="node13" class="node">
<title>Resolution_generateOldKernelAndComputeNewKernel</title>
<polygon fill="#ff0000" stroke="#ff0000" points="295.5,-681 44.5,-681 44.5,-618 295.5,-618 295.5,-681"/>
<text text-anchor="middle" x="170" y="-669" font-family="Arial" font-size="10.00" fill="#ffffff">csteen</text>
<text text-anchor="middle" x="170" y="-658" font-family="Arial" font-size="10.00" fill="#ffffff">Resolution_generateOldKernelAndComputeNewKernel</text>
<text text-anchor="middle" x="170" y="-647" font-family="Arial" font-size="10.00" fill="#ffffff">99.99%</text>
<text text-anchor="middle" x="170" y="-636" font-family="Arial" font-size="10.00" fill="#ffffff">(0.01%)</text>
<text text-anchor="middle" x="170" y="-625" font-family="Arial" font-size="10.00" fill="#ffffff">11325×</text>
</g>
<!-- Resolution_generateOldKernelAndComputeNewKernel&#45;&gt;FreeModuleHomomorphism_getMatrix -->
<g id="edge12" class="edge">
<title>Resolution_generateOldKernelAndComputeNewKernel&#45;&gt;FreeModuleHomomorphism_getMatrix</title>
<path fill="none" stroke="#0d317d" stroke-width=".5" d="M149.6593,-617.7562C142.2569,-606.204 133.853,-593.0887 126.2906,-581.2868"/>
<polygon fill="#0d317d" stroke="#0d317d" stroke-width=".5" points="127.3069,-580.6023 124.3872,-578.3163 125.2441,-581.9242 127.3069,-580.6023"/>
<text text-anchor="middle" x="159.5" y="-601" font-family="Arial" font-size="10.00" fill="#0d317d">8.04%</text>
<text text-anchor="middle" x="159.5" y="-590" font-family="Arial" font-size="10.00" fill="#0d317d">11325×</text>
</g>
<!-- rowReduce -->
<g id="node14" class="node">
<title>rowReduce</title>
<polygon fill="#f25102" stroke="#f25102" points="269.5,-578 204.5,-578 204.5,-515 269.5,-515 269.5,-578"/>
<text text-anchor="middle" x="237" y="-566" font-family="Arial" font-size="10.00" fill="#ffffff">csteen</text>
<text text-anchor="middle" x="237" y="-555" font-family="Arial" font-size="10.00" fill="#ffffff">rowReduce</text>
<text text-anchor="middle" x="237" y="-544" font-family="Arial" font-size="10.00" fill="#ffffff">91.75%</text>
<text text-anchor="middle" x="237" y="-533" font-family="Arial" font-size="10.00" fill="#ffffff">(6.69%)</text>
<text text-anchor="middle" x="237" y="-522" font-family="Arial" font-size="10.00" fill="#ffffff">22650×</text>
</g>
<!-- Resolution_generateOldKernelAndComputeNewKernel&#45;&gt;rowReduce -->
<g id="edge13" class="edge">
<title>Resolution_generateOldKernelAndComputeNewKernel&#45;&gt;rowReduce</title>
<path fill="none" stroke="#f25102" stroke-width="3.67" d="M190.6489,-617.7562C197.0808,-607.8683 204.2577,-596.8352 211.0061,-586.4608"/>
<polygon fill="#f25102" stroke="#f25102" stroke-width="3.67" points="213.8858,-588.1958 216.3039,-578.3163 208.2527,-584.5315 213.8858,-588.1958"/>
<text text-anchor="middle" x="227" y="-601" font-family="Arial" font-size="10.00" fill="#f25102">91.75%</text>
<text text-anchor="middle" x="227" y="-590" font-family="Arial" font-size="10.00" fill="#f25102">22650×</text>
</g>
<!-- VectorGeneric_add -->
<g id="node16" class="node">
<title>VectorGeneric_add</title>
<polygon fill="#e2ae04" stroke="#e2ae04" points="280.5,-475 181.5,-475 181.5,-412 280.5,-412 280.5,-475"/>
<text text-anchor="middle" x="231" y="-463" font-family="Arial" font-size="10.00" fill="#ffffff">csteen</text>
<text text-anchor="middle" x="231" y="-452" font-family="Arial" font-size="10.00" fill="#ffffff">VectorGeneric_add</text>
<text text-anchor="middle" x="231" y="-441" font-family="Arial" font-size="10.00" fill="#ffffff">80.93%</text>
<text text-anchor="middle" x="231" y="-430" font-family="Arial" font-size="10.00" fill="#ffffff">(80.93%)</text>
<text text-anchor="middle" x="231" y="-419" font-family="Arial" font-size="10.00" fill="#ffffff">6603088×</text>
</g>
<!-- rowReduce&#45;&gt;VectorGeneric_add -->
<g id="edge17" class="edge">
<title>rowReduce&#45;&gt;VectorGeneric_add</title>
<path fill="none" stroke="#e2ae04" stroke-width="3.24" d="M235.1508,-514.7562C234.592,-505.162 233.9703,-494.4897 233.3818,-484.3869"/>
<polygon fill="#e2ae04" stroke="#e2ae04" stroke-width="3.24" points="236.5215,-484.1179 232.8534,-475.3163 230.2322,-484.4843 236.5215,-484.1179"/>
<text text-anchor="middle" x="256.5" y="-498" font-family="Arial" font-size="10.00" fill="#e2ae04">80.93%</text>
<text text-anchor="middle" x="256.5" y="-487" font-family="Arial" font-size="10.00" fill="#e2ae04">6603088×</text>
</g>
<!-- VectorGeneric_scale -->
<g id="node17" class="node">
<title>VectorGeneric_scale</title>
<polygon fill="#0d1e78" stroke="#0d1e78" points="396.5,-475 289.5,-475 289.5,-412 396.5,-412 396.5,-475"/>
<text text-anchor="middle" x="343" y="-463" font-family="Arial" font-size="10.00" fill="#ffffff">csteen</text>
<text text-anchor="middle" x="343" y="-452" font-family="Arial" font-size="10.00" fill="#ffffff">VectorGeneric_scale</text>
<text text-anchor="middle" x="343" y="-441" font-family="Arial" font-size="10.00" fill="#ffffff">4.13%</text>
<text text-anchor="middle" x="343" y="-430" font-family="Arial" font-size="10.00" fill="#ffffff">(4.13%)</text>
<text text-anchor="middle" x="343" y="-419" font-family="Arial" font-size="10.00" fill="#ffffff">542527×</text>
</g>
<!-- rowReduce&#45;&gt;VectorGeneric_scale -->
<g id="edge18" class="edge">
<title>rowReduce&#45;&gt;VectorGeneric_scale</title>
<path fill="none" stroke="#0d1e78" stroke-width=".5" d="M269.9511,-515.6301C273.3563,-512.3906 276.7557,-509.1361 280,-506 289.3361,-496.9753 299.3534,-487.1186 308.5913,-477.9559"/>
<polygon fill="#0d1e78" stroke="#0d1e78" stroke-width=".5" points="309.8107,-478.4715 311.4316,-475.1363 308.0846,-476.7327 309.8107,-478.4715"/>
<text text-anchor="middle" x="319" y="-498" font-family="Arial" font-size="10.00" fill="#0d1e78">4.13%</text>
<text text-anchor="middle" x="319" y="-487" font-family="Arial" font-size="10.00" fill="#0d1e78">542527×</text>
</g>
<!-- Resolution_step&#45;&gt;Resolution_generateOldKernelAndComputeNewKernel -->
<g id="edge14" class="edge">
<title>Resolution_step&#45;&gt;Resolution_generateOldKernelAndComputeNewKernel</title>
<path fill="none" stroke="#ff0000" stroke-width="4" d="M170,-720.7562C170,-711.5536 170,-701.3591 170,-691.6267"/>
<polygon fill="#ff0000" stroke="#ff0000" stroke-width="4" points="173.5001,-691.3163 170,-681.3163 166.5001,-691.3164 173.5001,-691.3163"/>
<text text-anchor="middle" x="187" y="-704" font-family="Arial" font-size="10.00" fill="#ff0000">99.99%</text>
<text text-anchor="middle" x="187" y="-693" font-family="Arial" font-size="10.00" fill="#ff0000">11325×</text>
</g>
</g>
</svg>
