<?xml version="1.0" encoding="UTF-8" standalone="no"?>
<!DOCTYPE svg PUBLIC "-//W3C//DTD SVG 1.1//EN"
 "http://www.w3.org/Graphics/SVG/1.1/DTD/svg11.dtd">
<!-- Generated by graphviz version 2.40.1 (20161225.0304)
 -->
<!-- Title: %3 Pages: 1 -->
<svg width="640pt" height="1307pt"
 viewBox="0.00 0.00 640.00 1307.00" xmlns="http://www.w3.org/2000/svg" xmlns:xlink="http://www.w3.org/1999/xlink">
<g id="graph0" class="graph" transform="scale(1 1) rotate(0) translate(4 1303)">
<title>%3</title>
<polygon fill="#ffffff" stroke="transparent" points="-4,4 -4,-1303 636,-1303 636,4 -4,4"/>
<!-- (below main) -->
<g id="node1" class="node">
<title>(below main)</title>
<polygon fill="#ff0000" stroke="#ff0000" points="450.5,-1093 379.5,-1093 379.5,-1030 450.5,-1030 450.5,-1093"/>
<text text-anchor="middle" x="415" y="-1081" font-family="Arial" font-size="10.00" fill="#ffffff">libc&#45;2.27.so</text>
<text text-anchor="middle" x="415" y="-1070" font-family="Arial" font-size="10.00" fill="#ffffff">(below main)</text>
<text text-anchor="middle" x="415" y="-1059" font-family="Arial" font-size="10.00" fill="#ffffff">100.00%</text>
<text text-anchor="middle" x="415" y="-1048" font-family="Arial" font-size="10.00" fill="#ffffff">(0.00%)</text>
<text text-anchor="middle" x="415" y="-1037" font-family="Arial" font-size="10.00" fill="#ffffff">1×</text>
</g>
<!-- main -->
<g id="node2" class="node">
<title>main</title>
<polygon fill="#ff0000" stroke="#ff0000" points="442.5,-990 387.5,-990 387.5,-927 442.5,-927 442.5,-990"/>
<text text-anchor="middle" x="415" y="-978" font-family="Arial" font-size="10.00" fill="#ffffff">csteen</text>
<text text-anchor="middle" x="415" y="-967" font-family="Arial" font-size="10.00" fill="#ffffff">main</text>
<text text-anchor="middle" x="415" y="-956" font-family="Arial" font-size="10.00" fill="#ffffff">100.00%</text>
<text text-anchor="middle" x="415" y="-945" font-family="Arial" font-size="10.00" fill="#ffffff">(0.00%)</text>
<text text-anchor="middle" x="415" y="-934" font-family="Arial" font-size="10.00" fill="#ffffff">1×</text>
</g>
<!-- (below main)&#45;&gt;main -->
<g id="edge1" class="edge">
<title>(below main)&#45;&gt;main</title>
<path fill="none" stroke="#ff0000" stroke-width="4" d="M415,-1029.7562C415,-1020.5536 415,-1010.3591 415,-1000.6267"/>
<polygon fill="#ff0000" stroke="#ff0000" stroke-width="4" points="418.5001,-1000.3163 415,-990.3163 411.5001,-1000.3164 418.5001,-1000.3163"/>
<text text-anchor="middle" x="434.5" y="-1013" font-family="Arial" font-size="10.00" fill="#ff0000">100.00%</text>
<text text-anchor="middle" x="434.5" y="-1002" font-family="Arial" font-size="10.00" fill="#ff0000">1×</text>
</g>
<!-- Resolution_resolveThroughDegree -->
<g id="node20" class="node">
<title>Resolution_resolveThroughDegree</title>
<polygon fill="#ff0000" stroke="#ff0000" points="497.5,-887 332.5,-887 332.5,-824 497.5,-824 497.5,-887"/>
<text text-anchor="middle" x="415" y="-875" font-family="Arial" font-size="10.00" fill="#ffffff">csteen</text>
<text text-anchor="middle" x="415" y="-864" font-family="Arial" font-size="10.00" fill="#ffffff">Resolution_resolveThroughDegree</text>
<text text-anchor="middle" x="415" y="-853" font-family="Arial" font-size="10.00" fill="#ffffff">100.00%</text>
<text text-anchor="middle" x="415" y="-842" font-family="Arial" font-size="10.00" fill="#ffffff">(0.00%)</text>
<text text-anchor="middle" x="415" y="-831" font-family="Arial" font-size="10.00" fill="#ffffff">1×</text>
</g>
<!-- main&#45;&gt;Resolution_resolveThroughDegree -->
<g id="edge25" class="edge">
<title>main&#45;&gt;Resolution_resolveThroughDegree</title>
<path fill="none" stroke="#ff0000" stroke-width="4" d="M415,-926.7562C415,-917.5536 415,-907.3591 415,-897.6267"/>
<polygon fill="#ff0000" stroke="#ff0000" stroke-width="4" points="418.5001,-897.3163 415,-887.3163 411.5001,-897.3164 418.5001,-897.3163"/>
<text text-anchor="middle" x="434.5" y="-910" font-family="Arial" font-size="10.00" fill="#ff0000">100.00%</text>
<text text-anchor="middle" x="434.5" y="-899" font-family="Arial" font-size="10.00" fill="#ff0000">1×</text>
</g>
<!-- 0x0000000000000f60 -->
<g id="node3" class="node">
<title>0x0000000000000f60</title>
<polygon fill="#ff0000" stroke="#ff0000" points="469.5,-1299 360.5,-1299 360.5,-1236 469.5,-1236 469.5,-1299"/>
<text text-anchor="middle" x="415" y="-1287" font-family="Arial" font-size="10.00" fill="#ffffff">ld&#45;2.27.so</text>
<text text-anchor="middle" x="415" y="-1276" font-family="Arial" font-size="10.00" fill="#ffffff">0x0000000000000f60</text>
<text text-anchor="middle" x="415" y="-1265" font-family="Arial" font-size="10.00" fill="#ffffff">100.00%</text>
<text text-anchor="middle" x="415" y="-1254" font-family="Arial" font-size="10.00" fill="#ffffff">(0.00%)</text>
<text text-anchor="middle" x="415" y="-1243" font-family="Arial" font-size="10.00" fill="#ffffff">0×</text>
</g>
<!-- _start -->
<g id="node4" class="node">
<title>_start</title>
<polygon fill="#ff0000" stroke="#ff0000" points="442.5,-1196 387.5,-1196 387.5,-1133 442.5,-1133 442.5,-1196"/>
<text text-anchor="middle" x="415" y="-1184" font-family="Arial" font-size="10.00" fill="#ffffff">csteen</text>
<text text-anchor="middle" x="415" y="-1173" font-family="Arial" font-size="10.00" fill="#ffffff">_start</text>
<text text-anchor="middle" x="415" y="-1162" font-family="Arial" font-size="10.00" fill="#ffffff">100.00%</text>
<text text-anchor="middle" x="415" y="-1151" font-family="Arial" font-size="10.00" fill="#ffffff">(0.00%)</text>
<text text-anchor="middle" x="415" y="-1140" font-family="Arial" font-size="10.00" fill="#ffffff">1×</text>
</g>
<!-- 0x0000000000000f60&#45;&gt;_start -->
<g id="edge2" class="edge">
<title>0x0000000000000f60&#45;&gt;_start</title>
<path fill="none" stroke="#ff0000" stroke-width="4" d="M415,-1235.7562C415,-1226.5536 415,-1216.3591 415,-1206.6267"/>
<polygon fill="#ff0000" stroke="#ff0000" stroke-width="4" points="418.5001,-1206.3163 415,-1196.3163 411.5001,-1206.3164 418.5001,-1206.3163"/>
<text text-anchor="middle" x="434.5" y="-1219" font-family="Arial" font-size="10.00" fill="#ff0000">100.00%</text>
<text text-anchor="middle" x="434.5" y="-1208" font-family="Arial" font-size="10.00" fill="#ff0000">1×</text>
</g>
<!-- _start&#45;&gt;(below main) -->
<g id="edge24" class="edge">
<title>_start&#45;&gt;(below main)</title>
<path fill="none" stroke="#ff0000" stroke-width="4" d="M415,-1132.7562C415,-1123.5536 415,-1113.3591 415,-1103.6267"/>
<polygon fill="#ff0000" stroke="#ff0000" stroke-width="4" points="418.5001,-1103.3163 415,-1093.3163 411.5001,-1103.3164 418.5001,-1103.3163"/>
<text text-anchor="middle" x="434.5" y="-1116" font-family="Arial" font-size="10.00" fill="#ff0000">100.00%</text>
<text text-anchor="middle" x="434.5" y="-1105" font-family="Arial" font-size="10.00" fill="#ff0000">1×</text>
</g>
<!-- FreeModuleHomomorphism_getMatrix -->
<g id="node5" class="node">
<title>FreeModuleHomomorphism_getMatrix</title>
<polygon fill="#0c8891" stroke="#0c8891" points="440,-578 258,-578 258,-515 440,-515 440,-578"/>
<text text-anchor="middle" x="349" y="-566" font-family="Arial" font-size="10.00" fill="#ffffff">csteen</text>
<text text-anchor="middle" x="349" y="-555" font-family="Arial" font-size="10.00" fill="#ffffff">FreeModuleHomomorphism_getMatrix</text>
<text text-anchor="middle" x="349" y="-544" font-family="Arial" font-size="10.00" fill="#ffffff">23.31%</text>
<text text-anchor="middle" x="349" y="-533" font-family="Arial" font-size="10.00" fill="#ffffff">(0.16%)</text>
<text text-anchor="middle" x="349" y="-522" font-family="Arial" font-size="10.00" fill="#ffffff">3240×</text>
</g>
<!-- FreeModule_actOnBasis -->
<g id="node6" class="node">
<title>FreeModule_actOnBasis</title>
<polygon fill="#0c8490" stroke="#0c8490" points="367,-475 243,-475 243,-412 367,-412 367,-475"/>
<text text-anchor="middle" x="305" y="-463" font-family="Arial" font-size="10.00" fill="#ffffff">csteen</text>
<text text-anchor="middle" x="305" y="-452" font-family="Arial" font-size="10.00" fill="#ffffff">FreeModule_actOnBasis</text>
<text text-anchor="middle" x="305" y="-441" font-family="Arial" font-size="10.00" fill="#ffffff">22.63%</text>
<text text-anchor="middle" x="305" y="-430" font-family="Arial" font-size="10.00" fill="#ffffff">(0.20%)</text>
<text text-anchor="middle" x="305" y="-419" font-family="Arial" font-size="10.00" fill="#ffffff">9210171×</text>
</g>
<!-- FreeModuleHomomorphism_getMatrix&#45;&gt;FreeModule_actOnBasis -->
<g id="edge3" class="edge">
<title>FreeModuleHomomorphism_getMatrix&#45;&gt;FreeModule_actOnBasis</title>
<path fill="none" stroke="#0c8490" stroke-width=".91" d="M335.4395,-514.7562C330.7137,-503.6935 325.3756,-491.1974 320.5042,-479.7939"/>
<polygon fill="#0c8490" stroke="#0c8490" stroke-width=".91" points="322.0221,-479.0705 318.5914,-475.3163 318.9322,-480.3904 322.0221,-479.0705"/>
<text text-anchor="middle" x="352.5" y="-498" font-family="Arial" font-size="10.00" fill="#0c8490">22.63%</text>
<text text-anchor="middle" x="352.5" y="-487" font-family="Arial" font-size="10.00" fill="#0c8490">9210171×</text>
</g>
<!-- Vector_stepIterator -->
<g id="node7" class="node">
<title>Vector_stepIterator</title>
<polygon fill="#0b9e72" stroke="#0b9e72" points="500.5,-475 401.5,-475 401.5,-412 500.5,-412 500.5,-475"/>
<text text-anchor="middle" x="451" y="-463" font-family="Arial" font-size="10.00" fill="#ffffff">csteen</text>
<text text-anchor="middle" x="451" y="-452" font-family="Arial" font-size="10.00" fill="#ffffff">Vector_stepIterator</text>
<text text-anchor="middle" x="451" y="-441" font-family="Arial" font-size="10.00" fill="#ffffff">32.51%</text>
<text text-anchor="middle" x="451" y="-430" font-family="Arial" font-size="10.00" fill="#ffffff">(25.46%)</text>
<text text-anchor="middle" x="451" y="-419" font-family="Arial" font-size="10.00" fill="#ffffff">3026218897×</text>
</g>
<!-- FreeModuleHomomorphism_getMatrix&#45;&gt;Vector_stepIterator -->
<g id="edge4" class="edge">
<title>FreeModuleHomomorphism_getMatrix&#45;&gt;Vector_stepIterator</title>
<path fill="none" stroke="#0d0f73" stroke-width=".5" d="M380.4357,-514.7562C391.9726,-503.1061 405.0839,-489.8663 416.8478,-477.987"/>
<polygon fill="#0d0f73" stroke="#0d0f73" stroke-width=".5" points="417.9002,-478.6653 419.4926,-475.3163 416.1593,-476.9413 417.9002,-478.6653"/>
<text text-anchor="middle" x="434.5" y="-498" font-family="Arial" font-size="10.00" fill="#0d0f73">0.51%</text>
<text text-anchor="middle" x="434.5" y="-487" font-family="Arial" font-size="10.00" fill="#0d0f73">47716785×</text>
</g>
<!-- FreeModule_getDimension -->
<g id="node8" class="node">
<title>FreeModule_getDimension</title>
<polygon fill="#0d1e78" stroke="#0d1e78" points="212,-372 80,-372 80,-309 212,-309 212,-372"/>
<text text-anchor="middle" x="146" y="-360" font-family="Arial" font-size="10.00" fill="#ffffff">csteen</text>
<text text-anchor="middle" x="146" y="-349" font-family="Arial" font-size="10.00" fill="#ffffff">FreeModule_getDimension</text>
<text text-anchor="middle" x="146" y="-338" font-family="Arial" font-size="10.00" fill="#ffffff">4.03%</text>
<text text-anchor="middle" x="146" y="-327" font-family="Arial" font-size="10.00" fill="#ffffff">(1.99%)</text>
<text text-anchor="middle" x="146" y="-316" font-family="Arial" font-size="10.00" fill="#ffffff">9226838×</text>
</g>
<!-- FreeModule_actOnBasis&#45;&gt;FreeModule_getDimension -->
<g id="edge5" class="edge">
<title>FreeModule_actOnBasis&#45;&gt;FreeModule_getDimension</title>
<path fill="none" stroke="#0d1e78" stroke-width=".5" d="M255.9974,-411.7562C237.6248,-399.8545 216.691,-386.2935 198.0518,-374.2191"/>
<polygon fill="#0d1e78" stroke="#0d1e78" stroke-width=".5" points="198.4444,-373.0138 194.8408,-372.139 197.1123,-375.0701 198.4444,-373.0138"/>
<text text-anchor="middle" x="261.5" y="-395" font-family="Arial" font-size="10.00" fill="#0d1e78">4.03%</text>
<text text-anchor="middle" x="261.5" y="-384" font-family="Arial" font-size="10.00" fill="#0d1e78">9210171×</text>
</g>
<!-- MilnorAlgebra_multiply -->
<g id="node9" class="node">
<title>MilnorAlgebra_multiply</title>
<polygon fill="#0c678a" stroke="#0c678a" points="362.5,-372 247.5,-372 247.5,-309 362.5,-309 362.5,-372"/>
<text text-anchor="middle" x="305" y="-360" font-family="Arial" font-size="10.00" fill="#ffffff">csteen</text>
<text text-anchor="middle" x="305" y="-349" font-family="Arial" font-size="10.00" fill="#ffffff">MilnorAlgebra_multiply</text>
<text text-anchor="middle" x="305" y="-338" font-family="Arial" font-size="10.00" fill="#ffffff">17.99%</text>
<text text-anchor="middle" x="305" y="-327" font-family="Arial" font-size="10.00" fill="#ffffff">(0.15%)</text>
<text text-anchor="middle" x="305" y="-316" font-family="Arial" font-size="10.00" fill="#ffffff">9210171×</text>
</g>
<!-- FreeModule_actOnBasis&#45;&gt;MilnorAlgebra_multiply -->
<g id="edge6" class="edge">
<title>FreeModule_actOnBasis&#45;&gt;MilnorAlgebra_multiply</title>
<path fill="none" stroke="#0c678a" stroke-width=".72" d="M305,-411.7562C305,-400.6935 305,-388.1974 305,-376.7939"/>
<polygon fill="#0c678a" stroke="#0c678a" stroke-width=".72" points="306.4701,-376.5163 305,-372.3163 303.5301,-376.5164 306.4701,-376.5163"/>
<text text-anchor="middle" x="326.5" y="-395" font-family="Arial" font-size="10.00" fill="#0c678a">17.99%</text>
<text text-anchor="middle" x="326.5" y="-384" font-family="Arial" font-size="10.00" fill="#0c678a">9210171×</text>
</g>
<!-- getBitlength -->
<g id="node23" class="node">
<title>getBitlength</title>
<polygon fill="#0d1d78" stroke="#0d1d78" points="581.5,-269 506.5,-269 506.5,-206 581.5,-206 581.5,-269"/>
<text text-anchor="middle" x="544" y="-257" font-family="Arial" font-size="10.00" fill="#ffffff">csteen</text>
<text text-anchor="middle" x="544" y="-246" font-family="Arial" font-size="10.00" fill="#ffffff">getBitlength</text>
<text text-anchor="middle" x="544" y="-235" font-family="Arial" font-size="10.00" fill="#ffffff">3.74%</text>
<text text-anchor="middle" x="544" y="-224" font-family="Arial" font-size="10.00" fill="#ffffff">(3.74%)</text>
<text text-anchor="middle" x="544" y="-213" font-family="Arial" font-size="10.00" fill="#ffffff">3215659677×</text>
</g>
<!-- Vector_stepIterator&#45;&gt;getBitlength -->
<g id="edge23" class="edge">
<title>Vector_stepIterator&#45;&gt;getBitlength</title>
<path fill="none" stroke="#0d1c77" stroke-width=".5" d="M421.3424,-411.7585C412.3622,-400.1352 403.6516,-386.3046 399,-372 390.3412,-345.3725 384.2137,-332.7774 399,-309 405.037,-299.292 462.1169,-272.9821 502.8266,-255.1332"/>
<polygon fill="#0d1c77" stroke="#0d1c77" stroke-width=".5" points="503.5042,-256.1739 506.2196,-253.6485 502.522,-253.9294 503.5042,-256.1739"/>
<text text-anchor="middle" x="428.5" y="-343.5" font-family="Arial" font-size="10.00" fill="#0d1c77">3.52%</text>
<text text-anchor="middle" x="428.5" y="-332.5" font-family="Arial" font-size="10.00" fill="#0d1c77">3024573665×</text>
</g>
<!-- getBitMask -->
<g id="node26" class="node">
<title>getBitMask</title>
<polygon fill="#0d1c77" stroke="#0d1c77" points="537.5,-372 462.5,-372 462.5,-309 537.5,-309 537.5,-372"/>
<text text-anchor="middle" x="500" y="-360" font-family="Arial" font-size="10.00" fill="#ffffff">csteen</text>
<text text-anchor="middle" x="500" y="-349" font-family="Arial" font-size="10.00" fill="#ffffff">getBitMask</text>
<text text-anchor="middle" x="500" y="-338" font-family="Arial" font-size="10.00" fill="#ffffff">3.52%</text>
<text text-anchor="middle" x="500" y="-327" font-family="Arial" font-size="10.00" fill="#ffffff">(3.52%)</text>
<text text-anchor="middle" x="500" y="-316" font-family="Arial" font-size="10.00" fill="#ffffff">3026879122×</text>
</g>
<!-- Vector_stepIterator&#45;&gt;getBitMask -->
<g id="edge22" class="edge">
<title>Vector_stepIterator&#45;&gt;getBitMask</title>
<path fill="none" stroke="#0d1c77" stroke-width=".5" d="M466.1014,-411.7562C471.5505,-400.3019 477.7307,-387.3109 483.3081,-375.5871"/>
<polygon fill="#0d1c77" stroke="#0d1c77" stroke-width=".5" points="484.4666,-376.0032 484.8641,-372.3163 482.2542,-374.9506 484.4666,-376.0032"/>
<text text-anchor="middle" x="509.5" y="-395" font-family="Arial" font-size="10.00" fill="#0d1c77">3.52%</text>
<text text-anchor="middle" x="509.5" y="-384" font-family="Arial" font-size="10.00" fill="#0d1c77">3024573665×</text>
</g>
<!-- MilnorAlgebra_getDimension -->
<g id="node10" class="node">
<title>MilnorAlgebra_getDimension</title>
<polygon fill="#0d1676" stroke="#0d1676" points="203,-269 63,-269 63,-206 203,-206 203,-269"/>
<text text-anchor="middle" x="133" y="-257" font-family="Arial" font-size="10.00" fill="#ffffff">csteen</text>
<text text-anchor="middle" x="133" y="-246" font-family="Arial" font-size="10.00" fill="#ffffff">MilnorAlgebra_getDimension</text>
<text text-anchor="middle" x="133" y="-235" font-family="Arial" font-size="10.00" fill="#ffffff">2.16%</text>
<text text-anchor="middle" x="133" y="-224" font-family="Arial" font-size="10.00" fill="#ffffff">(2.16%)</text>
<text text-anchor="middle" x="133" y="-213" font-family="Arial" font-size="10.00" fill="#ffffff">696274268×</text>
</g>
<!-- FreeModule_getDimension&#45;&gt;MilnorAlgebra_getDimension -->
<g id="edge7" class="edge">
<title>FreeModule_getDimension&#45;&gt;MilnorAlgebra_getDimension</title>
<path fill="none" stroke="#0d1575" stroke-width=".5" d="M141.9935,-308.7562C140.5602,-297.3998 138.9362,-284.5328 137.4664,-272.888"/>
<polygon fill="#0d1575" stroke="#0d1575" stroke-width=".5" points="138.6694,-272.6354 137.0157,-269.3163 136.2387,-272.9422 138.6694,-272.6354"/>
<text text-anchor="middle" x="168" y="-292" font-family="Arial" font-size="10.00" fill="#0d1575">2.05%</text>
<text text-anchor="middle" x="168" y="-281" font-family="Arial" font-size="10.00" fill="#0d1575">658900420×</text>
</g>
<!-- MilnorAlgebra__multiplyEven -->
<g id="node11" class="node">
<title>MilnorAlgebra__multiplyEven</title>
<polygon fill="#0d4d84" stroke="#0d4d84" points="355.5,-269 212.5,-269 212.5,-206 355.5,-206 355.5,-269"/>
<text text-anchor="middle" x="284" y="-257" font-family="Arial" font-size="10.00" fill="#ffffff">csteen</text>
<text text-anchor="middle" x="284" y="-246" font-family="Arial" font-size="10.00" fill="#ffffff">MilnorAlgebra__multiplyEven</text>
<text text-anchor="middle" x="284" y="-235" font-family="Arial" font-size="10.00" fill="#ffffff">13.43%</text>
<text text-anchor="middle" x="284" y="-224" font-family="Arial" font-size="10.00" fill="#ffffff">(4.96%)</text>
<text text-anchor="middle" x="284" y="-213" font-family="Arial" font-size="10.00" fill="#ffffff">9210171×</text>
</g>
<!-- MilnorAlgebra_multiply&#45;&gt;MilnorAlgebra__multiplyEven -->
<g id="edge12" class="edge">
<title>MilnorAlgebra_multiply&#45;&gt;MilnorAlgebra__multiplyEven</title>
<path fill="none" stroke="#0d4d84" stroke-width=".54" d="M289.5414,-308.601C288.5469,-305.7374 287.6754,-302.8448 287,-300 284.9581,-291.3991 283.9112,-281.9511 283.433,-273.0635"/>
<polygon fill="#0d4d84" stroke="#0d4d84" stroke-width=".54" points="284.7234,-272.9303 283.2617,-269.2929 282.1361,-273.0479 284.7234,-272.9303"/>
<text text-anchor="middle" x="308.5" y="-292" font-family="Arial" font-size="10.00" fill="#0d4d84">13.43%</text>
<text text-anchor="middle" x="308.5" y="-281" font-family="Arial" font-size="10.00" fill="#0d4d84">9210171×</text>
</g>
<!-- Vector_addArray -->
<g id="node16" class="node">
<title>Vector_addArray</title>
<polygon fill="#0d1f78" stroke="#0d1f78" points="460.5,-269 371.5,-269 371.5,-206 460.5,-206 460.5,-269"/>
<text text-anchor="middle" x="416" y="-257" font-family="Arial" font-size="10.00" fill="#ffffff">csteen</text>
<text text-anchor="middle" x="416" y="-246" font-family="Arial" font-size="10.00" fill="#ffffff">Vector_addArray</text>
<text text-anchor="middle" x="416" y="-235" font-family="Arial" font-size="10.00" fill="#ffffff">4.22%</text>
<text text-anchor="middle" x="416" y="-224" font-family="Arial" font-size="10.00" fill="#ffffff">(0.02%)</text>
<text text-anchor="middle" x="416" y="-213" font-family="Arial" font-size="10.00" fill="#ffffff">9210171×</text>
</g>
<!-- MilnorAlgebra_multiply&#45;&gt;Vector_addArray -->
<g id="edge13" class="edge">
<title>MilnorAlgebra_multiply&#45;&gt;Vector_addArray</title>
<path fill="none" stroke="#0d1f78" stroke-width=".5" d="M322.8212,-308.7923C330.4188,-295.9812 338.7291,-283.0364 344,-278 344.0201,-277.9807 354.8963,-271.8612 368.1885,-264.3851"/>
<polygon fill="#0d1f78" stroke="#0d1f78" stroke-width=".5" points="368.792,-265.4512 371.2421,-262.6676 367.591,-263.3157 368.792,-265.4512"/>
<text text-anchor="middle" x="365.5" y="-292" font-family="Arial" font-size="10.00" fill="#0d1f78">4.22%</text>
<text text-anchor="middle" x="365.5" y="-281" font-family="Arial" font-size="10.00" fill="#0d1f78">9210171×</text>
</g>
<!-- MilnorAlgebra_basisElement_toIndex -->
<g id="node12" class="node">
<title>MilnorAlgebra_basisElement_toIndex</title>
<polygon fill="#0d1676" stroke="#0d1676" points="178,-166 0,-166 0,-103 178,-103 178,-166"/>
<text text-anchor="middle" x="89" y="-154" font-family="Arial" font-size="10.00" fill="#ffffff">csteen</text>
<text text-anchor="middle" x="89" y="-143" font-family="Arial" font-size="10.00" fill="#ffffff">MilnorAlgebra_basisElement_toIndex</text>
<text text-anchor="middle" x="89" y="-132" font-family="Arial" font-size="10.00" fill="#ffffff">2.29%</text>
<text text-anchor="middle" x="89" y="-121" font-family="Arial" font-size="10.00" fill="#ffffff">(0.28%)</text>
<text text-anchor="middle" x="89" y="-110" font-family="Arial" font-size="10.00" fill="#ffffff">18284723×</text>
</g>
<!-- MilnorAlgebra__multiplyEven&#45;&gt;MilnorAlgebra_basisElement_toIndex -->
<g id="edge8" class="edge">
<title>MilnorAlgebra__multiplyEven&#45;&gt;MilnorAlgebra_basisElement_toIndex</title>
<path fill="none" stroke="#0d1676" stroke-width=".5" d="M212.313,-208.0563C210.5259,-207.3601 208.7526,-206.6736 207,-206 195.9769,-201.7634 192.536,-202.3338 182,-197 165.7289,-188.7628 148.9029,-178.1767 134.1104,-168.067"/>
<polygon fill="#0d1676" stroke="#0d1676" stroke-width=".5" points="134.758,-167.0256 131.1798,-166.0522 133.37,-169.0445 134.758,-167.0256"/>
<text text-anchor="middle" x="206.5" y="-189" font-family="Arial" font-size="10.00" fill="#0d1676">2.29%</text>
<text text-anchor="middle" x="206.5" y="-178" font-family="Arial" font-size="10.00" fill="#0d1676">18284723×</text>
</g>
<!-- Multinomial -->
<g id="node13" class="node">
<title>Multinomial</title>
<polygon fill="#0d1675" stroke="#0d1675" points="257,-166 187,-166 187,-103 257,-103 257,-166"/>
<text text-anchor="middle" x="222" y="-154" font-family="Arial" font-size="10.00" fill="#ffffff">csteen</text>
<text text-anchor="middle" x="222" y="-143" font-family="Arial" font-size="10.00" fill="#ffffff">Multinomial</text>
<text text-anchor="middle" x="222" y="-132" font-family="Arial" font-size="10.00" fill="#ffffff">2.13%</text>
<text text-anchor="middle" x="222" y="-121" font-family="Arial" font-size="10.00" fill="#ffffff">(0.48%)</text>
<text text-anchor="middle" x="222" y="-110" font-family="Arial" font-size="10.00" fill="#ffffff">230813235×</text>
</g>
<!-- MilnorAlgebra__multiplyEven&#45;&gt;Multinomial -->
<g id="edge9" class="edge">
<title>MilnorAlgebra__multiplyEven&#45;&gt;Multinomial</title>
<path fill="none" stroke="#0d1675" stroke-width=".5" d="M248.1309,-205.5503C245.8967,-202.7859 243.8196,-199.9241 242,-197 236.8,-188.6436 232.832,-178.8096 229.8566,-169.4468"/>
<polygon fill="#0d1675" stroke="#0d1675" stroke-width=".5" points="231.0035,-169.0084 228.8049,-166.0223 228.6615,-169.7278 231.0035,-169.0084"/>
<text text-anchor="middle" x="269" y="-189" font-family="Arial" font-size="10.00" fill="#0d1675">2.13%</text>
<text text-anchor="middle" x="269" y="-178" font-family="Arial" font-size="10.00" fill="#0d1675">230813235×</text>
</g>
<!-- milnor_matrix_step -->
<g id="node14" class="node">
<title>milnor_matrix_step</title>
<polygon fill="#0d1a77" stroke="#0d1a77" points="365.5,-166 266.5,-166 266.5,-103 365.5,-103 365.5,-166"/>
<text text-anchor="middle" x="316" y="-154" font-family="Arial" font-size="10.00" fill="#ffffff">csteen</text>
<text text-anchor="middle" x="316" y="-143" font-family="Arial" font-size="10.00" fill="#ffffff">milnor_matrix_step</text>
<text text-anchor="middle" x="316" y="-132" font-family="Arial" font-size="10.00" fill="#ffffff">3.04%</text>
<text text-anchor="middle" x="316" y="-121" font-family="Arial" font-size="10.00" fill="#ffffff">(1.80%)</text>
<text text-anchor="middle" x="316" y="-110" font-family="Arial" font-size="10.00" fill="#ffffff">125753898×</text>
</g>
<!-- MilnorAlgebra__multiplyEven&#45;&gt;milnor_matrix_step -->
<g id="edge10" class="edge">
<title>MilnorAlgebra__multiplyEven&#45;&gt;milnor_matrix_step</title>
<path fill="none" stroke="#0d1a77" stroke-width=".5" d="M293.8622,-205.7562C297.3903,-194.3998 301.3879,-181.5328 305.0057,-169.888"/>
<polygon fill="#0d1a77" stroke="#0d1a77" stroke-width=".5" points="306.2467,-170.0222 306.1153,-166.3163 303.907,-169.2953 306.2467,-170.0222"/>
<text text-anchor="middle" x="330" y="-189" font-family="Arial" font-size="10.00" fill="#0d1a77">3.04%</text>
<text text-anchor="middle" x="330" y="-178" font-family="Arial" font-size="10.00" fill="#0d1a77">125753898×</text>
</g>
<!-- kh_get_monomial_index_map -->
<g id="node15" class="node">
<title>kh_get_monomial_index_map</title>
<polygon fill="#0d1174" stroke="#0d1174" points="162,-63 16,-63 16,0 162,0 162,-63"/>
<text text-anchor="middle" x="89" y="-51" font-family="Arial" font-size="10.00" fill="#ffffff">csteen</text>
<text text-anchor="middle" x="89" y="-40" font-family="Arial" font-size="10.00" fill="#ffffff">kh_get_monomial_index_map</text>
<text text-anchor="middle" x="89" y="-29" font-family="Arial" font-size="10.00" fill="#ffffff">1.14%</text>
<text text-anchor="middle" x="89" y="-18" font-family="Arial" font-size="10.00" fill="#ffffff">(0.32%)</text>
<text text-anchor="middle" x="89" y="-7" font-family="Arial" font-size="10.00" fill="#ffffff">18284723×</text>
</g>
<!-- MilnorAlgebra_basisElement_toIndex&#45;&gt;kh_get_monomial_index_map -->
<g id="edge11" class="edge">
<title>MilnorAlgebra_basisElement_toIndex&#45;&gt;kh_get_monomial_index_map</title>
<path fill="none" stroke="#0d1174" stroke-width=".5" d="M89,-102.7562C89,-91.3998 89,-78.5328 89,-66.888"/>
<polygon fill="#0d1174" stroke="#0d1174" stroke-width=".5" points="90.2251,-66.8163 89,-63.3163 87.7751,-66.8164 90.2251,-66.8163"/>
<text text-anchor="middle" x="113.5" y="-86" font-family="Arial" font-size="10.00" fill="#0d1174">1.14%</text>
<text text-anchor="middle" x="113.5" y="-75" font-family="Arial" font-size="10.00" fill="#0d1174">18284723×</text>
</g>
<!-- Multinomial2 -->
<g id="node17" class="node">
<title>Multinomial2</title>
<polygon fill="#0d1475" stroke="#0d1475" points="249.5,-63 178.5,-63 178.5,0 249.5,0 249.5,-63"/>
<text text-anchor="middle" x="214" y="-51" font-family="Arial" font-size="10.00" fill="#ffffff">csteen</text>
<text text-anchor="middle" x="214" y="-40" font-family="Arial" font-size="10.00" fill="#ffffff">Multinomial2</text>
<text text-anchor="middle" x="214" y="-29" font-family="Arial" font-size="10.00" fill="#ffffff">1.65%</text>
<text text-anchor="middle" x="214" y="-18" font-family="Arial" font-size="10.00" fill="#ffffff">(1.65%)</text>
<text text-anchor="middle" x="214" y="-7" font-family="Arial" font-size="10.00" fill="#ffffff">230813235×</text>
</g>
<!-- Multinomial&#45;&gt;Multinomial2 -->
<g id="edge14" class="edge">
<title>Multinomial&#45;&gt;Multinomial2</title>
<path fill="none" stroke="#0d1475" stroke-width=".5" d="M219.5345,-102.7562C218.6524,-91.3998 217.653,-78.5328 216.7486,-66.888"/>
<polygon fill="#0d1475" stroke="#0d1475" stroke-width=".5" points="217.9636,-66.7109 216.4712,-63.3163 215.521,-66.9007 217.9636,-66.7109"/>
<text text-anchor="middle" x="246" y="-86" font-family="Arial" font-size="10.00" fill="#0d1475">1.65%</text>
<text text-anchor="middle" x="246" y="-75" font-family="Arial" font-size="10.00" fill="#0d1475">230813235×</text>
</g>
<!-- milnor_matrix_step_update_matrix -->
<g id="node27" class="node">
<title>milnor_matrix_step_update_matrix</title>
<polygon fill="#0d1274" stroke="#0d1274" points="425,-63 259,-63 259,0 425,0 425,-63"/>
<text text-anchor="middle" x="342" y="-51" font-family="Arial" font-size="10.00" fill="#ffffff">csteen</text>
<text text-anchor="middle" x="342" y="-40" font-family="Arial" font-size="10.00" fill="#ffffff">milnor_matrix_step_update_matrix</text>
<text text-anchor="middle" x="342" y="-29" font-family="Arial" font-size="10.00" fill="#ffffff">1.24%</text>
<text text-anchor="middle" x="342" y="-18" font-family="Arial" font-size="10.00" fill="#ffffff">(1.24%)</text>
<text text-anchor="middle" x="342" y="-7" font-family="Arial" font-size="10.00" fill="#ffffff">116543727×</text>
</g>
<!-- milnor_matrix_step&#45;&gt;milnor_matrix_step_update_matrix -->
<g id="edge26" class="edge">
<title>milnor_matrix_step&#45;&gt;milnor_matrix_step_update_matrix</title>
<path fill="none" stroke="#0d1274" stroke-width=".5" d="M324.013,-102.7562C326.8797,-91.3998 330.1276,-78.5328 333.0671,-66.888"/>
<polygon fill="#0d1274" stroke="#0d1274" stroke-width=".5" points="334.2997,-67.0097 333.9687,-63.3163 331.9243,-66.41 334.2997,-67.0097"/>
<text text-anchor="middle" x="359" y="-86" font-family="Arial" font-size="10.00" fill="#0d1274">1.24%</text>
<text text-anchor="middle" x="359" y="-75" font-family="Arial" font-size="10.00" fill="#0d1274">116543727×</text>
</g>
<!-- Vector2_addArray -->
<g id="node24" class="node">
<title>Vector2_addArray</title>
<polygon fill="#0d1f78" stroke="#0d1f78" points="469,-166 375,-166 375,-103 469,-103 469,-166"/>
<text text-anchor="middle" x="422" y="-154" font-family="Arial" font-size="10.00" fill="#ffffff">csteen</text>
<text text-anchor="middle" x="422" y="-143" font-family="Arial" font-size="10.00" fill="#ffffff">Vector2_addArray</text>
<text text-anchor="middle" x="422" y="-132" font-family="Arial" font-size="10.00" fill="#ffffff">4.19%</text>
<text text-anchor="middle" x="422" y="-121" font-family="Arial" font-size="10.00" fill="#ffffff">(4.19%)</text>
<text text-anchor="middle" x="422" y="-110" font-family="Arial" font-size="10.00" fill="#ffffff">9210171×</text>
</g>
<!-- Vector_addArray&#45;&gt;Vector2_addArray -->
<g id="edge21" class="edge">
<title>Vector_addArray&#45;&gt;Vector2_addArray</title>
<path fill="none" stroke="#0d1f78" stroke-width=".5" d="M417.8492,-205.7562C418.5107,-194.3998 419.2602,-181.5328 419.9386,-169.888"/>
<polygon fill="#0d1f78" stroke="#0d1f78" stroke-width=".5" points="421.1659,-169.8817 420.1466,-166.3163 418.7201,-169.7391 421.1659,-169.8817"/>
<text text-anchor="middle" x="441.5" y="-189" font-family="Arial" font-size="10.00" fill="#0d1f78">4.19%</text>
<text text-anchor="middle" x="441.5" y="-178" font-family="Arial" font-size="10.00" fill="#0d1f78">9210171×</text>
</g>
<!-- Resolution_generateOldKernelAndComputeNewKernel -->
<g id="node18" class="node">
<title>Resolution_generateOldKernelAndComputeNewKernel</title>
<polygon fill="#ff0000" stroke="#ff0000" points="540.5,-681 289.5,-681 289.5,-618 540.5,-618 540.5,-681"/>
<text text-anchor="middle" x="415" y="-669" font-family="Arial" font-size="10.00" fill="#ffffff">csteen</text>
<text text-anchor="middle" x="415" y="-658" font-family="Arial" font-size="10.00" fill="#ffffff">Resolution_generateOldKernelAndComputeNewKernel</text>
<text text-anchor="middle" x="415" y="-647" font-family="Arial" font-size="10.00" fill="#ffffff">100.00%</text>
<text text-anchor="middle" x="415" y="-636" font-family="Arial" font-size="10.00" fill="#ffffff">(0.01%)</text>
<text text-anchor="middle" x="415" y="-625" font-family="Arial" font-size="10.00" fill="#ffffff">3240×</text>
</g>
<!-- Resolution_generateOldKernelAndComputeNewKernel&#45;&gt;FreeModuleHomomorphism_getMatrix -->
<g id="edge15" class="edge">
<title>Resolution_generateOldKernelAndComputeNewKernel&#45;&gt;FreeModuleHomomorphism_getMatrix</title>
<path fill="none" stroke="#0c8891" stroke-width=".93" d="M394.6593,-617.7562C387.5079,-606.5956 379.4216,-593.9761 372.0624,-582.4914"/>
<polygon fill="#0c8891" stroke="#0c8891" stroke-width=".93" points="373.3914,-581.4514 369.3872,-578.3163 370.5624,-583.2642 373.3914,-581.4514"/>
<text text-anchor="middle" x="405" y="-601" font-family="Arial" font-size="10.00" fill="#0c8891">23.31%</text>
<text text-anchor="middle" x="405" y="-590" font-family="Arial" font-size="10.00" fill="#0c8891">3240×</text>
</g>
<!-- rowReduce -->
<g id="node19" class="node">
<title>rowReduce</title>
<polygon fill="#dcce05" stroke="#dcce05" points="514.5,-578 449.5,-578 449.5,-515 514.5,-515 514.5,-578"/>
<text text-anchor="middle" x="482" y="-566" font-family="Arial" font-size="10.00" fill="#ffffff">csteen</text>
<text text-anchor="middle" x="482" y="-555" font-family="Arial" font-size="10.00" fill="#ffffff">rowReduce</text>
<text text-anchor="middle" x="482" y="-544" font-family="Arial" font-size="10.00" fill="#ffffff">76.56%</text>
<text text-anchor="middle" x="482" y="-533" font-family="Arial" font-size="10.00" fill="#ffffff">(15.52%)</text>
<text text-anchor="middle" x="482" y="-522" font-family="Arial" font-size="10.00" fill="#ffffff">6480×</text>
</g>
<!-- Resolution_generateOldKernelAndComputeNewKernel&#45;&gt;rowReduce -->
<g id="edge16" class="edge">
<title>Resolution_generateOldKernelAndComputeNewKernel&#45;&gt;rowReduce</title>
<path fill="none" stroke="#dcce05" stroke-width="3.06" d="M435.6489,-617.7562C442.2082,-607.6725 449.5422,-596.3978 456.4065,-585.8453"/>
<polygon fill="#dcce05" stroke="#dcce05" stroke-width="3.06" points="459.1125,-587.2696 461.3039,-578.3163 454.0075,-583.9488 459.1125,-587.2696"/>
<text text-anchor="middle" x="472" y="-601" font-family="Arial" font-size="10.00" fill="#dcce05">76.56%</text>
<text text-anchor="middle" x="472" y="-590" font-family="Arial" font-size="10.00" fill="#dcce05">6480×</text>
</g>
<!-- rowReduce&#45;&gt;Vector_stepIterator -->
<g id="edge28" class="edge">
<title>rowReduce&#45;&gt;Vector_stepIterator</title>
<path fill="none" stroke="#0b9d74" stroke-width="1.28" d="M472.446,-514.7562C469.2344,-504.0851 465.6212,-492.0802 462.2891,-481.0089"/>
<polygon fill="#0b9d74" stroke="#0b9d74" stroke-width="1.28" points="464.129,-480.1995 460.5758,-475.3163 460.3082,-481.3495 464.129,-480.1995"/>
<text text-anchor="middle" x="499.5" y="-498" font-family="Arial" font-size="10.00" fill="#0b9d74">32.00%</text>
<text text-anchor="middle" x="499.5" y="-487" font-family="Arial" font-size="10.00" fill="#0b9d74">2978502112×</text>
</g>
<!-- Vector_add -->
<g id="node25" class="node">
<title>Vector_add</title>
<polygon fill="#0c9982" stroke="#0c9982" points="608,-475 538,-475 538,-412 608,-412 608,-475"/>
<text text-anchor="middle" x="573" y="-463" font-family="Arial" font-size="10.00" fill="#ffffff">csteen</text>
<text text-anchor="middle" x="573" y="-452" font-family="Arial" font-size="10.00" fill="#ffffff">Vector_add</text>
<text text-anchor="middle" x="573" y="-441" font-family="Arial" font-size="10.00" fill="#ffffff">29.03%</text>
<text text-anchor="middle" x="573" y="-430" font-family="Arial" font-size="10.00" fill="#ffffff">(0.35%)</text>
<text text-anchor="middle" x="573" y="-419" font-family="Arial" font-size="10.00" fill="#ffffff">157418918×</text>
</g>
<!-- rowReduce&#45;&gt;Vector_add -->
<g id="edge27" class="edge">
<title>rowReduce&#45;&gt;Vector_add</title>
<path fill="none" stroke="#0c9982" stroke-width="1.16" d="M514.5716,-521.8328C520.3147,-516.8673 526.0365,-511.4811 531,-506 538.182,-498.0691 545.0646,-488.8212 551.1051,-479.909"/>
<polygon fill="#0c9982" stroke="#0c9982" stroke-width="1.16" points="552.952,-480.5452 554.3709,-475.0027 549.8054,-478.4507 552.952,-480.5452"/>
<text text-anchor="middle" x="574" y="-498" font-family="Arial" font-size="10.00" fill="#0c9982">29.03%</text>
<text text-anchor="middle" x="574" y="-487" font-family="Arial" font-size="10.00" fill="#0c9982">157418918×</text>
</g>
<!-- Resolution_step -->
<g id="node21" class="node">
<title>Resolution_step</title>
<polygon fill="#ff0000" stroke="#ff0000" points="458,-784 372,-784 372,-721 458,-721 458,-784"/>
<text text-anchor="middle" x="415" y="-772" font-family="Arial" font-size="10.00" fill="#ffffff">csteen</text>
<text text-anchor="middle" x="415" y="-761" font-family="Arial" font-size="10.00" fill="#ffffff">Resolution_step</text>
<text text-anchor="middle" x="415" y="-750" font-family="Arial" font-size="10.00" fill="#ffffff">100.00%</text>
<text text-anchor="middle" x="415" y="-739" font-family="Arial" font-size="10.00" fill="#ffffff">(0.00%)</text>
<text text-anchor="middle" x="415" y="-728" font-family="Arial" font-size="10.00" fill="#ffffff">3240×</text>
</g>
<!-- Resolution_resolveThroughDegree&#45;&gt;Resolution_step -->
<g id="edge17" class="edge">
<title>Resolution_resolveThroughDegree&#45;&gt;Resolution_step</title>
<path fill="none" stroke="#ff0000" stroke-width="4" d="M415,-823.7562C415,-814.5536 415,-804.3591 415,-794.6267"/>
<polygon fill="#ff0000" stroke="#ff0000" stroke-width="4" points="418.5001,-794.3163 415,-784.3163 411.5001,-794.3164 418.5001,-794.3163"/>
<text text-anchor="middle" x="434.5" y="-807" font-family="Arial" font-size="10.00" fill="#ff0000">100.00%</text>
<text text-anchor="middle" x="434.5" y="-796" font-family="Arial" font-size="10.00" fill="#ff0000">3240×</text>
</g>
<!-- Resolution_step&#45;&gt;Resolution_generateOldKernelAndComputeNewKernel -->
<g id="edge18" class="edge">
<title>Resolution_step&#45;&gt;Resolution_generateOldKernelAndComputeNewKernel</title>
<path fill="none" stroke="#ff0000" stroke-width="4" d="M415,-720.7562C415,-711.5536 415,-701.3591 415,-691.6267"/>
<polygon fill="#ff0000" stroke="#ff0000" stroke-width="4" points="418.5001,-691.3163 415,-681.3163 411.5001,-691.3164 418.5001,-691.3163"/>
<text text-anchor="middle" x="434.5" y="-704" font-family="Arial" font-size="10.00" fill="#ff0000">100.00%</text>
<text text-anchor="middle" x="434.5" y="-693" font-family="Arial" font-size="10.00" fill="#ff0000">3240×</text>
</g>
<!-- Vector2_add -->
<g id="node22" class="node">
<title>Vector2_add</title>
<polygon fill="#0c9884" stroke="#0c9884" points="617.5,-372 546.5,-372 546.5,-309 617.5,-309 617.5,-372"/>
<text text-anchor="middle" x="582" y="-360" font-family="Arial" font-size="10.00" fill="#ffffff">csteen</text>
<text text-anchor="middle" x="582" y="-349" font-family="Arial" font-size="10.00" fill="#ffffff">Vector2_add</text>
<text text-anchor="middle" x="582" y="-338" font-family="Arial" font-size="10.00" fill="#ffffff">28.68%</text>
<text text-anchor="middle" x="582" y="-327" font-family="Arial" font-size="10.00" fill="#ffffff">(28.50%)</text>
<text text-anchor="middle" x="582" y="-316" font-family="Arial" font-size="10.00" fill="#ffffff">157418918×</text>
</g>
<!-- Vector2_add&#45;&gt;getBitlength -->
<g id="edge19" class="edge">
<title>Vector2_add&#45;&gt;getBitlength</title>
<path fill="none" stroke="#0d0d73" stroke-width=".5" d="M570.2887,-308.7562C566.099,-297.3998 561.3519,-284.5328 557.0558,-272.888"/>
<polygon fill="#0d0d73" stroke="#0d0d73" stroke-width=".5" points="558.0989,-272.176 555.7381,-269.3163 555.8003,-273.024 558.0989,-272.176"/>
<text text-anchor="middle" x="593" y="-292" font-family="Arial" font-size="10.00" fill="#0d0d73">0.18%</text>
<text text-anchor="middle" x="593" y="-281" font-family="Arial" font-size="10.00" fill="#0d0d73">157418918×</text>
</g>
<!-- Vector_add&#45;&gt;Vector2_add -->
<g id="edge20" class="edge">
<title>Vector_add&#45;&gt;Vector2_add</title>
<path fill="none" stroke="#0c9884" stroke-width="1.15" d="M575.7737,-411.7562C576.7147,-400.9872 577.7744,-388.8599 578.7491,-377.7044"/>
<polygon fill="#0c9884" stroke="#0c9884" stroke-width="1.15" points="580.6326,-377.8604 579.2199,-372.3163 576.867,-377.5313 580.6326,-377.8604"/>
<text text-anchor="middle" x="605" y="-395" font-family="Arial" font-size="10.00" fill="#0c9884">28.68%</text>
<text text-anchor="middle" x="605" y="-384" font-family="Arial" font-size="10.00" fill="#0c9884">157418918×</text>
</g>
</g>
</svg>
