<?xml version="1.0" encoding="UTF-8" standalone="no"?>
<!DOCTYPE svg PUBLIC "-//W3C//DTD SVG 1.1//EN"
 "http://www.w3.org/Graphics/SVG/1.1/DTD/svg11.dtd">
<!-- Generated by graphviz version 2.40.1 (20161225.0304)
 -->
<!-- Title: %3 Pages: 1 -->
<svg width="493pt" height="1307pt"
 viewBox="0.00 0.00 492.68 1307.00" xmlns="http://www.w3.org/2000/svg" xmlns:xlink="http://www.w3.org/1999/xlink">
<g id="graph0" class="graph" transform="scale(1 1) rotate(0) translate(4 1303)">
<title>%3</title>
<polygon fill="#ffffff" stroke="transparent" points="-4,4 -4,-1303 488.676,-1303 488.676,4 -4,4"/>
<!-- (below main) -->
<g id="node1" class="node">
<title>(below main)</title>
<polygon fill="#ff0000" stroke="#ff0000" points="295.676,-1093 224.676,-1093 224.676,-1030 295.676,-1030 295.676,-1093"/>
<text text-anchor="middle" x="260.176" y="-1081" font-family="Arial" font-size="10.00" fill="#ffffff">libc&#45;2.27.so</text>
<text text-anchor="middle" x="260.176" y="-1070" font-family="Arial" font-size="10.00" fill="#ffffff">(below main)</text>
<text text-anchor="middle" x="260.176" y="-1059" font-family="Arial" font-size="10.00" fill="#ffffff">100.00%</text>
<text text-anchor="middle" x="260.176" y="-1048" font-family="Arial" font-size="10.00" fill="#ffffff">(0.00%)</text>
<text text-anchor="middle" x="260.176" y="-1037" font-family="Arial" font-size="10.00" fill="#ffffff">1×</text>
</g>
<!-- main -->
<g id="node2" class="node">
<title>main</title>
<polygon fill="#ff0000" stroke="#ff0000" points="287.676,-990 232.676,-990 232.676,-927 287.676,-927 287.676,-990"/>
<text text-anchor="middle" x="260.176" y="-978" font-family="Arial" font-size="10.00" fill="#ffffff">csteen</text>
<text text-anchor="middle" x="260.176" y="-967" font-family="Arial" font-size="10.00" fill="#ffffff">main</text>
<text text-anchor="middle" x="260.176" y="-956" font-family="Arial" font-size="10.00" fill="#ffffff">100.00%</text>
<text text-anchor="middle" x="260.176" y="-945" font-family="Arial" font-size="10.00" fill="#ffffff">(0.00%)</text>
<text text-anchor="middle" x="260.176" y="-934" font-family="Arial" font-size="10.00" fill="#ffffff">1×</text>
</g>
<!-- (below main)&#45;&gt;main -->
<g id="edge1" class="edge">
<title>(below main)&#45;&gt;main</title>
<path fill="none" stroke="#ff0000" stroke-width="4" d="M260.176,-1029.7562C260.176,-1020.5536 260.176,-1010.3591 260.176,-1000.6267"/>
<polygon fill="#ff0000" stroke="#ff0000" stroke-width="4" points="263.6761,-1000.3163 260.176,-990.3163 256.6761,-1000.3164 263.6761,-1000.3163"/>
<text text-anchor="middle" x="279.676" y="-1013" font-family="Arial" font-size="10.00" fill="#ff0000">100.00%</text>
<text text-anchor="middle" x="279.676" y="-1002" font-family="Arial" font-size="10.00" fill="#ff0000">1×</text>
</g>
<!-- Resolution_step -->
<g id="node16" class="node">
<title>Resolution_step</title>
<polygon fill="#ff0000" stroke="#ff0000" points="303.176,-887 217.176,-887 217.176,-824 303.176,-824 303.176,-887"/>
<text text-anchor="middle" x="260.176" y="-875" font-family="Arial" font-size="10.00" fill="#ffffff">csteen</text>
<text text-anchor="middle" x="260.176" y="-864" font-family="Arial" font-size="10.00" fill="#ffffff">Resolution_step</text>
<text text-anchor="middle" x="260.176" y="-853" font-family="Arial" font-size="10.00" fill="#ffffff">99.99%</text>
<text text-anchor="middle" x="260.176" y="-842" font-family="Arial" font-size="10.00" fill="#ffffff">(0.00%)</text>
<text text-anchor="middle" x="260.176" y="-831" font-family="Arial" font-size="10.00" fill="#ffffff">11325×</text>
</g>
<!-- main&#45;&gt;Resolution_step -->
<g id="edge18" class="edge">
<title>main&#45;&gt;Resolution_step</title>
<path fill="none" stroke="#ff0000" stroke-width="4" d="M260.176,-926.7562C260.176,-917.5536 260.176,-907.3591 260.176,-897.6267"/>
<polygon fill="#ff0000" stroke="#ff0000" stroke-width="4" points="263.6761,-897.3163 260.176,-887.3163 256.6761,-897.3164 263.6761,-897.3163"/>
<text text-anchor="middle" x="277.176" y="-910" font-family="Arial" font-size="10.00" fill="#ff0000">99.99%</text>
<text text-anchor="middle" x="277.176" y="-899" font-family="Arial" font-size="10.00" fill="#ff0000">11325×</text>
</g>
<!-- 0x0000000000000f60 -->
<g id="node3" class="node">
<title>0x0000000000000f60</title>
<polygon fill="#ff0000" stroke="#ff0000" points="314.676,-1299 205.676,-1299 205.676,-1236 314.676,-1236 314.676,-1299"/>
<text text-anchor="middle" x="260.176" y="-1287" font-family="Arial" font-size="10.00" fill="#ffffff">ld&#45;2.27.so</text>
<text text-anchor="middle" x="260.176" y="-1276" font-family="Arial" font-size="10.00" fill="#ffffff">0x0000000000000f60</text>
<text text-anchor="middle" x="260.176" y="-1265" font-family="Arial" font-size="10.00" fill="#ffffff">100.00%</text>
<text text-anchor="middle" x="260.176" y="-1254" font-family="Arial" font-size="10.00" fill="#ffffff">(0.00%)</text>
<text text-anchor="middle" x="260.176" y="-1243" font-family="Arial" font-size="10.00" fill="#ffffff">0×</text>
</g>
<!-- _start -->
<g id="node4" class="node">
<title>_start</title>
<polygon fill="#ff0000" stroke="#ff0000" points="287.676,-1196 232.676,-1196 232.676,-1133 287.676,-1133 287.676,-1196"/>
<text text-anchor="middle" x="260.176" y="-1184" font-family="Arial" font-size="10.00" fill="#ffffff">csteen</text>
<text text-anchor="middle" x="260.176" y="-1173" font-family="Arial" font-size="10.00" fill="#ffffff">_start</text>
<text text-anchor="middle" x="260.176" y="-1162" font-family="Arial" font-size="10.00" fill="#ffffff">100.00%</text>
<text text-anchor="middle" x="260.176" y="-1151" font-family="Arial" font-size="10.00" fill="#ffffff">(0.00%)</text>
<text text-anchor="middle" x="260.176" y="-1140" font-family="Arial" font-size="10.00" fill="#ffffff">1×</text>
</g>
<!-- 0x0000000000000f60&#45;&gt;_start -->
<g id="edge2" class="edge">
<title>0x0000000000000f60&#45;&gt;_start</title>
<path fill="none" stroke="#ff0000" stroke-width="4" d="M260.176,-1235.7562C260.176,-1226.5536 260.176,-1216.3591 260.176,-1206.6267"/>
<polygon fill="#ff0000" stroke="#ff0000" stroke-width="4" points="263.6761,-1206.3163 260.176,-1196.3163 256.6761,-1206.3164 263.6761,-1206.3163"/>
<text text-anchor="middle" x="279.676" y="-1219" font-family="Arial" font-size="10.00" fill="#ff0000">100.00%</text>
<text text-anchor="middle" x="279.676" y="-1208" font-family="Arial" font-size="10.00" fill="#ff0000">1×</text>
</g>
<!-- _start&#45;&gt;(below main) -->
<g id="edge17" class="edge">
<title>_start&#45;&gt;(below main)</title>
<path fill="none" stroke="#ff0000" stroke-width="4" d="M260.176,-1132.7562C260.176,-1123.5536 260.176,-1113.3591 260.176,-1103.6267"/>
<polygon fill="#ff0000" stroke="#ff0000" stroke-width="4" points="263.6761,-1103.3163 260.176,-1093.3163 256.6761,-1103.3164 263.6761,-1103.3163"/>
<text text-anchor="middle" x="279.676" y="-1116" font-family="Arial" font-size="10.00" fill="#ff0000">100.00%</text>
<text text-anchor="middle" x="279.676" y="-1105" font-family="Arial" font-size="10.00" fill="#ff0000">1×</text>
</g>
<!-- AdemAlgebra__makeMonoAdmissibleGeneric -->
<g id="node5" class="node">
<title>AdemAlgebra__makeMonoAdmissibleGeneric</title>
<polygon fill="#0d1876" stroke="#0d1876" points="276.676,-372 61.676,-372 61.676,-309 276.676,-309 276.676,-372"/>
<text text-anchor="middle" x="169.176" y="-360" font-family="Arial" font-size="10.00" fill="#ffffff">csteen</text>
<text text-anchor="middle" x="169.176" y="-349" font-family="Arial" font-size="10.00" fill="#ffffff">AdemAlgebra__makeMonoAdmissibleGeneric</text>
<text text-anchor="middle" x="169.176" y="-338" font-family="Arial" font-size="10.00" fill="#ffffff">2.70%</text>
<text text-anchor="middle" x="169.176" y="-327" font-family="Arial" font-size="10.00" fill="#ffffff">(0.20%)</text>
<text text-anchor="middle" x="169.176" y="-316" font-family="Arial" font-size="10.00" fill="#ffffff">1134969×</text>
</g>
<!-- AdemAlgebra__makeMonoAdmissibleGeneric&#39;2 -->
<g id="node6" class="node">
<title>AdemAlgebra__makeMonoAdmissibleGeneric&#39;2</title>
<polygon fill="#0d1675" stroke="#0d1675" points="280.176,-269 58.176,-269 58.176,-206 280.176,-206 280.176,-269"/>
<text text-anchor="middle" x="169.176" y="-257" font-family="Arial" font-size="10.00" fill="#ffffff">csteen</text>
<text text-anchor="middle" x="169.176" y="-246" font-family="Arial" font-size="10.00" fill="#ffffff">AdemAlgebra__makeMonoAdmissibleGeneric&#39;2</text>
<text text-anchor="middle" x="169.176" y="-235" font-family="Arial" font-size="10.00" fill="#ffffff">2.11%</text>
<text text-anchor="middle" x="169.176" y="-224" font-family="Arial" font-size="10.00" fill="#ffffff">(0.45%)</text>
<text text-anchor="middle" x="169.176" y="-213" font-family="Arial" font-size="10.00" fill="#ffffff">3865170×</text>
</g>
<!-- AdemAlgebra__makeMonoAdmissibleGeneric&#45;&gt;AdemAlgebra__makeMonoAdmissibleGeneric&#39;2 -->
<g id="edge3" class="edge">
<title>AdemAlgebra__makeMonoAdmissibleGeneric&#45;&gt;AdemAlgebra__makeMonoAdmissibleGeneric&#39;2</title>
<path fill="none" stroke="#0d1675" stroke-width=".5" d="M169.176,-308.7562C169.176,-297.3998 169.176,-284.5328 169.176,-272.888"/>
<polygon fill="#0d1675" stroke="#0d1675" stroke-width=".5" points="170.4011,-272.8163 169.176,-269.3163 167.9511,-272.8164 170.4011,-272.8163"/>
<text text-anchor="middle" x="190.676" y="-292" font-family="Arial" font-size="10.00" fill="#0d1675">2.11%</text>
<text text-anchor="middle" x="190.676" y="-281" font-family="Arial" font-size="10.00" fill="#0d1675">1118424×</text>
</g>
<!-- BinomialOdd -->
<g id="node7" class="node">
<title>BinomialOdd</title>
<polygon fill="#0d1274" stroke="#0d1274" points="124.176,-166 52.176,-166 52.176,-103 124.176,-103 124.176,-166"/>
<text text-anchor="middle" x="88.176" y="-154" font-family="Arial" font-size="10.00" fill="#ffffff">csteen</text>
<text text-anchor="middle" x="88.176" y="-143" font-family="Arial" font-size="10.00" fill="#ffffff">BinomialOdd</text>
<text text-anchor="middle" x="88.176" y="-132" font-family="Arial" font-size="10.00" fill="#ffffff">1.15%</text>
<text text-anchor="middle" x="88.176" y="-121" font-family="Arial" font-size="10.00" fill="#ffffff">(0.06%)</text>
<text text-anchor="middle" x="88.176" y="-110" font-family="Arial" font-size="10.00" fill="#ffffff">8083834×</text>
</g>
<!-- AdemAlgebra__makeMonoAdmissibleGeneric&#45;&gt;BinomialOdd -->
<g id="edge4" class="edge">
<title>AdemAlgebra__makeMonoAdmissibleGeneric&#45;&gt;BinomialOdd</title>
<path fill="none" stroke="#0d0e73" stroke-width=".5" d="M61.609,-312.4C41.2557,-302.0901 22.504,-288.0608 10.176,-269 -5.0302,-245.489 -1.0985,-231.6297 10.176,-206 18.2896,-187.5559 33.77,-171.7909 48.8147,-159.7953"/>
<polygon fill="#0d0e73" stroke="#0d0e73" stroke-width=".5" points="49.8143,-160.5686 51.8155,-157.4467 48.3042,-158.6392 49.8143,-160.5686"/>
<text text-anchor="middle" x="31.676" y="-240.5" font-family="Arial" font-size="10.00" fill="#0d0e73">0.34%</text>
<text text-anchor="middle" x="31.676" y="-229.5" font-family="Arial" font-size="10.00" fill="#0d0e73">1978341×</text>
</g>
<!-- AdemAlgebra__makeMonoAdmissibleGeneric&#39;2&#45;&gt;AdemAlgebra__makeMonoAdmissibleGeneric&#39;2 -->
<g id="edge5" class="edge">
<title>AdemAlgebra__makeMonoAdmissibleGeneric&#39;2&#45;&gt;AdemAlgebra__makeMonoAdmissibleGeneric&#39;2</title>
<path fill="none" stroke="#0d1675" stroke-width=".5" d="M280.2794,-243.5699C285.8753,-242.0624 289.176,-240.0391 289.176,-237.5 289.176,-235.5957 287.3194,-233.9815 284.0303,-232.6574"/>
<polygon fill="#0d1675" stroke="#0d1675" stroke-width=".5" points="283.9868,-231.3544 280.2794,-231.4301 283.2249,-233.6829 283.9868,-231.3544"/>
<text text-anchor="middle" x="310.676" y="-235" font-family="Arial" font-size="10.00" fill="#0d1675">2746746×</text>
</g>
<!-- AdemAlgebra__makeMonoAdmissibleGeneric&#39;2&#45;&gt;BinomialOdd -->
<g id="edge7" class="edge">
<title>AdemAlgebra__makeMonoAdmissibleGeneric&#39;2&#45;&gt;BinomialOdd</title>
<path fill="none" stroke="#0d1074" stroke-width=".5" d="M144.2124,-205.7562C135.1278,-194.204 124.8138,-181.0887 115.5326,-169.2868"/>
<polygon fill="#0d1074" stroke="#0d1074" stroke-width=".5" points="116.3232,-168.3103 113.1967,-166.3163 114.3973,-169.8248 116.3232,-168.3103"/>
<text text-anchor="middle" x="157.676" y="-189" font-family="Arial" font-size="10.00" fill="#0d1074">0.81%</text>
<text text-anchor="middle" x="157.676" y="-178" font-family="Arial" font-size="10.00" fill="#0d1074">6105493×</text>
</g>
<!-- AdemAlgebra_basisElement_toIndex -->
<g id="node8" class="node">
<title>AdemAlgebra_basisElement_toIndex</title>
<polygon fill="#0d1475" stroke="#0d1475" points="377.676,-166 200.676,-166 200.676,-103 377.676,-103 377.676,-166"/>
<text text-anchor="middle" x="289.176" y="-154" font-family="Arial" font-size="10.00" fill="#ffffff">csteen</text>
<text text-anchor="middle" x="289.176" y="-143" font-family="Arial" font-size="10.00" fill="#ffffff">AdemAlgebra_basisElement_toIndex</text>
<text text-anchor="middle" x="289.176" y="-132" font-family="Arial" font-size="10.00" fill="#ffffff">1.64%</text>
<text text-anchor="middle" x="289.176" y="-121" font-family="Arial" font-size="10.00" fill="#ffffff">(0.86%)</text>
<text text-anchor="middle" x="289.176" y="-110" font-family="Arial" font-size="10.00" fill="#ffffff">5287551×</text>
</g>
<!-- AdemAlgebra__makeMonoAdmissibleGeneric&#39;2&#45;&gt;AdemAlgebra_basisElement_toIndex -->
<g id="edge6" class="edge">
<title>AdemAlgebra__makeMonoAdmissibleGeneric&#39;2&#45;&gt;AdemAlgebra_basisElement_toIndex</title>
<path fill="none" stroke="#0d1074" stroke-width=".5" d="M206.1592,-205.7562C219.8461,-194.0082 235.4164,-180.6437 249.3456,-168.6878"/>
<polygon fill="#0d1074" stroke="#0d1074" stroke-width=".5" points="250.2505,-169.5255 252.1085,-166.3163 248.6547,-167.6664 250.2505,-169.5255"/>
<text text-anchor="middle" x="261.676" y="-189" font-family="Arial" font-size="10.00" fill="#0d1074">0.76%</text>
<text text-anchor="middle" x="261.676" y="-178" font-family="Arial" font-size="10.00" fill="#0d1074">2067715×</text>
</g>
<!-- MultinomialOdd.constprop.1 -->
<g id="node11" class="node">
<title>MultinomialOdd.constprop.1</title>
<polygon fill="#0d1174" stroke="#0d1174" points="157.176,-63 19.176,-63 19.176,0 157.176,0 157.176,-63"/>
<text text-anchor="middle" x="88.176" y="-51" font-family="Arial" font-size="10.00" fill="#ffffff">csteen</text>
<text text-anchor="middle" x="88.176" y="-40" font-family="Arial" font-size="10.00" fill="#ffffff">MultinomialOdd.constprop.1</text>
<text text-anchor="middle" x="88.176" y="-29" font-family="Arial" font-size="10.00" fill="#ffffff">1.09%</text>
<text text-anchor="middle" x="88.176" y="-18" font-family="Arial" font-size="10.00" fill="#ffffff">(0.96%)</text>
<text text-anchor="middle" x="88.176" y="-7" font-family="Arial" font-size="10.00" fill="#ffffff">6219176×</text>
</g>
<!-- BinomialOdd&#45;&gt;MultinomialOdd.constprop.1 -->
<g id="edge10" class="edge">
<title>BinomialOdd&#45;&gt;MultinomialOdd.constprop.1</title>
<path fill="none" stroke="#0d1174" stroke-width=".5" d="M88.176,-102.7562C88.176,-91.3998 88.176,-78.5328 88.176,-66.888"/>
<polygon fill="#0d1174" stroke="#0d1174" stroke-width=".5" points="89.4011,-66.8163 88.176,-63.3163 86.9511,-66.8164 89.4011,-66.8163"/>
<text text-anchor="middle" x="109.676" y="-86" font-family="Arial" font-size="10.00" fill="#0d1174">1.09%</text>
<text text-anchor="middle" x="109.676" y="-75" font-family="Arial" font-size="10.00" fill="#0d1174">6219176×</text>
</g>
<!-- AdemAlgebra_getDimension -->
<g id="node9" class="node">
<title>AdemAlgebra_getDimension</title>
<polygon fill="#0d1174" stroke="#0d1174" points="230.176,-475 90.176,-475 90.176,-412 230.176,-412 230.176,-475"/>
<text text-anchor="middle" x="160.176" y="-463" font-family="Arial" font-size="10.00" fill="#ffffff">csteen</text>
<text text-anchor="middle" x="160.176" y="-452" font-family="Arial" font-size="10.00" fill="#ffffff">AdemAlgebra_getDimension</text>
<text text-anchor="middle" x="160.176" y="-441" font-family="Arial" font-size="10.00" fill="#ffffff">1.10%</text>
<text text-anchor="middle" x="160.176" y="-430" font-family="Arial" font-size="10.00" fill="#ffffff">(1.10%)</text>
<text text-anchor="middle" x="160.176" y="-419" font-family="Arial" font-size="10.00" fill="#ffffff">208486460×</text>
</g>
<!-- AdemAlgebra_multiply -->
<g id="node10" class="node">
<title>AdemAlgebra_multiply</title>
<polygon fill="#0d1d77" stroke="#0d1d77" points="353.176,-475 239.176,-475 239.176,-412 353.176,-412 353.176,-475"/>
<text text-anchor="middle" x="296.176" y="-463" font-family="Arial" font-size="10.00" fill="#ffffff">csteen</text>
<text text-anchor="middle" x="296.176" y="-452" font-family="Arial" font-size="10.00" fill="#ffffff">AdemAlgebra_multiply</text>
<text text-anchor="middle" x="296.176" y="-441" font-family="Arial" font-size="10.00" fill="#ffffff">3.71%</text>
<text text-anchor="middle" x="296.176" y="-430" font-family="Arial" font-size="10.00" fill="#ffffff">(0.13%)</text>
<text text-anchor="middle" x="296.176" y="-419" font-family="Arial" font-size="10.00" fill="#ffffff">1518256×</text>
</g>
<!-- AdemAlgebra_multiply&#45;&gt;AdemAlgebra__makeMonoAdmissibleGeneric -->
<g id="edge8" class="edge">
<title>AdemAlgebra_multiply&#45;&gt;AdemAlgebra__makeMonoAdmissibleGeneric</title>
<path fill="none" stroke="#0d1876" stroke-width=".5" d="M257.0356,-411.7562C242.5503,-400.0082 226.0716,-386.6437 211.33,-374.6878"/>
<polygon fill="#0d1876" stroke="#0d1876" stroke-width=".5" points="211.8959,-373.5696 208.4059,-372.3163 210.3526,-375.4725 211.8959,-373.5696"/>
<text text-anchor="middle" x="265.676" y="-395" font-family="Arial" font-size="10.00" fill="#0d1876">2.70%</text>
<text text-anchor="middle" x="265.676" y="-384" font-family="Arial" font-size="10.00" fill="#0d1876">1134969×</text>
</g>
<!-- AdemAlgebra_multiply&#45;&gt;AdemAlgebra_basisElement_toIndex -->
<g id="edge9" class="edge">
<title>AdemAlgebra_multiply&#45;&gt;AdemAlgebra_basisElement_toIndex</title>
<path fill="none" stroke="#0d1074" stroke-width=".5" d="M313.5929,-411.676C336.5203,-365.4332 371.1508,-277.3927 346.176,-206 341.4886,-192.6005 333.1211,-179.8381 324.2164,-168.9025"/>
<polygon fill="#0d1074" stroke="#0d1074" stroke-width=".5" points="325.1205,-168.0737 321.9428,-166.1624 323.235,-169.6382 325.1205,-168.0737"/>
<text text-anchor="middle" x="374.676" y="-292" font-family="Arial" font-size="10.00" fill="#0d1074">0.85%</text>
<text text-anchor="middle" x="374.676" y="-281" font-family="Arial" font-size="10.00" fill="#0d1074">3129326×</text>
</g>
<!-- FreeModuleHomomorphism_getMatrix -->
<g id="node12" class="node">
<title>FreeModuleHomomorphism_getMatrix</title>
<polygon fill="#0d337e" stroke="#0d337e" points="285.176,-681 103.176,-681 103.176,-618 285.176,-618 285.176,-681"/>
<text text-anchor="middle" x="194.176" y="-669" font-family="Arial" font-size="10.00" fill="#ffffff">csteen</text>
<text text-anchor="middle" x="194.176" y="-658" font-family="Arial" font-size="10.00" fill="#ffffff">FreeModuleHomomorphism_getMatrix</text>
<text text-anchor="middle" x="194.176" y="-647" font-family="Arial" font-size="10.00" fill="#ffffff">8.47%</text>
<text text-anchor="middle" x="194.176" y="-636" font-family="Arial" font-size="10.00" fill="#ffffff">(0.20%)</text>
<text text-anchor="middle" x="194.176" y="-625" font-family="Arial" font-size="10.00" fill="#ffffff">11325×</text>
</g>
<!-- FreeModule_actOnBasis -->
<g id="node13" class="node">
<title>FreeModule_actOnBasis</title>
<polygon fill="#0d307d" stroke="#0d307d" points="256.176,-578 132.176,-578 132.176,-515 256.176,-515 256.176,-578"/>
<text text-anchor="middle" x="194.176" y="-566" font-family="Arial" font-size="10.00" fill="#ffffff">csteen</text>
<text text-anchor="middle" x="194.176" y="-555" font-family="Arial" font-size="10.00" fill="#ffffff">FreeModule_actOnBasis</text>
<text text-anchor="middle" x="194.176" y="-544" font-family="Arial" font-size="10.00" fill="#ffffff">7.94%</text>
<text text-anchor="middle" x="194.176" y="-533" font-family="Arial" font-size="10.00" fill="#ffffff">(3.06%)</text>
<text text-anchor="middle" x="194.176" y="-522" font-family="Arial" font-size="10.00" fill="#ffffff">1518256×</text>
</g>
<!-- FreeModuleHomomorphism_getMatrix&#45;&gt;FreeModule_actOnBasis -->
<g id="edge11" class="edge">
<title>FreeModuleHomomorphism_getMatrix&#45;&gt;FreeModule_actOnBasis</title>
<path fill="none" stroke="#0d307d" stroke-width=".5" d="M194.176,-617.7562C194.176,-606.3998 194.176,-593.5328 194.176,-581.888"/>
<polygon fill="#0d307d" stroke="#0d307d" stroke-width=".5" points="195.4011,-581.8163 194.176,-578.3163 192.9511,-581.8164 195.4011,-581.8163"/>
<text text-anchor="middle" x="215.676" y="-601" font-family="Arial" font-size="10.00" fill="#0d307d">7.94%</text>
<text text-anchor="middle" x="215.676" y="-590" font-family="Arial" font-size="10.00" fill="#0d307d">1518256×</text>
</g>
<!-- FreeModule_actOnBasis&#45;&gt;AdemAlgebra_getDimension -->
<g id="edge12" class="edge">
<title>FreeModule_actOnBasis&#45;&gt;AdemAlgebra_getDimension</title>
<path fill="none" stroke="#0d1174" stroke-width=".5" d="M183.6975,-514.7562C179.9488,-503.3998 175.7014,-490.5328 171.8575,-478.888"/>
<polygon fill="#0d1174" stroke="#0d1174" stroke-width=".5" points="172.939,-478.2559 170.6785,-475.3163 170.6124,-479.024 172.939,-478.2559"/>
<text text-anchor="middle" x="208.176" y="-498" font-family="Arial" font-size="10.00" fill="#0d1174">1.05%</text>
<text text-anchor="middle" x="208.176" y="-487" font-family="Arial" font-size="10.00" fill="#0d1174">199273233×</text>
</g>
<!-- FreeModule_actOnBasis&#45;&gt;AdemAlgebra_multiply -->
<g id="edge13" class="edge">
<title>FreeModule_actOnBasis&#45;&gt;AdemAlgebra_multiply</title>
<path fill="none" stroke="#0d1d77" stroke-width=".5" d="M228.1562,-514.8488C231.2287,-511.8808 234.2738,-508.899 237.176,-506 246.0738,-497.1123 255.5078,-487.3024 264.1604,-478.1409"/>
<polygon fill="#0d1d77" stroke="#0d1d77" stroke-width=".5" points="265.3099,-478.7074 266.8192,-475.3202 263.5271,-477.0269 265.3099,-478.7074"/>
<text text-anchor="middle" x="278.676" y="-498" font-family="Arial" font-size="10.00" fill="#0d1d77">3.71%</text>
<text text-anchor="middle" x="278.676" y="-487" font-family="Arial" font-size="10.00" fill="#0d1d77">1518256×</text>
</g>
<!-- Resolution_generateOldKernelAndComputeNewKernel -->
<g id="node14" class="node">
<title>Resolution_generateOldKernelAndComputeNewKernel</title>
<polygon fill="#ff0000" stroke="#ff0000" points="385.676,-784 134.676,-784 134.676,-721 385.676,-721 385.676,-784"/>
<text text-anchor="middle" x="260.176" y="-772" font-family="Arial" font-size="10.00" fill="#ffffff">csteen</text>
<text text-anchor="middle" x="260.176" y="-761" font-family="Arial" font-size="10.00" fill="#ffffff">Resolution_generateOldKernelAndComputeNewKernel</text>
<text text-anchor="middle" x="260.176" y="-750" font-family="Arial" font-size="10.00" fill="#ffffff">99.99%</text>
<text text-anchor="middle" x="260.176" y="-739" font-family="Arial" font-size="10.00" fill="#ffffff">(0.02%)</text>
<text text-anchor="middle" x="260.176" y="-728" font-family="Arial" font-size="10.00" fill="#ffffff">11325×</text>
</g>
<!-- Resolution_generateOldKernelAndComputeNewKernel&#45;&gt;FreeModuleHomomorphism_getMatrix -->
<g id="edge14" class="edge">
<title>Resolution_generateOldKernelAndComputeNewKernel&#45;&gt;FreeModuleHomomorphism_getMatrix</title>
<path fill="none" stroke="#0d337e" stroke-width=".5" d="M239.8353,-720.7562C232.433,-709.204 224.029,-696.0887 216.4666,-684.2868"/>
<polygon fill="#0d337e" stroke="#0d337e" stroke-width=".5" points="217.483,-683.6023 214.5632,-681.3163 215.4201,-684.9242 217.483,-683.6023"/>
<text text-anchor="middle" x="249.676" y="-704" font-family="Arial" font-size="10.00" fill="#0d337e">8.47%</text>
<text text-anchor="middle" x="249.676" y="-693" font-family="Arial" font-size="10.00" fill="#0d337e">11325×</text>
</g>
<!-- rowReduce -->
<g id="node15" class="node">
<title>rowReduce</title>
<polygon fill="#f25602" stroke="#f25602" points="359.676,-681 294.676,-681 294.676,-618 359.676,-618 359.676,-681"/>
<text text-anchor="middle" x="327.176" y="-669" font-family="Arial" font-size="10.00" fill="#ffffff">csteen</text>
<text text-anchor="middle" x="327.176" y="-658" font-family="Arial" font-size="10.00" fill="#ffffff">rowReduce</text>
<text text-anchor="middle" x="327.176" y="-647" font-family="Arial" font-size="10.00" fill="#ffffff">91.28%</text>
<text text-anchor="middle" x="327.176" y="-636" font-family="Arial" font-size="10.00" fill="#ffffff">(8.44%)</text>
<text text-anchor="middle" x="327.176" y="-625" font-family="Arial" font-size="10.00" fill="#ffffff">22650×</text>
</g>
<!-- Resolution_generateOldKernelAndComputeNewKernel&#45;&gt;rowReduce -->
<g id="edge15" class="edge">
<title>Resolution_generateOldKernelAndComputeNewKernel&#45;&gt;rowReduce</title>
<path fill="none" stroke="#f25602" stroke-width="3.65" d="M280.825,-720.7562C287.2568,-710.8683 294.4337,-699.8352 301.1821,-689.4608"/>
<polygon fill="#f25602" stroke="#f25602" stroke-width="3.65" points="304.0619,-691.1958 306.48,-681.3163 298.4288,-687.5315 304.0619,-691.1958"/>
<text text-anchor="middle" x="317.176" y="-704" font-family="Arial" font-size="10.00" fill="#f25602">91.28%</text>
<text text-anchor="middle" x="317.176" y="-693" font-family="Arial" font-size="10.00" fill="#f25602">22650×</text>
</g>
<!-- VectorGeneric_add -->
<g id="node17" class="node">
<title>VectorGeneric_add</title>
<polygon fill="#ddc705" stroke="#ddc705" points="484.676,-578 385.676,-578 385.676,-515 484.676,-515 484.676,-578"/>
<text text-anchor="middle" x="435.176" y="-566" font-family="Arial" font-size="10.00" fill="#ffffff">csteen</text>
<text text-anchor="middle" x="435.176" y="-555" font-family="Arial" font-size="10.00" fill="#ffffff">VectorGeneric_add</text>
<text text-anchor="middle" x="435.176" y="-544" font-family="Arial" font-size="10.00" fill="#ffffff">77.62%</text>
<text text-anchor="middle" x="435.176" y="-533" font-family="Arial" font-size="10.00" fill="#ffffff">(77.62%)</text>
<text text-anchor="middle" x="435.176" y="-522" font-family="Arial" font-size="10.00" fill="#ffffff">4912160×</text>
</g>
<!-- rowReduce&#45;&gt;VectorGeneric_add -->
<g id="edge19" class="edge">
<title>rowReduce&#45;&gt;VectorGeneric_add</title>
<path fill="none" stroke="#ddc705" stroke-width="3.1" d="M359.8727,-618.3171C371.0828,-607.626 383.7516,-595.5436 395.4561,-584.381"/>
<polygon fill="#ddc705" stroke="#ddc705" stroke-width="3.1" points="397.6015,-586.5912 401.844,-578.2889 393.3501,-582.1334 397.6015,-586.5912"/>
<text text-anchor="middle" x="411.676" y="-601" font-family="Arial" font-size="10.00" fill="#ddc705">77.62%</text>
<text text-anchor="middle" x="411.676" y="-590" font-family="Arial" font-size="10.00" fill="#ddc705">4912160×</text>
</g>
<!-- VectorGeneric_scale -->
<g id="node18" class="node">
<title>VectorGeneric_scale</title>
<polygon fill="#0d2379" stroke="#0d2379" points="376.676,-578 269.676,-578 269.676,-515 376.676,-515 376.676,-578"/>
<text text-anchor="middle" x="323.176" y="-566" font-family="Arial" font-size="10.00" fill="#ffffff">csteen</text>
<text text-anchor="middle" x="323.176" y="-555" font-family="Arial" font-size="10.00" fill="#ffffff">VectorGeneric_scale</text>
<text text-anchor="middle" x="323.176" y="-544" font-family="Arial" font-size="10.00" fill="#ffffff">5.21%</text>
<text text-anchor="middle" x="323.176" y="-533" font-family="Arial" font-size="10.00" fill="#ffffff">(5.21%)</text>
<text text-anchor="middle" x="323.176" y="-522" font-family="Arial" font-size="10.00" fill="#ffffff">542527×</text>
</g>
<!-- rowReduce&#45;&gt;VectorGeneric_scale -->
<g id="edge20" class="edge">
<title>rowReduce&#45;&gt;VectorGeneric_scale</title>
<path fill="none" stroke="#0d2379" stroke-width=".5" d="M325.9433,-617.7562C325.5023,-606.3998 325.0026,-593.5328 324.5503,-581.888"/>
<polygon fill="#0d2379" stroke="#0d2379" stroke-width=".5" points="325.7716,-581.7661 324.4116,-578.3163 323.3235,-581.8613 325.7716,-581.7661"/>
<text text-anchor="middle" x="344.176" y="-601" font-family="Arial" font-size="10.00" fill="#0d2379">5.21%</text>
<text text-anchor="middle" x="344.176" y="-590" font-family="Arial" font-size="10.00" fill="#0d2379">542527×</text>
</g>
<!-- Resolution_step&#45;&gt;Resolution_generateOldKernelAndComputeNewKernel -->
<g id="edge16" class="edge">
<title>Resolution_step&#45;&gt;Resolution_generateOldKernelAndComputeNewKernel</title>
<path fill="none" stroke="#ff0000" stroke-width="4" d="M260.176,-823.7562C260.176,-814.5536 260.176,-804.3591 260.176,-794.6267"/>
<polygon fill="#ff0000" stroke="#ff0000" stroke-width="4" points="263.6761,-794.3163 260.176,-784.3163 256.6761,-794.3164 263.6761,-794.3163"/>
<text text-anchor="middle" x="277.176" y="-807" font-family="Arial" font-size="10.00" fill="#ff0000">99.99%</text>
<text text-anchor="middle" x="277.176" y="-796" font-family="Arial" font-size="10.00" fill="#ff0000">11325×</text>
</g>
</g>
</svg>
