<?xml version="1.0" encoding="UTF-8" standalone="no"?>
<!DOCTYPE svg PUBLIC "-//W3C//DTD SVG 1.1//EN"
 "http://www.w3.org/Graphics/SVG/1.1/DTD/svg11.dtd">
<!-- Generated by graphviz version 2.40.1 (20161225.0304)
 -->
<!-- Title: %3 Pages: 1 -->
<svg width="522pt" height="1204pt"
 viewBox="0.00 0.00 521.50 1204.00" xmlns="http://www.w3.org/2000/svg" xmlns:xlink="http://www.w3.org/1999/xlink">
<g id="graph0" class="graph" transform="scale(1 1) rotate(0) translate(4 1200)">
<title>%3</title>
<polygon fill="#ffffff" stroke="transparent" points="-4,4 -4,-1200 517.5,-1200 517.5,4 -4,4"/>
<!-- (below main) -->
<g id="node1" class="node">
<title>(below main)</title>
<polygon fill="#ff0000" stroke="#ff0000" points="423.5,-990 352.5,-990 352.5,-927 423.5,-927 423.5,-990"/>
<text text-anchor="middle" x="388" y="-978" font-family="Arial" font-size="10.00" fill="#ffffff">libc&#45;2.27.so</text>
<text text-anchor="middle" x="388" y="-967" font-family="Arial" font-size="10.00" fill="#ffffff">(below main)</text>
<text text-anchor="middle" x="388" y="-956" font-family="Arial" font-size="10.00" fill="#ffffff">100.00%</text>
<text text-anchor="middle" x="388" y="-945" font-family="Arial" font-size="10.00" fill="#ffffff">(0.00%)</text>
<text text-anchor="middle" x="388" y="-934" font-family="Arial" font-size="10.00" fill="#ffffff">1×</text>
</g>
<!-- main -->
<g id="node2" class="node">
<title>main</title>
<polygon fill="#ff0000" stroke="#ff0000" points="415.5,-887 360.5,-887 360.5,-824 415.5,-824 415.5,-887"/>
<text text-anchor="middle" x="388" y="-875" font-family="Arial" font-size="10.00" fill="#ffffff">csteen</text>
<text text-anchor="middle" x="388" y="-864" font-family="Arial" font-size="10.00" fill="#ffffff">main</text>
<text text-anchor="middle" x="388" y="-853" font-family="Arial" font-size="10.00" fill="#ffffff">100.00%</text>
<text text-anchor="middle" x="388" y="-842" font-family="Arial" font-size="10.00" fill="#ffffff">(0.00%)</text>
<text text-anchor="middle" x="388" y="-831" font-family="Arial" font-size="10.00" fill="#ffffff">1×</text>
</g>
<!-- (below main)&#45;&gt;main -->
<g id="edge1" class="edge">
<title>(below main)&#45;&gt;main</title>
<path fill="none" stroke="#ff0000" stroke-width="4" d="M388,-926.7562C388,-917.5536 388,-907.3591 388,-897.6267"/>
<polygon fill="#ff0000" stroke="#ff0000" stroke-width="4" points="391.5001,-897.3163 388,-887.3163 384.5001,-897.3164 391.5001,-897.3163"/>
<text text-anchor="middle" x="407.5" y="-910" font-family="Arial" font-size="10.00" fill="#ff0000">100.00%</text>
<text text-anchor="middle" x="407.5" y="-899" font-family="Arial" font-size="10.00" fill="#ff0000">1×</text>
</g>
<!-- Resolution_step -->
<g id="node18" class="node">
<title>Resolution_step</title>
<polygon fill="#ff0100" stroke="#ff0100" points="431,-784 345,-784 345,-721 431,-721 431,-784"/>
<text text-anchor="middle" x="388" y="-772" font-family="Arial" font-size="10.00" fill="#ffffff">csteen</text>
<text text-anchor="middle" x="388" y="-761" font-family="Arial" font-size="10.00" fill="#ffffff">Resolution_step</text>
<text text-anchor="middle" x="388" y="-750" font-family="Arial" font-size="10.00" fill="#ffffff">99.89%</text>
<text text-anchor="middle" x="388" y="-739" font-family="Arial" font-size="10.00" fill="#ffffff">(0.00%)</text>
<text text-anchor="middle" x="388" y="-728" font-family="Arial" font-size="10.00" fill="#ffffff">1275×</text>
</g>
<!-- main&#45;&gt;Resolution_step -->
<g id="edge18" class="edge">
<title>main&#45;&gt;Resolution_step</title>
<path fill="none" stroke="#ff0100" stroke-width="4" d="M388,-823.7562C388,-814.5536 388,-804.3591 388,-794.6267"/>
<polygon fill="#ff0100" stroke="#ff0100" stroke-width="4" points="391.5001,-794.3163 388,-784.3163 384.5001,-794.3164 391.5001,-794.3163"/>
<text text-anchor="middle" x="405" y="-807" font-family="Arial" font-size="10.00" fill="#ff0100">99.89%</text>
<text text-anchor="middle" x="405" y="-796" font-family="Arial" font-size="10.00" fill="#ff0100">1275×</text>
</g>
<!-- 0x0000000000001090 -->
<g id="node3" class="node">
<title>0x0000000000001090</title>
<polygon fill="#ff0000" stroke="#ff0000" points="443.5,-1196 332.5,-1196 332.5,-1133 443.5,-1133 443.5,-1196"/>
<text text-anchor="middle" x="388" y="-1184" font-family="Arial" font-size="10.00" fill="#ffffff">ld&#45;2.27.so</text>
<text text-anchor="middle" x="388" y="-1173" font-family="Arial" font-size="10.00" fill="#ffffff">0x0000000000001090</text>
<text text-anchor="middle" x="388" y="-1162" font-family="Arial" font-size="10.00" fill="#ffffff">100.00%</text>
<text text-anchor="middle" x="388" y="-1151" font-family="Arial" font-size="10.00" fill="#ffffff">(0.00%)</text>
<text text-anchor="middle" x="388" y="-1140" font-family="Arial" font-size="10.00" fill="#ffffff">0×</text>
</g>
<!-- _start -->
<g id="node4" class="node">
<title>_start</title>
<polygon fill="#ff0000" stroke="#ff0000" points="415.5,-1093 360.5,-1093 360.5,-1030 415.5,-1030 415.5,-1093"/>
<text text-anchor="middle" x="388" y="-1081" font-family="Arial" font-size="10.00" fill="#ffffff">csteen</text>
<text text-anchor="middle" x="388" y="-1070" font-family="Arial" font-size="10.00" fill="#ffffff">_start</text>
<text text-anchor="middle" x="388" y="-1059" font-family="Arial" font-size="10.00" fill="#ffffff">100.00%</text>
<text text-anchor="middle" x="388" y="-1048" font-family="Arial" font-size="10.00" fill="#ffffff">(0.00%)</text>
<text text-anchor="middle" x="388" y="-1037" font-family="Arial" font-size="10.00" fill="#ffffff">1×</text>
</g>
<!-- 0x0000000000001090&#45;&gt;_start -->
<g id="edge2" class="edge">
<title>0x0000000000001090&#45;&gt;_start</title>
<path fill="none" stroke="#ff0000" stroke-width="4" d="M388,-1132.7562C388,-1123.5536 388,-1113.3591 388,-1103.6267"/>
<polygon fill="#ff0000" stroke="#ff0000" stroke-width="4" points="391.5001,-1103.3163 388,-1093.3163 384.5001,-1103.3164 391.5001,-1103.3163"/>
<text text-anchor="middle" x="407.5" y="-1116" font-family="Arial" font-size="10.00" fill="#ff0000">100.00%</text>
<text text-anchor="middle" x="407.5" y="-1105" font-family="Arial" font-size="10.00" fill="#ff0000">1×</text>
</g>
<!-- _start&#45;&gt;(below main) -->
<g id="edge17" class="edge">
<title>_start&#45;&gt;(below main)</title>
<path fill="none" stroke="#ff0000" stroke-width="4" d="M388,-1029.7562C388,-1020.5536 388,-1010.3591 388,-1000.6267"/>
<polygon fill="#ff0000" stroke="#ff0000" stroke-width="4" points="391.5001,-1000.3163 388,-990.3163 384.5001,-1000.3164 391.5001,-1000.3163"/>
<text text-anchor="middle" x="407.5" y="-1013" font-family="Arial" font-size="10.00" fill="#ff0000">100.00%</text>
<text text-anchor="middle" x="407.5" y="-1002" font-family="Arial" font-size="10.00" fill="#ff0000">1×</text>
</g>
<!-- FreeModuleHomomorphism_getMatrix -->
<g id="node5" class="node">
<title>FreeModuleHomomorphism_getMatrix</title>
<polygon fill="#0b9f6b" stroke="#0b9f6b" points="413,-578 231,-578 231,-515 413,-515 413,-578"/>
<text text-anchor="middle" x="322" y="-566" font-family="Arial" font-size="10.00" fill="#ffffff">csteen</text>
<text text-anchor="middle" x="322" y="-555" font-family="Arial" font-size="10.00" fill="#ffffff">FreeModuleHomomorphism_getMatrix</text>
<text text-anchor="middle" x="322" y="-544" font-family="Arial" font-size="10.00" fill="#ffffff">33.76%</text>
<text text-anchor="middle" x="322" y="-533" font-family="Arial" font-size="10.00" fill="#ffffff">(0.75%)</text>
<text text-anchor="middle" x="322" y="-522" font-family="Arial" font-size="10.00" fill="#ffffff">1275×</text>
</g>
<!-- FreeModule_actOnBasis -->
<g id="node6" class="node">
<title>FreeModule_actOnBasis</title>
<polygon fill="#0b9d75" stroke="#0b9d75" points="283,-475 159,-475 159,-412 283,-412 283,-475"/>
<text text-anchor="middle" x="221" y="-463" font-family="Arial" font-size="10.00" fill="#ffffff">csteen</text>
<text text-anchor="middle" x="221" y="-452" font-family="Arial" font-size="10.00" fill="#ffffff">FreeModule_actOnBasis</text>
<text text-anchor="middle" x="221" y="-441" font-family="Arial" font-size="10.00" fill="#ffffff">31.81%</text>
<text text-anchor="middle" x="221" y="-430" font-family="Arial" font-size="10.00" fill="#ffffff">(4.57%)</text>
<text text-anchor="middle" x="221" y="-419" font-family="Arial" font-size="10.00" fill="#ffffff">283970×</text>
</g>
<!-- FreeModuleHomomorphism_getMatrix&#45;&gt;FreeModule_actOnBasis -->
<g id="edge3" class="edge">
<title>FreeModuleHomomorphism_getMatrix&#45;&gt;FreeModule_actOnBasis</title>
<path fill="none" stroke="#0b9d75" stroke-width="1.27" d="M290.8725,-514.7562C279.9287,-503.5956 267.5542,-490.9761 256.2925,-479.4914"/>
<polygon fill="#0b9d75" stroke="#0b9d75" stroke-width="1.27" points="257.5188,-477.9425 252.1985,-475.3163 254.7199,-480.6871 257.5188,-477.9425"/>
<text text-anchor="middle" x="300" y="-498" font-family="Arial" font-size="10.00" fill="#0b9d75">31.81%</text>
<text text-anchor="middle" x="300" y="-487" font-family="Arial" font-size="10.00" fill="#0b9d75">283970×</text>
</g>
<!-- Vector_stepIterator -->
<g id="node7" class="node">
<title>Vector_stepIterator</title>
<polygon fill="#0d1174" stroke="#0d1174" points="391.5,-475 292.5,-475 292.5,-412 391.5,-412 391.5,-475"/>
<text text-anchor="middle" x="342" y="-463" font-family="Arial" font-size="10.00" fill="#ffffff">csteen</text>
<text text-anchor="middle" x="342" y="-452" font-family="Arial" font-size="10.00" fill="#ffffff">Vector_stepIterator</text>
<text text-anchor="middle" x="342" y="-441" font-family="Arial" font-size="10.00" fill="#ffffff">1.11%</text>
<text text-anchor="middle" x="342" y="-430" font-family="Arial" font-size="10.00" fill="#ffffff">(1.11%)</text>
<text text-anchor="middle" x="342" y="-419" font-family="Arial" font-size="10.00" fill="#ffffff">1323326×</text>
</g>
<!-- FreeModuleHomomorphism_getMatrix&#45;&gt;Vector_stepIterator -->
<g id="edge4" class="edge">
<title>FreeModuleHomomorphism_getMatrix&#45;&gt;Vector_stepIterator</title>
<path fill="none" stroke="#0d1174" stroke-width=".5" d="M328.1639,-514.7562C330.369,-503.3998 332.8674,-490.5328 335.1285,-478.888"/>
<polygon fill="#0d1174" stroke="#0d1174" stroke-width=".5" points="336.3574,-478.9857 335.8221,-475.3163 333.9523,-478.5186 336.3574,-478.9857"/>
<text text-anchor="middle" x="355.5" y="-498" font-family="Arial" font-size="10.00" fill="#0d1174">1.11%</text>
<text text-anchor="middle" x="355.5" y="-487" font-family="Arial" font-size="10.00" fill="#0d1174">1323326×</text>
</g>
<!-- MilnorAlgebra_getDimension -->
<g id="node8" class="node">
<title>MilnorAlgebra_getDimension</title>
<polygon fill="#0d1c77" stroke="#0d1c77" points="260,-372 120,-372 120,-309 260,-309 260,-372"/>
<text text-anchor="middle" x="190" y="-360" font-family="Arial" font-size="10.00" fill="#ffffff">csteen</text>
<text text-anchor="middle" x="190" y="-349" font-family="Arial" font-size="10.00" fill="#ffffff">MilnorAlgebra_getDimension</text>
<text text-anchor="middle" x="190" y="-338" font-family="Arial" font-size="10.00" fill="#ffffff">3.50%</text>
<text text-anchor="middle" x="190" y="-327" font-family="Arial" font-size="10.00" fill="#ffffff">(3.50%)</text>
<text text-anchor="middle" x="190" y="-316" font-family="Arial" font-size="10.00" fill="#ffffff">13256150×</text>
</g>
<!-- FreeModule_actOnBasis&#45;&gt;MilnorAlgebra_getDimension -->
<g id="edge5" class="edge">
<title>FreeModule_actOnBasis&#45;&gt;MilnorAlgebra_getDimension</title>
<path fill="none" stroke="#0d1b77" stroke-width=".5" d="M211.446,-411.7562C208.0281,-400.3998 204.1555,-387.5328 200.6508,-375.888"/>
<polygon fill="#0d1b77" stroke="#0d1b77" stroke-width=".5" points="201.7576,-375.3148 199.5758,-372.3163 199.4115,-376.0209 201.7576,-375.3148"/>
<text text-anchor="middle" x="233.5" y="-395" font-family="Arial" font-size="10.00" fill="#0d1b77">3.41%</text>
<text text-anchor="middle" x="233.5" y="-384" font-family="Arial" font-size="10.00" fill="#0d1b77">12905989×</text>
</g>
<!-- MilnorAlgebra_multiply -->
<g id="node9" class="node">
<title>MilnorAlgebra_multiply</title>
<polygon fill="#0c8691" stroke="#0c8691" points="384.5,-372 269.5,-372 269.5,-309 384.5,-309 384.5,-372"/>
<text text-anchor="middle" x="327" y="-360" font-family="Arial" font-size="10.00" fill="#ffffff">csteen</text>
<text text-anchor="middle" x="327" y="-349" font-family="Arial" font-size="10.00" fill="#ffffff">MilnorAlgebra_multiply</text>
<text text-anchor="middle" x="327" y="-338" font-family="Arial" font-size="10.00" fill="#ffffff">23.03%</text>
<text text-anchor="middle" x="327" y="-327" font-family="Arial" font-size="10.00" fill="#ffffff">(0.62%)</text>
<text text-anchor="middle" x="327" y="-316" font-family="Arial" font-size="10.00" fill="#ffffff">283970×</text>
</g>
<!-- FreeModule_actOnBasis&#45;&gt;MilnorAlgebra_multiply -->
<g id="edge6" class="edge">
<title>FreeModule_actOnBasis&#45;&gt;MilnorAlgebra_multiply</title>
<path fill="none" stroke="#0c8691" stroke-width=".92" d="M253.6684,-411.7562C265.3555,-400.3998 278.5973,-387.5328 290.5813,-375.888"/>
<polygon fill="#0c8691" stroke="#0c8691" stroke-width=".92" points="291.9853,-376.8663 294.257,-372.3163 289.6437,-374.4565 291.9853,-376.8663"/>
<text text-anchor="middle" x="303" y="-395" font-family="Arial" font-size="10.00" fill="#0c8691">23.03%</text>
<text text-anchor="middle" x="303" y="-384" font-family="Arial" font-size="10.00" fill="#0c8691">283970×</text>
</g>
<!-- MilnorAlgebra__multiplyEven -->
<g id="node10" class="node">
<title>MilnorAlgebra__multiplyEven</title>
<polygon fill="#0c6b8b" stroke="#0c6b8b" points="327.5,-269 184.5,-269 184.5,-206 327.5,-206 327.5,-269"/>
<text text-anchor="middle" x="256" y="-257" font-family="Arial" font-size="10.00" fill="#ffffff">csteen</text>
<text text-anchor="middle" x="256" y="-246" font-family="Arial" font-size="10.00" fill="#ffffff">MilnorAlgebra__multiplyEven</text>
<text text-anchor="middle" x="256" y="-235" font-family="Arial" font-size="10.00" fill="#ffffff">18.66%</text>
<text text-anchor="middle" x="256" y="-224" font-family="Arial" font-size="10.00" fill="#ffffff">(7.15%)</text>
<text text-anchor="middle" x="256" y="-213" font-family="Arial" font-size="10.00" fill="#ffffff">283970×</text>
</g>
<!-- MilnorAlgebra_multiply&#45;&gt;MilnorAlgebra__multiplyEven -->
<g id="edge11" class="edge">
<title>MilnorAlgebra_multiply&#45;&gt;MilnorAlgebra__multiplyEven</title>
<path fill="none" stroke="#0c6b8b" stroke-width=".75" d="M305.1183,-308.7562C297.2902,-297.3998 288.4207,-284.5328 280.3937,-272.888"/>
<polygon fill="#0c6b8b" stroke="#0c6b8b" stroke-width=".75" points="281.6113,-272.0025 277.9316,-269.3163 279.133,-273.7109 281.6113,-272.0025"/>
<text text-anchor="middle" x="317" y="-292" font-family="Arial" font-size="10.00" fill="#0c6b8b">18.66%</text>
<text text-anchor="middle" x="317" y="-281" font-family="Arial" font-size="10.00" fill="#0c6b8b">283970×</text>
</g>
<!-- Vector_addArray -->
<g id="node15" class="node">
<title>Vector_addArray</title>
<polygon fill="#0d1c77" stroke="#0d1c77" points="443.5,-269 354.5,-269 354.5,-206 443.5,-206 443.5,-269"/>
<text text-anchor="middle" x="399" y="-257" font-family="Arial" font-size="10.00" fill="#ffffff">csteen</text>
<text text-anchor="middle" x="399" y="-246" font-family="Arial" font-size="10.00" fill="#ffffff">Vector_addArray</text>
<text text-anchor="middle" x="399" y="-235" font-family="Arial" font-size="10.00" fill="#ffffff">3.57%</text>
<text text-anchor="middle" x="399" y="-224" font-family="Arial" font-size="10.00" fill="#ffffff">(0.01%)</text>
<text text-anchor="middle" x="399" y="-213" font-family="Arial" font-size="10.00" fill="#ffffff">283970×</text>
</g>
<!-- MilnorAlgebra_multiply&#45;&gt;Vector_addArray -->
<g id="edge12" class="edge">
<title>MilnorAlgebra_multiply&#45;&gt;Vector_addArray</title>
<path fill="none" stroke="#0d1c77" stroke-width=".5" d="M349.1899,-308.7562C357.2651,-297.204 366.4331,-284.0887 374.683,-272.2868"/>
<polygon fill="#0d1c77" stroke="#0d1c77" stroke-width=".5" points="375.7582,-272.8868 376.7595,-269.3163 373.7501,-271.4831 375.7582,-272.8868"/>
<text text-anchor="middle" x="389" y="-292" font-family="Arial" font-size="10.00" fill="#0d1c77">3.57%</text>
<text text-anchor="middle" x="389" y="-281" font-family="Arial" font-size="10.00" fill="#0d1c77">283970×</text>
</g>
<!-- MilnorAlgebra_basisElement_toIndex -->
<g id="node11" class="node">
<title>MilnorAlgebra_basisElement_toIndex</title>
<polygon fill="#0d2279" stroke="#0d2279" points="178,-166 0,-166 0,-103 178,-103 178,-166"/>
<text text-anchor="middle" x="89" y="-154" font-family="Arial" font-size="10.00" fill="#ffffff">csteen</text>
<text text-anchor="middle" x="89" y="-143" font-family="Arial" font-size="10.00" fill="#ffffff">MilnorAlgebra_basisElement_toIndex</text>
<text text-anchor="middle" x="89" y="-132" font-family="Arial" font-size="10.00" fill="#ffffff">4.88%</text>
<text text-anchor="middle" x="89" y="-121" font-family="Arial" font-size="10.00" fill="#ffffff">(2.80%)</text>
<text text-anchor="middle" x="89" y="-110" font-family="Arial" font-size="10.00" fill="#ffffff">463183×</text>
</g>
<!-- MilnorAlgebra__multiplyEven&#45;&gt;MilnorAlgebra_basisElement_toIndex -->
<g id="edge7" class="edge">
<title>MilnorAlgebra__multiplyEven&#45;&gt;MilnorAlgebra_basisElement_toIndex</title>
<path fill="none" stroke="#0d2279" stroke-width=".5" d="M204.5318,-205.7562C185.2349,-193.8545 163.2477,-180.2935 143.6707,-168.2191"/>
<polygon fill="#0d2279" stroke="#0d2279" stroke-width=".5" points="143.9203,-166.9338 140.2982,-166.139 142.6341,-169.019 143.9203,-166.9338"/>
<text text-anchor="middle" x="207" y="-189" font-family="Arial" font-size="10.00" fill="#0d2279">4.88%</text>
<text text-anchor="middle" x="207" y="-178" font-family="Arial" font-size="10.00" fill="#0d2279">463183×</text>
</g>
<!-- Multinomial -->
<g id="node12" class="node">
<title>Multinomial</title>
<polygon fill="#0d1876" stroke="#0d1876" points="253,-166 187,-166 187,-103 253,-103 253,-166"/>
<text text-anchor="middle" x="220" y="-154" font-family="Arial" font-size="10.00" fill="#ffffff">csteen</text>
<text text-anchor="middle" x="220" y="-143" font-family="Arial" font-size="10.00" fill="#ffffff">Multinomial</text>
<text text-anchor="middle" x="220" y="-132" font-family="Arial" font-size="10.00" fill="#ffffff">2.62%</text>
<text text-anchor="middle" x="220" y="-121" font-family="Arial" font-size="10.00" fill="#ffffff">(2.62%)</text>
<text text-anchor="middle" x="220" y="-110" font-family="Arial" font-size="10.00" fill="#ffffff">3083083×</text>
</g>
<!-- MilnorAlgebra__multiplyEven&#45;&gt;Multinomial -->
<g id="edge8" class="edge">
<title>MilnorAlgebra__multiplyEven&#45;&gt;Multinomial</title>
<path fill="none" stroke="#0d1876" stroke-width=".5" d="M244.9051,-205.7562C240.9359,-194.3998 236.4387,-181.5328 232.3686,-169.888"/>
<polygon fill="#0d1876" stroke="#0d1876" stroke-width=".5" points="233.4315,-169.2161 231.1203,-166.3163 231.1187,-170.0245 233.4315,-169.2161"/>
<text text-anchor="middle" x="263.5" y="-189" font-family="Arial" font-size="10.00" fill="#0d1876">2.62%</text>
<text text-anchor="middle" x="263.5" y="-178" font-family="Arial" font-size="10.00" fill="#0d1876">3083083×</text>
</g>
<!-- milnor_matrix_step -->
<g id="node13" class="node">
<title>milnor_matrix_step</title>
<polygon fill="#0d1c77" stroke="#0d1c77" points="361.5,-166 262.5,-166 262.5,-103 361.5,-103 361.5,-166"/>
<text text-anchor="middle" x="312" y="-154" font-family="Arial" font-size="10.00" fill="#ffffff">csteen</text>
<text text-anchor="middle" x="312" y="-143" font-family="Arial" font-size="10.00" fill="#ffffff">milnor_matrix_step</text>
<text text-anchor="middle" x="312" y="-132" font-family="Arial" font-size="10.00" fill="#ffffff">3.47%</text>
<text text-anchor="middle" x="312" y="-121" font-family="Arial" font-size="10.00" fill="#ffffff">(3.47%)</text>
<text text-anchor="middle" x="312" y="-110" font-family="Arial" font-size="10.00" fill="#ffffff">1617537×</text>
</g>
<!-- MilnorAlgebra__multiplyEven&#45;&gt;milnor_matrix_step -->
<g id="edge9" class="edge">
<title>MilnorAlgebra__multiplyEven&#45;&gt;milnor_matrix_step</title>
<path fill="none" stroke="#0d1c77" stroke-width=".5" d="M281.5362,-205.7758C283.4849,-202.8743 285.3372,-199.9251 287,-197 291.8865,-188.4039 296.2739,-178.6628 299.9582,-169.4726"/>
<polygon fill="#0d1c77" stroke="#0d1c77" stroke-width=".5" points="301.1379,-169.8201 301.2834,-166.1147 298.859,-168.9206 301.1379,-169.8201"/>
<text text-anchor="middle" x="319.5" y="-189" font-family="Arial" font-size="10.00" fill="#0d1c77">3.47%</text>
<text text-anchor="middle" x="319.5" y="-178" font-family="Arial" font-size="10.00" fill="#0d1c77">1617537×</text>
</g>
<!-- MilnorAlgebra_basisElement_toKey -->
<g id="node14" class="node">
<title>MilnorAlgebra_basisElement_toKey</title>
<polygon fill="#0d1275" stroke="#0d1275" points="174.5,-63 3.5,-63 3.5,0 174.5,0 174.5,-63"/>
<text text-anchor="middle" x="89" y="-51" font-family="Arial" font-size="10.00" fill="#ffffff">csteen</text>
<text text-anchor="middle" x="89" y="-40" font-family="Arial" font-size="10.00" fill="#ffffff">MilnorAlgebra_basisElement_toKey</text>
<text text-anchor="middle" x="89" y="-29" font-family="Arial" font-size="10.00" fill="#ffffff">1.38%</text>
<text text-anchor="middle" x="89" y="-18" font-family="Arial" font-size="10.00" fill="#ffffff">(1.25%)</text>
<text text-anchor="middle" x="89" y="-7" font-family="Arial" font-size="10.00" fill="#ffffff">465240×</text>
</g>
<!-- MilnorAlgebra_basisElement_toIndex&#45;&gt;MilnorAlgebra_basisElement_toKey -->
<g id="edge10" class="edge">
<title>MilnorAlgebra_basisElement_toIndex&#45;&gt;MilnorAlgebra_basisElement_toKey</title>
<path fill="none" stroke="#0d1275" stroke-width=".5" d="M89,-102.7562C89,-91.3998 89,-78.5328 89,-66.888"/>
<polygon fill="#0d1275" stroke="#0d1275" stroke-width=".5" points="90.2251,-66.8163 89,-63.3163 87.7751,-66.8164 90.2251,-66.8163"/>
<text text-anchor="middle" x="108" y="-86" font-family="Arial" font-size="10.00" fill="#0d1275">1.37%</text>
<text text-anchor="middle" x="108" y="-75" font-family="Arial" font-size="10.00" fill="#0d1275">463183×</text>
</g>
<!-- Vector2_addArray -->
<g id="node20" class="node">
<title>Vector2_addArray</title>
<polygon fill="#0d1c77" stroke="#0d1c77" points="465,-166 371,-166 371,-103 465,-103 465,-166"/>
<text text-anchor="middle" x="418" y="-154" font-family="Arial" font-size="10.00" fill="#ffffff">csteen</text>
<text text-anchor="middle" x="418" y="-143" font-family="Arial" font-size="10.00" fill="#ffffff">Vector2_addArray</text>
<text text-anchor="middle" x="418" y="-132" font-family="Arial" font-size="10.00" fill="#ffffff">3.56%</text>
<text text-anchor="middle" x="418" y="-121" font-family="Arial" font-size="10.00" fill="#ffffff">(3.56%)</text>
<text text-anchor="middle" x="418" y="-110" font-family="Arial" font-size="10.00" fill="#ffffff">283970×</text>
</g>
<!-- Vector_addArray&#45;&gt;Vector2_addArray -->
<g id="edge16" class="edge">
<title>Vector_addArray&#45;&gt;Vector2_addArray</title>
<path fill="none" stroke="#0d1c77" stroke-width=".5" d="M404.8557,-205.7562C406.9505,-194.3998 409.324,-181.5328 411.4721,-169.888"/>
<polygon fill="#0d1c77" stroke="#0d1c77" stroke-width=".5" points="412.7006,-169.9805 412.131,-166.3163 410.2913,-169.536 412.7006,-169.9805"/>
<text text-anchor="middle" x="430" y="-189" font-family="Arial" font-size="10.00" fill="#0d1c77">3.56%</text>
<text text-anchor="middle" x="430" y="-178" font-family="Arial" font-size="10.00" fill="#0d1c77">283970×</text>
</g>
<!-- Resolution_generateOldKernelAndComputeNewKernel -->
<g id="node16" class="node">
<title>Resolution_generateOldKernelAndComputeNewKernel</title>
<polygon fill="#ff0100" stroke="#ff0100" points="513.5,-681 262.5,-681 262.5,-618 513.5,-618 513.5,-681"/>
<text text-anchor="middle" x="388" y="-669" font-family="Arial" font-size="10.00" fill="#ffffff">csteen</text>
<text text-anchor="middle" x="388" y="-658" font-family="Arial" font-size="10.00" fill="#ffffff">Resolution_generateOldKernelAndComputeNewKernel</text>
<text text-anchor="middle" x="388" y="-647" font-family="Arial" font-size="10.00" fill="#ffffff">99.89%</text>
<text text-anchor="middle" x="388" y="-636" font-family="Arial" font-size="10.00" fill="#ffffff">(0.09%)</text>
<text text-anchor="middle" x="388" y="-625" font-family="Arial" font-size="10.00" fill="#ffffff">1275×</text>
</g>
<!-- Resolution_generateOldKernelAndComputeNewKernel&#45;&gt;FreeModuleHomomorphism_getMatrix -->
<g id="edge13" class="edge">
<title>Resolution_generateOldKernelAndComputeNewKernel&#45;&gt;FreeModuleHomomorphism_getMatrix</title>
<path fill="none" stroke="#0b9f6b" stroke-width="1.35" d="M367.6593,-617.7562C360.6961,-606.8893 352.8465,-594.6393 345.6449,-583.4004"/>
<polygon fill="#0b9f6b" stroke="#0b9f6b" stroke-width="1.35" points="347.2256,-582.1046 342.3872,-578.3163 343.8072,-584.295 347.2256,-582.1046"/>
<text text-anchor="middle" x="378" y="-601" font-family="Arial" font-size="10.00" fill="#0b9f6b">33.76%</text>
<text text-anchor="middle" x="378" y="-590" font-family="Arial" font-size="10.00" fill="#0b9f6b">1275×</text>
</g>
<!-- rowReduce -->
<g id="node17" class="node">
<title>rowReduce</title>
<polygon fill="#7fcb07" stroke="#7fcb07" points="487.5,-578 422.5,-578 422.5,-515 487.5,-515 487.5,-578"/>
<text text-anchor="middle" x="455" y="-566" font-family="Arial" font-size="10.00" fill="#ffffff">csteen</text>
<text text-anchor="middle" x="455" y="-555" font-family="Arial" font-size="10.00" fill="#ffffff">rowReduce</text>
<text text-anchor="middle" x="455" y="-544" font-family="Arial" font-size="10.00" fill="#ffffff">65.27%</text>
<text text-anchor="middle" x="455" y="-533" font-family="Arial" font-size="10.00" fill="#ffffff">(55.06%)</text>
<text text-anchor="middle" x="455" y="-522" font-family="Arial" font-size="10.00" fill="#ffffff">2550×</text>
</g>
<!-- Resolution_generateOldKernelAndComputeNewKernel&#45;&gt;rowReduce -->
<g id="edge14" class="edge">
<title>Resolution_generateOldKernelAndComputeNewKernel&#45;&gt;rowReduce</title>
<path fill="none" stroke="#7fcb07" stroke-width="2.61" d="M408.6489,-617.7562C415.3355,-607.4767 422.8273,-595.9595 429.8058,-585.2314"/>
<polygon fill="#7fcb07" stroke="#7fcb07" stroke-width="2.61" points="432.2636,-586.6521 434.3039,-578.3163 427.5107,-583.5604 432.2636,-586.6521"/>
<text text-anchor="middle" x="445" y="-601" font-family="Arial" font-size="10.00" fill="#7fcb07">65.27%</text>
<text text-anchor="middle" x="445" y="-590" font-family="Arial" font-size="10.00" fill="#7fcb07">2550×</text>
</g>
<!-- Vector2_add -->
<g id="node19" class="node">
<title>Vector2_add</title>
<polygon fill="#0d3b80" stroke="#0d3b80" points="490.5,-475 419.5,-475 419.5,-412 490.5,-412 490.5,-475"/>
<text text-anchor="middle" x="455" y="-463" font-family="Arial" font-size="10.00" fill="#ffffff">csteen</text>
<text text-anchor="middle" x="455" y="-452" font-family="Arial" font-size="10.00" fill="#ffffff">Vector2_add</text>
<text text-anchor="middle" x="455" y="-441" font-family="Arial" font-size="10.00" fill="#ffffff">10.17%</text>
<text text-anchor="middle" x="455" y="-430" font-family="Arial" font-size="10.00" fill="#ffffff">(10.17%)</text>
<text text-anchor="middle" x="455" y="-419" font-family="Arial" font-size="10.00" fill="#ffffff">2153035×</text>
</g>
<!-- rowReduce&#45;&gt;Vector2_add -->
<g id="edge19" class="edge">
<title>rowReduce&#45;&gt;Vector2_add</title>
<path fill="none" stroke="#0d3b80" stroke-width=".5" d="M455,-514.7562C455,-503.3998 455,-490.5328 455,-478.888"/>
<polygon fill="#0d3b80" stroke="#0d3b80" stroke-width=".5" points="456.2251,-478.8163 455,-475.3163 453.7751,-478.8164 456.2251,-478.8163"/>
<text text-anchor="middle" x="476.5" y="-498" font-family="Arial" font-size="10.00" fill="#0d3b80">10.17%</text>
<text text-anchor="middle" x="476.5" y="-487" font-family="Arial" font-size="10.00" fill="#0d3b80">2153035×</text>
</g>
<!-- Resolution_step&#45;&gt;Resolution_generateOldKernelAndComputeNewKernel -->
<g id="edge15" class="edge">
<title>Resolution_step&#45;&gt;Resolution_generateOldKernelAndComputeNewKernel</title>
<path fill="none" stroke="#ff0100" stroke-width="4" d="M388,-720.7562C388,-711.5536 388,-701.3591 388,-691.6267"/>
<polygon fill="#ff0100" stroke="#ff0100" stroke-width="4" points="391.5001,-691.3163 388,-681.3163 384.5001,-691.3164 391.5001,-691.3163"/>
<text text-anchor="middle" x="405" y="-704" font-family="Arial" font-size="10.00" fill="#ff0100">99.89%</text>
<text text-anchor="middle" x="405" y="-693" font-family="Arial" font-size="10.00" fill="#ff0100">1275×</text>
</g>
</g>
</svg>
