<?xml version="1.0" encoding="UTF-8" standalone="no"?>
<!DOCTYPE svg PUBLIC "-//W3C//DTD SVG 1.1//EN"
 "http://www.w3.org/Graphics/SVG/1.1/DTD/svg11.dtd">
<!-- Generated by graphviz version 2.40.1 (20161225.0304)
 -->
<!-- Title: %3 Pages: 1 -->
<svg width="697pt" height="1616pt"
 viewBox="0.00 0.00 696.50 1616.00" xmlns="http://www.w3.org/2000/svg" xmlns:xlink="http://www.w3.org/1999/xlink">
<g id="graph0" class="graph" transform="scale(1 1) rotate(0) translate(4 1612)">
<title>%3</title>
<polygon fill="#ffffff" stroke="transparent" points="-4,4 -4,-1612 692.5,-1612 692.5,4 -4,4"/>
<!-- (below main) -->
<g id="node1" class="node">
<title>(below main)</title>
<polygon fill="#ff0000" stroke="#ff0000" points="598.5,-1402 527.5,-1402 527.5,-1339 598.5,-1339 598.5,-1402"/>
<text text-anchor="middle" x="563" y="-1390" font-family="Arial" font-size="10.00" fill="#ffffff">libc&#45;2.27.so</text>
<text text-anchor="middle" x="563" y="-1379" font-family="Arial" font-size="10.00" fill="#ffffff">(below main)</text>
<text text-anchor="middle" x="563" y="-1368" font-family="Arial" font-size="10.00" fill="#ffffff">100.00%</text>
<text text-anchor="middle" x="563" y="-1357" font-family="Arial" font-size="10.00" fill="#ffffff">(0.00%)</text>
<text text-anchor="middle" x="563" y="-1346" font-family="Arial" font-size="10.00" fill="#ffffff">1×</text>
</g>
<!-- main -->
<g id="node2" class="node">
<title>main</title>
<polygon fill="#ff0000" stroke="#ff0000" points="590.5,-1299 535.5,-1299 535.5,-1236 590.5,-1236 590.5,-1299"/>
<text text-anchor="middle" x="563" y="-1287" font-family="Arial" font-size="10.00" fill="#ffffff">csteen</text>
<text text-anchor="middle" x="563" y="-1276" font-family="Arial" font-size="10.00" fill="#ffffff">main</text>
<text text-anchor="middle" x="563" y="-1265" font-family="Arial" font-size="10.00" fill="#ffffff">100.00%</text>
<text text-anchor="middle" x="563" y="-1254" font-family="Arial" font-size="10.00" fill="#ffffff">(0.00%)</text>
<text text-anchor="middle" x="563" y="-1243" font-family="Arial" font-size="10.00" fill="#ffffff">1×</text>
</g>
<!-- (below main)&#45;&gt;main -->
<g id="edge1" class="edge">
<title>(below main)&#45;&gt;main</title>
<path fill="none" stroke="#ff0000" stroke-width="4" d="M563,-1338.7562C563,-1329.5536 563,-1319.3591 563,-1309.6267"/>
<polygon fill="#ff0000" stroke="#ff0000" stroke-width="4" points="566.5001,-1309.3163 563,-1299.3163 559.5001,-1309.3164 566.5001,-1309.3163"/>
<text text-anchor="middle" x="582.5" y="-1322" font-family="Arial" font-size="10.00" fill="#ff0000">100.00%</text>
<text text-anchor="middle" x="582.5" y="-1311" font-family="Arial" font-size="10.00" fill="#ff0000">1×</text>
</g>
<!-- Resolution_resolveThroughDegree -->
<g id="node19" class="node">
<title>Resolution_resolveThroughDegree</title>
<polygon fill="#ff0300" stroke="#ff0300" points="645.5,-1196 480.5,-1196 480.5,-1133 645.5,-1133 645.5,-1196"/>
<text text-anchor="middle" x="563" y="-1184" font-family="Arial" font-size="10.00" fill="#ffffff">csteen</text>
<text text-anchor="middle" x="563" y="-1173" font-family="Arial" font-size="10.00" fill="#ffffff">Resolution_resolveThroughDegree</text>
<text text-anchor="middle" x="563" y="-1162" font-family="Arial" font-size="10.00" fill="#ffffff">99.72%</text>
<text text-anchor="middle" x="563" y="-1151" font-family="Arial" font-size="10.00" fill="#ffffff">(0.00%)</text>
<text text-anchor="middle" x="563" y="-1140" font-family="Arial" font-size="10.00" fill="#ffffff">1×</text>
</g>
<!-- main&#45;&gt;Resolution_resolveThroughDegree -->
<g id="edge32" class="edge">
<title>main&#45;&gt;Resolution_resolveThroughDegree</title>
<path fill="none" stroke="#ff0300" stroke-width="3.99" d="M563,-1235.7562C563,-1226.5536 563,-1216.3591 563,-1206.6267"/>
<polygon fill="#ff0300" stroke="#ff0300" stroke-width="3.99" points="566.5001,-1206.3163 563,-1196.3163 559.5001,-1206.3164 566.5001,-1206.3163"/>
<text text-anchor="middle" x="580" y="-1219" font-family="Arial" font-size="10.00" fill="#ff0300">99.72%</text>
<text text-anchor="middle" x="580" y="-1208" font-family="Arial" font-size="10.00" fill="#ff0300">1×</text>
</g>
<!-- 0x0000000000000f60 -->
<g id="node3" class="node">
<title>0x0000000000000f60</title>
<polygon fill="#ff0000" stroke="#ff0000" points="617.5,-1608 508.5,-1608 508.5,-1545 617.5,-1545 617.5,-1608"/>
<text text-anchor="middle" x="563" y="-1596" font-family="Arial" font-size="10.00" fill="#ffffff">ld&#45;2.27.so</text>
<text text-anchor="middle" x="563" y="-1585" font-family="Arial" font-size="10.00" fill="#ffffff">0x0000000000000f60</text>
<text text-anchor="middle" x="563" y="-1574" font-family="Arial" font-size="10.00" fill="#ffffff">100.00%</text>
<text text-anchor="middle" x="563" y="-1563" font-family="Arial" font-size="10.00" fill="#ffffff">(0.00%)</text>
<text text-anchor="middle" x="563" y="-1552" font-family="Arial" font-size="10.00" fill="#ffffff">0×</text>
</g>
<!-- _start -->
<g id="node4" class="node">
<title>_start</title>
<polygon fill="#ff0000" stroke="#ff0000" points="590.5,-1505 535.5,-1505 535.5,-1442 590.5,-1442 590.5,-1505"/>
<text text-anchor="middle" x="563" y="-1493" font-family="Arial" font-size="10.00" fill="#ffffff">csteen</text>
<text text-anchor="middle" x="563" y="-1482" font-family="Arial" font-size="10.00" fill="#ffffff">_start</text>
<text text-anchor="middle" x="563" y="-1471" font-family="Arial" font-size="10.00" fill="#ffffff">100.00%</text>
<text text-anchor="middle" x="563" y="-1460" font-family="Arial" font-size="10.00" fill="#ffffff">(0.00%)</text>
<text text-anchor="middle" x="563" y="-1449" font-family="Arial" font-size="10.00" fill="#ffffff">1×</text>
</g>
<!-- 0x0000000000000f60&#45;&gt;_start -->
<g id="edge2" class="edge">
<title>0x0000000000000f60&#45;&gt;_start</title>
<path fill="none" stroke="#ff0000" stroke-width="4" d="M563,-1544.7562C563,-1535.5536 563,-1525.3591 563,-1515.6267"/>
<polygon fill="#ff0000" stroke="#ff0000" stroke-width="4" points="566.5001,-1515.3163 563,-1505.3163 559.5001,-1515.3164 566.5001,-1515.3163"/>
<text text-anchor="middle" x="582.5" y="-1528" font-family="Arial" font-size="10.00" fill="#ff0000">100.00%</text>
<text text-anchor="middle" x="582.5" y="-1517" font-family="Arial" font-size="10.00" fill="#ff0000">1×</text>
</g>
<!-- _start&#45;&gt;(below main) -->
<g id="edge29" class="edge">
<title>_start&#45;&gt;(below main)</title>
<path fill="none" stroke="#ff0000" stroke-width="4" d="M563,-1441.7562C563,-1432.5536 563,-1422.3591 563,-1412.6267"/>
<polygon fill="#ff0000" stroke="#ff0000" stroke-width="4" points="566.5001,-1412.3163 563,-1402.3163 559.5001,-1412.3164 566.5001,-1412.3163"/>
<text text-anchor="middle" x="582.5" y="-1425" font-family="Arial" font-size="10.00" fill="#ff0000">100.00%</text>
<text text-anchor="middle" x="582.5" y="-1414" font-family="Arial" font-size="10.00" fill="#ff0000">1×</text>
</g>
<!-- AdemAlgebra__makeMonoAdmissible2 -->
<g id="node5" class="node">
<title>AdemAlgebra__makeMonoAdmissible2</title>
<polygon fill="#0ba653" stroke="#0ba653" points="333.5,-578 146.5,-578 146.5,-515 333.5,-515 333.5,-578"/>
<text text-anchor="middle" x="240" y="-566" font-family="Arial" font-size="10.00" fill="#ffffff">csteen</text>
<text text-anchor="middle" x="240" y="-555" font-family="Arial" font-size="10.00" fill="#ffffff">AdemAlgebra__makeMonoAdmissible2</text>
<text text-anchor="middle" x="240" y="-544" font-family="Arial" font-size="10.00" fill="#ffffff">38.36%</text>
<text text-anchor="middle" x="240" y="-533" font-family="Arial" font-size="10.00" fill="#ffffff">(0.89%)</text>
<text text-anchor="middle" x="240" y="-522" font-family="Arial" font-size="10.00" fill="#ffffff">4972571×</text>
</g>
<!-- AdemAlgebra__makeMonoAdmissible2&#39;2 -->
<g id="node6" class="node">
<title>AdemAlgebra__makeMonoAdmissible2&#39;2</title>
<polygon fill="#0b9e71" stroke="#0b9e71" points="321,-475 127,-475 127,-412 321,-412 321,-475"/>
<text text-anchor="middle" x="224" y="-463" font-family="Arial" font-size="10.00" fill="#ffffff">csteen</text>
<text text-anchor="middle" x="224" y="-452" font-family="Arial" font-size="10.00" fill="#ffffff">AdemAlgebra__makeMonoAdmissible2&#39;2</text>
<text text-anchor="middle" x="224" y="-441" font-family="Arial" font-size="10.00" fill="#ffffff">32.59%</text>
<text text-anchor="middle" x="224" y="-430" font-family="Arial" font-size="10.00" fill="#ffffff">(4.25%)</text>
<text text-anchor="middle" x="224" y="-419" font-family="Arial" font-size="10.00" fill="#ffffff">21220057×</text>
</g>
<!-- AdemAlgebra__makeMonoAdmissible2&#45;&gt;AdemAlgebra__makeMonoAdmissible2&#39;2 -->
<g id="edge3" class="edge">
<title>AdemAlgebra__makeMonoAdmissible2&#45;&gt;AdemAlgebra__makeMonoAdmissible2&#39;2</title>
<path fill="none" stroke="#0b9e71" stroke-width="1.3" d="M235.0689,-514.7562C233.4113,-504.0851 231.5464,-492.0802 229.8266,-481.0089"/>
<polygon fill="#0b9e71" stroke="#0b9e71" stroke-width="1.3" points="231.7887,-480.6425 228.9423,-475.3163 227.846,-481.255 231.7887,-480.6425"/>
<text text-anchor="middle" x="255.5" y="-498" font-family="Arial" font-size="10.00" fill="#0b9e71">32.59%</text>
<text text-anchor="middle" x="255.5" y="-487" font-family="Arial" font-size="10.00" fill="#0b9e71">4188722×</text>
</g>
<!-- AdemAlgebra_basisElement_fromIndex -->
<g id="node7" class="node">
<title>AdemAlgebra_basisElement_fromIndex</title>
<polygon fill="#0d4282" stroke="#0d4282" points="188,-372 0,-372 0,-309 188,-309 188,-372"/>
<text text-anchor="middle" x="94" y="-360" font-family="Arial" font-size="10.00" fill="#ffffff">csteen</text>
<text text-anchor="middle" x="94" y="-349" font-family="Arial" font-size="10.00" fill="#ffffff">AdemAlgebra_basisElement_fromIndex</text>
<text text-anchor="middle" x="94" y="-338" font-family="Arial" font-size="10.00" fill="#ffffff">11.51%</text>
<text text-anchor="middle" x="94" y="-327" font-family="Arial" font-size="10.00" fill="#ffffff">(0.25%)</text>
<text text-anchor="middle" x="94" y="-316" font-family="Arial" font-size="10.00" fill="#ffffff">31306708×</text>
</g>
<!-- AdemAlgebra__makeMonoAdmissible2&#45;&gt;AdemAlgebra_basisElement_fromIndex -->
<g id="edge4" class="edge">
<title>AdemAlgebra__makeMonoAdmissible2&#45;&gt;AdemAlgebra_basisElement_fromIndex</title>
<path fill="none" stroke="#0d1274" stroke-width=".5" d="M146.1598,-525.4558C119.989,-514.8037 94.5024,-498.8469 79,-475 59.8648,-445.5647 68.1783,-404.6678 78.4165,-375.718"/>
<polygon fill="#0d1274" stroke="#0d1274" stroke-width=".5" points="79.633,-375.9564 79.6729,-372.2484 77.3294,-375.1222 79.633,-375.9564"/>
<text text-anchor="middle" x="100.5" y="-446.5" font-family="Arial" font-size="10.00" fill="#0d1274">1.26%</text>
<text text-anchor="middle" x="100.5" y="-435.5" font-family="Arial" font-size="10.00" fill="#0d1274">4188722×</text>
</g>
<!-- AdemAlgebra_basisElement_toIndex -->
<g id="node8" class="node">
<title>AdemAlgebra_basisElement_toIndex</title>
<polygon fill="#0c7b8e" stroke="#0c7b8e" points="312.5,-269 135.5,-269 135.5,-206 312.5,-206 312.5,-269"/>
<text text-anchor="middle" x="224" y="-257" font-family="Arial" font-size="10.00" fill="#ffffff">csteen</text>
<text text-anchor="middle" x="224" y="-246" font-family="Arial" font-size="10.00" fill="#ffffff">AdemAlgebra_basisElement_toIndex</text>
<text text-anchor="middle" x="224" y="-235" font-family="Arial" font-size="10.00" fill="#ffffff">21.25%</text>
<text text-anchor="middle" x="224" y="-224" font-family="Arial" font-size="10.00" fill="#ffffff">(0.54%)</text>
<text text-anchor="middle" x="224" y="-213" font-family="Arial" font-size="10.00" fill="#ffffff">57817556×</text>
</g>
<!-- AdemAlgebra__makeMonoAdmissible2&#45;&gt;AdemAlgebra_basisElement_toIndex -->
<g id="edge5" class="edge">
<title>AdemAlgebra__makeMonoAdmissible2&#45;&gt;AdemAlgebra_basisElement_toIndex</title>
<path fill="none" stroke="#0d1274" stroke-width=".5" d="M327.2852,-514.8874C356.4924,-502.4142 383.7563,-487.988 392,-475 407.0048,-451.3599 396.3509,-439.6599 392,-412 382.2808,-350.2119 327.1461,-301.3176 282.649,-271.1916"/>
<polygon fill="#0d1274" stroke="#0d1274" stroke-width=".5" points="283.3227,-270.1684 279.734,-269.2344 281.957,-272.2025 283.3227,-270.1684"/>
<text text-anchor="middle" x="412.5" y="-395" font-family="Arial" font-size="10.00" fill="#0d1274">1.30%</text>
<text text-anchor="middle" x="412.5" y="-384" font-family="Arial" font-size="10.00" fill="#0d1274">4972571×</text>
</g>
<!-- Vector_stepIterator -->
<g id="node9" class="node">
<title>Vector_stepIterator</title>
<polygon fill="#0baa3f" stroke="#0baa3f" points="546.5,-372 447.5,-372 447.5,-309 546.5,-309 546.5,-372"/>
<text text-anchor="middle" x="497" y="-360" font-family="Arial" font-size="10.00" fill="#ffffff">csteen</text>
<text text-anchor="middle" x="497" y="-349" font-family="Arial" font-size="10.00" fill="#ffffff">Vector_stepIterator</text>
<text text-anchor="middle" x="497" y="-338" font-family="Arial" font-size="10.00" fill="#ffffff">41.75%</text>
<text text-anchor="middle" x="497" y="-327" font-family="Arial" font-size="10.00" fill="#ffffff">(32.72%)</text>
<text text-anchor="middle" x="497" y="-316" font-family="Arial" font-size="10.00" fill="#ffffff">2540780828×</text>
</g>
<!-- AdemAlgebra__makeMonoAdmissible2&#45;&gt;Vector_stepIterator -->
<g id="edge6" class="edge">
<title>AdemAlgebra__makeMonoAdmissible2&#45;&gt;Vector_stepIterator</title>
<path fill="none" stroke="#0d1676" stroke-width=".5" d="M333.7717,-516.8997C336.5378,-516.2327 339.2849,-515.5973 342,-515 356.6718,-511.7725 397.133,-515.2115 409,-506 444.5968,-478.3687 425.5062,-451.606 447,-412 453.7937,-399.4815 462.3424,-386.5128 470.4403,-375.1136"/>
<polygon fill="#0d1676" stroke="#0d1676" stroke-width=".5" points="471.4483,-375.81 472.488,-372.2505 469.4555,-374.3847 471.4483,-375.81"/>
<text text-anchor="middle" x="474" y="-446.5" font-family="Arial" font-size="10.00" fill="#0d1676">2.24%</text>
<text text-anchor="middle" x="474" y="-435.5" font-family="Arial" font-size="10.00" fill="#0d1676">138837919×</text>
</g>
<!-- AdemAlgebra__makeMonoAdmissible2&#39;2&#45;&gt;AdemAlgebra__makeMonoAdmissible2&#39;2 -->
<g id="edge7" class="edge">
<title>AdemAlgebra__makeMonoAdmissible2&#39;2&#45;&gt;AdemAlgebra__makeMonoAdmissible2&#39;2</title>
<path fill="none" stroke="#0b9e71" stroke-width="1.3" d="M321.2657,-449.8257C326.7382,-448.2941 330,-446.1855 330,-443.5 330,-441.9055 328.8501,-440.5143 326.7703,-439.3266"/>
<polygon fill="#0b9e71" stroke="#0b9e71" stroke-width="1.3" points="327.3009,-437.392 321.2657,-437.1743 325.8478,-441.1081 327.3009,-437.392"/>
<text text-anchor="middle" x="354.5" y="-441" font-family="Arial" font-size="10.00" fill="#0b9e71">17031335×</text>
</g>
<!-- AdemAlgebra__makeMonoAdmissible2&#39;2&#45;&gt;AdemAlgebra_basisElement_fromIndex -->
<g id="edge8" class="edge">
<title>AdemAlgebra__makeMonoAdmissible2&#39;2&#45;&gt;AdemAlgebra_basisElement_fromIndex</title>
<path fill="none" stroke="#0d2e7c" stroke-width=".5" d="M179.7483,-411.9721C175.7466,-408.9782 171.7804,-405.9567 168,-403 156.5214,-394.0224 144.3347,-383.9612 133.2346,-374.5787"/>
<polygon fill="#0d2e7c" stroke="#0d2e7c" stroke-width=".5" points="133.8995,-373.5365 130.437,-372.209 132.3159,-375.406 133.8995,-373.5365"/>
<text text-anchor="middle" x="192.5" y="-395" font-family="Arial" font-size="10.00" fill="#0d2e7c">7.44%</text>
<text text-anchor="middle" x="192.5" y="-384" font-family="Arial" font-size="10.00" fill="#0d2e7c">17031335×</text>
</g>
<!-- AdemAlgebra__makeMonoAdmissible2&#39;2&#45;&gt;AdemAlgebra_basisElement_toIndex -->
<g id="edge9" class="edge">
<title>AdemAlgebra__makeMonoAdmissible2&#39;2&#45;&gt;AdemAlgebra_basisElement_toIndex</title>
<path fill="none" stroke="#0d347e" stroke-width=".5" d="M224,-411.764C224,-374.2625 224,-312.0398 224,-272.9783"/>
<polygon fill="#0d347e" stroke="#0d347e" stroke-width=".5" points="225.2251,-272.7721 224,-269.2721 222.7751,-272.7721 225.2251,-272.7721"/>
<text text-anchor="middle" x="248.5" y="-343.5" font-family="Arial" font-size="10.00" fill="#0d347e">8.63%</text>
<text text-anchor="middle" x="248.5" y="-332.5" font-family="Arial" font-size="10.00" fill="#0d347e">21220057×</text>
</g>
<!-- AdemAlgebra__makeMonoAdmissible2&#39;2&#45;&gt;Vector_stepIterator -->
<g id="edge10" class="edge">
<title>AdemAlgebra__makeMonoAdmissible2&#39;2&#45;&gt;Vector_stepIterator</title>
<path fill="none" stroke="#0d4482" stroke-width=".5" d="M270.7417,-411.9127C288.6725,-400.89 309.7081,-389.2307 330,-381 366.6766,-366.1234 410.189,-355.7891 443.6023,-349.2844"/>
<polygon fill="#0d4482" stroke="#0d4482" stroke-width=".5" points="444.0087,-350.4537 447.2137,-348.5886 443.5451,-348.0479 444.0087,-350.4537"/>
<text text-anchor="middle" x="357" y="-395" font-family="Arial" font-size="10.00" fill="#0d4482">11.83%</text>
<text text-anchor="middle" x="357" y="-384" font-family="Arial" font-size="10.00" fill="#0d4482">721988733×</text>
</g>
<!-- AdemAlgebra_basisElement_fromIndex&#45;&gt;AdemAlgebra_basisElement_toIndex -->
<g id="edge11" class="edge">
<title>AdemAlgebra_basisElement_fromIndex&#45;&gt;AdemAlgebra_basisElement_toIndex</title>
<path fill="none" stroke="#0d4181" stroke-width=".5" d="M130.437,-308.791C142.2641,-298.7518 155.5487,-287.7384 168,-278 170.8353,-275.7825 173.7751,-273.5285 176.756,-271.277"/>
<polygon fill="#0d4181" stroke="#0d4181" stroke-width=".5" points="177.6865,-272.1101 179.7483,-269.0279 176.2144,-270.1517 177.6865,-272.1101"/>
<text text-anchor="middle" x="192.5" y="-292" font-family="Arial" font-size="10.00" fill="#0d4181">11.25%</text>
<text text-anchor="middle" x="192.5" y="-281" font-family="Arial" font-size="10.00" fill="#0d4181">31306708×</text>
</g>
<!-- AdemAlgebra_basisElement_toKey -->
<g id="node10" class="node">
<title>AdemAlgebra_basisElement_toKey</title>
<polygon fill="#0d1d78" stroke="#0d1d78" points="278,-166 108,-166 108,-103 278,-103 278,-166"/>
<text text-anchor="middle" x="193" y="-154" font-family="Arial" font-size="10.00" fill="#ffffff">csteen</text>
<text text-anchor="middle" x="193" y="-143" font-family="Arial" font-size="10.00" fill="#ffffff">AdemAlgebra_basisElement_toKey</text>
<text text-anchor="middle" x="193" y="-132" font-family="Arial" font-size="10.00" fill="#ffffff">3.77%</text>
<text text-anchor="middle" x="193" y="-121" font-family="Arial" font-size="10.00" fill="#ffffff">(3.64%)</text>
<text text-anchor="middle" x="193" y="-110" font-family="Arial" font-size="10.00" fill="#ffffff">57826534×</text>
</g>
<!-- AdemAlgebra_basisElement_toIndex&#45;&gt;AdemAlgebra_basisElement_toKey -->
<g id="edge12" class="edge">
<title>AdemAlgebra_basisElement_toIndex&#45;&gt;AdemAlgebra_basisElement_toKey</title>
<path fill="none" stroke="#0d1d78" stroke-width=".5" d="M214.446,-205.7562C211.0281,-194.3998 207.1555,-181.5328 203.6508,-169.888"/>
<polygon fill="#0d1d78" stroke="#0d1d78" stroke-width=".5" points="204.7576,-169.3148 202.5758,-166.3163 202.4115,-170.0209 204.7576,-169.3148"/>
<text text-anchor="middle" x="236.5" y="-189" font-family="Arial" font-size="10.00" fill="#0d1d78">3.77%</text>
<text text-anchor="middle" x="236.5" y="-178" font-family="Arial" font-size="10.00" fill="#0d1d78">57817556×</text>
</g>
<!-- kh_get_monomial_index_map -->
<g id="node11" class="node">
<title>kh_get_monomial_index_map</title>
<polygon fill="#0c6189" stroke="#0c6189" points="433,-166 287,-166 287,-103 433,-103 433,-166"/>
<text text-anchor="middle" x="360" y="-154" font-family="Arial" font-size="10.00" fill="#ffffff">csteen</text>
<text text-anchor="middle" x="360" y="-143" font-family="Arial" font-size="10.00" fill="#ffffff">kh_get_monomial_index_map</text>
<text text-anchor="middle" x="360" y="-132" font-family="Arial" font-size="10.00" fill="#ffffff">16.94%</text>
<text text-anchor="middle" x="360" y="-121" font-family="Arial" font-size="10.00" fill="#ffffff">(9.60%)</text>
<text text-anchor="middle" x="360" y="-110" font-family="Arial" font-size="10.00" fill="#ffffff">57817556×</text>
</g>
<!-- AdemAlgebra_basisElement_toIndex&#45;&gt;kh_get_monomial_index_map -->
<g id="edge13" class="edge">
<title>AdemAlgebra_basisElement_toIndex&#45;&gt;kh_get_monomial_index_map</title>
<path fill="none" stroke="#0c6189" stroke-width=".68" d="M265.9142,-205.7562C281.2968,-194.1061 298.7785,-180.8663 314.4638,-168.987"/>
<polygon fill="#0c6189" stroke="#0c6189" stroke-width=".68" points="315.588,-169.9357 317.9901,-166.3163 313.8553,-167.6478 315.588,-169.9357"/>
<text text-anchor="middle" x="329.5" y="-189" font-family="Arial" font-size="10.00" fill="#0c6189">16.94%</text>
<text text-anchor="middle" x="329.5" y="-178" font-family="Arial" font-size="10.00" fill="#0c6189">57817556×</text>
</g>
<!-- getBitlength -->
<g id="node22" class="node">
<title>getBitlength</title>
<polygon fill="#0d2179" stroke="#0d2179" points="638.5,-269 563.5,-269 563.5,-206 638.5,-206 638.5,-269"/>
<text text-anchor="middle" x="601" y="-257" font-family="Arial" font-size="10.00" fill="#ffffff">csteen</text>
<text text-anchor="middle" x="601" y="-246" font-family="Arial" font-size="10.00" fill="#ffffff">getBitlength</text>
<text text-anchor="middle" x="601" y="-235" font-family="Arial" font-size="10.00" fill="#ffffff">4.69%</text>
<text text-anchor="middle" x="601" y="-224" font-family="Arial" font-size="10.00" fill="#ffffff">(4.69%)</text>
<text text-anchor="middle" x="601" y="-213" font-family="Arial" font-size="10.00" fill="#ffffff">2623120981×</text>
</g>
<!-- Vector_stepIterator&#45;&gt;getBitlength -->
<g id="edge28" class="edge">
<title>Vector_stepIterator&#45;&gt;getBitlength</title>
<path fill="none" stroke="#0d2079" stroke-width=".5" d="M537.7641,-308.9682C540.6857,-306.0689 543.4718,-303.065 546,-300 553.0872,-291.408 551.1947,-286.8169 558,-278 559.5508,-275.9907 561.2037,-273.9914 562.9245,-272.0189"/>
<polygon fill="#0d2079" stroke="#0d2079" stroke-width=".5" points="563.8924,-272.7741 565.3097,-269.3474 562.0649,-271.1424 563.8924,-272.7741"/>
<text text-anchor="middle" x="587.5" y="-292" font-family="Arial" font-size="10.00" fill="#0d2079">4.52%</text>
<text text-anchor="middle" x="587.5" y="-281" font-family="Arial" font-size="10.00" fill="#0d2079">2527672569×</text>
</g>
<!-- getBitMask -->
<g id="node24" class="node">
<title>getBitMask</title>
<polygon fill="#0d2079" stroke="#0d2079" points="523.5,-269 448.5,-269 448.5,-206 523.5,-206 523.5,-269"/>
<text text-anchor="middle" x="486" y="-257" font-family="Arial" font-size="10.00" fill="#ffffff">csteen</text>
<text text-anchor="middle" x="486" y="-246" font-family="Arial" font-size="10.00" fill="#ffffff">getBitMask</text>
<text text-anchor="middle" x="486" y="-235" font-family="Arial" font-size="10.00" fill="#ffffff">4.54%</text>
<text text-anchor="middle" x="486" y="-224" font-family="Arial" font-size="10.00" fill="#ffffff">(4.54%)</text>
<text text-anchor="middle" x="486" y="-213" font-family="Arial" font-size="10.00" fill="#ffffff">2541251292×</text>
</g>
<!-- Vector_stepIterator&#45;&gt;getBitMask -->
<g id="edge27" class="edge">
<title>Vector_stepIterator&#45;&gt;getBitMask</title>
<path fill="none" stroke="#0d2079" stroke-width=".5" d="M490.2669,-308.735C489.7816,-305.7909 489.3474,-302.8457 489,-300 487.9287,-291.2252 487.2353,-281.7138 486.7879,-272.8207"/>
<polygon fill="#0d2079" stroke="#0d2079" stroke-width=".5" points="487.9987,-272.4898 486.6108,-269.0512 485.5514,-272.6049 487.9987,-272.4898"/>
<text text-anchor="middle" x="518.5" y="-292" font-family="Arial" font-size="10.00" fill="#0d2079">4.52%</text>
<text text-anchor="middle" x="518.5" y="-281" font-family="Arial" font-size="10.00" fill="#0d2079">2527672569×</text>
</g>
<!-- __ac_X31_hash_string -->
<g id="node25" class="node">
<title>__ac_X31_hash_string</title>
<polygon fill="#0d1876" stroke="#0d1876" points="352,-63 236,-63 236,0 352,0 352,-63"/>
<text text-anchor="middle" x="294" y="-51" font-family="Arial" font-size="10.00" fill="#ffffff">csteen</text>
<text text-anchor="middle" x="294" y="-40" font-family="Arial" font-size="10.00" fill="#ffffff">__ac_X31_hash_string</text>
<text text-anchor="middle" x="294" y="-29" font-family="Arial" font-size="10.00" fill="#ffffff">2.66%</text>
<text text-anchor="middle" x="294" y="-18" font-family="Arial" font-size="10.00" fill="#ffffff">(2.66%)</text>
<text text-anchor="middle" x="294" y="-7" font-family="Arial" font-size="10.00" fill="#ffffff">57826534×</text>
</g>
<!-- kh_get_monomial_index_map&#45;&gt;__ac_X31_hash_string -->
<g id="edge30" class="edge">
<title>kh_get_monomial_index_map&#45;&gt;__ac_X31_hash_string</title>
<path fill="none" stroke="#0d1876" stroke-width=".5" d="M339.6593,-102.7562C332.2569,-91.204 323.853,-78.0887 316.2906,-66.2868"/>
<polygon fill="#0d1876" stroke="#0d1876" stroke-width=".5" points="317.3069,-65.6023 314.3872,-63.3163 315.2441,-66.9242 317.3069,-65.6023"/>
<text text-anchor="middle" x="357.5" y="-86" font-family="Arial" font-size="10.00" fill="#0d1876">2.66%</text>
<text text-anchor="middle" x="357.5" y="-75" font-family="Arial" font-size="10.00" fill="#0d1876">57817556×</text>
</g>
<!-- __strcmp_sse2_unaligned -->
<g id="node26" class="node">
<title>__strcmp_sse2_unaligned</title>
<polygon fill="#0d2179" stroke="#0d2179" points="491,-63 361,-63 361,0 491,0 491,-63"/>
<text text-anchor="middle" x="426" y="-51" font-family="Arial" font-size="10.00" fill="#ffffff">libc&#45;2.27.so</text>
<text text-anchor="middle" x="426" y="-40" font-family="Arial" font-size="10.00" fill="#ffffff">__strcmp_sse2_unaligned</text>
<text text-anchor="middle" x="426" y="-29" font-family="Arial" font-size="10.00" fill="#ffffff">4.68%</text>
<text text-anchor="middle" x="426" y="-18" font-family="Arial" font-size="10.00" fill="#ffffff">(4.68%)</text>
<text text-anchor="middle" x="426" y="-7" font-family="Arial" font-size="10.00" fill="#ffffff">827061467×</text>
</g>
<!-- kh_get_monomial_index_map&#45;&gt;__strcmp_sse2_unaligned -->
<g id="edge31" class="edge">
<title>kh_get_monomial_index_map&#45;&gt;__strcmp_sse2_unaligned</title>
<path fill="none" stroke="#0d2179" stroke-width=".5" d="M380.3407,-102.7562C387.7431,-91.204 396.147,-78.0887 403.7094,-66.2868"/>
<polygon fill="#0d2179" stroke="#0d2179" stroke-width=".5" points="404.7559,-66.9242 405.6128,-63.3163 402.6931,-65.6023 404.7559,-66.9242"/>
<text text-anchor="middle" x="426" y="-86" font-family="Arial" font-size="10.00" fill="#0d2179">4.68%</text>
<text text-anchor="middle" x="426" y="-75" font-family="Arial" font-size="10.00" fill="#0d2179">826933590×</text>
</g>
<!-- AdemAlgebra_getDimension -->
<g id="node12" class="node">
<title>AdemAlgebra_getDimension</title>
<polygon fill="#0d1375" stroke="#0d1375" points="487,-578 347,-578 347,-515 487,-515 487,-578"/>
<text text-anchor="middle" x="417" y="-566" font-family="Arial" font-size="10.00" fill="#ffffff">csteen</text>
<text text-anchor="middle" x="417" y="-555" font-family="Arial" font-size="10.00" fill="#ffffff">AdemAlgebra_getDimension</text>
<text text-anchor="middle" x="417" y="-544" font-family="Arial" font-size="10.00" fill="#ffffff">1.40%</text>
<text text-anchor="middle" x="417" y="-533" font-family="Arial" font-size="10.00" fill="#ffffff">(1.40%)</text>
<text text-anchor="middle" x="417" y="-522" font-family="Arial" font-size="10.00" fill="#ffffff">352236242×</text>
</g>
<!-- AdemAlgebra_multiply -->
<g id="node13" class="node">
<title>AdemAlgebra_multiply</title>
<polygon fill="#0baa42" stroke="#0baa42" points="297,-681 183,-681 183,-618 297,-618 297,-681"/>
<text text-anchor="middle" x="240" y="-669" font-family="Arial" font-size="10.00" fill="#ffffff">csteen</text>
<text text-anchor="middle" x="240" y="-658" font-family="Arial" font-size="10.00" fill="#ffffff">AdemAlgebra_multiply</text>
<text text-anchor="middle" x="240" y="-647" font-family="Arial" font-size="10.00" fill="#ffffff">41.33%</text>
<text text-anchor="middle" x="240" y="-636" font-family="Arial" font-size="10.00" fill="#ffffff">(0.16%)</text>
<text text-anchor="middle" x="240" y="-625" font-family="Arial" font-size="10.00" fill="#ffffff">4972571×</text>
</g>
<!-- AdemAlgebra_multiply&#45;&gt;AdemAlgebra__makeMonoAdmissible2 -->
<g id="edge14" class="edge">
<title>AdemAlgebra_multiply&#45;&gt;AdemAlgebra__makeMonoAdmissible2</title>
<path fill="none" stroke="#0ba653" stroke-width="1.53" d="M240,-617.7562C240,-607.2809 240,-595.5203 240,-584.6192"/>
<polygon fill="#0ba653" stroke="#0ba653" stroke-width="1.53" points="242.1701,-584.5163 240,-578.3163 237.8301,-584.5164 242.1701,-584.5163"/>
<text text-anchor="middle" x="261.5" y="-601" font-family="Arial" font-size="10.00" fill="#0ba653">38.36%</text>
<text text-anchor="middle" x="261.5" y="-590" font-family="Arial" font-size="10.00" fill="#0ba653">4972571×</text>
</g>
<!-- AdemAlgebra_multiply&#45;&gt;AdemAlgebra_basisElement_fromIndex -->
<g id="edge15" class="edge">
<title>AdemAlgebra_multiply&#45;&gt;AdemAlgebra_basisElement_fromIndex</title>
<path fill="none" stroke="#0d1876" stroke-width=".5" d="M182.5707,-625.9259C135.2103,-603.0289 71.2331,-563.2899 42,-506 20.2518,-463.3788 45.5256,-409.917 67.8335,-375.4857"/>
<polygon fill="#0d1876" stroke="#0d1876" stroke-width=".5" points="69.0845,-375.8121 69.9814,-372.214 67.0365,-374.4675 69.0845,-375.8121"/>
<text text-anchor="middle" x="63.5" y="-498" font-family="Arial" font-size="10.00" fill="#0d1876">2.75%</text>
<text text-anchor="middle" x="63.5" y="-487" font-family="Arial" font-size="10.00" fill="#0d1876">9945142×</text>
</g>
<!-- FreeModuleHomomorphism_getMatrix -->
<g id="node14" class="node">
<title>FreeModuleHomomorphism_getMatrix</title>
<polygon fill="#0aaf29" stroke="#0aaf29" points="576,-887 394,-887 394,-824 576,-824 576,-887"/>
<text text-anchor="middle" x="485" y="-875" font-family="Arial" font-size="10.00" fill="#ffffff">csteen</text>
<text text-anchor="middle" x="485" y="-864" font-family="Arial" font-size="10.00" fill="#ffffff">FreeModuleHomomorphism_getMatrix</text>
<text text-anchor="middle" x="485" y="-853" font-family="Arial" font-size="10.00" fill="#ffffff">45.29%</text>
<text text-anchor="middle" x="485" y="-842" font-family="Arial" font-size="10.00" fill="#ffffff">(0.15%)</text>
<text text-anchor="middle" x="485" y="-831" font-family="Arial" font-size="10.00" fill="#ffffff">2850×</text>
</g>
<!-- FreeModuleHomomorphism_getMatrix&#45;&gt;Vector_stepIterator -->
<g id="edge17" class="edge">
<title>FreeModuleHomomorphism_getMatrix&#45;&gt;Vector_stepIterator</title>
<path fill="none" stroke="#0d0f73" stroke-width=".5" d="M496.5835,-823.8338C497.4747,-820.869 498.2987,-817.892 499,-815 505.6142,-787.7263 508,-780.5643 508,-752.5 508,-752.5 508,-752.5 508,-443.5 508,-421.0767 505.3905,-396.0619 502.7135,-376.2995"/>
<polygon fill="#0d0f73" stroke="#0d0f73" stroke-width=".5" points="503.87,-375.719 502.1779,-372.4194 501.443,-376.054 503.87,-375.719"/>
<text text-anchor="middle" x="532.5" y="-601" font-family="Arial" font-size="10.00" fill="#0d0f73">0.45%</text>
<text text-anchor="middle" x="532.5" y="-590" font-family="Arial" font-size="10.00" fill="#0d0f73">27868986×</text>
</g>
<!-- FreeModule_actOnBasis -->
<g id="node15" class="node">
<title>FreeModule_actOnBasis</title>
<polygon fill="#0aae2d" stroke="#0aae2d" points="479,-784 355,-784 355,-721 479,-721 479,-784"/>
<text text-anchor="middle" x="417" y="-772" font-family="Arial" font-size="10.00" fill="#ffffff">csteen</text>
<text text-anchor="middle" x="417" y="-761" font-family="Arial" font-size="10.00" fill="#ffffff">FreeModule_actOnBasis</text>
<text text-anchor="middle" x="417" y="-750" font-family="Arial" font-size="10.00" fill="#ffffff">44.68%</text>
<text text-anchor="middle" x="417" y="-739" font-family="Arial" font-size="10.00" fill="#ffffff">(0.16%)</text>
<text text-anchor="middle" x="417" y="-728" font-family="Arial" font-size="10.00" fill="#ffffff">4972571×</text>
</g>
<!-- FreeModuleHomomorphism_getMatrix&#45;&gt;FreeModule_actOnBasis -->
<g id="edge16" class="edge">
<title>FreeModuleHomomorphism_getMatrix&#45;&gt;FreeModule_actOnBasis</title>
<path fill="none" stroke="#0aae2d" stroke-width="1.79" d="M463.7537,-823.6789C461.8056,-820.7466 459.8646,-817.8194 458,-815 452.591,-806.821 446.8031,-798.0251 441.3312,-789.6891"/>
<polygon fill="#0aae2d" stroke="#0aae2d" stroke-width="1.79" points="443.2379,-788.3204 437.602,-784.0047 439.3165,-790.8931 443.2379,-788.3204"/>
<text text-anchor="middle" x="479.5" y="-807" font-family="Arial" font-size="10.00" fill="#0aae2d">44.68%</text>
<text text-anchor="middle" x="479.5" y="-796" font-family="Arial" font-size="10.00" fill="#0aae2d">4972571×</text>
</g>
<!-- FreeModule_actOnBasis&#45;&gt;AdemAlgebra_multiply -->
<g id="edge18" class="edge">
<title>FreeModule_actOnBasis&#45;&gt;AdemAlgebra_multiply</title>
<path fill="none" stroke="#0baa42" stroke-width="1.65" d="M362.4499,-720.7562C342.6736,-709.2479 320.2313,-696.1883 300.0104,-684.4213"/>
<polygon fill="#0baa42" stroke="#0baa42" stroke-width="1.65" points="301.0282,-682.422 294.37,-681.139 298.7749,-686.2941 301.0282,-682.422"/>
<text text-anchor="middle" x="366.5" y="-704" font-family="Arial" font-size="10.00" fill="#0baa42">41.33%</text>
<text text-anchor="middle" x="366.5" y="-693" font-family="Arial" font-size="10.00" fill="#0baa42">4972571×</text>
</g>
<!-- FreeModule_getDimension -->
<g id="node16" class="node">
<title>FreeModule_getDimension</title>
<polygon fill="#0d1976" stroke="#0d1976" points="483,-681 351,-681 351,-618 483,-618 483,-681"/>
<text text-anchor="middle" x="417" y="-669" font-family="Arial" font-size="10.00" fill="#ffffff">csteen</text>
<text text-anchor="middle" x="417" y="-658" font-family="Arial" font-size="10.00" fill="#ffffff">FreeModule_getDimension</text>
<text text-anchor="middle" x="417" y="-647" font-family="Arial" font-size="10.00" fill="#ffffff">2.85%</text>
<text text-anchor="middle" x="417" y="-636" font-family="Arial" font-size="10.00" fill="#ffffff">(1.54%)</text>
<text text-anchor="middle" x="417" y="-625" font-family="Arial" font-size="10.00" fill="#ffffff">4987201×</text>
</g>
<!-- FreeModule_actOnBasis&#45;&gt;FreeModule_getDimension -->
<g id="edge19" class="edge">
<title>FreeModule_actOnBasis&#45;&gt;FreeModule_getDimension</title>
<path fill="none" stroke="#0d1976" stroke-width=".5" d="M417,-720.7562C417,-709.3998 417,-696.5328 417,-684.888"/>
<polygon fill="#0d1976" stroke="#0d1976" stroke-width=".5" points="418.2251,-684.8163 417,-681.3163 415.7751,-684.8164 418.2251,-684.8163"/>
<text text-anchor="middle" x="438.5" y="-704" font-family="Arial" font-size="10.00" fill="#0d1976">2.85%</text>
<text text-anchor="middle" x="438.5" y="-693" font-family="Arial" font-size="10.00" fill="#0d1976">4972571×</text>
</g>
<!-- FreeModule_getDimension&#45;&gt;AdemAlgebra_getDimension -->
<g id="edge20" class="edge">
<title>FreeModule_getDimension&#45;&gt;AdemAlgebra_getDimension</title>
<path fill="none" stroke="#0d1274" stroke-width=".5" d="M417,-617.7562C417,-606.3998 417,-593.5328 417,-581.888"/>
<polygon fill="#0d1274" stroke="#0d1274" stroke-width=".5" points="418.2251,-581.8163 417,-578.3163 415.7751,-581.8164 418.2251,-581.8163"/>
<text text-anchor="middle" x="444" y="-601" font-family="Arial" font-size="10.00" fill="#0d1274">1.32%</text>
<text text-anchor="middle" x="444" y="-590" font-family="Arial" font-size="10.00" fill="#0d1274">331756797×</text>
</g>
<!-- Resolution_generateOldKernelAndComputeNewKernel -->
<g id="node17" class="node">
<title>Resolution_generateOldKernelAndComputeNewKernel</title>
<polygon fill="#ff0300" stroke="#ff0300" points="688.5,-990 437.5,-990 437.5,-927 688.5,-927 688.5,-990"/>
<text text-anchor="middle" x="563" y="-978" font-family="Arial" font-size="10.00" fill="#ffffff">csteen</text>
<text text-anchor="middle" x="563" y="-967" font-family="Arial" font-size="10.00" fill="#ffffff">Resolution_generateOldKernelAndComputeNewKernel</text>
<text text-anchor="middle" x="563" y="-956" font-family="Arial" font-size="10.00" fill="#ffffff">99.72%</text>
<text text-anchor="middle" x="563" y="-945" font-family="Arial" font-size="10.00" fill="#ffffff">(0.01%)</text>
<text text-anchor="middle" x="563" y="-934" font-family="Arial" font-size="10.00" fill="#ffffff">2850×</text>
</g>
<!-- Resolution_generateOldKernelAndComputeNewKernel&#45;&gt;FreeModuleHomomorphism_getMatrix -->
<g id="edge21" class="edge">
<title>Resolution_generateOldKernelAndComputeNewKernel&#45;&gt;FreeModuleHomomorphism_getMatrix</title>
<path fill="none" stroke="#0aaf29" stroke-width="1.81" d="M538.961,-926.7562C530.8059,-915.9872 521.622,-903.8599 513.1742,-892.7044"/>
<polygon fill="#0aaf29" stroke="#0aaf29" stroke-width="1.81" points="515.0083,-891.2419 509.0939,-887.3163 511.2694,-894.0733 515.0083,-891.2419"/>
<text text-anchor="middle" x="548" y="-910" font-family="Arial" font-size="10.00" fill="#0aaf29">45.29%</text>
<text text-anchor="middle" x="548" y="-899" font-family="Arial" font-size="10.00" fill="#0aaf29">2850×</text>
</g>
<!-- rowReduce -->
<g id="node18" class="node">
<title>rowReduce</title>
<polygon fill="#28bc09" stroke="#28bc09" points="622.5,-578 557.5,-578 557.5,-515 622.5,-515 622.5,-578"/>
<text text-anchor="middle" x="590" y="-566" font-family="Arial" font-size="10.00" fill="#ffffff">csteen</text>
<text text-anchor="middle" x="590" y="-555" font-family="Arial" font-size="10.00" fill="#ffffff">rowReduce</text>
<text text-anchor="middle" x="590" y="-544" font-family="Arial" font-size="10.00" fill="#ffffff">54.30%</text>
<text text-anchor="middle" x="590" y="-533" font-family="Arial" font-size="10.00" fill="#ffffff">(13.07%)</text>
<text text-anchor="middle" x="590" y="-522" font-family="Arial" font-size="10.00" fill="#ffffff">5700×</text>
</g>
<!-- Resolution_generateOldKernelAndComputeNewKernel&#45;&gt;rowReduce -->
<g id="edge22" class="edge">
<title>Resolution_generateOldKernelAndComputeNewKernel&#45;&gt;rowReduce</title>
<path fill="none" stroke="#28bc09" stroke-width="2.17" d="M575.8674,-926.5886C582.8215,-906.5236 590,-879.9017 590,-855.5 590,-855.5 590,-855.5 590,-649.5 590,-628.3462 590,-604.7487 590,-585.4829"/>
<polygon fill="#28bc09" stroke="#28bc09" stroke-width="2.17" points="592.5901,-585.4555 590,-578.0555 587.4101,-585.4556 592.5901,-585.4555"/>
<text text-anchor="middle" x="607" y="-755.5" font-family="Arial" font-size="10.00" fill="#28bc09">54.30%</text>
<text text-anchor="middle" x="607" y="-744.5" font-family="Arial" font-size="10.00" fill="#28bc09">5700×</text>
</g>
<!-- rowReduce&#45;&gt;Vector_stepIterator -->
<g id="edge34" class="edge">
<title>rowReduce&#45;&gt;Vector_stepIterator</title>
<path fill="none" stroke="#0c968a" stroke-width="1.09" d="M561.5583,-514.9342C552.2002,-503.1163 542.5316,-489.1179 536,-475 518.0256,-436.1488 528.4256,-421.6478 515,-381 514.5777,-379.7214 514.129,-378.4284 513.6595,-377.1288"/>
<polygon fill="#0c968a" stroke="#0c968a" stroke-width="1.09" points="515.2997,-376.3206 511.7574,-372.101 511.8952,-377.6086 515.2997,-376.3206"/>
<text text-anchor="middle" x="565.5" y="-446.5" font-family="Arial" font-size="10.00" fill="#0c968a">27.15%</text>
<text text-anchor="middle" x="565.5" y="-435.5" font-family="Arial" font-size="10.00" fill="#0c968a">1647227783×</text>
</g>
<!-- Vector_add -->
<g id="node23" class="node">
<title>Vector_add</title>
<polygon fill="#0c5085" stroke="#0c5085" points="664.5,-475 599.5,-475 599.5,-412 664.5,-412 664.5,-475"/>
<text text-anchor="middle" x="632" y="-463" font-family="Arial" font-size="10.00" fill="#ffffff">csteen</text>
<text text-anchor="middle" x="632" y="-452" font-family="Arial" font-size="10.00" fill="#ffffff">Vector_add</text>
<text text-anchor="middle" x="632" y="-441" font-family="Arial" font-size="10.00" fill="#ffffff">14.07%</text>
<text text-anchor="middle" x="632" y="-430" font-family="Arial" font-size="10.00" fill="#ffffff">(0.21%)</text>
<text text-anchor="middle" x="632" y="-419" font-family="Arial" font-size="10.00" fill="#ffffff">61506529×</text>
</g>
<!-- rowReduce&#45;&gt;Vector_add -->
<g id="edge33" class="edge">
<title>rowReduce&#45;&gt;Vector_add</title>
<path fill="none" stroke="#0c5085" stroke-width=".56" d="M602.9441,-514.7562C607.5748,-503.3998 612.8216,-490.5328 617.5699,-478.888"/>
<polygon fill="#0c5085" stroke="#0c5085" stroke-width=".56" points="618.8284,-479.2314 619.0264,-475.3163 616.4301,-478.2535 618.8284,-479.2314"/>
<text text-anchor="middle" x="639.5" y="-498" font-family="Arial" font-size="10.00" fill="#0c5085">14.06%</text>
<text text-anchor="middle" x="639.5" y="-487" font-family="Arial" font-size="10.00" fill="#0c5085">61187483×</text>
</g>
<!-- Resolution_step -->
<g id="node20" class="node">
<title>Resolution_step</title>
<polygon fill="#ff0300" stroke="#ff0300" points="606,-1093 520,-1093 520,-1030 606,-1030 606,-1093"/>
<text text-anchor="middle" x="563" y="-1081" font-family="Arial" font-size="10.00" fill="#ffffff">csteen</text>
<text text-anchor="middle" x="563" y="-1070" font-family="Arial" font-size="10.00" fill="#ffffff">Resolution_step</text>
<text text-anchor="middle" x="563" y="-1059" font-family="Arial" font-size="10.00" fill="#ffffff">99.72%</text>
<text text-anchor="middle" x="563" y="-1048" font-family="Arial" font-size="10.00" fill="#ffffff">(0.00%)</text>
<text text-anchor="middle" x="563" y="-1037" font-family="Arial" font-size="10.00" fill="#ffffff">2850×</text>
</g>
<!-- Resolution_resolveThroughDegree&#45;&gt;Resolution_step -->
<g id="edge23" class="edge">
<title>Resolution_resolveThroughDegree&#45;&gt;Resolution_step</title>
<path fill="none" stroke="#ff0300" stroke-width="3.99" d="M563,-1132.7562C563,-1123.5536 563,-1113.3591 563,-1103.6267"/>
<polygon fill="#ff0300" stroke="#ff0300" stroke-width="3.99" points="566.5001,-1103.3163 563,-1093.3163 559.5001,-1103.3164 566.5001,-1103.3163"/>
<text text-anchor="middle" x="580" y="-1116" font-family="Arial" font-size="10.00" fill="#ff0300">99.72%</text>
<text text-anchor="middle" x="580" y="-1105" font-family="Arial" font-size="10.00" fill="#ff0300">2850×</text>
</g>
<!-- Resolution_step&#45;&gt;Resolution_generateOldKernelAndComputeNewKernel -->
<g id="edge24" class="edge">
<title>Resolution_step&#45;&gt;Resolution_generateOldKernelAndComputeNewKernel</title>
<path fill="none" stroke="#ff0300" stroke-width="3.99" d="M563,-1029.7562C563,-1020.5536 563,-1010.3591 563,-1000.6267"/>
<polygon fill="#ff0300" stroke="#ff0300" stroke-width="3.99" points="566.5001,-1000.3163 563,-990.3163 559.5001,-1000.3164 566.5001,-1000.3163"/>
<text text-anchor="middle" x="580" y="-1013" font-family="Arial" font-size="10.00" fill="#ff0300">99.72%</text>
<text text-anchor="middle" x="580" y="-1002" font-family="Arial" font-size="10.00" fill="#ff0300">2850×</text>
</g>
<!-- Vector2_add -->
<g id="node21" class="node">
<title>Vector2_add</title>
<polygon fill="#0d4f85" stroke="#0d4f85" points="667.5,-372 596.5,-372 596.5,-309 667.5,-309 667.5,-372"/>
<text text-anchor="middle" x="632" y="-360" font-family="Arial" font-size="10.00" fill="#ffffff">csteen</text>
<text text-anchor="middle" x="632" y="-349" font-family="Arial" font-size="10.00" fill="#ffffff">Vector2_add</text>
<text text-anchor="middle" x="632" y="-338" font-family="Arial" font-size="10.00" fill="#ffffff">13.87%</text>
<text text-anchor="middle" x="632" y="-327" font-family="Arial" font-size="10.00" fill="#ffffff">(13.76%)</text>
<text text-anchor="middle" x="632" y="-316" font-family="Arial" font-size="10.00" fill="#ffffff">61506529×</text>
</g>
<!-- Vector2_add&#45;&gt;getBitlength -->
<g id="edge25" class="edge">
<title>Vector2_add&#45;&gt;getBitlength</title>
<path fill="none" stroke="#0d0d73" stroke-width=".5" d="M626.7443,-308.6841C624.7403,-298.7415 622.1605,-287.8106 619,-278 618.4102,-276.1691 617.7639,-274.3095 617.0778,-272.4443"/>
<polygon fill="#0d0d73" stroke="#0d0d73" stroke-width=".5" points="618.1905,-271.9237 615.8034,-269.086 615.8999,-272.793 618.1905,-271.9237"/>
<text text-anchor="middle" x="649.5" y="-292" font-family="Arial" font-size="10.00" fill="#0d0d73">0.11%</text>
<text text-anchor="middle" x="649.5" y="-281" font-family="Arial" font-size="10.00" fill="#0d0d73">61506529×</text>
</g>
<!-- Vector_add&#45;&gt;Vector2_add -->
<g id="edge26" class="edge">
<title>Vector_add&#45;&gt;Vector2_add</title>
<path fill="none" stroke="#0d4f85" stroke-width=".55" d="M632,-411.7562C632,-400.4977 632,-387.7546 632,-376.1894"/>
<polygon fill="#0d4f85" stroke="#0d4f85" stroke-width=".55" points="633.2951,-376.0163 632,-372.3163 630.7051,-376.0164 633.2951,-376.0163"/>
<text text-anchor="middle" x="656.5" y="-395" font-family="Arial" font-size="10.00" fill="#0d4f85">13.87%</text>
<text text-anchor="middle" x="656.5" y="-384" font-family="Arial" font-size="10.00" fill="#0d4f85">61506529×</text>
</g>
</g>
</svg>
