<?xml version="1.0" encoding="UTF-8" standalone="no"?>
<!DOCTYPE svg PUBLIC "-//W3C//DTD SVG 1.1//EN"
 "http://www.w3.org/Graphics/SVG/1.1/DTD/svg11.dtd">
<!-- Generated by graphviz version 2.40.1 (20161225.0304)
 -->
<!-- Title: %3 Pages: 1 -->
<svg width="678pt" height="1616pt"
 viewBox="0.00 0.00 677.50 1616.00" xmlns="http://www.w3.org/2000/svg" xmlns:xlink="http://www.w3.org/1999/xlink">
<g id="graph0" class="graph" transform="scale(1 1) rotate(0) translate(4 1612)">
<title>%3</title>
<polygon fill="#ffffff" stroke="transparent" points="-4,4 -4,-1612 673.5,-1612 673.5,4 -4,4"/>
<!-- (below main) -->
<g id="node1" class="node">
<title>(below main)</title>
<polygon fill="#ff0000" stroke="#ff0000" points="579.5,-1402 508.5,-1402 508.5,-1339 579.5,-1339 579.5,-1402"/>
<text text-anchor="middle" x="544" y="-1390" font-family="Arial" font-size="10.00" fill="#ffffff">libc&#45;2.27.so</text>
<text text-anchor="middle" x="544" y="-1379" font-family="Arial" font-size="10.00" fill="#ffffff">(below main)</text>
<text text-anchor="middle" x="544" y="-1368" font-family="Arial" font-size="10.00" fill="#ffffff">100.00%</text>
<text text-anchor="middle" x="544" y="-1357" font-family="Arial" font-size="10.00" fill="#ffffff">(0.00%)</text>
<text text-anchor="middle" x="544" y="-1346" font-family="Arial" font-size="10.00" fill="#ffffff">1×</text>
</g>
<!-- main -->
<g id="node2" class="node">
<title>main</title>
<polygon fill="#ff0000" stroke="#ff0000" points="571.5,-1299 516.5,-1299 516.5,-1236 571.5,-1236 571.5,-1299"/>
<text text-anchor="middle" x="544" y="-1287" font-family="Arial" font-size="10.00" fill="#ffffff">csteen</text>
<text text-anchor="middle" x="544" y="-1276" font-family="Arial" font-size="10.00" fill="#ffffff">main</text>
<text text-anchor="middle" x="544" y="-1265" font-family="Arial" font-size="10.00" fill="#ffffff">100.00%</text>
<text text-anchor="middle" x="544" y="-1254" font-family="Arial" font-size="10.00" fill="#ffffff">(0.00%)</text>
<text text-anchor="middle" x="544" y="-1243" font-family="Arial" font-size="10.00" fill="#ffffff">1×</text>
</g>
<!-- (below main)&#45;&gt;main -->
<g id="edge1" class="edge">
<title>(below main)&#45;&gt;main</title>
<path fill="none" stroke="#ff0000" stroke-width="4" d="M544,-1338.7562C544,-1329.5536 544,-1319.3591 544,-1309.6267"/>
<polygon fill="#ff0000" stroke="#ff0000" stroke-width="4" points="547.5001,-1309.3163 544,-1299.3163 540.5001,-1309.3164 547.5001,-1309.3163"/>
<text text-anchor="middle" x="563.5" y="-1322" font-family="Arial" font-size="10.00" fill="#ff0000">100.00%</text>
<text text-anchor="middle" x="563.5" y="-1311" font-family="Arial" font-size="10.00" fill="#ff0000">1×</text>
</g>
<!-- Resolution_resolveThroughDegree -->
<g id="node19" class="node">
<title>Resolution_resolveThroughDegree</title>
<polygon fill="#fe0600" stroke="#fe0600" points="626.5,-1196 461.5,-1196 461.5,-1133 626.5,-1133 626.5,-1196"/>
<text text-anchor="middle" x="544" y="-1184" font-family="Arial" font-size="10.00" fill="#ffffff">csteen</text>
<text text-anchor="middle" x="544" y="-1173" font-family="Arial" font-size="10.00" fill="#ffffff">Resolution_resolveThroughDegree</text>
<text text-anchor="middle" x="544" y="-1162" font-family="Arial" font-size="10.00" fill="#ffffff">99.38%</text>
<text text-anchor="middle" x="544" y="-1151" font-family="Arial" font-size="10.00" fill="#ffffff">(0.00%)</text>
<text text-anchor="middle" x="544" y="-1140" font-family="Arial" font-size="10.00" fill="#ffffff">1×</text>
</g>
<!-- main&#45;&gt;Resolution_resolveThroughDegree -->
<g id="edge32" class="edge">
<title>main&#45;&gt;Resolution_resolveThroughDegree</title>
<path fill="none" stroke="#fe0600" stroke-width="3.98" d="M544,-1235.7562C544,-1226.5536 544,-1216.3591 544,-1206.6267"/>
<polygon fill="#fe0600" stroke="#fe0600" stroke-width="3.98" points="547.5001,-1206.3163 544,-1196.3163 540.5001,-1206.3164 547.5001,-1206.3163"/>
<text text-anchor="middle" x="561" y="-1219" font-family="Arial" font-size="10.00" fill="#fe0600">99.38%</text>
<text text-anchor="middle" x="561" y="-1208" font-family="Arial" font-size="10.00" fill="#fe0600">1×</text>
</g>
<!-- 0x0000000000000f60 -->
<g id="node3" class="node">
<title>0x0000000000000f60</title>
<polygon fill="#ff0000" stroke="#ff0000" points="598.5,-1608 489.5,-1608 489.5,-1545 598.5,-1545 598.5,-1608"/>
<text text-anchor="middle" x="544" y="-1596" font-family="Arial" font-size="10.00" fill="#ffffff">ld&#45;2.27.so</text>
<text text-anchor="middle" x="544" y="-1585" font-family="Arial" font-size="10.00" fill="#ffffff">0x0000000000000f60</text>
<text text-anchor="middle" x="544" y="-1574" font-family="Arial" font-size="10.00" fill="#ffffff">100.00%</text>
<text text-anchor="middle" x="544" y="-1563" font-family="Arial" font-size="10.00" fill="#ffffff">(0.00%)</text>
<text text-anchor="middle" x="544" y="-1552" font-family="Arial" font-size="10.00" fill="#ffffff">0×</text>
</g>
<!-- _start -->
<g id="node4" class="node">
<title>_start</title>
<polygon fill="#ff0000" stroke="#ff0000" points="571.5,-1505 516.5,-1505 516.5,-1442 571.5,-1442 571.5,-1505"/>
<text text-anchor="middle" x="544" y="-1493" font-family="Arial" font-size="10.00" fill="#ffffff">csteen</text>
<text text-anchor="middle" x="544" y="-1482" font-family="Arial" font-size="10.00" fill="#ffffff">_start</text>
<text text-anchor="middle" x="544" y="-1471" font-family="Arial" font-size="10.00" fill="#ffffff">100.00%</text>
<text text-anchor="middle" x="544" y="-1460" font-family="Arial" font-size="10.00" fill="#ffffff">(0.00%)</text>
<text text-anchor="middle" x="544" y="-1449" font-family="Arial" font-size="10.00" fill="#ffffff">1×</text>
</g>
<!-- 0x0000000000000f60&#45;&gt;_start -->
<g id="edge2" class="edge">
<title>0x0000000000000f60&#45;&gt;_start</title>
<path fill="none" stroke="#ff0000" stroke-width="4" d="M544,-1544.7562C544,-1535.5536 544,-1525.3591 544,-1515.6267"/>
<polygon fill="#ff0000" stroke="#ff0000" stroke-width="4" points="547.5001,-1515.3163 544,-1505.3163 540.5001,-1515.3164 547.5001,-1515.3163"/>
<text text-anchor="middle" x="563.5" y="-1528" font-family="Arial" font-size="10.00" fill="#ff0000">100.00%</text>
<text text-anchor="middle" x="563.5" y="-1517" font-family="Arial" font-size="10.00" fill="#ff0000">1×</text>
</g>
<!-- _start&#45;&gt;(below main) -->
<g id="edge29" class="edge">
<title>_start&#45;&gt;(below main)</title>
<path fill="none" stroke="#ff0000" stroke-width="4" d="M544,-1441.7562C544,-1432.5536 544,-1422.3591 544,-1412.6267"/>
<polygon fill="#ff0000" stroke="#ff0000" stroke-width="4" points="547.5001,-1412.3163 544,-1402.3163 540.5001,-1412.3164 547.5001,-1412.3163"/>
<text text-anchor="middle" x="563.5" y="-1425" font-family="Arial" font-size="10.00" fill="#ff0000">100.00%</text>
<text text-anchor="middle" x="563.5" y="-1414" font-family="Arial" font-size="10.00" fill="#ff0000">1×</text>
</g>
<!-- AdemAlgebra__makeMonoAdmissible2 -->
<g id="node5" class="node">
<title>AdemAlgebra__makeMonoAdmissible2</title>
<polygon fill="#0ba261" stroke="#0ba261" points="319.5,-578 132.5,-578 132.5,-515 319.5,-515 319.5,-578"/>
<text text-anchor="middle" x="226" y="-566" font-family="Arial" font-size="10.00" fill="#ffffff">csteen</text>
<text text-anchor="middle" x="226" y="-555" font-family="Arial" font-size="10.00" fill="#ffffff">AdemAlgebra__makeMonoAdmissible2</text>
<text text-anchor="middle" x="226" y="-544" font-family="Arial" font-size="10.00" fill="#ffffff">35.85%</text>
<text text-anchor="middle" x="226" y="-533" font-family="Arial" font-size="10.00" fill="#ffffff">(0.96%)</text>
<text text-anchor="middle" x="226" y="-522" font-family="Arial" font-size="10.00" fill="#ffffff">952329×</text>
</g>
<!-- AdemAlgebra__makeMonoAdmissible2&#39;2 -->
<g id="node6" class="node">
<title>AdemAlgebra__makeMonoAdmissible2&#39;2</title>
<polygon fill="#0c9981" stroke="#0c9981" points="319,-475 125,-475 125,-412 319,-412 319,-475"/>
<text text-anchor="middle" x="222" y="-463" font-family="Arial" font-size="10.00" fill="#ffffff">csteen</text>
<text text-anchor="middle" x="222" y="-452" font-family="Arial" font-size="10.00" fill="#ffffff">AdemAlgebra__makeMonoAdmissible2&#39;2</text>
<text text-anchor="middle" x="222" y="-441" font-family="Arial" font-size="10.00" fill="#ffffff">29.16%</text>
<text text-anchor="middle" x="222" y="-430" font-family="Arial" font-size="10.00" fill="#ffffff">(3.38%)</text>
<text text-anchor="middle" x="222" y="-419" font-family="Arial" font-size="10.00" fill="#ffffff">3011069×</text>
</g>
<!-- AdemAlgebra__makeMonoAdmissible2&#45;&gt;AdemAlgebra__makeMonoAdmissible2&#39;2 -->
<g id="edge3" class="edge">
<title>AdemAlgebra__makeMonoAdmissible2&#45;&gt;AdemAlgebra__makeMonoAdmissible2&#39;2</title>
<path fill="none" stroke="#0c9981" stroke-width="1.17" d="M224.7672,-514.7562C224.3528,-504.0851 223.8866,-492.0802 223.4567,-481.0089"/>
<polygon fill="#0c9981" stroke="#0c9981" stroke-width="1.17" points="225.3338,-480.6389 223.2356,-475.3163 221.5567,-480.7856 225.3338,-480.6389"/>
<text text-anchor="middle" x="244" y="-498" font-family="Arial" font-size="10.00" fill="#0c9981">29.16%</text>
<text text-anchor="middle" x="244" y="-487" font-family="Arial" font-size="10.00" fill="#0c9981">763991×</text>
</g>
<!-- AdemAlgebra_basisElement_fromIndex -->
<g id="node7" class="node">
<title>AdemAlgebra_basisElement_fromIndex</title>
<polygon fill="#0d4b84" stroke="#0d4b84" points="188,-372 0,-372 0,-309 188,-309 188,-372"/>
<text text-anchor="middle" x="94" y="-360" font-family="Arial" font-size="10.00" fill="#ffffff">csteen</text>
<text text-anchor="middle" x="94" y="-349" font-family="Arial" font-size="10.00" fill="#ffffff">AdemAlgebra_basisElement_fromIndex</text>
<text text-anchor="middle" x="94" y="-338" font-family="Arial" font-size="10.00" fill="#ffffff">13.03%</text>
<text text-anchor="middle" x="94" y="-327" font-family="Arial" font-size="10.00" fill="#ffffff">(0.33%)</text>
<text text-anchor="middle" x="94" y="-316" font-family="Arial" font-size="10.00" fill="#ffffff">4967226×</text>
</g>
<!-- AdemAlgebra__makeMonoAdmissible2&#45;&gt;AdemAlgebra_basisElement_fromIndex -->
<g id="edge4" class="edge">
<title>AdemAlgebra__makeMonoAdmissible2&#45;&gt;AdemAlgebra_basisElement_fromIndex</title>
<path fill="none" stroke="#0d1475" stroke-width=".5" d="M132.4542,-518.689C112.4717,-508.2538 93.8394,-494.0971 82,-475 63.5419,-445.2269 70.72,-404.3865 79.8955,-375.5424"/>
<polygon fill="#0d1475" stroke="#0d1475" stroke-width=".5" points="81.1022,-375.7932 81.0228,-372.0858 78.7729,-375.0335 81.1022,-375.7932"/>
<text text-anchor="middle" x="101" y="-446.5" font-family="Arial" font-size="10.00" fill="#0d1475">1.65%</text>
<text text-anchor="middle" x="101" y="-435.5" font-family="Arial" font-size="10.00" fill="#0d1475">763991×</text>
</g>
<!-- AdemAlgebra_basisElement_toIndex -->
<g id="node8" class="node">
<title>AdemAlgebra_basisElement_toIndex</title>
<polygon fill="#0c8b92" stroke="#0c8b92" points="310.5,-269 133.5,-269 133.5,-206 310.5,-206 310.5,-269"/>
<text text-anchor="middle" x="222" y="-257" font-family="Arial" font-size="10.00" fill="#ffffff">csteen</text>
<text text-anchor="middle" x="222" y="-246" font-family="Arial" font-size="10.00" fill="#ffffff">AdemAlgebra_basisElement_toIndex</text>
<text text-anchor="middle" x="222" y="-235" font-family="Arial" font-size="10.00" fill="#ffffff">23.74%</text>
<text text-anchor="middle" x="222" y="-224" font-family="Arial" font-size="10.00" fill="#ffffff">(0.69%)</text>
<text text-anchor="middle" x="222" y="-213" font-family="Arial" font-size="10.00" fill="#ffffff">9034301×</text>
</g>
<!-- AdemAlgebra__makeMonoAdmissible2&#45;&gt;AdemAlgebra_basisElement_toIndex -->
<g id="edge5" class="edge">
<title>AdemAlgebra__makeMonoAdmissible2&#45;&gt;AdemAlgebra_basisElement_toIndex</title>
<path fill="none" stroke="#0d1475" stroke-width=".5" d="M317.5513,-514.9049C347.5789,-502.5608 375.472,-488.2197 384,-475 399.1785,-451.471 388.3509,-439.6599 384,-412 374.4025,-350.9858 320.8235,-301.7506 277.8719,-271.3291"/>
<polygon fill="#0d1475" stroke="#0d1475" stroke-width=".5" points="278.3669,-270.1799 274.7985,-269.1713 276.9591,-272.1851 278.3669,-270.1799"/>
<text text-anchor="middle" x="402" y="-395" font-family="Arial" font-size="10.00" fill="#0d1475">1.79%</text>
<text text-anchor="middle" x="402" y="-384" font-family="Arial" font-size="10.00" fill="#0d1475">952329×</text>
</g>
<!-- Vector_stepIterator -->
<g id="node9" class="node">
<title>Vector_stepIterator</title>
<polygon fill="#0aac35" stroke="#0aac35" points="533.5,-372 434.5,-372 434.5,-309 533.5,-309 533.5,-372"/>
<text text-anchor="middle" x="484" y="-360" font-family="Arial" font-size="10.00" fill="#ffffff">csteen</text>
<text text-anchor="middle" x="484" y="-349" font-family="Arial" font-size="10.00" fill="#ffffff">Vector_stepIterator</text>
<text text-anchor="middle" x="484" y="-338" font-family="Arial" font-size="10.00" fill="#ffffff">43.37%</text>
<text text-anchor="middle" x="484" y="-327" font-family="Arial" font-size="10.00" fill="#ffffff">(34.00%)</text>
<text text-anchor="middle" x="484" y="-316" font-family="Arial" font-size="10.00" fill="#ffffff">321953113×</text>
</g>
<!-- AdemAlgebra__makeMonoAdmissible2&#45;&gt;Vector_stepIterator -->
<g id="edge6" class="edge">
<title>AdemAlgebra__makeMonoAdmissible2&#45;&gt;Vector_stepIterator</title>
<path fill="none" stroke="#0d1676" stroke-width=".5" d="M319.6355,-517.3492C323.1234,-516.5151 326.5866,-515.7279 330,-515 345.5543,-511.6832 388.5363,-515.879 401,-506 435.9364,-478.3088 415.6583,-451.6683 436,-412 442.3605,-399.5963 450.4548,-386.7437 458.1763,-375.4143"/>
<polygon fill="#0d1676" stroke="#0d1676" stroke-width=".5" points="459.3704,-375.8394 460.3425,-372.2609 457.351,-374.4522 459.3704,-375.8394"/>
<text text-anchor="middle" x="460.5" y="-446.5" font-family="Arial" font-size="10.00" fill="#0d1676">2.15%</text>
<text text-anchor="middle" x="460.5" y="-435.5" font-family="Arial" font-size="10.00" fill="#0d1676">16466775×</text>
</g>
<!-- AdemAlgebra__makeMonoAdmissible2&#39;2&#45;&gt;AdemAlgebra__makeMonoAdmissible2&#39;2 -->
<g id="edge7" class="edge">
<title>AdemAlgebra__makeMonoAdmissible2&#39;2&#45;&gt;AdemAlgebra__makeMonoAdmissible2&#39;2</title>
<path fill="none" stroke="#0c9981" stroke-width="1.17" d="M319.2657,-449.8257C324.7382,-448.2941 328,-446.1855 328,-443.5 328,-441.8215 326.7259,-440.3684 324.4342,-439.1407"/>
<polygon fill="#0c9981" stroke="#0c9981" stroke-width="1.17" points="324.9849,-437.3281 319.2657,-437.1743 323.6406,-440.8611 324.9849,-437.3281"/>
<text text-anchor="middle" x="349.5" y="-441" font-family="Arial" font-size="10.00" fill="#0c9981">2247078×</text>
</g>
<!-- AdemAlgebra__makeMonoAdmissible2&#39;2&#45;&gt;AdemAlgebra_basisElement_fromIndex -->
<g id="edge8" class="edge">
<title>AdemAlgebra__makeMonoAdmissible2&#39;2&#45;&gt;AdemAlgebra_basisElement_fromIndex</title>
<path fill="none" stroke="#0d2e7c" stroke-width=".5" d="M182.5513,-411.7562C167.952,-400.0082 151.3436,-386.6437 136.4858,-374.6878"/>
<polygon fill="#0d2e7c" stroke="#0d2e7c" stroke-width=".5" points="137.0335,-373.5562 133.5387,-372.3163 135.4976,-375.465 137.0335,-373.5562"/>
<text text-anchor="middle" x="191.5" y="-395" font-family="Arial" font-size="10.00" fill="#0d2e7c">7.45%</text>
<text text-anchor="middle" x="191.5" y="-384" font-family="Arial" font-size="10.00" fill="#0d2e7c">2247078×</text>
</g>
<!-- AdemAlgebra__makeMonoAdmissible2&#39;2&#45;&gt;AdemAlgebra_basisElement_toIndex -->
<g id="edge9" class="edge">
<title>AdemAlgebra__makeMonoAdmissible2&#39;2&#45;&gt;AdemAlgebra_basisElement_toIndex</title>
<path fill="none" stroke="#0d367e" stroke-width=".5" d="M222,-411.764C222,-374.2625 222,-312.0398 222,-272.9783"/>
<polygon fill="#0d367e" stroke="#0d367e" stroke-width=".5" points="223.2251,-272.7721 222,-269.2721 220.7751,-272.7721 223.2251,-272.7721"/>
<text text-anchor="middle" x="243.5" y="-343.5" font-family="Arial" font-size="10.00" fill="#0d367e">9.06%</text>
<text text-anchor="middle" x="243.5" y="-332.5" font-family="Arial" font-size="10.00" fill="#0d367e">3011069×</text>
</g>
<!-- AdemAlgebra__makeMonoAdmissible2&#39;2&#45;&gt;Vector_stepIterator -->
<g id="edge10" class="edge">
<title>AdemAlgebra__makeMonoAdmissible2&#39;2&#45;&gt;Vector_stepIterator</title>
<path fill="none" stroke="#0d347e" stroke-width=".5" d="M268.5908,-411.8923C286.2988,-400.9324 307.0252,-389.3203 327,-381 360.335,-367.1146 399.6858,-356.9754 430.6523,-350.3146"/>
<polygon fill="#0d347e" stroke="#0d347e" stroke-width=".5" points="431.218,-351.4467 434.3862,-349.5196 430.7078,-349.0504 431.218,-351.4467"/>
<text text-anchor="middle" x="351.5" y="-395" font-family="Arial" font-size="10.00" fill="#0d347e">8.76%</text>
<text text-anchor="middle" x="351.5" y="-384" font-family="Arial" font-size="10.00" fill="#0d347e">65411452×</text>
</g>
<!-- AdemAlgebra_basisElement_fromIndex&#45;&gt;AdemAlgebra_basisElement_toIndex -->
<g id="edge11" class="edge">
<title>AdemAlgebra_basisElement_fromIndex&#45;&gt;AdemAlgebra_basisElement_toIndex</title>
<path fill="none" stroke="#0d4983" stroke-width=".51" d="M133.4487,-308.7562C148.048,-297.0082 164.6564,-283.6437 179.5142,-271.6878"/>
<polygon fill="#0d4983" stroke="#0d4983" stroke-width=".51" points="180.4465,-272.5549 182.4613,-269.3163 178.8666,-270.5916 180.4465,-272.5549"/>
<text text-anchor="middle" x="191.5" y="-292" font-family="Arial" font-size="10.00" fill="#0d4983">12.70%</text>
<text text-anchor="middle" x="191.5" y="-281" font-family="Arial" font-size="10.00" fill="#0d4983">4967226×</text>
</g>
<!-- AdemAlgebra_basisElement_toKey -->
<g id="node10" class="node">
<title>AdemAlgebra_basisElement_toKey</title>
<polygon fill="#0d2079" stroke="#0d2079" points="279,-166 109,-166 109,-103 279,-103 279,-166"/>
<text text-anchor="middle" x="194" y="-154" font-family="Arial" font-size="10.00" fill="#ffffff">csteen</text>
<text text-anchor="middle" x="194" y="-143" font-family="Arial" font-size="10.00" fill="#ffffff">AdemAlgebra_basisElement_toKey</text>
<text text-anchor="middle" x="194" y="-132" font-family="Arial" font-size="10.00" fill="#ffffff">4.55%</text>
<text text-anchor="middle" x="194" y="-121" font-family="Arial" font-size="10.00" fill="#ffffff">(4.37%)</text>
<text text-anchor="middle" x="194" y="-110" font-family="Arial" font-size="10.00" fill="#ffffff">9038216×</text>
</g>
<!-- AdemAlgebra_basisElement_toIndex&#45;&gt;AdemAlgebra_basisElement_toKey -->
<g id="edge12" class="edge">
<title>AdemAlgebra_basisElement_toIndex&#45;&gt;AdemAlgebra_basisElement_toKey</title>
<path fill="none" stroke="#0d2079" stroke-width=".5" d="M213.3706,-205.7562C210.2834,-194.3998 206.7856,-181.5328 203.62,-169.888"/>
<polygon fill="#0d2079" stroke="#0d2079" stroke-width=".5" points="204.7494,-169.3724 202.6491,-166.3163 202.3852,-170.0151 204.7494,-169.3724"/>
<text text-anchor="middle" x="232.5" y="-189" font-family="Arial" font-size="10.00" fill="#0d2079">4.54%</text>
<text text-anchor="middle" x="232.5" y="-178" font-family="Arial" font-size="10.00" fill="#0d2079">9034301×</text>
</g>
<!-- kh_get_monomial_index_map -->
<g id="node11" class="node">
<title>kh_get_monomial_index_map</title>
<polygon fill="#0c6a8b" stroke="#0c6a8b" points="434,-166 288,-166 288,-103 434,-103 434,-166"/>
<text text-anchor="middle" x="361" y="-154" font-family="Arial" font-size="10.00" fill="#ffffff">csteen</text>
<text text-anchor="middle" x="361" y="-143" font-family="Arial" font-size="10.00" fill="#ffffff">kh_get_monomial_index_map</text>
<text text-anchor="middle" x="361" y="-132" font-family="Arial" font-size="10.00" fill="#ffffff">18.50%</text>
<text text-anchor="middle" x="361" y="-121" font-family="Arial" font-size="10.00" fill="#ffffff">(10.32%)</text>
<text text-anchor="middle" x="361" y="-110" font-family="Arial" font-size="10.00" fill="#ffffff">9034301×</text>
</g>
<!-- AdemAlgebra_basisElement_toIndex&#45;&gt;kh_get_monomial_index_map -->
<g id="edge13" class="edge">
<title>AdemAlgebra_basisElement_toIndex&#45;&gt;kh_get_monomial_index_map</title>
<path fill="none" stroke="#0c6a8b" stroke-width=".74" d="M264.8388,-205.7562C280.5607,-194.1061 298.428,-180.8663 314.4593,-168.987"/>
<polygon fill="#0c6a8b" stroke="#0c6a8b" stroke-width=".74" points="315.5046,-170.0856 318.0634,-166.3163 313.7125,-167.6672 315.5046,-170.0856"/>
<text text-anchor="middle" x="325.5" y="-189" font-family="Arial" font-size="10.00" fill="#0c6a8b">18.50%</text>
<text text-anchor="middle" x="325.5" y="-178" font-family="Arial" font-size="10.00" fill="#0c6a8b">9034301×</text>
</g>
<!-- getBitlength -->
<g id="node22" class="node">
<title>getBitlength</title>
<polygon fill="#0d2279" stroke="#0d2279" points="617,-269 547,-269 547,-206 617,-206 617,-269"/>
<text text-anchor="middle" x="582" y="-257" font-family="Arial" font-size="10.00" fill="#ffffff">csteen</text>
<text text-anchor="middle" x="582" y="-246" font-family="Arial" font-size="10.00" fill="#ffffff">getBitlength</text>
<text text-anchor="middle" x="582" y="-235" font-family="Arial" font-size="10.00" fill="#ffffff">4.88%</text>
<text text-anchor="middle" x="582" y="-224" font-family="Arial" font-size="10.00" fill="#ffffff">(4.88%)</text>
<text text-anchor="middle" x="582" y="-213" font-family="Arial" font-size="10.00" fill="#ffffff">333035367×</text>
</g>
<!-- Vector_stepIterator&#45;&gt;getBitlength -->
<g id="edge28" class="edge">
<title>Vector_stepIterator&#45;&gt;getBitlength</title>
<path fill="none" stroke="#0d2179" stroke-width=".5" d="M522.2293,-308.8078C524.9807,-305.9445 527.6089,-302.9926 530,-300 536.9523,-291.2986 535.3551,-286.9384 542,-278 543.5403,-275.928 545.1828,-273.8571 546.8906,-271.8087"/>
<polygon fill="#0d2179" stroke="#0d2179" stroke-width=".5" points="547.9194,-272.4902 549.2565,-269.0314 546.0543,-270.9014 547.9194,-272.4902"/>
<text text-anchor="middle" x="569" y="-292" font-family="Arial" font-size="10.00" fill="#0d2179">4.69%</text>
<text text-anchor="middle" x="569" y="-281" font-family="Arial" font-size="10.00" fill="#0d2179">319532806×</text>
</g>
<!-- getBitMask -->
<g id="node24" class="node">
<title>getBitMask</title>
<polygon fill="#0d2179" stroke="#0d2179" points="510,-269 440,-269 440,-206 510,-206 510,-269"/>
<text text-anchor="middle" x="475" y="-257" font-family="Arial" font-size="10.00" fill="#ffffff">csteen</text>
<text text-anchor="middle" x="475" y="-246" font-family="Arial" font-size="10.00" fill="#ffffff">getBitMask</text>
<text text-anchor="middle" x="475" y="-235" font-family="Arial" font-size="10.00" fill="#ffffff">4.72%</text>
<text text-anchor="middle" x="475" y="-224" font-family="Arial" font-size="10.00" fill="#ffffff">(4.72%)</text>
<text text-anchor="middle" x="475" y="-213" font-family="Arial" font-size="10.00" fill="#ffffff">322105511×</text>
</g>
<!-- Vector_stepIterator&#45;&gt;getBitMask -->
<g id="edge27" class="edge">
<title>Vector_stepIterator&#45;&gt;getBitMask</title>
<path fill="none" stroke="#0d2179" stroke-width=".5" d="M478.9849,-308.7008C478.6136,-305.7639 478.2768,-302.8297 478,-300 477.1393,-291.2021 476.5226,-281.6822 476.0819,-272.7884"/>
<polygon fill="#0d2179" stroke="#0d2179" stroke-width=".5" points="477.2927,-272.4572 475.9035,-269.019 474.8454,-272.573 477.2927,-272.4572"/>
<text text-anchor="middle" x="505" y="-292" font-family="Arial" font-size="10.00" fill="#0d2179">4.69%</text>
<text text-anchor="middle" x="505" y="-281" font-family="Arial" font-size="10.00" fill="#0d2179">319532806×</text>
</g>
<!-- __ac_X31_hash_string -->
<g id="node25" class="node">
<title>__ac_X31_hash_string</title>
<polygon fill="#0d1a77" stroke="#0d1a77" points="353,-63 237,-63 237,0 353,0 353,-63"/>
<text text-anchor="middle" x="295" y="-51" font-family="Arial" font-size="10.00" fill="#ffffff">csteen</text>
<text text-anchor="middle" x="295" y="-40" font-family="Arial" font-size="10.00" fill="#ffffff">__ac_X31_hash_string</text>
<text text-anchor="middle" x="295" y="-29" font-family="Arial" font-size="10.00" fill="#ffffff">3.16%</text>
<text text-anchor="middle" x="295" y="-18" font-family="Arial" font-size="10.00" fill="#ffffff">(3.16%)</text>
<text text-anchor="middle" x="295" y="-7" font-family="Arial" font-size="10.00" fill="#ffffff">9038216×</text>
</g>
<!-- kh_get_monomial_index_map&#45;&gt;__ac_X31_hash_string -->
<g id="edge30" class="edge">
<title>kh_get_monomial_index_map&#45;&gt;__ac_X31_hash_string</title>
<path fill="none" stroke="#0d1a77" stroke-width=".5" d="M340.6593,-102.7562C333.2569,-91.204 324.853,-78.0887 317.2906,-66.2868"/>
<polygon fill="#0d1a77" stroke="#0d1a77" stroke-width=".5" points="318.3069,-65.6023 315.3872,-63.3163 316.2441,-66.9242 318.3069,-65.6023"/>
<text text-anchor="middle" x="355.5" y="-86" font-family="Arial" font-size="10.00" fill="#0d1a77">3.16%</text>
<text text-anchor="middle" x="355.5" y="-75" font-family="Arial" font-size="10.00" fill="#0d1a77">9034301×</text>
</g>
<!-- __strcmp_sse2_unaligned -->
<g id="node26" class="node">
<title>__strcmp_sse2_unaligned</title>
<polygon fill="#0d2279" stroke="#0d2279" points="492,-63 362,-63 362,0 492,0 492,-63"/>
<text text-anchor="middle" x="427" y="-51" font-family="Arial" font-size="10.00" fill="#ffffff">libc&#45;2.27.so</text>
<text text-anchor="middle" x="427" y="-40" font-family="Arial" font-size="10.00" fill="#ffffff">__strcmp_sse2_unaligned</text>
<text text-anchor="middle" x="427" y="-29" font-family="Arial" font-size="10.00" fill="#ffffff">5.02%</text>
<text text-anchor="middle" x="427" y="-18" font-family="Arial" font-size="10.00" fill="#ffffff">(5.02%)</text>
<text text-anchor="middle" x="427" y="-7" font-family="Arial" font-size="10.00" fill="#ffffff">107384032×</text>
</g>
<!-- kh_get_monomial_index_map&#45;&gt;__strcmp_sse2_unaligned -->
<g id="edge31" class="edge">
<title>kh_get_monomial_index_map&#45;&gt;__strcmp_sse2_unaligned</title>
<path fill="none" stroke="#0d2279" stroke-width=".5" d="M381.3407,-102.7562C388.7431,-91.204 397.147,-78.0887 404.7094,-66.2868"/>
<polygon fill="#0d2279" stroke="#0d2279" stroke-width=".5" points="405.7559,-66.9242 406.6128,-63.3163 403.6931,-65.6023 405.7559,-66.9242"/>
<text text-anchor="middle" x="427" y="-86" font-family="Arial" font-size="10.00" fill="#0d2279">5.02%</text>
<text text-anchor="middle" x="427" y="-75" font-family="Arial" font-size="10.00" fill="#0d2279">107329649×</text>
</g>
<!-- AdemAlgebra_getDimension -->
<g id="node12" class="node">
<title>AdemAlgebra_getDimension</title>
<polygon fill="#0d1575" stroke="#0d1575" points="475,-578 335,-578 335,-515 475,-515 475,-578"/>
<text text-anchor="middle" x="405" y="-566" font-family="Arial" font-size="10.00" fill="#ffffff">csteen</text>
<text text-anchor="middle" x="405" y="-555" font-family="Arial" font-size="10.00" fill="#ffffff">AdemAlgebra_getDimension</text>
<text text-anchor="middle" x="405" y="-544" font-family="Arial" font-size="10.00" fill="#ffffff">2.05%</text>
<text text-anchor="middle" x="405" y="-533" font-family="Arial" font-size="10.00" fill="#ffffff">(2.05%)</text>
<text text-anchor="middle" x="405" y="-522" font-family="Arial" font-size="10.00" fill="#ffffff">54653493×</text>
</g>
<!-- AdemAlgebra_multiply -->
<g id="node13" class="node">
<title>AdemAlgebra_multiply</title>
<polygon fill="#0ba84a" stroke="#0ba84a" points="283,-681 169,-681 169,-618 283,-618 283,-681"/>
<text text-anchor="middle" x="226" y="-669" font-family="Arial" font-size="10.00" fill="#ffffff">csteen</text>
<text text-anchor="middle" x="226" y="-658" font-family="Arial" font-size="10.00" fill="#ffffff">AdemAlgebra_multiply</text>
<text text-anchor="middle" x="226" y="-647" font-family="Arial" font-size="10.00" fill="#ffffff">39.97%</text>
<text text-anchor="middle" x="226" y="-636" font-family="Arial" font-size="10.00" fill="#ffffff">(0.24%)</text>
<text text-anchor="middle" x="226" y="-625" font-family="Arial" font-size="10.00" fill="#ffffff">952329×</text>
</g>
<!-- AdemAlgebra_multiply&#45;&gt;AdemAlgebra__makeMonoAdmissible2 -->
<g id="edge14" class="edge">
<title>AdemAlgebra_multiply&#45;&gt;AdemAlgebra__makeMonoAdmissible2</title>
<path fill="none" stroke="#0ba261" stroke-width="1.43" d="M226,-617.7562C226,-607.2809 226,-595.5203 226,-584.6192"/>
<polygon fill="#0ba261" stroke="#0ba261" stroke-width="1.43" points="228.1001,-584.3163 226,-578.3163 223.9001,-584.3164 228.1001,-584.3163"/>
<text text-anchor="middle" x="245" y="-601" font-family="Arial" font-size="10.00" fill="#0ba261">35.85%</text>
<text text-anchor="middle" x="245" y="-590" font-family="Arial" font-size="10.00" fill="#0ba261">952329×</text>
</g>
<!-- AdemAlgebra_multiply&#45;&gt;AdemAlgebra_basisElement_fromIndex -->
<g id="edge15" class="edge">
<title>AdemAlgebra_multiply&#45;&gt;AdemAlgebra_basisElement_fromIndex</title>
<path fill="none" stroke="#0d1d78" stroke-width=".5" d="M168.9985,-623.0764C125.4411,-599.3443 68.7999,-559.9204 44,-506 24.1345,-462.808 47.9914,-409.7085 69.0721,-375.4955"/>
<polygon fill="#0d1d78" stroke="#0d1d78" stroke-width=".5" points="70.2873,-375.8621 71.1019,-372.2445 68.2091,-374.5645 70.2873,-375.8621"/>
<text text-anchor="middle" x="65.5" y="-498" font-family="Arial" font-size="10.00" fill="#0d1d78">3.77%</text>
<text text-anchor="middle" x="65.5" y="-487" font-family="Arial" font-size="10.00" fill="#0d1d78">1904658×</text>
</g>
<!-- FreeModuleHomomorphism_getMatrix -->
<g id="node14" class="node">
<title>FreeModuleHomomorphism_getMatrix</title>
<polygon fill="#0aaf28" stroke="#0aaf28" points="557,-887 375,-887 375,-824 557,-824 557,-887"/>
<text text-anchor="middle" x="466" y="-875" font-family="Arial" font-size="10.00" fill="#ffffff">csteen</text>
<text text-anchor="middle" x="466" y="-864" font-family="Arial" font-size="10.00" fill="#ffffff">FreeModuleHomomorphism_getMatrix</text>
<text text-anchor="middle" x="466" y="-853" font-family="Arial" font-size="10.00" fill="#ffffff">45.50%</text>
<text text-anchor="middle" x="466" y="-842" font-family="Arial" font-size="10.00" fill="#ffffff">(0.23%)</text>
<text text-anchor="middle" x="466" y="-831" font-family="Arial" font-size="10.00" fill="#ffffff">1830×</text>
</g>
<!-- FreeModuleHomomorphism_getMatrix&#45;&gt;Vector_stepIterator -->
<g id="edge17" class="edge">
<title>FreeModuleHomomorphism_getMatrix&#45;&gt;Vector_stepIterator</title>
<path fill="none" stroke="#0d1074" stroke-width=".5" d="M478.3908,-823.5484C485.0874,-803.4683 492,-776.8446 492,-752.5 492,-752.5 492,-752.5 492,-443.5 492,-420.9682 490.0735,-395.7468 488.1113,-375.9014"/>
<polygon fill="#0d1074" stroke="#0d1074" stroke-width=".5" points="489.2887,-375.3659 487.719,-372.0064 486.851,-375.6115 489.2887,-375.3659"/>
<text text-anchor="middle" x="513.5" y="-601" font-family="Arial" font-size="10.00" fill="#0d1074">0.68%</text>
<text text-anchor="middle" x="513.5" y="-590" font-family="Arial" font-size="10.00" fill="#0d1074">5104518×</text>
</g>
<!-- FreeModule_actOnBasis -->
<g id="node15" class="node">
<title>FreeModule_actOnBasis</title>
<polygon fill="#0aae2e" stroke="#0aae2e" points="467,-784 343,-784 343,-721 467,-721 467,-784"/>
<text text-anchor="middle" x="405" y="-772" font-family="Arial" font-size="10.00" fill="#ffffff">csteen</text>
<text text-anchor="middle" x="405" y="-761" font-family="Arial" font-size="10.00" fill="#ffffff">FreeModule_actOnBasis</text>
<text text-anchor="middle" x="405" y="-750" font-family="Arial" font-size="10.00" fill="#ffffff">44.57%</text>
<text text-anchor="middle" x="405" y="-739" font-family="Arial" font-size="10.00" fill="#ffffff">(0.26%)</text>
<text text-anchor="middle" x="405" y="-728" font-family="Arial" font-size="10.00" fill="#ffffff">952329×</text>
</g>
<!-- FreeModuleHomomorphism_getMatrix&#45;&gt;FreeModule_actOnBasis -->
<g id="edge16" class="edge">
<title>FreeModuleHomomorphism_getMatrix&#45;&gt;FreeModule_actOnBasis</title>
<path fill="none" stroke="#0aae2e" stroke-width="1.78" d="M447.2002,-823.7562C440.9385,-813.183 433.9012,-801.3004 427.3946,-790.3138"/>
<polygon fill="#0aae2e" stroke="#0aae2e" stroke-width="1.78" points="429.2746,-788.8862 423.8427,-784.3163 425.2392,-791.2762 429.2746,-788.8862"/>
<text text-anchor="middle" x="460" y="-807" font-family="Arial" font-size="10.00" fill="#0aae2e">44.57%</text>
<text text-anchor="middle" x="460" y="-796" font-family="Arial" font-size="10.00" fill="#0aae2e">952329×</text>
</g>
<!-- FreeModule_actOnBasis&#45;&gt;AdemAlgebra_multiply -->
<g id="edge18" class="edge">
<title>FreeModule_actOnBasis&#45;&gt;AdemAlgebra_multiply</title>
<path fill="none" stroke="#0ba84a" stroke-width="1.6" d="M349.8335,-720.7562C329.8337,-709.2479 307.1379,-696.1883 286.6884,-684.4213"/>
<polygon fill="#0ba84a" stroke="#0ba84a" stroke-width="1.6" points="287.5446,-682.37 280.9843,-681.139 285.3451,-686.1923 287.5446,-682.37"/>
<text text-anchor="middle" x="351" y="-704" font-family="Arial" font-size="10.00" fill="#0ba84a">39.97%</text>
<text text-anchor="middle" x="351" y="-693" font-family="Arial" font-size="10.00" fill="#0ba84a">952329×</text>
</g>
<!-- FreeModule_getDimension -->
<g id="node16" class="node">
<title>FreeModule_getDimension</title>
<polygon fill="#0d1d78" stroke="#0d1d78" points="471,-681 339,-681 339,-618 471,-618 471,-681"/>
<text text-anchor="middle" x="405" y="-669" font-family="Arial" font-size="10.00" fill="#ffffff">csteen</text>
<text text-anchor="middle" x="405" y="-658" font-family="Arial" font-size="10.00" fill="#ffffff">FreeModule_getDimension</text>
<text text-anchor="middle" x="405" y="-647" font-family="Arial" font-size="10.00" fill="#ffffff">3.83%</text>
<text text-anchor="middle" x="405" y="-636" font-family="Arial" font-size="10.00" fill="#ffffff">(1.93%)</text>
<text text-anchor="middle" x="405" y="-625" font-family="Arial" font-size="10.00" fill="#ffffff">961644×</text>
</g>
<!-- FreeModule_actOnBasis&#45;&gt;FreeModule_getDimension -->
<g id="edge19" class="edge">
<title>FreeModule_actOnBasis&#45;&gt;FreeModule_getDimension</title>
<path fill="none" stroke="#0d1d78" stroke-width=".5" d="M405,-720.7562C405,-709.3998 405,-696.5328 405,-684.888"/>
<polygon fill="#0d1d78" stroke="#0d1d78" stroke-width=".5" points="406.2251,-684.8163 405,-681.3163 403.7751,-684.8164 406.2251,-684.8163"/>
<text text-anchor="middle" x="424" y="-704" font-family="Arial" font-size="10.00" fill="#0d1d78">3.80%</text>
<text text-anchor="middle" x="424" y="-693" font-family="Arial" font-size="10.00" fill="#0d1d78">952329×</text>
</g>
<!-- FreeModule_getDimension&#45;&gt;AdemAlgebra_getDimension -->
<g id="edge20" class="edge">
<title>FreeModule_getDimension&#45;&gt;AdemAlgebra_getDimension</title>
<path fill="none" stroke="#0d1575" stroke-width=".5" d="M405,-617.7562C405,-606.3998 405,-593.5328 405,-581.888"/>
<polygon fill="#0d1575" stroke="#0d1575" stroke-width=".5" points="406.2251,-581.8163 405,-578.3163 403.7751,-581.8164 406.2251,-581.8163"/>
<text text-anchor="middle" x="429.5" y="-601" font-family="Arial" font-size="10.00" fill="#0d1575">1.90%</text>
<text text-anchor="middle" x="429.5" y="-590" font-family="Arial" font-size="10.00" fill="#0d1575">50562024×</text>
</g>
<!-- Resolution_generateOldKernelAndComputeNewKernel -->
<g id="node17" class="node">
<title>Resolution_generateOldKernelAndComputeNewKernel</title>
<polygon fill="#fe0600" stroke="#fe0600" points="669.5,-990 418.5,-990 418.5,-927 669.5,-927 669.5,-990"/>
<text text-anchor="middle" x="544" y="-978" font-family="Arial" font-size="10.00" fill="#ffffff">csteen</text>
<text text-anchor="middle" x="544" y="-967" font-family="Arial" font-size="10.00" fill="#ffffff">Resolution_generateOldKernelAndComputeNewKernel</text>
<text text-anchor="middle" x="544" y="-956" font-family="Arial" font-size="10.00" fill="#ffffff">99.38%</text>
<text text-anchor="middle" x="544" y="-945" font-family="Arial" font-size="10.00" fill="#ffffff">(0.03%)</text>
<text text-anchor="middle" x="544" y="-934" font-family="Arial" font-size="10.00" fill="#ffffff">1830×</text>
</g>
<!-- Resolution_generateOldKernelAndComputeNewKernel&#45;&gt;FreeModuleHomomorphism_getMatrix -->
<g id="edge21" class="edge">
<title>Resolution_generateOldKernelAndComputeNewKernel&#45;&gt;FreeModuleHomomorphism_getMatrix</title>
<path fill="none" stroke="#0aaf28" stroke-width="1.82" d="M519.961,-926.7562C511.8059,-915.9872 502.622,-903.8599 494.1742,-892.7044"/>
<polygon fill="#0aaf28" stroke="#0aaf28" stroke-width="1.82" points="496.0083,-891.2419 490.0939,-887.3163 492.2694,-894.0733 496.0083,-891.2419"/>
<text text-anchor="middle" x="529" y="-910" font-family="Arial" font-size="10.00" fill="#0aaf28">45.50%</text>
<text text-anchor="middle" x="529" y="-899" font-family="Arial" font-size="10.00" fill="#0aaf28">1830×</text>
</g>
<!-- rowReduce -->
<g id="node18" class="node">
<title>rowReduce</title>
<polygon fill="#22bb09" stroke="#22bb09" points="603.5,-578 538.5,-578 538.5,-515 603.5,-515 603.5,-578"/>
<text text-anchor="middle" x="571" y="-566" font-family="Arial" font-size="10.00" fill="#ffffff">csteen</text>
<text text-anchor="middle" x="571" y="-555" font-family="Arial" font-size="10.00" fill="#ffffff">rowReduce</text>
<text text-anchor="middle" x="571" y="-544" font-family="Arial" font-size="10.00" fill="#ffffff">53.51%</text>
<text text-anchor="middle" x="571" y="-533" font-family="Arial" font-size="10.00" fill="#ffffff">(15.21%)</text>
<text text-anchor="middle" x="571" y="-522" font-family="Arial" font-size="10.00" fill="#ffffff">3660×</text>
</g>
<!-- Resolution_generateOldKernelAndComputeNewKernel&#45;&gt;rowReduce -->
<g id="edge22" class="edge">
<title>Resolution_generateOldKernelAndComputeNewKernel&#45;&gt;rowReduce</title>
<path fill="none" stroke="#22bb09" stroke-width="2.14" d="M556.8674,-926.5886C563.8215,-906.5236 571,-879.9017 571,-855.5 571,-855.5 571,-855.5 571,-649.5 571,-628.3462 571,-604.7487 571,-585.4829"/>
<polygon fill="#22bb09" stroke="#22bb09" stroke-width="2.14" points="573.5551,-585.3555 571,-578.0555 568.4451,-585.3556 573.5551,-585.3555"/>
<text text-anchor="middle" x="588" y="-755.5" font-family="Arial" font-size="10.00" fill="#22bb09">53.51%</text>
<text text-anchor="middle" x="588" y="-744.5" font-family="Arial" font-size="10.00" fill="#22bb09">3660×</text>
</g>
<!-- rowReduce&#45;&gt;Vector_stepIterator -->
<g id="edge34" class="edge">
<title>rowReduce&#45;&gt;Vector_stepIterator</title>
<path fill="none" stroke="#0b9c76" stroke-width="1.27" d="M544.1876,-514.7183C535.3541,-502.8801 526.213,-488.9242 520,-475 502.5568,-435.9074 511.1281,-422.0537 499,-381 498.6814,-379.9214 498.3486,-378.8301 498.0043,-377.7314"/>
<polygon fill="#0b9c76" stroke="#0b9c76" stroke-width="1.27" points="499.8002,-376.9163 496.201,-372.1996 496.0733,-378.1314 499.8002,-376.9163"/>
<text text-anchor="middle" x="547" y="-446.5" font-family="Arial" font-size="10.00" fill="#0b9c76">31.66%</text>
<text text-anchor="middle" x="547" y="-435.5" font-family="Arial" font-size="10.00" fill="#0b9c76">234020374×</text>
</g>
<!-- Vector_add -->
<g id="node23" class="node">
<title>Vector_add</title>
<polygon fill="#0d2a7b" stroke="#0d2a7b" points="643.5,-475 578.5,-475 578.5,-412 643.5,-412 643.5,-475"/>
<text text-anchor="middle" x="611" y="-463" font-family="Arial" font-size="10.00" fill="#ffffff">csteen</text>
<text text-anchor="middle" x="611" y="-452" font-family="Arial" font-size="10.00" fill="#ffffff">Vector_add</text>
<text text-anchor="middle" x="611" y="-441" font-family="Arial" font-size="10.00" fill="#ffffff">6.63%</text>
<text text-anchor="middle" x="611" y="-430" font-family="Arial" font-size="10.00" fill="#ffffff">(0.26%)</text>
<text text-anchor="middle" x="611" y="-419" font-family="Arial" font-size="10.00" fill="#ffffff">7162936×</text>
</g>
<!-- rowReduce&#45;&gt;Vector_add -->
<g id="edge33" class="edge">
<title>rowReduce&#45;&gt;Vector_add</title>
<path fill="none" stroke="#0d2a7b" stroke-width=".5" d="M583.3277,-514.7562C587.776,-503.3019 592.821,-490.3109 597.3739,-478.5871"/>
<polygon fill="#0d2a7b" stroke="#0d2a7b" stroke-width=".5" points="598.519,-479.0224 598.6441,-475.3163 596.2351,-478.1355 598.519,-479.0224"/>
<text text-anchor="middle" x="616.5" y="-498" font-family="Arial" font-size="10.00" fill="#0d2a7b">6.60%</text>
<text text-anchor="middle" x="616.5" y="-487" font-family="Arial" font-size="10.00" fill="#0d2a7b">7074794×</text>
</g>
<!-- Resolution_step -->
<g id="node20" class="node">
<title>Resolution_step</title>
<polygon fill="#fe0600" stroke="#fe0600" points="587,-1093 501,-1093 501,-1030 587,-1030 587,-1093"/>
<text text-anchor="middle" x="544" y="-1081" font-family="Arial" font-size="10.00" fill="#ffffff">csteen</text>
<text text-anchor="middle" x="544" y="-1070" font-family="Arial" font-size="10.00" fill="#ffffff">Resolution_step</text>
<text text-anchor="middle" x="544" y="-1059" font-family="Arial" font-size="10.00" fill="#ffffff">99.38%</text>
<text text-anchor="middle" x="544" y="-1048" font-family="Arial" font-size="10.00" fill="#ffffff">(0.00%)</text>
<text text-anchor="middle" x="544" y="-1037" font-family="Arial" font-size="10.00" fill="#ffffff">1830×</text>
</g>
<!-- Resolution_resolveThroughDegree&#45;&gt;Resolution_step -->
<g id="edge23" class="edge">
<title>Resolution_resolveThroughDegree&#45;&gt;Resolution_step</title>
<path fill="none" stroke="#fe0600" stroke-width="3.98" d="M544,-1132.7562C544,-1123.5536 544,-1113.3591 544,-1103.6267"/>
<polygon fill="#fe0600" stroke="#fe0600" stroke-width="3.98" points="547.5001,-1103.3163 544,-1093.3163 540.5001,-1103.3164 547.5001,-1103.3163"/>
<text text-anchor="middle" x="561" y="-1116" font-family="Arial" font-size="10.00" fill="#fe0600">99.38%</text>
<text text-anchor="middle" x="561" y="-1105" font-family="Arial" font-size="10.00" fill="#fe0600">1830×</text>
</g>
<!-- Resolution_step&#45;&gt;Resolution_generateOldKernelAndComputeNewKernel -->
<g id="edge24" class="edge">
<title>Resolution_step&#45;&gt;Resolution_generateOldKernelAndComputeNewKernel</title>
<path fill="none" stroke="#fe0600" stroke-width="3.98" d="M544,-1029.7562C544,-1020.5536 544,-1010.3591 544,-1000.6267"/>
<polygon fill="#fe0600" stroke="#fe0600" stroke-width="3.98" points="547.5001,-1000.3163 544,-990.3163 540.5001,-1000.3164 547.5001,-1000.3163"/>
<text text-anchor="middle" x="561" y="-1013" font-family="Arial" font-size="10.00" fill="#fe0600">99.38%</text>
<text text-anchor="middle" x="561" y="-1002" font-family="Arial" font-size="10.00" fill="#fe0600">1830×</text>
</g>
<!-- Vector2_add -->
<g id="node21" class="node">
<title>Vector2_add</title>
<polygon fill="#0d297b" stroke="#0d297b" points="646.5,-372 575.5,-372 575.5,-309 646.5,-309 646.5,-372"/>
<text text-anchor="middle" x="611" y="-360" font-family="Arial" font-size="10.00" fill="#ffffff">csteen</text>
<text text-anchor="middle" x="611" y="-349" font-family="Arial" font-size="10.00" fill="#ffffff">Vector2_add</text>
<text text-anchor="middle" x="611" y="-338" font-family="Arial" font-size="10.00" fill="#ffffff">6.37%</text>
<text text-anchor="middle" x="611" y="-327" font-family="Arial" font-size="10.00" fill="#ffffff">(6.27%)</text>
<text text-anchor="middle" x="611" y="-316" font-family="Arial" font-size="10.00" fill="#ffffff">7162936×</text>
</g>
<!-- Vector2_add&#45;&gt;getBitlength -->
<g id="edge25" class="edge">
<title>Vector2_add&#45;&gt;getBitlength</title>
<path fill="none" stroke="#0d0d73" stroke-width=".5" d="M605.493,-308.7621C603.4772,-298.8233 600.9539,-287.8748 598,-278 597.4584,-276.1893 596.8699,-274.3459 596.249,-272.4937"/>
<polygon fill="#0d0d73" stroke="#0d0d73" stroke-width=".5" points="597.3972,-272.0655 595.0993,-269.155 595.0807,-272.8632 597.3972,-272.0655"/>
<text text-anchor="middle" x="625.5" y="-292" font-family="Arial" font-size="10.00" fill="#0d0d73">0.11%</text>
<text text-anchor="middle" x="625.5" y="-281" font-family="Arial" font-size="10.00" fill="#0d0d73">7162936×</text>
</g>
<!-- Vector_add&#45;&gt;Vector2_add -->
<g id="edge26" class="edge">
<title>Vector_add&#45;&gt;Vector2_add</title>
<path fill="none" stroke="#0d297b" stroke-width=".5" d="M611,-411.7562C611,-400.3998 611,-387.5328 611,-375.888"/>
<polygon fill="#0d297b" stroke="#0d297b" stroke-width=".5" points="612.2251,-375.8163 611,-372.3163 609.7751,-375.8164 612.2251,-375.8163"/>
<text text-anchor="middle" x="632.5" y="-395" font-family="Arial" font-size="10.00" fill="#0d297b">6.37%</text>
<text text-anchor="middle" x="632.5" y="-384" font-family="Arial" font-size="10.00" fill="#0d297b">7162936×</text>
</g>
</g>
</svg>
