<?xml version="1.0" encoding="UTF-8" standalone="no"?>
<!DOCTYPE svg PUBLIC "-//W3C//DTD SVG 1.1//EN"
 "http://www.w3.org/Graphics/SVG/1.1/DTD/svg11.dtd">
<!-- Generated by graphviz version 2.40.1 (20161225.0304)
 -->
<!-- Title: %3 Pages: 1 -->
<svg width="773pt" height="1307pt"
 viewBox="0.00 0.00 772.50 1307.00" xmlns="http://www.w3.org/2000/svg" xmlns:xlink="http://www.w3.org/1999/xlink">
<g id="graph0" class="graph" transform="scale(1 1) rotate(0) translate(4 1303)">
<title>%3</title>
<polygon fill="#ffffff" stroke="transparent" points="-4,4 -4,-1303 768.5,-1303 768.5,4 -4,4"/>
<!-- (below main) -->
<g id="node1" class="node">
<title>(below main)</title>
<polygon fill="#ff0000" stroke="#ff0000" points="565,-1093 494,-1093 494,-1030 565,-1030 565,-1093"/>
<text text-anchor="middle" x="529.5" y="-1081" font-family="Arial" font-size="10.00" fill="#ffffff">libc&#45;2.27.so</text>
<text text-anchor="middle" x="529.5" y="-1070" font-family="Arial" font-size="10.00" fill="#ffffff">(below main)</text>
<text text-anchor="middle" x="529.5" y="-1059" font-family="Arial" font-size="10.00" fill="#ffffff">100.00%</text>
<text text-anchor="middle" x="529.5" y="-1048" font-family="Arial" font-size="10.00" fill="#ffffff">(0.00%)</text>
<text text-anchor="middle" x="529.5" y="-1037" font-family="Arial" font-size="10.00" fill="#ffffff">1×</text>
</g>
<!-- main -->
<g id="node2" class="node">
<title>main</title>
<polygon fill="#ff0000" stroke="#ff0000" points="557,-990 502,-990 502,-927 557,-927 557,-990"/>
<text text-anchor="middle" x="529.5" y="-978" font-family="Arial" font-size="10.00" fill="#ffffff">csteen</text>
<text text-anchor="middle" x="529.5" y="-967" font-family="Arial" font-size="10.00" fill="#ffffff">main</text>
<text text-anchor="middle" x="529.5" y="-956" font-family="Arial" font-size="10.00" fill="#ffffff">100.00%</text>
<text text-anchor="middle" x="529.5" y="-945" font-family="Arial" font-size="10.00" fill="#ffffff">(0.00%)</text>
<text text-anchor="middle" x="529.5" y="-934" font-family="Arial" font-size="10.00" fill="#ffffff">1×</text>
</g>
<!-- (below main)&#45;&gt;main -->
<g id="edge1" class="edge">
<title>(below main)&#45;&gt;main</title>
<path fill="none" stroke="#ff0000" stroke-width="4" d="M529.5,-1029.7562C529.5,-1020.5536 529.5,-1010.3591 529.5,-1000.6267"/>
<polygon fill="#ff0000" stroke="#ff0000" stroke-width="4" points="533.0001,-1000.3163 529.5,-990.3163 526.0001,-1000.3164 533.0001,-1000.3163"/>
<text text-anchor="middle" x="549" y="-1013" font-family="Arial" font-size="10.00" fill="#ff0000">100.00%</text>
<text text-anchor="middle" x="549" y="-1002" font-family="Arial" font-size="10.00" fill="#ff0000">1×</text>
</g>
<!-- Resolution_resolveThroughDegree -->
<g id="node21" class="node">
<title>Resolution_resolveThroughDegree</title>
<polygon fill="#ff0000" stroke="#ff0000" points="612,-887 447,-887 447,-824 612,-824 612,-887"/>
<text text-anchor="middle" x="529.5" y="-875" font-family="Arial" font-size="10.00" fill="#ffffff">csteen</text>
<text text-anchor="middle" x="529.5" y="-864" font-family="Arial" font-size="10.00" fill="#ffffff">Resolution_resolveThroughDegree</text>
<text text-anchor="middle" x="529.5" y="-853" font-family="Arial" font-size="10.00" fill="#ffffff">99.98%</text>
<text text-anchor="middle" x="529.5" y="-842" font-family="Arial" font-size="10.00" fill="#ffffff">(0.00%)</text>
<text text-anchor="middle" x="529.5" y="-831" font-family="Arial" font-size="10.00" fill="#ffffff">1×</text>
</g>
<!-- main&#45;&gt;Resolution_resolveThroughDegree -->
<g id="edge28" class="edge">
<title>main&#45;&gt;Resolution_resolveThroughDegree</title>
<path fill="none" stroke="#ff0000" stroke-width="4" d="M529.5,-926.7562C529.5,-917.5536 529.5,-907.3591 529.5,-897.6267"/>
<polygon fill="#ff0000" stroke="#ff0000" stroke-width="4" points="533.0001,-897.3163 529.5,-887.3163 526.0001,-897.3164 533.0001,-897.3163"/>
<text text-anchor="middle" x="546.5" y="-910" font-family="Arial" font-size="10.00" fill="#ff0000">99.98%</text>
<text text-anchor="middle" x="546.5" y="-899" font-family="Arial" font-size="10.00" fill="#ff0000">1×</text>
</g>
<!-- 0x0000000000000f60 -->
<g id="node3" class="node">
<title>0x0000000000000f60</title>
<polygon fill="#ff0000" stroke="#ff0000" points="584,-1299 475,-1299 475,-1236 584,-1236 584,-1299"/>
<text text-anchor="middle" x="529.5" y="-1287" font-family="Arial" font-size="10.00" fill="#ffffff">ld&#45;2.27.so</text>
<text text-anchor="middle" x="529.5" y="-1276" font-family="Arial" font-size="10.00" fill="#ffffff">0x0000000000000f60</text>
<text text-anchor="middle" x="529.5" y="-1265" font-family="Arial" font-size="10.00" fill="#ffffff">100.00%</text>
<text text-anchor="middle" x="529.5" y="-1254" font-family="Arial" font-size="10.00" fill="#ffffff">(0.00%)</text>
<text text-anchor="middle" x="529.5" y="-1243" font-family="Arial" font-size="10.00" fill="#ffffff">0×</text>
</g>
<!-- _start -->
<g id="node4" class="node">
<title>_start</title>
<polygon fill="#ff0000" stroke="#ff0000" points="557,-1196 502,-1196 502,-1133 557,-1133 557,-1196"/>
<text text-anchor="middle" x="529.5" y="-1184" font-family="Arial" font-size="10.00" fill="#ffffff">csteen</text>
<text text-anchor="middle" x="529.5" y="-1173" font-family="Arial" font-size="10.00" fill="#ffffff">_start</text>
<text text-anchor="middle" x="529.5" y="-1162" font-family="Arial" font-size="10.00" fill="#ffffff">100.00%</text>
<text text-anchor="middle" x="529.5" y="-1151" font-family="Arial" font-size="10.00" fill="#ffffff">(0.00%)</text>
<text text-anchor="middle" x="529.5" y="-1140" font-family="Arial" font-size="10.00" fill="#ffffff">1×</text>
</g>
<!-- 0x0000000000000f60&#45;&gt;_start -->
<g id="edge2" class="edge">
<title>0x0000000000000f60&#45;&gt;_start</title>
<path fill="none" stroke="#ff0000" stroke-width="4" d="M529.5,-1235.7562C529.5,-1226.5536 529.5,-1216.3591 529.5,-1206.6267"/>
<polygon fill="#ff0000" stroke="#ff0000" stroke-width="4" points="533.0001,-1206.3163 529.5,-1196.3163 526.0001,-1206.3164 533.0001,-1206.3163"/>
<text text-anchor="middle" x="549" y="-1219" font-family="Arial" font-size="10.00" fill="#ff0000">100.00%</text>
<text text-anchor="middle" x="549" y="-1208" font-family="Arial" font-size="10.00" fill="#ff0000">1×</text>
</g>
<!-- _start&#45;&gt;(below main) -->
<g id="edge27" class="edge">
<title>_start&#45;&gt;(below main)</title>
<path fill="none" stroke="#ff0000" stroke-width="4" d="M529.5,-1132.7562C529.5,-1123.5536 529.5,-1113.3591 529.5,-1103.6267"/>
<polygon fill="#ff0000" stroke="#ff0000" stroke-width="4" points="533.0001,-1103.3163 529.5,-1093.3163 526.0001,-1103.3164 533.0001,-1103.3163"/>
<text text-anchor="middle" x="549" y="-1116" font-family="Arial" font-size="10.00" fill="#ff0000">100.00%</text>
<text text-anchor="middle" x="549" y="-1105" font-family="Arial" font-size="10.00" fill="#ff0000">1×</text>
</g>
<!-- FreeModuleHomomorphism_getMatrix -->
<g id="node5" class="node">
<title>FreeModuleHomomorphism_getMatrix</title>
<polygon fill="#0c968b" stroke="#0c968b" points="554.5,-578 372.5,-578 372.5,-515 554.5,-515 554.5,-578"/>
<text text-anchor="middle" x="463.5" y="-566" font-family="Arial" font-size="10.00" fill="#ffffff">csteen</text>
<text text-anchor="middle" x="463.5" y="-555" font-family="Arial" font-size="10.00" fill="#ffffff">FreeModuleHomomorphism_getMatrix</text>
<text text-anchor="middle" x="463.5" y="-544" font-family="Arial" font-size="10.00" fill="#ffffff">26.91%</text>
<text text-anchor="middle" x="463.5" y="-533" font-family="Arial" font-size="10.00" fill="#ffffff">(0.29%)</text>
<text text-anchor="middle" x="463.5" y="-522" font-family="Arial" font-size="10.00" fill="#ffffff">1830×</text>
</g>
<!-- FreeModule_actOnBasis -->
<g id="node6" class="node">
<title>FreeModule_actOnBasis</title>
<polygon fill="#0c9491" stroke="#0c9491" points="470.5,-475 346.5,-475 346.5,-412 470.5,-412 470.5,-475"/>
<text text-anchor="middle" x="408.5" y="-463" font-family="Arial" font-size="10.00" fill="#ffffff">csteen</text>
<text text-anchor="middle" x="408.5" y="-452" font-family="Arial" font-size="10.00" fill="#ffffff">FreeModule_actOnBasis</text>
<text text-anchor="middle" x="408.5" y="-441" font-family="Arial" font-size="10.00" fill="#ffffff">25.71%</text>
<text text-anchor="middle" x="408.5" y="-430" font-family="Arial" font-size="10.00" fill="#ffffff">(0.35%)</text>
<text text-anchor="middle" x="408.5" y="-419" font-family="Arial" font-size="10.00" fill="#ffffff">1015879×</text>
</g>
<!-- FreeModuleHomomorphism_getMatrix&#45;&gt;FreeModule_actOnBasis -->
<g id="edge3" class="edge">
<title>FreeModuleHomomorphism_getMatrix&#45;&gt;FreeModule_actOnBasis</title>
<path fill="none" stroke="#0c9491" stroke-width="1.03" d="M446.5494,-514.7562C440.6944,-503.7914 434.0875,-491.4184 428.042,-480.0969"/>
<polygon fill="#0c9491" stroke="#0c9491" stroke-width="1.03" points="429.4662,-478.9743 425.4893,-475.3163 426.317,-480.6559 429.4662,-478.9743"/>
<text text-anchor="middle" x="463" y="-498" font-family="Arial" font-size="10.00" fill="#0c9491">25.71%</text>
<text text-anchor="middle" x="463" y="-487" font-family="Arial" font-size="10.00" fill="#0c9491">1015879×</text>
</g>
<!-- Vector_stepIterator -->
<g id="node7" class="node">
<title>Vector_stepIterator</title>
<polygon fill="#0baa40" stroke="#0baa40" points="619,-475 520,-475 520,-412 619,-412 619,-475"/>
<text text-anchor="middle" x="569.5" y="-463" font-family="Arial" font-size="10.00" fill="#ffffff">csteen</text>
<text text-anchor="middle" x="569.5" y="-452" font-family="Arial" font-size="10.00" fill="#ffffff">Vector_stepIterator</text>
<text text-anchor="middle" x="569.5" y="-441" font-family="Arial" font-size="10.00" fill="#ffffff">41.70%</text>
<text text-anchor="middle" x="569.5" y="-430" font-family="Arial" font-size="10.00" fill="#ffffff">(32.67%)</text>
<text text-anchor="middle" x="569.5" y="-419" font-family="Arial" font-size="10.00" fill="#ffffff">239124892×</text>
</g>
<!-- FreeModuleHomomorphism_getMatrix&#45;&gt;Vector_stepIterator -->
<g id="edge4" class="edge">
<title>FreeModuleHomomorphism_getMatrix&#45;&gt;Vector_stepIterator</title>
<path fill="none" stroke="#0d1074" stroke-width=".5" d="M496.1684,-514.7562C508.1578,-503.1061 521.7832,-489.8663 534.0085,-477.987"/>
<polygon fill="#0d1074" stroke="#0d1074" stroke-width=".5" points="535.1005,-478.634 536.757,-475.3163 533.3931,-476.8769 535.1005,-478.634"/>
<text text-anchor="middle" x="548" y="-498" font-family="Arial" font-size="10.00" fill="#0d1074">0.87%</text>
<text text-anchor="middle" x="548" y="-487" font-family="Arial" font-size="10.00" fill="#0d1074">5104518×</text>
</g>
<!-- FreeModule_getDimension -->
<g id="node8" class="node">
<title>FreeModule_getDimension</title>
<polygon fill="#0d247a" stroke="#0d247a" points="330.5,-372 198.5,-372 198.5,-309 330.5,-309 330.5,-372"/>
<text text-anchor="middle" x="264.5" y="-360" font-family="Arial" font-size="10.00" fill="#ffffff">csteen</text>
<text text-anchor="middle" x="264.5" y="-349" font-family="Arial" font-size="10.00" fill="#ffffff">FreeModule_getDimension</text>
<text text-anchor="middle" x="264.5" y="-338" font-family="Arial" font-size="10.00" fill="#ffffff">5.39%</text>
<text text-anchor="middle" x="264.5" y="-327" font-family="Arial" font-size="10.00" fill="#ffffff">(2.66%)</text>
<text text-anchor="middle" x="264.5" y="-316" font-family="Arial" font-size="10.00" fill="#ffffff">1025194×</text>
</g>
<!-- FreeModule_actOnBasis&#45;&gt;FreeModule_getDimension -->
<g id="edge5" class="edge">
<title>FreeModule_actOnBasis&#45;&gt;FreeModule_getDimension</title>
<path fill="none" stroke="#0d247a" stroke-width=".5" d="M346.3502,-429.2983C329.4781,-423.2504 312.1268,-414.7761 298.5,-403 289.9353,-395.5985 283.1456,-385.487 277.9575,-375.5543"/>
<polygon fill="#0d247a" stroke="#0d247a" stroke-width=".5" points="278.9322,-374.7671 276.2592,-372.1968 276.7459,-375.873 278.9322,-374.7671"/>
<text text-anchor="middle" x="320" y="-395" font-family="Arial" font-size="10.00" fill="#0d247a">5.35%</text>
<text text-anchor="middle" x="320" y="-384" font-family="Arial" font-size="10.00" fill="#0d247a">1015879×</text>
</g>
<!-- MilnorAlgebra_getDimension -->
<g id="node9" class="node">
<title>MilnorAlgebra_getDimension</title>
<polygon fill="#0d1977" stroke="#0d1977" points="358.5,-269 218.5,-269 218.5,-206 358.5,-206 358.5,-269"/>
<text text-anchor="middle" x="288.5" y="-257" font-family="Arial" font-size="10.00" fill="#ffffff">csteen</text>
<text text-anchor="middle" x="288.5" y="-246" font-family="Arial" font-size="10.00" fill="#ffffff">MilnorAlgebra_getDimension</text>
<text text-anchor="middle" x="288.5" y="-235" font-family="Arial" font-size="10.00" fill="#ffffff">2.94%</text>
<text text-anchor="middle" x="288.5" y="-224" font-family="Arial" font-size="10.00" fill="#ffffff">(2.94%)</text>
<text text-anchor="middle" x="288.5" y="-213" font-family="Arial" font-size="10.00" fill="#ffffff">58312726×</text>
</g>
<!-- FreeModule_actOnBasis&#45;&gt;MilnorAlgebra_getDimension -->
<g id="edge6" class="edge">
<title>FreeModule_actOnBasis&#45;&gt;MilnorAlgebra_getDimension</title>
<path fill="none" stroke="#0d0d73" stroke-width=".5" d="M379.675,-411.9327C370.1571,-400.1146 360.2813,-386.1165 353.5,-372 334.8761,-333.2311 351.937,-315.2871 330.5,-278 329.3735,-276.0406 328.1243,-274.1151 326.7824,-272.2324"/>
<polygon fill="#0d0d73" stroke="#0d0d73" stroke-width=".5" points="327.6768,-271.3828 324.6016,-269.3106 325.7134,-272.8482 327.6768,-271.3828"/>
<text text-anchor="middle" x="375" y="-343.5" font-family="Arial" font-size="10.00" fill="#0d0d73">0.10%</text>
<text text-anchor="middle" x="375" y="-332.5" font-family="Arial" font-size="10.00" fill="#0d0d73">2031758×</text>
</g>
<!-- MilnorAlgebra_multiply -->
<g id="node10" class="node">
<title>MilnorAlgebra_multiply</title>
<polygon fill="#0c6e8c" stroke="#0c6e8c" points="516,-372 401,-372 401,-309 516,-309 516,-372"/>
<text text-anchor="middle" x="458.5" y="-360" font-family="Arial" font-size="10.00" fill="#ffffff">csteen</text>
<text text-anchor="middle" x="458.5" y="-349" font-family="Arial" font-size="10.00" fill="#ffffff">MilnorAlgebra_multiply</text>
<text text-anchor="middle" x="458.5" y="-338" font-family="Arial" font-size="10.00" fill="#ffffff">19.25%</text>
<text text-anchor="middle" x="458.5" y="-327" font-family="Arial" font-size="10.00" fill="#ffffff">(0.28%)</text>
<text text-anchor="middle" x="458.5" y="-316" font-family="Arial" font-size="10.00" fill="#ffffff">1015879×</text>
</g>
<!-- FreeModule_actOnBasis&#45;&gt;MilnorAlgebra_multiply -->
<g id="edge7" class="edge">
<title>FreeModule_actOnBasis&#45;&gt;MilnorAlgebra_multiply</title>
<path fill="none" stroke="#0c6e8c" stroke-width=".77" d="M423.9096,-411.7562C429.3274,-400.5956 435.4534,-387.9761 441.0285,-376.4914"/>
<polygon fill="#0c6e8c" stroke="#0c6e8c" stroke-width=".77" points="442.519,-376.9471 443.0552,-372.3163 439.7482,-375.6021 442.519,-376.9471"/>
<text text-anchor="middle" x="460" y="-395" font-family="Arial" font-size="10.00" fill="#0c6e8c">19.25%</text>
<text text-anchor="middle" x="460" y="-384" font-family="Arial" font-size="10.00" fill="#0c6e8c">1015879×</text>
</g>
<!-- getBitlength -->
<g id="node24" class="node">
<title>getBitlength</title>
<polygon fill="#0d2179" stroke="#0d2179" points="726.5,-269 656.5,-269 656.5,-206 726.5,-206 726.5,-269"/>
<text text-anchor="middle" x="691.5" y="-257" font-family="Arial" font-size="10.00" fill="#ffffff">csteen</text>
<text text-anchor="middle" x="691.5" y="-246" font-family="Arial" font-size="10.00" fill="#ffffff">getBitlength</text>
<text text-anchor="middle" x="691.5" y="-235" font-family="Arial" font-size="10.00" fill="#ffffff">4.80%</text>
<text text-anchor="middle" x="691.5" y="-224" font-family="Arial" font-size="10.00" fill="#ffffff">(4.80%)</text>
<text text-anchor="middle" x="691.5" y="-213" font-family="Arial" font-size="10.00" fill="#ffffff">253551581×</text>
</g>
<!-- Vector_stepIterator&#45;&gt;getBitlength -->
<g id="edge26" class="edge">
<title>Vector_stepIterator&#45;&gt;getBitlength</title>
<path fill="none" stroke="#0d2079" stroke-width=".5" d="M555.15,-411.755C544.4216,-382.8798 534.5613,-340.1422 553.5,-309 559.2446,-299.5538 614.1948,-272.8974 652.9928,-254.9386"/>
<polygon fill="#0d2079" stroke="#0d2079" stroke-width=".5" points="653.5617,-256.0252 656.2252,-253.4452 652.5341,-253.8011 653.5617,-256.0252"/>
<text text-anchor="middle" x="580.5" y="-343.5" font-family="Arial" font-size="10.00" fill="#0d2079">4.52%</text>
<text text-anchor="middle" x="580.5" y="-332.5" font-family="Arial" font-size="10.00" fill="#0d2079">238746081×</text>
</g>
<!-- getBitMask -->
<g id="node27" class="node">
<title>getBitMask</title>
<polygon fill="#0d2079" stroke="#0d2079" points="682.5,-372 612.5,-372 612.5,-309 682.5,-309 682.5,-372"/>
<text text-anchor="middle" x="647.5" y="-360" font-family="Arial" font-size="10.00" fill="#ffffff">csteen</text>
<text text-anchor="middle" x="647.5" y="-349" font-family="Arial" font-size="10.00" fill="#ffffff">getBitMask</text>
<text text-anchor="middle" x="647.5" y="-338" font-family="Arial" font-size="10.00" fill="#ffffff">4.53%</text>
<text text-anchor="middle" x="647.5" y="-327" font-family="Arial" font-size="10.00" fill="#ffffff">(4.53%)</text>
<text text-anchor="middle" x="647.5" y="-316" font-family="Arial" font-size="10.00" fill="#ffffff">239277290×</text>
</g>
<!-- Vector_stepIterator&#45;&gt;getBitMask -->
<g id="edge25" class="edge">
<title>Vector_stepIterator&#45;&gt;getBitMask</title>
<path fill="none" stroke="#0d2079" stroke-width=".5" d="M593.539,-411.7562C602.2872,-400.204 612.2192,-387.0887 621.1566,-375.2868"/>
<polygon fill="#0d2079" stroke="#0d2079" stroke-width=".5" points="622.2696,-375.8461 623.4061,-372.3163 620.3165,-374.367 622.2696,-375.8461"/>
<text text-anchor="middle" x="642.5" y="-395" font-family="Arial" font-size="10.00" fill="#0d2079">4.52%</text>
<text text-anchor="middle" x="642.5" y="-384" font-family="Arial" font-size="10.00" fill="#0d2079">238746081×</text>
</g>
<!-- FreeModule_getDimension&#45;&gt;MilnorAlgebra_getDimension -->
<g id="edge8" class="edge">
<title>FreeModule_getDimension&#45;&gt;MilnorAlgebra_getDimension</title>
<path fill="none" stroke="#0d1876" stroke-width=".5" d="M271.8966,-308.7562C274.5428,-297.3998 277.5409,-284.5328 280.2543,-272.888"/>
<polygon fill="#0d1876" stroke="#0d1876" stroke-width=".5" points="281.4852,-273.003 281.0865,-269.3163 279.0991,-272.447 281.4852,-273.003"/>
<text text-anchor="middle" x="304" y="-292" font-family="Arial" font-size="10.00" fill="#0d1876">2.72%</text>
<text text-anchor="middle" x="304" y="-281" font-family="Arial" font-size="10.00" fill="#0d1876">54023866×</text>
</g>
<!-- MilnorAlgebra_multiply&#45;&gt;MilnorAlgebra_getDimension -->
<g id="edge15" class="edge">
<title>MilnorAlgebra_multiply&#45;&gt;MilnorAlgebra_getDimension</title>
<path fill="none" stroke="#0d0d73" stroke-width=".5" d="M406.376,-308.8479C390.0866,-298.9625 372.0493,-288.0229 355.5,-278 351.7761,-275.7446 347.9351,-273.4196 344.0647,-271.0777"/>
<polygon fill="#0d0d73" stroke="#0d0d73" stroke-width=".5" points="344.4372,-269.8714 340.8085,-269.1076 343.169,-271.9676 344.4372,-269.8714"/>
<text text-anchor="middle" x="411" y="-292" font-family="Arial" font-size="10.00" fill="#0d0d73">0.10%</text>
<text text-anchor="middle" x="411" y="-281" font-family="Arial" font-size="10.00" fill="#0d0d73">2031758×</text>
</g>
<!-- MilnorAlgebra__multiplyEven -->
<g id="node11" class="node">
<title>MilnorAlgebra__multiplyEven</title>
<polygon fill="#0c5586" stroke="#0c5586" points="511,-269 368,-269 368,-206 511,-206 511,-269"/>
<text text-anchor="middle" x="439.5" y="-257" font-family="Arial" font-size="10.00" fill="#ffffff">csteen</text>
<text text-anchor="middle" x="439.5" y="-246" font-family="Arial" font-size="10.00" fill="#ffffff">MilnorAlgebra__multiplyEven</text>
<text text-anchor="middle" x="439.5" y="-235" font-family="Arial" font-size="10.00" fill="#ffffff">15.00%</text>
<text text-anchor="middle" x="439.5" y="-224" font-family="Arial" font-size="10.00" fill="#ffffff">(5.21%)</text>
<text text-anchor="middle" x="439.5" y="-213" font-family="Arial" font-size="10.00" fill="#ffffff">1015879×</text>
</g>
<!-- MilnorAlgebra_multiply&#45;&gt;MilnorAlgebra__multiplyEven -->
<g id="edge14" class="edge">
<title>MilnorAlgebra_multiply&#45;&gt;MilnorAlgebra__multiplyEven</title>
<path fill="none" stroke="#0c5586" stroke-width=".6" d="M444.9094,-308.9711C443.9649,-305.9775 443.1366,-302.9563 442.5,-300 440.6723,-291.5125 439.6934,-282.2329 439.2114,-273.483"/>
<polygon fill="#0c5586" stroke="#0c5586" stroke-width=".6" points="440.5586,-273.0681 439.0132,-269.236 437.8316,-273.1954 440.5586,-273.0681"/>
<text text-anchor="middle" x="464" y="-292" font-family="Arial" font-size="10.00" fill="#0c5586">15.00%</text>
<text text-anchor="middle" x="464" y="-281" font-family="Arial" font-size="10.00" fill="#0c5586">1015879×</text>
</g>
<!-- Vector_addArray -->
<g id="node17" class="node">
<title>Vector_addArray</title>
<polygon fill="#0d1c77" stroke="#0d1c77" points="615,-269 526,-269 526,-206 615,-206 615,-269"/>
<text text-anchor="middle" x="570.5" y="-257" font-family="Arial" font-size="10.00" fill="#ffffff">csteen</text>
<text text-anchor="middle" x="570.5" y="-246" font-family="Arial" font-size="10.00" fill="#ffffff">Vector_addArray</text>
<text text-anchor="middle" x="570.5" y="-235" font-family="Arial" font-size="10.00" fill="#ffffff">3.68%</text>
<text text-anchor="middle" x="570.5" y="-224" font-family="Arial" font-size="10.00" fill="#ffffff">(0.04%)</text>
<text text-anchor="middle" x="570.5" y="-213" font-family="Arial" font-size="10.00" fill="#ffffff">1015879×</text>
</g>
<!-- MilnorAlgebra_multiply&#45;&gt;Vector_addArray -->
<g id="edge16" class="edge">
<title>MilnorAlgebra_multiply&#45;&gt;Vector_addArray</title>
<path fill="none" stroke="#0d1c77" stroke-width=".5" d="M478.2866,-308.9246C487.3147,-294.7888 496.6312,-280.6796 499.5,-278 505.4625,-272.4308 508.4044,-273.0275 515.5,-269 517.8027,-267.693 520.1585,-266.3534 522.5369,-264.9988"/>
<polygon fill="#0d1c77" stroke="#0d1c77" stroke-width=".5" points="523.3571,-265.9414 525.7915,-263.1441 522.1441,-263.8128 523.3571,-265.9414"/>
<text text-anchor="middle" x="521" y="-292" font-family="Arial" font-size="10.00" fill="#0d1c77">3.68%</text>
<text text-anchor="middle" x="521" y="-281" font-family="Arial" font-size="10.00" fill="#0d1c77">1015879×</text>
</g>
<!-- MilnorAlgebra_basisElement_toIndex -->
<g id="node12" class="node">
<title>MilnorAlgebra_basisElement_toIndex</title>
<polygon fill="#0d1b77" stroke="#0d1b77" points="336.5,-166 158.5,-166 158.5,-103 336.5,-103 336.5,-166"/>
<text text-anchor="middle" x="247.5" y="-154" font-family="Arial" font-size="10.00" fill="#ffffff">csteen</text>
<text text-anchor="middle" x="247.5" y="-143" font-family="Arial" font-size="10.00" fill="#ffffff">MilnorAlgebra_basisElement_toIndex</text>
<text text-anchor="middle" x="247.5" y="-132" font-family="Arial" font-size="10.00" fill="#ffffff">3.44%</text>
<text text-anchor="middle" x="247.5" y="-121" font-family="Arial" font-size="10.00" fill="#ffffff">(0.43%)</text>
<text text-anchor="middle" x="247.5" y="-110" font-family="Arial" font-size="10.00" fill="#ffffff">1740260×</text>
</g>
<!-- MilnorAlgebra__multiplyEven&#45;&gt;MilnorAlgebra_basisElement_toIndex -->
<g id="edge9" class="edge">
<title>MilnorAlgebra__multiplyEven&#45;&gt;MilnorAlgebra_basisElement_toIndex</title>
<path fill="none" stroke="#0d1b77" stroke-width=".5" d="M367.8865,-207.6372C360.5893,-204.2013 353.348,-200.6256 346.5,-197 330.1643,-188.3512 312.942,-177.9604 297.5243,-168.1566"/>
<polygon fill="#0d1b77" stroke="#0d1b77" stroke-width=".5" points="298.075,-167.0548 294.4656,-166.2043 296.7568,-169.12 298.075,-167.0548"/>
<text text-anchor="middle" x="368" y="-189" font-family="Arial" font-size="10.00" fill="#0d1b77">3.44%</text>
<text text-anchor="middle" x="368" y="-178" font-family="Arial" font-size="10.00" fill="#0d1b77">1740260×</text>
</g>
<!-- Multinomial -->
<g id="node13" class="node">
<title>Multinomial</title>
<polygon fill="#0d1675" stroke="#0d1675" points="411.5,-166 345.5,-166 345.5,-103 411.5,-103 411.5,-166"/>
<text text-anchor="middle" x="378.5" y="-154" font-family="Arial" font-size="10.00" fill="#ffffff">csteen</text>
<text text-anchor="middle" x="378.5" y="-143" font-family="Arial" font-size="10.00" fill="#ffffff">Multinomial</text>
<text text-anchor="middle" x="378.5" y="-132" font-family="Arial" font-size="10.00" fill="#ffffff">2.12%</text>
<text text-anchor="middle" x="378.5" y="-121" font-family="Arial" font-size="10.00" fill="#ffffff">(0.49%)</text>
<text text-anchor="middle" x="378.5" y="-110" font-family="Arial" font-size="10.00" fill="#ffffff">14476543×</text>
</g>
<!-- MilnorAlgebra__multiplyEven&#45;&gt;Multinomial -->
<g id="edge10" class="edge">
<title>MilnorAlgebra__multiplyEven&#45;&gt;Multinomial</title>
<path fill="none" stroke="#0d1675" stroke-width=".5" d="M407.5829,-205.7211C405.3854,-202.8772 403.3234,-199.9535 401.5,-197 396.3069,-188.5883 392.0171,-178.8238 388.6065,-169.5483"/>
<polygon fill="#0d1675" stroke="#0d1675" stroke-width=".5" points="389.7246,-169.0373 387.3896,-166.1566 387.4186,-169.8647 389.7246,-169.0373"/>
<text text-anchor="middle" x="426" y="-189" font-family="Arial" font-size="10.00" fill="#0d1675">2.12%</text>
<text text-anchor="middle" x="426" y="-178" font-family="Arial" font-size="10.00" fill="#0d1675">14476543×</text>
</g>
<!-- milnor_matrix_step -->
<g id="node14" class="node">
<title>milnor_matrix_step</title>
<polygon fill="#0d1977" stroke="#0d1977" points="520,-166 421,-166 421,-103 520,-103 520,-166"/>
<text text-anchor="middle" x="470.5" y="-154" font-family="Arial" font-size="10.00" fill="#ffffff">csteen</text>
<text text-anchor="middle" x="470.5" y="-143" font-family="Arial" font-size="10.00" fill="#ffffff">milnor_matrix_step</text>
<text text-anchor="middle" x="470.5" y="-132" font-family="Arial" font-size="10.00" fill="#ffffff">3.01%</text>
<text text-anchor="middle" x="470.5" y="-121" font-family="Arial" font-size="10.00" fill="#ffffff">(1.86%)</text>
<text text-anchor="middle" x="470.5" y="-110" font-family="Arial" font-size="10.00" fill="#ffffff">7653329×</text>
</g>
<!-- MilnorAlgebra__multiplyEven&#45;&gt;milnor_matrix_step -->
<g id="edge11" class="edge">
<title>MilnorAlgebra__multiplyEven&#45;&gt;milnor_matrix_step</title>
<path fill="none" stroke="#0d1977" stroke-width=".5" d="M449.054,-205.7562C452.4719,-194.3998 456.3445,-181.5328 459.8492,-169.888"/>
<polygon fill="#0d1977" stroke="#0d1977" stroke-width=".5" points="461.0885,-170.0209 460.9242,-166.3163 458.7424,-169.3148 461.0885,-170.0209"/>
<text text-anchor="middle" x="480" y="-189" font-family="Arial" font-size="10.00" fill="#0d1977">3.01%</text>
<text text-anchor="middle" x="480" y="-178" font-family="Arial" font-size="10.00" fill="#0d1977">7653329×</text>
</g>
<!-- MilnorAlgebra_basisElement_toKey -->
<g id="node15" class="node">
<title>MilnorAlgebra_basisElement_toKey</title>
<polygon fill="#0d1274" stroke="#0d1274" points="171,-63 0,-63 0,0 171,0 171,-63"/>
<text text-anchor="middle" x="85.5" y="-51" font-family="Arial" font-size="10.00" fill="#ffffff">csteen</text>
<text text-anchor="middle" x="85.5" y="-40" font-family="Arial" font-size="10.00" fill="#ffffff">MilnorAlgebra_basisElement_toKey</text>
<text text-anchor="middle" x="85.5" y="-29" font-family="Arial" font-size="10.00" fill="#ffffff">1.28%</text>
<text text-anchor="middle" x="85.5" y="-18" font-family="Arial" font-size="10.00" fill="#ffffff">(1.24%)</text>
<text text-anchor="middle" x="85.5" y="-7" font-family="Arial" font-size="10.00" fill="#ffffff">1744175×</text>
</g>
<!-- MilnorAlgebra_basisElement_toIndex&#45;&gt;MilnorAlgebra_basisElement_toKey -->
<g id="edge12" class="edge">
<title>MilnorAlgebra_basisElement_toIndex&#45;&gt;MilnorAlgebra_basisElement_toKey</title>
<path fill="none" stroke="#0d1274" stroke-width=".5" d="M197.5728,-102.7562C178.8536,-90.8545 157.5247,-77.2935 138.5339,-65.2191"/>
<polygon fill="#0d1274" stroke="#0d1274" stroke-width=".5" points="138.8732,-63.9832 135.2624,-63.139 137.5587,-66.0507 138.8732,-63.9832"/>
<text text-anchor="middle" x="203" y="-86" font-family="Arial" font-size="10.00" fill="#0d1274">1.28%</text>
<text text-anchor="middle" x="203" y="-75" font-family="Arial" font-size="10.00" fill="#0d1274">1740260×</text>
</g>
<!-- kh_get_monomial_index_map -->
<g id="node16" class="node">
<title>kh_get_monomial_index_map</title>
<polygon fill="#0d1475" stroke="#0d1475" points="326.5,-63 180.5,-63 180.5,0 326.5,0 326.5,-63"/>
<text text-anchor="middle" x="253.5" y="-51" font-family="Arial" font-size="10.00" fill="#ffffff">csteen</text>
<text text-anchor="middle" x="253.5" y="-40" font-family="Arial" font-size="10.00" fill="#ffffff">kh_get_monomial_index_map</text>
<text text-anchor="middle" x="253.5" y="-29" font-family="Arial" font-size="10.00" fill="#ffffff">1.73%</text>
<text text-anchor="middle" x="253.5" y="-18" font-family="Arial" font-size="10.00" fill="#ffffff">(0.51%)</text>
<text text-anchor="middle" x="253.5" y="-7" font-family="Arial" font-size="10.00" fill="#ffffff">1740260×</text>
</g>
<!-- MilnorAlgebra_basisElement_toIndex&#45;&gt;kh_get_monomial_index_map -->
<g id="edge13" class="edge">
<title>MilnorAlgebra_basisElement_toIndex&#45;&gt;kh_get_monomial_index_map</title>
<path fill="none" stroke="#0d1475" stroke-width=".5" d="M249.3492,-102.7562C250.0107,-91.3998 250.7602,-78.5328 251.4386,-66.888"/>
<polygon fill="#0d1475" stroke="#0d1475" stroke-width=".5" points="252.6659,-66.8817 251.6466,-63.3163 250.2201,-66.7391 252.6659,-66.8817"/>
<text text-anchor="middle" x="273" y="-86" font-family="Arial" font-size="10.00" fill="#0d1475">1.73%</text>
<text text-anchor="middle" x="273" y="-75" font-family="Arial" font-size="10.00" fill="#0d1475">1740260×</text>
</g>
<!-- Multinomial2 -->
<g id="node18" class="node">
<title>Multinomial2</title>
<polygon fill="#0d1475" stroke="#0d1475" points="410,-63 339,-63 339,0 410,0 410,-63"/>
<text text-anchor="middle" x="374.5" y="-51" font-family="Arial" font-size="10.00" fill="#ffffff">csteen</text>
<text text-anchor="middle" x="374.5" y="-40" font-family="Arial" font-size="10.00" fill="#ffffff">Multinomial2</text>
<text text-anchor="middle" x="374.5" y="-29" font-family="Arial" font-size="10.00" fill="#ffffff">1.64%</text>
<text text-anchor="middle" x="374.5" y="-18" font-family="Arial" font-size="10.00" fill="#ffffff">(1.64%)</text>
<text text-anchor="middle" x="374.5" y="-7" font-family="Arial" font-size="10.00" fill="#ffffff">14476543×</text>
</g>
<!-- Multinomial&#45;&gt;Multinomial2 -->
<g id="edge17" class="edge">
<title>Multinomial&#45;&gt;Multinomial2</title>
<path fill="none" stroke="#0d1475" stroke-width=".5" d="M377.2672,-102.7562C376.8262,-91.3998 376.3265,-78.5328 375.8743,-66.888"/>
<polygon fill="#0d1475" stroke="#0d1475" stroke-width=".5" points="377.0956,-66.7661 375.7356,-63.3163 374.6474,-66.8613 377.0956,-66.7661"/>
<text text-anchor="middle" x="402" y="-86" font-family="Arial" font-size="10.00" fill="#0d1475">1.64%</text>
<text text-anchor="middle" x="402" y="-75" font-family="Arial" font-size="10.00" fill="#0d1475">14476543×</text>
</g>
<!-- milnor_matrix_step_update_matrix -->
<g id="node28" class="node">
<title>milnor_matrix_step_update_matrix</title>
<polygon fill="#0d1274" stroke="#0d1274" points="585.5,-63 419.5,-63 419.5,0 585.5,0 585.5,-63"/>
<text text-anchor="middle" x="502.5" y="-51" font-family="Arial" font-size="10.00" fill="#ffffff">csteen</text>
<text text-anchor="middle" x="502.5" y="-40" font-family="Arial" font-size="10.00" fill="#ffffff">milnor_matrix_step_update_matrix</text>
<text text-anchor="middle" x="502.5" y="-29" font-family="Arial" font-size="10.00" fill="#ffffff">1.15%</text>
<text text-anchor="middle" x="502.5" y="-18" font-family="Arial" font-size="10.00" fill="#ffffff">(1.15%)</text>
<text text-anchor="middle" x="502.5" y="-7" font-family="Arial" font-size="10.00" fill="#ffffff">6637450×</text>
</g>
<!-- milnor_matrix_step&#45;&gt;milnor_matrix_step_update_matrix -->
<g id="edge29" class="edge">
<title>milnor_matrix_step&#45;&gt;milnor_matrix_step_update_matrix</title>
<path fill="none" stroke="#0d1274" stroke-width=".5" d="M480.3622,-102.7562C483.8903,-91.3998 487.8879,-78.5328 491.5057,-66.888"/>
<polygon fill="#0d1274" stroke="#0d1274" stroke-width=".5" points="492.7467,-67.0222 492.6153,-63.3163 490.407,-66.2953 492.7467,-67.0222"/>
<text text-anchor="middle" x="511" y="-86" font-family="Arial" font-size="10.00" fill="#0d1274">1.15%</text>
<text text-anchor="middle" x="511" y="-75" font-family="Arial" font-size="10.00" fill="#0d1274">6637450×</text>
</g>
<!-- Vector2_addArray -->
<g id="node25" class="node">
<title>Vector2_addArray</title>
<polygon fill="#0d1c77" stroke="#0d1c77" points="623.5,-166 529.5,-166 529.5,-103 623.5,-103 623.5,-166"/>
<text text-anchor="middle" x="576.5" y="-154" font-family="Arial" font-size="10.00" fill="#ffffff">csteen</text>
<text text-anchor="middle" x="576.5" y="-143" font-family="Arial" font-size="10.00" fill="#ffffff">Vector2_addArray</text>
<text text-anchor="middle" x="576.5" y="-132" font-family="Arial" font-size="10.00" fill="#ffffff">3.64%</text>
<text text-anchor="middle" x="576.5" y="-121" font-family="Arial" font-size="10.00" fill="#ffffff">(3.64%)</text>
<text text-anchor="middle" x="576.5" y="-110" font-family="Arial" font-size="10.00" fill="#ffffff">1015879×</text>
</g>
<!-- Vector_addArray&#45;&gt;Vector2_addArray -->
<g id="edge24" class="edge">
<title>Vector_addArray&#45;&gt;Vector2_addArray</title>
<path fill="none" stroke="#0d1c77" stroke-width=".5" d="M572.3492,-205.7562C573.0107,-194.3998 573.7602,-181.5328 574.4386,-169.888"/>
<polygon fill="#0d1c77" stroke="#0d1c77" stroke-width=".5" points="575.6659,-169.8817 574.6466,-166.3163 573.2201,-169.7391 575.6659,-169.8817"/>
<text text-anchor="middle" x="596" y="-189" font-family="Arial" font-size="10.00" fill="#0d1c77">3.64%</text>
<text text-anchor="middle" x="596" y="-178" font-family="Arial" font-size="10.00" fill="#0d1c77">1015879×</text>
</g>
<!-- Resolution_generateOldKernelAndComputeNewKernel -->
<g id="node19" class="node">
<title>Resolution_generateOldKernelAndComputeNewKernel</title>
<polygon fill="#ff0000" stroke="#ff0000" points="655,-681 404,-681 404,-618 655,-618 655,-681"/>
<text text-anchor="middle" x="529.5" y="-669" font-family="Arial" font-size="10.00" fill="#ffffff">csteen</text>
<text text-anchor="middle" x="529.5" y="-658" font-family="Arial" font-size="10.00" fill="#ffffff">Resolution_generateOldKernelAndComputeNewKernel</text>
<text text-anchor="middle" x="529.5" y="-647" font-family="Arial" font-size="10.00" fill="#ffffff">99.98%</text>
<text text-anchor="middle" x="529.5" y="-636" font-family="Arial" font-size="10.00" fill="#ffffff">(0.04%)</text>
<text text-anchor="middle" x="529.5" y="-625" font-family="Arial" font-size="10.00" fill="#ffffff">1830×</text>
</g>
<!-- Resolution_generateOldKernelAndComputeNewKernel&#45;&gt;FreeModuleHomomorphism_getMatrix -->
<g id="edge18" class="edge">
<title>Resolution_generateOldKernelAndComputeNewKernel&#45;&gt;FreeModuleHomomorphism_getMatrix</title>
<path fill="none" stroke="#0c968b" stroke-width="1.08" d="M509.1593,-617.7562C502.0706,-606.6935 494.0634,-594.1974 486.7563,-582.7939"/>
<polygon fill="#0c968b" stroke="#0c968b" stroke-width="1.08" points="488.2251,-581.7127 483.8872,-578.3163 485.1603,-583.6766 488.2251,-581.7127"/>
<text text-anchor="middle" x="519.5" y="-601" font-family="Arial" font-size="10.00" fill="#0c968b">26.91%</text>
<text text-anchor="middle" x="519.5" y="-590" font-family="Arial" font-size="10.00" fill="#0c968b">1830×</text>
</g>
<!-- rowReduce -->
<g id="node20" class="node">
<title>rowReduce</title>
<polygon fill="#c2d606" stroke="#c2d606" points="629,-578 564,-578 564,-515 629,-515 629,-578"/>
<text text-anchor="middle" x="596.5" y="-566" font-family="Arial" font-size="10.00" fill="#ffffff">csteen</text>
<text text-anchor="middle" x="596.5" y="-555" font-family="Arial" font-size="10.00" fill="#ffffff">rowReduce</text>
<text text-anchor="middle" x="596.5" y="-544" font-family="Arial" font-size="10.00" fill="#ffffff">72.59%</text>
<text text-anchor="middle" x="596.5" y="-533" font-family="Arial" font-size="10.00" fill="#ffffff">(19.74%)</text>
<text text-anchor="middle" x="596.5" y="-522" font-family="Arial" font-size="10.00" fill="#ffffff">3660×</text>
</g>
<!-- Resolution_generateOldKernelAndComputeNewKernel&#45;&gt;rowReduce -->
<g id="edge19" class="edge">
<title>Resolution_generateOldKernelAndComputeNewKernel&#45;&gt;rowReduce</title>
<path fill="none" stroke="#c2d606" stroke-width="2.9" d="M550.1489,-617.7562C556.7719,-607.5746 564.1847,-596.1788 571.1063,-585.5381"/>
<polygon fill="#c2d606" stroke="#c2d606" stroke-width="2.9" points="573.6629,-587.0637 575.8039,-578.3163 568.6752,-583.8193 573.6629,-587.0637"/>
<text text-anchor="middle" x="586.5" y="-601" font-family="Arial" font-size="10.00" fill="#c2d606">72.59%</text>
<text text-anchor="middle" x="586.5" y="-590" font-family="Arial" font-size="10.00" fill="#c2d606">3660×</text>
</g>
<!-- rowReduce&#45;&gt;Vector_stepIterator -->
<g id="edge31" class="edge">
<title>rowReduce&#45;&gt;Vector_stepIterator</title>
<path fill="none" stroke="#0ba945" stroke-width="1.63" d="M588.1788,-514.7562C585.4329,-504.2809 582.35,-492.5203 579.4924,-481.6192"/>
<polygon fill="#0ba945" stroke="#0ba945" stroke-width="1.63" points="581.6299,-480.9391 577.8402,-475.3163 577.2963,-482.0752 581.6299,-480.9391"/>
<text text-anchor="middle" x="612.5" y="-498" font-family="Arial" font-size="10.00" fill="#0ba945">40.83%</text>
<text text-anchor="middle" x="612.5" y="-487" font-family="Arial" font-size="10.00" fill="#0ba945">234020374×</text>
</g>
<!-- Vector_add -->
<g id="node26" class="node">
<title>Vector_add</title>
<polygon fill="#0d4582" stroke="#0d4582" points="733,-475 668,-475 668,-412 733,-412 733,-475"/>
<text text-anchor="middle" x="700.5" y="-463" font-family="Arial" font-size="10.00" fill="#ffffff">csteen</text>
<text text-anchor="middle" x="700.5" y="-452" font-family="Arial" font-size="10.00" fill="#ffffff">Vector_add</text>
<text text-anchor="middle" x="700.5" y="-441" font-family="Arial" font-size="10.00" fill="#ffffff">11.97%</text>
<text text-anchor="middle" x="700.5" y="-430" font-family="Arial" font-size="10.00" fill="#ffffff">(0.37%)</text>
<text text-anchor="middle" x="700.5" y="-419" font-family="Arial" font-size="10.00" fill="#ffffff">10352362×</text>
</g>
<!-- rowReduce&#45;&gt;Vector_add -->
<g id="edge30" class="edge">
<title>rowReduce&#45;&gt;Vector_add</title>
<path fill="none" stroke="#0d4582" stroke-width=".5" d="M629.2348,-517.6085C633.4111,-513.7567 637.5896,-509.8185 641.5,-506 650.5946,-497.1192 660.1697,-487.2281 668.8984,-477.9824"/>
<polygon fill="#0d4582" stroke="#0d4582" stroke-width=".5" points="670.0713,-478.5237 671.5786,-475.1356 668.2875,-476.8442 670.0713,-478.5237"/>
<text text-anchor="middle" x="688" y="-498" font-family="Arial" font-size="10.00" fill="#0d4582">11.97%</text>
<text text-anchor="middle" x="688" y="-487" font-family="Arial" font-size="10.00" fill="#0d4582">10352362×</text>
</g>
<!-- Resolution_step -->
<g id="node22" class="node">
<title>Resolution_step</title>
<polygon fill="#ff0000" stroke="#ff0000" points="572.5,-784 486.5,-784 486.5,-721 572.5,-721 572.5,-784"/>
<text text-anchor="middle" x="529.5" y="-772" font-family="Arial" font-size="10.00" fill="#ffffff">csteen</text>
<text text-anchor="middle" x="529.5" y="-761" font-family="Arial" font-size="10.00" fill="#ffffff">Resolution_step</text>
<text text-anchor="middle" x="529.5" y="-750" font-family="Arial" font-size="10.00" fill="#ffffff">99.98%</text>
<text text-anchor="middle" x="529.5" y="-739" font-family="Arial" font-size="10.00" fill="#ffffff">(0.00%)</text>
<text text-anchor="middle" x="529.5" y="-728" font-family="Arial" font-size="10.00" fill="#ffffff">1830×</text>
</g>
<!-- Resolution_resolveThroughDegree&#45;&gt;Resolution_step -->
<g id="edge20" class="edge">
<title>Resolution_resolveThroughDegree&#45;&gt;Resolution_step</title>
<path fill="none" stroke="#ff0000" stroke-width="4" d="M529.5,-823.7562C529.5,-814.5536 529.5,-804.3591 529.5,-794.6267"/>
<polygon fill="#ff0000" stroke="#ff0000" stroke-width="4" points="533.0001,-794.3163 529.5,-784.3163 526.0001,-794.3164 533.0001,-794.3163"/>
<text text-anchor="middle" x="546.5" y="-807" font-family="Arial" font-size="10.00" fill="#ff0000">99.98%</text>
<text text-anchor="middle" x="546.5" y="-796" font-family="Arial" font-size="10.00" fill="#ff0000">1830×</text>
</g>
<!-- Resolution_step&#45;&gt;Resolution_generateOldKernelAndComputeNewKernel -->
<g id="edge21" class="edge">
<title>Resolution_step&#45;&gt;Resolution_generateOldKernelAndComputeNewKernel</title>
<path fill="none" stroke="#ff0000" stroke-width="4" d="M529.5,-720.7562C529.5,-711.5536 529.5,-701.3591 529.5,-691.6267"/>
<polygon fill="#ff0000" stroke="#ff0000" stroke-width="4" points="533.0001,-691.3163 529.5,-681.3163 526.0001,-691.3164 533.0001,-691.3163"/>
<text text-anchor="middle" x="546.5" y="-704" font-family="Arial" font-size="10.00" fill="#ff0000">99.98%</text>
<text text-anchor="middle" x="546.5" y="-693" font-family="Arial" font-size="10.00" fill="#ff0000">1830×</text>
</g>
<!-- Vector2_add -->
<g id="node23" class="node">
<title>Vector2_add</title>
<polygon fill="#0d4382" stroke="#0d4382" points="763,-372 692,-372 692,-309 763,-309 763,-372"/>
<text text-anchor="middle" x="727.5" y="-360" font-family="Arial" font-size="10.00" fill="#ffffff">csteen</text>
<text text-anchor="middle" x="727.5" y="-349" font-family="Arial" font-size="10.00" fill="#ffffff">Vector2_add</text>
<text text-anchor="middle" x="727.5" y="-338" font-family="Arial" font-size="10.00" fill="#ffffff">11.60%</text>
<text text-anchor="middle" x="727.5" y="-327" font-family="Arial" font-size="10.00" fill="#ffffff">(11.41%)</text>
<text text-anchor="middle" x="727.5" y="-316" font-family="Arial" font-size="10.00" fill="#ffffff">10352362×</text>
</g>
<!-- Vector2_add&#45;&gt;getBitlength -->
<g id="edge22" class="edge">
<title>Vector2_add&#45;&gt;getBitlength</title>
<path fill="none" stroke="#0d0e73" stroke-width=".5" d="M716.4051,-308.7562C712.4359,-297.3998 707.9387,-284.5328 703.8686,-272.888"/>
<polygon fill="#0d0e73" stroke="#0d0e73" stroke-width=".5" points="704.9315,-272.2161 702.6203,-269.3163 702.6187,-273.0245 704.9315,-272.2161"/>
<text text-anchor="middle" x="737" y="-292" font-family="Arial" font-size="10.00" fill="#0d0e73">0.20%</text>
<text text-anchor="middle" x="737" y="-281" font-family="Arial" font-size="10.00" fill="#0d0e73">10352362×</text>
</g>
<!-- Vector_add&#45;&gt;Vector2_add -->
<g id="edge23" class="edge">
<title>Vector_add&#45;&gt;Vector2_add</title>
<path fill="none" stroke="#0d4382" stroke-width=".5" d="M708.8212,-411.7562C711.7981,-400.3998 715.171,-387.5328 718.2235,-375.888"/>
<polygon fill="#0d4382" stroke="#0d4382" stroke-width=".5" points="719.4572,-376.0126 719.1598,-372.3163 717.0873,-375.3913 719.4572,-376.0126"/>
<text text-anchor="middle" x="740" y="-395" font-family="Arial" font-size="10.00" fill="#0d4382">11.60%</text>
<text text-anchor="middle" x="740" y="-384" font-family="Arial" font-size="10.00" fill="#0d4382">10352362×</text>
</g>
</g>
</svg>
