<?xml version="1.0" encoding="UTF-8" standalone="no"?>
<!DOCTYPE svg PUBLIC "-//W3C//DTD SVG 1.1//EN"
 "http://www.w3.org/Graphics/SVG/1.1/DTD/svg11.dtd">
<!-- Generated by graphviz version 2.40.1 (20161225.0304)
 -->
<!-- Title: %3 Pages: 1 -->
<svg width="606pt" height="1307pt"
 viewBox="0.00 0.00 605.50 1307.00" xmlns="http://www.w3.org/2000/svg" xmlns:xlink="http://www.w3.org/1999/xlink">
<g id="graph0" class="graph" transform="scale(1 1) rotate(0) translate(4 1303)">
<title>%3</title>
<polygon fill="#ffffff" stroke="transparent" points="-4,4 -4,-1303 601.5,-1303 601.5,4 -4,4"/>
<!-- (below main) -->
<g id="node1" class="node">
<title>(below main)</title>
<polygon fill="#ff0000" stroke="#ff0000" points="116,-1093 45,-1093 45,-1030 116,-1030 116,-1093"/>
<text text-anchor="middle" x="80.5" y="-1081" font-family="Arial" font-size="10.00" fill="#ffffff">libc&#45;2.27.so</text>
<text text-anchor="middle" x="80.5" y="-1070" font-family="Arial" font-size="10.00" fill="#ffffff">(below main)</text>
<text text-anchor="middle" x="80.5" y="-1059" font-family="Arial" font-size="10.00" fill="#ffffff">99.99%</text>
<text text-anchor="middle" x="80.5" y="-1048" font-family="Arial" font-size="10.00" fill="#ffffff">(0.00%)</text>
<text text-anchor="middle" x="80.5" y="-1037" font-family="Arial" font-size="10.00" fill="#ffffff">1×</text>
</g>
<!-- main -->
<g id="node2" class="node">
<title>main</title>
<polygon fill="#ff0000" stroke="#ff0000" points="105.5,-990 55.5,-990 55.5,-927 105.5,-927 105.5,-990"/>
<text text-anchor="middle" x="80.5" y="-978" font-family="Arial" font-size="10.00" fill="#ffffff">csteen</text>
<text text-anchor="middle" x="80.5" y="-967" font-family="Arial" font-size="10.00" fill="#ffffff">main</text>
<text text-anchor="middle" x="80.5" y="-956" font-family="Arial" font-size="10.00" fill="#ffffff">99.99%</text>
<text text-anchor="middle" x="80.5" y="-945" font-family="Arial" font-size="10.00" fill="#ffffff">(0.00%)</text>
<text text-anchor="middle" x="80.5" y="-934" font-family="Arial" font-size="10.00" fill="#ffffff">1×</text>
</g>
<!-- (below main)&#45;&gt;main -->
<g id="edge1" class="edge">
<title>(below main)&#45;&gt;main</title>
<path fill="none" stroke="#ff0000" stroke-width="4" d="M80.5,-1029.7562C80.5,-1020.5536 80.5,-1010.3591 80.5,-1000.6267"/>
<polygon fill="#ff0000" stroke="#ff0000" stroke-width="4" points="84.0001,-1000.3163 80.5,-990.3163 77.0001,-1000.3164 84.0001,-1000.3163"/>
<text text-anchor="middle" x="97.5" y="-1013" font-family="Arial" font-size="10.00" fill="#ff0000">99.99%</text>
<text text-anchor="middle" x="97.5" y="-1002" font-family="Arial" font-size="10.00" fill="#ff0000">1×</text>
</g>
<!-- AdemAlgebra_generateBasis -->
<g id="node10" class="node">
<title>AdemAlgebra_generateBasis</title>
<polygon fill="#0d1174" stroke="#0d1174" points="143,-269 0,-269 0,-206 143,-206 143,-269"/>
<text text-anchor="middle" x="71.5" y="-257" font-family="Arial" font-size="10.00" fill="#ffffff">csteen</text>
<text text-anchor="middle" x="71.5" y="-246" font-family="Arial" font-size="10.00" fill="#ffffff">AdemAlgebra_generateBasis</text>
<text text-anchor="middle" x="71.5" y="-235" font-family="Arial" font-size="10.00" fill="#ffffff">1.05%</text>
<text text-anchor="middle" x="71.5" y="-224" font-family="Arial" font-size="10.00" fill="#ffffff">(0.19%)</text>
<text text-anchor="middle" x="71.5" y="-213" font-family="Arial" font-size="10.00" fill="#ffffff">1×</text>
</g>
<!-- main&#45;&gt;AdemAlgebra_generateBasis -->
<g id="edge20" class="edge">
<title>main&#45;&gt;AdemAlgebra_generateBasis</title>
<path fill="none" stroke="#0d1174" stroke-width=".5" d="M76.2635,-926.5497C73.9292,-906.2421 71.5,-879.3736 71.5,-855.5 71.5,-855.5 71.5,-855.5 71.5,-340.5 71.5,-318.0358 71.5,-292.8157 71.5,-272.954"/>
<polygon fill="#0d1174" stroke="#0d1174" stroke-width=".5" points="72.7251,-272.5555 71.5,-269.0555 70.2751,-272.5556 72.7251,-272.5555"/>
<text text-anchor="middle" x="85.5" y="-601" font-family="Arial" font-size="10.00" fill="#0d1174">1.05%</text>
<text text-anchor="middle" x="85.5" y="-590" font-family="Arial" font-size="10.00" fill="#0d1174">1×</text>
</g>
<!-- Resolution_step -->
<g id="node16" class="node">
<title>Resolution_step</title>
<polygon fill="#fd0d00" stroke="#fd0d00" points="219.5,-887 133.5,-887 133.5,-824 219.5,-824 219.5,-887"/>
<text text-anchor="middle" x="176.5" y="-875" font-family="Arial" font-size="10.00" fill="#ffffff">csteen</text>
<text text-anchor="middle" x="176.5" y="-864" font-family="Arial" font-size="10.00" fill="#ffffff">Resolution_step</text>
<text text-anchor="middle" x="176.5" y="-853" font-family="Arial" font-size="10.00" fill="#ffffff">98.78%</text>
<text text-anchor="middle" x="176.5" y="-842" font-family="Arial" font-size="10.00" fill="#ffffff">(0.01%)</text>
<text text-anchor="middle" x="176.5" y="-831" font-family="Arial" font-size="10.00" fill="#ffffff">5050×</text>
</g>
<!-- main&#45;&gt;Resolution_step -->
<g id="edge21" class="edge">
<title>main&#45;&gt;Resolution_step</title>
<path fill="none" stroke="#fd0d00" stroke-width="3.95" d="M105.7229,-931.438C116.212,-920.184 128.5902,-906.9033 140.0377,-894.621"/>
<polygon fill="#fd0d00" stroke="#fd0d00" stroke-width="3.95" points="142.8047,-896.7343 147.0199,-887.1297 137.7352,-892.0094 142.8047,-896.7343"/>
<text text-anchor="middle" x="153.5" y="-910" font-family="Arial" font-size="10.00" fill="#fd0d00">98.78%</text>
<text text-anchor="middle" x="153.5" y="-899" font-family="Arial" font-size="10.00" fill="#fd0d00">5050×</text>
</g>
<!-- 0x0000000000000f60 -->
<g id="node3" class="node">
<title>0x0000000000000f60</title>
<polygon fill="#ff0000" stroke="#ff0000" points="135,-1299 26,-1299 26,-1236 135,-1236 135,-1299"/>
<text text-anchor="middle" x="80.5" y="-1287" font-family="Arial" font-size="10.00" fill="#ffffff">ld&#45;2.27.so</text>
<text text-anchor="middle" x="80.5" y="-1276" font-family="Arial" font-size="10.00" fill="#ffffff">0x0000000000000f60</text>
<text text-anchor="middle" x="80.5" y="-1265" font-family="Arial" font-size="10.00" fill="#ffffff">100.00%</text>
<text text-anchor="middle" x="80.5" y="-1254" font-family="Arial" font-size="10.00" fill="#ffffff">(0.00%)</text>
<text text-anchor="middle" x="80.5" y="-1243" font-family="Arial" font-size="10.00" fill="#ffffff">0×</text>
</g>
<!-- _start -->
<g id="node4" class="node">
<title>_start</title>
<polygon fill="#ff0000" stroke="#ff0000" points="105.5,-1196 55.5,-1196 55.5,-1133 105.5,-1133 105.5,-1196"/>
<text text-anchor="middle" x="80.5" y="-1184" font-family="Arial" font-size="10.00" fill="#ffffff">csteen</text>
<text text-anchor="middle" x="80.5" y="-1173" font-family="Arial" font-size="10.00" fill="#ffffff">_start</text>
<text text-anchor="middle" x="80.5" y="-1162" font-family="Arial" font-size="10.00" fill="#ffffff">99.99%</text>
<text text-anchor="middle" x="80.5" y="-1151" font-family="Arial" font-size="10.00" fill="#ffffff">(0.00%)</text>
<text text-anchor="middle" x="80.5" y="-1140" font-family="Arial" font-size="10.00" fill="#ffffff">1×</text>
</g>
<!-- 0x0000000000000f60&#45;&gt;_start -->
<g id="edge2" class="edge">
<title>0x0000000000000f60&#45;&gt;_start</title>
<path fill="none" stroke="#ff0000" stroke-width="4" d="M80.5,-1235.7562C80.5,-1226.5536 80.5,-1216.3591 80.5,-1206.6267"/>
<polygon fill="#ff0000" stroke="#ff0000" stroke-width="4" points="84.0001,-1206.3163 80.5,-1196.3163 77.0001,-1206.3164 84.0001,-1206.3163"/>
<text text-anchor="middle" x="97.5" y="-1219" font-family="Arial" font-size="10.00" fill="#ff0000">99.99%</text>
<text text-anchor="middle" x="97.5" y="-1208" font-family="Arial" font-size="10.00" fill="#ff0000">1×</text>
</g>
<!-- _start&#45;&gt;(below main) -->
<g id="edge19" class="edge">
<title>_start&#45;&gt;(below main)</title>
<path fill="none" stroke="#ff0000" stroke-width="4" d="M80.5,-1132.7562C80.5,-1123.5536 80.5,-1113.3591 80.5,-1103.6267"/>
<polygon fill="#ff0000" stroke="#ff0000" stroke-width="4" points="84.0001,-1103.3163 80.5,-1093.3163 77.0001,-1103.3164 84.0001,-1103.3163"/>
<text text-anchor="middle" x="97.5" y="-1116" font-family="Arial" font-size="10.00" fill="#ff0000">99.99%</text>
<text text-anchor="middle" x="97.5" y="-1105" font-family="Arial" font-size="10.00" fill="#ff0000">1×</text>
</g>
<!-- AdemAlgebra__makeMonoAdmissibleGeneric -->
<g id="node5" class="node">
<title>AdemAlgebra__makeMonoAdmissibleGeneric</title>
<polygon fill="#0d337e" stroke="#0d337e" points="438,-372 223,-372 223,-309 438,-309 438,-372"/>
<text text-anchor="middle" x="330.5" y="-360" font-family="Arial" font-size="10.00" fill="#ffffff">csteen</text>
<text text-anchor="middle" x="330.5" y="-349" font-family="Arial" font-size="10.00" fill="#ffffff">AdemAlgebra__makeMonoAdmissibleGeneric</text>
<text text-anchor="middle" x="330.5" y="-338" font-family="Arial" font-size="10.00" fill="#ffffff">8.42%</text>
<text text-anchor="middle" x="330.5" y="-327" font-family="Arial" font-size="10.00" fill="#ffffff">(0.93%)</text>
<text text-anchor="middle" x="330.5" y="-316" font-family="Arial" font-size="10.00" fill="#ffffff">107717×</text>
</g>
<!-- AdemAlgebra__makeMonoAdmissibleGeneric&#39;2 -->
<g id="node6" class="node">
<title>AdemAlgebra__makeMonoAdmissibleGeneric&#39;2</title>
<polygon fill="#0d257a" stroke="#0d257a" points="433.5,-269 211.5,-269 211.5,-206 433.5,-206 433.5,-269"/>
<text text-anchor="middle" x="322.5" y="-257" font-family="Arial" font-size="10.00" fill="#ffffff">csteen</text>
<text text-anchor="middle" x="322.5" y="-246" font-family="Arial" font-size="10.00" fill="#ffffff">AdemAlgebra__makeMonoAdmissibleGeneric&#39;2</text>
<text text-anchor="middle" x="322.5" y="-235" font-family="Arial" font-size="10.00" fill="#ffffff">5.46%</text>
<text text-anchor="middle" x="322.5" y="-224" font-family="Arial" font-size="10.00" fill="#ffffff">(1.14%)</text>
<text text-anchor="middle" x="322.5" y="-213" font-family="Arial" font-size="10.00" fill="#ffffff">192365×</text>
</g>
<!-- AdemAlgebra__makeMonoAdmissibleGeneric&#45;&gt;AdemAlgebra__makeMonoAdmissibleGeneric&#39;2 -->
<g id="edge3" class="edge">
<title>AdemAlgebra__makeMonoAdmissibleGeneric&#45;&gt;AdemAlgebra__makeMonoAdmissibleGeneric&#39;2</title>
<path fill="none" stroke="#0d257a" stroke-width=".5" d="M328.0345,-308.7562C327.1524,-297.3998 326.153,-284.5328 325.2486,-272.888"/>
<polygon fill="#0d257a" stroke="#0d257a" stroke-width=".5" points="326.4636,-272.7109 324.9712,-269.3163 324.021,-272.9007 326.4636,-272.7109"/>
<text text-anchor="middle" x="343" y="-292" font-family="Arial" font-size="10.00" fill="#0d257a">5.46%</text>
<text text-anchor="middle" x="343" y="-281" font-family="Arial" font-size="10.00" fill="#0d257a">91902×</text>
</g>
<!-- AdemAlgebra_basisElement_toIndex -->
<g id="node7" class="node">
<title>AdemAlgebra_basisElement_toIndex</title>
<polygon fill="#0d2179" stroke="#0d2179" points="253,-166 76,-166 76,-103 253,-103 253,-166"/>
<text text-anchor="middle" x="164.5" y="-154" font-family="Arial" font-size="10.00" fill="#ffffff">csteen</text>
<text text-anchor="middle" x="164.5" y="-143" font-family="Arial" font-size="10.00" fill="#ffffff">AdemAlgebra_basisElement_toIndex</text>
<text text-anchor="middle" x="164.5" y="-132" font-family="Arial" font-size="10.00" fill="#ffffff">4.75%</text>
<text text-anchor="middle" x="164.5" y="-121" font-family="Arial" font-size="10.00" fill="#ffffff">(2.33%)</text>
<text text-anchor="middle" x="164.5" y="-110" font-family="Arial" font-size="10.00" fill="#ffffff">316214×</text>
</g>
<!-- AdemAlgebra__makeMonoAdmissibleGeneric&#45;&gt;AdemAlgebra_basisElement_toIndex -->
<g id="edge4" class="edge">
<title>AdemAlgebra__makeMonoAdmissibleGeneric&#45;&gt;AdemAlgebra_basisElement_toIndex</title>
<path fill="none" stroke="#0d1274" stroke-width=".5" d="M222.9672,-312.7127C202.011,-302.3707 182.5285,-288.2491 169.5,-269 158.9481,-253.4099 159.6983,-204.1619 161.7036,-169.8013"/>
<polygon fill="#0d1274" stroke="#0d1274" stroke-width=".5" points="162.9384,-169.6746 161.9273,-166.1069 160.4929,-169.5264 162.9384,-169.6746"/>
<text text-anchor="middle" x="188.5" y="-240.5" font-family="Arial" font-size="10.00" fill="#0d1274">1.36%</text>
<text text-anchor="middle" x="188.5" y="-229.5" font-family="Arial" font-size="10.00" fill="#0d1274">107717×</text>
</g>
<!-- Vector_stepIterator -->
<g id="node8" class="node">
<title>Vector_stepIterator</title>
<polygon fill="#0d1676" stroke="#0d1676" points="488,-166 389,-166 389,-103 488,-103 488,-166"/>
<text text-anchor="middle" x="438.5" y="-154" font-family="Arial" font-size="10.00" fill="#ffffff">csteen</text>
<text text-anchor="middle" x="438.5" y="-143" font-family="Arial" font-size="10.00" fill="#ffffff">Vector_stepIterator</text>
<text text-anchor="middle" x="438.5" y="-132" font-family="Arial" font-size="10.00" fill="#ffffff">2.21%</text>
<text text-anchor="middle" x="438.5" y="-121" font-family="Arial" font-size="10.00" fill="#ffffff">(2.21%)</text>
<text text-anchor="middle" x="438.5" y="-110" font-family="Arial" font-size="10.00" fill="#ffffff">1670732×</text>
</g>
<!-- AdemAlgebra__makeMonoAdmissibleGeneric&#45;&gt;Vector_stepIterator -->
<g id="edge5" class="edge">
<title>AdemAlgebra__makeMonoAdmissibleGeneric&#45;&gt;Vector_stepIterator</title>
<path fill="none" stroke="#0d0f73" stroke-width=".5" d="M438.0056,-314.6631C460.2919,-304.1942 481.0561,-289.5272 494.5,-269 509.8408,-245.5765 503.6318,-232.4691 494.5,-206 489.9017,-192.6715 481.683,-179.9304 472.9343,-168.9926"/>
<polygon fill="#0d0f73" stroke="#0d0f73" stroke-width=".5" points="473.8612,-168.1908 470.7005,-166.2514 471.9619,-169.7385 473.8612,-168.1908"/>
<text text-anchor="middle" x="522.5" y="-240.5" font-family="Arial" font-size="10.00" fill="#0d0f73">0.47%</text>
<text text-anchor="middle" x="522.5" y="-229.5" font-family="Arial" font-size="10.00" fill="#0d0f73">381967×</text>
</g>
<!-- AdemAlgebra__makeMonoAdmissibleGeneric&#39;2&#45;&gt;AdemAlgebra__makeMonoAdmissibleGeneric&#39;2 -->
<g id="edge6" class="edge">
<title>AdemAlgebra__makeMonoAdmissibleGeneric&#39;2&#45;&gt;AdemAlgebra__makeMonoAdmissibleGeneric&#39;2</title>
<path fill="none" stroke="#0d257a" stroke-width=".5" d="M433.6034,-243.5699C439.1992,-242.0624 442.5,-240.0391 442.5,-237.5 442.5,-235.5957 440.6433,-233.9815 437.3542,-232.6574"/>
<polygon fill="#0d257a" stroke="#0d257a" stroke-width=".5" points="437.3108,-231.3544 433.6034,-231.4301 436.5488,-233.6829 437.3108,-231.3544"/>
<text text-anchor="middle" x="461.5" y="-235" font-family="Arial" font-size="10.00" fill="#0d257a">100463×</text>
</g>
<!-- AdemAlgebra__makeMonoAdmissibleGeneric&#39;2&#45;&gt;AdemAlgebra_basisElement_toIndex -->
<g id="edge7" class="edge">
<title>AdemAlgebra__makeMonoAdmissibleGeneric&#39;2&#45;&gt;AdemAlgebra_basisElement_toIndex</title>
<path fill="none" stroke="#0d1a77" stroke-width=".5" d="M273.8056,-205.7562C255.5486,-193.8545 234.7464,-180.2935 216.2244,-168.2191"/>
<polygon fill="#0d1a77" stroke="#0d1a77" stroke-width=".5" points="216.6347,-167.0242 213.0337,-166.139 215.2967,-169.0766 216.6347,-167.0242"/>
<text text-anchor="middle" x="276.5" y="-189" font-family="Arial" font-size="10.00" fill="#0d1a77">3.13%</text>
<text text-anchor="middle" x="276.5" y="-178" font-family="Arial" font-size="10.00" fill="#0d1a77">192365×</text>
</g>
<!-- AdemAlgebra__makeMonoAdmissibleGeneric&#39;2&#45;&gt;Vector_stepIterator -->
<g id="edge8" class="edge">
<title>AdemAlgebra__makeMonoAdmissibleGeneric&#39;2&#45;&gt;Vector_stepIterator</title>
<path fill="none" stroke="#0d1074" stroke-width=".5" d="M358.2503,-205.7562C371.481,-194.0082 386.5324,-180.6437 399.9972,-168.6878"/>
<polygon fill="#0d1074" stroke="#0d1074" stroke-width=".5" points="400.8642,-169.5563 402.668,-166.3163 399.2374,-167.7242 400.8642,-169.5563"/>
<text text-anchor="middle" x="409.5" y="-189" font-family="Arial" font-size="10.00" fill="#0d1074">0.84%</text>
<text text-anchor="middle" x="409.5" y="-178" font-family="Arial" font-size="10.00" fill="#0d1074">616671×</text>
</g>
<!-- AdemAlgebra_basisElement_toKey -->
<g id="node9" class="node">
<title>AdemAlgebra_basisElement_toKey</title>
<polygon fill="#0d1375" stroke="#0d1375" points="249.5,-63 79.5,-63 79.5,0 249.5,0 249.5,-63"/>
<text text-anchor="middle" x="164.5" y="-51" font-family="Arial" font-size="10.00" fill="#ffffff">csteen</text>
<text text-anchor="middle" x="164.5" y="-40" font-family="Arial" font-size="10.00" fill="#ffffff">AdemAlgebra_basisElement_toKey</text>
<text text-anchor="middle" x="164.5" y="-29" font-family="Arial" font-size="10.00" fill="#ffffff">1.57%</text>
<text text-anchor="middle" x="164.5" y="-18" font-family="Arial" font-size="10.00" fill="#ffffff">(1.41%)</text>
<text text-anchor="middle" x="164.5" y="-7" font-family="Arial" font-size="10.00" fill="#ffffff">317095×</text>
</g>
<!-- AdemAlgebra_basisElement_toIndex&#45;&gt;AdemAlgebra_basisElement_toKey -->
<g id="edge9" class="edge">
<title>AdemAlgebra_basisElement_toIndex&#45;&gt;AdemAlgebra_basisElement_toKey</title>
<path fill="none" stroke="#0d1375" stroke-width=".5" d="M164.5,-102.7562C164.5,-91.3998 164.5,-78.5328 164.5,-66.888"/>
<polygon fill="#0d1375" stroke="#0d1375" stroke-width=".5" points="165.7251,-66.8163 164.5,-63.3163 163.2751,-66.8164 165.7251,-66.8163"/>
<text text-anchor="middle" x="183.5" y="-86" font-family="Arial" font-size="10.00" fill="#0d1375">1.57%</text>
<text text-anchor="middle" x="183.5" y="-75" font-family="Arial" font-size="10.00" fill="#0d1375">316214×</text>
</g>
<!-- AdemAlgebra_generateBasis&#45;&gt;AdemAlgebra_basisElement_toIndex -->
<g id="edge10" class="edge">
<title>AdemAlgebra_generateBasis&#45;&gt;AdemAlgebra_basisElement_toIndex</title>
<path fill="none" stroke="#0d0e73" stroke-width=".5" d="M65.4624,-205.9111C65.0622,-195.3257 66.558,-183.9508 72.5,-175 73.9599,-172.8009 75.5684,-170.7204 77.3028,-168.7519"/>
<polygon fill="#0d0e73" stroke="#0d0e73" stroke-width=".5" points="78.2513,-169.5311 79.744,-166.1366 76.4602,-167.8593 78.2513,-169.5311"/>
<text text-anchor="middle" x="89" y="-189" font-family="Arial" font-size="10.00" fill="#0d0e73">0.26%</text>
<text text-anchor="middle" x="89" y="-178" font-family="Arial" font-size="10.00" fill="#0d0e73">16132×</text>
</g>
<!-- AdemAlgebra_generateBasis&#45;&gt;Vector_stepIterator -->
<g id="edge11" class="edge">
<title>AdemAlgebra_generateBasis&#45;&gt;Vector_stepIterator</title>
<path fill="none" stroke="#0d0d73" stroke-width=".5" d="M120.9909,-205.9465C141.1992,-194.4465 165.254,-182.4505 188.5,-175 217.9507,-165.5608 226.9255,-170.6523 257.5,-166 300.5721,-159.446 349.2103,-150.9181 385.2123,-144.3886"/>
<polygon fill="#0d0d73" stroke="#0d0d73" stroke-width=".5" points="385.4316,-145.5939 388.6564,-143.7631 384.9938,-143.1834 385.4316,-145.5939"/>
<text text-anchor="middle" x="207.5" y="-189" font-family="Arial" font-size="10.00" fill="#0d0d73">0.17%</text>
<text text-anchor="middle" x="207.5" y="-178" font-family="Arial" font-size="10.00" fill="#0d0d73">128440×</text>
</g>
<!-- AdemAlgebra_multiply -->
<g id="node11" class="node">
<title>AdemAlgebra_multiply</title>
<polygon fill="#0d367e" stroke="#0d367e" points="401.5,-475 287.5,-475 287.5,-412 401.5,-412 401.5,-475"/>
<text text-anchor="middle" x="344.5" y="-463" font-family="Arial" font-size="10.00" fill="#ffffff">csteen</text>
<text text-anchor="middle" x="344.5" y="-452" font-family="Arial" font-size="10.00" fill="#ffffff">AdemAlgebra_multiply</text>
<text text-anchor="middle" x="344.5" y="-441" font-family="Arial" font-size="10.00" fill="#ffffff">9.06%</text>
<text text-anchor="middle" x="344.5" y="-430" font-family="Arial" font-size="10.00" fill="#ffffff">(0.53%)</text>
<text text-anchor="middle" x="344.5" y="-419" font-family="Arial" font-size="10.00" fill="#ffffff">136982×</text>
</g>
<!-- AdemAlgebra_multiply&#45;&gt;AdemAlgebra__makeMonoAdmissibleGeneric -->
<g id="edge12" class="edge">
<title>AdemAlgebra_multiply&#45;&gt;AdemAlgebra__makeMonoAdmissibleGeneric</title>
<path fill="none" stroke="#0d337e" stroke-width=".5" d="M340.1853,-411.7562C338.6417,-400.3998 336.8928,-387.5328 335.31,-375.888"/>
<polygon fill="#0d337e" stroke="#0d337e" stroke-width=".5" points="336.5099,-375.6194 334.8245,-372.3163 334.0822,-375.9495 336.5099,-375.6194"/>
<text text-anchor="middle" x="357.5" y="-395" font-family="Arial" font-size="10.00" fill="#0d337e">8.42%</text>
<text text-anchor="middle" x="357.5" y="-384" font-family="Arial" font-size="10.00" fill="#0d337e">107717×</text>
</g>
<!-- FreeModuleHomomorphism_getMatrix -->
<g id="node12" class="node">
<title>FreeModuleHomomorphism_getMatrix</title>
<polygon fill="#0d4482" stroke="#0d4482" points="462.5,-681 280.5,-681 280.5,-618 462.5,-618 462.5,-681"/>
<text text-anchor="middle" x="371.5" y="-669" font-family="Arial" font-size="10.00" fill="#ffffff">csteen</text>
<text text-anchor="middle" x="371.5" y="-658" font-family="Arial" font-size="10.00" fill="#ffffff">FreeModuleHomomorphism_getMatrix</text>
<text text-anchor="middle" x="371.5" y="-647" font-family="Arial" font-size="10.00" fill="#ffffff">11.85%</text>
<text text-anchor="middle" x="371.5" y="-636" font-family="Arial" font-size="10.00" fill="#ffffff">(0.87%)</text>
<text text-anchor="middle" x="371.5" y="-625" font-family="Arial" font-size="10.00" fill="#ffffff">5050×</text>
</g>
<!-- FreeModuleHomomorphism_getMatrix&#45;&gt;Vector_stepIterator -->
<g id="edge14" class="edge">
<title>FreeModuleHomomorphism_getMatrix&#45;&gt;Vector_stepIterator</title>
<path fill="none" stroke="#0d1074" stroke-width=".5" d="M462.7464,-634.5252C510.6461,-620.8845 559.5,-595.0674 559.5,-546.5 559.5,-546.5 559.5,-546.5 559.5,-237.5 559.5,-199.1494 523.8194,-172.0771 491.2094,-155.343"/>
<polygon fill="#0d1074" stroke="#0d1074" stroke-width=".5" points="491.741,-154.2392 488.0645,-153.7558 490.6371,-156.4264 491.741,-154.2392"/>
<text text-anchor="middle" x="578.5" y="-395" font-family="Arial" font-size="10.00" fill="#0d1074">0.73%</text>
<text text-anchor="middle" x="578.5" y="-384" font-family="Arial" font-size="10.00" fill="#0d1074">543654×</text>
</g>
<!-- FreeModule_actOnBasis -->
<g id="node13" class="node">
<title>FreeModule_actOnBasis</title>
<polygon fill="#0d3b80" stroke="#0d3b80" points="433.5,-578 309.5,-578 309.5,-515 433.5,-515 433.5,-578"/>
<text text-anchor="middle" x="371.5" y="-566" font-family="Arial" font-size="10.00" fill="#ffffff">csteen</text>
<text text-anchor="middle" x="371.5" y="-555" font-family="Arial" font-size="10.00" fill="#ffffff">FreeModule_actOnBasis</text>
<text text-anchor="middle" x="371.5" y="-544" font-family="Arial" font-size="10.00" fill="#ffffff">10.09%</text>
<text text-anchor="middle" x="371.5" y="-533" font-family="Arial" font-size="10.00" fill="#ffffff">(0.46%)</text>
<text text-anchor="middle" x="371.5" y="-522" font-family="Arial" font-size="10.00" fill="#ffffff">136982×</text>
</g>
<!-- FreeModuleHomomorphism_getMatrix&#45;&gt;FreeModule_actOnBasis -->
<g id="edge13" class="edge">
<title>FreeModuleHomomorphism_getMatrix&#45;&gt;FreeModule_actOnBasis</title>
<path fill="none" stroke="#0d3b80" stroke-width=".5" d="M371.5,-617.7562C371.5,-606.3998 371.5,-593.5328 371.5,-581.888"/>
<polygon fill="#0d3b80" stroke="#0d3b80" stroke-width=".5" points="372.7251,-581.8163 371.5,-578.3163 370.2751,-581.8164 372.7251,-581.8163"/>
<text text-anchor="middle" x="390.5" y="-601" font-family="Arial" font-size="10.00" fill="#0d3b80">10.09%</text>
<text text-anchor="middle" x="390.5" y="-590" font-family="Arial" font-size="10.00" fill="#0d3b80">136982×</text>
</g>
<!-- FreeModule_actOnBasis&#45;&gt;AdemAlgebra_multiply -->
<g id="edge15" class="edge">
<title>FreeModule_actOnBasis&#45;&gt;AdemAlgebra_multiply</title>
<path fill="none" stroke="#0d367e" stroke-width=".5" d="M363.1788,-514.7562C360.2019,-503.3998 356.829,-490.5328 353.7765,-478.888"/>
<polygon fill="#0d367e" stroke="#0d367e" stroke-width=".5" points="354.9127,-478.3913 352.8402,-475.3163 352.5428,-479.0126 354.9127,-478.3913"/>
<text text-anchor="middle" x="378.5" y="-498" font-family="Arial" font-size="10.00" fill="#0d367e">9.06%</text>
<text text-anchor="middle" x="378.5" y="-487" font-family="Arial" font-size="10.00" fill="#0d367e">136982×</text>
</g>
<!-- Resolution_generateOldKernelAndComputeNewKernel -->
<g id="node14" class="node">
<title>Resolution_generateOldKernelAndComputeNewKernel</title>
<polygon fill="#fd0d00" stroke="#fd0d00" points="350,-784 99,-784 99,-721 350,-721 350,-784"/>
<text text-anchor="middle" x="224.5" y="-772" font-family="Arial" font-size="10.00" fill="#ffffff">csteen</text>
<text text-anchor="middle" x="224.5" y="-761" font-family="Arial" font-size="10.00" fill="#ffffff">Resolution_generateOldKernelAndComputeNewKernel</text>
<text text-anchor="middle" x="224.5" y="-750" font-family="Arial" font-size="10.00" fill="#ffffff">98.75%</text>
<text text-anchor="middle" x="224.5" y="-739" font-family="Arial" font-size="10.00" fill="#ffffff">(0.18%)</text>
<text text-anchor="middle" x="224.5" y="-728" font-family="Arial" font-size="10.00" fill="#ffffff">5050×</text>
</g>
<!-- Resolution_generateOldKernelAndComputeNewKernel&#45;&gt;FreeModuleHomomorphism_getMatrix -->
<g id="edge16" class="edge">
<title>Resolution_generateOldKernelAndComputeNewKernel&#45;&gt;FreeModuleHomomorphism_getMatrix</title>
<path fill="none" stroke="#0d4482" stroke-width=".5" d="M269.8043,-720.7562C286.7903,-708.8545 306.1442,-695.2935 323.3767,-683.2191"/>
<polygon fill="#0d4482" stroke="#0d4482" stroke-width=".5" points="324.1818,-684.1507 326.3453,-681.139 322.7759,-682.1443 324.1818,-684.1507"/>
<text text-anchor="middle" x="327.5" y="-704" font-family="Arial" font-size="10.00" fill="#0d4482">11.85%</text>
<text text-anchor="middle" x="327.5" y="-693" font-family="Arial" font-size="10.00" fill="#0d4482">5050×</text>
</g>
<!-- rowReduce -->
<g id="node15" class="node">
<title>rowReduce</title>
<polygon fill="#e79504" stroke="#e79504" points="257,-681 192,-681 192,-618 257,-618 257,-681"/>
<text text-anchor="middle" x="224.5" y="-669" font-family="Arial" font-size="10.00" fill="#ffffff">csteen</text>
<text text-anchor="middle" x="224.5" y="-658" font-family="Arial" font-size="10.00" fill="#ffffff">rowReduce</text>
<text text-anchor="middle" x="224.5" y="-647" font-family="Arial" font-size="10.00" fill="#ffffff">84.04%</text>
<text text-anchor="middle" x="224.5" y="-636" font-family="Arial" font-size="10.00" fill="#ffffff">(20.69%)</text>
<text text-anchor="middle" x="224.5" y="-625" font-family="Arial" font-size="10.00" fill="#ffffff">10100×</text>
</g>
<!-- Resolution_generateOldKernelAndComputeNewKernel&#45;&gt;rowReduce -->
<g id="edge17" class="edge">
<title>Resolution_generateOldKernelAndComputeNewKernel&#45;&gt;rowReduce</title>
<path fill="none" stroke="#e79504" stroke-width="3.36" d="M224.5,-720.7562C224.5,-711.2599 224.5,-700.7074 224.5,-690.6964"/>
<polygon fill="#e79504" stroke="#e79504" stroke-width="3.36" points="227.7201,-690.5163 224.5,-681.3163 221.2801,-690.5164 227.7201,-690.5163"/>
<text text-anchor="middle" x="241.5" y="-704" font-family="Arial" font-size="10.00" fill="#e79504">84.04%</text>
<text text-anchor="middle" x="241.5" y="-693" font-family="Arial" font-size="10.00" fill="#e79504">10100×</text>
</g>
<!-- VectorGeneric_add -->
<g id="node17" class="node">
<title>VectorGeneric_add</title>
<polygon fill="#14b809" stroke="#14b809" points="185,-578 86,-578 86,-515 185,-515 185,-578"/>
<text text-anchor="middle" x="135.5" y="-566" font-family="Arial" font-size="10.00" fill="#ffffff">csteen</text>
<text text-anchor="middle" x="135.5" y="-555" font-family="Arial" font-size="10.00" fill="#ffffff">VectorGeneric_add</text>
<text text-anchor="middle" x="135.5" y="-544" font-family="Arial" font-size="10.00" fill="#ffffff">51.49%</text>
<text text-anchor="middle" x="135.5" y="-533" font-family="Arial" font-size="10.00" fill="#ffffff">(51.49%)</text>
<text text-anchor="middle" x="135.5" y="-522" font-family="Arial" font-size="10.00" fill="#ffffff">226878×</text>
</g>
<!-- rowReduce&#45;&gt;VectorGeneric_add -->
<g id="edge22" class="edge">
<title>rowReduce&#45;&gt;VectorGeneric_add</title>
<path fill="none" stroke="#13b809" stroke-width="2.05" d="M197.0709,-617.7562C187.8502,-607.0851 177.4771,-595.0802 167.9106,-584.0089"/>
<polygon fill="#13b809" stroke="#13b809" stroke-width="2.05" points="169.606,-582.1167 162.9918,-578.3163 165.7925,-585.4119 169.606,-582.1167"/>
<text text-anchor="middle" x="206.5" y="-601" font-family="Arial" font-size="10.00" fill="#13b809">51.35%</text>
<text text-anchor="middle" x="206.5" y="-590" font-family="Arial" font-size="10.00" fill="#13b809">221591×</text>
</g>
<!-- VectorGeneric_scale -->
<g id="node18" class="node">
<title>VectorGeneric_scale</title>
<polygon fill="#0d4582" stroke="#0d4582" points="301,-578 194,-578 194,-515 301,-515 301,-578"/>
<text text-anchor="middle" x="247.5" y="-566" font-family="Arial" font-size="10.00" fill="#ffffff">csteen</text>
<text text-anchor="middle" x="247.5" y="-555" font-family="Arial" font-size="10.00" fill="#ffffff">VectorGeneric_scale</text>
<text text-anchor="middle" x="247.5" y="-544" font-family="Arial" font-size="10.00" fill="#ffffff">11.96%</text>
<text text-anchor="middle" x="247.5" y="-533" font-family="Arial" font-size="10.00" fill="#ffffff">(11.96%)</text>
<text text-anchor="middle" x="247.5" y="-522" font-family="Arial" font-size="10.00" fill="#ffffff">86557×</text>
</g>
<!-- rowReduce&#45;&gt;VectorGeneric_scale -->
<g id="edge23" class="edge">
<title>rowReduce&#45;&gt;VectorGeneric_scale</title>
<path fill="none" stroke="#0d4582" stroke-width=".5" d="M231.5884,-617.7562C234.1243,-606.3998 236.9975,-593.5328 239.5978,-581.888"/>
<polygon fill="#0d4582" stroke="#0d4582" stroke-width=".5" points="240.8281,-581.9992 240.3954,-578.3163 238.437,-581.4652 240.8281,-581.9992"/>
<text text-anchor="middle" x="254.5" y="-601" font-family="Arial" font-size="10.00" fill="#0d4582">11.96%</text>
<text text-anchor="middle" x="254.5" y="-590" font-family="Arial" font-size="10.00" fill="#0d4582">86557×</text>
</g>
<!-- Resolution_step&#45;&gt;Resolution_generateOldKernelAndComputeNewKernel -->
<g id="edge18" class="edge">
<title>Resolution_step&#45;&gt;Resolution_generateOldKernelAndComputeNewKernel</title>
<path fill="none" stroke="#fd0d00" stroke-width="3.95" d="M191.2932,-823.7562C195.7643,-814.162 200.7378,-803.4897 205.4459,-793.3869"/>
<polygon fill="#fd0d00" stroke="#fd0d00" stroke-width="3.95" points="208.6318,-794.7534 209.673,-784.3163 202.3504,-791.8261 208.6318,-794.7534"/>
<text text-anchor="middle" x="221.5" y="-807" font-family="Arial" font-size="10.00" fill="#fd0d00">98.75%</text>
<text text-anchor="middle" x="221.5" y="-796" font-family="Arial" font-size="10.00" fill="#fd0d00">5050×</text>
</g>
</g>
</svg>
