<?xml version="1.0" encoding="UTF-8" standalone="no"?>
<!DOCTYPE svg PUBLIC "-//W3C//DTD SVG 1.1//EN"
 "http://www.w3.org/Graphics/SVG/1.1/DTD/svg11.dtd">
<!-- Generated by graphviz version 2.40.1 (20161225.0304)
 -->
<!-- Title: %3 Pages: 1 -->
<svg width="451pt" height="1204pt"
 viewBox="0.00 0.00 451.00 1204.00" xmlns="http://www.w3.org/2000/svg" xmlns:xlink="http://www.w3.org/1999/xlink">
<g id="graph0" class="graph" transform="scale(1 1) rotate(0) translate(4 1200)">
<title>%3</title>
<polygon fill="#ffffff" stroke="transparent" points="-4,4 -4,-1200 447,-1200 447,4 -4,4"/>
<!-- (below main) -->
<g id="node1" class="node">
<title>(below main)</title>
<polygon fill="#ff0000" stroke="#ff0000" points="215,-990 144,-990 144,-927 215,-927 215,-990"/>
<text text-anchor="middle" x="179.5" y="-978" font-family="Arial" font-size="10.00" fill="#ffffff">libc&#45;2.27.so</text>
<text text-anchor="middle" x="179.5" y="-967" font-family="Arial" font-size="10.00" fill="#ffffff">(below main)</text>
<text text-anchor="middle" x="179.5" y="-956" font-family="Arial" font-size="10.00" fill="#ffffff">100.00%</text>
<text text-anchor="middle" x="179.5" y="-945" font-family="Arial" font-size="10.00" fill="#ffffff">(0.00%)</text>
<text text-anchor="middle" x="179.5" y="-934" font-family="Arial" font-size="10.00" fill="#ffffff">1×</text>
</g>
<!-- main -->
<g id="node2" class="node">
<title>main</title>
<polygon fill="#ff0000" stroke="#ff0000" points="207,-887 152,-887 152,-824 207,-824 207,-887"/>
<text text-anchor="middle" x="179.5" y="-875" font-family="Arial" font-size="10.00" fill="#ffffff">csteen</text>
<text text-anchor="middle" x="179.5" y="-864" font-family="Arial" font-size="10.00" fill="#ffffff">main</text>
<text text-anchor="middle" x="179.5" y="-853" font-family="Arial" font-size="10.00" fill="#ffffff">100.00%</text>
<text text-anchor="middle" x="179.5" y="-842" font-family="Arial" font-size="10.00" fill="#ffffff">(0.00%)</text>
<text text-anchor="middle" x="179.5" y="-831" font-family="Arial" font-size="10.00" fill="#ffffff">1×</text>
</g>
<!-- (below main)&#45;&gt;main -->
<g id="edge1" class="edge">
<title>(below main)&#45;&gt;main</title>
<path fill="none" stroke="#ff0000" stroke-width="4" d="M179.5,-926.7562C179.5,-917.5536 179.5,-907.3591 179.5,-897.6267"/>
<polygon fill="#ff0000" stroke="#ff0000" stroke-width="4" points="183.0001,-897.3163 179.5,-887.3163 176.0001,-897.3164 183.0001,-897.3163"/>
<text text-anchor="middle" x="199" y="-910" font-family="Arial" font-size="10.00" fill="#ff0000">100.00%</text>
<text text-anchor="middle" x="199" y="-899" font-family="Arial" font-size="10.00" fill="#ff0000">1×</text>
</g>
<!-- Resolution_step -->
<g id="node14" class="node">
<title>Resolution_step</title>
<polygon fill="#ff0200" stroke="#ff0200" points="222.5,-784 136.5,-784 136.5,-721 222.5,-721 222.5,-784"/>
<text text-anchor="middle" x="179.5" y="-772" font-family="Arial" font-size="10.00" fill="#ffffff">csteen</text>
<text text-anchor="middle" x="179.5" y="-761" font-family="Arial" font-size="10.00" fill="#ffffff">Resolution_step</text>
<text text-anchor="middle" x="179.5" y="-750" font-family="Arial" font-size="10.00" fill="#ffffff">99.81%</text>
<text text-anchor="middle" x="179.5" y="-739" font-family="Arial" font-size="10.00" fill="#ffffff">(0.00%)</text>
<text text-anchor="middle" x="179.5" y="-728" font-family="Arial" font-size="10.00" fill="#ffffff">11325×</text>
</g>
<!-- main&#45;&gt;Resolution_step -->
<g id="edge17" class="edge">
<title>main&#45;&gt;Resolution_step</title>
<path fill="none" stroke="#ff0200" stroke-width="3.99" d="M179.5,-823.7562C179.5,-814.5536 179.5,-804.3591 179.5,-794.6267"/>
<polygon fill="#ff0200" stroke="#ff0200" stroke-width="3.99" points="183.0001,-794.3163 179.5,-784.3163 176.0001,-794.3164 183.0001,-794.3163"/>
<text text-anchor="middle" x="196.5" y="-807" font-family="Arial" font-size="10.00" fill="#ff0200">99.81%</text>
<text text-anchor="middle" x="196.5" y="-796" font-family="Arial" font-size="10.00" fill="#ff0200">11325×</text>
</g>
<!-- 0x0000000000000f60 -->
<g id="node3" class="node">
<title>0x0000000000000f60</title>
<polygon fill="#ff0000" stroke="#ff0000" points="234,-1196 125,-1196 125,-1133 234,-1133 234,-1196"/>
<text text-anchor="middle" x="179.5" y="-1184" font-family="Arial" font-size="10.00" fill="#ffffff">ld&#45;2.27.so</text>
<text text-anchor="middle" x="179.5" y="-1173" font-family="Arial" font-size="10.00" fill="#ffffff">0x0000000000000f60</text>
<text text-anchor="middle" x="179.5" y="-1162" font-family="Arial" font-size="10.00" fill="#ffffff">100.00%</text>
<text text-anchor="middle" x="179.5" y="-1151" font-family="Arial" font-size="10.00" fill="#ffffff">(0.00%)</text>
<text text-anchor="middle" x="179.5" y="-1140" font-family="Arial" font-size="10.00" fill="#ffffff">0×</text>
</g>
<!-- _start -->
<g id="node4" class="node">
<title>_start</title>
<polygon fill="#ff0000" stroke="#ff0000" points="207,-1093 152,-1093 152,-1030 207,-1030 207,-1093"/>
<text text-anchor="middle" x="179.5" y="-1081" font-family="Arial" font-size="10.00" fill="#ffffff">csteen</text>
<text text-anchor="middle" x="179.5" y="-1070" font-family="Arial" font-size="10.00" fill="#ffffff">_start</text>
<text text-anchor="middle" x="179.5" y="-1059" font-family="Arial" font-size="10.00" fill="#ffffff">100.00%</text>
<text text-anchor="middle" x="179.5" y="-1048" font-family="Arial" font-size="10.00" fill="#ffffff">(0.00%)</text>
<text text-anchor="middle" x="179.5" y="-1037" font-family="Arial" font-size="10.00" fill="#ffffff">1×</text>
</g>
<!-- 0x0000000000000f60&#45;&gt;_start -->
<g id="edge2" class="edge">
<title>0x0000000000000f60&#45;&gt;_start</title>
<path fill="none" stroke="#ff0000" stroke-width="4" d="M179.5,-1132.7562C179.5,-1123.5536 179.5,-1113.3591 179.5,-1103.6267"/>
<polygon fill="#ff0000" stroke="#ff0000" stroke-width="4" points="183.0001,-1103.3163 179.5,-1093.3163 176.0001,-1103.3164 183.0001,-1103.3163"/>
<text text-anchor="middle" x="199" y="-1116" font-family="Arial" font-size="10.00" fill="#ff0000">100.00%</text>
<text text-anchor="middle" x="199" y="-1105" font-family="Arial" font-size="10.00" fill="#ff0000">1×</text>
</g>
<!-- _start&#45;&gt;(below main) -->
<g id="edge16" class="edge">
<title>_start&#45;&gt;(below main)</title>
<path fill="none" stroke="#ff0000" stroke-width="4" d="M179.5,-1029.7562C179.5,-1020.5536 179.5,-1010.3591 179.5,-1000.6267"/>
<polygon fill="#ff0000" stroke="#ff0000" stroke-width="4" points="183.0001,-1000.3163 179.5,-990.3163 176.0001,-1000.3164 183.0001,-1000.3163"/>
<text text-anchor="middle" x="199" y="-1013" font-family="Arial" font-size="10.00" fill="#ff0000">100.00%</text>
<text text-anchor="middle" x="199" y="-1002" font-family="Arial" font-size="10.00" fill="#ff0000">1×</text>
</g>
<!-- AdemAlgebra__makeMonoAdmissibleGeneric -->
<g id="node5" class="node">
<title>AdemAlgebra__makeMonoAdmissibleGeneric</title>
<polygon fill="#0d1976" stroke="#0d1976" points="288,-269 73,-269 73,-206 288,-206 288,-269"/>
<text text-anchor="middle" x="180.5" y="-257" font-family="Arial" font-size="10.00" fill="#ffffff">csteen</text>
<text text-anchor="middle" x="180.5" y="-246" font-family="Arial" font-size="10.00" fill="#ffffff">AdemAlgebra__makeMonoAdmissibleGeneric</text>
<text text-anchor="middle" x="180.5" y="-235" font-family="Arial" font-size="10.00" fill="#ffffff">2.91%</text>
<text text-anchor="middle" x="180.5" y="-224" font-family="Arial" font-size="10.00" fill="#ffffff">(0.27%)</text>
<text text-anchor="middle" x="180.5" y="-213" font-family="Arial" font-size="10.00" fill="#ffffff">1227783×</text>
</g>
<!-- AdemAlgebra__makeMonoAdmissibleGeneric&#39;2 -->
<g id="node6" class="node">
<title>AdemAlgebra__makeMonoAdmissibleGeneric&#39;2</title>
<polygon fill="#0d1575" stroke="#0d1575" points="323.5,-166 101.5,-166 101.5,-103 323.5,-103 323.5,-166"/>
<text text-anchor="middle" x="212.5" y="-154" font-family="Arial" font-size="10.00" fill="#ffffff">csteen</text>
<text text-anchor="middle" x="212.5" y="-143" font-family="Arial" font-size="10.00" fill="#ffffff">AdemAlgebra__makeMonoAdmissibleGeneric&#39;2</text>
<text text-anchor="middle" x="212.5" y="-132" font-family="Arial" font-size="10.00" fill="#ffffff">2.06%</text>
<text text-anchor="middle" x="212.5" y="-121" font-family="Arial" font-size="10.00" fill="#ffffff">(0.46%)</text>
<text text-anchor="middle" x="212.5" y="-110" font-family="Arial" font-size="10.00" fill="#ffffff">2932590×</text>
</g>
<!-- AdemAlgebra__makeMonoAdmissibleGeneric&#45;&gt;AdemAlgebra__makeMonoAdmissibleGeneric&#39;2 -->
<g id="edge3" class="edge">
<title>AdemAlgebra__makeMonoAdmissibleGeneric&#45;&gt;AdemAlgebra__makeMonoAdmissibleGeneric&#39;2</title>
<path fill="none" stroke="#0d1575" stroke-width=".5" d="M190.3622,-205.7562C193.8903,-194.3998 197.8879,-181.5328 201.5057,-169.888"/>
<polygon fill="#0d1575" stroke="#0d1575" stroke-width=".5" points="202.7467,-170.0222 202.6153,-166.3163 200.407,-169.2953 202.7467,-170.0222"/>
<text text-anchor="middle" x="221" y="-189" font-family="Arial" font-size="10.00" fill="#0d1575">2.06%</text>
<text text-anchor="middle" x="221" y="-178" font-family="Arial" font-size="10.00" fill="#0d1575">1134964×</text>
</g>
<!-- AdemAlgebra_basisElement_toIndex -->
<g id="node7" class="node">
<title>AdemAlgebra_basisElement_toIndex</title>
<polygon fill="#0d1375" stroke="#0d1375" points="443,-63 266,-63 266,0 443,0 443,-63"/>
<text text-anchor="middle" x="354.5" y="-51" font-family="Arial" font-size="10.00" fill="#ffffff">csteen</text>
<text text-anchor="middle" x="354.5" y="-40" font-family="Arial" font-size="10.00" fill="#ffffff">AdemAlgebra_basisElement_toIndex</text>
<text text-anchor="middle" x="354.5" y="-29" font-family="Arial" font-size="10.00" fill="#ffffff">1.40%</text>
<text text-anchor="middle" x="354.5" y="-18" font-family="Arial" font-size="10.00" fill="#ffffff">(0.70%)</text>
<text text-anchor="middle" x="354.5" y="-7" font-family="Arial" font-size="10.00" fill="#ffffff">4247784×</text>
</g>
<!-- AdemAlgebra__makeMonoAdmissibleGeneric&#45;&gt;AdemAlgebra_basisElement_toIndex -->
<g id="edge4" class="edge">
<title>AdemAlgebra__makeMonoAdmissibleGeneric&#45;&gt;AdemAlgebra_basisElement_toIndex</title>
<path fill="none" stroke="#0d0e73" stroke-width=".5" d="M288.0474,-212.9727C332.4407,-200.4722 376.5657,-184.0952 389.5,-166 410.6187,-136.4548 394.8048,-95.157 378.187,-66.1399"/>
<polygon fill="#0d0e73" stroke="#0d0e73" stroke-width=".5" points="379.189,-65.4261 376.369,-63.018 377.0718,-66.6591 379.189,-65.4261"/>
<text text-anchor="middle" x="421" y="-137.5" font-family="Arial" font-size="10.00" fill="#0d0e73">0.34%</text>
<text text-anchor="middle" x="421" y="-126.5" font-family="Arial" font-size="10.00" fill="#0d0e73">1227783×</text>
</g>
<!-- Vector_stepIterator -->
<g id="node8" class="node">
<title>Vector_stepIterator</title>
<polygon fill="#0d1174" stroke="#0d1174" points="99,-63 0,-63 0,0 99,0 99,-63"/>
<text text-anchor="middle" x="49.5" y="-51" font-family="Arial" font-size="10.00" fill="#ffffff">csteen</text>
<text text-anchor="middle" x="49.5" y="-40" font-family="Arial" font-size="10.00" fill="#ffffff">Vector_stepIterator</text>
<text text-anchor="middle" x="49.5" y="-29" font-family="Arial" font-size="10.00" fill="#ffffff">1.02%</text>
<text text-anchor="middle" x="49.5" y="-18" font-family="Arial" font-size="10.00" fill="#ffffff">(1.02%)</text>
<text text-anchor="middle" x="49.5" y="-7" font-family="Arial" font-size="10.00" fill="#ffffff">37737797×</text>
</g>
<!-- AdemAlgebra__makeMonoAdmissibleGeneric&#45;&gt;Vector_stepIterator -->
<g id="edge5" class="edge">
<title>AdemAlgebra__makeMonoAdmissibleGeneric&#45;&gt;Vector_stepIterator</title>
<path fill="none" stroke="#0d0e73" stroke-width=".5" d="M95.8442,-205.9673C79.0883,-195.7831 63.5818,-182.6718 53.5,-166 35.5102,-136.251 37.0844,-95.6372 41.556,-66.8437"/>
<polygon fill="#0d0e73" stroke="#0d0e73" stroke-width=".5" points="42.8219,-66.6902 42.1743,-63.039 40.4037,-66.2971 42.8219,-66.6902"/>
<text text-anchor="middle" x="75" y="-137.5" font-family="Arial" font-size="10.00" fill="#0d0e73">0.20%</text>
<text text-anchor="middle" x="75" y="-126.5" font-family="Arial" font-size="10.00" fill="#0d0e73">7914831×</text>
</g>
<!-- AdemAlgebra__makeMonoAdmissibleGeneric&#39;2&#45;&gt;AdemAlgebra__makeMonoAdmissibleGeneric&#39;2 -->
<g id="edge6" class="edge">
<title>AdemAlgebra__makeMonoAdmissibleGeneric&#39;2&#45;&gt;AdemAlgebra__makeMonoAdmissibleGeneric&#39;2</title>
<path fill="none" stroke="#0d1575" stroke-width=".5" d="M323.6034,-140.5699C329.1992,-139.0624 332.5,-137.0391 332.5,-134.5 332.5,-132.5957 330.6433,-130.9815 327.3542,-129.6574"/>
<polygon fill="#0d1575" stroke="#0d1575" stroke-width=".5" points="327.3108,-128.3544 323.6034,-128.4301 326.5488,-130.6829 327.3108,-128.3544"/>
<text text-anchor="middle" x="354" y="-132" font-family="Arial" font-size="10.00" fill="#0d1575">1797626×</text>
</g>
<!-- AdemAlgebra__makeMonoAdmissibleGeneric&#39;2&#45;&gt;AdemAlgebra_basisElement_toIndex -->
<g id="edge7" class="edge">
<title>AdemAlgebra__makeMonoAdmissibleGeneric&#39;2&#45;&gt;AdemAlgebra_basisElement_toIndex</title>
<path fill="none" stroke="#0d1174" stroke-width=".5" d="M256.2634,-102.7562C272.5945,-90.9103 291.1917,-77.4208 307.7789,-65.3892"/>
<polygon fill="#0d1174" stroke="#0d1174" stroke-width=".5" points="308.5228,-66.363 310.6367,-63.3163 307.0842,-64.3798 308.5228,-66.363"/>
<text text-anchor="middle" x="318" y="-86" font-family="Arial" font-size="10.00" fill="#0d1174">1.03%</text>
<text text-anchor="middle" x="318" y="-75" font-family="Arial" font-size="10.00" fill="#0d1174">2932590×</text>
</g>
<!-- AdemAlgebra__makeMonoAdmissibleGeneric&#39;2&#45;&gt;Vector_stepIterator -->
<g id="edge8" class="edge">
<title>AdemAlgebra__makeMonoAdmissibleGeneric&#39;2&#45;&gt;Vector_stepIterator</title>
<path fill="none" stroke="#0d0f73" stroke-width=".5" d="M162.2646,-102.7562C143.253,-90.7427 121.5661,-77.0387 102.3236,-64.8793"/>
<polygon fill="#0d0f73" stroke="#0d0f73" stroke-width=".5" points="102.6227,-63.6193 99.0095,-62.7852 101.3139,-65.6904 102.6227,-63.6193"/>
<text text-anchor="middle" x="171" y="-86" font-family="Arial" font-size="10.00" fill="#0d0f73">0.45%</text>
<text text-anchor="middle" x="171" y="-75" font-family="Arial" font-size="10.00" fill="#0d0f73">16658984×</text>
</g>
<!-- AdemAlgebra_multiply -->
<g id="node9" class="node">
<title>AdemAlgebra_multiply</title>
<polygon fill="#0d1a77" stroke="#0d1a77" points="222.5,-372 108.5,-372 108.5,-309 222.5,-309 222.5,-372"/>
<text text-anchor="middle" x="165.5" y="-360" font-family="Arial" font-size="10.00" fill="#ffffff">csteen</text>
<text text-anchor="middle" x="165.5" y="-349" font-family="Arial" font-size="10.00" fill="#ffffff">AdemAlgebra_multiply</text>
<text text-anchor="middle" x="165.5" y="-338" font-family="Arial" font-size="10.00" fill="#ffffff">3.05%</text>
<text text-anchor="middle" x="165.5" y="-327" font-family="Arial" font-size="10.00" fill="#ffffff">(0.12%)</text>
<text text-anchor="middle" x="165.5" y="-316" font-family="Arial" font-size="10.00" fill="#ffffff">1518256×</text>
</g>
<!-- AdemAlgebra_multiply&#45;&gt;AdemAlgebra__makeMonoAdmissibleGeneric -->
<g id="edge9" class="edge">
<title>AdemAlgebra_multiply&#45;&gt;AdemAlgebra__makeMonoAdmissibleGeneric</title>
<path fill="none" stroke="#0d1976" stroke-width=".5" d="M170.1229,-308.7562C171.7767,-297.3998 173.6506,-284.5328 175.3464,-272.888"/>
<polygon fill="#0d1976" stroke="#0d1976" stroke-width=".5" points="176.5743,-272.9564 175.8666,-269.3163 174.1499,-272.6032 176.5743,-272.9564"/>
<text text-anchor="middle" x="196" y="-292" font-family="Arial" font-size="10.00" fill="#0d1976">2.91%</text>
<text text-anchor="middle" x="196" y="-281" font-family="Arial" font-size="10.00" fill="#0d1976">1227783×</text>
</g>
<!-- FreeModuleHomomorphism_getMatrix -->
<g id="node10" class="node">
<title>FreeModuleHomomorphism_getMatrix</title>
<polygon fill="#0d1d78" stroke="#0d1d78" points="204.5,-578 22.5,-578 22.5,-515 204.5,-515 204.5,-578"/>
<text text-anchor="middle" x="113.5" y="-566" font-family="Arial" font-size="10.00" fill="#ffffff">csteen</text>
<text text-anchor="middle" x="113.5" y="-555" font-family="Arial" font-size="10.00" fill="#ffffff">FreeModuleHomomorphism_getMatrix</text>
<text text-anchor="middle" x="113.5" y="-544" font-family="Arial" font-size="10.00" fill="#ffffff">3.81%</text>
<text text-anchor="middle" x="113.5" y="-533" font-family="Arial" font-size="10.00" fill="#ffffff">(0.21%)</text>
<text text-anchor="middle" x="113.5" y="-522" font-family="Arial" font-size="10.00" fill="#ffffff">11325×</text>
</g>
<!-- FreeModuleHomomorphism_getMatrix&#45;&gt;Vector_stepIterator -->
<g id="edge11" class="edge">
<title>FreeModuleHomomorphism_getMatrix&#45;&gt;Vector_stepIterator</title>
<path fill="none" stroke="#0d0e73" stroke-width=".5" d="M66.9436,-514.8542C46.2587,-496.788 26.5,-472.0569 26.5,-443.5 26.5,-443.5 26.5,-443.5 26.5,-134.5 26.5,-111.4639 32.0476,-86.2114 37.6937,-66.4757"/>
<polygon fill="#0d0e73" stroke="#0d0e73" stroke-width=".5" points="38.872,-66.8103 38.6735,-63.1074 36.5196,-66.1259 38.872,-66.8103"/>
<text text-anchor="middle" x="51" y="-292" font-family="Arial" font-size="10.00" fill="#0d0e73">0.31%</text>
<text text-anchor="middle" x="51" y="-281" font-family="Arial" font-size="10.00" fill="#0d0e73">11291321×</text>
</g>
<!-- FreeModule_actOnBasis -->
<g id="node11" class="node">
<title>FreeModule_actOnBasis</title>
<polygon fill="#0d1b77" stroke="#0d1b77" points="183.5,-475 59.5,-475 59.5,-412 183.5,-412 183.5,-475"/>
<text text-anchor="middle" x="121.5" y="-463" font-family="Arial" font-size="10.00" fill="#ffffff">csteen</text>
<text text-anchor="middle" x="121.5" y="-452" font-family="Arial" font-size="10.00" fill="#ffffff">FreeModule_actOnBasis</text>
<text text-anchor="middle" x="121.5" y="-441" font-family="Arial" font-size="10.00" fill="#ffffff">3.27%</text>
<text text-anchor="middle" x="121.5" y="-430" font-family="Arial" font-size="10.00" fill="#ffffff">(0.10%)</text>
<text text-anchor="middle" x="121.5" y="-419" font-family="Arial" font-size="10.00" fill="#ffffff">1518256×</text>
</g>
<!-- FreeModuleHomomorphism_getMatrix&#45;&gt;FreeModule_actOnBasis -->
<g id="edge10" class="edge">
<title>FreeModuleHomomorphism_getMatrix&#45;&gt;FreeModule_actOnBasis</title>
<path fill="none" stroke="#0d1b77" stroke-width=".5" d="M115.9655,-514.7562C116.8476,-503.3998 117.847,-490.5328 118.7514,-478.888"/>
<polygon fill="#0d1b77" stroke="#0d1b77" stroke-width=".5" points="119.979,-478.9007 119.0288,-475.3163 117.5364,-478.7109 119.979,-478.9007"/>
<text text-anchor="middle" x="140" y="-498" font-family="Arial" font-size="10.00" fill="#0d1b77">3.27%</text>
<text text-anchor="middle" x="140" y="-487" font-family="Arial" font-size="10.00" fill="#0d1b77">1518256×</text>
</g>
<!-- FreeModule_actOnBasis&#45;&gt;AdemAlgebra_multiply -->
<g id="edge12" class="edge">
<title>FreeModule_actOnBasis&#45;&gt;AdemAlgebra_multiply</title>
<path fill="none" stroke="#0d1a77" stroke-width=".5" d="M135.0605,-411.7562C139.9535,-400.3019 145.5031,-387.3109 150.5113,-375.5871"/>
<polygon fill="#0d1a77" stroke="#0d1a77" stroke-width=".5" points="151.6601,-376.0162 151.9086,-372.3163 149.407,-375.0537 151.6601,-376.0162"/>
<text text-anchor="middle" x="169" y="-395" font-family="Arial" font-size="10.00" fill="#0d1a77">3.05%</text>
<text text-anchor="middle" x="169" y="-384" font-family="Arial" font-size="10.00" fill="#0d1a77">1518256×</text>
</g>
<!-- Resolution_generateOldKernelAndComputeNewKernel -->
<g id="node12" class="node">
<title>Resolution_generateOldKernelAndComputeNewKernel</title>
<polygon fill="#ff0200" stroke="#ff0200" points="305,-681 54,-681 54,-618 305,-618 305,-681"/>
<text text-anchor="middle" x="179.5" y="-669" font-family="Arial" font-size="10.00" fill="#ffffff">csteen</text>
<text text-anchor="middle" x="179.5" y="-658" font-family="Arial" font-size="10.00" fill="#ffffff">Resolution_generateOldKernelAndComputeNewKernel</text>
<text text-anchor="middle" x="179.5" y="-647" font-family="Arial" font-size="10.00" fill="#ffffff">99.81%</text>
<text text-anchor="middle" x="179.5" y="-636" font-family="Arial" font-size="10.00" fill="#ffffff">(0.02%)</text>
<text text-anchor="middle" x="179.5" y="-625" font-family="Arial" font-size="10.00" fill="#ffffff">11325×</text>
</g>
<!-- Resolution_generateOldKernelAndComputeNewKernel&#45;&gt;FreeModuleHomomorphism_getMatrix -->
<g id="edge13" class="edge">
<title>Resolution_generateOldKernelAndComputeNewKernel&#45;&gt;FreeModuleHomomorphism_getMatrix</title>
<path fill="none" stroke="#0d1d78" stroke-width=".5" d="M159.1593,-617.7562C151.7569,-606.204 143.353,-593.0887 135.7906,-581.2868"/>
<polygon fill="#0d1d78" stroke="#0d1d78" stroke-width=".5" points="136.8069,-580.6023 133.8872,-578.3163 134.7441,-581.9242 136.8069,-580.6023"/>
<text text-anchor="middle" x="169" y="-601" font-family="Arial" font-size="10.00" fill="#0d1d78">3.81%</text>
<text text-anchor="middle" x="169" y="-590" font-family="Arial" font-size="10.00" fill="#0d1d78">11325×</text>
</g>
<!-- rowReduce -->
<g id="node13" class="node">
<title>rowReduce</title>
<polygon fill="#f92b01" stroke="#f92b01" points="279,-578 214,-578 214,-515 279,-515 279,-578"/>
<text text-anchor="middle" x="246.5" y="-566" font-family="Arial" font-size="10.00" fill="#ffffff">csteen</text>
<text text-anchor="middle" x="246.5" y="-555" font-family="Arial" font-size="10.00" fill="#ffffff">rowReduce</text>
<text text-anchor="middle" x="246.5" y="-544" font-family="Arial" font-size="10.00" fill="#ffffff">95.76%</text>
<text text-anchor="middle" x="246.5" y="-533" font-family="Arial" font-size="10.00" fill="#ffffff">(9.39%)</text>
<text text-anchor="middle" x="246.5" y="-522" font-family="Arial" font-size="10.00" fill="#ffffff">22650×</text>
</g>
<!-- Resolution_generateOldKernelAndComputeNewKernel&#45;&gt;rowReduce -->
<g id="edge14" class="edge">
<title>Resolution_generateOldKernelAndComputeNewKernel&#45;&gt;rowReduce</title>
<path fill="none" stroke="#f92b01" stroke-width="3.83" d="M200.1489,-617.7562C206.5171,-607.9662 213.6156,-597.0536 220.3055,-586.7691"/>
<polygon fill="#f92b01" stroke="#f92b01" stroke-width="3.83" points="223.3354,-588.4016 225.8039,-578.3163 217.585,-584.661 223.3354,-588.4016"/>
<text text-anchor="middle" x="236.5" y="-601" font-family="Arial" font-size="10.00" fill="#f92b01">95.76%</text>
<text text-anchor="middle" x="236.5" y="-590" font-family="Arial" font-size="10.00" fill="#f92b01">22650×</text>
</g>
<!-- VectorGeneric_add -->
<g id="node15" class="node">
<title>VectorGeneric_add</title>
<polygon fill="#e2ad04" stroke="#e2ad04" points="295,-475 196,-475 196,-412 295,-412 295,-475"/>
<text text-anchor="middle" x="245.5" y="-463" font-family="Arial" font-size="10.00" fill="#ffffff">csteen</text>
<text text-anchor="middle" x="245.5" y="-452" font-family="Arial" font-size="10.00" fill="#ffffff">VectorGeneric_add</text>
<text text-anchor="middle" x="245.5" y="-441" font-family="Arial" font-size="10.00" fill="#ffffff">81.00%</text>
<text text-anchor="middle" x="245.5" y="-430" font-family="Arial" font-size="10.00" fill="#ffffff">(81.00%)</text>
<text text-anchor="middle" x="245.5" y="-419" font-family="Arial" font-size="10.00" fill="#ffffff">4949552×</text>
</g>
<!-- rowReduce&#45;&gt;VectorGeneric_add -->
<g id="edge18" class="edge">
<title>rowReduce&#45;&gt;VectorGeneric_add</title>
<path fill="none" stroke="#e2ad04" stroke-width="3.24" d="M246.1918,-514.7562C246.0987,-505.162 245.995,-494.4897 245.897,-484.3869"/>
<polygon fill="#e2ad04" stroke="#e2ad04" stroke-width="3.24" points="249.0462,-484.2853 245.8089,-475.3163 242.7465,-484.3465 249.0462,-484.2853"/>
<text text-anchor="middle" x="268" y="-498" font-family="Arial" font-size="10.00" fill="#e2ad04">80.97%</text>
<text text-anchor="middle" x="268" y="-487" font-family="Arial" font-size="10.00" fill="#e2ad04">4912160×</text>
</g>
<!-- VectorGeneric_scale -->
<g id="node16" class="node">
<title>VectorGeneric_scale</title>
<polygon fill="#0d247a" stroke="#0d247a" points="411,-475 304,-475 304,-412 411,-412 411,-475"/>
<text text-anchor="middle" x="357.5" y="-463" font-family="Arial" font-size="10.00" fill="#ffffff">csteen</text>
<text text-anchor="middle" x="357.5" y="-452" font-family="Arial" font-size="10.00" fill="#ffffff">VectorGeneric_scale</text>
<text text-anchor="middle" x="357.5" y="-441" font-family="Arial" font-size="10.00" fill="#ffffff">5.40%</text>
<text text-anchor="middle" x="357.5" y="-430" font-family="Arial" font-size="10.00" fill="#ffffff">(5.40%)</text>
<text text-anchor="middle" x="357.5" y="-419" font-family="Arial" font-size="10.00" fill="#ffffff">542527×</text>
</g>
<!-- rowReduce&#45;&gt;VectorGeneric_scale -->
<g id="edge19" class="edge">
<title>rowReduce&#45;&gt;VectorGeneric_scale</title>
<path fill="none" stroke="#0d247a" stroke-width=".5" d="M279.0339,-517.397C283.2431,-513.5798 287.4842,-509.7075 291.5,-506 301.2724,-496.978 311.7638,-487.1223 321.4416,-477.9597"/>
<polygon fill="#0d247a" stroke="#0d247a" stroke-width=".5" points="322.7192,-478.4367 324.4172,-475.14 321.034,-476.6582 322.7192,-478.4367"/>
<text text-anchor="middle" x="331.5" y="-498" font-family="Arial" font-size="10.00" fill="#0d247a">5.40%</text>
<text text-anchor="middle" x="331.5" y="-487" font-family="Arial" font-size="10.00" fill="#0d247a">542527×</text>
</g>
<!-- Resolution_step&#45;&gt;Resolution_generateOldKernelAndComputeNewKernel -->
<g id="edge15" class="edge">
<title>Resolution_step&#45;&gt;Resolution_generateOldKernelAndComputeNewKernel</title>
<path fill="none" stroke="#ff0200" stroke-width="3.99" d="M179.5,-720.7562C179.5,-711.5536 179.5,-701.3591 179.5,-691.6267"/>
<polygon fill="#ff0200" stroke="#ff0200" stroke-width="3.99" points="183.0001,-691.3163 179.5,-681.3163 176.0001,-691.3164 183.0001,-691.3163"/>
<text text-anchor="middle" x="196.5" y="-704" font-family="Arial" font-size="10.00" fill="#ff0200">99.81%</text>
<text text-anchor="middle" x="196.5" y="-693" font-family="Arial" font-size="10.00" fill="#ff0200">11325×</text>
</g>
</g>
</svg>
