<?xml version="1.0" encoding="UTF-8" standalone="no"?>
<!DOCTYPE svg PUBLIC "-//W3C//DTD SVG 1.1//EN"
 "http://www.w3.org/Graphics/SVG/1.1/DTD/svg11.dtd">
<!-- Generated by graphviz version 2.40.1 (20161225.0304)
 -->
<!-- Title: %3 Pages: 1 -->
<svg width="781pt" height="1307pt"
 viewBox="0.00 0.00 780.50 1307.00" xmlns="http://www.w3.org/2000/svg" xmlns:xlink="http://www.w3.org/1999/xlink">
<g id="graph0" class="graph" transform="scale(1 1) rotate(0) translate(4 1303)">
<title>%3</title>
<polygon fill="#ffffff" stroke="transparent" points="-4,4 -4,-1303 776.5,-1303 776.5,4 -4,4"/>
<!-- (below main) -->
<g id="node1" class="node">
<title>(below main)</title>
<polygon fill="#ff0000" stroke="#ff0000" points="605,-1093 534,-1093 534,-1030 605,-1030 605,-1093"/>
<text text-anchor="middle" x="569.5" y="-1081" font-family="Arial" font-size="10.00" fill="#ffffff">libc&#45;2.27.so</text>
<text text-anchor="middle" x="569.5" y="-1070" font-family="Arial" font-size="10.00" fill="#ffffff">(below main)</text>
<text text-anchor="middle" x="569.5" y="-1059" font-family="Arial" font-size="10.00" fill="#ffffff">100.00%</text>
<text text-anchor="middle" x="569.5" y="-1048" font-family="Arial" font-size="10.00" fill="#ffffff">(0.00%)</text>
<text text-anchor="middle" x="569.5" y="-1037" font-family="Arial" font-size="10.00" fill="#ffffff">1×</text>
</g>
<!-- main -->
<g id="node2" class="node">
<title>main</title>
<polygon fill="#ff0000" stroke="#ff0000" points="597,-990 542,-990 542,-927 597,-927 597,-990"/>
<text text-anchor="middle" x="569.5" y="-978" font-family="Arial" font-size="10.00" fill="#ffffff">csteen</text>
<text text-anchor="middle" x="569.5" y="-967" font-family="Arial" font-size="10.00" fill="#ffffff">main</text>
<text text-anchor="middle" x="569.5" y="-956" font-family="Arial" font-size="10.00" fill="#ffffff">100.00%</text>
<text text-anchor="middle" x="569.5" y="-945" font-family="Arial" font-size="10.00" fill="#ffffff">(0.00%)</text>
<text text-anchor="middle" x="569.5" y="-934" font-family="Arial" font-size="10.00" fill="#ffffff">1×</text>
</g>
<!-- (below main)&#45;&gt;main -->
<g id="edge1" class="edge">
<title>(below main)&#45;&gt;main</title>
<path fill="none" stroke="#ff0000" stroke-width="4" d="M569.5,-1029.7562C569.5,-1020.5536 569.5,-1010.3591 569.5,-1000.6267"/>
<polygon fill="#ff0000" stroke="#ff0000" stroke-width="4" points="573.0001,-1000.3163 569.5,-990.3163 566.0001,-1000.3164 573.0001,-1000.3163"/>
<text text-anchor="middle" x="589" y="-1013" font-family="Arial" font-size="10.00" fill="#ff0000">100.00%</text>
<text text-anchor="middle" x="589" y="-1002" font-family="Arial" font-size="10.00" fill="#ff0000">1×</text>
</g>
<!-- Resolution_resolveThroughDegree -->
<g id="node21" class="node">
<title>Resolution_resolveThroughDegree</title>
<polygon fill="#ff0000" stroke="#ff0000" points="652,-887 487,-887 487,-824 652,-824 652,-887"/>
<text text-anchor="middle" x="569.5" y="-875" font-family="Arial" font-size="10.00" fill="#ffffff">csteen</text>
<text text-anchor="middle" x="569.5" y="-864" font-family="Arial" font-size="10.00" fill="#ffffff">Resolution_resolveThroughDegree</text>
<text text-anchor="middle" x="569.5" y="-853" font-family="Arial" font-size="10.00" fill="#ffffff">99.99%</text>
<text text-anchor="middle" x="569.5" y="-842" font-family="Arial" font-size="10.00" fill="#ffffff">(0.00%)</text>
<text text-anchor="middle" x="569.5" y="-831" font-family="Arial" font-size="10.00" fill="#ffffff">1×</text>
</g>
<!-- main&#45;&gt;Resolution_resolveThroughDegree -->
<g id="edge26" class="edge">
<title>main&#45;&gt;Resolution_resolveThroughDegree</title>
<path fill="none" stroke="#ff0000" stroke-width="4" d="M569.5,-926.7562C569.5,-917.5536 569.5,-907.3591 569.5,-897.6267"/>
<polygon fill="#ff0000" stroke="#ff0000" stroke-width="4" points="573.0001,-897.3163 569.5,-887.3163 566.0001,-897.3164 573.0001,-897.3163"/>
<text text-anchor="middle" x="586.5" y="-910" font-family="Arial" font-size="10.00" fill="#ff0000">99.99%</text>
<text text-anchor="middle" x="586.5" y="-899" font-family="Arial" font-size="10.00" fill="#ff0000">1×</text>
</g>
<!-- 0x0000000000000f60 -->
<g id="node3" class="node">
<title>0x0000000000000f60</title>
<polygon fill="#ff0000" stroke="#ff0000" points="624,-1299 515,-1299 515,-1236 624,-1236 624,-1299"/>
<text text-anchor="middle" x="569.5" y="-1287" font-family="Arial" font-size="10.00" fill="#ffffff">ld&#45;2.27.so</text>
<text text-anchor="middle" x="569.5" y="-1276" font-family="Arial" font-size="10.00" fill="#ffffff">0x0000000000000f60</text>
<text text-anchor="middle" x="569.5" y="-1265" font-family="Arial" font-size="10.00" fill="#ffffff">100.00%</text>
<text text-anchor="middle" x="569.5" y="-1254" font-family="Arial" font-size="10.00" fill="#ffffff">(0.00%)</text>
<text text-anchor="middle" x="569.5" y="-1243" font-family="Arial" font-size="10.00" fill="#ffffff">0×</text>
</g>
<!-- _start -->
<g id="node4" class="node">
<title>_start</title>
<polygon fill="#ff0000" stroke="#ff0000" points="597,-1196 542,-1196 542,-1133 597,-1133 597,-1196"/>
<text text-anchor="middle" x="569.5" y="-1184" font-family="Arial" font-size="10.00" fill="#ffffff">csteen</text>
<text text-anchor="middle" x="569.5" y="-1173" font-family="Arial" font-size="10.00" fill="#ffffff">_start</text>
<text text-anchor="middle" x="569.5" y="-1162" font-family="Arial" font-size="10.00" fill="#ffffff">100.00%</text>
<text text-anchor="middle" x="569.5" y="-1151" font-family="Arial" font-size="10.00" fill="#ffffff">(0.00%)</text>
<text text-anchor="middle" x="569.5" y="-1140" font-family="Arial" font-size="10.00" fill="#ffffff">1×</text>
</g>
<!-- 0x0000000000000f60&#45;&gt;_start -->
<g id="edge2" class="edge">
<title>0x0000000000000f60&#45;&gt;_start</title>
<path fill="none" stroke="#ff0000" stroke-width="4" d="M569.5,-1235.7562C569.5,-1226.5536 569.5,-1216.3591 569.5,-1206.6267"/>
<polygon fill="#ff0000" stroke="#ff0000" stroke-width="4" points="573.0001,-1206.3163 569.5,-1196.3163 566.0001,-1206.3164 573.0001,-1206.3163"/>
<text text-anchor="middle" x="589" y="-1219" font-family="Arial" font-size="10.00" fill="#ff0000">100.00%</text>
<text text-anchor="middle" x="589" y="-1208" font-family="Arial" font-size="10.00" fill="#ff0000">1×</text>
</g>
<!-- _start&#45;&gt;(below main) -->
<g id="edge25" class="edge">
<title>_start&#45;&gt;(below main)</title>
<path fill="none" stroke="#ff0000" stroke-width="4" d="M569.5,-1132.7562C569.5,-1123.5536 569.5,-1113.3591 569.5,-1103.6267"/>
<polygon fill="#ff0000" stroke="#ff0000" stroke-width="4" points="573.0001,-1103.3163 569.5,-1093.3163 566.0001,-1103.3164 573.0001,-1103.3163"/>
<text text-anchor="middle" x="589" y="-1116" font-family="Arial" font-size="10.00" fill="#ff0000">100.00%</text>
<text text-anchor="middle" x="589" y="-1105" font-family="Arial" font-size="10.00" fill="#ff0000">1×</text>
</g>
<!-- FreeModuleHomomorphism_getMatrix -->
<g id="node5" class="node">
<title>FreeModuleHomomorphism_getMatrix</title>
<polygon fill="#0c9493" stroke="#0c9493" points="594.5,-578 412.5,-578 412.5,-515 594.5,-515 594.5,-578"/>
<text text-anchor="middle" x="503.5" y="-566" font-family="Arial" font-size="10.00" fill="#ffffff">csteen</text>
<text text-anchor="middle" x="503.5" y="-555" font-family="Arial" font-size="10.00" fill="#ffffff">FreeModuleHomomorphism_getMatrix</text>
<text text-anchor="middle" x="503.5" y="-544" font-family="Arial" font-size="10.00" fill="#ffffff">25.16%</text>
<text text-anchor="middle" x="503.5" y="-533" font-family="Arial" font-size="10.00" fill="#ffffff">(0.22%)</text>
<text text-anchor="middle" x="503.5" y="-522" font-family="Arial" font-size="10.00" fill="#ffffff">2485×</text>
</g>
<!-- FreeModule_actOnBasis -->
<g id="node6" class="node">
<title>FreeModule_actOnBasis</title>
<polygon fill="#0c8e92" stroke="#0c8e92" points="522.5,-475 398.5,-475 398.5,-412 522.5,-412 522.5,-475"/>
<text text-anchor="middle" x="460.5" y="-463" font-family="Arial" font-size="10.00" fill="#ffffff">csteen</text>
<text text-anchor="middle" x="460.5" y="-452" font-family="Arial" font-size="10.00" fill="#ffffff">FreeModule_actOnBasis</text>
<text text-anchor="middle" x="460.5" y="-441" font-family="Arial" font-size="10.00" fill="#ffffff">24.26%</text>
<text text-anchor="middle" x="460.5" y="-430" font-family="Arial" font-size="10.00" fill="#ffffff">(0.26%)</text>
<text text-anchor="middle" x="460.5" y="-419" font-family="Arial" font-size="10.00" fill="#ffffff">3144885×</text>
</g>
<!-- FreeModuleHomomorphism_getMatrix&#45;&gt;FreeModule_actOnBasis -->
<g id="edge3" class="edge">
<title>FreeModuleHomomorphism_getMatrix&#45;&gt;FreeModule_actOnBasis</title>
<path fill="none" stroke="#0c8e92" stroke-width=".97" d="M490.2477,-514.7562C485.6702,-503.7914 480.5048,-491.4184 475.7783,-480.0969"/>
<polygon fill="#0c8e92" stroke="#0c8e92" stroke-width=".97" points="477.253,-479.1774 473.7825,-475.3163 474.0877,-480.4988 477.253,-479.1774"/>
<text text-anchor="middle" x="508" y="-498" font-family="Arial" font-size="10.00" fill="#0c8e92">24.26%</text>
<text text-anchor="middle" x="508" y="-487" font-family="Arial" font-size="10.00" fill="#0c8e92">3144885×</text>
</g>
<!-- Vector_stepIterator -->
<g id="node7" class="node">
<title>Vector_stepIterator</title>
<polygon fill="#0ba556" stroke="#0ba556" points="653,-475 554,-475 554,-412 653,-412 653,-475"/>
<text text-anchor="middle" x="603.5" y="-463" font-family="Arial" font-size="10.00" fill="#ffffff">csteen</text>
<text text-anchor="middle" x="603.5" y="-452" font-family="Arial" font-size="10.00" fill="#ffffff">Vector_stepIterator</text>
<text text-anchor="middle" x="603.5" y="-441" font-family="Arial" font-size="10.00" fill="#ffffff">37.79%</text>
<text text-anchor="middle" x="603.5" y="-430" font-family="Arial" font-size="10.00" fill="#ffffff">(29.60%)</text>
<text text-anchor="middle" x="603.5" y="-419" font-family="Arial" font-size="10.00" fill="#ffffff">903402857×</text>
</g>
<!-- FreeModuleHomomorphism_getMatrix&#45;&gt;Vector_stepIterator -->
<g id="edge4" class="edge">
<title>FreeModuleHomomorphism_getMatrix&#45;&gt;Vector_stepIterator</title>
<path fill="none" stroke="#0d0f74" stroke-width=".5" d="M534.3193,-514.7562C545.63,-503.1061 558.4842,-489.8663 570.0175,-477.987"/>
<polygon fill="#0d0f74" stroke="#0d0f74" stroke-width=".5" points="571.0512,-478.6809 572.6104,-475.3163 569.2934,-476.9742 571.0512,-478.6809"/>
<text text-anchor="middle" x="587" y="-498" font-family="Arial" font-size="10.00" fill="#0d0f74">0.67%</text>
<text text-anchor="middle" x="587" y="-487" font-family="Arial" font-size="10.00" fill="#0d0f74">16159469×</text>
</g>
<!-- FreeModule_getDimension -->
<g id="node8" class="node">
<title>FreeModule_getDimension</title>
<polygon fill="#0d2179" stroke="#0d2179" points="367.5,-372 235.5,-372 235.5,-309 367.5,-309 367.5,-372"/>
<text text-anchor="middle" x="301.5" y="-360" font-family="Arial" font-size="10.00" fill="#ffffff">csteen</text>
<text text-anchor="middle" x="301.5" y="-349" font-family="Arial" font-size="10.00" fill="#ffffff">FreeModule_getDimension</text>
<text text-anchor="middle" x="301.5" y="-338" font-family="Arial" font-size="10.00" fill="#ffffff">4.66%</text>
<text text-anchor="middle" x="301.5" y="-327" font-family="Arial" font-size="10.00" fill="#ffffff">(2.30%)</text>
<text text-anchor="middle" x="301.5" y="-316" font-family="Arial" font-size="10.00" fill="#ffffff">3157597×</text>
</g>
<!-- FreeModule_actOnBasis&#45;&gt;FreeModule_getDimension -->
<g id="edge5" class="edge">
<title>FreeModule_actOnBasis&#45;&gt;FreeModule_getDimension</title>
<path fill="none" stroke="#0d2179" stroke-width=".5" d="M411.4974,-411.7562C393.1248,-399.8545 372.191,-386.2935 353.5518,-374.2191"/>
<polygon fill="#0d2179" stroke="#0d2179" stroke-width=".5" points="353.9444,-373.0138 350.3408,-372.139 352.6123,-375.0701 353.9444,-373.0138"/>
<text text-anchor="middle" x="417" y="-395" font-family="Arial" font-size="10.00" fill="#0d2179">4.65%</text>
<text text-anchor="middle" x="417" y="-384" font-family="Arial" font-size="10.00" fill="#0d2179">3144885×</text>
</g>
<!-- MilnorAlgebra_multiply -->
<g id="node9" class="node">
<title>MilnorAlgebra_multiply</title>
<polygon fill="#0c6c8b" stroke="#0c6c8b" points="518,-372 403,-372 403,-309 518,-309 518,-372"/>
<text text-anchor="middle" x="460.5" y="-360" font-family="Arial" font-size="10.00" fill="#ffffff">csteen</text>
<text text-anchor="middle" x="460.5" y="-349" font-family="Arial" font-size="10.00" fill="#ffffff">MilnorAlgebra_multiply</text>
<text text-anchor="middle" x="460.5" y="-338" font-family="Arial" font-size="10.00" fill="#ffffff">18.79%</text>
<text text-anchor="middle" x="460.5" y="-327" font-family="Arial" font-size="10.00" fill="#ffffff">(0.20%)</text>
<text text-anchor="middle" x="460.5" y="-316" font-family="Arial" font-size="10.00" fill="#ffffff">3144885×</text>
</g>
<!-- FreeModule_actOnBasis&#45;&gt;MilnorAlgebra_multiply -->
<g id="edge6" class="edge">
<title>FreeModule_actOnBasis&#45;&gt;MilnorAlgebra_multiply</title>
<path fill="none" stroke="#0c6c8b" stroke-width=".75" d="M460.5,-411.7562C460.5,-400.6935 460.5,-388.1974 460.5,-376.7939"/>
<polygon fill="#0c6c8b" stroke="#0c6c8b" stroke-width=".75" points="462.0051,-376.6163 460.5,-372.3163 458.9951,-376.6164 462.0051,-376.6163"/>
<text text-anchor="middle" x="482" y="-395" font-family="Arial" font-size="10.00" fill="#0c6c8b">18.79%</text>
<text text-anchor="middle" x="482" y="-384" font-family="Arial" font-size="10.00" fill="#0c6c8b">3144885×</text>
</g>
<!-- getBitlength -->
<g id="node24" class="node">
<title>getBitlength</title>
<polygon fill="#0d1f78" stroke="#0d1f78" points="726.5,-269 656.5,-269 656.5,-206 726.5,-206 726.5,-269"/>
<text text-anchor="middle" x="691.5" y="-257" font-family="Arial" font-size="10.00" fill="#ffffff">csteen</text>
<text text-anchor="middle" x="691.5" y="-246" font-family="Arial" font-size="10.00" fill="#ffffff">getBitlength</text>
<text text-anchor="middle" x="691.5" y="-235" font-family="Arial" font-size="10.00" fill="#ffffff">4.35%</text>
<text text-anchor="middle" x="691.5" y="-224" font-family="Arial" font-size="10.00" fill="#ffffff">(4.35%)</text>
<text text-anchor="middle" x="691.5" y="-213" font-family="Arial" font-size="10.00" fill="#ffffff">958216219×</text>
</g>
<!-- Vector_stepIterator&#45;&gt;getBitlength -->
<g id="edge24" class="edge">
<title>Vector_stepIterator&#45;&gt;getBitlength</title>
<path fill="none" stroke="#0d1e78" stroke-width=".5" d="M576.3159,-411.7938C555.5655,-383.5206 533.6306,-341.6726 553.5,-309 559.2446,-299.5538 614.1948,-272.8974 652.9928,-254.9386"/>
<polygon fill="#0d1e78" stroke="#0d1e78" stroke-width=".5" points="653.5617,-256.0252 656.2252,-253.4452 652.5341,-253.8011 653.5617,-256.0252"/>
<text text-anchor="middle" x="580.5" y="-343.5" font-family="Arial" font-size="10.00" fill="#0d1e78">4.09%</text>
<text text-anchor="middle" x="580.5" y="-332.5" font-family="Arial" font-size="10.00" fill="#0d1e78">902582130×</text>
</g>
<!-- getBitMask -->
<g id="node27" class="node">
<title>getBitMask</title>
<polygon fill="#0d1e78" stroke="#0d1e78" points="682.5,-372 612.5,-372 612.5,-309 682.5,-309 682.5,-372"/>
<text text-anchor="middle" x="647.5" y="-360" font-family="Arial" font-size="10.00" fill="#ffffff">csteen</text>
<text text-anchor="middle" x="647.5" y="-349" font-family="Arial" font-size="10.00" fill="#ffffff">getBitMask</text>
<text text-anchor="middle" x="647.5" y="-338" font-family="Arial" font-size="10.00" fill="#ffffff">4.10%</text>
<text text-anchor="middle" x="647.5" y="-327" font-family="Arial" font-size="10.00" fill="#ffffff">(4.10%)</text>
<text text-anchor="middle" x="647.5" y="-316" font-family="Arial" font-size="10.00" fill="#ffffff">903732432×</text>
</g>
<!-- Vector_stepIterator&#45;&gt;getBitMask -->
<g id="edge23" class="edge">
<title>Vector_stepIterator&#45;&gt;getBitMask</title>
<path fill="none" stroke="#0d1e78" stroke-width=".5" d="M617.0605,-411.7562C621.9535,-400.3019 627.5031,-387.3109 632.5113,-375.5871"/>
<polygon fill="#0d1e78" stroke="#0d1e78" stroke-width=".5" points="633.6601,-376.0162 633.9086,-372.3163 631.407,-375.0537 633.6601,-376.0162"/>
<text text-anchor="middle" x="656.5" y="-395" font-family="Arial" font-size="10.00" fill="#0d1e78">4.09%</text>
<text text-anchor="middle" x="656.5" y="-384" font-family="Arial" font-size="10.00" fill="#0d1e78">902582130×</text>
</g>
<!-- MilnorAlgebra_getDimension -->
<g id="node10" class="node">
<title>MilnorAlgebra_getDimension</title>
<polygon fill="#0d1776" stroke="#0d1776" points="358.5,-269 218.5,-269 218.5,-206 358.5,-206 358.5,-269"/>
<text text-anchor="middle" x="288.5" y="-257" font-family="Arial" font-size="10.00" fill="#ffffff">csteen</text>
<text text-anchor="middle" x="288.5" y="-246" font-family="Arial" font-size="10.00" fill="#ffffff">MilnorAlgebra_getDimension</text>
<text text-anchor="middle" x="288.5" y="-235" font-family="Arial" font-size="10.00" fill="#ffffff">2.52%</text>
<text text-anchor="middle" x="288.5" y="-224" font-family="Arial" font-size="10.00" fill="#ffffff">(2.52%)</text>
<text text-anchor="middle" x="288.5" y="-213" font-family="Arial" font-size="10.00" fill="#ffffff">208388722×</text>
</g>
<!-- FreeModule_getDimension&#45;&gt;MilnorAlgebra_getDimension -->
<g id="edge7" class="edge">
<title>FreeModule_getDimension&#45;&gt;MilnorAlgebra_getDimension</title>
<path fill="none" stroke="#0d1776" stroke-width=".5" d="M297.4935,-308.7562C296.0602,-297.3998 294.4362,-284.5328 292.9664,-272.888"/>
<polygon fill="#0d1776" stroke="#0d1776" stroke-width=".5" points="294.1694,-272.6354 292.5157,-269.3163 291.7387,-272.9422 294.1694,-272.6354"/>
<text text-anchor="middle" x="323.5" y="-292" font-family="Arial" font-size="10.00" fill="#0d1776">2.36%</text>
<text text-anchor="middle" x="323.5" y="-281" font-family="Arial" font-size="10.00" fill="#0d1776">195451889×</text>
</g>
<!-- MilnorAlgebra__multiplyEven -->
<g id="node11" class="node">
<title>MilnorAlgebra__multiplyEven</title>
<polygon fill="#0c5285" stroke="#0c5285" points="511,-269 368,-269 368,-206 511,-206 511,-269"/>
<text text-anchor="middle" x="439.5" y="-257" font-family="Arial" font-size="10.00" fill="#ffffff">csteen</text>
<text text-anchor="middle" x="439.5" y="-246" font-family="Arial" font-size="10.00" fill="#ffffff">MilnorAlgebra__multiplyEven</text>
<text text-anchor="middle" x="439.5" y="-235" font-family="Arial" font-size="10.00" fill="#ffffff">14.36%</text>
<text text-anchor="middle" x="439.5" y="-224" font-family="Arial" font-size="10.00" fill="#ffffff">(5.16%)</text>
<text text-anchor="middle" x="439.5" y="-213" font-family="Arial" font-size="10.00" fill="#ffffff">3144885×</text>
</g>
<!-- MilnorAlgebra_multiply&#45;&gt;MilnorAlgebra__multiplyEven -->
<g id="edge13" class="edge">
<title>MilnorAlgebra_multiply&#45;&gt;MilnorAlgebra__multiplyEven</title>
<path fill="none" stroke="#0c5285" stroke-width=".57" d="M445.0414,-308.601C444.0469,-305.7374 443.1754,-302.8448 442.5,-300 440.4945,-291.5527 439.4489,-282.2882 438.9592,-273.5401"/>
<polygon fill="#0c5285" stroke="#0c5285" stroke-width=".57" points="440.2668,-273.027 438.7617,-269.2929 437.6097,-273.1506 440.2668,-273.027"/>
<text text-anchor="middle" x="464" y="-292" font-family="Arial" font-size="10.00" fill="#0c5285">14.36%</text>
<text text-anchor="middle" x="464" y="-281" font-family="Arial" font-size="10.00" fill="#0c5285">3144885×</text>
</g>
<!-- Vector_addArray -->
<g id="node17" class="node">
<title>Vector_addArray</title>
<polygon fill="#0d1e78" stroke="#0d1e78" points="615,-269 526,-269 526,-206 615,-206 615,-269"/>
<text text-anchor="middle" x="570.5" y="-257" font-family="Arial" font-size="10.00" fill="#ffffff">csteen</text>
<text text-anchor="middle" x="570.5" y="-246" font-family="Arial" font-size="10.00" fill="#ffffff">Vector_addArray</text>
<text text-anchor="middle" x="570.5" y="-235" font-family="Arial" font-size="10.00" fill="#ffffff">3.99%</text>
<text text-anchor="middle" x="570.5" y="-224" font-family="Arial" font-size="10.00" fill="#ffffff">(0.03%)</text>
<text text-anchor="middle" x="570.5" y="-213" font-family="Arial" font-size="10.00" fill="#ffffff">3144885×</text>
</g>
<!-- MilnorAlgebra_multiply&#45;&gt;Vector_addArray -->
<g id="edge14" class="edge">
<title>MilnorAlgebra_multiply&#45;&gt;Vector_addArray</title>
<path fill="none" stroke="#0d1e78" stroke-width=".5" d="M478.3212,-308.7923C485.9188,-295.9812 494.2291,-283.0364 499.5,-278 505.3989,-272.3635 508.4044,-273.0275 515.5,-269 517.8027,-267.693 520.1585,-266.3534 522.5369,-264.9988"/>
<polygon fill="#0d1e78" stroke="#0d1e78" stroke-width=".5" points="523.3571,-265.9414 525.7915,-263.1441 522.1441,-263.8128 523.3571,-265.9414"/>
<text text-anchor="middle" x="521" y="-292" font-family="Arial" font-size="10.00" fill="#0d1e78">3.99%</text>
<text text-anchor="middle" x="521" y="-281" font-family="Arial" font-size="10.00" fill="#0d1e78">3144885×</text>
</g>
<!-- MilnorAlgebra_basisElement_toIndex -->
<g id="node12" class="node">
<title>MilnorAlgebra_basisElement_toIndex</title>
<polygon fill="#0d1976" stroke="#0d1976" points="336.5,-166 158.5,-166 158.5,-103 336.5,-103 336.5,-166"/>
<text text-anchor="middle" x="247.5" y="-154" font-family="Arial" font-size="10.00" fill="#ffffff">csteen</text>
<text text-anchor="middle" x="247.5" y="-143" font-family="Arial" font-size="10.00" fill="#ffffff">MilnorAlgebra_basisElement_toIndex</text>
<text text-anchor="middle" x="247.5" y="-132" font-family="Arial" font-size="10.00" fill="#ffffff">2.82%</text>
<text text-anchor="middle" x="247.5" y="-121" font-family="Arial" font-size="10.00" fill="#ffffff">(0.35%)</text>
<text text-anchor="middle" x="247.5" y="-110" font-family="Arial" font-size="10.00" fill="#ffffff">5860021×</text>
</g>
<!-- MilnorAlgebra__multiplyEven&#45;&gt;MilnorAlgebra_basisElement_toIndex -->
<g id="edge8" class="edge">
<title>MilnorAlgebra__multiplyEven&#45;&gt;MilnorAlgebra_basisElement_toIndex</title>
<path fill="none" stroke="#0d1976" stroke-width=".5" d="M367.8865,-207.6372C360.5893,-204.2013 353.348,-200.6256 346.5,-197 330.1643,-188.3512 312.942,-177.9604 297.5243,-168.1566"/>
<polygon fill="#0d1976" stroke="#0d1976" stroke-width=".5" points="298.075,-167.0548 294.4656,-166.2043 296.7568,-169.12 298.075,-167.0548"/>
<text text-anchor="middle" x="368" y="-189" font-family="Arial" font-size="10.00" fill="#0d1976">2.82%</text>
<text text-anchor="middle" x="368" y="-178" font-family="Arial" font-size="10.00" fill="#0d1976">5860021×</text>
</g>
<!-- Multinomial -->
<g id="node13" class="node">
<title>Multinomial</title>
<polygon fill="#0d1676" stroke="#0d1676" points="411.5,-166 345.5,-166 345.5,-103 411.5,-103 411.5,-166"/>
<text text-anchor="middle" x="378.5" y="-154" font-family="Arial" font-size="10.00" fill="#ffffff">csteen</text>
<text text-anchor="middle" x="378.5" y="-143" font-family="Arial" font-size="10.00" fill="#ffffff">Multinomial</text>
<text text-anchor="middle" x="378.5" y="-132" font-family="Arial" font-size="10.00" fill="#ffffff">2.17%</text>
<text text-anchor="middle" x="378.5" y="-121" font-family="Arial" font-size="10.00" fill="#ffffff">(0.49%)</text>
<text text-anchor="middle" x="378.5" y="-110" font-family="Arial" font-size="10.00" fill="#ffffff">60861502×</text>
</g>
<!-- MilnorAlgebra__multiplyEven&#45;&gt;Multinomial -->
<g id="edge9" class="edge">
<title>MilnorAlgebra__multiplyEven&#45;&gt;Multinomial</title>
<path fill="none" stroke="#0d1676" stroke-width=".5" d="M407.5829,-205.7211C405.3854,-202.8772 403.3234,-199.9535 401.5,-197 396.3069,-188.5883 392.0171,-178.8238 388.6065,-169.5483"/>
<polygon fill="#0d1676" stroke="#0d1676" stroke-width=".5" points="389.7246,-169.0373 387.3896,-166.1566 387.4186,-169.8647 389.7246,-169.0373"/>
<text text-anchor="middle" x="426" y="-189" font-family="Arial" font-size="10.00" fill="#0d1676">2.17%</text>
<text text-anchor="middle" x="426" y="-178" font-family="Arial" font-size="10.00" fill="#0d1676">60861502×</text>
</g>
<!-- milnor_matrix_step -->
<g id="node14" class="node">
<title>milnor_matrix_step</title>
<polygon fill="#0d1a77" stroke="#0d1a77" points="520,-166 421,-166 421,-103 520,-103 520,-166"/>
<text text-anchor="middle" x="470.5" y="-154" font-family="Arial" font-size="10.00" fill="#ffffff">csteen</text>
<text text-anchor="middle" x="470.5" y="-143" font-family="Arial" font-size="10.00" fill="#ffffff">milnor_matrix_step</text>
<text text-anchor="middle" x="470.5" y="-132" font-family="Arial" font-size="10.00" fill="#ffffff">3.09%</text>
<text text-anchor="middle" x="470.5" y="-121" font-family="Arial" font-size="10.00" fill="#ffffff">(1.86%)</text>
<text text-anchor="middle" x="470.5" y="-110" font-family="Arial" font-size="10.00" fill="#ffffff">32653875×</text>
</g>
<!-- MilnorAlgebra__multiplyEven&#45;&gt;milnor_matrix_step -->
<g id="edge10" class="edge">
<title>MilnorAlgebra__multiplyEven&#45;&gt;milnor_matrix_step</title>
<path fill="none" stroke="#0d1a77" stroke-width=".5" d="M449.054,-205.7562C452.4719,-194.3998 456.3445,-181.5328 459.8492,-169.888"/>
<polygon fill="#0d1a77" stroke="#0d1a77" stroke-width=".5" points="461.0885,-170.0209 460.9242,-166.3163 458.7424,-169.3148 461.0885,-170.0209"/>
<text text-anchor="middle" x="483" y="-189" font-family="Arial" font-size="10.00" fill="#0d1a77">3.09%</text>
<text text-anchor="middle" x="483" y="-178" font-family="Arial" font-size="10.00" fill="#0d1a77">32653875×</text>
</g>
<!-- MilnorAlgebra_basisElement_toKey -->
<g id="node15" class="node">
<title>MilnorAlgebra_basisElement_toKey</title>
<polygon fill="#0d1174" stroke="#0d1174" points="171,-63 0,-63 0,0 171,0 171,-63"/>
<text text-anchor="middle" x="85.5" y="-51" font-family="Arial" font-size="10.00" fill="#ffffff">csteen</text>
<text text-anchor="middle" x="85.5" y="-40" font-family="Arial" font-size="10.00" fill="#ffffff">MilnorAlgebra_basisElement_toKey</text>
<text text-anchor="middle" x="85.5" y="-29" font-family="Arial" font-size="10.00" fill="#ffffff">1.07%</text>
<text text-anchor="middle" x="85.5" y="-18" font-family="Arial" font-size="10.00" fill="#ffffff">(1.03%)</text>
<text text-anchor="middle" x="85.5" y="-7" font-family="Arial" font-size="10.00" fill="#ffffff">5866930×</text>
</g>
<!-- MilnorAlgebra_basisElement_toIndex&#45;&gt;MilnorAlgebra_basisElement_toKey -->
<g id="edge11" class="edge">
<title>MilnorAlgebra_basisElement_toIndex&#45;&gt;MilnorAlgebra_basisElement_toKey</title>
<path fill="none" stroke="#0d1174" stroke-width=".5" d="M197.5728,-102.7562C178.8536,-90.8545 157.5247,-77.2935 138.5339,-65.2191"/>
<polygon fill="#0d1174" stroke="#0d1174" stroke-width=".5" points="138.8732,-63.9832 135.2624,-63.139 137.5587,-66.0507 138.8732,-63.9832"/>
<text text-anchor="middle" x="203" y="-86" font-family="Arial" font-size="10.00" fill="#0d1174">1.07%</text>
<text text-anchor="middle" x="203" y="-75" font-family="Arial" font-size="10.00" fill="#0d1174">5860021×</text>
</g>
<!-- kh_get_monomial_index_map -->
<g id="node16" class="node">
<title>kh_get_monomial_index_map</title>
<polygon fill="#0d1375" stroke="#0d1375" points="326.5,-63 180.5,-63 180.5,0 326.5,0 326.5,-63"/>
<text text-anchor="middle" x="253.5" y="-51" font-family="Arial" font-size="10.00" fill="#ffffff">csteen</text>
<text text-anchor="middle" x="253.5" y="-40" font-family="Arial" font-size="10.00" fill="#ffffff">kh_get_monomial_index_map</text>
<text text-anchor="middle" x="253.5" y="-29" font-family="Arial" font-size="10.00" fill="#ffffff">1.41%</text>
<text text-anchor="middle" x="253.5" y="-18" font-family="Arial" font-size="10.00" fill="#ffffff">(0.41%)</text>
<text text-anchor="middle" x="253.5" y="-7" font-family="Arial" font-size="10.00" fill="#ffffff">5860021×</text>
</g>
<!-- MilnorAlgebra_basisElement_toIndex&#45;&gt;kh_get_monomial_index_map -->
<g id="edge12" class="edge">
<title>MilnorAlgebra_basisElement_toIndex&#45;&gt;kh_get_monomial_index_map</title>
<path fill="none" stroke="#0d1375" stroke-width=".5" d="M249.3492,-102.7562C250.0107,-91.3998 250.7602,-78.5328 251.4386,-66.888"/>
<polygon fill="#0d1375" stroke="#0d1375" stroke-width=".5" points="252.6659,-66.8817 251.6466,-63.3163 250.2201,-66.7391 252.6659,-66.8817"/>
<text text-anchor="middle" x="273" y="-86" font-family="Arial" font-size="10.00" fill="#0d1375">1.41%</text>
<text text-anchor="middle" x="273" y="-75" font-family="Arial" font-size="10.00" fill="#0d1375">5860021×</text>
</g>
<!-- Multinomial2 -->
<g id="node18" class="node">
<title>Multinomial2</title>
<polygon fill="#0d1475" stroke="#0d1475" points="410,-63 339,-63 339,0 410,0 410,-63"/>
<text text-anchor="middle" x="374.5" y="-51" font-family="Arial" font-size="10.00" fill="#ffffff">csteen</text>
<text text-anchor="middle" x="374.5" y="-40" font-family="Arial" font-size="10.00" fill="#ffffff">Multinomial2</text>
<text text-anchor="middle" x="374.5" y="-29" font-family="Arial" font-size="10.00" fill="#ffffff">1.68%</text>
<text text-anchor="middle" x="374.5" y="-18" font-family="Arial" font-size="10.00" fill="#ffffff">(1.68%)</text>
<text text-anchor="middle" x="374.5" y="-7" font-family="Arial" font-size="10.00" fill="#ffffff">60861502×</text>
</g>
<!-- Multinomial&#45;&gt;Multinomial2 -->
<g id="edge15" class="edge">
<title>Multinomial&#45;&gt;Multinomial2</title>
<path fill="none" stroke="#0d1475" stroke-width=".5" d="M377.2672,-102.7562C376.8262,-91.3998 376.3265,-78.5328 375.8743,-66.888"/>
<polygon fill="#0d1475" stroke="#0d1475" stroke-width=".5" points="377.0956,-66.7661 375.7356,-63.3163 374.6474,-66.8613 377.0956,-66.7661"/>
<text text-anchor="middle" x="402" y="-86" font-family="Arial" font-size="10.00" fill="#0d1475">1.68%</text>
<text text-anchor="middle" x="402" y="-75" font-family="Arial" font-size="10.00" fill="#0d1475">60861502×</text>
</g>
<!-- milnor_matrix_step_update_matrix -->
<g id="node28" class="node">
<title>milnor_matrix_step_update_matrix</title>
<polygon fill="#0d1274" stroke="#0d1274" points="585.5,-63 419.5,-63 419.5,0 585.5,0 585.5,-63"/>
<text text-anchor="middle" x="502.5" y="-51" font-family="Arial" font-size="10.00" fill="#ffffff">csteen</text>
<text text-anchor="middle" x="502.5" y="-40" font-family="Arial" font-size="10.00" fill="#ffffff">milnor_matrix_step_update_matrix</text>
<text text-anchor="middle" x="502.5" y="-29" font-family="Arial" font-size="10.00" fill="#ffffff">1.23%</text>
<text text-anchor="middle" x="502.5" y="-18" font-family="Arial" font-size="10.00" fill="#ffffff">(1.23%)</text>
<text text-anchor="middle" x="502.5" y="-7" font-family="Arial" font-size="10.00" fill="#ffffff">29508990×</text>
</g>
<!-- milnor_matrix_step&#45;&gt;milnor_matrix_step_update_matrix -->
<g id="edge27" class="edge">
<title>milnor_matrix_step&#45;&gt;milnor_matrix_step_update_matrix</title>
<path fill="none" stroke="#0d1274" stroke-width=".5" d="M480.3622,-102.7562C483.8903,-91.3998 487.8879,-78.5328 491.5057,-66.888"/>
<polygon fill="#0d1274" stroke="#0d1274" stroke-width=".5" points="492.7467,-67.0222 492.6153,-63.3163 490.407,-66.2953 492.7467,-67.0222"/>
<text text-anchor="middle" x="514" y="-86" font-family="Arial" font-size="10.00" fill="#0d1274">1.23%</text>
<text text-anchor="middle" x="514" y="-75" font-family="Arial" font-size="10.00" fill="#0d1274">29508990×</text>
</g>
<!-- Vector2_addArray -->
<g id="node25" class="node">
<title>Vector2_addArray</title>
<polygon fill="#0d1e78" stroke="#0d1e78" points="623.5,-166 529.5,-166 529.5,-103 623.5,-103 623.5,-166"/>
<text text-anchor="middle" x="576.5" y="-154" font-family="Arial" font-size="10.00" fill="#ffffff">csteen</text>
<text text-anchor="middle" x="576.5" y="-143" font-family="Arial" font-size="10.00" fill="#ffffff">Vector2_addArray</text>
<text text-anchor="middle" x="576.5" y="-132" font-family="Arial" font-size="10.00" fill="#ffffff">3.96%</text>
<text text-anchor="middle" x="576.5" y="-121" font-family="Arial" font-size="10.00" fill="#ffffff">(3.96%)</text>
<text text-anchor="middle" x="576.5" y="-110" font-family="Arial" font-size="10.00" fill="#ffffff">3144885×</text>
</g>
<!-- Vector_addArray&#45;&gt;Vector2_addArray -->
<g id="edge22" class="edge">
<title>Vector_addArray&#45;&gt;Vector2_addArray</title>
<path fill="none" stroke="#0d1e78" stroke-width=".5" d="M572.3492,-205.7562C573.0107,-194.3998 573.7602,-181.5328 574.4386,-169.888"/>
<polygon fill="#0d1e78" stroke="#0d1e78" stroke-width=".5" points="575.6659,-169.8817 574.6466,-166.3163 573.2201,-169.7391 575.6659,-169.8817"/>
<text text-anchor="middle" x="596" y="-189" font-family="Arial" font-size="10.00" fill="#0d1e78">3.96%</text>
<text text-anchor="middle" x="596" y="-178" font-family="Arial" font-size="10.00" fill="#0d1e78">3144885×</text>
</g>
<!-- Resolution_generateOldKernelAndComputeNewKernel -->
<g id="node19" class="node">
<title>Resolution_generateOldKernelAndComputeNewKernel</title>
<polygon fill="#ff0000" stroke="#ff0000" points="695,-681 444,-681 444,-618 695,-618 695,-681"/>
<text text-anchor="middle" x="569.5" y="-669" font-family="Arial" font-size="10.00" fill="#ffffff">csteen</text>
<text text-anchor="middle" x="569.5" y="-658" font-family="Arial" font-size="10.00" fill="#ffffff">Resolution_generateOldKernelAndComputeNewKernel</text>
<text text-anchor="middle" x="569.5" y="-647" font-family="Arial" font-size="10.00" fill="#ffffff">99.99%</text>
<text text-anchor="middle" x="569.5" y="-636" font-family="Arial" font-size="10.00" fill="#ffffff">(0.02%)</text>
<text text-anchor="middle" x="569.5" y="-625" font-family="Arial" font-size="10.00" fill="#ffffff">2485×</text>
</g>
<!-- Resolution_generateOldKernelAndComputeNewKernel&#45;&gt;FreeModuleHomomorphism_getMatrix -->
<g id="edge16" class="edge">
<title>Resolution_generateOldKernelAndComputeNewKernel&#45;&gt;FreeModuleHomomorphism_getMatrix</title>
<path fill="none" stroke="#0c9493" stroke-width="1.01" d="M549.1593,-617.7562C542.0706,-606.6935 534.0634,-594.1974 526.7563,-582.7939"/>
<polygon fill="#0c9493" stroke="#0c9493" stroke-width="1.01" points="528.0583,-581.582 523.8872,-578.3163 525.1113,-583.4704 528.0583,-581.582"/>
<text text-anchor="middle" x="559.5" y="-601" font-family="Arial" font-size="10.00" fill="#0c9493">25.16%</text>
<text text-anchor="middle" x="559.5" y="-590" font-family="Arial" font-size="10.00" fill="#0c9493">2485×</text>
</g>
<!-- rowReduce -->
<g id="node20" class="node">
<title>rowReduce</title>
<polygon fill="#d5d906" stroke="#d5d906" points="669,-578 604,-578 604,-515 669,-515 669,-578"/>
<text text-anchor="middle" x="636.5" y="-566" font-family="Arial" font-size="10.00" fill="#ffffff">csteen</text>
<text text-anchor="middle" x="636.5" y="-555" font-family="Arial" font-size="10.00" fill="#ffffff">rowReduce</text>
<text text-anchor="middle" x="636.5" y="-544" font-family="Arial" font-size="10.00" fill="#ffffff">74.59%</text>
<text text-anchor="middle" x="636.5" y="-533" font-family="Arial" font-size="10.00" fill="#ffffff">(17.97%)</text>
<text text-anchor="middle" x="636.5" y="-522" font-family="Arial" font-size="10.00" fill="#ffffff">4970×</text>
</g>
<!-- Resolution_generateOldKernelAndComputeNewKernel&#45;&gt;rowReduce -->
<g id="edge17" class="edge">
<title>Resolution_generateOldKernelAndComputeNewKernel&#45;&gt;rowReduce</title>
<path fill="none" stroke="#d5d906" stroke-width="2.98" d="M590.1489,-617.7562C596.7719,-607.5746 604.1847,-596.1788 611.1063,-585.5381"/>
<polygon fill="#d5d906" stroke="#d5d906" stroke-width="2.98" points="613.6377,-587.1667 615.8039,-578.3163 608.5914,-583.8841 613.6377,-587.1667"/>
<text text-anchor="middle" x="626.5" y="-601" font-family="Arial" font-size="10.00" fill="#d5d906">74.59%</text>
<text text-anchor="middle" x="626.5" y="-590" font-family="Arial" font-size="10.00" fill="#d5d906">4970×</text>
</g>
<!-- rowReduce&#45;&gt;Vector_stepIterator -->
<g id="edge29" class="edge">
<title>rowReduce&#45;&gt;Vector_stepIterator</title>
<path fill="none" stroke="#0ba45a" stroke-width="1.48" d="M626.3296,-514.7562C622.9421,-504.183 619.1351,-492.3004 615.6151,-481.3138"/>
<polygon fill="#0ba45a" stroke="#0ba45a" stroke-width="1.48" points="617.588,-480.474 613.6936,-475.3163 613.5216,-481.7769 617.588,-480.474"/>
<text text-anchor="middle" x="650.5" y="-498" font-family="Arial" font-size="10.00" fill="#0ba45a">37.12%</text>
<text text-anchor="middle" x="650.5" y="-487" font-family="Arial" font-size="10.00" fill="#0ba45a">887243388×</text>
</g>
<!-- Vector_add -->
<g id="node26" class="node">
<title>Vector_add</title>
<polygon fill="#0c708c" stroke="#0c708c" points="751,-475 686,-475 686,-412 751,-412 751,-475"/>
<text text-anchor="middle" x="718.5" y="-463" font-family="Arial" font-size="10.00" fill="#ffffff">csteen</text>
<text text-anchor="middle" x="718.5" y="-452" font-family="Arial" font-size="10.00" fill="#ffffff">Vector_add</text>
<text text-anchor="middle" x="718.5" y="-441" font-family="Arial" font-size="10.00" fill="#ffffff">19.47%</text>
<text text-anchor="middle" x="718.5" y="-430" font-family="Arial" font-size="10.00" fill="#ffffff">(0.37%)</text>
<text text-anchor="middle" x="718.5" y="-419" font-family="Arial" font-size="10.00" fill="#ffffff">43175042×</text>
</g>
<!-- rowReduce&#45;&gt;Vector_add -->
<g id="edge28" class="edge">
<title>rowReduce&#45;&gt;Vector_add</title>
<path fill="none" stroke="#0c708c" stroke-width=".78" d="M669.3518,-517.2773C672.9176,-513.6103 676.3796,-509.8071 679.5,-506 686.3105,-497.6909 692.8506,-488.1056 698.5644,-478.9761"/>
<polygon fill="#0c708c" stroke="#0c708c" stroke-width=".78" points="699.9588,-479.6491 700.961,-475.0964 697.3384,-478.0304 699.9588,-479.6491"/>
<text text-anchor="middle" x="720" y="-498" font-family="Arial" font-size="10.00" fill="#0c708c">19.47%</text>
<text text-anchor="middle" x="720" y="-487" font-family="Arial" font-size="10.00" fill="#0c708c">43175042×</text>
</g>
<!-- Resolution_step -->
<g id="node22" class="node">
<title>Resolution_step</title>
<polygon fill="#ff0000" stroke="#ff0000" points="612.5,-784 526.5,-784 526.5,-721 612.5,-721 612.5,-784"/>
<text text-anchor="middle" x="569.5" y="-772" font-family="Arial" font-size="10.00" fill="#ffffff">csteen</text>
<text text-anchor="middle" x="569.5" y="-761" font-family="Arial" font-size="10.00" fill="#ffffff">Resolution_step</text>
<text text-anchor="middle" x="569.5" y="-750" font-family="Arial" font-size="10.00" fill="#ffffff">99.99%</text>
<text text-anchor="middle" x="569.5" y="-739" font-family="Arial" font-size="10.00" fill="#ffffff">(0.00%)</text>
<text text-anchor="middle" x="569.5" y="-728" font-family="Arial" font-size="10.00" fill="#ffffff">2485×</text>
</g>
<!-- Resolution_resolveThroughDegree&#45;&gt;Resolution_step -->
<g id="edge18" class="edge">
<title>Resolution_resolveThroughDegree&#45;&gt;Resolution_step</title>
<path fill="none" stroke="#ff0000" stroke-width="4" d="M569.5,-823.7562C569.5,-814.5536 569.5,-804.3591 569.5,-794.6267"/>
<polygon fill="#ff0000" stroke="#ff0000" stroke-width="4" points="573.0001,-794.3163 569.5,-784.3163 566.0001,-794.3164 573.0001,-794.3163"/>
<text text-anchor="middle" x="586.5" y="-807" font-family="Arial" font-size="10.00" fill="#ff0000">99.99%</text>
<text text-anchor="middle" x="586.5" y="-796" font-family="Arial" font-size="10.00" fill="#ff0000">2485×</text>
</g>
<!-- Resolution_step&#45;&gt;Resolution_generateOldKernelAndComputeNewKernel -->
<g id="edge19" class="edge">
<title>Resolution_step&#45;&gt;Resolution_generateOldKernelAndComputeNewKernel</title>
<path fill="none" stroke="#ff0000" stroke-width="4" d="M569.5,-720.7562C569.5,-711.5536 569.5,-701.3591 569.5,-691.6267"/>
<polygon fill="#ff0000" stroke="#ff0000" stroke-width="4" points="573.0001,-691.3163 569.5,-681.3163 566.0001,-691.3164 573.0001,-691.3163"/>
<text text-anchor="middle" x="586.5" y="-704" font-family="Arial" font-size="10.00" fill="#ff0000">99.99%</text>
<text text-anchor="middle" x="586.5" y="-693" font-family="Arial" font-size="10.00" fill="#ff0000">2485×</text>
</g>
<!-- Vector2_add -->
<g id="node23" class="node">
<title>Vector2_add</title>
<polygon fill="#0c6e8c" stroke="#0c6e8c" points="763,-372 692,-372 692,-309 763,-309 763,-372"/>
<text text-anchor="middle" x="727.5" y="-360" font-family="Arial" font-size="10.00" fill="#ffffff">csteen</text>
<text text-anchor="middle" x="727.5" y="-349" font-family="Arial" font-size="10.00" fill="#ffffff">Vector2_add</text>
<text text-anchor="middle" x="727.5" y="-338" font-family="Arial" font-size="10.00" fill="#ffffff">19.10%</text>
<text text-anchor="middle" x="727.5" y="-327" font-family="Arial" font-size="10.00" fill="#ffffff">(18.91%)</text>
<text text-anchor="middle" x="727.5" y="-316" font-family="Arial" font-size="10.00" fill="#ffffff">43175042×</text>
</g>
<!-- Vector2_add&#45;&gt;getBitlength -->
<g id="edge20" class="edge">
<title>Vector2_add&#45;&gt;getBitlength</title>
<path fill="none" stroke="#0d0e73" stroke-width=".5" d="M716.4051,-308.7562C712.4359,-297.3998 707.9387,-284.5328 703.8686,-272.888"/>
<polygon fill="#0d0e73" stroke="#0d0e73" stroke-width=".5" points="704.9315,-272.2161 702.6203,-269.3163 702.6187,-273.0245 704.9315,-272.2161"/>
<text text-anchor="middle" x="737" y="-292" font-family="Arial" font-size="10.00" fill="#0d0e73">0.20%</text>
<text text-anchor="middle" x="737" y="-281" font-family="Arial" font-size="10.00" fill="#0d0e73">43175042×</text>
</g>
<!-- Vector_add&#45;&gt;Vector2_add -->
<g id="edge21" class="edge">
<title>Vector_add&#45;&gt;Vector2_add</title>
<path fill="none" stroke="#0c6e8c" stroke-width=".76" d="M721.2737,-411.7562C722.2404,-400.6935 723.3323,-388.1974 724.3287,-376.7939"/>
<polygon fill="#0c6e8c" stroke="#0c6e8c" stroke-width=".76" points="725.871,-376.8337 724.7199,-372.3163 722.8027,-376.5655 725.871,-376.8337"/>
<text text-anchor="middle" x="748" y="-395" font-family="Arial" font-size="10.00" fill="#0c6e8c">19.10%</text>
<text text-anchor="middle" x="748" y="-384" font-family="Arial" font-size="10.00" fill="#0c6e8c">43175042×</text>
</g>
</g>
</svg>
