<?xml version="1.0" encoding="UTF-8" standalone="no"?>
<!DOCTYPE svg PUBLIC "-//W3C//DTD SVG 1.1//EN"
 "http://www.w3.org/Graphics/SVG/1.1/DTD/svg11.dtd">
<!-- Generated by graphviz version 2.40.1 (20161225.0304)
 -->
<!-- Title: %3 Pages: 1 -->
<svg width="611pt" height="1616pt"
 viewBox="0.00 0.00 611.00 1616.00" xmlns="http://www.w3.org/2000/svg" xmlns:xlink="http://www.w3.org/1999/xlink">
<g id="graph0" class="graph" transform="scale(1 1) rotate(0) translate(4 1612)">
<title>%3</title>
<polygon fill="#ffffff" stroke="transparent" points="-4,4 -4,-1612 607,-1612 607,4 -4,4"/>
<!-- (below main) -->
<g id="node1" class="node">
<title>(below main)</title>
<polygon fill="#ff0000" stroke="#ff0000" points="412.5,-1402 341.5,-1402 341.5,-1339 412.5,-1339 412.5,-1402"/>
<text text-anchor="middle" x="377" y="-1390" font-family="Arial" font-size="10.00" fill="#ffffff">libc&#45;2.27.so</text>
<text text-anchor="middle" x="377" y="-1379" font-family="Arial" font-size="10.00" fill="#ffffff">(below main)</text>
<text text-anchor="middle" x="377" y="-1368" font-family="Arial" font-size="10.00" fill="#ffffff">100.00%</text>
<text text-anchor="middle" x="377" y="-1357" font-family="Arial" font-size="10.00" fill="#ffffff">(0.00%)</text>
<text text-anchor="middle" x="377" y="-1346" font-family="Arial" font-size="10.00" fill="#ffffff">1×</text>
</g>
<!-- main -->
<g id="node2" class="node">
<title>main</title>
<polygon fill="#ff0000" stroke="#ff0000" points="404.5,-1299 349.5,-1299 349.5,-1236 404.5,-1236 404.5,-1299"/>
<text text-anchor="middle" x="377" y="-1287" font-family="Arial" font-size="10.00" fill="#ffffff">csteen</text>
<text text-anchor="middle" x="377" y="-1276" font-family="Arial" font-size="10.00" fill="#ffffff">main</text>
<text text-anchor="middle" x="377" y="-1265" font-family="Arial" font-size="10.00" fill="#ffffff">100.00%</text>
<text text-anchor="middle" x="377" y="-1254" font-family="Arial" font-size="10.00" fill="#ffffff">(0.00%)</text>
<text text-anchor="middle" x="377" y="-1243" font-family="Arial" font-size="10.00" fill="#ffffff">1×</text>
</g>
<!-- (below main)&#45;&gt;main -->
<g id="edge1" class="edge">
<title>(below main)&#45;&gt;main</title>
<path fill="none" stroke="#ff0000" stroke-width="4" d="M377,-1338.7562C377,-1329.5536 377,-1319.3591 377,-1309.6267"/>
<polygon fill="#ff0000" stroke="#ff0000" stroke-width="4" points="380.5001,-1309.3163 377,-1299.3163 373.5001,-1309.3164 380.5001,-1309.3163"/>
<text text-anchor="middle" x="396.5" y="-1322" font-family="Arial" font-size="10.00" fill="#ff0000">100.00%</text>
<text text-anchor="middle" x="396.5" y="-1311" font-family="Arial" font-size="10.00" fill="#ff0000">1×</text>
</g>
<!-- AdemAlgebra_generateBasis -->
<g id="node14" class="node">
<title>AdemAlgebra_generateBasis</title>
<polygon fill="#0d1174" stroke="#0d1174" points="367.5,-1196 224.5,-1196 224.5,-1133 367.5,-1133 367.5,-1196"/>
<text text-anchor="middle" x="296" y="-1184" font-family="Arial" font-size="10.00" fill="#ffffff">csteen</text>
<text text-anchor="middle" x="296" y="-1173" font-family="Arial" font-size="10.00" fill="#ffffff">AdemAlgebra_generateBasis</text>
<text text-anchor="middle" x="296" y="-1162" font-family="Arial" font-size="10.00" fill="#ffffff">1.08%</text>
<text text-anchor="middle" x="296" y="-1151" font-family="Arial" font-size="10.00" fill="#ffffff">(0.00%)</text>
<text text-anchor="middle" x="296" y="-1140" font-family="Arial" font-size="10.00" fill="#ffffff">1×</text>
</g>
<!-- main&#45;&gt;AdemAlgebra_generateBasis -->
<g id="edge33" class="edge">
<title>main&#45;&gt;AdemAlgebra_generateBasis</title>
<path fill="none" stroke="#0d1174" stroke-width=".5" d="M352.0364,-1235.7562C342.9517,-1224.204 332.6377,-1211.0887 323.3566,-1199.2868"/>
<polygon fill="#0d1174" stroke="#0d1174" stroke-width=".5" points="324.1471,-1198.3103 321.0206,-1196.3163 322.2213,-1199.8248 324.1471,-1198.3103"/>
<text text-anchor="middle" x="358" y="-1219" font-family="Arial" font-size="10.00" fill="#0d1174">1.08%</text>
<text text-anchor="middle" x="358" y="-1208" font-family="Arial" font-size="10.00" fill="#0d1174">1×</text>
</g>
<!-- Resolution_resolveThroughDegree -->
<g id="node22" class="node">
<title>Resolution_resolveThroughDegree</title>
<polygon fill="#fd0c00" stroke="#fd0c00" points="543.5,-1196 378.5,-1196 378.5,-1133 543.5,-1133 543.5,-1196"/>
<text text-anchor="middle" x="461" y="-1184" font-family="Arial" font-size="10.00" fill="#ffffff">csteen</text>
<text text-anchor="middle" x="461" y="-1173" font-family="Arial" font-size="10.00" fill="#ffffff">Resolution_resolveThroughDegree</text>
<text text-anchor="middle" x="461" y="-1162" font-family="Arial" font-size="10.00" fill="#ffffff">98.89%</text>
<text text-anchor="middle" x="461" y="-1151" font-family="Arial" font-size="10.00" fill="#ffffff">(0.00%)</text>
<text text-anchor="middle" x="461" y="-1140" font-family="Arial" font-size="10.00" fill="#ffffff">1×</text>
</g>
<!-- main&#45;&gt;Resolution_resolveThroughDegree -->
<g id="edge34" class="edge">
<title>main&#45;&gt;Resolution_resolveThroughDegree</title>
<path fill="none" stroke="#fd0c00" stroke-width="3.96" d="M402.8882,-1235.7562C411.0319,-1225.7704 420.1282,-1214.6167 428.6618,-1204.1528"/>
<polygon fill="#fd0c00" stroke="#fd0c00" stroke-width="3.96" points="431.481,-1206.1784 435.0527,-1196.3163 426.1105,-1201.7986 431.481,-1206.1784"/>
<text text-anchor="middle" x="444" y="-1219" font-family="Arial" font-size="10.00" fill="#fd0c00">98.89%</text>
<text text-anchor="middle" x="444" y="-1208" font-family="Arial" font-size="10.00" fill="#fd0c00">1×</text>
</g>
<!-- 0x0000000000000f60 -->
<g id="node3" class="node">
<title>0x0000000000000f60</title>
<polygon fill="#ff0000" stroke="#ff0000" points="431.5,-1608 322.5,-1608 322.5,-1545 431.5,-1545 431.5,-1608"/>
<text text-anchor="middle" x="377" y="-1596" font-family="Arial" font-size="10.00" fill="#ffffff">ld&#45;2.27.so</text>
<text text-anchor="middle" x="377" y="-1585" font-family="Arial" font-size="10.00" fill="#ffffff">0x0000000000000f60</text>
<text text-anchor="middle" x="377" y="-1574" font-family="Arial" font-size="10.00" fill="#ffffff">100.00%</text>
<text text-anchor="middle" x="377" y="-1563" font-family="Arial" font-size="10.00" fill="#ffffff">(0.00%)</text>
<text text-anchor="middle" x="377" y="-1552" font-family="Arial" font-size="10.00" fill="#ffffff">0×</text>
</g>
<!-- _start -->
<g id="node4" class="node">
<title>_start</title>
<polygon fill="#ff0000" stroke="#ff0000" points="404.5,-1505 349.5,-1505 349.5,-1442 404.5,-1442 404.5,-1505"/>
<text text-anchor="middle" x="377" y="-1493" font-family="Arial" font-size="10.00" fill="#ffffff">csteen</text>
<text text-anchor="middle" x="377" y="-1482" font-family="Arial" font-size="10.00" fill="#ffffff">_start</text>
<text text-anchor="middle" x="377" y="-1471" font-family="Arial" font-size="10.00" fill="#ffffff">100.00%</text>
<text text-anchor="middle" x="377" y="-1460" font-family="Arial" font-size="10.00" fill="#ffffff">(0.00%)</text>
<text text-anchor="middle" x="377" y="-1449" font-family="Arial" font-size="10.00" fill="#ffffff">1×</text>
</g>
<!-- 0x0000000000000f60&#45;&gt;_start -->
<g id="edge2" class="edge">
<title>0x0000000000000f60&#45;&gt;_start</title>
<path fill="none" stroke="#ff0000" stroke-width="4" d="M377,-1544.7562C377,-1535.5536 377,-1525.3591 377,-1515.6267"/>
<polygon fill="#ff0000" stroke="#ff0000" stroke-width="4" points="380.5001,-1515.3163 377,-1505.3163 373.5001,-1515.3164 380.5001,-1515.3163"/>
<text text-anchor="middle" x="396.5" y="-1528" font-family="Arial" font-size="10.00" fill="#ff0000">100.00%</text>
<text text-anchor="middle" x="396.5" y="-1517" font-family="Arial" font-size="10.00" fill="#ff0000">1×</text>
</g>
<!-- _start&#45;&gt;(below main) -->
<g id="edge30" class="edge">
<title>_start&#45;&gt;(below main)</title>
<path fill="none" stroke="#ff0000" stroke-width="4" d="M377,-1441.7562C377,-1432.5536 377,-1422.3591 377,-1412.6267"/>
<polygon fill="#ff0000" stroke="#ff0000" stroke-width="4" points="380.5001,-1412.3163 377,-1402.3163 373.5001,-1412.3164 380.5001,-1412.3163"/>
<text text-anchor="middle" x="396.5" y="-1425" font-family="Arial" font-size="10.00" fill="#ff0000">100.00%</text>
<text text-anchor="middle" x="396.5" y="-1414" font-family="Arial" font-size="10.00" fill="#ff0000">1×</text>
</g>
<!-- AdemAlgebra__generateMultiplicationTable -->
<g id="node5" class="node">
<title>AdemAlgebra__generateMultiplicationTable</title>
<polygon fill="#0d1174" stroke="#0d1174" points="340.5,-1093 137.5,-1093 137.5,-1030 340.5,-1030 340.5,-1093"/>
<text text-anchor="middle" x="239" y="-1081" font-family="Arial" font-size="10.00" fill="#ffffff">csteen</text>
<text text-anchor="middle" x="239" y="-1070" font-family="Arial" font-size="10.00" fill="#ffffff">AdemAlgebra__generateMultiplicationTable</text>
<text text-anchor="middle" x="239" y="-1059" font-family="Arial" font-size="10.00" fill="#ffffff">1.03%</text>
<text text-anchor="middle" x="239" y="-1048" font-family="Arial" font-size="10.00" fill="#ffffff">(0.00%)</text>
<text text-anchor="middle" x="239" y="-1037" font-family="Arial" font-size="10.00" fill="#ffffff">1×</text>
</g>
<!-- AdemAlgebra__generateMultiplicationTable2 -->
<g id="node6" class="node">
<title>AdemAlgebra__generateMultiplicationTable2</title>
<polygon fill="#0d1174" stroke="#0d1174" points="334.5,-990 125.5,-990 125.5,-927 334.5,-927 334.5,-990"/>
<text text-anchor="middle" x="230" y="-978" font-family="Arial" font-size="10.00" fill="#ffffff">csteen</text>
<text text-anchor="middle" x="230" y="-967" font-family="Arial" font-size="10.00" fill="#ffffff">AdemAlgebra__generateMultiplicationTable2</text>
<text text-anchor="middle" x="230" y="-956" font-family="Arial" font-size="10.00" fill="#ffffff">1.03%</text>
<text text-anchor="middle" x="230" y="-945" font-family="Arial" font-size="10.00" fill="#ffffff">(0.01%)</text>
<text text-anchor="middle" x="230" y="-934" font-family="Arial" font-size="10.00" fill="#ffffff">1×</text>
</g>
<!-- AdemAlgebra__generateMultiplicationTable&#45;&gt;AdemAlgebra__generateMultiplicationTable2 -->
<g id="edge3" class="edge">
<title>AdemAlgebra__generateMultiplicationTable&#45;&gt;AdemAlgebra__generateMultiplicationTable2</title>
<path fill="none" stroke="#0d1174" stroke-width=".5" d="M236.2263,-1029.7562C235.234,-1018.3998 234.1097,-1005.5328 233.0922,-993.888"/>
<polygon fill="#0d1174" stroke="#0d1174" stroke-width=".5" points="234.3052,-993.6964 232.7801,-990.3163 231.8645,-993.9097 234.3052,-993.6964"/>
<text text-anchor="middle" x="250" y="-1013" font-family="Arial" font-size="10.00" fill="#0d1174">1.03%</text>
<text text-anchor="middle" x="250" y="-1002" font-family="Arial" font-size="10.00" fill="#0d1174">1×</text>
</g>
<!-- AdemAlgebra__makeMonoAdmissible2 -->
<g id="node7" class="node">
<title>AdemAlgebra__makeMonoAdmissible2</title>
<polygon fill="#0b9e6f" stroke="#0b9e6f" points="236.5,-578 49.5,-578 49.5,-515 236.5,-515 236.5,-578"/>
<text text-anchor="middle" x="143" y="-566" font-family="Arial" font-size="10.00" fill="#ffffff">csteen</text>
<text text-anchor="middle" x="143" y="-555" font-family="Arial" font-size="10.00" fill="#ffffff">AdemAlgebra__makeMonoAdmissible2</text>
<text text-anchor="middle" x="143" y="-544" font-family="Arial" font-size="10.00" fill="#ffffff">33.07%</text>
<text text-anchor="middle" x="143" y="-533" font-family="Arial" font-size="10.00" fill="#ffffff">(0.97%)</text>
<text text-anchor="middle" x="143" y="-522" font-family="Arial" font-size="10.00" fill="#ffffff">271664×</text>
</g>
<!-- AdemAlgebra__makeMonoAdmissible2&#39;2 -->
<g id="node8" class="node">
<title>AdemAlgebra__makeMonoAdmissible2&#39;2</title>
<polygon fill="#0c958f" stroke="#0c958f" points="322,-475 128,-475 128,-412 322,-412 322,-475"/>
<text text-anchor="middle" x="225" y="-463" font-family="Arial" font-size="10.00" fill="#ffffff">csteen</text>
<text text-anchor="middle" x="225" y="-452" font-family="Arial" font-size="10.00" fill="#ffffff">AdemAlgebra__makeMonoAdmissible2&#39;2</text>
<text text-anchor="middle" x="225" y="-441" font-family="Arial" font-size="10.00" fill="#ffffff">26.09%</text>
<text text-anchor="middle" x="225" y="-430" font-family="Arial" font-size="10.00" fill="#ffffff">(2.75%)</text>
<text text-anchor="middle" x="225" y="-419" font-family="Arial" font-size="10.00" fill="#ffffff">698201×</text>
</g>
<!-- AdemAlgebra__makeMonoAdmissible2&#45;&gt;AdemAlgebra__makeMonoAdmissible2&#39;2 -->
<g id="edge4" class="edge">
<title>AdemAlgebra__makeMonoAdmissible2&#45;&gt;AdemAlgebra__makeMonoAdmissible2&#39;2</title>
<path fill="none" stroke="#0c958f" stroke-width="1.04" d="M168.2718,-514.7562C177.1569,-503.5956 187.2035,-490.9761 196.3467,-479.4914"/>
<polygon fill="#0c958f" stroke="#0c958f" stroke-width="1.04" points="197.8905,-480.4181 199.6705,-475.3163 195.0975,-478.1945 197.8905,-480.4181"/>
<text text-anchor="middle" x="211" y="-498" font-family="Arial" font-size="10.00" fill="#0c958f">26.09%</text>
<text text-anchor="middle" x="211" y="-487" font-family="Arial" font-size="10.00" fill="#0c958f">202760×</text>
</g>
<!-- AdemAlgebra_basisElement_fromIndex -->
<g id="node9" class="node">
<title>AdemAlgebra_basisElement_fromIndex</title>
<polygon fill="#0d5085" stroke="#0d5085" points="207,-372 19,-372 19,-309 207,-309 207,-372"/>
<text text-anchor="middle" x="113" y="-360" font-family="Arial" font-size="10.00" fill="#ffffff">csteen</text>
<text text-anchor="middle" x="113" y="-349" font-family="Arial" font-size="10.00" fill="#ffffff">AdemAlgebra_basisElement_fromIndex</text>
<text text-anchor="middle" x="113" y="-338" font-family="Arial" font-size="10.00" fill="#ffffff">13.94%</text>
<text text-anchor="middle" x="113" y="-327" font-family="Arial" font-size="10.00" fill="#ffffff">(0.40%)</text>
<text text-anchor="middle" x="113" y="-316" font-family="Arial" font-size="10.00" fill="#ffffff">1264858×</text>
</g>
<!-- AdemAlgebra__makeMonoAdmissible2&#45;&gt;AdemAlgebra_basisElement_fromIndex -->
<g id="edge5" class="edge">
<title>AdemAlgebra__makeMonoAdmissible2&#45;&gt;AdemAlgebra_basisElement_fromIndex</title>
<path fill="none" stroke="#0d1475" stroke-width=".5" d="M109.6674,-514.9276C99.7636,-503.417 90.1816,-489.6128 85,-475 73.357,-442.1653 84.1149,-403.0143 95.502,-375.4434"/>
<polygon fill="#0d1475" stroke="#0d1475" stroke-width=".5" points="96.6638,-375.8409 96.8924,-372.1397 94.4056,-374.8905 96.6638,-375.8409"/>
<text text-anchor="middle" x="104" y="-446.5" font-family="Arial" font-size="10.00" fill="#0d1475">1.80%</text>
<text text-anchor="middle" x="104" y="-435.5" font-family="Arial" font-size="10.00" fill="#0d1475">202760×</text>
</g>
<!-- AdemAlgebra_basisElement_toIndex -->
<g id="node10" class="node">
<title>AdemAlgebra_basisElement_toIndex</title>
<polygon fill="#0c9493" stroke="#0c9493" points="201.5,-269 24.5,-269 24.5,-206 201.5,-206 201.5,-269"/>
<text text-anchor="middle" x="113" y="-257" font-family="Arial" font-size="10.00" fill="#ffffff">csteen</text>
<text text-anchor="middle" x="113" y="-246" font-family="Arial" font-size="10.00" fill="#ffffff">AdemAlgebra_basisElement_toIndex</text>
<text text-anchor="middle" x="113" y="-235" font-family="Arial" font-size="10.00" fill="#ffffff">25.06%</text>
<text text-anchor="middle" x="113" y="-224" font-family="Arial" font-size="10.00" fill="#ffffff">(0.83%)</text>
<text text-anchor="middle" x="113" y="-213" font-family="Arial" font-size="10.00" fill="#ffffff">2277097×</text>
</g>
<!-- AdemAlgebra__makeMonoAdmissible2&#45;&gt;AdemAlgebra_basisElement_toIndex -->
<g id="edge6" class="edge">
<title>AdemAlgebra__makeMonoAdmissible2&#45;&gt;AdemAlgebra_basisElement_toIndex</title>
<path fill="none" stroke="#0d1675" stroke-width=".5" d="M96.6526,-514.7898C93.5826,-511.97 90.6594,-509.0302 88,-506 43.1235,-454.8665 30.982,-437.8799 14,-372 7.0108,-344.8863 1.2529,-333.9301 14,-309 21.6273,-294.0828 33.9791,-281.5621 47.4119,-271.3797"/>
<polygon fill="#0d1675" stroke="#0d1675" stroke-width=".5" points="48.3933,-272.1772 50.4766,-269.1095 46.935,-270.2085 48.3933,-272.1772"/>
<text text-anchor="middle" x="42" y="-395" font-family="Arial" font-size="10.00" fill="#0d1675">2.14%</text>
<text text-anchor="middle" x="42" y="-384" font-family="Arial" font-size="10.00" fill="#0d1675">271664×</text>
</g>
<!-- Vector_stepIterator -->
<g id="node11" class="node">
<title>Vector_stepIterator</title>
<polygon fill="#0aac36" stroke="#0aac36" points="473.5,-372 374.5,-372 374.5,-309 473.5,-309 473.5,-372"/>
<text text-anchor="middle" x="424" y="-360" font-family="Arial" font-size="10.00" fill="#ffffff">csteen</text>
<text text-anchor="middle" x="424" y="-349" font-family="Arial" font-size="10.00" fill="#ffffff">Vector_stepIterator</text>
<text text-anchor="middle" x="424" y="-338" font-family="Arial" font-size="10.00" fill="#ffffff">43.24%</text>
<text text-anchor="middle" x="424" y="-327" font-family="Arial" font-size="10.00" fill="#ffffff">(33.91%)</text>
<text text-anchor="middle" x="424" y="-316" font-family="Arial" font-size="10.00" fill="#ffffff">67499231×</text>
</g>
<!-- AdemAlgebra__makeMonoAdmissible2&#45;&gt;Vector_stepIterator -->
<g id="edge7" class="edge">
<title>AdemAlgebra__makeMonoAdmissible2&#45;&gt;Vector_stepIterator</title>
<path fill="none" stroke="#0d1575" stroke-width=".5" d="M236.7952,-522.9341C298.9789,-506.5502 371.0825,-485.7875 382,-475 383.8385,-473.1834 401.5629,-415.1175 413.3914,-375.8816"/>
<polygon fill="#0d1575" stroke="#0d1575" stroke-width=".5" points="414.6802,-375.8505 414.517,-372.1459 412.3343,-375.1437 414.6802,-375.8505"/>
<text text-anchor="middle" x="424.5" y="-446.5" font-family="Arial" font-size="10.00" fill="#0d1575">1.90%</text>
<text text-anchor="middle" x="424.5" y="-435.5" font-family="Arial" font-size="10.00" fill="#0d1575">3090224×</text>
</g>
<!-- AdemAlgebra__makeMonoAdmissible2&#39;2&#45;&gt;AdemAlgebra__makeMonoAdmissible2&#39;2 -->
<g id="edge8" class="edge">
<title>AdemAlgebra__makeMonoAdmissible2&#39;2&#45;&gt;AdemAlgebra__makeMonoAdmissible2&#39;2</title>
<path fill="none" stroke="#0c958f" stroke-width="1.04" d="M322.2657,-449.8257C327.7382,-448.2941 331,-446.1855 331,-443.5 331,-441.7376 329.5953,-440.2237 327.0828,-438.9583"/>
<polygon fill="#0c958f" stroke="#0c958f" stroke-width="1.04" points="327.6682,-437.2716 322.2657,-437.1743 326.4283,-440.6194 327.6682,-437.2716"/>
<text text-anchor="middle" x="350" y="-441" font-family="Arial" font-size="10.00" fill="#0c958f">495441×</text>
</g>
<!-- AdemAlgebra__makeMonoAdmissible2&#39;2&#45;&gt;AdemAlgebra_basisElement_fromIndex -->
<g id="edge9" class="edge">
<title>AdemAlgebra__makeMonoAdmissible2&#39;2&#45;&gt;AdemAlgebra_basisElement_fromIndex</title>
<path fill="none" stroke="#0d2d7c" stroke-width=".5" d="M189.5729,-411.7234C186.3295,-408.7817 183.0998,-405.8403 180,-403 170.03,-393.8647 159.2936,-383.9048 149.399,-374.6752"/>
<polygon fill="#0d2d7c" stroke="#0d2d7c" stroke-width=".5" points="150.0265,-373.5852 146.6319,-372.0927 148.3549,-375.3763 150.0265,-373.5852"/>
<text text-anchor="middle" x="199" y="-395" font-family="Arial" font-size="10.00" fill="#0d2d7c">7.17%</text>
<text text-anchor="middle" x="199" y="-384" font-family="Arial" font-size="10.00" fill="#0d2d7c">495441×</text>
</g>
<!-- AdemAlgebra__makeMonoAdmissible2&#39;2&#45;&gt;AdemAlgebra_basisElement_toIndex -->
<g id="edge10" class="edge">
<title>AdemAlgebra__makeMonoAdmissible2&#39;2&#45;&gt;AdemAlgebra_basisElement_toIndex</title>
<path fill="none" stroke="#0d367e" stroke-width=".5" d="M228.6562,-411.9413C230.4517,-383.1946 229.1473,-340.5411 211,-309 202.5048,-294.2348 189.595,-281.6624 175.9082,-271.3709"/>
<polygon fill="#0d367e" stroke="#0d367e" stroke-width=".5" points="176.3356,-270.1644 172.791,-269.0751 174.8827,-272.1371 176.3356,-270.1644"/>
<text text-anchor="middle" x="248" y="-343.5" font-family="Arial" font-size="10.00" fill="#0d367e">9.05%</text>
<text text-anchor="middle" x="248" y="-332.5" font-family="Arial" font-size="10.00" fill="#0d367e">698201×</text>
</g>
<!-- AdemAlgebra__makeMonoAdmissible2&#39;2&#45;&gt;Vector_stepIterator -->
<g id="edge11" class="edge">
<title>AdemAlgebra__makeMonoAdmissible2&#39;2&#45;&gt;Vector_stepIterator</title>
<path fill="none" stroke="#0d2a7b" stroke-width=".5" d="M281.7408,-411.9542C300.2174,-401.8723 320.8894,-390.7928 340,-381 350.0543,-375.8479 360.8687,-370.4953 371.2817,-365.4344"/>
<polygon fill="#0d2a7b" stroke="#0d2a7b" stroke-width=".5" points="371.8847,-366.5034 374.4991,-363.8737 370.8154,-364.2991 371.8847,-366.5034"/>
<text text-anchor="middle" x="364.5" y="-395" font-family="Arial" font-size="10.00" fill="#0d2a7b">6.57%</text>
<text text-anchor="middle" x="364.5" y="-384" font-family="Arial" font-size="10.00" fill="#0d2a7b">10351364×</text>
</g>
<!-- AdemAlgebra_basisElement_fromIndex&#45;&gt;AdemAlgebra_basisElement_toIndex -->
<g id="edge12" class="edge">
<title>AdemAlgebra_basisElement_fromIndex&#45;&gt;AdemAlgebra_basisElement_toIndex</title>
<path fill="none" stroke="#0d4d84" stroke-width=".54" d="M113,-308.7562C113,-297.4977 113,-284.7546 113,-273.1894"/>
<polygon fill="#0d4d84" stroke="#0d4d84" stroke-width=".54" points="114.2951,-273.0163 113,-269.3163 111.7051,-273.0164 114.2951,-273.0163"/>
<text text-anchor="middle" x="134.5" y="-292" font-family="Arial" font-size="10.00" fill="#0d4d84">13.54%</text>
<text text-anchor="middle" x="134.5" y="-281" font-family="Arial" font-size="10.00" fill="#0d4d84">1264858×</text>
</g>
<!-- AdemAlgebra_basisElement_toKey -->
<g id="node12" class="node">
<title>AdemAlgebra_basisElement_toKey</title>
<polygon fill="#0d2379" stroke="#0d2379" points="170,-166 0,-166 0,-103 170,-103 170,-166"/>
<text text-anchor="middle" x="85" y="-154" font-family="Arial" font-size="10.00" fill="#ffffff">csteen</text>
<text text-anchor="middle" x="85" y="-143" font-family="Arial" font-size="10.00" fill="#ffffff">AdemAlgebra_basisElement_toKey</text>
<text text-anchor="middle" x="85" y="-132" font-family="Arial" font-size="10.00" fill="#ffffff">5.19%</text>
<text text-anchor="middle" x="85" y="-121" font-family="Arial" font-size="10.00" fill="#ffffff">(4.98%)</text>
<text text-anchor="middle" x="85" y="-110" font-family="Arial" font-size="10.00" fill="#ffffff">2279154×</text>
</g>
<!-- AdemAlgebra_basisElement_toIndex&#45;&gt;AdemAlgebra_basisElement_toKey -->
<g id="edge13" class="edge">
<title>AdemAlgebra_basisElement_toIndex&#45;&gt;AdemAlgebra_basisElement_toKey</title>
<path fill="none" stroke="#0d2379" stroke-width=".5" d="M104.3706,-205.7562C101.2834,-194.3998 97.7856,-181.5328 94.62,-169.888"/>
<polygon fill="#0d2379" stroke="#0d2379" stroke-width=".5" points="95.7494,-169.3724 93.6491,-166.3163 93.3852,-170.0151 95.7494,-169.3724"/>
<text text-anchor="middle" x="123.5" y="-189" font-family="Arial" font-size="10.00" fill="#0d2379">5.18%</text>
<text text-anchor="middle" x="123.5" y="-178" font-family="Arial" font-size="10.00" fill="#0d2379">2277097×</text>
</g>
<!-- kh_get_monomial_index_map -->
<g id="node13" class="node">
<title>kh_get_monomial_index_map</title>
<polygon fill="#0c6d8c" stroke="#0c6d8c" points="325,-166 179,-166 179,-103 325,-103 325,-166"/>
<text text-anchor="middle" x="252" y="-154" font-family="Arial" font-size="10.00" fill="#ffffff">csteen</text>
<text text-anchor="middle" x="252" y="-143" font-family="Arial" font-size="10.00" fill="#ffffff">kh_get_monomial_index_map</text>
<text text-anchor="middle" x="252" y="-132" font-family="Arial" font-size="10.00" fill="#ffffff">19.05%</text>
<text text-anchor="middle" x="252" y="-121" font-family="Arial" font-size="10.00" fill="#ffffff">(10.42%)</text>
<text text-anchor="middle" x="252" y="-110" font-family="Arial" font-size="10.00" fill="#ffffff">2277097×</text>
</g>
<!-- AdemAlgebra_basisElement_toIndex&#45;&gt;kh_get_monomial_index_map -->
<g id="edge14" class="edge">
<title>AdemAlgebra_basisElement_toIndex&#45;&gt;kh_get_monomial_index_map</title>
<path fill="none" stroke="#0c6d8c" stroke-width=".76" d="M155.8388,-205.7562C171.5607,-194.1061 189.428,-180.8663 205.4593,-168.987"/>
<polygon fill="#0c6d8c" stroke="#0c6d8c" stroke-width=".76" points="206.4451,-170.1733 209.0634,-166.3163 204.6113,-167.6987 206.4451,-170.1733"/>
<text text-anchor="middle" x="216.5" y="-189" font-family="Arial" font-size="10.00" fill="#0c6d8c">19.05%</text>
<text text-anchor="middle" x="216.5" y="-178" font-family="Arial" font-size="10.00" fill="#0c6d8c">2277097×</text>
</g>
<!-- getBitMask -->
<g id="node26" class="node">
<title>getBitMask</title>
<polygon fill="#0d2179" stroke="#0d2179" points="419,-269 353,-269 353,-206 419,-206 419,-269"/>
<text text-anchor="middle" x="386" y="-257" font-family="Arial" font-size="10.00" fill="#ffffff">csteen</text>
<text text-anchor="middle" x="386" y="-246" font-family="Arial" font-size="10.00" fill="#ffffff">getBitMask</text>
<text text-anchor="middle" x="386" y="-235" font-family="Arial" font-size="10.00" fill="#ffffff">4.72%</text>
<text text-anchor="middle" x="386" y="-224" font-family="Arial" font-size="10.00" fill="#ffffff">(4.72%)</text>
<text text-anchor="middle" x="386" y="-213" font-family="Arial" font-size="10.00" fill="#ffffff">67562854×</text>
</g>
<!-- Vector_stepIterator&#45;&gt;getBitMask -->
<g id="edge28" class="edge">
<title>Vector_stepIterator&#45;&gt;getBitMask</title>
<path fill="none" stroke="#0d2179" stroke-width=".5" d="M405.7277,-308.5695C404.3773,-305.7127 403.1112,-302.8303 402,-300 398.6333,-291.4247 395.7783,-281.9081 393.4538,-272.9401"/>
<polygon fill="#0d2179" stroke="#0d2179" stroke-width=".5" points="394.5369,-272.2268 392.4901,-269.1347 392.1619,-272.8283 394.5369,-272.2268"/>
<text text-anchor="middle" x="426.5" y="-292" font-family="Arial" font-size="10.00" fill="#0d2179">4.67%</text>
<text text-anchor="middle" x="426.5" y="-281" font-family="Arial" font-size="10.00" fill="#0d2179">66806379×</text>
</g>
<!-- getBitlength -->
<g id="node27" class="node">
<title>getBitlength</title>
<polygon fill="#0d2279" stroke="#0d2279" points="496,-269 428,-269 428,-206 496,-206 496,-269"/>
<text text-anchor="middle" x="462" y="-257" font-family="Arial" font-size="10.00" fill="#ffffff">csteen</text>
<text text-anchor="middle" x="462" y="-246" font-family="Arial" font-size="10.00" fill="#ffffff">getBitlength</text>
<text text-anchor="middle" x="462" y="-235" font-family="Arial" font-size="10.00" fill="#ffffff">4.90%</text>
<text text-anchor="middle" x="462" y="-224" font-family="Arial" font-size="10.00" fill="#ffffff">(4.90%)</text>
<text text-anchor="middle" x="462" y="-213" font-family="Arial" font-size="10.00" fill="#ffffff">70073491×</text>
</g>
<!-- Vector_stepIterator&#45;&gt;getBitlength -->
<g id="edge29" class="edge">
<title>Vector_stepIterator&#45;&gt;getBitlength</title>
<path fill="none" stroke="#0d2179" stroke-width=".5" d="M444.9833,-308.7581C446.4703,-305.8604 447.8381,-302.917 449,-300 452.3732,-291.5314 454.9208,-282.0528 456.8251,-273.0875"/>
<polygon fill="#0d2179" stroke="#0d2179" stroke-width=".5" points="458.1023,-272.9554 457.6024,-269.2811 455.7018,-272.4652 458.1023,-272.9554"/>
<text text-anchor="middle" x="480.5" y="-292" font-family="Arial" font-size="10.00" fill="#0d2179">4.67%</text>
<text text-anchor="middle" x="480.5" y="-281" font-family="Arial" font-size="10.00" fill="#0d2179">66806379×</text>
</g>
<!-- __ac_X31_hash_string -->
<g id="node28" class="node">
<title>__ac_X31_hash_string</title>
<polygon fill="#0d1c77" stroke="#0d1c77" points="244,-63 128,-63 128,0 244,0 244,-63"/>
<text text-anchor="middle" x="186" y="-51" font-family="Arial" font-size="10.00" fill="#ffffff">csteen</text>
<text text-anchor="middle" x="186" y="-40" font-family="Arial" font-size="10.00" fill="#ffffff">__ac_X31_hash_string</text>
<text text-anchor="middle" x="186" y="-29" font-family="Arial" font-size="10.00" fill="#ffffff">3.57%</text>
<text text-anchor="middle" x="186" y="-18" font-family="Arial" font-size="10.00" fill="#ffffff">(3.57%)</text>
<text text-anchor="middle" x="186" y="-7" font-family="Arial" font-size="10.00" fill="#ffffff">2279154×</text>
</g>
<!-- kh_get_monomial_index_map&#45;&gt;__ac_X31_hash_string -->
<g id="edge31" class="edge">
<title>kh_get_monomial_index_map&#45;&gt;__ac_X31_hash_string</title>
<path fill="none" stroke="#0d1c77" stroke-width=".5" d="M231.6593,-102.7562C224.2569,-91.204 215.853,-78.0887 208.2906,-66.2868"/>
<polygon fill="#0d1c77" stroke="#0d1c77" stroke-width=".5" points="209.3069,-65.6023 206.3872,-63.3163 207.2441,-66.9242 209.3069,-65.6023"/>
<text text-anchor="middle" x="246.5" y="-86" font-family="Arial" font-size="10.00" fill="#0d1c77">3.57%</text>
<text text-anchor="middle" x="246.5" y="-75" font-family="Arial" font-size="10.00" fill="#0d1c77">2277097×</text>
</g>
<!-- __strcmp_sse2_unaligned -->
<g id="node29" class="node">
<title>__strcmp_sse2_unaligned</title>
<polygon fill="#0d2379" stroke="#0d2379" points="383,-63 253,-63 253,0 383,0 383,-63"/>
<text text-anchor="middle" x="318" y="-51" font-family="Arial" font-size="10.00" fill="#ffffff">libc&#45;2.27.so</text>
<text text-anchor="middle" x="318" y="-40" font-family="Arial" font-size="10.00" fill="#ffffff">__strcmp_sse2_unaligned</text>
<text text-anchor="middle" x="318" y="-29" font-family="Arial" font-size="10.00" fill="#ffffff">5.07%</text>
<text text-anchor="middle" x="318" y="-18" font-family="Arial" font-size="10.00" fill="#ffffff">(5.07%)</text>
<text text-anchor="middle" x="318" y="-7" font-family="Arial" font-size="10.00" fill="#ffffff">22544848×</text>
</g>
<!-- kh_get_monomial_index_map&#45;&gt;__strcmp_sse2_unaligned -->
<g id="edge32" class="edge">
<title>kh_get_monomial_index_map&#45;&gt;__strcmp_sse2_unaligned</title>
<path fill="none" stroke="#0d2379" stroke-width=".5" d="M272.3407,-102.7562C279.7431,-91.204 288.147,-78.0887 295.7094,-66.2868"/>
<polygon fill="#0d2379" stroke="#0d2379" stroke-width=".5" points="296.7559,-66.9242 297.6128,-63.3163 294.6931,-65.6023 296.7559,-66.9242"/>
<text text-anchor="middle" x="315.5" y="-86" font-family="Arial" font-size="10.00" fill="#0d2379">5.06%</text>
<text text-anchor="middle" x="315.5" y="-75" font-family="Arial" font-size="10.00" fill="#0d2379">22518019×</text>
</g>
<!-- AdemAlgebra_generateBasis&#45;&gt;AdemAlgebra__generateMultiplicationTable -->
<g id="edge15" class="edge">
<title>AdemAlgebra_generateBasis&#45;&gt;AdemAlgebra__generateMultiplicationTable</title>
<path fill="none" stroke="#0d1174" stroke-width=".5" d="M278.433,-1132.7562C272.0943,-1121.3019 264.9051,-1108.3109 258.4171,-1096.5871"/>
<polygon fill="#0d1174" stroke="#0d1174" stroke-width=".5" points="259.3737,-1095.7855 256.6071,-1093.3163 257.23,-1096.9719 259.3737,-1095.7855"/>
<text text-anchor="middle" x="287" y="-1116" font-family="Arial" font-size="10.00" fill="#0d1174">1.03%</text>
<text text-anchor="middle" x="287" y="-1105" font-family="Arial" font-size="10.00" fill="#0d1174">1×</text>
</g>
<!-- AdemAlgebra_getDimension -->
<g id="node15" class="node">
<title>AdemAlgebra_getDimension</title>
<polygon fill="#0d1575" stroke="#0d1575" points="421,-578 281,-578 281,-515 421,-515 421,-578"/>
<text text-anchor="middle" x="351" y="-566" font-family="Arial" font-size="10.00" fill="#ffffff">csteen</text>
<text text-anchor="middle" x="351" y="-555" font-family="Arial" font-size="10.00" fill="#ffffff">AdemAlgebra_getDimension</text>
<text text-anchor="middle" x="351" y="-544" font-family="Arial" font-size="10.00" fill="#ffffff">2.06%</text>
<text text-anchor="middle" x="351" y="-533" font-family="Arial" font-size="10.00" fill="#ffffff">(2.06%)</text>
<text text-anchor="middle" x="351" y="-522" font-family="Arial" font-size="10.00" fill="#ffffff">13242015×</text>
</g>
<!-- AdemAlgebra_multiply -->
<g id="node16" class="node">
<title>AdemAlgebra_multiply</title>
<polygon fill="#0ba554" stroke="#0ba554" points="200,-681 86,-681 86,-618 200,-618 200,-681"/>
<text text-anchor="middle" x="143" y="-669" font-family="Arial" font-size="10.00" fill="#ffffff">csteen</text>
<text text-anchor="middle" x="143" y="-658" font-family="Arial" font-size="10.00" fill="#ffffff">AdemAlgebra_multiply</text>
<text text-anchor="middle" x="143" y="-647" font-family="Arial" font-size="10.00" fill="#ffffff">38.19%</text>
<text text-anchor="middle" x="143" y="-636" font-family="Arial" font-size="10.00" fill="#ffffff">(0.34%)</text>
<text text-anchor="middle" x="143" y="-625" font-family="Arial" font-size="10.00" fill="#ffffff">271664×</text>
</g>
<!-- AdemAlgebra_multiply&#45;&gt;AdemAlgebra__makeMonoAdmissible2 -->
<g id="edge16" class="edge">
<title>AdemAlgebra_multiply&#45;&gt;AdemAlgebra__makeMonoAdmissible2</title>
<path fill="none" stroke="#0b9e6f" stroke-width="1.32" d="M143,-617.7562C143,-607.183 143,-595.3004 143,-584.3138"/>
<polygon fill="#0b9e6f" stroke="#0b9e6f" stroke-width="1.32" points="145.0301,-584.1163 143,-578.3163 140.9701,-584.1164 145.0301,-584.1163"/>
<text text-anchor="middle" x="162" y="-601" font-family="Arial" font-size="10.00" fill="#0b9e6f">33.07%</text>
<text text-anchor="middle" x="162" y="-590" font-family="Arial" font-size="10.00" fill="#0b9e6f">271664×</text>
</g>
<!-- AdemAlgebra_multiply&#45;&gt;AdemAlgebra_basisElement_fromIndex -->
<g id="edge17" class="edge">
<title>AdemAlgebra_multiply&#45;&gt;AdemAlgebra_basisElement_fromIndex</title>
<path fill="none" stroke="#0d2179" stroke-width=".5" d="M85.9698,-621.2192C69.732,-610.1287 54.0179,-595.7423 45,-578 10.6765,-510.4701 56.0829,-423.0712 87.5411,-375.3642"/>
<polygon fill="#0d2179" stroke="#0d2179" stroke-width=".5" points="88.6741,-375.8727 89.5921,-372.2799 86.634,-374.516 88.6741,-375.8727"/>
<text text-anchor="middle" x="57" y="-498" font-family="Arial" font-size="10.00" fill="#0d2179">4.64%</text>
<text text-anchor="middle" x="57" y="-487" font-family="Arial" font-size="10.00" fill="#0d2179">543328×</text>
</g>
<!-- FreeModuleHomomorphism_getMatrix -->
<g id="node17" class="node">
<title>FreeModuleHomomorphism_getMatrix</title>
<polygon fill="#0aae2f" stroke="#0aae2f" points="484,-887 302,-887 302,-824 484,-824 484,-887"/>
<text text-anchor="middle" x="393" y="-875" font-family="Arial" font-size="10.00" fill="#ffffff">csteen</text>
<text text-anchor="middle" x="393" y="-864" font-family="Arial" font-size="10.00" fill="#ffffff">FreeModuleHomomorphism_getMatrix</text>
<text text-anchor="middle" x="393" y="-853" font-family="Arial" font-size="10.00" fill="#ffffff">44.42%</text>
<text text-anchor="middle" x="393" y="-842" font-family="Arial" font-size="10.00" fill="#ffffff">(0.29%)</text>
<text text-anchor="middle" x="393" y="-831" font-family="Arial" font-size="10.00" fill="#ffffff">1275×</text>
</g>
<!-- FreeModuleHomomorphism_getMatrix&#45;&gt;Vector_stepIterator -->
<g id="edge19" class="edge">
<title>FreeModuleHomomorphism_getMatrix&#45;&gt;Vector_stepIterator</title>
<path fill="none" stroke="#0d1074" stroke-width=".5" d="M423,-823.8669C438,-804.7392 453,-778.9892 453,-752.5 453,-752.5 453,-752.5 453,-443.5 453,-420.3191 446.11,-395.265 439.0468,-375.6711"/>
<polygon fill="#0d1074" stroke="#0d1074" stroke-width=".5" points="440.1756,-375.1911 437.8205,-372.3268 437.8754,-376.0346 440.1756,-375.1911"/>
<text text-anchor="middle" x="474.5" y="-601" font-family="Arial" font-size="10.00" fill="#0d1074">0.83%</text>
<text text-anchor="middle" x="474.5" y="-590" font-family="Arial" font-size="10.00" fill="#0d1074">1323326×</text>
</g>
<!-- FreeModule_actOnBasis -->
<g id="node18" class="node">
<title>FreeModule_actOnBasis</title>
<polygon fill="#0aac36" stroke="#0aac36" points="413,-784 289,-784 289,-721 413,-721 413,-784"/>
<text text-anchor="middle" x="351" y="-772" font-family="Arial" font-size="10.00" fill="#ffffff">csteen</text>
<text text-anchor="middle" x="351" y="-761" font-family="Arial" font-size="10.00" fill="#ffffff">FreeModule_actOnBasis</text>
<text text-anchor="middle" x="351" y="-750" font-family="Arial" font-size="10.00" fill="#ffffff">43.24%</text>
<text text-anchor="middle" x="351" y="-739" font-family="Arial" font-size="10.00" fill="#ffffff">(0.35%)</text>
<text text-anchor="middle" x="351" y="-728" font-family="Arial" font-size="10.00" fill="#ffffff">271664×</text>
</g>
<!-- FreeModuleHomomorphism_getMatrix&#45;&gt;FreeModule_actOnBasis -->
<g id="edge18" class="edge">
<title>FreeModuleHomomorphism_getMatrix&#45;&gt;FreeModule_actOnBasis</title>
<path fill="none" stroke="#0aac36" stroke-width="1.73" d="M380.0559,-823.7562C375.7845,-813.2809 370.9889,-801.5203 366.5438,-790.6192"/>
<polygon fill="#0aac36" stroke="#0aac36" stroke-width="1.73" points="368.6048,-789.5555 363.9736,-784.3163 364.3267,-791.3 368.6048,-789.5555"/>
<text text-anchor="middle" x="395" y="-807" font-family="Arial" font-size="10.00" fill="#0aac36">43.24%</text>
<text text-anchor="middle" x="395" y="-796" font-family="Arial" font-size="10.00" fill="#0aac36">271664×</text>
</g>
<!-- FreeModule_actOnBasis&#45;&gt;AdemAlgebra_multiply -->
<g id="edge20" class="edge">
<title>FreeModule_actOnBasis&#45;&gt;AdemAlgebra_multiply</title>
<path fill="none" stroke="#0ba554" stroke-width="1.53" d="M288.8749,-721.7361C262.7215,-708.7851 232.3266,-693.7339 206.0722,-680.7329"/>
<polygon fill="#0ba554" stroke="#0ba554" stroke-width="1.53" points="206.7091,-678.6268 200.19,-677.8201 204.7831,-682.5161 206.7091,-678.6268"/>
<text text-anchor="middle" x="285" y="-704" font-family="Arial" font-size="10.00" fill="#0ba554">38.19%</text>
<text text-anchor="middle" x="285" y="-693" font-family="Arial" font-size="10.00" fill="#0ba554">271664×</text>
</g>
<!-- FreeModule_getDimension -->
<g id="node19" class="node">
<title>FreeModule_getDimension</title>
<polygon fill="#0d1e78" stroke="#0d1e78" points="417,-681 285,-681 285,-618 417,-618 417,-681"/>
<text text-anchor="middle" x="351" y="-669" font-family="Arial" font-size="10.00" fill="#ffffff">csteen</text>
<text text-anchor="middle" x="351" y="-658" font-family="Arial" font-size="10.00" fill="#ffffff">FreeModule_getDimension</text>
<text text-anchor="middle" x="351" y="-647" font-family="Arial" font-size="10.00" fill="#ffffff">4.05%</text>
<text text-anchor="middle" x="351" y="-636" font-family="Arial" font-size="10.00" fill="#ffffff">(2.19%)</text>
<text text-anchor="middle" x="351" y="-625" font-family="Arial" font-size="10.00" fill="#ffffff">278145×</text>
</g>
<!-- FreeModule_actOnBasis&#45;&gt;FreeModule_getDimension -->
<g id="edge21" class="edge">
<title>FreeModule_actOnBasis&#45;&gt;FreeModule_getDimension</title>
<path fill="none" stroke="#0d1e78" stroke-width=".5" d="M351,-720.7562C351,-709.3998 351,-696.5328 351,-684.888"/>
<polygon fill="#0d1e78" stroke="#0d1e78" stroke-width=".5" points="352.2251,-684.8163 351,-681.3163 349.7751,-684.8164 352.2251,-684.8163"/>
<text text-anchor="middle" x="370" y="-704" font-family="Arial" font-size="10.00" fill="#0d1e78">3.98%</text>
<text text-anchor="middle" x="370" y="-693" font-family="Arial" font-size="10.00" fill="#0d1e78">271664×</text>
</g>
<!-- FreeModule_getDimension&#45;&gt;AdemAlgebra_getDimension -->
<g id="edge22" class="edge">
<title>FreeModule_getDimension&#45;&gt;AdemAlgebra_getDimension</title>
<path fill="none" stroke="#0d1575" stroke-width=".5" d="M351,-617.7562C351,-606.3998 351,-593.5328 351,-581.888"/>
<polygon fill="#0d1575" stroke="#0d1575" stroke-width=".5" points="352.2251,-581.8163 351,-578.3163 349.7751,-581.8164 352.2251,-581.8163"/>
<text text-anchor="middle" x="375.5" y="-601" font-family="Arial" font-size="10.00" fill="#0d1575">1.86%</text>
<text text-anchor="middle" x="375.5" y="-590" font-family="Arial" font-size="10.00" fill="#0d1575">11997524×</text>
</g>
<!-- Resolution_generateOldKernelAndComputeNewKernel -->
<g id="node20" class="node">
<title>Resolution_generateOldKernelAndComputeNewKernel</title>
<polygon fill="#fd0c00" stroke="#fd0c00" points="594.5,-990 343.5,-990 343.5,-927 594.5,-927 594.5,-990"/>
<text text-anchor="middle" x="469" y="-978" font-family="Arial" font-size="10.00" fill="#ffffff">csteen</text>
<text text-anchor="middle" x="469" y="-967" font-family="Arial" font-size="10.00" fill="#ffffff">Resolution_generateOldKernelAndComputeNewKernel</text>
<text text-anchor="middle" x="469" y="-956" font-family="Arial" font-size="10.00" fill="#ffffff">98.88%</text>
<text text-anchor="middle" x="469" y="-945" font-family="Arial" font-size="10.00" fill="#ffffff">(0.06%)</text>
<text text-anchor="middle" x="469" y="-934" font-family="Arial" font-size="10.00" fill="#ffffff">1275×</text>
</g>
<!-- Resolution_generateOldKernelAndComputeNewKernel&#45;&gt;FreeModuleHomomorphism_getMatrix -->
<g id="edge23" class="edge">
<title>Resolution_generateOldKernelAndComputeNewKernel&#45;&gt;FreeModuleHomomorphism_getMatrix</title>
<path fill="none" stroke="#0aae2f" stroke-width="1.78" d="M445.5774,-926.7562C437.7036,-916.0851 428.8456,-904.0802 420.6764,-893.0089"/>
<polygon fill="#0aae2f" stroke="#0aae2f" stroke-width="1.78" points="422.3411,-891.3153 416.4761,-887.3163 418.5672,-894.0999 422.3411,-891.3153"/>
<text text-anchor="middle" x="455" y="-910" font-family="Arial" font-size="10.00" fill="#0aae2f">44.42%</text>
<text text-anchor="middle" x="455" y="-899" font-family="Arial" font-size="10.00" fill="#0aae2f">1275×</text>
</g>
<!-- rowReduce -->
<g id="node21" class="node">
<title>rowReduce</title>
<polygon fill="#23bb09" stroke="#23bb09" points="558.5,-887 493.5,-887 493.5,-824 558.5,-824 558.5,-887"/>
<text text-anchor="middle" x="526" y="-875" font-family="Arial" font-size="10.00" fill="#ffffff">csteen</text>
<text text-anchor="middle" x="526" y="-864" font-family="Arial" font-size="10.00" fill="#ffffff">rowReduce</text>
<text text-anchor="middle" x="526" y="-853" font-family="Arial" font-size="10.00" fill="#ffffff">53.71%</text>
<text text-anchor="middle" x="526" y="-842" font-family="Arial" font-size="10.00" fill="#ffffff">(16.21%)</text>
<text text-anchor="middle" x="526" y="-831" font-family="Arial" font-size="10.00" fill="#ffffff">2550×</text>
</g>
<!-- Resolution_generateOldKernelAndComputeNewKernel&#45;&gt;rowReduce -->
<g id="edge24" class="edge">
<title>Resolution_generateOldKernelAndComputeNewKernel&#45;&gt;rowReduce</title>
<path fill="none" stroke="#23bb09" stroke-width="2.15" d="M486.567,-926.7562C492.3098,-916.3788 498.7506,-904.7401 504.7356,-893.9251"/>
<polygon fill="#23bb09" stroke="#23bb09" stroke-width="2.15" points="507.0937,-894.9407 508.3929,-887.3163 502.6227,-892.4664 507.0937,-894.9407"/>
<text text-anchor="middle" x="520" y="-910" font-family="Arial" font-size="10.00" fill="#23bb09">53.71%</text>
<text text-anchor="middle" x="520" y="-899" font-family="Arial" font-size="10.00" fill="#23bb09">2550×</text>
</g>
<!-- rowReduce&#45;&gt;Vector_stepIterator -->
<g id="edge36" class="edge">
<title>rowReduce&#45;&gt;Vector_stepIterator</title>
<path fill="none" stroke="#0b9f6b" stroke-width="1.35" d="M518.4685,-823.6845C514.3186,-803.4291 510,-776.5682 510,-752.5 510,-752.5 510,-752.5 510,-443.5 510,-416.9694 492.9798,-393.6595 474.083,-375.9553"/>
<polygon fill="#0b9f6b" stroke="#0b9f6b" stroke-width="1.35" points="475.4274,-374.4341 469.7698,-372.0356 472.6969,-377.4387 475.4274,-374.4341"/>
<text text-anchor="middle" x="534.5" y="-601" font-family="Arial" font-size="10.00" fill="#0b9f6b">33.79%</text>
<text text-anchor="middle" x="534.5" y="-590" font-family="Arial" font-size="10.00" fill="#0b9f6b">52465889×</text>
</g>
<!-- Vector_add -->
<g id="node25" class="node">
<title>Vector_add</title>
<polygon fill="#0d1c77" stroke="#0d1c77" points="590.5,-784 525.5,-784 525.5,-721 590.5,-721 590.5,-784"/>
<text text-anchor="middle" x="558" y="-772" font-family="Arial" font-size="10.00" fill="#ffffff">csteen</text>
<text text-anchor="middle" x="558" y="-761" font-family="Arial" font-size="10.00" fill="#ffffff">Vector_add</text>
<text text-anchor="middle" x="558" y="-750" font-family="Arial" font-size="10.00" fill="#ffffff">3.67%</text>
<text text-anchor="middle" x="558" y="-739" font-family="Arial" font-size="10.00" fill="#ffffff">(0.18%)</text>
<text text-anchor="middle" x="558" y="-728" font-family="Arial" font-size="10.00" fill="#ffffff">1360810×</text>
</g>
<!-- rowReduce&#45;&gt;Vector_add -->
<g id="edge35" class="edge">
<title>rowReduce&#45;&gt;Vector_add</title>
<path fill="none" stroke="#0d1c77" stroke-width=".5" d="M535.8622,-823.7562C539.3903,-812.3998 543.3879,-799.5328 547.0057,-787.888"/>
<polygon fill="#0d1c77" stroke="#0d1c77" stroke-width=".5" points="548.2467,-788.0222 548.1153,-784.3163 545.907,-787.2953 548.2467,-788.0222"/>
<text text-anchor="middle" x="566.5" y="-807" font-family="Arial" font-size="10.00" fill="#0d1c77">3.63%</text>
<text text-anchor="middle" x="566.5" y="-796" font-family="Arial" font-size="10.00" fill="#0d1c77">1327593×</text>
</g>
<!-- Resolution_step -->
<g id="node23" class="node">
<title>Resolution_step</title>
<polygon fill="#fd0c00" stroke="#fd0c00" points="510,-1093 424,-1093 424,-1030 510,-1030 510,-1093"/>
<text text-anchor="middle" x="467" y="-1081" font-family="Arial" font-size="10.00" fill="#ffffff">csteen</text>
<text text-anchor="middle" x="467" y="-1070" font-family="Arial" font-size="10.00" fill="#ffffff">Resolution_step</text>
<text text-anchor="middle" x="467" y="-1059" font-family="Arial" font-size="10.00" fill="#ffffff">98.89%</text>
<text text-anchor="middle" x="467" y="-1048" font-family="Arial" font-size="10.00" fill="#ffffff">(0.00%)</text>
<text text-anchor="middle" x="467" y="-1037" font-family="Arial" font-size="10.00" fill="#ffffff">1275×</text>
</g>
<!-- Resolution_resolveThroughDegree&#45;&gt;Resolution_step -->
<g id="edge25" class="edge">
<title>Resolution_resolveThroughDegree&#45;&gt;Resolution_step</title>
<path fill="none" stroke="#fd0c00" stroke-width="3.96" d="M462.8492,-1132.7562C463.3909,-1123.4557 463.9917,-1113.1421 464.5641,-1103.3163"/>
<polygon fill="#fd0c00" stroke="#fd0c00" stroke-width="3.96" points="468.0299,-1103.4011 465.1466,-1093.3163 461.1117,-1102.998 468.0299,-1103.4011"/>
<text text-anchor="middle" x="482" y="-1116" font-family="Arial" font-size="10.00" fill="#fd0c00">98.89%</text>
<text text-anchor="middle" x="482" y="-1105" font-family="Arial" font-size="10.00" fill="#fd0c00">1275×</text>
</g>
<!-- Resolution_step&#45;&gt;Resolution_generateOldKernelAndComputeNewKernel -->
<g id="edge26" class="edge">
<title>Resolution_step&#45;&gt;Resolution_generateOldKernelAndComputeNewKernel</title>
<path fill="none" stroke="#fd0c00" stroke-width="3.96" d="M467.6164,-1029.7562C467.797,-1020.4557 467.9972,-1010.1421 468.188,-1000.3163"/>
<polygon fill="#fd0c00" stroke="#fd0c00" stroke-width="3.96" points="471.6543,-1000.2818 468.3822,-990.3163 464.7256,-1000.1472 471.6543,-1000.2818"/>
<text text-anchor="middle" x="486" y="-1013" font-family="Arial" font-size="10.00" fill="#fd0c00">98.88%</text>
<text text-anchor="middle" x="486" y="-1002" font-family="Arial" font-size="10.00" fill="#fd0c00">1275×</text>
</g>
<!-- Vector2_add -->
<g id="node24" class="node">
<title>Vector2_add</title>
<polygon fill="#0d1c77" stroke="#0d1c77" points="595.5,-681 524.5,-681 524.5,-618 595.5,-618 595.5,-681"/>
<text text-anchor="middle" x="560" y="-669" font-family="Arial" font-size="10.00" fill="#ffffff">csteen</text>
<text text-anchor="middle" x="560" y="-658" font-family="Arial" font-size="10.00" fill="#ffffff">Vector2_add</text>
<text text-anchor="middle" x="560" y="-647" font-family="Arial" font-size="10.00" fill="#ffffff">3.49%</text>
<text text-anchor="middle" x="560" y="-636" font-family="Arial" font-size="10.00" fill="#ffffff">(3.39%)</text>
<text text-anchor="middle" x="560" y="-625" font-family="Arial" font-size="10.00" fill="#ffffff">1360810×</text>
</g>
<!-- Vector_add&#45;&gt;Vector2_add -->
<g id="edge27" class="edge">
<title>Vector_add&#45;&gt;Vector2_add</title>
<path fill="none" stroke="#0d1c77" stroke-width=".5" d="M558.6164,-720.7562C558.8369,-709.3998 559.0867,-696.5328 559.3129,-684.888"/>
<polygon fill="#0d1c77" stroke="#0d1c77" stroke-width=".5" points="560.5389,-684.8395 559.3822,-681.3163 558.0894,-684.7919 560.5389,-684.8395"/>
<text text-anchor="middle" x="581.5" y="-704" font-family="Arial" font-size="10.00" fill="#0d1c77">3.49%</text>
<text text-anchor="middle" x="581.5" y="-693" font-family="Arial" font-size="10.00" fill="#0d1c77">1360810×</text>
</g>
</g>
</svg>
