<?xml version="1.0" encoding="UTF-8" standalone="no"?>
<!DOCTYPE svg PUBLIC "-//W3C//DTD SVG 1.1//EN"
 "http://www.w3.org/Graphics/SVG/1.1/DTD/svg11.dtd">
<!-- Generated by graphviz version 2.40.1 (20161225.0304)
 -->
<!-- Title: %3 Pages: 1 -->
<svg width="750pt" height="1410pt"
 viewBox="0.00 0.00 750.00 1410.00" xmlns="http://www.w3.org/2000/svg" xmlns:xlink="http://www.w3.org/1999/xlink">
<g id="graph0" class="graph" transform="scale(1 1) rotate(0) translate(4 1406)">
<title>%3</title>
<polygon fill="#ffffff" stroke="transparent" points="-4,4 -4,-1406 746,-1406 746,4 -4,4"/>
<!-- (below main) -->
<g id="node1" class="node">
<title>(below main)</title>
<polygon fill="#ff0000" stroke="#ff0000" points="551,-1196 480,-1196 480,-1133 551,-1133 551,-1196"/>
<text text-anchor="middle" x="515.5" y="-1184" font-family="Arial" font-size="10.00" fill="#ffffff">libc&#45;2.27.so</text>
<text text-anchor="middle" x="515.5" y="-1173" font-family="Arial" font-size="10.00" fill="#ffffff">(below main)</text>
<text text-anchor="middle" x="515.5" y="-1162" font-family="Arial" font-size="10.00" fill="#ffffff">100.00%</text>
<text text-anchor="middle" x="515.5" y="-1151" font-family="Arial" font-size="10.00" fill="#ffffff">(0.00%)</text>
<text text-anchor="middle" x="515.5" y="-1140" font-family="Arial" font-size="10.00" fill="#ffffff">1×</text>
</g>
<!-- main -->
<g id="node2" class="node">
<title>main</title>
<polygon fill="#ff0000" stroke="#ff0000" points="543,-1093 488,-1093 488,-1030 543,-1030 543,-1093"/>
<text text-anchor="middle" x="515.5" y="-1081" font-family="Arial" font-size="10.00" fill="#ffffff">csteen</text>
<text text-anchor="middle" x="515.5" y="-1070" font-family="Arial" font-size="10.00" fill="#ffffff">main</text>
<text text-anchor="middle" x="515.5" y="-1059" font-family="Arial" font-size="10.00" fill="#ffffff">100.00%</text>
<text text-anchor="middle" x="515.5" y="-1048" font-family="Arial" font-size="10.00" fill="#ffffff">(0.00%)</text>
<text text-anchor="middle" x="515.5" y="-1037" font-family="Arial" font-size="10.00" fill="#ffffff">1×</text>
</g>
<!-- (below main)&#45;&gt;main -->
<g id="edge1" class="edge">
<title>(below main)&#45;&gt;main</title>
<path fill="none" stroke="#ff0000" stroke-width="4" d="M515.5,-1132.7562C515.5,-1123.5536 515.5,-1113.3591 515.5,-1103.6267"/>
<polygon fill="#ff0000" stroke="#ff0000" stroke-width="4" points="519.0001,-1103.3163 515.5,-1093.3163 512.0001,-1103.3164 519.0001,-1103.3163"/>
<text text-anchor="middle" x="535" y="-1116" font-family="Arial" font-size="10.00" fill="#ff0000">100.00%</text>
<text text-anchor="middle" x="535" y="-1105" font-family="Arial" font-size="10.00" fill="#ff0000">1×</text>
</g>
<!-- Resolution_resolveThroughDegree -->
<g id="node21" class="node">
<title>Resolution_resolveThroughDegree</title>
<polygon fill="#ff0100" stroke="#ff0100" points="598,-990 433,-990 433,-927 598,-927 598,-990"/>
<text text-anchor="middle" x="515.5" y="-978" font-family="Arial" font-size="10.00" fill="#ffffff">csteen</text>
<text text-anchor="middle" x="515.5" y="-967" font-family="Arial" font-size="10.00" fill="#ffffff">Resolution_resolveThroughDegree</text>
<text text-anchor="middle" x="515.5" y="-956" font-family="Arial" font-size="10.00" fill="#ffffff">99.93%</text>
<text text-anchor="middle" x="515.5" y="-945" font-family="Arial" font-size="10.00" fill="#ffffff">(0.00%)</text>
<text text-anchor="middle" x="515.5" y="-934" font-family="Arial" font-size="10.00" fill="#ffffff">1×</text>
</g>
<!-- main&#45;&gt;Resolution_resolveThroughDegree -->
<g id="edge29" class="edge">
<title>main&#45;&gt;Resolution_resolveThroughDegree</title>
<path fill="none" stroke="#ff0100" stroke-width="4" d="M515.5,-1029.7562C515.5,-1020.5536 515.5,-1010.3591 515.5,-1000.6267"/>
<polygon fill="#ff0100" stroke="#ff0100" stroke-width="4" points="519.0001,-1000.3163 515.5,-990.3163 512.0001,-1000.3164 519.0001,-1000.3163"/>
<text text-anchor="middle" x="532.5" y="-1013" font-family="Arial" font-size="10.00" fill="#ff0100">99.93%</text>
<text text-anchor="middle" x="532.5" y="-1002" font-family="Arial" font-size="10.00" fill="#ff0100">1×</text>
</g>
<!-- 0x0000000000000f60 -->
<g id="node3" class="node">
<title>0x0000000000000f60</title>
<polygon fill="#ff0000" stroke="#ff0000" points="570,-1402 461,-1402 461,-1339 570,-1339 570,-1402"/>
<text text-anchor="middle" x="515.5" y="-1390" font-family="Arial" font-size="10.00" fill="#ffffff">ld&#45;2.27.so</text>
<text text-anchor="middle" x="515.5" y="-1379" font-family="Arial" font-size="10.00" fill="#ffffff">0x0000000000000f60</text>
<text text-anchor="middle" x="515.5" y="-1368" font-family="Arial" font-size="10.00" fill="#ffffff">100.00%</text>
<text text-anchor="middle" x="515.5" y="-1357" font-family="Arial" font-size="10.00" fill="#ffffff">(0.00%)</text>
<text text-anchor="middle" x="515.5" y="-1346" font-family="Arial" font-size="10.00" fill="#ffffff">0×</text>
</g>
<!-- _start -->
<g id="node4" class="node">
<title>_start</title>
<polygon fill="#ff0000" stroke="#ff0000" points="543,-1299 488,-1299 488,-1236 543,-1236 543,-1299"/>
<text text-anchor="middle" x="515.5" y="-1287" font-family="Arial" font-size="10.00" fill="#ffffff">csteen</text>
<text text-anchor="middle" x="515.5" y="-1276" font-family="Arial" font-size="10.00" fill="#ffffff">_start</text>
<text text-anchor="middle" x="515.5" y="-1265" font-family="Arial" font-size="10.00" fill="#ffffff">100.00%</text>
<text text-anchor="middle" x="515.5" y="-1254" font-family="Arial" font-size="10.00" fill="#ffffff">(0.00%)</text>
<text text-anchor="middle" x="515.5" y="-1243" font-family="Arial" font-size="10.00" fill="#ffffff">1×</text>
</g>
<!-- 0x0000000000000f60&#45;&gt;_start -->
<g id="edge2" class="edge">
<title>0x0000000000000f60&#45;&gt;_start</title>
<path fill="none" stroke="#ff0000" stroke-width="4" d="M515.5,-1338.7562C515.5,-1329.5536 515.5,-1319.3591 515.5,-1309.6267"/>
<polygon fill="#ff0000" stroke="#ff0000" stroke-width="4" points="519.0001,-1309.3163 515.5,-1299.3163 512.0001,-1309.3164 519.0001,-1309.3163"/>
<text text-anchor="middle" x="535" y="-1322" font-family="Arial" font-size="10.00" fill="#ff0000">100.00%</text>
<text text-anchor="middle" x="535" y="-1311" font-family="Arial" font-size="10.00" fill="#ff0000">1×</text>
</g>
<!-- _start&#45;&gt;(below main) -->
<g id="edge27" class="edge">
<title>_start&#45;&gt;(below main)</title>
<path fill="none" stroke="#ff0000" stroke-width="4" d="M515.5,-1235.7562C515.5,-1226.5536 515.5,-1216.3591 515.5,-1206.6267"/>
<polygon fill="#ff0000" stroke="#ff0000" stroke-width="4" points="519.0001,-1206.3163 515.5,-1196.3163 512.0001,-1206.3164 519.0001,-1206.3163"/>
<text text-anchor="middle" x="535" y="-1219" font-family="Arial" font-size="10.00" fill="#ff0000">100.00%</text>
<text text-anchor="middle" x="535" y="-1208" font-family="Arial" font-size="10.00" fill="#ff0000">1×</text>
</g>
<!-- FreeModuleHomomorphism_getMatrix -->
<g id="node5" class="node">
<title>FreeModuleHomomorphism_getMatrix</title>
<polygon fill="#0c9885" stroke="#0c9885" points="540.5,-681 358.5,-681 358.5,-618 540.5,-618 540.5,-681"/>
<text text-anchor="middle" x="449.5" y="-669" font-family="Arial" font-size="10.00" fill="#ffffff">csteen</text>
<text text-anchor="middle" x="449.5" y="-658" font-family="Arial" font-size="10.00" fill="#ffffff">FreeModuleHomomorphism_getMatrix</text>
<text text-anchor="middle" x="449.5" y="-647" font-family="Arial" font-size="10.00" fill="#ffffff">28.34%</text>
<text text-anchor="middle" x="449.5" y="-636" font-family="Arial" font-size="10.00" fill="#ffffff">(0.37%)</text>
<text text-anchor="middle" x="449.5" y="-625" font-family="Arial" font-size="10.00" fill="#ffffff">1275×</text>
</g>
<!-- FreeModule_actOnBasis -->
<g id="node6" class="node">
<title>FreeModule_actOnBasis</title>
<polygon fill="#0c968c" stroke="#0c968c" points="436.5,-578 312.5,-578 312.5,-515 436.5,-515 436.5,-578"/>
<text text-anchor="middle" x="374.5" y="-566" font-family="Arial" font-size="10.00" fill="#ffffff">csteen</text>
<text text-anchor="middle" x="374.5" y="-555" font-family="Arial" font-size="10.00" fill="#ffffff">FreeModule_actOnBasis</text>
<text text-anchor="middle" x="374.5" y="-544" font-family="Arial" font-size="10.00" fill="#ffffff">26.84%</text>
<text text-anchor="middle" x="374.5" y="-533" font-family="Arial" font-size="10.00" fill="#ffffff">(0.46%)</text>
<text text-anchor="middle" x="374.5" y="-522" font-family="Arial" font-size="10.00" fill="#ffffff">283970×</text>
</g>
<!-- FreeModuleHomomorphism_getMatrix&#45;&gt;FreeModule_actOnBasis -->
<g id="edge3" class="edge">
<title>FreeModuleHomomorphism_getMatrix&#45;&gt;FreeModule_actOnBasis</title>
<path fill="none" stroke="#0c968c" stroke-width="1.07" d="M426.3856,-617.7562C418.3302,-606.6935 409.2311,-594.1974 400.9276,-582.7939"/>
<polygon fill="#0c968c" stroke="#0c968c" stroke-width="1.07" points="402.1995,-581.4487 397.6672,-578.3163 399.2569,-583.5913 402.1995,-581.4487"/>
<text text-anchor="middle" x="438.5" y="-601" font-family="Arial" font-size="10.00" fill="#0c968c">26.84%</text>
<text text-anchor="middle" x="438.5" y="-590" font-family="Arial" font-size="10.00" fill="#0c968c">283970×</text>
</g>
<!-- Vector_stepIterator -->
<g id="node7" class="node">
<title>Vector_stepIterator</title>
<polygon fill="#0aad33" stroke="#0aad33" points="605,-578 506,-578 506,-515 605,-515 605,-578"/>
<text text-anchor="middle" x="555.5" y="-566" font-family="Arial" font-size="10.00" fill="#ffffff">csteen</text>
<text text-anchor="middle" x="555.5" y="-555" font-family="Arial" font-size="10.00" fill="#ffffff">Vector_stepIterator</text>
<text text-anchor="middle" x="555.5" y="-544" font-family="Arial" font-size="10.00" fill="#ffffff">43.68%</text>
<text text-anchor="middle" x="555.5" y="-533" font-family="Arial" font-size="10.00" fill="#ffffff">(34.23%)</text>
<text text-anchor="middle" x="555.5" y="-522" font-family="Arial" font-size="10.00" fill="#ffffff">53789215×</text>
</g>
<!-- FreeModuleHomomorphism_getMatrix&#45;&gt;Vector_stepIterator -->
<g id="edge4" class="edge">
<title>FreeModuleHomomorphism_getMatrix&#45;&gt;Vector_stepIterator</title>
<path fill="none" stroke="#0d1174" stroke-width=".5" d="M482.1684,-617.7562C494.1578,-606.1061 507.7832,-592.8663 520.0085,-580.987"/>
<polygon fill="#0d1174" stroke="#0d1174" stroke-width=".5" points="521.1005,-581.634 522.757,-578.3163 519.3931,-579.8769 521.1005,-581.634"/>
<text text-anchor="middle" x="534" y="-601" font-family="Arial" font-size="10.00" fill="#0d1174">1.04%</text>
<text text-anchor="middle" x="534" y="-590" font-family="Arial" font-size="10.00" fill="#0d1174">1323326×</text>
</g>
<!-- FreeModule_getDimension -->
<g id="node8" class="node">
<title>FreeModule_getDimension</title>
<polygon fill="#0d267a" stroke="#0d267a" points="329.5,-475 197.5,-475 197.5,-412 329.5,-412 329.5,-475"/>
<text text-anchor="middle" x="263.5" y="-463" font-family="Arial" font-size="10.00" fill="#ffffff">csteen</text>
<text text-anchor="middle" x="263.5" y="-452" font-family="Arial" font-size="10.00" fill="#ffffff">FreeModule_getDimension</text>
<text text-anchor="middle" x="263.5" y="-441" font-family="Arial" font-size="10.00" fill="#ffffff">5.85%</text>
<text text-anchor="middle" x="263.5" y="-430" font-family="Arial" font-size="10.00" fill="#ffffff">(2.89%)</text>
<text text-anchor="middle" x="263.5" y="-419" font-family="Arial" font-size="10.00" fill="#ffffff">290451×</text>
</g>
<!-- FreeModule_actOnBasis&#45;&gt;FreeModule_getDimension -->
<g id="edge5" class="edge">
<title>FreeModule_actOnBasis&#45;&gt;FreeModule_getDimension</title>
<path fill="none" stroke="#0d267a" stroke-width=".5" d="M312.8609,-514.7557C309.2062,-511.9929 305.7145,-509.0715 302.5,-506 294.2751,-498.141 287.0576,-488.1983 281.1404,-478.5686"/>
<polygon fill="#0d267a" stroke="#0d267a" stroke-width=".5" points="282.0385,-477.6852 279.1839,-475.3183 279.9394,-478.9487 282.0385,-477.6852"/>
<text text-anchor="middle" x="321.5" y="-498" font-family="Arial" font-size="10.00" fill="#0d267a">5.74%</text>
<text text-anchor="middle" x="321.5" y="-487" font-family="Arial" font-size="10.00" fill="#0d267a">283970×</text>
</g>
<!-- MilnorAlgebra_getDimension -->
<g id="node9" class="node">
<title>MilnorAlgebra_getDimension</title>
<polygon fill="#0d1b77" stroke="#0d1b77" points="356.5,-372 216.5,-372 216.5,-309 356.5,-309 356.5,-372"/>
<text text-anchor="middle" x="286.5" y="-360" font-family="Arial" font-size="10.00" fill="#ffffff">csteen</text>
<text text-anchor="middle" x="286.5" y="-349" font-family="Arial" font-size="10.00" fill="#ffffff">MilnorAlgebra_getDimension</text>
<text text-anchor="middle" x="286.5" y="-338" font-family="Arial" font-size="10.00" fill="#ffffff">3.25%</text>
<text text-anchor="middle" x="286.5" y="-327" font-family="Arial" font-size="10.00" fill="#ffffff">(3.25%)</text>
<text text-anchor="middle" x="286.5" y="-316" font-family="Arial" font-size="10.00" fill="#ffffff">13824090×</text>
</g>
<!-- FreeModule_actOnBasis&#45;&gt;MilnorAlgebra_getDimension -->
<g id="edge6" class="edge">
<title>FreeModule_actOnBasis&#45;&gt;MilnorAlgebra_getDimension</title>
<path fill="none" stroke="#0d0d73" stroke-width=".5" d="M364.4217,-514.9195C360.5577,-502.5144 356.1931,-488.1273 352.5,-475 340.823,-433.4933 350.1776,-418.2725 328.5,-381 327.3637,-379.0463 326.1064,-377.1254 324.7579,-375.2466"/>
<polygon fill="#0d0d73" stroke="#0d0d73" stroke-width=".5" points="325.6491,-374.3933 322.5679,-372.3301 323.69,-375.8645 325.6491,-374.3933"/>
<text text-anchor="middle" x="371.5" y="-446.5" font-family="Arial" font-size="10.00" fill="#0d0d73">0.13%</text>
<text text-anchor="middle" x="371.5" y="-435.5" font-family="Arial" font-size="10.00" fill="#0d0d73">567940×</text>
</g>
<!-- MilnorAlgebra_multiply -->
<g id="node10" class="node">
<title>MilnorAlgebra_multiply</title>
<polygon fill="#0c718c" stroke="#0c718c" points="510,-475 395,-475 395,-412 510,-412 510,-475"/>
<text text-anchor="middle" x="452.5" y="-463" font-family="Arial" font-size="10.00" fill="#ffffff">csteen</text>
<text text-anchor="middle" x="452.5" y="-452" font-family="Arial" font-size="10.00" fill="#ffffff">MilnorAlgebra_multiply</text>
<text text-anchor="middle" x="452.5" y="-441" font-family="Arial" font-size="10.00" fill="#ffffff">19.66%</text>
<text text-anchor="middle" x="452.5" y="-430" font-family="Arial" font-size="10.00" fill="#ffffff">(0.36%)</text>
<text text-anchor="middle" x="452.5" y="-419" font-family="Arial" font-size="10.00" fill="#ffffff">283970×</text>
</g>
<!-- FreeModule_actOnBasis&#45;&gt;MilnorAlgebra_multiply -->
<g id="edge7" class="edge">
<title>FreeModule_actOnBasis&#45;&gt;MilnorAlgebra_multiply</title>
<path fill="none" stroke="#0c718c" stroke-width=".79" d="M398.539,-514.7562C407.139,-503.3998 416.8829,-490.5328 425.7013,-478.888"/>
<polygon fill="#0c718c" stroke="#0c718c" stroke-width=".79" points="426.9774,-479.7538 428.4061,-475.3163 424.522,-477.8943 426.9774,-479.7538"/>
<text text-anchor="middle" x="439.5" y="-498" font-family="Arial" font-size="10.00" fill="#0c718c">19.66%</text>
<text text-anchor="middle" x="439.5" y="-487" font-family="Arial" font-size="10.00" fill="#0c718c">283970×</text>
</g>
<!-- getBitlength -->
<g id="node24" class="node">
<title>getBitlength</title>
<polygon fill="#0d2379" stroke="#0d2379" points="710.5,-372 642.5,-372 642.5,-309 710.5,-309 710.5,-372"/>
<text text-anchor="middle" x="676.5" y="-360" font-family="Arial" font-size="10.00" fill="#ffffff">csteen</text>
<text text-anchor="middle" x="676.5" y="-349" font-family="Arial" font-size="10.00" fill="#ffffff">getBitlength</text>
<text text-anchor="middle" x="676.5" y="-338" font-family="Arial" font-size="10.00" fill="#ffffff">5.05%</text>
<text text-anchor="middle" x="676.5" y="-327" font-family="Arial" font-size="10.00" fill="#ffffff">(5.05%)</text>
<text text-anchor="middle" x="676.5" y="-316" font-family="Arial" font-size="10.00" fill="#ffffff">57227837×</text>
</g>
<!-- Vector_stepIterator&#45;&gt;getBitlength -->
<g id="edge26" class="edge">
<title>Vector_stepIterator&#45;&gt;getBitlength</title>
<path fill="none" stroke="#0d2179" stroke-width=".5" d="M541.8996,-514.7596C531.792,-485.8876 522.6925,-443.152 541.5,-412 561.2282,-379.323 583.775,-389.8777 617.5,-372 624.3769,-368.3546 631.6975,-364.4585 638.7581,-360.693"/>
<polygon fill="#0d2179" stroke="#0d2179" stroke-width=".5" points="639.6888,-361.585 642.2002,-358.8567 638.5355,-359.4234 639.6888,-361.585"/>
<text text-anchor="middle" x="566" y="-446.5" font-family="Arial" font-size="10.00" fill="#0d2179">4.73%</text>
<text text-anchor="middle" x="566" y="-435.5" font-family="Arial" font-size="10.00" fill="#0d2179">53631781×</text>
</g>
<!-- getBitMask -->
<g id="node27" class="node">
<title>getBitMask</title>
<polygon fill="#0d2179" stroke="#0d2179" points="661.5,-475 595.5,-475 595.5,-412 661.5,-412 661.5,-475"/>
<text text-anchor="middle" x="628.5" y="-463" font-family="Arial" font-size="10.00" fill="#ffffff">csteen</text>
<text text-anchor="middle" x="628.5" y="-452" font-family="Arial" font-size="10.00" fill="#ffffff">getBitMask</text>
<text text-anchor="middle" x="628.5" y="-441" font-family="Arial" font-size="10.00" fill="#ffffff">4.75%</text>
<text text-anchor="middle" x="628.5" y="-430" font-family="Arial" font-size="10.00" fill="#ffffff">(4.75%)</text>
<text text-anchor="middle" x="628.5" y="-419" font-family="Arial" font-size="10.00" fill="#ffffff">53852838×</text>
</g>
<!-- Vector_stepIterator&#45;&gt;getBitMask -->
<g id="edge25" class="edge">
<title>Vector_stepIterator&#45;&gt;getBitMask</title>
<path fill="none" stroke="#0d2179" stroke-width=".5" d="M577.9981,-514.7562C586.1855,-503.204 595.4808,-490.0887 603.8453,-478.2868"/>
<polygon fill="#0d2179" stroke="#0d2179" stroke-width=".5" points="604.9261,-478.8802 605.9506,-475.3163 602.9272,-477.4635 604.9261,-478.8802"/>
<text text-anchor="middle" x="624" y="-498" font-family="Arial" font-size="10.00" fill="#0d2179">4.73%</text>
<text text-anchor="middle" x="624" y="-487" font-family="Arial" font-size="10.00" fill="#0d2179">53631781×</text>
</g>
<!-- FreeModule_getDimension&#45;&gt;MilnorAlgebra_getDimension -->
<g id="edge8" class="edge">
<title>FreeModule_getDimension&#45;&gt;MilnorAlgebra_getDimension</title>
<path fill="none" stroke="#0d1977" stroke-width=".5" d="M270.5884,-411.7562C273.1243,-400.3998 275.9975,-387.5328 278.5978,-375.888"/>
<polygon fill="#0d1977" stroke="#0d1977" stroke-width=".5" points="279.8281,-375.9992 279.3954,-372.3163 277.437,-375.4652 279.8281,-375.9992"/>
<text text-anchor="middle" x="302" y="-395" font-family="Arial" font-size="10.00" fill="#0d1977">2.95%</text>
<text text-anchor="middle" x="302" y="-384" font-family="Arial" font-size="10.00" fill="#0d1977">12557379×</text>
</g>
<!-- MilnorAlgebra_multiply&#45;&gt;MilnorAlgebra_getDimension -->
<g id="edge15" class="edge">
<title>MilnorAlgebra_multiply&#45;&gt;MilnorAlgebra_getDimension</title>
<path fill="none" stroke="#0d0d73" stroke-width=".5" d="M403.5835,-411.8901C387.9629,-401.9072 370.5611,-390.9012 354.5,-381 350.8448,-378.7466 347.0686,-376.4399 343.2556,-374.1264"/>
<polygon fill="#0d0d73" stroke="#0d0d73" stroke-width=".5" points="343.6742,-372.9478 340.0458,-372.1826 342.405,-375.0435 343.6742,-372.9478"/>
<text text-anchor="middle" x="406.5" y="-395" font-family="Arial" font-size="10.00" fill="#0d0d73">0.13%</text>
<text text-anchor="middle" x="406.5" y="-384" font-family="Arial" font-size="10.00" fill="#0d0d73">567940×</text>
</g>
<!-- MilnorAlgebra__multiplyEven -->
<g id="node11" class="node">
<title>MilnorAlgebra__multiplyEven</title>
<polygon fill="#0c5a87" stroke="#0c5a87" points="509,-372 366,-372 366,-309 509,-309 509,-372"/>
<text text-anchor="middle" x="437.5" y="-360" font-family="Arial" font-size="10.00" fill="#ffffff">csteen</text>
<text text-anchor="middle" x="437.5" y="-349" font-family="Arial" font-size="10.00" fill="#ffffff">MilnorAlgebra__multiplyEven</text>
<text text-anchor="middle" x="437.5" y="-338" font-family="Arial" font-size="10.00" fill="#ffffff">15.74%</text>
<text text-anchor="middle" x="437.5" y="-327" font-family="Arial" font-size="10.00" fill="#ffffff">(5.28%)</text>
<text text-anchor="middle" x="437.5" y="-316" font-family="Arial" font-size="10.00" fill="#ffffff">283970×</text>
</g>
<!-- MilnorAlgebra_multiply&#45;&gt;MilnorAlgebra__multiplyEven -->
<g id="edge14" class="edge">
<title>MilnorAlgebra_multiply&#45;&gt;MilnorAlgebra__multiplyEven</title>
<path fill="none" stroke="#0c5a87" stroke-width=".63" d="M442.335,-411.834C441.6207,-408.8691 440.9905,-405.8921 440.5,-403 439.0482,-394.4402 438.2105,-385.1334 437.7449,-376.3804"/>
<polygon fill="#0c5a87" stroke="#0c5a87" stroke-width=".63" points="439.1317,-376.0634 437.5452,-372.1336 436.3347,-376.195 439.1317,-376.0634"/>
<text text-anchor="middle" x="459.5" y="-395" font-family="Arial" font-size="10.00" fill="#0c5a87">15.74%</text>
<text text-anchor="middle" x="459.5" y="-384" font-family="Arial" font-size="10.00" fill="#0c5a87">283970×</text>
</g>
<!-- Vector_addArray -->
<g id="node17" class="node">
<title>Vector_addArray</title>
<polygon fill="#0d1a77" stroke="#0d1a77" points="613,-372 524,-372 524,-309 613,-309 613,-372"/>
<text text-anchor="middle" x="568.5" y="-360" font-family="Arial" font-size="10.00" fill="#ffffff">csteen</text>
<text text-anchor="middle" x="568.5" y="-349" font-family="Arial" font-size="10.00" fill="#ffffff">Vector_addArray</text>
<text text-anchor="middle" x="568.5" y="-338" font-family="Arial" font-size="10.00" fill="#ffffff">3.18%</text>
<text text-anchor="middle" x="568.5" y="-327" font-family="Arial" font-size="10.00" fill="#ffffff">(0.05%)</text>
<text text-anchor="middle" x="568.5" y="-316" font-family="Arial" font-size="10.00" fill="#ffffff">283970×</text>
</g>
<!-- MilnorAlgebra_multiply&#45;&gt;Vector_addArray -->
<g id="edge16" class="edge">
<title>MilnorAlgebra_multiply&#45;&gt;Vector_addArray</title>
<path fill="none" stroke="#0d1a77" stroke-width=".5" d="M471.659,-411.7915C480.4287,-397.6206 489.5274,-383.52 492.5,-381 500.2456,-374.4337 504.4125,-376.5308 513.5,-372 515.8019,-370.8523 518.142,-369.6516 520.4941,-368.4171"/>
<polygon fill="#0d1a77" stroke="#0d1a77" stroke-width=".5" points="521.1876,-369.436 523.7065,-366.7146 520.0403,-367.2713 521.1876,-369.436"/>
<text text-anchor="middle" x="511.5" y="-395" font-family="Arial" font-size="10.00" fill="#0d1a77">3.18%</text>
<text text-anchor="middle" x="511.5" y="-384" font-family="Arial" font-size="10.00" fill="#0d1a77">283970×</text>
</g>
<!-- MilnorAlgebra_basisElement_toIndex -->
<g id="node12" class="node">
<title>MilnorAlgebra_basisElement_toIndex</title>
<polygon fill="#0d1f78" stroke="#0d1f78" points="333.5,-269 155.5,-269 155.5,-206 333.5,-206 333.5,-269"/>
<text text-anchor="middle" x="244.5" y="-257" font-family="Arial" font-size="10.00" fill="#ffffff">csteen</text>
<text text-anchor="middle" x="244.5" y="-246" font-family="Arial" font-size="10.00" fill="#ffffff">MilnorAlgebra_basisElement_toIndex</text>
<text text-anchor="middle" x="244.5" y="-235" font-family="Arial" font-size="10.00" fill="#ffffff">4.14%</text>
<text text-anchor="middle" x="244.5" y="-224" font-family="Arial" font-size="10.00" fill="#ffffff">(0.53%)</text>
<text text-anchor="middle" x="244.5" y="-213" font-family="Arial" font-size="10.00" fill="#ffffff">463183×</text>
</g>
<!-- MilnorAlgebra__multiplyEven&#45;&gt;MilnorAlgebra_basisElement_toIndex -->
<g id="edge9" class="edge">
<title>MilnorAlgebra__multiplyEven&#45;&gt;MilnorAlgebra_basisElement_toIndex</title>
<path fill="none" stroke="#0d1f78" stroke-width=".5" d="M371.6145,-308.8214C365.8031,-305.8853 360.031,-302.9171 354.5,-300 337.1968,-290.8743 318.6194,-280.5335 301.7486,-270.9278"/>
<polygon fill="#0d1f78" stroke="#0d1f78" stroke-width=".5" points="302.0453,-269.6868 298.3981,-269.017 300.8316,-271.815 302.0453,-269.6868"/>
<text text-anchor="middle" x="373.5" y="-292" font-family="Arial" font-size="10.00" fill="#0d1f78">4.14%</text>
<text text-anchor="middle" x="373.5" y="-281" font-family="Arial" font-size="10.00" fill="#0d1f78">463183×</text>
</g>
<!-- Multinomial -->
<g id="node13" class="node">
<title>Multinomial</title>
<polygon fill="#0d1575" stroke="#0d1575" points="408.5,-269 342.5,-269 342.5,-206 408.5,-206 408.5,-269"/>
<text text-anchor="middle" x="375.5" y="-257" font-family="Arial" font-size="10.00" fill="#ffffff">csteen</text>
<text text-anchor="middle" x="375.5" y="-246" font-family="Arial" font-size="10.00" fill="#ffffff">Multinomial</text>
<text text-anchor="middle" x="375.5" y="-235" font-family="Arial" font-size="10.00" fill="#ffffff">2.07%</text>
<text text-anchor="middle" x="375.5" y="-224" font-family="Arial" font-size="10.00" fill="#ffffff">(0.48%)</text>
<text text-anchor="middle" x="375.5" y="-213" font-family="Arial" font-size="10.00" fill="#ffffff">3083083×</text>
</g>
<!-- MilnorAlgebra__multiplyEven&#45;&gt;Multinomial -->
<g id="edge10" class="edge">
<title>MilnorAlgebra__multiplyEven&#45;&gt;Multinomial</title>
<path fill="none" stroke="#0d1575" stroke-width=".5" d="M411.3291,-308.6961C409.2764,-305.8119 407.3033,-302.8885 405.5,-300 400.107,-291.3617 395.0018,-281.6063 390.5833,-272.4158"/>
<polygon fill="#0d1575" stroke="#0d1575" stroke-width=".5" points="391.5964,-271.6935 388.9872,-269.0585 389.3837,-272.7455 391.5964,-271.6935"/>
<text text-anchor="middle" x="427" y="-292" font-family="Arial" font-size="10.00" fill="#0d1575">2.07%</text>
<text text-anchor="middle" x="427" y="-281" font-family="Arial" font-size="10.00" fill="#0d1575">3083083×</text>
</g>
<!-- milnor_matrix_step -->
<g id="node14" class="node">
<title>milnor_matrix_step</title>
<polygon fill="#0d1976" stroke="#0d1976" points="517,-269 418,-269 418,-206 517,-206 517,-269"/>
<text text-anchor="middle" x="467.5" y="-257" font-family="Arial" font-size="10.00" fill="#ffffff">csteen</text>
<text text-anchor="middle" x="467.5" y="-246" font-family="Arial" font-size="10.00" fill="#ffffff">milnor_matrix_step</text>
<text text-anchor="middle" x="467.5" y="-235" font-family="Arial" font-size="10.00" fill="#ffffff">2.92%</text>
<text text-anchor="middle" x="467.5" y="-224" font-family="Arial" font-size="10.00" fill="#ffffff">(1.85%)</text>
<text text-anchor="middle" x="467.5" y="-213" font-family="Arial" font-size="10.00" fill="#ffffff">1617537×</text>
</g>
<!-- MilnorAlgebra__multiplyEven&#45;&gt;milnor_matrix_step -->
<g id="edge11" class="edge">
<title>MilnorAlgebra__multiplyEven&#45;&gt;milnor_matrix_step</title>
<path fill="none" stroke="#0d1976" stroke-width=".5" d="M446.7458,-308.7562C450.0534,-297.3998 453.8011,-284.5328 457.1928,-272.888"/>
<polygon fill="#0d1976" stroke="#0d1976" stroke-width=".5" points="458.4304,-273.0193 458.2331,-269.3163 456.0782,-272.3341 458.4304,-273.0193"/>
<text text-anchor="middle" x="477" y="-292" font-family="Arial" font-size="10.00" fill="#0d1976">2.92%</text>
<text text-anchor="middle" x="477" y="-281" font-family="Arial" font-size="10.00" fill="#0d1976">1617537×</text>
</g>
<!-- MilnorAlgebra_basisElement_toKey -->
<g id="node15" class="node">
<title>MilnorAlgebra_basisElement_toKey</title>
<polygon fill="#0d1375" stroke="#0d1375" points="171,-166 0,-166 0,-103 171,-103 171,-166"/>
<text text-anchor="middle" x="85.5" y="-154" font-family="Arial" font-size="10.00" fill="#ffffff">csteen</text>
<text text-anchor="middle" x="85.5" y="-143" font-family="Arial" font-size="10.00" fill="#ffffff">MilnorAlgebra_basisElement_toKey</text>
<text text-anchor="middle" x="85.5" y="-132" font-family="Arial" font-size="10.00" fill="#ffffff">1.54%</text>
<text text-anchor="middle" x="85.5" y="-121" font-family="Arial" font-size="10.00" fill="#ffffff">(1.49%)</text>
<text text-anchor="middle" x="85.5" y="-110" font-family="Arial" font-size="10.00" fill="#ffffff">465240×</text>
</g>
<!-- MilnorAlgebra_basisElement_toIndex&#45;&gt;MilnorAlgebra_basisElement_toKey -->
<g id="edge12" class="edge">
<title>MilnorAlgebra_basisElement_toIndex&#45;&gt;MilnorAlgebra_basisElement_toKey</title>
<path fill="none" stroke="#0d1375" stroke-width=".5" d="M195.4974,-205.7562C177.1248,-193.8545 156.191,-180.2935 137.5518,-168.2191"/>
<polygon fill="#0d1375" stroke="#0d1375" stroke-width=".5" points="137.9444,-167.0138 134.3408,-166.139 136.6123,-169.0701 137.9444,-167.0138"/>
<text text-anchor="middle" x="198.5" y="-189" font-family="Arial" font-size="10.00" fill="#0d1375">1.54%</text>
<text text-anchor="middle" x="198.5" y="-178" font-family="Arial" font-size="10.00" fill="#0d1375">463183×</text>
</g>
<!-- kh_get_monomial_index_map -->
<g id="node16" class="node">
<title>kh_get_monomial_index_map</title>
<polygon fill="#0d1575" stroke="#0d1575" points="326.5,-166 180.5,-166 180.5,-103 326.5,-103 326.5,-166"/>
<text text-anchor="middle" x="253.5" y="-154" font-family="Arial" font-size="10.00" fill="#ffffff">csteen</text>
<text text-anchor="middle" x="253.5" y="-143" font-family="Arial" font-size="10.00" fill="#ffffff">kh_get_monomial_index_map</text>
<text text-anchor="middle" x="253.5" y="-132" font-family="Arial" font-size="10.00" fill="#ffffff">2.07%</text>
<text text-anchor="middle" x="253.5" y="-121" font-family="Arial" font-size="10.00" fill="#ffffff">(0.62%)</text>
<text text-anchor="middle" x="253.5" y="-110" font-family="Arial" font-size="10.00" fill="#ffffff">463183×</text>
</g>
<!-- MilnorAlgebra_basisElement_toIndex&#45;&gt;kh_get_monomial_index_map -->
<g id="edge13" class="edge">
<title>MilnorAlgebra_basisElement_toIndex&#45;&gt;kh_get_monomial_index_map</title>
<path fill="none" stroke="#0d1575" stroke-width=".5" d="M247.2737,-205.7562C248.266,-194.3998 249.3903,-181.5328 250.4078,-169.888"/>
<polygon fill="#0d1575" stroke="#0d1575" stroke-width=".5" points="251.6355,-169.9097 250.7199,-166.3163 249.1948,-169.6964 251.6355,-169.9097"/>
<text text-anchor="middle" x="269.5" y="-189" font-family="Arial" font-size="10.00" fill="#0d1575">2.07%</text>
<text text-anchor="middle" x="269.5" y="-178" font-family="Arial" font-size="10.00" fill="#0d1575">463183×</text>
</g>
<!-- Multinomial2 -->
<g id="node18" class="node">
<title>Multinomial2</title>
<polygon fill="#0d1375" stroke="#0d1375" points="409,-166 338,-166 338,-103 409,-103 409,-166"/>
<text text-anchor="middle" x="373.5" y="-154" font-family="Arial" font-size="10.00" fill="#ffffff">csteen</text>
<text text-anchor="middle" x="373.5" y="-143" font-family="Arial" font-size="10.00" fill="#ffffff">Multinomial2</text>
<text text-anchor="middle" x="373.5" y="-132" font-family="Arial" font-size="10.00" fill="#ffffff">1.59%</text>
<text text-anchor="middle" x="373.5" y="-121" font-family="Arial" font-size="10.00" fill="#ffffff">(1.59%)</text>
<text text-anchor="middle" x="373.5" y="-110" font-family="Arial" font-size="10.00" fill="#ffffff">3083083×</text>
</g>
<!-- Multinomial&#45;&gt;Multinomial2 -->
<g id="edge17" class="edge">
<title>Multinomial&#45;&gt;Multinomial2</title>
<path fill="none" stroke="#0d1375" stroke-width=".5" d="M374.8836,-205.7562C374.6631,-194.3998 374.4133,-181.5328 374.1871,-169.888"/>
<polygon fill="#0d1375" stroke="#0d1375" stroke-width=".5" points="375.4106,-169.7919 374.1178,-166.3163 372.9611,-169.8395 375.4106,-169.7919"/>
<text text-anchor="middle" x="397" y="-189" font-family="Arial" font-size="10.00" fill="#0d1375">1.59%</text>
<text text-anchor="middle" x="397" y="-178" font-family="Arial" font-size="10.00" fill="#0d1375">3083083×</text>
</g>
<!-- milnor_matrix_step_update_matrix -->
<g id="node29" class="node">
<title>milnor_matrix_step_update_matrix</title>
<polygon fill="#0d1174" stroke="#0d1174" points="584.5,-166 418.5,-166 418.5,-103 584.5,-103 584.5,-166"/>
<text text-anchor="middle" x="501.5" y="-154" font-family="Arial" font-size="10.00" fill="#ffffff">csteen</text>
<text text-anchor="middle" x="501.5" y="-143" font-family="Arial" font-size="10.00" fill="#ffffff">milnor_matrix_step_update_matrix</text>
<text text-anchor="middle" x="501.5" y="-132" font-family="Arial" font-size="10.00" fill="#ffffff">1.07%</text>
<text text-anchor="middle" x="501.5" y="-121" font-family="Arial" font-size="10.00" fill="#ffffff">(1.07%)</text>
<text text-anchor="middle" x="501.5" y="-110" font-family="Arial" font-size="10.00" fill="#ffffff">1333567×</text>
</g>
<!-- milnor_matrix_step&#45;&gt;milnor_matrix_step_update_matrix -->
<g id="edge30" class="edge">
<title>milnor_matrix_step&#45;&gt;milnor_matrix_step_update_matrix</title>
<path fill="none" stroke="#0d1174" stroke-width=".5" d="M477.9786,-205.7562C481.7272,-194.3998 485.9746,-181.5328 489.8185,-169.888"/>
<polygon fill="#0d1174" stroke="#0d1174" stroke-width=".5" points="491.0636,-170.024 490.9975,-166.3163 488.7371,-169.2559 491.0636,-170.024"/>
<text text-anchor="middle" x="510" y="-189" font-family="Arial" font-size="10.00" fill="#0d1174">1.07%</text>
<text text-anchor="middle" x="510" y="-178" font-family="Arial" font-size="10.00" fill="#0d1174">1333567×</text>
</g>
<!-- __ac_X31_hash_string -->
<g id="node28" class="node">
<title>__ac_X31_hash_string</title>
<polygon fill="#0d1174" stroke="#0d1174" points="311.5,-63 195.5,-63 195.5,0 311.5,0 311.5,-63"/>
<text text-anchor="middle" x="253.5" y="-51" font-family="Arial" font-size="10.00" fill="#ffffff">csteen</text>
<text text-anchor="middle" x="253.5" y="-40" font-family="Arial" font-size="10.00" fill="#ffffff">__ac_X31_hash_string</text>
<text text-anchor="middle" x="253.5" y="-29" font-family="Arial" font-size="10.00" fill="#ffffff">1.09%</text>
<text text-anchor="middle" x="253.5" y="-18" font-family="Arial" font-size="10.00" fill="#ffffff">(1.09%)</text>
<text text-anchor="middle" x="253.5" y="-7" font-family="Arial" font-size="10.00" fill="#ffffff">465240×</text>
</g>
<!-- kh_get_monomial_index_map&#45;&gt;__ac_X31_hash_string -->
<g id="edge28" class="edge">
<title>kh_get_monomial_index_map&#45;&gt;__ac_X31_hash_string</title>
<path fill="none" stroke="#0d1174" stroke-width=".5" d="M253.5,-102.7562C253.5,-91.3998 253.5,-78.5328 253.5,-66.888"/>
<polygon fill="#0d1174" stroke="#0d1174" stroke-width=".5" points="254.7251,-66.8163 253.5,-63.3163 252.2751,-66.8164 254.7251,-66.8163"/>
<text text-anchor="middle" x="272.5" y="-86" font-family="Arial" font-size="10.00" fill="#0d1174">1.08%</text>
<text text-anchor="middle" x="272.5" y="-75" font-family="Arial" font-size="10.00" fill="#0d1174">463183×</text>
</g>
<!-- Vector2_addArray -->
<g id="node25" class="node">
<title>Vector2_addArray</title>
<polygon fill="#0d1a77" stroke="#0d1a77" points="620.5,-269 526.5,-269 526.5,-206 620.5,-206 620.5,-269"/>
<text text-anchor="middle" x="573.5" y="-257" font-family="Arial" font-size="10.00" fill="#ffffff">csteen</text>
<text text-anchor="middle" x="573.5" y="-246" font-family="Arial" font-size="10.00" fill="#ffffff">Vector2_addArray</text>
<text text-anchor="middle" x="573.5" y="-235" font-family="Arial" font-size="10.00" fill="#ffffff">3.13%</text>
<text text-anchor="middle" x="573.5" y="-224" font-family="Arial" font-size="10.00" fill="#ffffff">(3.13%)</text>
<text text-anchor="middle" x="573.5" y="-213" font-family="Arial" font-size="10.00" fill="#ffffff">283970×</text>
</g>
<!-- Vector_addArray&#45;&gt;Vector2_addArray -->
<g id="edge24" class="edge">
<title>Vector_addArray&#45;&gt;Vector2_addArray</title>
<path fill="none" stroke="#0d1a77" stroke-width=".5" d="M570.041,-308.7562C570.5922,-297.3998 571.2169,-284.5328 571.7821,-272.888"/>
<polygon fill="#0d1a77" stroke="#0d1a77" stroke-width=".5" points="573.0093,-272.8716 571.9555,-269.3163 570.5622,-272.7528 573.0093,-272.8716"/>
<text text-anchor="middle" x="590.5" y="-292" font-family="Arial" font-size="10.00" fill="#0d1a77">3.13%</text>
<text text-anchor="middle" x="590.5" y="-281" font-family="Arial" font-size="10.00" fill="#0d1a77">283970×</text>
</g>
<!-- Resolution_generateOldKernelAndComputeNewKernel -->
<g id="node19" class="node">
<title>Resolution_generateOldKernelAndComputeNewKernel</title>
<polygon fill="#ff0100" stroke="#ff0100" points="641,-784 390,-784 390,-721 641,-721 641,-784"/>
<text text-anchor="middle" x="515.5" y="-772" font-family="Arial" font-size="10.00" fill="#ffffff">csteen</text>
<text text-anchor="middle" x="515.5" y="-761" font-family="Arial" font-size="10.00" fill="#ffffff">Resolution_generateOldKernelAndComputeNewKernel</text>
<text text-anchor="middle" x="515.5" y="-750" font-family="Arial" font-size="10.00" fill="#ffffff">99.92%</text>
<text text-anchor="middle" x="515.5" y="-739" font-family="Arial" font-size="10.00" fill="#ffffff">(0.08%)</text>
<text text-anchor="middle" x="515.5" y="-728" font-family="Arial" font-size="10.00" fill="#ffffff">1275×</text>
</g>
<!-- Resolution_generateOldKernelAndComputeNewKernel&#45;&gt;FreeModuleHomomorphism_getMatrix -->
<g id="edge18" class="edge">
<title>Resolution_generateOldKernelAndComputeNewKernel&#45;&gt;FreeModuleHomomorphism_getMatrix</title>
<path fill="none" stroke="#0c9885" stroke-width="1.13" d="M495.1593,-720.7562C488.0706,-709.6935 480.0634,-697.1974 472.7563,-685.7939"/>
<polygon fill="#0c9885" stroke="#0c9885" stroke-width="1.13" points="474.3085,-684.778 469.8872,-681.3163 471.1848,-686.7796 474.3085,-684.778"/>
<text text-anchor="middle" x="505.5" y="-704" font-family="Arial" font-size="10.00" fill="#0c9885">28.34%</text>
<text text-anchor="middle" x="505.5" y="-693" font-family="Arial" font-size="10.00" fill="#0c9885">1275×</text>
</g>
<!-- rowReduce -->
<g id="node20" class="node">
<title>rowReduce</title>
<polygon fill="#afd306" stroke="#afd306" points="615,-681 550,-681 550,-618 615,-618 615,-681"/>
<text text-anchor="middle" x="582.5" y="-669" font-family="Arial" font-size="10.00" fill="#ffffff">csteen</text>
<text text-anchor="middle" x="582.5" y="-658" font-family="Arial" font-size="10.00" fill="#ffffff">rowReduce</text>
<text text-anchor="middle" x="582.5" y="-647" font-family="Arial" font-size="10.00" fill="#ffffff">70.62%</text>
<text text-anchor="middle" x="582.5" y="-636" font-family="Arial" font-size="10.00" fill="#ffffff">(20.61%)</text>
<text text-anchor="middle" x="582.5" y="-625" font-family="Arial" font-size="10.00" fill="#ffffff">2550×</text>
</g>
<!-- Resolution_generateOldKernelAndComputeNewKernel&#45;&gt;rowReduce -->
<g id="edge19" class="edge">
<title>Resolution_generateOldKernelAndComputeNewKernel&#45;&gt;rowReduce</title>
<path fill="none" stroke="#afd306" stroke-width="2.82" d="M536.1489,-720.7562C542.7719,-710.5746 550.1847,-699.1788 557.1063,-688.5381"/>
<polygon fill="#afd306" stroke="#afd306" stroke-width="2.82" points="559.6881,-689.9608 561.8039,-681.3163 554.7591,-686.7546 559.6881,-689.9608"/>
<text text-anchor="middle" x="572.5" y="-704" font-family="Arial" font-size="10.00" fill="#afd306">70.62%</text>
<text text-anchor="middle" x="572.5" y="-693" font-family="Arial" font-size="10.00" fill="#afd306">2550×</text>
</g>
<!-- rowReduce&#45;&gt;Vector_stepIterator -->
<g id="edge32" class="edge">
<title>rowReduce&#45;&gt;Vector_stepIterator</title>
<path fill="none" stroke="#0aab3a" stroke-width="1.71" d="M574.1788,-617.7562C571.4329,-607.2809 568.35,-595.5203 565.4924,-584.6192"/>
<polygon fill="#0aab3a" stroke="#0aab3a" stroke-width="1.71" points="567.6891,-584.027 563.8402,-578.3163 563.2878,-585.1808 567.6891,-584.027"/>
<text text-anchor="middle" x="596" y="-601" font-family="Arial" font-size="10.00" fill="#0aab3a">42.64%</text>
<text text-anchor="middle" x="596" y="-590" font-family="Arial" font-size="10.00" fill="#0aab3a">52465889×</text>
</g>
<!-- Vector_add -->
<g id="node26" class="node">
<title>Vector_add</title>
<polygon fill="#0d2d7c" stroke="#0d2d7c" points="714,-578 649,-578 649,-515 714,-515 714,-578"/>
<text text-anchor="middle" x="681.5" y="-566" font-family="Arial" font-size="10.00" fill="#ffffff">csteen</text>
<text text-anchor="middle" x="681.5" y="-555" font-family="Arial" font-size="10.00" fill="#ffffff">Vector_add</text>
<text text-anchor="middle" x="681.5" y="-544" font-family="Arial" font-size="10.00" fill="#ffffff">7.27%</text>
<text text-anchor="middle" x="681.5" y="-533" font-family="Arial" font-size="10.00" fill="#ffffff">(0.36%)</text>
<text text-anchor="middle" x="681.5" y="-522" font-family="Arial" font-size="10.00" fill="#ffffff">2153035×</text>
</g>
<!-- rowReduce&#45;&gt;Vector_add -->
<g id="edge31" class="edge">
<title>rowReduce&#45;&gt;Vector_add</title>
<path fill="none" stroke="#0d2d7c" stroke-width=".5" d="M614.0111,-617.7307C616.8898,-614.7875 619.7542,-611.8437 622.5,-609 631.2357,-599.953 640.6143,-590.0887 649.2657,-580.9258"/>
<polygon fill="#0d2d7c" stroke="#0d2d7c" stroke-width=".5" points="650.4148,-581.4929 651.9257,-578.1064 648.6328,-579.8115 650.4148,-581.4929"/>
<text text-anchor="middle" x="664" y="-601" font-family="Arial" font-size="10.00" fill="#0d2d7c">7.27%</text>
<text text-anchor="middle" x="664" y="-590" font-family="Arial" font-size="10.00" fill="#0d2d7c">2153035×</text>
</g>
<!-- Resolution_step -->
<g id="node22" class="node">
<title>Resolution_step</title>
<polygon fill="#ff0100" stroke="#ff0100" points="558.5,-887 472.5,-887 472.5,-824 558.5,-824 558.5,-887"/>
<text text-anchor="middle" x="515.5" y="-875" font-family="Arial" font-size="10.00" fill="#ffffff">csteen</text>
<text text-anchor="middle" x="515.5" y="-864" font-family="Arial" font-size="10.00" fill="#ffffff">Resolution_step</text>
<text text-anchor="middle" x="515.5" y="-853" font-family="Arial" font-size="10.00" fill="#ffffff">99.93%</text>
<text text-anchor="middle" x="515.5" y="-842" font-family="Arial" font-size="10.00" fill="#ffffff">(0.00%)</text>
<text text-anchor="middle" x="515.5" y="-831" font-family="Arial" font-size="10.00" fill="#ffffff">1275×</text>
</g>
<!-- Resolution_resolveThroughDegree&#45;&gt;Resolution_step -->
<g id="edge20" class="edge">
<title>Resolution_resolveThroughDegree&#45;&gt;Resolution_step</title>
<path fill="none" stroke="#ff0100" stroke-width="4" d="M515.5,-926.7562C515.5,-917.5536 515.5,-907.3591 515.5,-897.6267"/>
<polygon fill="#ff0100" stroke="#ff0100" stroke-width="4" points="519.0001,-897.3163 515.5,-887.3163 512.0001,-897.3164 519.0001,-897.3163"/>
<text text-anchor="middle" x="532.5" y="-910" font-family="Arial" font-size="10.00" fill="#ff0100">99.93%</text>
<text text-anchor="middle" x="532.5" y="-899" font-family="Arial" font-size="10.00" fill="#ff0100">1275×</text>
</g>
<!-- Resolution_step&#45;&gt;Resolution_generateOldKernelAndComputeNewKernel -->
<g id="edge21" class="edge">
<title>Resolution_step&#45;&gt;Resolution_generateOldKernelAndComputeNewKernel</title>
<path fill="none" stroke="#ff0100" stroke-width="4" d="M515.5,-823.7562C515.5,-814.5536 515.5,-804.3591 515.5,-794.6267"/>
<polygon fill="#ff0100" stroke="#ff0100" stroke-width="4" points="519.0001,-794.3163 515.5,-784.3163 512.0001,-794.3164 519.0001,-794.3163"/>
<text text-anchor="middle" x="532.5" y="-807" font-family="Arial" font-size="10.00" fill="#ff0100">99.92%</text>
<text text-anchor="middle" x="532.5" y="-796" font-family="Arial" font-size="10.00" fill="#ff0100">1275×</text>
</g>
<!-- Vector2_add -->
<g id="node23" class="node">
<title>Vector2_add</title>
<polygon fill="#0d2b7c" stroke="#0d2b7c" points="742,-475 671,-475 671,-412 742,-412 742,-475"/>
<text text-anchor="middle" x="706.5" y="-463" font-family="Arial" font-size="10.00" fill="#ffffff">csteen</text>
<text text-anchor="middle" x="706.5" y="-452" font-family="Arial" font-size="10.00" fill="#ffffff">Vector2_add</text>
<text text-anchor="middle" x="706.5" y="-441" font-family="Arial" font-size="10.00" fill="#ffffff">6.91%</text>
<text text-anchor="middle" x="706.5" y="-430" font-family="Arial" font-size="10.00" fill="#ffffff">(6.72%)</text>
<text text-anchor="middle" x="706.5" y="-419" font-family="Arial" font-size="10.00" fill="#ffffff">2153035×</text>
</g>
<!-- Vector2_add&#45;&gt;getBitlength -->
<g id="edge22" class="edge">
<title>Vector2_add&#45;&gt;getBitlength</title>
<path fill="none" stroke="#0d0e73" stroke-width=".5" d="M697.2542,-411.7562C693.9466,-400.3998 690.1989,-387.5328 686.8072,-375.888"/>
<polygon fill="#0d0e73" stroke="#0d0e73" stroke-width=".5" points="687.9218,-375.3341 685.7669,-372.3163 685.5696,-376.0193 687.9218,-375.3341"/>
<text text-anchor="middle" x="715" y="-395" font-family="Arial" font-size="10.00" fill="#0d0e73">0.19%</text>
<text text-anchor="middle" x="715" y="-384" font-family="Arial" font-size="10.00" fill="#0d0e73">2153035×</text>
</g>
<!-- Vector_add&#45;&gt;Vector2_add -->
<g id="edge23" class="edge">
<title>Vector_add&#45;&gt;Vector2_add</title>
<path fill="none" stroke="#0d2b7c" stroke-width=".5" d="M689.2048,-514.7562C691.9612,-503.3998 695.0843,-490.5328 697.9107,-478.888"/>
<polygon fill="#0d2b7c" stroke="#0d2b7c" stroke-width=".5" points="699.1424,-479.0065 698.7776,-475.3163 696.7615,-478.4286 699.1424,-479.0065"/>
<text text-anchor="middle" x="717" y="-498" font-family="Arial" font-size="10.00" fill="#0d2b7c">6.91%</text>
<text text-anchor="middle" x="717" y="-487" font-family="Arial" font-size="10.00" fill="#0d2b7c">2153035×</text>
</g>
</g>
</svg>
