<?xml version="1.0" encoding="UTF-8" standalone="no"?>
<!DOCTYPE svg PUBLIC "-//W3C//DTD SVG 1.1//EN"
 "http://www.w3.org/Graphics/SVG/1.1/DTD/svg11.dtd">
<!-- Generated by graphviz version 2.40.1 (20161225.0304)
 -->
<!-- Title: %3 Pages: 1 -->
<svg width="678pt" height="1616pt"
 viewBox="0.00 0.00 677.50 1616.00" xmlns="http://www.w3.org/2000/svg" xmlns:xlink="http://www.w3.org/1999/xlink">
<g id="graph0" class="graph" transform="scale(1 1) rotate(0) translate(4 1612)">
<title>%3</title>
<polygon fill="#ffffff" stroke="transparent" points="-4,4 -4,-1612 673.5,-1612 673.5,4 -4,4"/>
<!-- (below main) -->
<g id="node1" class="node">
<title>(below main)</title>
<polygon fill="#ff0000" stroke="#ff0000" points="579.5,-1402 508.5,-1402 508.5,-1339 579.5,-1339 579.5,-1402"/>
<text text-anchor="middle" x="544" y="-1390" font-family="Arial" font-size="10.00" fill="#ffffff">libc&#45;2.27.so</text>
<text text-anchor="middle" x="544" y="-1379" font-family="Arial" font-size="10.00" fill="#ffffff">(below main)</text>
<text text-anchor="middle" x="544" y="-1368" font-family="Arial" font-size="10.00" fill="#ffffff">100.00%</text>
<text text-anchor="middle" x="544" y="-1357" font-family="Arial" font-size="10.00" fill="#ffffff">(0.00%)</text>
<text text-anchor="middle" x="544" y="-1346" font-family="Arial" font-size="10.00" fill="#ffffff">1×</text>
</g>
<!-- main -->
<g id="node2" class="node">
<title>main</title>
<polygon fill="#ff0000" stroke="#ff0000" points="571.5,-1299 516.5,-1299 516.5,-1236 571.5,-1236 571.5,-1299"/>
<text text-anchor="middle" x="544" y="-1287" font-family="Arial" font-size="10.00" fill="#ffffff">csteen</text>
<text text-anchor="middle" x="544" y="-1276" font-family="Arial" font-size="10.00" fill="#ffffff">main</text>
<text text-anchor="middle" x="544" y="-1265" font-family="Arial" font-size="10.00" fill="#ffffff">100.00%</text>
<text text-anchor="middle" x="544" y="-1254" font-family="Arial" font-size="10.00" fill="#ffffff">(0.00%)</text>
<text text-anchor="middle" x="544" y="-1243" font-family="Arial" font-size="10.00" fill="#ffffff">1×</text>
</g>
<!-- (below main)&#45;&gt;main -->
<g id="edge1" class="edge">
<title>(below main)&#45;&gt;main</title>
<path fill="none" stroke="#ff0000" stroke-width="4" d="M544,-1338.7562C544,-1329.5536 544,-1319.3591 544,-1309.6267"/>
<polygon fill="#ff0000" stroke="#ff0000" stroke-width="4" points="547.5001,-1309.3163 544,-1299.3163 540.5001,-1309.3164 547.5001,-1309.3163"/>
<text text-anchor="middle" x="563.5" y="-1322" font-family="Arial" font-size="10.00" fill="#ff0000">100.00%</text>
<text text-anchor="middle" x="563.5" y="-1311" font-family="Arial" font-size="10.00" fill="#ff0000">1×</text>
</g>
<!-- Resolution_resolveThroughDegree -->
<g id="node19" class="node">
<title>Resolution_resolveThroughDegree</title>
<polygon fill="#fe0400" stroke="#fe0400" points="626.5,-1196 461.5,-1196 461.5,-1133 626.5,-1133 626.5,-1196"/>
<text text-anchor="middle" x="544" y="-1184" font-family="Arial" font-size="10.00" fill="#ffffff">csteen</text>
<text text-anchor="middle" x="544" y="-1173" font-family="Arial" font-size="10.00" fill="#ffffff">Resolution_resolveThroughDegree</text>
<text text-anchor="middle" x="544" y="-1162" font-family="Arial" font-size="10.00" fill="#ffffff">99.64%</text>
<text text-anchor="middle" x="544" y="-1151" font-family="Arial" font-size="10.00" fill="#ffffff">(0.00%)</text>
<text text-anchor="middle" x="544" y="-1140" font-family="Arial" font-size="10.00" fill="#ffffff">1×</text>
</g>
<!-- main&#45;&gt;Resolution_resolveThroughDegree -->
<g id="edge32" class="edge">
<title>main&#45;&gt;Resolution_resolveThroughDegree</title>
<path fill="none" stroke="#fe0400" stroke-width="3.99" d="M544,-1235.7562C544,-1226.5536 544,-1216.3591 544,-1206.6267"/>
<polygon fill="#fe0400" stroke="#fe0400" stroke-width="3.99" points="547.5001,-1206.3163 544,-1196.3163 540.5001,-1206.3164 547.5001,-1206.3163"/>
<text text-anchor="middle" x="561" y="-1219" font-family="Arial" font-size="10.00" fill="#fe0400">99.64%</text>
<text text-anchor="middle" x="561" y="-1208" font-family="Arial" font-size="10.00" fill="#fe0400">1×</text>
</g>
<!-- 0x0000000000000f60 -->
<g id="node3" class="node">
<title>0x0000000000000f60</title>
<polygon fill="#ff0000" stroke="#ff0000" points="598.5,-1608 489.5,-1608 489.5,-1545 598.5,-1545 598.5,-1608"/>
<text text-anchor="middle" x="544" y="-1596" font-family="Arial" font-size="10.00" fill="#ffffff">ld&#45;2.27.so</text>
<text text-anchor="middle" x="544" y="-1585" font-family="Arial" font-size="10.00" fill="#ffffff">0x0000000000000f60</text>
<text text-anchor="middle" x="544" y="-1574" font-family="Arial" font-size="10.00" fill="#ffffff">100.00%</text>
<text text-anchor="middle" x="544" y="-1563" font-family="Arial" font-size="10.00" fill="#ffffff">(0.00%)</text>
<text text-anchor="middle" x="544" y="-1552" font-family="Arial" font-size="10.00" fill="#ffffff">0×</text>
</g>
<!-- _start -->
<g id="node4" class="node">
<title>_start</title>
<polygon fill="#ff0000" stroke="#ff0000" points="571.5,-1505 516.5,-1505 516.5,-1442 571.5,-1442 571.5,-1505"/>
<text text-anchor="middle" x="544" y="-1493" font-family="Arial" font-size="10.00" fill="#ffffff">csteen</text>
<text text-anchor="middle" x="544" y="-1482" font-family="Arial" font-size="10.00" fill="#ffffff">_start</text>
<text text-anchor="middle" x="544" y="-1471" font-family="Arial" font-size="10.00" fill="#ffffff">100.00%</text>
<text text-anchor="middle" x="544" y="-1460" font-family="Arial" font-size="10.00" fill="#ffffff">(0.00%)</text>
<text text-anchor="middle" x="544" y="-1449" font-family="Arial" font-size="10.00" fill="#ffffff">1×</text>
</g>
<!-- 0x0000000000000f60&#45;&gt;_start -->
<g id="edge2" class="edge">
<title>0x0000000000000f60&#45;&gt;_start</title>
<path fill="none" stroke="#ff0000" stroke-width="4" d="M544,-1544.7562C544,-1535.5536 544,-1525.3591 544,-1515.6267"/>
<polygon fill="#ff0000" stroke="#ff0000" stroke-width="4" points="547.5001,-1515.3163 544,-1505.3163 540.5001,-1515.3164 547.5001,-1515.3163"/>
<text text-anchor="middle" x="563.5" y="-1528" font-family="Arial" font-size="10.00" fill="#ff0000">100.00%</text>
<text text-anchor="middle" x="563.5" y="-1517" font-family="Arial" font-size="10.00" fill="#ff0000">1×</text>
</g>
<!-- _start&#45;&gt;(below main) -->
<g id="edge29" class="edge">
<title>_start&#45;&gt;(below main)</title>
<path fill="none" stroke="#ff0000" stroke-width="4" d="M544,-1441.7562C544,-1432.5536 544,-1422.3591 544,-1412.6267"/>
<polygon fill="#ff0000" stroke="#ff0000" stroke-width="4" points="547.5001,-1412.3163 544,-1402.3163 540.5001,-1412.3164 547.5001,-1412.3163"/>
<text text-anchor="middle" x="563.5" y="-1425" font-family="Arial" font-size="10.00" fill="#ff0000">100.00%</text>
<text text-anchor="middle" x="563.5" y="-1414" font-family="Arial" font-size="10.00" fill="#ff0000">1×</text>
</g>
<!-- AdemAlgebra__makeMonoAdmissible2 -->
<g id="node5" class="node">
<title>AdemAlgebra__makeMonoAdmissible2</title>
<polygon fill="#0ba557" stroke="#0ba557" points="319.5,-578 132.5,-578 132.5,-515 319.5,-515 319.5,-578"/>
<text text-anchor="middle" x="226" y="-566" font-family="Arial" font-size="10.00" fill="#ffffff">csteen</text>
<text text-anchor="middle" x="226" y="-555" font-family="Arial" font-size="10.00" fill="#ffffff">AdemAlgebra__makeMonoAdmissible2</text>
<text text-anchor="middle" x="226" y="-544" font-family="Arial" font-size="10.00" fill="#ffffff">37.65%</text>
<text text-anchor="middle" x="226" y="-533" font-family="Arial" font-size="10.00" fill="#ffffff">(0.89%)</text>
<text text-anchor="middle" x="226" y="-522" font-family="Arial" font-size="10.00" fill="#ffffff">2910538×</text>
</g>
<!-- AdemAlgebra__makeMonoAdmissible2&#39;2 -->
<g id="node6" class="node">
<title>AdemAlgebra__makeMonoAdmissible2&#39;2</title>
<polygon fill="#0b9c76" stroke="#0b9c76" points="321,-475 127,-475 127,-412 321,-412 321,-475"/>
<text text-anchor="middle" x="224" y="-463" font-family="Arial" font-size="10.00" fill="#ffffff">csteen</text>
<text text-anchor="middle" x="224" y="-452" font-family="Arial" font-size="10.00" fill="#ffffff">AdemAlgebra__makeMonoAdmissible2&#39;2</text>
<text text-anchor="middle" x="224" y="-441" font-family="Arial" font-size="10.00" fill="#ffffff">31.71%</text>
<text text-anchor="middle" x="224" y="-430" font-family="Arial" font-size="10.00" fill="#ffffff">(3.95%)</text>
<text text-anchor="middle" x="224" y="-419" font-family="Arial" font-size="10.00" fill="#ffffff">11327826×</text>
</g>
<!-- AdemAlgebra__makeMonoAdmissible2&#45;&gt;AdemAlgebra__makeMonoAdmissible2&#39;2 -->
<g id="edge3" class="edge">
<title>AdemAlgebra__makeMonoAdmissible2&#45;&gt;AdemAlgebra__makeMonoAdmissible2&#39;2</title>
<path fill="none" stroke="#0b9c76" stroke-width="1.27" d="M225.3836,-514.7562C225.1764,-504.0851 224.9433,-492.0802 224.7283,-481.0089"/>
<polygon fill="#0b9c76" stroke="#0b9c76" stroke-width="1.27" points="226.6862,-480.8772 224.6178,-475.3163 222.767,-480.9534 226.6862,-480.8772"/>
<text text-anchor="middle" x="247.5" y="-498" font-family="Arial" font-size="10.00" fill="#0b9c76">31.71%</text>
<text text-anchor="middle" x="247.5" y="-487" font-family="Arial" font-size="10.00" fill="#0b9c76">2423545×</text>
</g>
<!-- AdemAlgebra_basisElement_fromIndex -->
<g id="node7" class="node">
<title>AdemAlgebra_basisElement_fromIndex</title>
<polygon fill="#0d4682" stroke="#0d4682" points="188,-372 0,-372 0,-309 188,-309 188,-372"/>
<text text-anchor="middle" x="94" y="-360" font-family="Arial" font-size="10.00" fill="#ffffff">csteen</text>
<text text-anchor="middle" x="94" y="-349" font-family="Arial" font-size="10.00" fill="#ffffff">AdemAlgebra_basisElement_fromIndex</text>
<text text-anchor="middle" x="94" y="-338" font-family="Arial" font-size="10.00" fill="#ffffff">12.12%</text>
<text text-anchor="middle" x="94" y="-327" font-family="Arial" font-size="10.00" fill="#ffffff">(0.28%)</text>
<text text-anchor="middle" x="94" y="-316" font-family="Arial" font-size="10.00" fill="#ffffff">17251899×</text>
</g>
<!-- AdemAlgebra__makeMonoAdmissible2&#45;&gt;AdemAlgebra_basisElement_fromIndex -->
<g id="edge4" class="edge">
<title>AdemAlgebra__makeMonoAdmissible2&#45;&gt;AdemAlgebra_basisElement_fromIndex</title>
<path fill="none" stroke="#0d1274" stroke-width=".5" d="M132.4531,-520.0326C111.3375,-509.5054 91.4931,-494.9691 79,-475 60.3794,-445.2366 68.6067,-404.3946 78.6841,-375.5474"/>
<polygon fill="#0d1274" stroke="#0d1274" stroke-width=".5" points="79.8952,-375.7986 79.9205,-372.0905 77.5883,-374.9735 79.8952,-375.7986"/>
<text text-anchor="middle" x="100.5" y="-446.5" font-family="Arial" font-size="10.00" fill="#0d1274">1.37%</text>
<text text-anchor="middle" x="100.5" y="-435.5" font-family="Arial" font-size="10.00" fill="#0d1274">2423545×</text>
</g>
<!-- AdemAlgebra_basisElement_toIndex -->
<g id="node8" class="node">
<title>AdemAlgebra_basisElement_toIndex</title>
<polygon fill="#0c8190" stroke="#0c8190" points="312.5,-269 135.5,-269 135.5,-206 312.5,-206 312.5,-269"/>
<text text-anchor="middle" x="224" y="-257" font-family="Arial" font-size="10.00" fill="#ffffff">csteen</text>
<text text-anchor="middle" x="224" y="-246" font-family="Arial" font-size="10.00" fill="#ffffff">AdemAlgebra_basisElement_toIndex</text>
<text text-anchor="middle" x="224" y="-235" font-family="Arial" font-size="10.00" fill="#ffffff">22.26%</text>
<text text-anchor="middle" x="224" y="-224" font-family="Arial" font-size="10.00" fill="#ffffff">(0.58%)</text>
<text text-anchor="middle" x="224" y="-213" font-family="Arial" font-size="10.00" fill="#ffffff">31715308×</text>
</g>
<!-- AdemAlgebra__makeMonoAdmissible2&#45;&gt;AdemAlgebra_basisElement_toIndex -->
<g id="edge5" class="edge">
<title>AdemAlgebra__makeMonoAdmissible2&#45;&gt;AdemAlgebra_basisElement_toIndex</title>
<path fill="none" stroke="#0d1375" stroke-width=".5" d="M319.1327,-514.8526C349.3721,-502.5639 377.3923,-488.2746 386,-475 401.2338,-451.5068 393.2803,-439.037 386,-412 369.8356,-351.9701 316.7549,-302.2487 275.7103,-271.4411"/>
<polygon fill="#0d1375" stroke="#0d1375" stroke-width=".5" points="276.3153,-270.3643 272.7766,-269.2558 274.8516,-272.3291 276.3153,-270.3643"/>
<text text-anchor="middle" x="405.5" y="-395" font-family="Arial" font-size="10.00" fill="#0d1375">1.43%</text>
<text text-anchor="middle" x="405.5" y="-384" font-family="Arial" font-size="10.00" fill="#0d1375">2910538×</text>
</g>
<!-- Vector_stepIterator -->
<g id="node9" class="node">
<title>Vector_stepIterator</title>
<polygon fill="#0aab3c" stroke="#0aab3c" points="525.5,-372 426.5,-372 426.5,-309 525.5,-309 525.5,-372"/>
<text text-anchor="middle" x="476" y="-360" font-family="Arial" font-size="10.00" fill="#ffffff">csteen</text>
<text text-anchor="middle" x="476" y="-349" font-family="Arial" font-size="10.00" fill="#ffffff">Vector_stepIterator</text>
<text text-anchor="middle" x="476" y="-338" font-family="Arial" font-size="10.00" fill="#ffffff">42.35%</text>
<text text-anchor="middle" x="476" y="-327" font-family="Arial" font-size="10.00" fill="#ffffff">(33.19%)</text>
<text text-anchor="middle" x="476" y="-316" font-family="Arial" font-size="10.00" fill="#ffffff">1308889631×</text>
</g>
<!-- AdemAlgebra__makeMonoAdmissible2&#45;&gt;Vector_stepIterator -->
<g id="edge6" class="edge">
<title>AdemAlgebra__makeMonoAdmissible2&#45;&gt;Vector_stepIterator</title>
<path fill="none" stroke="#0d1675" stroke-width=".5" d="M319.7607,-516.8488C322.53,-516.1966 325.2807,-515.5781 328,-515 344.4193,-511.5093 390.0606,-516.6934 403,-506 436.804,-478.0635 414.9106,-451.9491 433,-412 438.6254,-399.5768 445.929,-386.6207 452.9155,-375.204"/>
<polygon fill="#0d1675" stroke="#0d1675" stroke-width=".5" points="454.0807,-375.6483 454.876,-372.0264 451.9956,-374.3618 454.0807,-375.6483"/>
<text text-anchor="middle" x="457.5" y="-446.5" font-family="Arial" font-size="10.00" fill="#0d1675">2.15%</text>
<text text-anchor="middle" x="457.5" y="-435.5" font-family="Arial" font-size="10.00" fill="#0d1675">67905973×</text>
</g>
<!-- AdemAlgebra__makeMonoAdmissible2&#39;2&#45;&gt;AdemAlgebra__makeMonoAdmissible2&#39;2 -->
<g id="edge7" class="edge">
<title>AdemAlgebra__makeMonoAdmissible2&#39;2&#45;&gt;AdemAlgebra__makeMonoAdmissible2&#39;2</title>
<path fill="none" stroke="#0b9c76" stroke-width="1.27" d="M321.2657,-449.8257C326.7382,-448.2941 330,-446.1855 330,-443.5 330,-441.9055 328.8501,-440.5143 326.7703,-439.3266"/>
<polygon fill="#0b9c76" stroke="#0b9c76" stroke-width="1.27" points="327.195,-437.3882 321.2657,-437.1743 325.7674,-441.039 327.195,-437.3882"/>
<text text-anchor="middle" x="351.5" y="-441" font-family="Arial" font-size="10.00" fill="#0b9c76">8904281×</text>
</g>
<!-- AdemAlgebra__makeMonoAdmissible2&#39;2&#45;&gt;AdemAlgebra_basisElement_fromIndex -->
<g id="edge8" class="edge">
<title>AdemAlgebra__makeMonoAdmissible2&#39;2&#45;&gt;AdemAlgebra_basisElement_fromIndex</title>
<path fill="none" stroke="#0d2f7d" stroke-width=".5" d="M183.935,-411.7562C169.1075,-400.0082 152.2396,-386.6437 137.1497,-374.6878"/>
<polygon fill="#0d2f7d" stroke="#0d2f7d" stroke-width=".5" points="137.6606,-373.5297 134.1565,-372.3163 136.1391,-375.4501 137.6606,-373.5297"/>
<text text-anchor="middle" x="192.5" y="-395" font-family="Arial" font-size="10.00" fill="#0d2f7d">7.61%</text>
<text text-anchor="middle" x="192.5" y="-384" font-family="Arial" font-size="10.00" fill="#0d2f7d">8904281×</text>
</g>
<!-- AdemAlgebra__makeMonoAdmissible2&#39;2&#45;&gt;AdemAlgebra_basisElement_toIndex -->
<g id="edge9" class="edge">
<title>AdemAlgebra__makeMonoAdmissible2&#39;2&#45;&gt;AdemAlgebra_basisElement_toIndex</title>
<path fill="none" stroke="#0d357e" stroke-width=".5" d="M224,-411.764C224,-374.2625 224,-312.0398 224,-272.9783"/>
<polygon fill="#0d357e" stroke="#0d357e" stroke-width=".5" points="225.2251,-272.7721 224,-269.2721 222.7751,-272.7721 225.2251,-272.7721"/>
<text text-anchor="middle" x="248.5" y="-343.5" font-family="Arial" font-size="10.00" fill="#0d357e">8.88%</text>
<text text-anchor="middle" x="248.5" y="-332.5" font-family="Arial" font-size="10.00" fill="#0d357e">11327826×</text>
</g>
<!-- AdemAlgebra__makeMonoAdmissible2&#39;2&#45;&gt;Vector_stepIterator -->
<g id="edge10" class="edge">
<title>AdemAlgebra__makeMonoAdmissible2&#39;2&#45;&gt;Vector_stepIterator</title>
<path fill="none" stroke="#0d3f81" stroke-width=".5" d="M263.8655,-411.9466C279.4226,-400.8617 297.8588,-389.152 316,-381 350.0435,-365.7021 390.8652,-355.4868 422.7542,-349.1423"/>
<polygon fill="#0d3f81" stroke="#0d3f81" stroke-width=".5" points="423.0058,-350.3413 426.2037,-348.4641 422.5331,-347.9374 423.0058,-350.3413"/>
<text text-anchor="middle" x="343" y="-395" font-family="Arial" font-size="10.00" fill="#0d3f81">10.79%</text>
<text text-anchor="middle" x="343" y="-384" font-family="Arial" font-size="10.00" fill="#0d3f81">334660561×</text>
</g>
<!-- AdemAlgebra_basisElement_fromIndex&#45;&gt;AdemAlgebra_basisElement_toIndex -->
<g id="edge11" class="edge">
<title>AdemAlgebra_basisElement_fromIndex&#45;&gt;AdemAlgebra_basisElement_toIndex</title>
<path fill="none" stroke="#0d4482" stroke-width=".5" d="M130.437,-308.791C142.2641,-298.7518 155.5487,-287.7384 168,-278 170.8353,-275.7825 173.7751,-273.5285 176.756,-271.277"/>
<polygon fill="#0d4482" stroke="#0d4482" stroke-width=".5" points="177.6865,-272.1101 179.7483,-269.0279 176.2144,-270.1517 177.6865,-272.1101"/>
<text text-anchor="middle" x="192.5" y="-292" font-family="Arial" font-size="10.00" fill="#0d4482">11.84%</text>
<text text-anchor="middle" x="192.5" y="-281" font-family="Arial" font-size="10.00" fill="#0d4482">17251899×</text>
</g>
<!-- AdemAlgebra_basisElement_toKey -->
<g id="node10" class="node">
<title>AdemAlgebra_basisElement_toKey</title>
<polygon fill="#0d1e78" stroke="#0d1e78" points="278,-166 108,-166 108,-103 278,-103 278,-166"/>
<text text-anchor="middle" x="193" y="-154" font-family="Arial" font-size="10.00" fill="#ffffff">csteen</text>
<text text-anchor="middle" x="193" y="-143" font-family="Arial" font-size="10.00" fill="#ffffff">AdemAlgebra_basisElement_toKey</text>
<text text-anchor="middle" x="193" y="-132" font-family="Arial" font-size="10.00" fill="#ffffff">4.00%</text>
<text text-anchor="middle" x="193" y="-121" font-family="Arial" font-size="10.00" fill="#ffffff">(3.86%)</text>
<text text-anchor="middle" x="193" y="-110" font-family="Arial" font-size="10.00" fill="#ffffff">31722217×</text>
</g>
<!-- AdemAlgebra_basisElement_toIndex&#45;&gt;AdemAlgebra_basisElement_toKey -->
<g id="edge12" class="edge">
<title>AdemAlgebra_basisElement_toIndex&#45;&gt;AdemAlgebra_basisElement_toKey</title>
<path fill="none" stroke="#0d1e78" stroke-width=".5" d="M214.446,-205.7562C211.0281,-194.3998 207.1555,-181.5328 203.6508,-169.888"/>
<polygon fill="#0d1e78" stroke="#0d1e78" stroke-width=".5" points="204.7576,-169.3148 202.5758,-166.3163 202.4115,-170.0209 204.7576,-169.3148"/>
<text text-anchor="middle" x="236.5" y="-189" font-family="Arial" font-size="10.00" fill="#0d1e78">4.00%</text>
<text text-anchor="middle" x="236.5" y="-178" font-family="Arial" font-size="10.00" fill="#0d1e78">31715308×</text>
</g>
<!-- kh_get_monomial_index_map -->
<g id="node11" class="node">
<title>kh_get_monomial_index_map</title>
<polygon fill="#0c658a" stroke="#0c658a" points="433,-166 287,-166 287,-103 433,-103 433,-166"/>
<text text-anchor="middle" x="360" y="-154" font-family="Arial" font-size="10.00" fill="#ffffff">csteen</text>
<text text-anchor="middle" x="360" y="-143" font-family="Arial" font-size="10.00" fill="#ffffff">kh_get_monomial_index_map</text>
<text text-anchor="middle" x="360" y="-132" font-family="Arial" font-size="10.00" fill="#ffffff">17.68%</text>
<text text-anchor="middle" x="360" y="-121" font-family="Arial" font-size="10.00" fill="#ffffff">(10.03%)</text>
<text text-anchor="middle" x="360" y="-110" font-family="Arial" font-size="10.00" fill="#ffffff">31715308×</text>
</g>
<!-- AdemAlgebra_basisElement_toIndex&#45;&gt;kh_get_monomial_index_map -->
<g id="edge13" class="edge">
<title>AdemAlgebra_basisElement_toIndex&#45;&gt;kh_get_monomial_index_map</title>
<path fill="none" stroke="#0c658a" stroke-width=".71" d="M265.9142,-205.7562C281.2968,-194.1061 298.7785,-180.8663 314.4638,-168.987"/>
<polygon fill="#0c658a" stroke="#0c658a" stroke-width=".71" points="315.5294,-170.024 317.9901,-166.3163 313.7544,-167.6802 315.5294,-170.024"/>
<text text-anchor="middle" x="329.5" y="-189" font-family="Arial" font-size="10.00" fill="#0c658a">17.68%</text>
<text text-anchor="middle" x="329.5" y="-178" font-family="Arial" font-size="10.00" fill="#0c658a">31715308×</text>
</g>
<!-- getBitlength -->
<g id="node22" class="node">
<title>getBitlength</title>
<polygon fill="#0d2179" stroke="#0d2179" points="614.5,-269 539.5,-269 539.5,-206 614.5,-206 614.5,-269"/>
<text text-anchor="middle" x="577" y="-257" font-family="Arial" font-size="10.00" fill="#ffffff">csteen</text>
<text text-anchor="middle" x="577" y="-246" font-family="Arial" font-size="10.00" fill="#ffffff">getBitlength</text>
<text text-anchor="middle" x="577" y="-235" font-family="Arial" font-size="10.00" fill="#ffffff">4.76%</text>
<text text-anchor="middle" x="577" y="-224" font-family="Arial" font-size="10.00" fill="#ffffff">(4.76%)</text>
<text text-anchor="middle" x="577" y="-213" font-family="Arial" font-size="10.00" fill="#ffffff">1352246339×</text>
</g>
<!-- Vector_stepIterator&#45;&gt;getBitlength -->
<g id="edge28" class="edge">
<title>Vector_stepIterator&#45;&gt;getBitlength</title>
<path fill="none" stroke="#0d2079" stroke-width=".5" d="M514.2293,-308.8078C516.9807,-305.9445 519.6089,-302.9926 522,-300 528.9523,-291.2986 527.1947,-286.8169 534,-278 535.5508,-275.9907 537.2037,-273.9914 538.9245,-272.0189"/>
<polygon fill="#0d2079" stroke="#0d2079" stroke-width=".5" points="539.8924,-272.7741 541.3097,-269.3474 538.0649,-271.1424 539.8924,-272.7741"/>
<text text-anchor="middle" x="563.5" y="-292" font-family="Arial" font-size="10.00" fill="#0d2079">4.58%</text>
<text text-anchor="middle" x="563.5" y="-281" font-family="Arial" font-size="10.00" fill="#0d2079">1301298171×</text>
</g>
<!-- getBitMask -->
<g id="node24" class="node">
<title>getBitMask</title>
<polygon fill="#0d2179" stroke="#0d2179" points="499.5,-269 424.5,-269 424.5,-206 499.5,-206 499.5,-269"/>
<text text-anchor="middle" x="462" y="-257" font-family="Arial" font-size="10.00" fill="#ffffff">csteen</text>
<text text-anchor="middle" x="462" y="-246" font-family="Arial" font-size="10.00" fill="#ffffff">getBitMask</text>
<text text-anchor="middle" x="462" y="-235" font-family="Arial" font-size="10.00" fill="#ffffff">4.61%</text>
<text text-anchor="middle" x="462" y="-224" font-family="Arial" font-size="10.00" fill="#ffffff">(4.61%)</text>
<text text-anchor="middle" x="462" y="-213" font-family="Arial" font-size="10.00" fill="#ffffff">1309219206×</text>
</g>
<!-- Vector_stepIterator&#45;&gt;getBitMask -->
<g id="edge27" class="edge">
<title>Vector_stepIterator&#45;&gt;getBitMask</title>
<path fill="none" stroke="#0d2079" stroke-width=".5" d="M466.6924,-308.8056C466.0355,-305.8466 465.4545,-302.8787 465,-300 463.6214,-291.2682 462.8162,-281.7725 462.359,-272.8807"/>
<polygon fill="#0d2079" stroke="#0d2079" stroke-width=".5" points="463.5701,-272.5503 462.1837,-269.111 461.1227,-272.6641 463.5701,-272.5503"/>
<text text-anchor="middle" x="494.5" y="-292" font-family="Arial" font-size="10.00" fill="#0d2079">4.58%</text>
<text text-anchor="middle" x="494.5" y="-281" font-family="Arial" font-size="10.00" fill="#0d2079">1301298171×</text>
</g>
<!-- __ac_X31_hash_string -->
<g id="node25" class="node">
<title>__ac_X31_hash_string</title>
<polygon fill="#0d1976" stroke="#0d1976" points="352,-63 236,-63 236,0 352,0 352,-63"/>
<text text-anchor="middle" x="294" y="-51" font-family="Arial" font-size="10.00" fill="#ffffff">csteen</text>
<text text-anchor="middle" x="294" y="-40" font-family="Arial" font-size="10.00" fill="#ffffff">__ac_X31_hash_string</text>
<text text-anchor="middle" x="294" y="-29" font-family="Arial" font-size="10.00" fill="#ffffff">2.81%</text>
<text text-anchor="middle" x="294" y="-18" font-family="Arial" font-size="10.00" fill="#ffffff">(2.81%)</text>
<text text-anchor="middle" x="294" y="-7" font-family="Arial" font-size="10.00" fill="#ffffff">31722217×</text>
</g>
<!-- kh_get_monomial_index_map&#45;&gt;__ac_X31_hash_string -->
<g id="edge30" class="edge">
<title>kh_get_monomial_index_map&#45;&gt;__ac_X31_hash_string</title>
<path fill="none" stroke="#0d1976" stroke-width=".5" d="M339.6593,-102.7562C332.2569,-91.204 323.853,-78.0887 316.2906,-66.2868"/>
<polygon fill="#0d1976" stroke="#0d1976" stroke-width=".5" points="317.3069,-65.6023 314.3872,-63.3163 315.2441,-66.9242 317.3069,-65.6023"/>
<text text-anchor="middle" x="357.5" y="-86" font-family="Arial" font-size="10.00" fill="#0d1976">2.81%</text>
<text text-anchor="middle" x="357.5" y="-75" font-family="Arial" font-size="10.00" fill="#0d1976">31715308×</text>
</g>
<!-- __strcmp_sse2_unaligned -->
<g id="node26" class="node">
<title>__strcmp_sse2_unaligned</title>
<polygon fill="#0d2279" stroke="#0d2279" points="491,-63 361,-63 361,0 491,0 491,-63"/>
<text text-anchor="middle" x="426" y="-51" font-family="Arial" font-size="10.00" fill="#ffffff">libc&#45;2.27.so</text>
<text text-anchor="middle" x="426" y="-40" font-family="Arial" font-size="10.00" fill="#ffffff">__strcmp_sse2_unaligned</text>
<text text-anchor="middle" x="426" y="-29" font-family="Arial" font-size="10.00" fill="#ffffff">4.84%</text>
<text text-anchor="middle" x="426" y="-18" font-family="Arial" font-size="10.00" fill="#ffffff">(4.84%)</text>
<text text-anchor="middle" x="426" y="-7" font-family="Arial" font-size="10.00" fill="#ffffff">437941091×</text>
</g>
<!-- kh_get_monomial_index_map&#45;&gt;__strcmp_sse2_unaligned -->
<g id="edge31" class="edge">
<title>kh_get_monomial_index_map&#45;&gt;__strcmp_sse2_unaligned</title>
<path fill="none" stroke="#0d2279" stroke-width=".5" d="M380.3407,-102.7562C387.7431,-91.204 396.147,-78.0887 403.7094,-66.2868"/>
<polygon fill="#0d2279" stroke="#0d2279" stroke-width=".5" points="404.7559,-66.9242 405.6128,-63.3163 402.6931,-65.6023 404.7559,-66.9242"/>
<text text-anchor="middle" x="426" y="-86" font-family="Arial" font-size="10.00" fill="#0d2279">4.84%</text>
<text text-anchor="middle" x="426" y="-75" font-family="Arial" font-size="10.00" fill="#0d2279">437846497×</text>
</g>
<!-- AdemAlgebra_getDimension -->
<g id="node12" class="node">
<title>AdemAlgebra_getDimension</title>
<polygon fill="#0d1475" stroke="#0d1475" points="473,-578 333,-578 333,-515 473,-515 473,-578"/>
<text text-anchor="middle" x="403" y="-566" font-family="Arial" font-size="10.00" fill="#ffffff">csteen</text>
<text text-anchor="middle" x="403" y="-555" font-family="Arial" font-size="10.00" fill="#ffffff">AdemAlgebra_getDimension</text>
<text text-anchor="middle" x="403" y="-544" font-family="Arial" font-size="10.00" fill="#ffffff">1.73%</text>
<text text-anchor="middle" x="403" y="-533" font-family="Arial" font-size="10.00" fill="#ffffff">(1.73%)</text>
<text text-anchor="middle" x="403" y="-522" font-family="Arial" font-size="10.00" fill="#ffffff">192758872×</text>
</g>
<!-- AdemAlgebra_multiply -->
<g id="node13" class="node">
<title>AdemAlgebra_multiply</title>
<polygon fill="#0ba944" stroke="#0ba944" points="283,-681 169,-681 169,-618 283,-618 283,-681"/>
<text text-anchor="middle" x="226" y="-669" font-family="Arial" font-size="10.00" fill="#ffffff">csteen</text>
<text text-anchor="middle" x="226" y="-658" font-family="Arial" font-size="10.00" fill="#ffffff">AdemAlgebra_multiply</text>
<text text-anchor="middle" x="226" y="-647" font-family="Arial" font-size="10.00" fill="#ffffff">40.96%</text>
<text text-anchor="middle" x="226" y="-636" font-family="Arial" font-size="10.00" fill="#ffffff">(0.18%)</text>
<text text-anchor="middle" x="226" y="-625" font-family="Arial" font-size="10.00" fill="#ffffff">2910538×</text>
</g>
<!-- AdemAlgebra_multiply&#45;&gt;AdemAlgebra__makeMonoAdmissible2 -->
<g id="edge14" class="edge">
<title>AdemAlgebra_multiply&#45;&gt;AdemAlgebra__makeMonoAdmissible2</title>
<path fill="none" stroke="#0ba557" stroke-width="1.51" d="M226,-617.7562C226,-607.2809 226,-595.5203 226,-584.6192"/>
<polygon fill="#0ba557" stroke="#0ba557" stroke-width="1.51" points="228.1351,-584.4163 226,-578.3163 223.8651,-584.4164 228.1351,-584.4163"/>
<text text-anchor="middle" x="247.5" y="-601" font-family="Arial" font-size="10.00" fill="#0ba557">37.65%</text>
<text text-anchor="middle" x="247.5" y="-590" font-family="Arial" font-size="10.00" fill="#0ba557">2910538×</text>
</g>
<!-- AdemAlgebra_multiply&#45;&gt;AdemAlgebra_basisElement_fromIndex -->
<g id="edge15" class="edge">
<title>AdemAlgebra_multiply&#45;&gt;AdemAlgebra_basisElement_fromIndex</title>
<path fill="none" stroke="#0d1a77" stroke-width=".5" d="M168.9322,-623.4352C124.9028,-599.7979 67.3686,-560.3243 42,-506 21.8157,-462.7773 46.5139,-409.6851 68.2825,-375.4821"/>
<polygon fill="#0d1a77" stroke="#0d1a77" stroke-width=".5" points="69.511,-375.8374 70.3784,-372.2321 67.452,-374.5096 69.511,-375.8374"/>
<text text-anchor="middle" x="63.5" y="-498" font-family="Arial" font-size="10.00" fill="#0d1a77">3.06%</text>
<text text-anchor="middle" x="63.5" y="-487" font-family="Arial" font-size="10.00" fill="#0d1a77">5821076×</text>
</g>
<!-- FreeModuleHomomorphism_getMatrix -->
<g id="node14" class="node">
<title>FreeModuleHomomorphism_getMatrix</title>
<polygon fill="#0aaf28" stroke="#0aaf28" points="557,-887 375,-887 375,-824 557,-824 557,-887"/>
<text text-anchor="middle" x="466" y="-875" font-family="Arial" font-size="10.00" fill="#ffffff">csteen</text>
<text text-anchor="middle" x="466" y="-864" font-family="Arial" font-size="10.00" fill="#ffffff">FreeModuleHomomorphism_getMatrix</text>
<text text-anchor="middle" x="466" y="-853" font-family="Arial" font-size="10.00" fill="#ffffff">45.51%</text>
<text text-anchor="middle" x="466" y="-842" font-family="Arial" font-size="10.00" fill="#ffffff">(0.17%)</text>
<text text-anchor="middle" x="466" y="-831" font-family="Arial" font-size="10.00" fill="#ffffff">2485×</text>
</g>
<!-- FreeModuleHomomorphism_getMatrix&#45;&gt;Vector_stepIterator -->
<g id="edge17" class="edge">
<title>FreeModuleHomomorphism_getMatrix&#45;&gt;Vector_stepIterator</title>
<path fill="none" stroke="#0d0f73" stroke-width=".5" d="M477.5835,-823.8338C478.4747,-820.869 479.2987,-817.892 480,-815 486.6142,-787.7263 489,-780.5643 489,-752.5 489,-752.5 489,-752.5 489,-443.5 489,-421.0266 485.916,-396.0105 482.7523,-376.26"/>
<polygon fill="#0d0f73" stroke="#0d0f73" stroke-width=".5" points="483.8922,-375.6393 482.1193,-372.3824 481.4742,-376.034 483.8922,-375.6393"/>
<text text-anchor="middle" x="513.5" y="-601" font-family="Arial" font-size="10.00" fill="#0d0f73">0.52%</text>
<text text-anchor="middle" x="513.5" y="-590" font-family="Arial" font-size="10.00" fill="#0d0f73">16159469×</text>
</g>
<!-- FreeModule_actOnBasis -->
<g id="node15" class="node">
<title>FreeModule_actOnBasis</title>
<polygon fill="#0aae2c" stroke="#0aae2c" points="465,-784 341,-784 341,-721 465,-721 465,-784"/>
<text text-anchor="middle" x="403" y="-772" font-family="Arial" font-size="10.00" fill="#ffffff">csteen</text>
<text text-anchor="middle" x="403" y="-761" font-family="Arial" font-size="10.00" fill="#ffffff">FreeModule_actOnBasis</text>
<text text-anchor="middle" x="403" y="-750" font-family="Arial" font-size="10.00" fill="#ffffff">44.81%</text>
<text text-anchor="middle" x="403" y="-739" font-family="Arial" font-size="10.00" fill="#ffffff">(0.19%)</text>
<text text-anchor="middle" x="403" y="-728" font-family="Arial" font-size="10.00" fill="#ffffff">2910538×</text>
</g>
<!-- FreeModuleHomomorphism_getMatrix&#45;&gt;FreeModule_actOnBasis -->
<g id="edge16" class="edge">
<title>FreeModuleHomomorphism_getMatrix&#45;&gt;FreeModule_actOnBasis</title>
<path fill="none" stroke="#0aae2c" stroke-width="1.79" d="M444.5775,-823.7918C442.6663,-820.8358 440.782,-817.8723 439,-815 434.1077,-807.1144 429.0309,-798.5566 424.2866,-790.3767"/>
<polygon fill="#0aae2c" stroke="#0aae2c" stroke-width="1.79" points="426.1104,-788.8451 420.7319,-784.2125 422.0475,-791.1881 426.1104,-788.8451"/>
<text text-anchor="middle" x="460.5" y="-807" font-family="Arial" font-size="10.00" fill="#0aae2c">44.81%</text>
<text text-anchor="middle" x="460.5" y="-796" font-family="Arial" font-size="10.00" fill="#0aae2c">2910538×</text>
</g>
<!-- FreeModule_actOnBasis&#45;&gt;AdemAlgebra_multiply -->
<g id="edge18" class="edge">
<title>FreeModule_actOnBasis&#45;&gt;AdemAlgebra_multiply</title>
<path fill="none" stroke="#0ba944" stroke-width="1.64" d="M348.4499,-720.7562C328.6736,-709.2479 306.2313,-696.1883 286.0104,-684.4213"/>
<polygon fill="#0ba944" stroke="#0ba944" stroke-width="1.64" points="287.0282,-682.422 280.37,-681.139 284.7749,-686.2941 287.0282,-682.422"/>
<text text-anchor="middle" x="352.5" y="-704" font-family="Arial" font-size="10.00" fill="#0ba944">40.96%</text>
<text text-anchor="middle" x="352.5" y="-693" font-family="Arial" font-size="10.00" fill="#0ba944">2910538×</text>
</g>
<!-- FreeModule_getDimension -->
<g id="node16" class="node">
<title>FreeModule_getDimension</title>
<polygon fill="#0d1b77" stroke="#0d1b77" points="469,-681 337,-681 337,-618 469,-618 469,-681"/>
<text text-anchor="middle" x="403" y="-669" font-family="Arial" font-size="10.00" fill="#ffffff">csteen</text>
<text text-anchor="middle" x="403" y="-658" font-family="Arial" font-size="10.00" fill="#ffffff">FreeModule_getDimension</text>
<text text-anchor="middle" x="403" y="-647" font-family="Arial" font-size="10.00" fill="#ffffff">3.28%</text>
<text text-anchor="middle" x="403" y="-636" font-family="Arial" font-size="10.00" fill="#ffffff">(1.65%)</text>
<text text-anchor="middle" x="403" y="-625" font-family="Arial" font-size="10.00" fill="#ffffff">2923250×</text>
</g>
<!-- FreeModule_actOnBasis&#45;&gt;FreeModule_getDimension -->
<g id="edge19" class="edge">
<title>FreeModule_actOnBasis&#45;&gt;FreeModule_getDimension</title>
<path fill="none" stroke="#0d1b77" stroke-width=".5" d="M403,-720.7562C403,-709.3998 403,-696.5328 403,-684.888"/>
<polygon fill="#0d1b77" stroke="#0d1b77" stroke-width=".5" points="404.2251,-684.8163 403,-681.3163 401.7751,-684.8164 404.2251,-684.8163"/>
<text text-anchor="middle" x="424.5" y="-704" font-family="Arial" font-size="10.00" fill="#0d1b77">3.26%</text>
<text text-anchor="middle" x="424.5" y="-693" font-family="Arial" font-size="10.00" fill="#0d1b77">2910538×</text>
</g>
<!-- FreeModule_getDimension&#45;&gt;AdemAlgebra_getDimension -->
<g id="edge20" class="edge">
<title>FreeModule_getDimension&#45;&gt;AdemAlgebra_getDimension</title>
<path fill="none" stroke="#0d1475" stroke-width=".5" d="M403,-617.7562C403,-606.3998 403,-593.5328 403,-581.888"/>
<polygon fill="#0d1475" stroke="#0d1475" stroke-width=".5" points="404.2251,-581.8163 403,-578.3163 401.7751,-581.8164 404.2251,-581.8163"/>
<text text-anchor="middle" x="430" y="-601" font-family="Arial" font-size="10.00" fill="#0d1475">1.62%</text>
<text text-anchor="middle" x="430" y="-590" font-family="Arial" font-size="10.00" fill="#0d1475">180649185×</text>
</g>
<!-- Resolution_generateOldKernelAndComputeNewKernel -->
<g id="node17" class="node">
<title>Resolution_generateOldKernelAndComputeNewKernel</title>
<polygon fill="#fe0400" stroke="#fe0400" points="669.5,-990 418.5,-990 418.5,-927 669.5,-927 669.5,-990"/>
<text text-anchor="middle" x="544" y="-978" font-family="Arial" font-size="10.00" fill="#ffffff">csteen</text>
<text text-anchor="middle" x="544" y="-967" font-family="Arial" font-size="10.00" fill="#ffffff">Resolution_generateOldKernelAndComputeNewKernel</text>
<text text-anchor="middle" x="544" y="-956" font-family="Arial" font-size="10.00" fill="#ffffff">99.64%</text>
<text text-anchor="middle" x="544" y="-945" font-family="Arial" font-size="10.00" fill="#ffffff">(0.02%)</text>
<text text-anchor="middle" x="544" y="-934" font-family="Arial" font-size="10.00" fill="#ffffff">2485×</text>
</g>
<!-- Resolution_generateOldKernelAndComputeNewKernel&#45;&gt;FreeModuleHomomorphism_getMatrix -->
<g id="edge21" class="edge">
<title>Resolution_generateOldKernelAndComputeNewKernel&#45;&gt;FreeModuleHomomorphism_getMatrix</title>
<path fill="none" stroke="#0aaf28" stroke-width="1.82" d="M519.961,-926.7562C511.8059,-915.9872 502.622,-903.8599 494.1742,-892.7044"/>
<polygon fill="#0aaf28" stroke="#0aaf28" stroke-width="1.82" points="496.0083,-891.2419 490.0939,-887.3163 492.2694,-894.0733 496.0083,-891.2419"/>
<text text-anchor="middle" x="529" y="-910" font-family="Arial" font-size="10.00" fill="#0aaf28">45.51%</text>
<text text-anchor="middle" x="529" y="-899" font-family="Arial" font-size="10.00" fill="#0aaf28">2485×</text>
</g>
<!-- rowReduce -->
<g id="node18" class="node">
<title>rowReduce</title>
<polygon fill="#25bb09" stroke="#25bb09" points="603.5,-578 538.5,-578 538.5,-515 603.5,-515 603.5,-578"/>
<text text-anchor="middle" x="571" y="-566" font-family="Arial" font-size="10.00" fill="#ffffff">csteen</text>
<text text-anchor="middle" x="571" y="-555" font-family="Arial" font-size="10.00" fill="#ffffff">rowReduce</text>
<text text-anchor="middle" x="571" y="-544" font-family="Arial" font-size="10.00" fill="#ffffff">53.94%</text>
<text text-anchor="middle" x="571" y="-533" font-family="Arial" font-size="10.00" fill="#ffffff">(13.86%)</text>
<text text-anchor="middle" x="571" y="-522" font-family="Arial" font-size="10.00" fill="#ffffff">4970×</text>
</g>
<!-- Resolution_generateOldKernelAndComputeNewKernel&#45;&gt;rowReduce -->
<g id="edge22" class="edge">
<title>Resolution_generateOldKernelAndComputeNewKernel&#45;&gt;rowReduce</title>
<path fill="none" stroke="#25bb09" stroke-width="2.16" d="M556.8674,-926.5886C563.8215,-906.5236 571,-879.9017 571,-855.5 571,-855.5 571,-855.5 571,-649.5 571,-628.3462 571,-604.7487 571,-585.4829"/>
<polygon fill="#25bb09" stroke="#25bb09" stroke-width="2.16" points="573.5551,-585.3555 571,-578.0555 568.4451,-585.3556 573.5551,-585.3555"/>
<text text-anchor="middle" x="588" y="-755.5" font-family="Arial" font-size="10.00" fill="#25bb09">53.94%</text>
<text text-anchor="middle" x="588" y="-744.5" font-family="Arial" font-size="10.00" fill="#25bb09">4970×</text>
</g>
<!-- rowReduce&#45;&gt;Vector_stepIterator -->
<g id="edge34" class="edge">
<title>rowReduce&#45;&gt;Vector_stepIterator</title>
<path fill="none" stroke="#0c9983" stroke-width="1.15" d="M542.5583,-514.9342C533.2002,-503.1163 523.5316,-489.1179 517,-475 499.0256,-436.1488 510.2454,-421.3679 496,-381 495.5433,-379.7059 495.0556,-378.3995 494.5433,-377.0884"/>
<polygon fill="#0c9983" stroke="#0c9983" stroke-width="1.15" points="496.2622,-376.2988 492.4584,-372.0252 492.7669,-377.7381 496.2622,-376.2988"/>
<text text-anchor="middle" x="544" y="-446.5" font-family="Arial" font-size="10.00" fill="#0c9983">28.80%</text>
<text text-anchor="middle" x="544" y="-435.5" font-family="Arial" font-size="10.00" fill="#0c9983">887243388×</text>
</g>
<!-- Vector_add -->
<g id="node23" class="node">
<title>Vector_add</title>
<polygon fill="#0d4181" stroke="#0d4181" points="640.5,-475 575.5,-475 575.5,-412 640.5,-412 640.5,-475"/>
<text text-anchor="middle" x="608" y="-463" font-family="Arial" font-size="10.00" fill="#ffffff">csteen</text>
<text text-anchor="middle" x="608" y="-452" font-family="Arial" font-size="10.00" fill="#ffffff">Vector_add</text>
<text text-anchor="middle" x="608" y="-441" font-family="Arial" font-size="10.00" fill="#ffffff">11.27%</text>
<text text-anchor="middle" x="608" y="-430" font-family="Arial" font-size="10.00" fill="#ffffff">(0.27%)</text>
<text text-anchor="middle" x="608" y="-419" font-family="Arial" font-size="10.00" fill="#ffffff">31396420×</text>
</g>
<!-- rowReduce&#45;&gt;Vector_add -->
<g id="edge33" class="edge">
<title>rowReduce&#45;&gt;Vector_add</title>
<path fill="none" stroke="#0d4181" stroke-width=".5" d="M582.4031,-514.7562C586.4826,-503.3998 591.1047,-490.5328 595.2878,-478.888"/>
<polygon fill="#0d4181" stroke="#0d4181" stroke-width=".5" points="596.5404,-479.0244 596.5708,-475.3163 594.2346,-478.1961 596.5404,-479.0244"/>
<text text-anchor="middle" x="617.5" y="-498" font-family="Arial" font-size="10.00" fill="#0d4181">11.26%</text>
<text text-anchor="middle" x="617.5" y="-487" font-family="Arial" font-size="10.00" fill="#0d4181">31182914×</text>
</g>
<!-- Resolution_step -->
<g id="node20" class="node">
<title>Resolution_step</title>
<polygon fill="#fe0400" stroke="#fe0400" points="587,-1093 501,-1093 501,-1030 587,-1030 587,-1093"/>
<text text-anchor="middle" x="544" y="-1081" font-family="Arial" font-size="10.00" fill="#ffffff">csteen</text>
<text text-anchor="middle" x="544" y="-1070" font-family="Arial" font-size="10.00" fill="#ffffff">Resolution_step</text>
<text text-anchor="middle" x="544" y="-1059" font-family="Arial" font-size="10.00" fill="#ffffff">99.64%</text>
<text text-anchor="middle" x="544" y="-1048" font-family="Arial" font-size="10.00" fill="#ffffff">(0.00%)</text>
<text text-anchor="middle" x="544" y="-1037" font-family="Arial" font-size="10.00" fill="#ffffff">2485×</text>
</g>
<!-- Resolution_resolveThroughDegree&#45;&gt;Resolution_step -->
<g id="edge23" class="edge">
<title>Resolution_resolveThroughDegree&#45;&gt;Resolution_step</title>
<path fill="none" stroke="#fe0400" stroke-width="3.99" d="M544,-1132.7562C544,-1123.5536 544,-1113.3591 544,-1103.6267"/>
<polygon fill="#fe0400" stroke="#fe0400" stroke-width="3.99" points="547.5001,-1103.3163 544,-1093.3163 540.5001,-1103.3164 547.5001,-1103.3163"/>
<text text-anchor="middle" x="561" y="-1116" font-family="Arial" font-size="10.00" fill="#fe0400">99.64%</text>
<text text-anchor="middle" x="561" y="-1105" font-family="Arial" font-size="10.00" fill="#fe0400">2485×</text>
</g>
<!-- Resolution_step&#45;&gt;Resolution_generateOldKernelAndComputeNewKernel -->
<g id="edge24" class="edge">
<title>Resolution_step&#45;&gt;Resolution_generateOldKernelAndComputeNewKernel</title>
<path fill="none" stroke="#fe0400" stroke-width="3.99" d="M544,-1029.7562C544,-1020.5536 544,-1010.3591 544,-1000.6267"/>
<polygon fill="#fe0400" stroke="#fe0400" stroke-width="3.99" points="547.5001,-1000.3163 544,-990.3163 540.5001,-1000.3164 547.5001,-1000.3163"/>
<text text-anchor="middle" x="561" y="-1013" font-family="Arial" font-size="10.00" fill="#fe0400">99.64%</text>
<text text-anchor="middle" x="561" y="-1002" font-family="Arial" font-size="10.00" fill="#fe0400">2485×</text>
</g>
<!-- Vector2_add -->
<g id="node21" class="node">
<title>Vector2_add</title>
<polygon fill="#0d4081" stroke="#0d4081" points="643.5,-372 572.5,-372 572.5,-309 643.5,-309 643.5,-372"/>
<text text-anchor="middle" x="608" y="-360" font-family="Arial" font-size="10.00" fill="#ffffff">csteen</text>
<text text-anchor="middle" x="608" y="-349" font-family="Arial" font-size="10.00" fill="#ffffff">Vector2_add</text>
<text text-anchor="middle" x="608" y="-338" font-family="Arial" font-size="10.00" fill="#ffffff">11.00%</text>
<text text-anchor="middle" x="608" y="-327" font-family="Arial" font-size="10.00" fill="#ffffff">(10.89%)</text>
<text text-anchor="middle" x="608" y="-316" font-family="Arial" font-size="10.00" fill="#ffffff">31396420×</text>
</g>
<!-- Vector2_add&#45;&gt;getBitlength -->
<g id="edge25" class="edge">
<title>Vector2_add&#45;&gt;getBitlength</title>
<path fill="none" stroke="#0d0d73" stroke-width=".5" d="M602.7443,-308.6841C600.7403,-298.7415 598.1605,-287.8106 595,-278 594.4102,-276.1691 593.7639,-274.3095 593.0778,-272.4443"/>
<polygon fill="#0d0d73" stroke="#0d0d73" stroke-width=".5" points="594.1905,-271.9237 591.8034,-269.086 591.8999,-272.793 594.1905,-271.9237"/>
<text text-anchor="middle" x="625.5" y="-292" font-family="Arial" font-size="10.00" fill="#0d0d73">0.11%</text>
<text text-anchor="middle" x="625.5" y="-281" font-family="Arial" font-size="10.00" fill="#0d0d73">31396420×</text>
</g>
<!-- Vector_add&#45;&gt;Vector2_add -->
<g id="edge26" class="edge">
<title>Vector_add&#45;&gt;Vector2_add</title>
<path fill="none" stroke="#0d4081" stroke-width=".5" d="M608,-411.7562C608,-400.3998 608,-387.5328 608,-375.888"/>
<polygon fill="#0d4081" stroke="#0d4081" stroke-width=".5" points="609.2251,-375.8163 608,-372.3163 606.7751,-375.8164 609.2251,-375.8163"/>
<text text-anchor="middle" x="632.5" y="-395" font-family="Arial" font-size="10.00" fill="#0d4081">11.00%</text>
<text text-anchor="middle" x="632.5" y="-384" font-family="Arial" font-size="10.00" fill="#0d4081">31396420×</text>
</g>
</g>
</svg>
