<?xml version="1.0" encoding="UTF-8" standalone="no"?>
<!DOCTYPE svg PUBLIC "-//W3C//DTD SVG 1.1//EN"
 "http://www.w3.org/Graphics/SVG/1.1/DTD/svg11.dtd">
<!-- Generated by graphviz version 2.40.1 (20161225.0304)
 -->
<!-- Title: %3 Pages: 1 -->
<svg width="696pt" height="1616pt"
 viewBox="0.00 0.00 696.00 1616.00" xmlns="http://www.w3.org/2000/svg" xmlns:xlink="http://www.w3.org/1999/xlink">
<g id="graph0" class="graph" transform="scale(1 1) rotate(0) translate(4 1612)">
<title>%3</title>
<polygon fill="#ffffff" stroke="transparent" points="-4,4 -4,-1612 692,-1612 692,4 -4,4"/>
<!-- (below main) -->
<g id="node1" class="node">
<title>(below main)</title>
<polygon fill="#ff0000" stroke="#ff0000" points="573.5,-1402 502.5,-1402 502.5,-1339 573.5,-1339 573.5,-1402"/>
<text text-anchor="middle" x="538" y="-1390" font-family="Arial" font-size="10.00" fill="#ffffff">libc&#45;2.27.so</text>
<text text-anchor="middle" x="538" y="-1379" font-family="Arial" font-size="10.00" fill="#ffffff">(below main)</text>
<text text-anchor="middle" x="538" y="-1368" font-family="Arial" font-size="10.00" fill="#ffffff">100.00%</text>
<text text-anchor="middle" x="538" y="-1357" font-family="Arial" font-size="10.00" fill="#ffffff">(0.00%)</text>
<text text-anchor="middle" x="538" y="-1346" font-family="Arial" font-size="10.00" fill="#ffffff">1×</text>
</g>
<!-- main -->
<g id="node2" class="node">
<title>main</title>
<polygon fill="#ff0000" stroke="#ff0000" points="565.5,-1299 510.5,-1299 510.5,-1236 565.5,-1236 565.5,-1299"/>
<text text-anchor="middle" x="538" y="-1287" font-family="Arial" font-size="10.00" fill="#ffffff">csteen</text>
<text text-anchor="middle" x="538" y="-1276" font-family="Arial" font-size="10.00" fill="#ffffff">main</text>
<text text-anchor="middle" x="538" y="-1265" font-family="Arial" font-size="10.00" fill="#ffffff">100.00%</text>
<text text-anchor="middle" x="538" y="-1254" font-family="Arial" font-size="10.00" fill="#ffffff">(0.00%)</text>
<text text-anchor="middle" x="538" y="-1243" font-family="Arial" font-size="10.00" fill="#ffffff">1×</text>
</g>
<!-- (below main)&#45;&gt;main -->
<g id="edge1" class="edge">
<title>(below main)&#45;&gt;main</title>
<path fill="none" stroke="#ff0000" stroke-width="4" d="M538,-1338.7562C538,-1329.5536 538,-1319.3591 538,-1309.6267"/>
<polygon fill="#ff0000" stroke="#ff0000" stroke-width="4" points="541.5001,-1309.3163 538,-1299.3163 534.5001,-1309.3164 541.5001,-1309.3163"/>
<text text-anchor="middle" x="557.5" y="-1322" font-family="Arial" font-size="10.00" fill="#ff0000">100.00%</text>
<text text-anchor="middle" x="557.5" y="-1311" font-family="Arial" font-size="10.00" fill="#ff0000">1×</text>
</g>
<!-- Resolution_resolveThroughDegree -->
<g id="node19" class="node">
<title>Resolution_resolveThroughDegree</title>
<polygon fill="#ff0200" stroke="#ff0200" points="620.5,-1196 455.5,-1196 455.5,-1133 620.5,-1133 620.5,-1196"/>
<text text-anchor="middle" x="538" y="-1184" font-family="Arial" font-size="10.00" fill="#ffffff">csteen</text>
<text text-anchor="middle" x="538" y="-1173" font-family="Arial" font-size="10.00" fill="#ffffff">Resolution_resolveThroughDegree</text>
<text text-anchor="middle" x="538" y="-1162" font-family="Arial" font-size="10.00" fill="#ffffff">99.79%</text>
<text text-anchor="middle" x="538" y="-1151" font-family="Arial" font-size="10.00" fill="#ffffff">(0.00%)</text>
<text text-anchor="middle" x="538" y="-1140" font-family="Arial" font-size="10.00" fill="#ffffff">1×</text>
</g>
<!-- main&#45;&gt;Resolution_resolveThroughDegree -->
<g id="edge32" class="edge">
<title>main&#45;&gt;Resolution_resolveThroughDegree</title>
<path fill="none" stroke="#ff0200" stroke-width="3.99" d="M538,-1235.7562C538,-1226.5536 538,-1216.3591 538,-1206.6267"/>
<polygon fill="#ff0200" stroke="#ff0200" stroke-width="3.99" points="541.5001,-1206.3163 538,-1196.3163 534.5001,-1206.3164 541.5001,-1206.3163"/>
<text text-anchor="middle" x="555" y="-1219" font-family="Arial" font-size="10.00" fill="#ff0200">99.79%</text>
<text text-anchor="middle" x="555" y="-1208" font-family="Arial" font-size="10.00" fill="#ff0200">1×</text>
</g>
<!-- 0x0000000000000f60 -->
<g id="node3" class="node">
<title>0x0000000000000f60</title>
<polygon fill="#ff0000" stroke="#ff0000" points="592.5,-1608 483.5,-1608 483.5,-1545 592.5,-1545 592.5,-1608"/>
<text text-anchor="middle" x="538" y="-1596" font-family="Arial" font-size="10.00" fill="#ffffff">ld&#45;2.27.so</text>
<text text-anchor="middle" x="538" y="-1585" font-family="Arial" font-size="10.00" fill="#ffffff">0x0000000000000f60</text>
<text text-anchor="middle" x="538" y="-1574" font-family="Arial" font-size="10.00" fill="#ffffff">100.00%</text>
<text text-anchor="middle" x="538" y="-1563" font-family="Arial" font-size="10.00" fill="#ffffff">(0.00%)</text>
<text text-anchor="middle" x="538" y="-1552" font-family="Arial" font-size="10.00" fill="#ffffff">0×</text>
</g>
<!-- _start -->
<g id="node4" class="node">
<title>_start</title>
<polygon fill="#ff0000" stroke="#ff0000" points="565.5,-1505 510.5,-1505 510.5,-1442 565.5,-1442 565.5,-1505"/>
<text text-anchor="middle" x="538" y="-1493" font-family="Arial" font-size="10.00" fill="#ffffff">csteen</text>
<text text-anchor="middle" x="538" y="-1482" font-family="Arial" font-size="10.00" fill="#ffffff">_start</text>
<text text-anchor="middle" x="538" y="-1471" font-family="Arial" font-size="10.00" fill="#ffffff">100.00%</text>
<text text-anchor="middle" x="538" y="-1460" font-family="Arial" font-size="10.00" fill="#ffffff">(0.00%)</text>
<text text-anchor="middle" x="538" y="-1449" font-family="Arial" font-size="10.00" fill="#ffffff">1×</text>
</g>
<!-- 0x0000000000000f60&#45;&gt;_start -->
<g id="edge2" class="edge">
<title>0x0000000000000f60&#45;&gt;_start</title>
<path fill="none" stroke="#ff0000" stroke-width="4" d="M538,-1544.7562C538,-1535.5536 538,-1525.3591 538,-1515.6267"/>
<polygon fill="#ff0000" stroke="#ff0000" stroke-width="4" points="541.5001,-1515.3163 538,-1505.3163 534.5001,-1515.3164 541.5001,-1515.3163"/>
<text text-anchor="middle" x="557.5" y="-1528" font-family="Arial" font-size="10.00" fill="#ff0000">100.00%</text>
<text text-anchor="middle" x="557.5" y="-1517" font-family="Arial" font-size="10.00" fill="#ff0000">1×</text>
</g>
<!-- _start&#45;&gt;(below main) -->
<g id="edge29" class="edge">
<title>_start&#45;&gt;(below main)</title>
<path fill="none" stroke="#ff0000" stroke-width="4" d="M538,-1441.7562C538,-1432.5536 538,-1422.3591 538,-1412.6267"/>
<polygon fill="#ff0000" stroke="#ff0000" stroke-width="4" points="541.5001,-1412.3163 538,-1402.3163 534.5001,-1412.3164 541.5001,-1412.3163"/>
<text text-anchor="middle" x="557.5" y="-1425" font-family="Arial" font-size="10.00" fill="#ff0000">100.00%</text>
<text text-anchor="middle" x="557.5" y="-1414" font-family="Arial" font-size="10.00" fill="#ff0000">1×</text>
</g>
<!-- AdemAlgebra__makeMonoAdmissible2 -->
<g id="node5" class="node">
<title>AdemAlgebra__makeMonoAdmissible2</title>
<polygon fill="#0ba74f" stroke="#0ba74f" points="333.5,-578 146.5,-578 146.5,-515 333.5,-515 333.5,-578"/>
<text text-anchor="middle" x="240" y="-566" font-family="Arial" font-size="10.00" fill="#ffffff">csteen</text>
<text text-anchor="middle" x="240" y="-555" font-family="Arial" font-size="10.00" fill="#ffffff">AdemAlgebra__makeMonoAdmissible2</text>
<text text-anchor="middle" x="240" y="-544" font-family="Arial" font-size="10.00" fill="#ffffff">39.12%</text>
<text text-anchor="middle" x="240" y="-533" font-family="Arial" font-size="10.00" fill="#ffffff">(0.92%)</text>
<text text-anchor="middle" x="240" y="-522" font-family="Arial" font-size="10.00" fill="#ffffff">8503566×</text>
</g>
<!-- AdemAlgebra__makeMonoAdmissible2&#39;2 -->
<g id="node6" class="node">
<title>AdemAlgebra__makeMonoAdmissible2&#39;2</title>
<polygon fill="#0b9f6d" stroke="#0b9f6d" points="321,-475 127,-475 127,-412 321,-412 321,-475"/>
<text text-anchor="middle" x="224" y="-463" font-family="Arial" font-size="10.00" fill="#ffffff">csteen</text>
<text text-anchor="middle" x="224" y="-452" font-family="Arial" font-size="10.00" fill="#ffffff">AdemAlgebra__makeMonoAdmissible2&#39;2</text>
<text text-anchor="middle" x="224" y="-441" font-family="Arial" font-size="10.00" fill="#ffffff">33.37%</text>
<text text-anchor="middle" x="224" y="-430" font-family="Arial" font-size="10.00" fill="#ffffff">(4.51%)</text>
<text text-anchor="middle" x="224" y="-419" font-family="Arial" font-size="10.00" fill="#ffffff">39175747×</text>
</g>
<!-- AdemAlgebra__makeMonoAdmissible2&#45;&gt;AdemAlgebra__makeMonoAdmissible2&#39;2 -->
<g id="edge3" class="edge">
<title>AdemAlgebra__makeMonoAdmissible2&#45;&gt;AdemAlgebra__makeMonoAdmissible2&#39;2</title>
<path fill="none" stroke="#0b9f6d" stroke-width="1.33" d="M235.0689,-514.7562C233.4265,-504.183 231.5806,-492.3004 229.874,-481.3138"/>
<polygon fill="#0b9f6d" stroke="#0b9f6d" stroke-width="1.33" points="231.8387,-480.736 228.9423,-475.3163 227.8268,-481.3592 231.8387,-480.736"/>
<text text-anchor="middle" x="255.5" y="-498" font-family="Arial" font-size="10.00" fill="#0b9f6d">33.37%</text>
<text text-anchor="middle" x="255.5" y="-487" font-family="Arial" font-size="10.00" fill="#0b9f6d">7239254×</text>
</g>
<!-- AdemAlgebra_basisElement_fromIndex -->
<g id="node7" class="node">
<title>AdemAlgebra_basisElement_fromIndex</title>
<polygon fill="#0d4081" stroke="#0d4081" points="188,-372 0,-372 0,-309 188,-309 188,-372"/>
<text text-anchor="middle" x="94" y="-360" font-family="Arial" font-size="10.00" fill="#ffffff">csteen</text>
<text text-anchor="middle" x="94" y="-349" font-family="Arial" font-size="10.00" fill="#ffffff">AdemAlgebra_basisElement_fromIndex</text>
<text text-anchor="middle" x="94" y="-338" font-family="Arial" font-size="10.00" fill="#ffffff">10.96%</text>
<text text-anchor="middle" x="94" y="-327" font-family="Arial" font-size="10.00" fill="#ffffff">(0.23%)</text>
<text text-anchor="middle" x="94" y="-316" font-family="Arial" font-size="10.00" fill="#ffffff">56374163×</text>
</g>
<!-- AdemAlgebra__makeMonoAdmissible2&#45;&gt;AdemAlgebra_basisElement_fromIndex -->
<g id="edge4" class="edge">
<title>AdemAlgebra__makeMonoAdmissible2&#45;&gt;AdemAlgebra_basisElement_fromIndex</title>
<path fill="none" stroke="#0d1274" stroke-width=".5" d="M146.1598,-525.4558C119.989,-514.8037 94.5024,-498.8469 79,-475 59.8648,-445.5647 68.1783,-404.6678 78.4165,-375.718"/>
<polygon fill="#0d1274" stroke="#0d1274" stroke-width=".5" points="79.633,-375.9564 79.6729,-372.2484 77.3294,-375.1222 79.633,-375.9564"/>
<text text-anchor="middle" x="100.5" y="-446.5" font-family="Arial" font-size="10.00" fill="#0d1274">1.16%</text>
<text text-anchor="middle" x="100.5" y="-435.5" font-family="Arial" font-size="10.00" fill="#0d1274">7239254×</text>
</g>
<!-- AdemAlgebra_basisElement_toIndex -->
<g id="node8" class="node">
<title>AdemAlgebra_basisElement_toIndex</title>
<polygon fill="#0c758d" stroke="#0c758d" points="312.5,-269 135.5,-269 135.5,-206 312.5,-206 312.5,-269"/>
<text text-anchor="middle" x="224" y="-257" font-family="Arial" font-size="10.00" fill="#ffffff">csteen</text>
<text text-anchor="middle" x="224" y="-246" font-family="Arial" font-size="10.00" fill="#ffffff">AdemAlgebra_basisElement_toIndex</text>
<text text-anchor="middle" x="224" y="-235" font-family="Arial" font-size="10.00" fill="#ffffff">20.34%</text>
<text text-anchor="middle" x="224" y="-224" font-family="Arial" font-size="10.00" fill="#ffffff">(0.50%)</text>
<text text-anchor="middle" x="224" y="-213" font-family="Arial" font-size="10.00" fill="#ffffff">104493802×</text>
</g>
<!-- AdemAlgebra__makeMonoAdmissible2&#45;&gt;AdemAlgebra_basisElement_toIndex -->
<g id="edge5" class="edge">
<title>AdemAlgebra__makeMonoAdmissible2&#45;&gt;AdemAlgebra_basisElement_toIndex</title>
<path fill="none" stroke="#0d1274" stroke-width=".5" d="M327.2852,-514.8874C356.4924,-502.4142 383.7563,-487.988 392,-475 407.0048,-451.3599 396.3509,-439.6599 392,-412 382.2808,-350.2119 327.1461,-301.3176 282.649,-271.1916"/>
<polygon fill="#0d1274" stroke="#0d1274" stroke-width=".5" points="283.3227,-270.1684 279.734,-269.2344 281.957,-272.2025 283.3227,-270.1684"/>
<text text-anchor="middle" x="412.5" y="-395" font-family="Arial" font-size="10.00" fill="#0d1274">1.18%</text>
<text text-anchor="middle" x="412.5" y="-384" font-family="Arial" font-size="10.00" fill="#0d1274">8503566×</text>
</g>
<!-- Vector_stepIterator -->
<g id="node9" class="node">
<title>Vector_stepIterator</title>
<polygon fill="#0ba946" stroke="#0ba946" points="547.5,-372 448.5,-372 448.5,-309 547.5,-309 547.5,-372"/>
<text text-anchor="middle" x="498" y="-360" font-family="Arial" font-size="10.00" fill="#ffffff">csteen</text>
<text text-anchor="middle" x="498" y="-349" font-family="Arial" font-size="10.00" fill="#ffffff">Vector_stepIterator</text>
<text text-anchor="middle" x="498" y="-338" font-family="Arial" font-size="10.00" fill="#ffffff">40.67%</text>
<text text-anchor="middle" x="498" y="-327" font-family="Arial" font-size="10.00" fill="#ffffff">(31.87%)</text>
<text text-anchor="middle" x="498" y="-316" font-family="Arial" font-size="10.00" fill="#ffffff">4852977587×</text>
</g>
<!-- AdemAlgebra__makeMonoAdmissible2&#45;&gt;Vector_stepIterator -->
<g id="edge6" class="edge">
<title>AdemAlgebra__makeMonoAdmissible2&#45;&gt;Vector_stepIterator</title>
<path fill="none" stroke="#0d1776" stroke-width=".5" d="M333.7717,-516.8997C336.5378,-516.2327 339.2849,-515.5973 342,-515 356.6718,-511.7725 397.133,-515.2115 409,-506 444.5968,-478.3687 425.3217,-451.5053 447,-412 453.8973,-399.4307 462.6085,-386.4486 470.8704,-375.0526"/>
<polygon fill="#0d1776" stroke="#0d1776" stroke-width=".5" points="471.8854,-375.7399 472.9598,-372.1908 469.9066,-374.2952 471.8854,-375.7399"/>
<text text-anchor="middle" x="474" y="-446.5" font-family="Arial" font-size="10.00" fill="#0d1776">2.42%</text>
<text text-anchor="middle" x="474" y="-435.5" font-family="Arial" font-size="10.00" fill="#0d1776">293016160×</text>
</g>
<!-- AdemAlgebra__makeMonoAdmissible2&#39;2&#45;&gt;AdemAlgebra__makeMonoAdmissible2&#39;2 -->
<g id="edge7" class="edge">
<title>AdemAlgebra__makeMonoAdmissible2&#39;2&#45;&gt;AdemAlgebra__makeMonoAdmissible2&#39;2</title>
<path fill="none" stroke="#0b9f6d" stroke-width="1.33" d="M321.2657,-449.8257C326.7382,-448.2941 330,-446.1855 330,-443.5 330,-441.9055 328.8501,-440.5143 326.7703,-439.3266"/>
<polygon fill="#0b9f6d" stroke="#0b9f6d" stroke-width="1.33" points="327.4067,-437.3958 321.2657,-437.1743 325.9282,-441.1771 327.4067,-437.3958"/>
<text text-anchor="middle" x="354.5" y="-441" font-family="Arial" font-size="10.00" fill="#0b9f6d">31936493×</text>
</g>
<!-- AdemAlgebra__makeMonoAdmissible2&#39;2&#45;&gt;AdemAlgebra_basisElement_fromIndex -->
<g id="edge8" class="edge">
<title>AdemAlgebra__makeMonoAdmissible2&#39;2&#45;&gt;AdemAlgebra_basisElement_fromIndex</title>
<path fill="none" stroke="#0d2d7c" stroke-width=".5" d="M179.7483,-411.9721C175.7466,-408.9782 171.7804,-405.9567 168,-403 156.5214,-394.0224 144.3347,-383.9612 133.2346,-374.5787"/>
<polygon fill="#0d2d7c" stroke="#0d2d7c" stroke-width=".5" points="133.8995,-373.5365 130.437,-372.209 132.3159,-375.406 133.8995,-373.5365"/>
<text text-anchor="middle" x="192.5" y="-395" font-family="Arial" font-size="10.00" fill="#0d2d7c">7.30%</text>
<text text-anchor="middle" x="192.5" y="-384" font-family="Arial" font-size="10.00" fill="#0d2d7c">31936493×</text>
</g>
<!-- AdemAlgebra__makeMonoAdmissible2&#39;2&#45;&gt;AdemAlgebra_basisElement_toIndex -->
<g id="edge9" class="edge">
<title>AdemAlgebra__makeMonoAdmissible2&#39;2&#45;&gt;AdemAlgebra_basisElement_toIndex</title>
<path fill="none" stroke="#0d327e" stroke-width=".5" d="M224,-411.764C224,-374.2625 224,-312.0398 224,-272.9783"/>
<polygon fill="#0d327e" stroke="#0d327e" stroke-width=".5" points="225.2251,-272.7721 224,-269.2721 222.7751,-272.7721 225.2251,-272.7721"/>
<text text-anchor="middle" x="248.5" y="-343.5" font-family="Arial" font-size="10.00" fill="#0d327e">8.37%</text>
<text text-anchor="middle" x="248.5" y="-332.5" font-family="Arial" font-size="10.00" fill="#0d327e">39175747×</text>
</g>
<!-- AdemAlgebra__makeMonoAdmissible2&#39;2&#45;&gt;Vector_stepIterator -->
<g id="edge10" class="edge">
<title>AdemAlgebra__makeMonoAdmissible2&#39;2&#45;&gt;Vector_stepIterator</title>
<path fill="none" stroke="#0d4983" stroke-width=".51" d="M268.0742,-411.9071C285.1889,-400.8176 305.3724,-389.1151 325,-381 363.5058,-365.0796 409.5421,-354.6843 444.4413,-348.4158"/>
<polygon fill="#0d4983" stroke="#0d4983" stroke-width=".51" points="444.8865,-349.6166 448.211,-347.747 444.4462,-347.1353 444.8865,-349.6166"/>
<text text-anchor="middle" x="354.5" y="-395" font-family="Arial" font-size="10.00" fill="#0d4983">12.76%</text>
<text text-anchor="middle" x="354.5" y="-384" font-family="Arial" font-size="10.00" fill="#0d4983">1525895325×</text>
</g>
<!-- AdemAlgebra_basisElement_fromIndex&#45;&gt;AdemAlgebra_basisElement_toIndex -->
<g id="edge11" class="edge">
<title>AdemAlgebra_basisElement_fromIndex&#45;&gt;AdemAlgebra_basisElement_toIndex</title>
<path fill="none" stroke="#0d3e81" stroke-width=".5" d="M130.437,-308.791C142.2641,-298.7518 155.5487,-287.7384 168,-278 170.8353,-275.7825 173.7751,-273.5285 176.756,-271.277"/>
<polygon fill="#0d3e81" stroke="#0d3e81" stroke-width=".5" points="177.6865,-272.1101 179.7483,-269.0279 176.2144,-270.1517 177.6865,-272.1101"/>
<text text-anchor="middle" x="192.5" y="-292" font-family="Arial" font-size="10.00" fill="#0d3e81">10.73%</text>
<text text-anchor="middle" x="192.5" y="-281" font-family="Arial" font-size="10.00" fill="#0d3e81">56374163×</text>
</g>
<!-- AdemAlgebra_basisElement_toKey -->
<g id="node10" class="node">
<title>AdemAlgebra_basisElement_toKey</title>
<polygon fill="#0d1c77" stroke="#0d1c77" points="275,-166 105,-166 105,-103 275,-103 275,-166"/>
<text text-anchor="middle" x="190" y="-154" font-family="Arial" font-size="10.00" fill="#ffffff">csteen</text>
<text text-anchor="middle" x="190" y="-143" font-family="Arial" font-size="10.00" fill="#ffffff">AdemAlgebra_basisElement_toKey</text>
<text text-anchor="middle" x="190" y="-132" font-family="Arial" font-size="10.00" fill="#ffffff">3.54%</text>
<text text-anchor="middle" x="190" y="-121" font-family="Arial" font-size="10.00" fill="#ffffff">(3.42%)</text>
<text text-anchor="middle" x="190" y="-110" font-family="Arial" font-size="10.00" fill="#ffffff">104505327×</text>
</g>
<!-- AdemAlgebra_basisElement_toIndex&#45;&gt;AdemAlgebra_basisElement_toKey -->
<g id="edge12" class="edge">
<title>AdemAlgebra_basisElement_toIndex&#45;&gt;AdemAlgebra_basisElement_toKey</title>
<path fill="none" stroke="#0d1c77" stroke-width=".5" d="M213.5214,-205.7562C209.7728,-194.3998 205.5254,-181.5328 201.6815,-169.888"/>
<polygon fill="#0d1c77" stroke="#0d1c77" stroke-width=".5" points="202.7629,-169.2559 200.5025,-166.3163 200.4364,-170.024 202.7629,-169.2559"/>
<text text-anchor="middle" x="238" y="-189" font-family="Arial" font-size="10.00" fill="#0d1c77">3.54%</text>
<text text-anchor="middle" x="238" y="-178" font-family="Arial" font-size="10.00" fill="#0d1c77">104493802×</text>
</g>
<!-- kh_get_monomial_index_map -->
<g id="node11" class="node">
<title>kh_get_monomial_index_map</title>
<polygon fill="#0c5d88" stroke="#0c5d88" points="430,-166 284,-166 284,-103 430,-103 430,-166"/>
<text text-anchor="middle" x="357" y="-154" font-family="Arial" font-size="10.00" fill="#ffffff">csteen</text>
<text text-anchor="middle" x="357" y="-143" font-family="Arial" font-size="10.00" fill="#ffffff">kh_get_monomial_index_map</text>
<text text-anchor="middle" x="357" y="-132" font-family="Arial" font-size="10.00" fill="#ffffff">16.31%</text>
<text text-anchor="middle" x="357" y="-121" font-family="Arial" font-size="10.00" fill="#ffffff">(9.29%)</text>
<text text-anchor="middle" x="357" y="-110" font-family="Arial" font-size="10.00" fill="#ffffff">104493802×</text>
</g>
<!-- AdemAlgebra_basisElement_toIndex&#45;&gt;kh_get_monomial_index_map -->
<g id="edge13" class="edge">
<title>AdemAlgebra_basisElement_toIndex&#45;&gt;kh_get_monomial_index_map</title>
<path fill="none" stroke="#0c5d88" stroke-width=".65" d="M264.9896,-205.7562C280.0329,-194.1061 297.129,-180.8663 312.4682,-168.987"/>
<polygon fill="#0c5d88" stroke="#0c5d88" stroke-width=".65" points="313.6115,-169.8724 315.9168,-166.3163 311.897,-167.6587 313.6115,-169.8724"/>
<text text-anchor="middle" x="330" y="-189" font-family="Arial" font-size="10.00" fill="#0c5d88">16.31%</text>
<text text-anchor="middle" x="330" y="-178" font-family="Arial" font-size="10.00" fill="#0c5d88">104493802×</text>
</g>
<!-- getBitlength -->
<g id="node22" class="node">
<title>getBitlength</title>
<polygon fill="#0d2079" stroke="#0d2079" points="640.5,-269 565.5,-269 565.5,-206 640.5,-206 640.5,-269"/>
<text text-anchor="middle" x="603" y="-257" font-family="Arial" font-size="10.00" fill="#ffffff">csteen</text>
<text text-anchor="middle" x="603" y="-246" font-family="Arial" font-size="10.00" fill="#ffffff">getBitlength</text>
<text text-anchor="middle" x="603" y="-235" font-family="Arial" font-size="10.00" fill="#ffffff">4.56%</text>
<text text-anchor="middle" x="603" y="-224" font-family="Arial" font-size="10.00" fill="#ffffff">(4.56%)</text>
<text text-anchor="middle" x="603" y="-213" font-family="Arial" font-size="10.00" fill="#ffffff">5006498183×</text>
</g>
<!-- Vector_stepIterator&#45;&gt;getBitlength -->
<g id="edge28" class="edge">
<title>Vector_stepIterator&#45;&gt;getBitlength</title>
<path fill="none" stroke="#0d2078" stroke-width=".5" d="M540.1033,-308.5365C542.9013,-305.7753 545.5687,-302.918 548,-300 555.1296,-291.4432 553.1947,-286.8169 560,-278 561.5508,-275.9907 563.2037,-273.9914 564.9245,-272.0189"/>
<polygon fill="#0d2078" stroke="#0d2078" stroke-width=".5" points="565.8924,-272.7741 567.3097,-269.3474 564.0649,-271.1424 565.8924,-272.7741"/>
<text text-anchor="middle" x="589.5" y="-292" font-family="Arial" font-size="10.00" fill="#0d2078">4.40%</text>
<text text-anchor="middle" x="589.5" y="-281" font-family="Arial" font-size="10.00" fill="#0d2078">4830453997×</text>
</g>
<!-- getBitMask -->
<g id="node24" class="node">
<title>getBitMask</title>
<polygon fill="#0d2078" stroke="#0d2078" points="525.5,-269 450.5,-269 450.5,-206 525.5,-206 525.5,-269"/>
<text text-anchor="middle" x="488" y="-257" font-family="Arial" font-size="10.00" fill="#ffffff">csteen</text>
<text text-anchor="middle" x="488" y="-246" font-family="Arial" font-size="10.00" fill="#ffffff">getBitMask</text>
<text text-anchor="middle" x="488" y="-235" font-family="Arial" font-size="10.00" fill="#ffffff">4.42%</text>
<text text-anchor="middle" x="488" y="-224" font-family="Arial" font-size="10.00" fill="#ffffff">(4.42%)</text>
<text text-anchor="middle" x="488" y="-213" font-family="Arial" font-size="10.00" fill="#ffffff">4853637812×</text>
</g>
<!-- Vector_stepIterator&#45;&gt;getBitMask -->
<g id="edge27" class="edge">
<title>Vector_stepIterator&#45;&gt;getBitMask</title>
<path fill="none" stroke="#0d2078" stroke-width=".5" d="M492.1258,-308.7166C491.6975,-305.7764 491.3121,-302.8371 491,-300 490.0335,-291.2131 489.3783,-281.6972 488.9342,-272.8038"/>
<polygon fill="#0d2078" stroke="#0d2078" stroke-width=".5" points="490.145,-272.4727 488.7564,-269.0343 487.6977,-272.5881 490.145,-272.4727"/>
<text text-anchor="middle" x="520.5" y="-292" font-family="Arial" font-size="10.00" fill="#0d2078">4.40%</text>
<text text-anchor="middle" x="520.5" y="-281" font-family="Arial" font-size="10.00" fill="#0d2078">4830453997×</text>
</g>
<!-- __ac_X31_hash_string -->
<g id="node25" class="node">
<title>__ac_X31_hash_string</title>
<polygon fill="#0d1776" stroke="#0d1776" points="349,-63 233,-63 233,0 349,0 349,-63"/>
<text text-anchor="middle" x="291" y="-51" font-family="Arial" font-size="10.00" fill="#ffffff">csteen</text>
<text text-anchor="middle" x="291" y="-40" font-family="Arial" font-size="10.00" fill="#ffffff">__ac_X31_hash_string</text>
<text text-anchor="middle" x="291" y="-29" font-family="Arial" font-size="10.00" fill="#ffffff">2.50%</text>
<text text-anchor="middle" x="291" y="-18" font-family="Arial" font-size="10.00" fill="#ffffff">(2.50%)</text>
<text text-anchor="middle" x="291" y="-7" font-family="Arial" font-size="10.00" fill="#ffffff">104505327×</text>
</g>
<!-- kh_get_monomial_index_map&#45;&gt;__ac_X31_hash_string -->
<g id="edge30" class="edge">
<title>kh_get_monomial_index_map&#45;&gt;__ac_X31_hash_string</title>
<path fill="none" stroke="#0d1776" stroke-width=".5" d="M336.6593,-102.7562C329.2569,-91.204 320.853,-78.0887 313.2906,-66.2868"/>
<polygon fill="#0d1776" stroke="#0d1776" stroke-width=".5" points="314.3069,-65.6023 311.3872,-63.3163 312.2441,-66.9242 314.3069,-65.6023"/>
<text text-anchor="middle" x="357" y="-86" font-family="Arial" font-size="10.00" fill="#0d1776">2.50%</text>
<text text-anchor="middle" x="357" y="-75" font-family="Arial" font-size="10.00" fill="#0d1776">104493802×</text>
</g>
<!-- __strcmp_sse2_unaligned -->
<g id="node26" class="node">
<title>__strcmp_sse2_unaligned</title>
<polygon fill="#0d2079" stroke="#0d2079" points="488,-63 358,-63 358,0 488,0 488,-63"/>
<text text-anchor="middle" x="423" y="-51" font-family="Arial" font-size="10.00" fill="#ffffff">libc&#45;2.27.so</text>
<text text-anchor="middle" x="423" y="-40" font-family="Arial" font-size="10.00" fill="#ffffff">__strcmp_sse2_unaligned</text>
<text text-anchor="middle" x="423" y="-29" font-family="Arial" font-size="10.00" fill="#ffffff">4.51%</text>
<text text-anchor="middle" x="423" y="-18" font-family="Arial" font-size="10.00" fill="#ffffff">(4.51%)</text>
<text text-anchor="middle" x="423" y="-7" font-family="Arial" font-size="10.00" fill="#ffffff">1573166822×</text>
</g>
<!-- kh_get_monomial_index_map&#45;&gt;__strcmp_sse2_unaligned -->
<g id="edge31" class="edge">
<title>kh_get_monomial_index_map&#45;&gt;__strcmp_sse2_unaligned</title>
<path fill="none" stroke="#0d2079" stroke-width=".5" d="M380.0611,-102.8452C382.1029,-99.878 384.1102,-96.8973 386,-94 391.7059,-85.2522 397.5928,-75.6223 402.9463,-66.597"/>
<polygon fill="#0d2079" stroke="#0d2079" stroke-width=".5" points="404.1674,-66.9384 404.8932,-63.3019 402.058,-65.6921 404.1674,-66.9384"/>
<text text-anchor="middle" x="428.5" y="-86" font-family="Arial" font-size="10.00" fill="#0d2079">4.51%</text>
<text text-anchor="middle" x="428.5" y="-75" font-family="Arial" font-size="10.00" fill="#0d2079">1573000072×</text>
</g>
<!-- AdemAlgebra_getDimension -->
<g id="node12" class="node">
<title>AdemAlgebra_getDimension</title>
<polygon fill="#0d1274" stroke="#0d1274" points="487,-578 347,-578 347,-515 487,-515 487,-578"/>
<text text-anchor="middle" x="417" y="-566" font-family="Arial" font-size="10.00" fill="#ffffff">csteen</text>
<text text-anchor="middle" x="417" y="-555" font-family="Arial" font-size="10.00" fill="#ffffff">AdemAlgebra_getDimension</text>
<text text-anchor="middle" x="417" y="-544" font-family="Arial" font-size="10.00" fill="#ffffff">1.30%</text>
<text text-anchor="middle" x="417" y="-533" font-family="Arial" font-size="10.00" fill="#ffffff">(1.30%)</text>
<text text-anchor="middle" x="417" y="-522" font-family="Arial" font-size="10.00" fill="#ffffff">642821455×</text>
</g>
<!-- AdemAlgebra_multiply -->
<g id="node13" class="node">
<title>AdemAlgebra_multiply</title>
<polygon fill="#0baa3f" stroke="#0baa3f" points="297,-681 183,-681 183,-618 297,-618 297,-681"/>
<text text-anchor="middle" x="240" y="-669" font-family="Arial" font-size="10.00" fill="#ffffff">csteen</text>
<text text-anchor="middle" x="240" y="-658" font-family="Arial" font-size="10.00" fill="#ffffff">AdemAlgebra_multiply</text>
<text text-anchor="middle" x="240" y="-647" font-family="Arial" font-size="10.00" fill="#ffffff">41.77%</text>
<text text-anchor="middle" x="240" y="-636" font-family="Arial" font-size="10.00" fill="#ffffff">(0.14%)</text>
<text text-anchor="middle" x="240" y="-625" font-family="Arial" font-size="10.00" fill="#ffffff">8503566×</text>
</g>
<!-- AdemAlgebra_multiply&#45;&gt;AdemAlgebra__makeMonoAdmissible2 -->
<g id="edge14" class="edge">
<title>AdemAlgebra_multiply&#45;&gt;AdemAlgebra__makeMonoAdmissible2</title>
<path fill="none" stroke="#0ba74f" stroke-width="1.56" d="M240,-617.7562C240,-607.2809 240,-595.5203 240,-584.6192"/>
<polygon fill="#0ba74f" stroke="#0ba74f" stroke-width="1.56" points="242.2051,-584.6163 240,-578.3163 237.7951,-584.6164 242.2051,-584.6163"/>
<text text-anchor="middle" x="261.5" y="-601" font-family="Arial" font-size="10.00" fill="#0ba74f">39.12%</text>
<text text-anchor="middle" x="261.5" y="-590" font-family="Arial" font-size="10.00" fill="#0ba74f">8503566×</text>
</g>
<!-- AdemAlgebra_multiply&#45;&gt;AdemAlgebra_basisElement_fromIndex -->
<g id="edge15" class="edge">
<title>AdemAlgebra_multiply&#45;&gt;AdemAlgebra_basisElement_fromIndex</title>
<path fill="none" stroke="#0d1776" stroke-width=".5" d="M182.8072,-627.2781C133.8704,-604.8313 66.6276,-564.9906 36,-506 13.6212,-462.8971 41.6505,-409.2521 65.9574,-374.9381"/>
<polygon fill="#0d1776" stroke="#0d1776" stroke-width=".5" points="66.9548,-375.6492 67.9973,-372.0906 64.9631,-374.2224 66.9548,-375.6492"/>
<text text-anchor="middle" x="60.5" y="-498" font-family="Arial" font-size="10.00" fill="#0d1776">2.46%</text>
<text text-anchor="middle" x="60.5" y="-487" font-family="Arial" font-size="10.00" fill="#0d1776">17007132×</text>
</g>
<!-- FreeModuleHomomorphism_getMatrix -->
<g id="node14" class="node">
<title>FreeModuleHomomorphism_getMatrix</title>
<polygon fill="#0aaf28" stroke="#0aaf28" points="576,-887 394,-887 394,-824 576,-824 576,-887"/>
<text text-anchor="middle" x="485" y="-875" font-family="Arial" font-size="10.00" fill="#ffffff">csteen</text>
<text text-anchor="middle" x="485" y="-864" font-family="Arial" font-size="10.00" fill="#ffffff">FreeModuleHomomorphism_getMatrix</text>
<text text-anchor="middle" x="485" y="-853" font-family="Arial" font-size="10.00" fill="#ffffff">45.40%</text>
<text text-anchor="middle" x="485" y="-842" font-family="Arial" font-size="10.00" fill="#ffffff">(0.13%)</text>
<text text-anchor="middle" x="485" y="-831" font-family="Arial" font-size="10.00" fill="#ffffff">3240×</text>
</g>
<!-- FreeModuleHomomorphism_getMatrix&#45;&gt;Vector_stepIterator -->
<g id="edge17" class="edge">
<title>FreeModuleHomomorphism_getMatrix&#45;&gt;Vector_stepIterator</title>
<path fill="none" stroke="#0d0e73" stroke-width=".5" d="M496.5835,-823.8338C497.4747,-820.869 498.2987,-817.892 499,-815 505.6142,-787.7263 508,-780.5643 508,-752.5 508,-752.5 508,-752.5 508,-443.5 508,-421.0986 505.6277,-396.0844 503.194,-376.3168"/>
<polygon fill="#0d0e73" stroke="#0d0e73" stroke-width=".5" points="504.3584,-375.7559 502.7072,-372.4356 501.9274,-376.0609 504.3584,-375.7559"/>
<text text-anchor="middle" x="532.5" y="-601" font-family="Arial" font-size="10.00" fill="#0d0e73">0.40%</text>
<text text-anchor="middle" x="532.5" y="-590" font-family="Arial" font-size="10.00" fill="#0d0e73">47716785×</text>
</g>
<!-- FreeModule_actOnBasis -->
<g id="node15" class="node">
<title>FreeModule_actOnBasis</title>
<polygon fill="#0aaf2c" stroke="#0aaf2c" points="479,-784 355,-784 355,-721 479,-721 479,-784"/>
<text text-anchor="middle" x="417" y="-772" font-family="Arial" font-size="10.00" fill="#ffffff">csteen</text>
<text text-anchor="middle" x="417" y="-761" font-family="Arial" font-size="10.00" fill="#ffffff">FreeModule_actOnBasis</text>
<text text-anchor="middle" x="417" y="-750" font-family="Arial" font-size="10.00" fill="#ffffff">44.87%</text>
<text text-anchor="middle" x="417" y="-739" font-family="Arial" font-size="10.00" fill="#ffffff">(0.14%)</text>
<text text-anchor="middle" x="417" y="-728" font-family="Arial" font-size="10.00" fill="#ffffff">8503566×</text>
</g>
<!-- FreeModuleHomomorphism_getMatrix&#45;&gt;FreeModule_actOnBasis -->
<g id="edge16" class="edge">
<title>FreeModuleHomomorphism_getMatrix&#45;&gt;FreeModule_actOnBasis</title>
<path fill="none" stroke="#0aaf2c" stroke-width="1.79" d="M463.7537,-823.6789C461.8056,-820.7466 459.8646,-817.8194 458,-815 452.591,-806.821 446.8031,-798.0251 441.3312,-789.6891"/>
<polygon fill="#0aaf2c" stroke="#0aaf2c" stroke-width="1.79" points="443.2379,-788.3204 437.602,-784.0047 439.3165,-790.8931 443.2379,-788.3204"/>
<text text-anchor="middle" x="479.5" y="-807" font-family="Arial" font-size="10.00" fill="#0aaf2c">44.87%</text>
<text text-anchor="middle" x="479.5" y="-796" font-family="Arial" font-size="10.00" fill="#0aaf2c">8503566×</text>
</g>
<!-- FreeModule_actOnBasis&#45;&gt;AdemAlgebra_multiply -->
<g id="edge18" class="edge">
<title>FreeModule_actOnBasis&#45;&gt;AdemAlgebra_multiply</title>
<path fill="none" stroke="#0baa3f" stroke-width="1.67" d="M362.4499,-720.7562C342.6736,-709.2479 320.2313,-696.1883 300.0104,-684.4213"/>
<polygon fill="#0baa3f" stroke="#0baa3f" stroke-width="1.67" points="301.1323,-682.442 294.37,-681.139 298.8438,-686.3746 301.1323,-682.442"/>
<text text-anchor="middle" x="366.5" y="-704" font-family="Arial" font-size="10.00" fill="#0baa3f">41.77%</text>
<text text-anchor="middle" x="366.5" y="-693" font-family="Arial" font-size="10.00" fill="#0baa3f">8503566×</text>
</g>
<!-- FreeModule_getDimension -->
<g id="node16" class="node">
<title>FreeModule_getDimension</title>
<polygon fill="#0d1876" stroke="#0d1876" points="483,-681 351,-681 351,-618 483,-618 483,-681"/>
<text text-anchor="middle" x="417" y="-669" font-family="Arial" font-size="10.00" fill="#ffffff">csteen</text>
<text text-anchor="middle" x="417" y="-658" font-family="Arial" font-size="10.00" fill="#ffffff">FreeModule_getDimension</text>
<text text-anchor="middle" x="417" y="-647" font-family="Arial" font-size="10.00" fill="#ffffff">2.67%</text>
<text text-anchor="middle" x="417" y="-636" font-family="Arial" font-size="10.00" fill="#ffffff">(1.44%)</text>
<text text-anchor="middle" x="417" y="-625" font-family="Arial" font-size="10.00" fill="#ffffff">8520233×</text>
</g>
<!-- FreeModule_actOnBasis&#45;&gt;FreeModule_getDimension -->
<g id="edge19" class="edge">
<title>FreeModule_actOnBasis&#45;&gt;FreeModule_getDimension</title>
<path fill="none" stroke="#0d1876" stroke-width=".5" d="M417,-720.7562C417,-709.3998 417,-696.5328 417,-684.888"/>
<polygon fill="#0d1876" stroke="#0d1876" stroke-width=".5" points="418.2251,-684.8163 417,-681.3163 415.7751,-684.8164 418.2251,-684.8163"/>
<text text-anchor="middle" x="438.5" y="-704" font-family="Arial" font-size="10.00" fill="#0d1876">2.66%</text>
<text text-anchor="middle" x="438.5" y="-693" font-family="Arial" font-size="10.00" fill="#0d1876">8503566×</text>
</g>
<!-- FreeModule_getDimension&#45;&gt;AdemAlgebra_getDimension -->
<g id="edge20" class="edge">
<title>FreeModule_getDimension&#45;&gt;AdemAlgebra_getDimension</title>
<path fill="none" stroke="#0d1274" stroke-width=".5" d="M417,-617.7562C417,-606.3998 417,-593.5328 417,-581.888"/>
<polygon fill="#0d1274" stroke="#0d1274" stroke-width=".5" points="418.2251,-581.8163 417,-578.3163 415.7751,-581.8164 418.2251,-581.8163"/>
<text text-anchor="middle" x="444" y="-601" font-family="Arial" font-size="10.00" fill="#0d1274">1.23%</text>
<text text-anchor="middle" x="444" y="-590" font-family="Arial" font-size="10.00" fill="#0d1274">608073263×</text>
</g>
<!-- Resolution_generateOldKernelAndComputeNewKernel -->
<g id="node17" class="node">
<title>Resolution_generateOldKernelAndComputeNewKernel</title>
<polygon fill="#ff0200" stroke="#ff0200" points="663.5,-990 412.5,-990 412.5,-927 663.5,-927 663.5,-990"/>
<text text-anchor="middle" x="538" y="-978" font-family="Arial" font-size="10.00" fill="#ffffff">csteen</text>
<text text-anchor="middle" x="538" y="-967" font-family="Arial" font-size="10.00" fill="#ffffff">Resolution_generateOldKernelAndComputeNewKernel</text>
<text text-anchor="middle" x="538" y="-956" font-family="Arial" font-size="10.00" fill="#ffffff">99.79%</text>
<text text-anchor="middle" x="538" y="-945" font-family="Arial" font-size="10.00" fill="#ffffff">(0.01%)</text>
<text text-anchor="middle" x="538" y="-934" font-family="Arial" font-size="10.00" fill="#ffffff">3240×</text>
</g>
<!-- Resolution_generateOldKernelAndComputeNewKernel&#45;&gt;FreeModuleHomomorphism_getMatrix -->
<g id="edge21" class="edge">
<title>Resolution_generateOldKernelAndComputeNewKernel&#45;&gt;FreeModuleHomomorphism_getMatrix</title>
<path fill="none" stroke="#0aaf28" stroke-width="1.82" d="M521.6658,-926.7562C516.2252,-916.183 510.1109,-904.3004 504.4576,-893.3138"/>
<polygon fill="#0aaf28" stroke="#0aaf28" stroke-width="1.82" points="506.5223,-892.2009 501.3715,-887.3163 502.352,-894.3469 506.5223,-892.2009"/>
<text text-anchor="middle" x="534" y="-910" font-family="Arial" font-size="10.00" fill="#0aaf28">45.40%</text>
<text text-anchor="middle" x="534" y="-899" font-family="Arial" font-size="10.00" fill="#0aaf28">3240×</text>
</g>
<!-- rowReduce -->
<g id="node18" class="node">
<title>rowReduce</title>
<polygon fill="#28bc09" stroke="#28bc09" points="622.5,-578 557.5,-578 557.5,-515 622.5,-515 622.5,-578"/>
<text text-anchor="middle" x="590" y="-566" font-family="Arial" font-size="10.00" fill="#ffffff">csteen</text>
<text text-anchor="middle" x="590" y="-555" font-family="Arial" font-size="10.00" fill="#ffffff">rowReduce</text>
<text text-anchor="middle" x="590" y="-544" font-family="Arial" font-size="10.00" fill="#ffffff">54.29%</text>
<text text-anchor="middle" x="590" y="-533" font-family="Arial" font-size="10.00" fill="#ffffff">(12.07%)</text>
<text text-anchor="middle" x="590" y="-522" font-family="Arial" font-size="10.00" fill="#ffffff">6480×</text>
</g>
<!-- Resolution_generateOldKernelAndComputeNewKernel&#45;&gt;rowReduce -->
<g id="edge22" class="edge">
<title>Resolution_generateOldKernelAndComputeNewKernel&#45;&gt;rowReduce</title>
<path fill="none" stroke="#28bc09" stroke-width="2.17" d="M563.6953,-926.6824C576.7961,-907.2928 590,-881.3408 590,-855.5 590,-855.5 590,-855.5 590,-649.5 590,-628.3462 590,-604.7487 590,-585.4829"/>
<polygon fill="#28bc09" stroke="#28bc09" stroke-width="2.17" points="592.5901,-585.4555 590,-578.0555 587.4101,-585.4556 592.5901,-585.4555"/>
<text text-anchor="middle" x="607" y="-755.5" font-family="Arial" font-size="10.00" fill="#28bc09">54.29%</text>
<text text-anchor="middle" x="607" y="-744.5" font-family="Arial" font-size="10.00" fill="#28bc09">6480×</text>
</g>
<!-- rowReduce&#45;&gt;Vector_stepIterator -->
<g id="edge34" class="edge">
<title>rowReduce&#45;&gt;Vector_stepIterator</title>
<path fill="none" stroke="#0c9393" d="M560.6494,-514.6905C551.199,-502.9575 541.5009,-489.0756 535,-475 517.0907,-436.223 527.7665,-421.7604 515,-381 514.5726,-379.6356 514.1167,-378.2537 513.6386,-376.8644"/>
<polygon fill="#0c9393" stroke="#0c9393" points="515.2741,-376.2405 511.9375,-372.126 511.98,-377.4232 515.2741,-376.2405"/>
<text text-anchor="middle" x="564.5" y="-446.5" font-family="Arial" font-size="10.00" fill="#0c9393">25.03%</text>
<text text-anchor="middle" x="564.5" y="-435.5" font-family="Arial" font-size="10.00" fill="#0c9393">2978502112×</text>
</g>
<!-- Vector_add -->
<g id="node23" class="node">
<title>Vector_add</title>
<polygon fill="#0c6289" stroke="#0c6289" points="669,-475 599,-475 599,-412 669,-412 669,-475"/>
<text text-anchor="middle" x="634" y="-463" font-family="Arial" font-size="10.00" fill="#ffffff">csteen</text>
<text text-anchor="middle" x="634" y="-452" font-family="Arial" font-size="10.00" fill="#ffffff">Vector_add</text>
<text text-anchor="middle" x="634" y="-441" font-family="Arial" font-size="10.00" fill="#ffffff">17.19%</text>
<text text-anchor="middle" x="634" y="-430" font-family="Arial" font-size="10.00" fill="#ffffff">(0.20%)</text>
<text text-anchor="middle" x="634" y="-419" font-family="Arial" font-size="10.00" fill="#ffffff">117064263×</text>
</g>
<!-- rowReduce&#45;&gt;Vector_add -->
<g id="edge33" class="edge">
<title>rowReduce&#45;&gt;Vector_add</title>
<path fill="none" stroke="#0c6289" stroke-width=".69" d="M603.5605,-514.7562C608.3699,-503.4977 613.8136,-490.7546 618.754,-479.1894"/>
<polygon fill="#0c6289" stroke="#0c6289" stroke-width=".69" points="620.1175,-479.6505 620.4086,-475.3163 617.4782,-478.523 620.1175,-479.6505"/>
<text text-anchor="middle" x="643" y="-498" font-family="Arial" font-size="10.00" fill="#0c6289">17.18%</text>
<text text-anchor="middle" x="643" y="-487" font-family="Arial" font-size="10.00" fill="#0c6289">116599252×</text>
</g>
<!-- Resolution_step -->
<g id="node20" class="node">
<title>Resolution_step</title>
<polygon fill="#ff0200" stroke="#ff0200" points="581,-1093 495,-1093 495,-1030 581,-1030 581,-1093"/>
<text text-anchor="middle" x="538" y="-1081" font-family="Arial" font-size="10.00" fill="#ffffff">csteen</text>
<text text-anchor="middle" x="538" y="-1070" font-family="Arial" font-size="10.00" fill="#ffffff">Resolution_step</text>
<text text-anchor="middle" x="538" y="-1059" font-family="Arial" font-size="10.00" fill="#ffffff">99.79%</text>
<text text-anchor="middle" x="538" y="-1048" font-family="Arial" font-size="10.00" fill="#ffffff">(0.00%)</text>
<text text-anchor="middle" x="538" y="-1037" font-family="Arial" font-size="10.00" fill="#ffffff">3240×</text>
</g>
<!-- Resolution_resolveThroughDegree&#45;&gt;Resolution_step -->
<g id="edge23" class="edge">
<title>Resolution_resolveThroughDegree&#45;&gt;Resolution_step</title>
<path fill="none" stroke="#ff0200" stroke-width="3.99" d="M538,-1132.7562C538,-1123.5536 538,-1113.3591 538,-1103.6267"/>
<polygon fill="#ff0200" stroke="#ff0200" stroke-width="3.99" points="541.5001,-1103.3163 538,-1093.3163 534.5001,-1103.3164 541.5001,-1103.3163"/>
<text text-anchor="middle" x="555" y="-1116" font-family="Arial" font-size="10.00" fill="#ff0200">99.79%</text>
<text text-anchor="middle" x="555" y="-1105" font-family="Arial" font-size="10.00" fill="#ff0200">3240×</text>
</g>
<!-- Resolution_step&#45;&gt;Resolution_generateOldKernelAndComputeNewKernel -->
<g id="edge24" class="edge">
<title>Resolution_step&#45;&gt;Resolution_generateOldKernelAndComputeNewKernel</title>
<path fill="none" stroke="#ff0200" stroke-width="3.99" d="M538,-1029.7562C538,-1020.5536 538,-1010.3591 538,-1000.6267"/>
<polygon fill="#ff0200" stroke="#ff0200" stroke-width="3.99" points="541.5001,-1000.3163 538,-990.3163 534.5001,-1000.3164 541.5001,-1000.3163"/>
<text text-anchor="middle" x="555" y="-1013" font-family="Arial" font-size="10.00" fill="#ff0200">99.79%</text>
<text text-anchor="middle" x="555" y="-1002" font-family="Arial" font-size="10.00" fill="#ff0200">3240×</text>
</g>
<!-- Vector2_add -->
<g id="node21" class="node">
<title>Vector2_add</title>
<polygon fill="#0c6189" stroke="#0c6189" points="669.5,-372 598.5,-372 598.5,-309 669.5,-309 669.5,-372"/>
<text text-anchor="middle" x="634" y="-360" font-family="Arial" font-size="10.00" fill="#ffffff">csteen</text>
<text text-anchor="middle" x="634" y="-349" font-family="Arial" font-size="10.00" fill="#ffffff">Vector2_add</text>
<text text-anchor="middle" x="634" y="-338" font-family="Arial" font-size="10.00" fill="#ffffff">16.99%</text>
<text text-anchor="middle" x="634" y="-327" font-family="Arial" font-size="10.00" fill="#ffffff">(16.88%)</text>
<text text-anchor="middle" x="634" y="-316" font-family="Arial" font-size="10.00" fill="#ffffff">117064263×</text>
</g>
<!-- Vector2_add&#45;&gt;getBitlength -->
<g id="edge25" class="edge">
<title>Vector2_add&#45;&gt;getBitlength</title>
<path fill="none" stroke="#0d0d73" stroke-width=".5" d="M628.7443,-308.6841C626.7403,-298.7415 624.1605,-287.8106 621,-278 620.4102,-276.1691 619.7639,-274.3095 619.0778,-272.4443"/>
<polygon fill="#0d0d73" stroke="#0d0d73" stroke-width=".5" points="620.1905,-271.9237 617.8034,-269.086 617.8999,-272.793 620.1905,-271.9237"/>
<text text-anchor="middle" x="654" y="-292" font-family="Arial" font-size="10.00" fill="#0d0d73">0.11%</text>
<text text-anchor="middle" x="654" y="-281" font-family="Arial" font-size="10.00" fill="#0d0d73">117064263×</text>
</g>
<!-- Vector_add&#45;&gt;Vector2_add -->
<g id="edge26" class="edge">
<title>Vector_add&#45;&gt;Vector2_add</title>
<path fill="none" stroke="#0c6189" stroke-width=".68" d="M634,-411.7562C634,-400.5956 634,-387.9761 634,-376.4914"/>
<polygon fill="#0c6189" stroke="#0c6189" stroke-width=".68" points="635.4351,-376.4163 634,-372.3163 632.5651,-376.4164 635.4351,-376.4163"/>
<text text-anchor="middle" x="661" y="-395" font-family="Arial" font-size="10.00" fill="#0c6189">16.99%</text>
<text text-anchor="middle" x="661" y="-384" font-family="Arial" font-size="10.00" fill="#0c6189">117064263×</text>
</g>
</g>
</svg>
